<svg width="254" height="134" viewBox="0 0 254 134" fill="none" xmlns="http://www.w3.org/2000/svg">
<path d="M3.63363 132.167C2.55682 131.32 1.32718 129.372 0.90114 127.837C0.429565 126.14 0.124861 113.183 0.122329 94.72C0.11666 62.1759 0.269728 60.7308 3.97061 58.1386C5.5685 57.0194 14.0624 56.9109 100.045 56.9109H194.366L194.395 35.265L194.424 13.6191L202.737 6.98445C207.31 3.33536 211.452 0.196026 211.941 0.00813092C212.431 -0.179674 216.808 2.90905 221.669 6.87214L230.506 14.0778V35.4943V56.9109H239.439C249.419 56.9109 251.416 57.6953 252.999 62.2372C254.067 65.2995 254.112 124.02 253.05 127.867C252.631 129.385 251.407 131.32 250.33 132.167C248.376 133.704 248.132 133.707 126.982 133.707C5.83172 133.707 5.58761 133.704 3.63364 132.167H3.63363ZM249.27 130.252L251.587 128.303V95.2059V62.1093L249.595 60.263C247.723 58.5286 247.084 58.4167 239.054 58.4167C231.007 58.4167 230.506 58.5052 230.506 59.9225C230.506 61.3038 231.007 61.4283 236.578 61.4283C242.659 61.4283 245.141 62.1397 246.857 64.3746C247.541 65.265 247.78 72.9844 247.798 94.6826C247.813 110.695 247.612 124.344 247.355 125.015C245.995 128.559 250.314 128.436 126.608 128.436H10.5903L8.79215 126.638C7.80316 125.649 6.78509 123.701 6.52975 122.309C6.27452 120.917 6.16725 107.505 6.29156 92.5055C6.5175 65.2703 6.52008 65.2306 8.23255 63.5189L9.94737 61.8048L102.157 61.6075C193.795 61.4118 194.366 61.4012 194.366 59.9049C194.366 58.4063 193.926 58.4002 99.8107 58.5961L5.25516 58.7931L3.81594 60.5705C2.44749 62.2606 2.37757 63.9628 2.39348 95.2039C2.40784 125.199 2.52353 128.2 3.71105 129.663C4.42652 130.545 5.52012 131.45 6.14126 131.674C6.7624 131.899 61.1993 132.109 127.112 132.141L246.954 132.201L249.27 130.252ZM24.9638 121.66C24.9638 121.246 24.4556 120.907 23.8345 120.907C23.2133 120.907 22.7051 120.569 22.7051 120.154C22.7051 119.74 23.2133 119.402 23.8345 119.402C25.4248 119.402 25.2491 117.915 23.6464 117.808C22.3915 117.725 22.3915 117.705 23.6464 117.377C25.6267 116.859 25.23 115.637 23.0817 115.637C21.3932 115.637 21.1994 115.942 21.1994 118.596C21.1994 121.067 21.4795 121.609 22.8935 121.882C23.8252 122.061 24.6722 122.254 24.7757 122.311C24.8793 122.367 24.9641 122.074 24.9641 121.66H24.9638ZM28.2558 119.966C28.5715 120.898 29.094 121.66 29.4169 121.66C29.7398 121.66 30.3717 120.898 30.821 119.966L31.638 118.272L31.689 119.966C31.7173 120.898 32.1164 121.66 32.5766 121.66C33.1353 121.66 33.2381 120.722 32.8859 118.837C32.5958 117.284 32.2419 115.895 32.0993 115.75C31.5719 115.214 30.2341 116.515 30.2341 117.564C30.2341 118.16 29.8953 118.649 29.4812 118.649C29.0671 118.649 28.7283 117.971 28.7283 117.143C28.7283 114.477 26.6904 115.49 26.2199 118.39C25.678 121.73 26.6349 123.723 27.2479 120.531C27.6578 118.397 27.7135 118.366 28.2558 119.966H28.2558ZM35.5044 120.487C35.5044 119.89 35.9844 119.402 36.571 119.402C37.1577 119.402 37.7854 118.978 37.9659 118.46C38.5448 116.801 37.6523 115.637 35.8003 115.637C34.1635 115.637 33.9986 115.951 33.9986 119.07C33.9986 121.166 34.2916 122.321 34.7515 122.037C35.1656 121.781 35.5044 121.083 35.5044 120.487V120.487ZM41.9176 121.672C42.5626 122.207 42.8087 121.504 42.8462 119.018C42.8929 115.933 42.7384 115.637 41.0832 115.637C39.4235 115.637 39.2689 115.939 39.2689 119.176C39.2689 121.888 39.4758 122.508 40.1545 121.829C40.735 121.248 41.3424 121.194 41.9176 121.671V121.672ZM48.3037 121.472C48.3037 121.161 47.7955 120.907 47.1744 120.907C46.5532 120.907 46.045 120.569 46.045 120.154C46.045 119.74 46.5532 119.402 47.1744 119.402C48.7647 119.402 48.589 117.915 46.9863 117.808C45.7314 117.725 45.7314 117.705 46.9863 117.377C48.9666 116.859 48.5699 115.637 46.4216 115.637C44.7091 115.637 44.5393 115.926 44.5393 118.837C44.5393 121.748 44.7092 122.037 46.4216 122.037C47.4568 122.037 48.3038 121.783 48.3038 121.472H48.3037ZM52.8927 121.197C53.7577 120.155 53.6515 119.779 52.1486 118.562C50.5776 117.29 50.6131 116.794 52.2565 117.054C52.567 117.103 52.8212 116.804 52.8212 116.39C52.8212 115.192 49.8079 115.518 49.3283 116.768C49.077 117.423 49.6414 118.559 50.6695 119.466C51.9152 120.566 52.0589 120.912 51.1512 120.627C49.807 120.204 48.7385 121.091 49.5791 121.932C50.4186 122.771 51.8498 122.454 52.8928 121.197H52.8927ZM58.1199 121.293C59.8163 121.831 59.9204 121.307 58.7707 118.008C57.7519 115.086 56.2265 114.956 55.2305 117.707C54.8182 118.846 54.2255 120.41 53.9133 121.183C53.4082 122.434 53.5271 122.491 54.9941 121.706C55.9007 121.221 57.3073 121.035 58.1199 121.293V121.293ZM67.8804 118.652C67.333 116.994 66.4312 115.637 65.8764 115.637C65.3215 115.637 64.8675 115.765 64.8675 115.922C64.8675 116.078 64.3419 117.464 63.6995 119.001L62.5315 121.797L64.7572 121.308C66.1035 121.012 67.1897 121.154 67.5064 121.666C68.5996 123.435 68.8344 121.543 67.8804 118.652L67.8804 118.652ZM74.7293 120.813C75.6546 119.352 75.5623 117.598 74.5045 116.54C73.3155 115.351 70.1639 115.378 70.0426 116.578C69.789 119.085 69.7416 121.332 69.9324 121.782C70.3009 122.649 74.0451 121.893 74.729 120.813L74.7293 120.813ZM71.4106 120.423C71.1247 120.137 70.8907 119.282 70.8907 118.523C70.8907 117.021 72.7477 116.637 73.5705 117.968C74.1664 118.932 72.1789 121.192 71.4106 120.423V120.423ZM85.9487 119.025C85.9487 117.162 85.6099 115.637 85.1958 115.637C84.7817 115.637 84.4429 117.162 84.4429 119.025C84.4429 120.888 84.7817 122.413 85.1958 122.413C85.6099 122.413 85.9487 120.888 85.9487 119.025ZM90.0724 119.979C92.1359 122.376 92.362 122.253 92.9554 118.411C93.2733 116.353 93.1432 115.629 92.4973 115.859C92.0013 116.035 91.6745 116.989 91.7711 117.979C91.9422 119.729 91.8972 119.718 90.1104 117.549C87.9687 114.949 87.179 115.359 87.2663 119.025C87.354 122.702 87.6414 123.225 87.9983 120.355L88.301 117.921L90.0724 119.979ZM95.7364 119.025C95.7364 117.162 95.3976 115.637 94.9835 115.637C94.5694 115.637 94.2306 117.162 94.2306 119.025C94.2306 120.888 94.5695 122.413 94.9835 122.413C95.3976 122.413 95.7364 120.888 95.7364 119.025ZM99.8158 121.956C101.327 121.376 101.368 118.948 99.8773 118.376C99.2561 118.138 98.7479 117.604 98.7479 117.19C98.7479 116.776 99.2561 116.632 99.8773 116.871C100.498 117.109 101.007 116.929 101.007 116.47C101.007 116.012 100.16 115.637 99.1243 115.637C97.7343 115.637 97.2421 116.037 97.2421 117.166C97.2421 118.008 97.7503 118.891 98.3714 119.129C98.9926 119.368 99.5008 119.901 99.5008 120.316C99.5008 120.73 98.9926 120.873 98.3714 120.635C97.2238 120.195 96.8295 120.997 97.744 121.911C98.3551 122.522 98.3411 122.522 99.8157 121.956L99.8158 121.956ZM109.539 121.226C109.823 121.966 110.548 122.191 111.698 121.896C112.65 121.651 114.361 121.449 115.5 121.447C117.877 121.445 117.87 121.464 116.666 118.137C115.5 114.911 114.148 114.96 112.951 118.272C112.427 119.722 111.747 120.907 111.441 120.907C110.401 120.907 109.867 119.275 110.651 118.491C111.867 117.275 110.823 115.637 108.832 115.637C107.181 115.637 107.032 115.937 107.054 119.213C107.074 122.378 107.195 122.635 108.094 121.45C108.951 120.321 109.178 120.286 109.539 121.226V121.226ZM124.195 118.873C124.483 116.963 122.655 115.453 120.435 115.767C118.976 115.974 118.723 116.422 118.843 118.577C118.922 119.986 119.429 121.413 119.968 121.746C121.271 122.551 123.91 120.757 124.195 118.873ZM120.133 119.861C119.449 118.076 121.009 116.516 122.244 117.751C122.954 118.46 122.877 118.935 121.895 119.917C120.72 121.092 120.604 121.088 120.133 119.861L120.133 119.861ZM130.692 121.23C132.967 118.956 131.658 115.637 128.488 115.637C125.317 115.637 124.009 118.956 126.283 121.23C126.933 121.881 127.926 122.413 128.488 122.413C129.05 122.413 130.042 121.881 130.692 121.23ZM127.417 119.849C126.355 118.57 126.92 117.143 128.488 117.143C130.118 117.143 130.659 118.682 129.453 119.888C128.495 120.846 128.24 120.841 127.417 119.849V119.849ZM141.912 121.554C143.596 122.952 143.905 121.632 142.634 118.46C141.185 114.845 139.871 114.875 138.771 118.548C137.617 122.398 137.652 122.58 139.343 121.524C140.472 120.819 141.034 120.826 141.912 121.554V121.554ZM140.158 118.604C140.158 118.166 140.496 118.016 140.91 118.272C141.325 118.528 141.663 118.887 141.663 119.069C141.663 119.252 141.325 119.401 140.91 119.401C140.496 119.401 140.158 119.043 140.158 118.604ZM152.673 119.679C153.27 117.299 151.694 115.504 149.257 115.787C147.072 116.041 146.313 118.341 147.613 120.769C148.705 122.811 152.068 122.086 152.673 119.679ZM148.894 119.711C148.219 117.95 149.636 116.533 150.854 117.751C151.564 118.461 151.504 118.918 150.581 119.842C149.506 120.916 149.352 120.904 148.894 119.711L148.894 119.711ZM156.91 121.05C155.031 120.776 154.56 119.402 156.345 119.402C157.935 119.402 157.76 117.915 156.157 117.809C154.902 117.725 154.902 117.705 156.157 117.377C158.137 116.859 157.74 115.637 155.592 115.637C153.904 115.637 153.71 115.942 153.71 118.594C153.71 121.643 154.934 122.659 157.474 121.716C158.275 121.42 158.11 121.225 156.91 121.05H156.91ZM170.37 120.334C169.829 119.324 169.836 118.634 170.392 118.077C171.553 116.917 170.479 115.637 168.346 115.637C166.703 115.637 166.508 115.958 166.508 118.649C166.508 120.305 166.847 121.66 167.261 121.66C167.675 121.66 168.014 121.297 168.014 120.854C168.014 120.41 168.562 120.596 169.233 121.266C170.758 122.791 171.401 122.264 170.368 120.334H170.37ZM177.979 120.618C179.459 118.371 177.916 115.637 175.167 115.637C171.979 115.637 170.69 118.958 172.988 121.256C174.258 122.526 176.949 122.182 177.979 120.618ZM173.571 119.814C173.032 118.408 173.82 117.143 175.235 117.143C176.774 117.143 177.498 119.409 176.218 120.219C174.721 121.167 174.051 121.064 173.571 119.814ZM186.084 119.025C186.084 117.162 185.746 115.637 185.332 115.637C184.917 115.637 184.579 117.162 184.579 119.025C184.579 120.889 184.917 122.413 185.332 122.413C185.746 122.413 186.084 120.889 186.084 119.025ZM190.978 121.66C191.234 121.246 190.915 120.908 190.27 120.908C189.624 120.908 189.096 120.569 189.096 120.155C189.096 119.741 189.604 119.402 190.225 119.402C190.847 119.402 191.355 119.063 191.355 118.649C191.355 118.235 190.782 117.896 190.081 117.896C188.971 117.896 188.995 117.755 190.27 116.791C191.67 115.732 191.644 115.684 189.661 115.661C187.751 115.639 187.59 115.865 187.59 118.586C187.59 121.207 188.191 122.148 189.993 122.354C190.279 122.387 190.722 122.075 190.978 121.66H190.978ZM197.547 120.66C199.142 118.152 197.474 115.637 194.216 115.637C192.274 115.637 192.108 115.864 192.108 118.523C192.108 120.111 192.352 121.653 192.65 121.951C193.377 122.679 196.845 121.764 197.547 120.66ZM194.31 120.881C194.28 120.688 194.112 119.769 193.939 118.837C193.731 117.721 193.991 117.143 194.703 117.143C196.433 117.143 196.908 118.689 195.585 120.012C194.915 120.682 194.341 121.073 194.31 120.881V120.881ZM214.506 121.071C212.644 120.684 212.87 119.563 214.883 119.208C216.573 118.911 216.572 118.908 214.695 118.074C213.334 117.47 213.177 117.225 214.13 117.191C216.204 117.116 215.667 115.637 213.565 115.637C211.885 115.637 211.683 115.947 211.683 118.523C211.683 121.967 212.006 122.391 214.173 121.797C215.537 121.424 215.595 121.297 214.506 121.071H214.506ZM219.527 121.956C221.038 121.377 221.079 118.949 219.589 118.377C218.968 118.138 218.459 117.605 218.459 117.19C218.459 116.776 218.968 116.633 219.589 116.871C220.21 117.109 220.718 116.929 220.718 116.471C220.718 116.012 219.871 115.637 218.836 115.637C217.446 115.637 216.953 116.037 216.953 117.167C216.953 118.008 217.462 118.891 218.083 119.13C218.704 119.368 219.212 119.902 219.212 120.316C219.212 120.73 218.704 120.874 218.083 120.635C216.935 120.195 216.541 120.997 217.455 121.912C218.067 122.523 218.052 122.522 219.527 121.956L219.527 121.956ZM227.056 121.956C228.634 121.351 228.57 119.437 226.929 118.191C225.675 117.239 225.675 117.19 226.929 117.167C229.012 117.129 228.462 115.637 226.365 115.637C224.975 115.637 224.482 116.037 224.482 117.167C224.482 118.008 224.991 118.891 225.612 119.13C226.233 119.368 226.741 119.902 226.741 120.316C226.741 120.73 226.233 120.874 225.612 120.635C224.464 120.195 224.07 120.997 224.984 121.912C225.595 122.523 225.581 122.522 227.056 121.956H227.056ZM230.506 121.661C230.506 121.246 230.147 120.908 229.708 120.908C229.27 120.908 229.12 121.246 229.376 121.661C229.632 122.075 229.991 122.413 230.174 122.413C230.356 122.413 230.506 122.075 230.506 121.661ZM235.74 121.273C237.501 121.832 237.612 121.327 236.455 118.008C235.342 114.815 233.987 115.023 232.581 118.602C231.349 121.738 231.606 122.934 233.224 121.592C233.759 121.147 234.892 121.003 235.74 121.273V121.273ZM239.54 121.661C239.54 121.246 239.182 120.908 238.743 120.908C238.304 120.908 238.155 121.246 238.411 121.661C238.667 122.075 239.026 122.413 239.208 122.413C239.391 122.413 239.54 122.075 239.54 121.661ZM77.7145 119.967L77.7624 118.273L78.4433 119.967C79.2512 121.977 80.6685 122.213 80.7025 120.343C80.7251 119.147 80.8274 119.159 81.824 120.476C83.2865 122.409 83.688 121.827 83.0485 118.7C82.3813 115.438 80.895 114.889 80.2024 117.649L79.6708 119.767L78.97 117.664C78.5846 116.508 77.8796 115.69 77.4034 115.846C76.2933 116.21 75.792 121.661 76.8686 121.661C77.3077 121.661 77.6884 120.898 77.7146 119.966L77.7145 119.967ZM104.771 119.402C104.771 118.16 105.11 117.143 105.524 117.143C105.938 117.143 106.277 116.804 106.277 116.39C106.277 115.976 105.261 115.637 104.018 115.637C102.776 115.637 101.76 115.976 101.76 116.39C101.76 116.804 102.098 117.143 102.513 117.143C102.927 117.143 103.265 118.16 103.265 119.402C103.265 120.644 103.604 121.661 104.018 121.661C104.432 121.661 104.771 120.644 104.771 119.402ZM134.445 120.719C134.02 119.967 134.116 119.967 134.927 120.719C136.548 122.224 136.934 121.845 136.849 118.837C136.779 116.34 136.53 115.986 134.699 115.776C132.741 115.55 132.629 115.703 132.629 118.599C132.629 120.87 132.932 121.661 133.802 121.661C134.523 121.661 134.771 121.297 134.445 120.719V120.719ZM163.497 120.803C163.497 120.331 164.061 119.533 164.749 119.029C166.327 117.875 165.569 115.637 163.6 115.637C162.458 115.637 162.089 116.277 161.863 118.649C161.663 120.74 161.868 121.661 162.536 121.661C163.065 121.661 163.497 121.274 163.497 120.803V120.803ZM181.379 120.961C181.275 120.576 181.802 119.805 182.549 119.247C184.362 117.894 183.462 115.638 181.11 115.638C179.51 115.638 179.308 115.975 179.308 118.649C179.308 120.824 179.622 121.661 180.438 121.661C181.059 121.661 181.482 121.346 181.379 120.961V120.961ZM204.154 120.978C204.154 119.589 202.177 115.637 201.482 115.637C201.007 115.637 200.116 116.915 199.502 118.478L198.386 121.318H201.27C202.856 121.318 204.154 121.165 204.154 120.978V120.978ZM210.474 119.966C211.676 118.047 210.164 116.065 207.278 115.778C204.963 115.547 204.907 115.616 204.907 118.649C204.907 121.682 204.964 121.75 207.278 121.52C208.582 121.39 210.02 120.691 210.474 119.966V119.966ZM206.876 120.295C206.311 119.38 207.076 117.143 207.955 117.143C209.247 117.143 209.562 118.833 208.473 119.923C207.774 120.622 207.165 120.763 206.876 120.295V120.295ZM55.4651 108.103C60.9128 104.736 64.1146 98.2927 64.1146 90.6969C64.1146 87.0087 63.8958 86.2645 62.797 86.2163C61.6368 86.1654 47.9633 86.1937 45.4804 86.2519C44.8345 86.2662 44.5392 87.6912 44.5392 90.7914V95.3088H49.0566C51.5412 95.3088 53.574 95.5723 53.574 95.8942C53.574 98.8016 47.4596 102.448 43.9682 101.622C37.7206 100.145 34.9065 90.3422 38.5623 82.7903C41.1238 77.499 47.1107 76.7 51.7239 81.0339L53.3266 82.5395L57.5912 80.5871C59.9368 79.5132 61.8559 78.1773 61.8559 77.6182C61.8559 75.9305 58.1491 72.0666 54.4358 69.8837C47.7594 65.9589 37.7598 67.5707 31.7978 73.5326C27.5498 77.7806 26.13 81.8516 26.1367 89.7636C26.1424 95.9052 26.3825 97.1106 28.386 101.028C31.226 106.581 35.2425 109.556 40.859 110.266C46.3567 110.961 52.2532 110.088 55.4651 108.103V108.103ZM176.275 109.56C186.156 105.078 190.656 96.6387 188.954 85.7825C186.265 68.638 168.202 61.731 156.296 73.2946C151.063 78.3762 148.774 87.2889 150.671 95.1951C153.571 107.285 165.964 114.237 176.275 109.56ZM166.712 99.4447C163.276 97.9766 161.245 94.2936 161.242 89.523C161.239 84.7261 162.128 82.2559 164.729 79.8456C169.796 75.1497 177.276 79.2487 177.833 87.027C178.231 92.5945 177.807 94.299 175.356 96.999C172.465 100.181 170.041 100.867 166.712 99.4447V99.4447ZM100.655 108.861C99.9847 106.591 91.7945 79.713 90.1018 74.2277L88.3594 68.581L81.6405 68.3661L74.9217 68.1516L69.0309 87.5652C65.791 98.2428 62.9811 107.572 62.7867 108.296C62.4728 109.466 63.0714 109.614 68.1234 109.614H73.8137L74.4445 106.414L75.0753 103.214L81.3886 102.994C88.0715 102.76 88.9262 103.141 88.9488 106.36C88.9688 109.153 90.588 109.99 95.972 109.99C100.078 109.99 100.928 109.785 100.655 108.861V108.861ZM79.6034 86.9727C80.6088 83.2159 81.462 79.9126 81.4996 79.6319C81.6103 78.8036 85.0759 91.0448 85.1386 92.4855C85.1858 93.5699 84.539 93.8031 81.4856 93.8031H77.7754L79.6034 86.9727ZM113.44 108.673C113.627 108.155 114.236 103.497 114.793 98.3205C115.939 87.68 115.779 87.5337 119.109 102.273L120.768 109.614H124.787H128.806L129.64 106.414C131.97 97.4748 134.112 89.8095 134.347 89.5751C134.491 89.4306 135.055 93.4566 135.599 98.522C136.143 103.587 136.75 108.155 136.947 108.673C137.186 109.297 139.015 109.614 142.376 109.614H147.444L146.83 105.285C146.492 102.904 145.349 94.5183 144.29 86.6505C141.505 65.9549 142.471 68.2044 136.365 68.2044H131.186L129.707 73.2865C128.893 76.0816 127.66 80.5708 126.966 83.2624C125.087 90.5474 124.987 90.7122 124.204 87.7798C123.818 86.3305 122.463 81.3331 121.195 76.6745L118.889 68.2044H113.336C110.282 68.2044 107.783 68.3014 107.783 68.4201C107.783 68.5388 106.598 77.7711 105.149 88.9366C103.701 100.102 102.515 109.322 102.514 109.426C102.513 109.529 104.895 109.614 107.806 109.614C111.358 109.614 113.212 109.304 113.44 108.673V108.673ZM204.432 107.92C204.682 106.988 204.891 101.678 204.897 96.1204L204.908 86.0149L210.628 94.9911C220.916 111.135 219.386 109.614 225.339 109.614H230.507V88.9092V68.2044H225.236H219.966V74.1241C219.966 73.2519 219.638 86.1362 217.827 85.9374C213.747 81.857 210.266 76.3875 208.094 73.2769L204.33 67.8279L199.349 68.0803L194.368 68.3327V88.9732V109.614H199.174C203.521 109.614 204.023 109.452 204.434 107.92L204.432 107.92ZM74.6552 51.4308C71.54 49.8742 70.1403 46.0355 70.139 39.0447C70.1383 35.1648 70.5802 31.7429 71.3213 29.8906C73.5442 24.3351 79.544 23.9637 81.7946 29.2423C82.8093 31.6225 82.7776 31.718 80.6247 32.7683C78.6027 33.7548 78.3193 33.7223 77.3402 32.3919C76.3319 31.0218 76.238 31.0148 75.7506 32.2724C75.2338 33.6056 75.0405 37.7831 75.2811 42.4176C75.4214 45.1178 77.6668 46.0036 77.6668 43.3588C77.6668 42.5306 77.328 41.853 76.9139 41.853C76.4998 41.853 76.161 40.6672 76.161 39.2178C76.161 36.5966 76.178 36.5827 79.5491 36.5827H82.9371L82.9314 40.1589C82.9258 45.2756 81.6769 49.0784 79.4201 50.8535C77.1316 52.6537 77.1069 52.6567 74.6537 51.4309L74.6552 51.4308ZM88.3771 51.8504C84.9335 51.2081 84.1027 48.4783 83.8011 36.814L83.5225 26.042H86.2182H88.9139L89.1254 35.2035C89.2753 41.7076 89.6097 44.4557 90.2779 44.6775C90.9975 44.9165 91.219 42.7599 91.219 35.516V26.042H93.9232H96.6274L96.3702 37.3158C96.1397 47.4115 95.9555 48.7409 94.6071 50.0364C92.869 51.7064 90.8136 52.3049 88.3771 51.8504V51.8504ZM155.968 51.4139C153.3 50.0717 152.009 46.8597 151.605 40.5535C151.035 31.6749 153.83 25.2891 158.287 25.2891C160.005 25.2891 163.233 28.1793 163.824 30.2454C164.476 32.5288 160.875 34.1569 158.975 32.4375C157.775 31.3515 157.619 31.3544 157.191 32.4707C156.933 33.1436 156.721 36.0181 156.721 38.8585C156.721 43.9395 157.713 46.1349 159.053 44.0198C159.996 42.5301 159.884 41.8529 158.692 41.8529C157.992 41.8529 157.675 40.9922 157.722 39.2178C157.791 36.6267 157.846 36.5826 161.021 36.5826H164.25L164.245 40.5353C164.236 49.5428 160.917 53.9035 155.967 51.4139L155.968 51.4139ZM12.1645 38.8413V26.042H15.1271C22.0864 26.042 24.4081 29.219 24.4807 38.8413C24.5499 48.0236 21.9105 51.6406 15.1407 51.6406H12.1645V38.8413ZM19.3171 38.4648C19.3171 35.6138 18.9328 33.262 18.376 32.7052C17.623 31.9523 17.4348 33.1042 17.4348 38.4648C17.4348 43.8255 17.6229 44.9774 18.376 44.2245C18.9328 43.6677 19.3171 41.3158 19.3171 38.4648ZM25.7167 42.6193V33.5981L29.4812 33.6829L33.2457 33.7677V36.4999C33.2457 38.4166 32.7963 39.5127 31.7399 40.1724C30.4674 40.9671 30.2341 41.9282 30.2341 46.3767V51.6406H27.9754H25.7167V42.6193ZM32.5193 50.1843C31.4825 48.247 31.5334 46.125 32.6434 45.0151C35.2758 42.3826 38.5346 45.7489 37.0736 49.5915C36.151 52.0182 33.6733 52.3407 32.5193 50.1843H32.5193ZM44.5427 47.3114C44.5445 44.9304 44.7657 39.1707 45.0341 34.5121L45.5222 26.042H48.648C51.7225 26.042 51.7771 26.0884 51.9743 28.8654C52.0844 30.4182 52.4506 33.0439 52.7878 34.7003C53.3568 37.4956 53.4071 37.5437 53.4874 35.3701C53.5349 34.0821 53.7895 31.4563 54.0528 29.5351C54.528 26.0682 54.5533 26.042 57.4265 26.042C60.9645 26.042 60.8628 25.6741 61.4342 40.5353L61.8613 51.6406H59.5999C57.6627 51.6406 57.3221 51.3438 57.2238 49.5701C57.1607 48.4313 57.0303 47.1608 56.9342 46.7467C56.8381 46.3327 56.6693 44.4692 56.5597 42.6058C56.3502 39.0501 56.322 39.1734 55.3939 47.7321C54.9819 51.5308 54.8607 51.7176 52.9497 51.4966C51.029 51.2746 50.9137 51.0113 50.3767 45.6248C49.5792 37.6252 49.1847 37.4462 49.1161 45.0527L49.0566 51.6406H46.7979C44.5497 51.6406 44.5392 51.6206 44.5427 47.3114V47.3114ZM62.6088 38.8413V26.042H65.6204H68.632V38.8413V51.6406H65.6204H62.6088V38.8413ZM97.9951 38.8413V26.042H102.513H107.03V29.0536C107.03 31.764 106.842 32.0652 105.148 32.0652C102.646 32.0652 102.479 34.8603 104.96 35.2126C106.398 35.417 106.651 35.9076 106.634 38.4648C106.617 40.9542 106.356 41.4764 105.128 41.4764C104.16 41.4764 103.558 42.0673 103.401 43.1705C103.205 44.5501 103.52 44.8645 105.095 44.8645C106.886 44.8645 107.03 45.1161 107.03 48.2526V51.6406H102.513H97.9952L97.9951 38.8413ZM108.536 38.8413V26.042H111.171H113.806V35.4532V44.8645H115.688C117.417 44.8645 117.571 45.1405 117.571 48.2526V51.6406H113.053H108.536V38.8413ZM123.594 50.8474C123.594 50.4111 124.441 44.806 125.476 38.3916C126.511 31.9773 127.358 26.5745 127.358 26.3855C127.358 26.1966 128.713 26.042 130.37 26.042C132.026 26.042 133.385 26.2961 133.389 26.6066C133.395 26.9172 134.24 32.5356 135.271 39.092C136.302 45.6483 137.146 51.1539 137.146 51.3266C137.146 51.4993 135.96 51.6406 134.511 51.6406C132.202 51.6406 131.876 51.4075 131.876 49.7583C131.876 48.378 131.474 47.8761 130.37 47.8761C129.266 47.8761 128.864 48.378 128.864 49.7583C128.864 51.4075 128.538 51.6406 126.229 51.6406C124.78 51.6406 123.594 51.2836 123.594 50.8474V50.8474ZM131.123 40.3915C131.123 39.1737 130.784 37.9679 130.37 37.7119C129.922 37.4351 129.617 38.3315 129.617 39.9262C129.617 41.4 129.956 42.6058 130.37 42.6058C130.784 42.6058 131.123 41.6094 131.123 40.3915ZM137.899 38.8413V26.042H140.456H143.013L144.126 31.877L145.239 37.7119L145.333 31.877L145.428 26.042H147.686H149.945V38.8413V51.6406H147.402H144.858L143.721 46.1821L142.584 40.7235L142.5 46.1821L142.416 51.6406H140.157H137.898L137.899 38.8413ZM165.756 38.8413V26.042H170.274H174.791V29.0536C174.791 31.764 174.603 32.0652 172.909 32.0652C171.528 32.0652 171.026 32.4667 171.026 33.571C171.026 34.5749 171.528 35.0768 172.532 35.0768C173.812 35.0768 174.038 35.5787 174.038 38.4216C174.038 41.3611 173.856 41.7313 172.532 41.4764C171.358 41.2502 171.026 41.5917 171.026 43.0255C171.026 44.4852 171.415 44.8645 172.909 44.8645C174.638 44.8645 174.791 45.1405 174.791 48.2526V51.6406H170.274H165.756V38.8413ZM176.297 38.8787V26.0418H178.932H181.567V35.4007C181.567 44.533 181.608 44.7654 183.261 45.0002C184.695 45.2039 184.955 45.7024 184.955 48.2524V51.264L180.626 51.4896L176.297 51.7155V38.8787Z" fill="white"/>
</svg>
