<svg width="320" height="63" viewBox="0 0 320 63" fill="none" xmlns="http://www.w3.org/2000/svg">
<path d="M2.34361 61.5971C-0.308867 60.7476 -0.217577 60.6635 3.4959 60.5344C9.35052 60.3311 16.5817 56.6658 19.9068 52.2164C23.3484 47.6111 24.7546 43.4496 27.1312 30.8371C30.1495 14.8192 33.8909 8.52103 43.249 3.70569C48.6358 0.933894 60.6827 -0.176857 67.4466 1.47468C71.6862 2.5099 71.7779 2.60941 68.5912 2.71588C55.3215 3.15925 47.0503 12.2991 43.2111 30.762C40.1038 45.7054 38.3469 49.6064 32.2593 55.0797C28.688 58.2906 24.7249 60.6286 21.4601 61.4507C15.6523 62.9131 6.66768 62.9819 2.34361 61.5969V61.5971ZM69.463 56.2121C66.086 55.7411 65.7182 55.31 65.7182 51.8241C65.7182 49.6979 65.3632 47.0086 64.9298 45.8477C64.4368 44.528 65.9494 45.3563 68.966 48.058C73.0273 51.6954 74.6105 52.379 78.9725 52.379C86.0493 52.379 89.0181 49.4092 88.5385 42.8096C88.1923 38.0418 88.0695 37.9165 79.5758 33.6531C68.5613 28.1244 66.7474 26.2726 66.6673 20.4756C66.5397 11.2403 71.4174 7.44063 83.4 7.44063H90.8259L91.2655 12.0498C91.5072 14.5847 91.5137 16.6588 91.2776 16.6588C91.0441 16.6588 89.5344 15.6217 87.923 14.3542C84.3722 11.5612 77.0087 11.2915 74.4398 13.8605C73.444 14.8563 72.6291 17.3893 72.6291 19.4893C72.6291 23.6027 74.4662 25.3251 81.8472 28.1318C92.9019 32.3355 96.8506 37.9703 94.5997 46.3296C92.6634 53.5206 88.8259 56.269 80.3697 56.521C76.4292 56.6385 71.5201 56.4983 69.4604 56.2121H69.463ZM102.502 53.6198C98.6589 49.7768 98.1078 45.0306 100.882 39.6664C103.118 35.3425 107.863 32.9174 116.16 31.858L122.755 31.0159L122.39 27.006C122.189 24.8007 121.152 22.307 120.085 21.4645C117.44 19.3747 107.818 20.3509 104.884 23.0068C102.634 25.0424 102.591 25.0017 102.591 20.8703V16.6588L108.64 16.4263C119.437 16.0112 122.593 16.5488 125.31 19.2658C127.728 21.6843 127.953 23.0555 128.288 37.4186C128.487 45.9638 129.064 53.8626 129.571 54.9717C130.317 56.6065 129.934 56.9882 127.545 56.9882C125.924 56.9882 124.12 56.1344 123.536 55.0909C122.551 53.3294 122.281 53.3294 119.766 55.0909C118.154 56.2199 114.792 56.9882 111.464 56.9882C106.818 56.9882 105.3 56.4176 102.502 53.62L102.502 53.6198ZM119.963 50.1631C122.711 47.415 123.331 45.8175 123.331 41.4849C123.331 37.8161 122.795 35.9689 121.594 35.5084C118.581 34.3522 112.01 36.2267 108.386 39.2762C104.188 42.8083 103.827 47.0601 107.401 50.8644C110.924 54.6151 115.782 54.3439 119.963 50.1631V50.1631ZM139.239 32.123C139.492 14.2704 139.209 6.79405 138.234 5.61967C137.104 4.25798 137.576 3.98383 141.05 3.98383H145.224V28.2572C145.224 42.7859 145.703 53.4253 146.417 54.7593C147.499 56.7803 147.203 56.9881 143.248 56.9893L138.887 56.9904L139.239 32.1229V32.123ZM155.623 54.0324C156.241 52.4067 156.747 41.8109 156.747 30.4859C156.747 19.161 156.241 8.56514 155.623 6.93953C154.551 4.11823 154.682 3.98383 158.504 3.98383H162.508V28.6633C162.508 42.237 162.823 54.1629 163.208 55.1654C163.775 56.644 163.019 56.9881 159.203 56.9881C154.63 56.9881 154.531 56.906 155.623 54.0324V54.0324ZM178.352 55.7435C174.057 53.242 172.879 48.486 172.879 33.6543C172.879 24.1228 172.422 18.9677 171.496 18.0415C170.421 16.9661 171.061 16.6588 174.377 16.6588H178.64V32.2667C178.64 47.3018 178.744 47.9785 181.468 50.703C186.101 55.3356 192.707 53.6932 195.404 47.2381C197.371 42.5301 197.713 22.3063 195.884 18.8876C194.809 16.8794 195.094 16.6588 198.764 16.6588H202.838V35.0007C202.838 45.0888 203.153 54.1629 203.537 55.1654C204.082 56.5864 203.447 56.9881 200.656 56.9881C197.803 56.9881 197.076 56.5035 197.076 54.5999V52.2117L194.04 54.5999C190.722 57.2103 181.966 57.8485 178.352 55.7435V55.7435ZM214.19 56.1741C211.033 55.6892 209.764 53.2572 209.803 47.77L209.825 44.8893L212.134 47.9821C217.096 54.6291 228.437 54.6542 230.101 48.0218C231.163 43.7913 229.487 41.8563 221.363 37.9355C217.377 36.0121 213.394 33.45 212.511 32.2419C209.886 28.6524 210.502 22.6828 213.815 19.6131C217.259 16.4208 220.743 15.5997 227.574 16.3697C232.699 16.9473 233.893 18.3728 233.934 23.9628C233.946 25.83 233.529 25.7273 230.405 23.0986C228.455 21.4579 225.718 20.1155 224.324 20.1155C220.455 20.1155 216.666 23.3195 216.666 26.5906C216.666 29.0289 217.835 30.008 224.177 32.8837C234.067 37.3681 236.254 39.6631 236.254 45.5539C236.254 49.2098 235.508 50.9986 232.886 53.6198C229.942 56.5645 228.747 56.9663 223.38 56.8153C220.004 56.7205 215.869 56.4317 214.191 56.174L214.19 56.1741ZM243.384 54.6387C241.031 52.4465 240.862 51.2508 240.862 36.7785V21.2678H237.874C234.903 21.2678 234.914 21.2338 239.71 15.5066C245.159 8.99901 246.957 8.30384 246.418 12.914C246.059 15.9833 246.24 16.0937 252.169 16.4334C257.198 16.7214 258.225 17.133 257.921 18.738C257.652 20.1541 256.008 20.8503 251.945 21.2678L246.341 21.844L246.544 36.1701C246.657 44.0496 247.01 50.92 247.33 51.4377C248.217 52.8725 255.2 52.5594 256.744 51.0155C258.67 49.09 259.707 50.5944 258.839 54.0538C258.166 56.7356 257.578 56.9881 252.004 56.9881C247.46 56.9881 245.263 56.3894 243.384 54.6387H243.384ZM267.941 36.8234V16.6588H271.109C273.617 16.6588 274.285 17.1998 274.313 19.2514C274.344 21.4923 274.501 21.5821 275.474 19.9139C276.768 17.6964 284.028 14.9871 285.778 16.0687C286.424 16.468 286.953 18.3833 286.953 20.3247C286.953 23.318 286.693 23.6384 285.24 22.4325C282.37 20.0506 277.778 22.0358 275.93 26.457C273.983 31.1189 273.654 51.3642 275.471 54.7593C276.552 56.7804 276.257 56.9881 272.302 56.9881H267.941V36.8234ZM296.035 55.2561C291.14 52.5964 288.681 46.1715 288.681 36.0437C288.681 26.5317 290.112 23.3136 296.439 18.5893C302.694 13.9199 311.599 16.2237 317.417 24.0161C319.334 26.5835 319.793 28.9068 319.793 36.0437C319.793 50.6286 314.947 57.0438 304.006 56.9419C301.281 56.9154 297.694 56.1579 296.035 55.2561V55.2561ZM309.019 52.2863C317.372 47.8161 315.859 22.7827 307.104 20.5852C299.249 18.6138 293.867 25.2127 293.867 36.8145C293.867 49.996 300.549 56.8193 309.019 52.2863V52.2863Z" fill="white"/>
</svg>
