<?xml version="1.0" encoding="UTF-8" standalone="no"?>
<!-- Created with Inkscape (http://www.inkscape.org/) -->

<svg
   width="262.93344mm"
   height="38.621365mm"
   viewBox="0 0 262.93344 38.621365"
   version="1.1"
   id="svg1500"
   inkscape:version="1.1.2 (0a00cf5339, 2022-02-04)"
   sodipodi:docname="11.html"
   xmlns:inkscape="http://www.inkscape.org/namespaces/inkscape"
   xmlns:sodipodi="http://sodipodi.sourceforge.net/DTD/sodipodi-0.dtd"
   xmlns="http://www.w3.org/2000/svg"
   xmlns:svg="http://www.w3.org/2000/svg">
  <sodipodi:namedview
     id="namedview1502"
     pagecolor="#ffffff"
     bordercolor="#666666"
     borderopacity="1.0"
     inkscape:pageshadow="2"
     inkscape:pageopacity="0.0"
     inkscape:pagecheckerboard="0"
     inkscape:document-units="mm"
     showgrid="false"
     inkscape:zoom="1.0154139"
     inkscape:cx="569.71842"
     inkscape:cy="-80.262837"
     inkscape:window-width="1920"
     inkscape:window-height="1016"
     inkscape:window-x="0"
     inkscape:window-y="0"
     inkscape:window-maximized="1"
     inkscape:current-layer="layer1" />
  <defs
     id="defs1497" />
  <g
     inkscape:label="Capa 1"
     inkscape:groupmode="layer"
     id="layer1"
     transform="translate(95.243915,-8.8280419)">
    <path
       id="path248"
       style="fill:#ffffff;stroke-width:0.343566"
       d="m 71.12846,46.813134 c -6.507216,-2.082395 -9.595624,-5.936495 -9.883856,-12.334314 -0.165877,-3.681977 0.517477,-6.118658 2.600709,-9.273506 4.213397,-6.380772 13.08207,-8.186362 19.697467,-4.010247 1.316599,0.831134 1.763053,1.918563 0.98508,2.399376 -0.199178,0.1231 -1.530461,-0.353461 -2.958405,-1.059021 -6.803731,-3.361787 -14.041195,-0.848997 -17.247,5.988022 -0.79022,1.685296 -0.904886,2.367769 -0.901659,5.366512 0.0034,3.061025 0.104544,3.627606 0.928546,5.195875 1.188445,2.261899 3.602127,4.376313 6.060335,5.308928 2.10125,0.797187 5.632555,1.230302 7.076411,0.867917 l 0.900803,-0.226086 -0.09822,-3.340137 -0.09822,-3.340133 -3.77923,-0.195922 c -4.319899,-0.223951 -4.817236,-0.379051 -5.509772,-1.718266 -0.793178,-1.533844 -0.627981,-2.916328 0.49933,-4.178696 l 1.001969,-1.122011 h 7.157733 7.157733 l 0.09236,7.824438 c 0.07987,6.76661 0.02123,7.851734 -0.433835,8.026355 -0.289406,0.111062 -0.756134,0.01104 -1.037169,-0.22215 -0.420085,-0.348641 -0.510976,-1.608262 -0.510976,-7.081548 v -6.65748 h -4.418405 c -6.246288,0 -7.562032,0.218899 -7.834218,1.303372 -0.368173,1.466916 0.537619,1.788726 5.034688,1.788726 2.644014,0 4.127387,0.13897 4.400698,0.41228 0.509241,0.50924 0.573742,8.607494 0.07596,9.537598 -0.778669,1.454953 -5.504979,1.845409 -8.958867,0.740118 z m 60.83015,0.429646 c -1.01892,-0.421074 -2.0614,-1.634507 -2.0614,-2.399427 0,-0.428928 0.37308,-1.213655 0.82907,-1.743837 0.81403,-0.946467 0.91225,-0.967184 5.41117,-1.141341 3.70938,-0.143594 4.76471,-0.300096 5.54086,-0.821681 1.82342,-1.225364 2.13654,-3.111568 0.83674,-5.040335 -0.6052,-0.898057 -1.10961,-1.215352 -2.23846,-1.408059 -1.81947,-0.310608 -2.13379,-0.503667 -2.13379,-1.310618 0,-1.300398 3.01304,-1.282382 4.85474,0.02902 2.48471,1.769272 3.08275,6.184114 1.12067,8.273078 -1.74351,1.856259 -3.275,2.329566 -7.56528,2.338035 -2.92414,0.0057 -3.92086,0.125385 -4.23901,0.508739 -0.67543,0.813845 0.91403,0.994549 5.6146,0.638326 4.92291,-0.373072 6.19655,-0.945254 7.65906,-3.440832 1.80864,-3.086227 0.84215,-7.746273 -1.99615,-9.624567 -1.1136,-0.736948 -1.88472,-0.92164 -4.57322,-1.095331 -3.63366,-0.234754 -4.73119,-0.76867 -5.7707,-2.807271 -1.34182,-2.631475 -0.2554,-6.637296 2.14996,-7.927308 1.60256,-0.859461 9.17344,-0.953323 9.4941,-0.11771 0.46242,1.205041 -0.49867,1.541673 -4.40148,1.541673 -3.50918,0 -3.80662,0.05384 -4.58211,0.829328 -1.0115,1.0115 -1.34869,2.225848 -1.05409,3.796191 0.33573,1.78959 1.5842,2.589377 4.04203,2.589377 3.01606,0 4.88309,0.592353 6.58284,2.088523 2.97406,2.617874 3.99523,7.526981 2.30065,11.0599 -0.94822,1.976843 -3.27489,4.109578 -5.06401,4.641899 -1.48119,0.440697 -9.96826,0.870082 -10.75679,0.544216 z m 18.67525,-0.09935 c -0.90721,-0.394783 -1.8405,-1.679745 -1.8405,-2.53401 0,-0.350414 0.45192,-1.089037 1.00428,-1.641385 0.99464,-0.994642 1.04251,-1.004273 4.99275,-1.004273 4.42918,0 5.94977,-0.411445 6.90426,-1.868171 0.75456,-1.151607 0.49152,-3.397377 -0.52462,-4.479011 -0.43336,-0.461287 -1.30831,-0.859449 -2.13117,-0.969816 -1.74084,-0.233495 -2.30251,-0.720698 -1.7746,-1.539296 0.51861,-0.804144 3.38976,-0.674945 4.57853,0.206031 1.39946,1.037122 2.39906,3.115867 2.40541,5.002264 0.008,2.323372 -1.00066,3.8516 -3.22528,4.887464 -1.51032,0.703259 -2.27583,0.815681 -5.57383,0.818577 -2.87501,0.0023 -3.92318,0.123982 -4.22678,0.489813 -0.65748,0.792227 0.64513,0.976523 5.07189,0.717573 4.93022,-0.288397 6.55528,-0.934501 7.97295,-3.169937 1.30269,-2.054126 1.54568,-3.750623 0.87009,-6.074591 -1.02383,-3.521873 -3.27232,-5.008516 -7.58293,-5.01364 -2.76921,-0.0033 -4.25136,-0.777507 -5.23939,-2.73682 -0.42516,-0.843126 -0.77302,-2.085858 -0.77302,-2.761625 0,-1.688703 1.30855,-4.131207 2.71345,-5.064833 1.04782,-0.696339 1.58555,-0.775798 5.25017,-0.775798 3.32747,0 4.11967,0.09614 4.2822,0.519726 0.45955,1.197559 -0.50234,1.541673 -4.30942,1.541673 -4.16178,0 -4.8927,0.297773 -5.53918,2.256642 -0.54472,1.650511 -0.16448,3.398642 0.92577,4.256234 0.6947,0.546451 1.39662,0.70202 3.16749,0.70202 3.7634,0 5.89129,0.942834 7.65009,3.389645 0.96301,1.339724 2.00706,4.401885 2.00706,5.88665 0,3.132292 -2.50559,7.024925 -5.32528,8.273291 -1.59575,0.706483 -10.4881,1.226213 -11.73039,0.685608 z M 1.1196691,46.322098 C 0.4076002,45.564133 0.3722961,45.222565 0.3651049,39.021311 l -0.00753,-6.505621 -0.6990279,1.546049 c -3.9981414,8.842769 -16.893665,6.140953 -16.893665,-3.539491 0,-5.806425 5.297533,-9.933966 10.9296671,-8.515778 2.7979877,0.704541 5.3020246,2.984238 6.2601421,5.699289 0.3008954,0.852659 0.3693209,0.40756 0.3961119,-2.576748 0.034657,-3.860896 0.2483262,-4.605414 1.2655133,-4.409661 0.6156058,0.118477 0.6502061,0.693241 0.7362486,12.230414 0.088156,11.820792 0.1063746,12.106102 0.7730252,12.106102 0.66309,0 0.6827379,-0.247497 0.6827379,-8.600583 0,-8.446908 0.01505,-8.630273 0.8420273,-10.262242 3.3123054,-6.536526 12.7546016,-6.846823 15.8496096,-0.520856 0.810501,1.65661 0.900354,2.172456 0.748374,4.296541 -0.242438,3.388388 -1.581213,5.944341 -3.847457,7.345452 -1.493019,0.923062 -1.986323,1.042142 -4.317215,1.042142 -2.058901,0 -3.01427,-0.179239 -4.3900752,-0.823632 -1.966045,-0.920846 -2.3015213,-1.396423 -1.631459,-2.312788 0.439524,-0.601083 0.523969,-0.593554 2.084606,0.185867 4.3811742,2.188062 8.5901712,0.642677 9.7428572,-3.57721 0.571904,-2.093686 0.456917,-3.651621 -0.393802,-5.335601 -1.914813,-3.790323 -6.712154,-4.45955 -10.2514252,-1.430066 -2.2944271,1.963943 -2.3746431,2.372002 -2.3746431,12.079913 0,8.142109 -0.036605,8.636797 -0.6871321,9.28733 -0.9833191,0.983318 -3.0902714,0.927292 -4.0629115,-0.108036 z M -4.8075223,36.197256 c 5.174823,-3.177813 3.4297965,-11.391949 -2.6126268,-12.298066 -2.8785619,-0.431668 -6.1359809,1.321079 -7.2035209,3.876058 -0.595666,1.425635 -0.595666,4.276018 0,5.701653 0.573025,1.371439 2.663478,3.252794 3.922601,3.530242 0.516178,0.113737 1.0931114,0.265272 1.2820732,0.336738 0.817084,0.309026 3.2099248,-0.285945 4.6114735,-1.146625 z M 22.420792,46.322098 c -0.737776,-0.785327 -0.746955,-0.943718 -0.741761,-12.797852 0.0027,-6.601476 0.137375,-12.211152 0.298845,-12.465946 0.161469,-0.254794 0.584266,-0.407322 0.939547,-0.33895 0.615606,0.118477 0.650206,0.693241 0.73625,12.230414 0.08816,11.820792 0.106375,12.106102 0.773024,12.106102 0.66309,0 0.68274,-0.247497 0.68274,-8.600196 0,-9.433057 0.07463,-9.870282 2.073381,-12.146735 3.934504,-4.48115 11.25999,-4.14128 14.246026,0.660954 0.938552,1.509407 1.030092,1.921224 1.02389,4.606311 -0.0061,2.651708 -0.113607,3.138574 -1.067145,4.833716 -0.73875,1.31331 -1.562104,2.197601 -2.71478,2.915704 -1.463136,0.911516 -1.958744,1.0307 -4.286033,1.0307 -4.015989,0 -7.441262,-1.809537 -6.053036,-3.197761 0.436312,-0.436313 0.705376,-0.399121 2.141267,0.295982 5.407149,2.617557 10.086178,-0.303563 10.095004,-6.302311 0.0079,-5.376293 -6.819905,-7.923557 -11.033923,-4.116444 -2.360326,2.132411 -2.363252,2.14719 -2.363252,11.929207 0,8.319919 -0.03587,8.813864 -0.687134,9.46514 -0.983318,0.983318 -3.09027,0.927292 -4.06291,-0.108035 z m 67.092414,0.364758 c -0.09084,-0.236724 -0.124632,-6.38227 -0.07511,-13.656768 l 0.09005,-13.226357 h 0.858916 0.858916 l 0.09013,12.626067 0.09013,12.626068 h 5.794327 c 6.044705,0 6.865195,0.193744 6.362975,1.502503 -0.18813,0.490276 -1.05495,0.558897 -7.059809,0.558897 -5.167418,0 -6.885842,-0.105505 -7.010519,-0.43041 z m 16.325904,-0.09512 c -0.312,-0.375934 -0.33881,-0.742671 -0.0942,-1.288375 8.18332,-18.255518 11.65113,-25.678798 12.07125,-25.840015 0.28697,-0.110115 0.7105,-0.0013 0.94117,0.241862 0.7361,0.775916 10.20097,23.763749 10.21256,24.803783 0.0127,1.13793 -1.42488,2.608268 -2.55011,2.608268 -1.37856,0 -2.09226,-0.795081 -3.56821,-3.975109 l -1.50369,-3.239788 h -4.62132 c -3.75049,0 -4.65786,-0.09523 -4.81526,-0.505407 -0.10667,-0.277973 0.0424,-0.741787 0.33135,-1.0307 0.74726,-0.747256 9.8015,-0.770787 10.54488,-0.02741 0.27384,0.273837 1.09041,1.897189 1.8146,3.607449 1.20715,2.850811 2.20296,3.986984 2.20296,2.51347 0,-0.614706 -8.12227,-20.314194 -8.58113,-20.812384 -0.21218,-0.230365 -3.8491,7.509826 -9.93822,21.150802 -1.04175,2.333744 -1.63649,2.76973 -2.44665,1.793551 z M -47.893859,39.952118 c -1.918406,-0.369451 -2.906307,-1.871425 -2.258904,-3.434373 0.621224,-1.499771 1.487492,-1.790784 5.972097,-2.006243 4.373678,-0.210131 5.642687,-0.576924 6.568363,-1.898512 1.438959,-2.0544 -0.237573,-5.415477 -2.70745,-5.427841 -1.368591,-0.0069 -2.008654,-0.43554 -1.848988,-1.23839 0.107894,-0.542593 0.440912,-0.644687 2.080974,-0.637981 1.687771,0.0069 2.099943,0.146659 3.039759,1.0307 3.049926,2.868923 2.650854,7.345682 -0.828813,9.297548 -1.042606,0.584834 -2.146658,0.772321 -5.651145,0.95967 -4.192866,0.22415 -5.706783,0.607241 -4.392617,1.111534 1.081809,0.415127 9.317679,-0.114049 10.380758,-0.666988 4.31443,-2.244077 4.938972,-8.843808 1.139447,-12.040896 -1.234951,-1.039143 -1.591305,-1.13276 -5.313867,-1.395989 -2.89949,-0.205028 -3.819141,-0.628092 -5.102818,-2.34745 -1.061941,-1.422356 -1.134684,-4.199637 -0.159029,-6.07121 1.384987,-2.656766 2.068917,-2.940428 7.089547,-2.940428 h 4.356497 v 0.858915 c 0,0.857319 -0.0074,0.859236 -4.010878,1.0307 -3.61456,0.154809 -4.09596,0.251867 -4.871955,0.982272 -1.124037,1.058003 -1.455548,3.019892 -0.7825,4.630739 0.586684,1.404144 0.805549,1.4854 5.150303,1.912197 3.571776,0.350864 5.26314,1.298974 6.820181,3.823111 3.728808,6.044814 0.141656,13.603924 -6.748569,14.221087 -2.981048,0.267012 -7.144334,0.397282 -7.920393,0.247828 z m 19.188605,-0.107946 c -0.403518,-0.19539 -0.905736,-0.687395 -1.116039,-1.093339 -0.25145,-0.485369 -0.435305,-5.046969 -0.53697,-13.322741 -0.127579,-10.385464 -0.07116,-12.696962 0.322893,-13.227309 0.380624,-0.512279 0.603545,-0.565379 1.098855,-0.261749 0.578753,0.354781 0.62754,1.255966 0.711436,13.141417 0.07469,10.580739 0.171114,12.760515 0.564484,12.760515 0.784328,0 0.891492,-0.831412 0.891492,-6.91649 0,-6.317479 0.187158,-7.143466 1.929085,-8.513666 1.709769,-1.344904 4.733673,-0.762069 6.286174,1.211617 0.677967,0.861894 0.71747,1.326314 0.71747,8.435025 0,6.398245 -0.0777,7.552727 -0.519723,7.72235 -0.285851,0.109685 -0.749666,0.0086 -1.030699,-0.224635 -0.420949,-0.349352 -0.511905,-1.642454 -0.516237,-7.339224 -0.0027,-3.803334 -0.11884,-7.085264 -0.257674,-7.293178 -0.363649,-0.54461 -1.646276,-1.168024 -2.403121,-1.168024 -0.357408,0 -0.985992,0.357825 -1.396856,0.795168 -0.709011,0.75471 -0.74702,1.105188 -0.74702,6.888391 0,6.644812 -0.223335,7.642344 -1.880015,8.397176 -1.050302,0.478551 -1.146378,0.478945 -2.117535,0.0087 z m 73.090491,-0.07012 C 44.10926,39.441523 44.020744,36.727579 44.085492,30.583654 l 0.09188,-8.718524 h 0.858916 0.858916 l 0.09182,8.908789 c 0.07109,6.898155 -0.0065,8.971158 -0.343566,9.185142 -0.607378,0.385522 -0.809377,0.355821 -1.258222,-0.185004 z m 4.523025,-0.122035 c -0.421401,-0.07657 -1.078472,-0.536225 -1.460157,-1.021464 -0.646873,-0.822363 -0.69366,-1.374683 -0.689291,-8.136706 0.0027,-3.989949 0.09792,-7.602314 0.211858,-8.027478 0.225163,-0.840203 1.805936,-1.12725 1.89203,-0.343567 0.02595,0.236201 0.0646,3.753463 0.0859,7.816137 l 0.03871,7.38668 h 0.858916 0.858917 l 0.06733,-6.657651 c 0.06503,-6.430208 0.09438,-6.686604 0.858917,-7.505214 1.671341,-1.789545 3.595182,-2.246308 5.440973,-1.291812 1.883638,0.974067 2.050153,1.782324 2.050153,9.951334 0,6.563506 -0.06485,7.439409 -0.565032,7.631345 -1.263532,0.484865 -1.496366,-0.726657 -1.496366,-7.78607 0,-5.534417 -0.09496,-6.864795 -0.534831,-7.492796 -0.629945,-0.899372 -1.19625,-0.952038 -2.574329,-0.239405 l -1.013638,0.524173 v 6.671564 c 0,6.439543 -0.02691,6.700918 -0.773024,7.515563 -0.809474,0.883794 -1.964287,1.240255 -3.257035,1.005368 z M 44.778617,20.435108 c -0.666419,-0.268906 -0.557563,-3.085453 0.129436,-3.34908 0.307392,-0.117957 0.771208,-0.03827 1.0307,0.177093 0.581321,0.482456 0.620062,2.426705 0.05952,2.987245 -0.439411,0.439413 -0.547823,0.455834 -1.21966,0.184742 z m -136.98405,25.040791 c -2.442502,-1.309947 -3.038482,-2.989963 -3.038482,-8.565517 v -4.847349 h 10.972027 10.972027 v 7.099575 7.099515 h -8.719801 c -7.623298,0 -8.904121,-0.09886 -10.185771,-0.786224 z M -72.009037,35.2901 V 24.318078 h 7.099516 7.099545 v 8.719795 c 0,7.623299 -0.09886,8.904119 -0.786195,10.18577 -1.309947,2.442529 -2.989993,3.03848 -8.565577,3.03848 h -4.847289 z M -95.243915,22.052322 c 0,-7.62333 0.0989,-8.904149 0.78625,-10.18583 1.309919,-2.4424711 2.98997,-3.0384501 8.565525,-3.0384501 h 4.847318 V 19.800066 30.772089 h -7.099514 -7.099579 z m 15.489923,-6.124735 V 8.8280419 h 8.719765 c 7.623301,0 8.904121,0.09886 10.1858,0.786253 2.44253,1.3099181 3.038451,2.9899351 3.038451,8.5655191 v 4.847317 h -10.971995 -10.972021 z" />
  </g>
</svg>
