<?xml version="1.0" encoding="UTF-8" standalone="no"?>
<!-- Created with Inkscape (http://www.inkscape.org/) -->

<svg
   width="67.194267mm"
   height="35.018425mm"
   viewBox="0 0 67.194267 35.018425"
   version="1.1"
   id="svg2882"
   inkscape:version="1.1.2 (0a00cf5339, 2022-02-04)"
   sodipodi:docname="13.html"
   xmlns:inkscape="http://www.inkscape.org/namespaces/inkscape"
   xmlns:sodipodi="http://sodipodi.sourceforge.net/DTD/sodipodi-0.dtd"
   xmlns="http://www.w3.org/2000/svg"
   xmlns:svg="http://www.w3.org/2000/svg">
  <sodipodi:namedview
     id="namedview2884"
     pagecolor="#ffffff"
     bordercolor="#666666"
     borderopacity="1.0"
     inkscape:pageshadow="2"
     inkscape:pageopacity="0.0"
     inkscape:pagecheckerboard="0"
     inkscape:document-units="mm"
     showgrid="false"
     inkscape:zoom="3.9064574"
     inkscape:cx="126.07331"
     inkscape:cy="71.036229"
     inkscape:window-width="1920"
     inkscape:window-height="1016"
     inkscape:window-x="0"
     inkscape:window-y="0"
     inkscape:window-maximized="1"
     inkscape:current-layer="layer1"
     width="67.19427mm" />
  <defs
     id="defs2879" />
  <g
     inkscape:label="Capa 1"
     inkscape:groupmode="layer"
     id="layer1"
     transform="translate(-40.246854,-20.470326)">
    <path
       id="path23659"
       style="fill:#ffffff;stroke-width:0.150296"
       d="m 54.656539,55.00034 c 0.0443,-0.28841 -0.05011,-0.84693 -0.230616,-1.36376 -0.20364,-0.58305 -0.244886,-0.85503 -0.123551,-0.81458 0.100193,0.0334 0.250441,0.30338 0.333894,0.59997 0.222033,0.78914 0.321543,0.80592 0.558783,0.0942 0.117103,-0.35132 0.2867,-0.66335 0.376877,-0.69341 0.09018,-0.03 -0.04283,0.5575 -0.29551,1.3057 -0.460818,1.36434 -0.760338,1.78563 -0.619877,0.87188 z m 35.457014,0.28596 c -0.178759,-0.13071 -0.219267,-0.23814 -0.114263,-0.30304 0.08948,-0.0554 0.205162,-0.0318 0.257088,0.0522 0.177969,0.28796 0.677846,0.17146 0.677846,-0.15798 0,-0.23656 -0.06796,-0.28916 -0.284757,-0.22035 -0.423026,0.13427 -0.767314,-0.30181 -0.767314,-0.97189 0,-0.72937 0.280666,-1.025 0.888439,-0.9358 l 0.464226,0.0681 v 1.15525 c 0,1.17382 -0.135985,1.51596 -0.602518,1.51596 -0.132996,0 -0.366431,-0.0911 -0.518747,-0.2025 z m 0.745524,-1.6031 c 0,-0.57408 -0.04465,-0.67428 -0.300595,-0.67428 -0.231087,0 -0.311727,0.11626 -0.348753,0.50277 -0.06361,0.66393 0.06325,0.95865 0.385875,0.89652 0.204407,-0.0393 0.263473,-0.2019 0.263473,-0.72501 z m -43.274559,0.81794 c -0.259183,-0.25918 -0.317806,-0.66559 -0.09601,-0.66559 0.07709,0 0.184349,0.13919 0.238347,0.30933 0.07255,0.22861 0.202668,0.29724 0.498593,0.26301 0.598235,-0.0692 0.533563,-0.61251 -0.125624,-1.05531 -0.881565,-0.5922 -0.721819,-1.55841 0.238768,-1.44417 0.223987,0.0266 0.479308,0.16355 0.567384,0.30425 0.220203,0.35175 -0.01056,0.53829 -0.254032,0.20533 -0.234632,-0.32087 -0.754288,-0.26006 -0.822914,0.0963 -0.03124,0.16221 0.170965,0.39214 0.561885,0.63892 0.475792,0.30035 0.610686,0.47805 0.610686,0.80445 0,0.23042 -0.08117,0.50011 -0.180355,0.5993 -0.255361,0.25536 -0.957224,0.22367 -1.236727,-0.0559 z m 2.118463,0.13599 c -0.0551,-0.0551 -0.100198,-0.45528 -0.100198,-0.88925 0,-0.49062 -0.07106,-0.81773 -0.187871,-0.86487 -0.150294,-0.0607 -0.150294,-0.0782 0,-0.0877 0.103328,-0.007 0.187871,-0.11331 0.187871,-0.23731 0,-0.124 0.06763,-0.22545 0.150294,-0.22545 0.08266,0 0.1503,0.10545 0.1503,0.23432 0,0.12888 0.06763,0.19252 0.150294,0.14142 0.08266,-0.051 0.150294,-0.0212 0.150294,0.0663 0,0.0875 -0.06763,0.15916 -0.150294,0.15916 -0.08266,0 -0.150294,0.33818 -0.150294,0.75148 0,0.58044 0.05334,0.75149 0.234314,0.75149 0.128874,0 0.192512,0.0676 0.141422,0.1503 -0.105851,0.17126 -0.427031,0.1992 -0.576132,0.0501 z M 50.662,54.45009 c -0.196477,-0.36713 -0.207116,-1.61817 -0.01477,-1.73705 0.082,-0.0507 0.161888,0.2805 0.187865,0.77872 0.03693,0.70874 0.09675,0.87672 0.327781,0.92072 0.378605,0.0721 0.538976,-0.22102 0.541748,-0.99025 0.0012,-0.35131 0.07316,-0.63876 0.159769,-0.63876 0.09753,0 0.140439,0.35163 0.112724,0.92387 l -0.04476,0.92386 -0.556466,0.0565 c -0.434574,0.0442 -0.590946,-0.008 -0.713906,-0.23764 z m 1.961465,0.0916 c -0.177287,-0.17728 -0.223566,-1.13026 -0.07383,-1.52046 0.05408,-0.14098 0.268192,-0.23774 0.526035,-0.23774 0.382922,0 0.434807,-0.0538 0.434807,-0.45089 0,-0.24798 0.06763,-0.45088 0.150294,-0.45088 0.08943,0 0.150301,0.56621 0.150301,1.39802 v 1.39803 l -0.511273,0.0145 c -0.281201,0.008 -0.58555,-0.0598 -0.676335,-0.15057 z m 0.811866,-0.85847 c 0,-0.57408 -0.04464,-0.67428 -0.300593,-0.67428 -0.231088,0 -0.311729,0.11626 -0.348754,0.50277 -0.06361,0.66393 0.06325,0.95865 0.385875,0.89652 0.204407,-0.0393 0.263472,-0.2019 0.263472,-0.72501 z m 3.529871,0.74962 c -0.214967,-0.40166 -0.02108,-0.75045 0.471963,-0.84905 0.513646,-0.10274 0.624211,-0.65 0.131315,-0.65 -0.165325,0 -0.300594,0.0676 -0.300594,0.1503 0,0.0827 -0.06763,0.1503 -0.150294,0.1503 -0.283445,0 -0.150362,-0.31026 0.18787,-0.43797 0.620599,-0.23435 0.864201,0.0517 0.864201,1.01465 v 0.8667 l -0.528666,0.015 c -0.368941,0.0104 -0.573121,-0.068 -0.675795,-0.25993 z m 0.666132,-0.0873 c 0.291841,-0.112 0.317329,-0.66026 0.03067,-0.66026 -0.277395,0 -0.594593,0.39844 -0.47336,0.59461 0.113303,0.18332 0.12968,0.18575 0.442663,0.0656 z m 1.139517,-0.58511 V 52.7835 h 0.67633 0.676335 v 0.9858 c 0,0.61892 -0.05596,0.95123 -0.150299,0.8929 -0.08266,-0.051 -0.150294,-0.46087 -0.150294,-0.91063 0,-0.70217 -0.04022,-0.81777 -0.284514,-0.81777 -0.351422,0 -0.466969,0.28196 -0.466969,1.13952 0,0.36522 -0.06763,0.66403 -0.150294,0.66403 -0.08478,0 -0.150295,-0.42584 -0.150295,-0.97692 z m 2.118912,0.78127 c -0.09079,-0.0908 -0.165064,-0.48732 -0.165064,-0.88119 0,-0.79327 0.309285,-1.12746 0.792933,-0.85679 0.223891,0.12529 0.259139,0.0724 0.259139,-0.38849 0,-0.29342 0.06764,-0.5335 0.150299,-0.5335 0.08942,0 0.150294,0.56621 0.150294,1.39802 v 1.39803 l -0.511271,0.0145 c -0.281201,0.008 -0.58555,-0.0598 -0.67633,-0.15057 z m 0.81186,-0.85642 c 0,-0.57613 -0.04454,-0.67633 -0.300589,-0.67633 -0.25269,0 -0.307972,0.11563 -0.346878,0.7255 -0.04357,0.68257 -0.02573,0.72259 0.300594,0.67633 0.303628,-0.0431 0.346873,-0.13348 0.346873,-0.7255 z m 1.897157,-0.22001 c -0.35791,-1.42703 -0.376082,-1.58354 -0.183837,-1.58354 0.07436,0 0.250259,0.51713 0.390879,1.14917 0.288006,1.29455 0.406279,1.25871 0.682829,-0.20693 0.252605,-1.33878 0.573138,-1.24637 0.894761,0.25795 0.132162,0.61813 0.280088,1.05749 0.328724,0.97634 0.04863,-0.0811 0.174464,-0.55333 0.27961,-1.04931 0.186144,-0.87802 0.362608,-1.25892 0.51338,-1.10815 0.08246,0.0825 -0.573218,2.63922 -0.71256,2.77856 -0.196647,0.19665 -0.375747,-0.13225 -0.559397,-1.02725 -0.292869,-1.42728 -0.373253,-1.44231 -0.673882,-0.12603 -0.159309,0.6975 -0.354019,1.21127 -0.459056,1.21127 -0.103511,0 -0.320397,-0.5502 -0.501451,-1.27208 z m 3.468419,1.09173 c -0.196761,-0.19677 -0.242864,-1.2984 -0.06533,-1.56123 0.163069,-0.24143 0.708237,-0.3433 0.990846,-0.18515 0.17484,0.0978 0.246795,0.34627 0.246795,0.85207 0,0.77721 -0.187207,1.07466 -0.676336,1.07466 -0.17359,0 -0.396782,-0.0812 -0.495975,-0.18035 z m 0.842375,-0.83414 c -0.0384,-0.59845 -0.09443,-0.71391 -0.346401,-0.71391 -0.231088,0 -0.311729,0.11626 -0.348753,0.50277 -0.06459,0.67416 0.05135,0.92504 0.427422,0.92504 0.28028,0 0.308683,-0.0758 0.267732,-0.7139 z m 0.923039,0.98579 c -0.0046,-0.0256 -0.02136,-0.45887 -0.03761,-0.96294 l -0.02948,-0.91651 0.526035,-0.0116 c 0.455967,-0.0101 0.480989,0.007 0.187871,0.12261 -0.287365,0.11407 -0.338165,0.24652 -0.338165,0.88169 0,0.4111 -0.06764,0.78925 -0.150299,0.84034 -0.08266,0.051 -0.153931,0.072 -0.158373,0.0465 z m 1.210449,-1.39911 c 0,-0.85167 0.06064,-1.42781 0.150295,-1.42781 0.08266,0 0.150294,0.37717 0.150294,0.83816 v 0.83816 l 0.394441,-0.46877 c 0.476092,-0.5658 0.674824,-0.49096 0.222669,0.0839 l -0.318931,0.40545 0.376946,0.4942 c 0.409722,0.53717 0.454206,0.66456 0.23207,0.66456 -0.07968,0 -0.316397,-0.25241 -0.526035,-0.56093 l -0.38116,-0.56091 v 0.56091 c 0,0.30852 -0.06763,0.56093 -0.150294,0.56093 -0.08965,0 -0.150295,-0.57613 -0.150295,-1.42781 z m 2.404736,1.34471 c 0,-0.0457 0.181884,-0.69072 0.40419,-1.43336 0.294754,-0.98466 0.465072,-1.33852 0.629051,-1.30694 0.199367,0.0384 1.037773,2.1189 1.062068,2.63554 0.01613,0.34277 -0.284404,0.19432 -0.380331,-0.18787 -0.08028,-0.31988 -0.18085,-0.37574 -0.676335,-0.37574 -0.495487,0 -0.596048,0.0559 -0.67633,0.37574 -0.07995,0.31853 -0.362313,0.54659 -0.362313,0.29263 z m 1.31689,-0.94368 c 0.148233,-0.0941 0.151958,-0.23316 0.01704,-0.63646 -0.261501,-0.78181 -0.364733,-0.8078 -0.564197,-0.14204 -0.241568,0.80628 -0.01176,1.13328 0.547133,0.7785 z m 1.141902,0.80056 c -0.131048,-0.34151 0.01994,-2.55457 0.171392,-2.5118 0.08266,0.0233 0.13657,0.20933 0.11979,0.4133 -0.02585,0.31413 0.0346,0.37087 0.394913,0.37087 0.595899,0 0.818631,0.32981 0.719899,1.06593 -0.04516,0.33669 -0.12492,0.65496 -0.177237,0.70729 -0.171397,0.1714 -1.159563,0.13473 -1.228757,-0.0456 z m 1.086597,-0.45011 c 0.12885,-0.51337 -0.04544,-1.12722 -0.320106,-1.12722 -0.31112,0 -0.578609,0.64761 -0.461017,1.11614 0.130066,0.51822 0.651983,0.52562 0.781123,0.0111 z m 0.813201,-0.31311 c 0,-0.7273 0.04977,-0.97161 0.187871,-0.92209 0.103328,0.037 0.306223,0.007 0.450889,-0.0679 0.162495,-0.0836 0.263017,-0.0797 0.263017,0.0102 0,0.08 -0.135269,0.18839 -0.300594,0.24086 -0.251998,0.08 -0.300594,0.2274 -0.300594,0.91191 0,0.44907 -0.06763,0.8165 -0.150295,0.8165 -0.08498,0 -0.150294,-0.43001 -0.150294,-0.98945 z m 1.357949,0.69873 c -0.214774,-0.4013 -0.195313,-1.29316 0.03226,-1.47977 0.39965,-0.32767 0.918665,-0.27364 1.126094,0.11723 0.228917,0.43136 0.142881,1.34415 -0.143842,1.52607 -0.342863,0.21755 -0.854748,0.13504 -1.01454,-0.16353 z m 0.955559,-0.24762 c 0.259297,-0.67572 -0.08978,-1.40094 -0.583192,-1.2116 -0.231469,0.0888 -0.331042,1.14526 -0.127158,1.34915 0.185786,0.18578 0.618423,0.10201 0.71035,-0.13755 z m 0.934287,0.42952 c -0.156032,-0.15603 -0.100863,-0.72356 0.08878,-0.9132 0.09919,-0.0992 0.33591,-0.18035 0.526036,-0.18035 0.210223,0 0.345679,-0.0902 0.345679,-0.23017 0,-0.31648 -0.405927,-0.44514 -0.681879,-0.21612 -0.250492,0.20789 -0.457671,0.10824 -0.301225,-0.1449 0.05448,-0.0882 0.324554,-0.1603 0.600154,-0.1603 0.583182,0 0.683545,0.17366 0.683545,1.18273 v 0.70725 l -0.584755,0.0233 c -0.321618,0.0129 -0.625967,-0.0179 -0.676335,-0.0683 z m 0.869267,-0.42952 c 0.160065,-0.41712 0.09981,-0.53587 -0.246936,-0.48662 -0.448787,0.0637 -0.575792,0.72436 -0.139258,0.72436 0.162229,0 0.336018,-0.10697 0.386194,-0.23774 z m 1.185636,0.43749 c -0.269522,-0.10499 -0.387465,-0.96482 -0.199982,-1.45793 0.138798,-0.36507 0.229169,-0.41869 0.611153,-0.36263 0.42085,0.0617 0.448269,0.0352 0.448269,-0.43422 0,-0.275 0.07017,-0.5 0.155941,-0.5 0.09949,0 0.140291,0.49711 0.112718,1.37341 l -0.04323,1.37341 -0.450888,0.0397 c -0.247988,0.0218 -0.53329,0.007 -0.633999,-0.0317 z m 0.797722,-0.57549 c 0.144239,-0.57469 -0.04652,-1.12722 -0.38917,-1.12722 -0.189177,0 -0.328667,0.13468 -0.38917,0.37574 -0.144239,0.57469 0.04652,1.12722 0.38917,1.12722 0.189177,0 0.328667,-0.13467 0.38917,-0.37574 z m 1.74672,-0.69944 0.0434,-1.40471 0.481517,-0.0465 c 0.683595,-0.0661 1.096595,0.1968 1.096595,0.69814 0,0.52655 -0.248623,0.77624 -0.772898,0.77624 -0.376144,0 -0.416232,0.0549 -0.458403,0.62709 -0.02539,0.34488 -0.133384,0.65575 -0.239921,0.6908 -0.1508,0.0496 -0.184088,-0.24737 -0.150295,-1.34099 z m 1.164642,-0.34542 c 0.302577,-0.36458 0.04743,-0.83384 -0.453349,-0.83384 -0.384886,0 -0.435977,0.051 -0.413948,0.41332 0.0138,0.22732 0.05089,0.46403 0.08234,0.52603 0.0971,0.19132 0.594055,0.12452 0.784964,-0.10551 z m 0.907764,0.73175 c 0,-0.7273 0.04977,-0.97161 0.18787,-0.92209 0.103328,0.037 0.306224,0.007 0.450889,-0.0679 0.162496,-0.0836 0.263018,-0.0797 0.263018,0.0102 0,0.08 -0.13527,0.18839 -0.300595,0.24086 -0.251997,0.08 -0.300593,0.2274 -0.300593,0.91191 0,0.44907 -0.06763,0.8165 -0.150295,0.8165 -0.08498,0 -0.150294,-0.43001 -0.150294,-0.98945 z m 1.357948,0.69873 c -0.211127,-0.39449 -0.196642,-1.26136 0.02476,-1.48278 0.300134,-0.30013 0.99137,-0.21786 1.183342,0.14086 0.203583,0.38039 0.08135,1.33102 -0.193574,1.50545 -0.342862,0.21755 -0.854748,0.13504 -1.01454,-0.16353 z m 0.985069,-0.38562 C 89.210248,53.49805 89.022091,52.9338 88.693,52.9338 c -0.317454,0 -0.464107,0.28092 -0.464107,0.88902 0,0.48416 0.100005,0.61394 0.473071,0.61394 0.165518,0 0.309745,-0.14767 0.366987,-0.37574 z m 2.76705,0.62856 c -0.04135,-0.0421 -0.05294,-0.47418 -0.02579,-0.96022 0.04891,-0.87598 0.05351,-0.88392 0.526035,-0.90801 0.42206,-0.0215 0.438449,-0.009 0.143007,0.11272 -0.339489,0.1394 -0.455024,0.43051 -0.527536,1.32918 -0.02232,0.27656 -0.07439,0.46841 -0.115716,0.42633 z m 1.304052,-0.051 c -0.0559,-0.0559 -0.101681,-0.28608 -0.101681,-0.51146 0,-0.41588 0.227406,-0.59221 0.763769,-0.59221 0.34134,0 0.388301,-0.42194 0.06094,-0.54756 -0.12505,-0.048 -0.329582,-0.002 -0.454524,0.10128 -0.250492,0.2079 -0.457671,0.10823 -0.301224,-0.1449 0.113177,-0.18314 0.92915,-0.21889 1.036358,-0.0455 0.03903,0.0632 0.09032,0.47903 0.113945,0.9241 l 0.04294,0.80923 -0.529427,0.0543 c -0.291181,0.0299 -0.575182,0.009 -0.631113,-0.0474 z m 0.859161,-0.43963 c 0.149545,-0.3897 0.106254,-0.51374 -0.179304,-0.51374 -0.353945,0 -0.628569,0.28298 -0.528274,0.54435 0.108582,0.28296 0.595332,0.2619 0.707578,-0.0306 z m 0.937473,0.37012 c -0.06151,-0.13384 -0.09109,-0.60728 -0.06573,-1.05207 0.03556,-0.62332 0.09742,-0.79735 0.269925,-0.75916 0.123096,0.0273 0.613436,0.0477 1.08965,0.0454 0.476207,-0.002 0.871028,0.0431 0.877379,0.10074 0.07478,0.67922 0.04931,1.72052 -0.04346,1.77787 -0.06511,0.0402 -0.119415,-0.25208 -0.120682,-0.64962 -0.0028,-0.83801 -0.16854,-1.18046 -0.508568,-1.04998 -0.180491,0.0693 -0.240608,0.30005 -0.240608,0.92367 0,0.45724 -0.06764,0.83135 -0.150302,0.83135 -0.08266,0 -0.150295,-0.37411 -0.150295,-0.83135 0,-0.61065 -0.06157,-0.85497 -0.231928,-0.92033 -0.344249,-0.13211 -0.433841,0.0332 -0.528132,0.97431 -0.05448,0.54352 -0.125947,0.76432 -0.197249,0.60916 z m 2.812729,-0.0637 c -0.04897,-0.12756 -0.03755,-0.27973 0.02528,-0.33817 0.06286,-0.0584 0.144483,-0.0217 0.181389,0.0817 0.09427,0.26397 0.643229,0.2352 0.643229,-0.0337 0,-0.12188 -0.207093,-0.32868 -0.460204,-0.45957 -0.609902,-0.31539 -0.571445,-0.87353 0.0652,-0.94628 0.43771,-0.05 0.837975,0.18249 0.645497,0.37497 -0.05787,0.0578 -0.185241,0.0251 -0.283059,-0.0726 -0.247152,-0.24715 -0.568616,-0.22242 -0.568616,0.0437 0,0.12188 0.202896,0.32651 0.450888,0.45475 0.499287,0.25819 0.626671,0.87731 0.213149,1.03599 -0.417913,0.16037 -0.821086,0.0982 -0.912769,-0.1407 z M 48.625859,50.55431 c -1.276581,-0.61408 -2.029001,-1.81997 -2.029001,-3.25185 v -0.83145 h 1.058888 1.058881 l -0.09916,0.52854 c -0.130731,0.69687 0.163973,1.38043 0.71886,1.66737 0.774482,0.4005 1.555782,0.0441 1.90253,-0.86796 0.14283,-0.37566 0.211774,-0.40036 1.137682,-0.40746 l 0.985644,-0.007 v 1.64769 1.64768 h -0.954248 c -0.524837,0 -1.454795,0.0369 -2.066572,0.0821 -0.906179,0.0669 -1.22374,0.0285 -1.713506,-0.20708 z m 7.514809,-0.005 c -0.773097,-0.35209 -1.664149,-1.34249 -1.867869,-2.07613 -0.0877,-0.31583 -0.159837,-0.89016 -0.160297,-1.27627 l -5.68e-4,-0.70204 1.129286,-0.0495 c 0.958229,-0.042 1.114664,-0.0153 1.032752,0.176 -0.225822,0.52736 -0.222266,0.90181 0.01329,1.39822 0.431717,0.90978 1.415111,1.08871 2.161555,0.39329 0.297032,-0.27673 0.340652,-0.44369 0.2976,-1.13905 l -0.05044,-0.81479 1.052071,0.0436 1.052071,0.0436 0.04755,0.6661 c 0.09581,1.34212 -0.713208,2.66461 -1.995258,3.26161 -0.91382,0.42553 -1.883394,0.45247 -2.711472,0.0753 z m 11.99341,-0.0141 c -0.745478,-0.45455 -0.9832,-1.0728 -1.026429,-2.66945 l -0.03777,-1.39463 h 1.029372 1.029377 l 0.04391,1.16479 c 0.03414,0.90635 0.09307,1.16479 0.2655,1.16479 0.145307,0 0.305707,-0.32167 0.465902,-0.93433 0.274652,-1.05041 0.498462,-1.39525 0.905543,-1.39525 0.367567,0 0.697325,0.5258 0.822801,1.31195 0.05578,0.34958 0.184224,0.74881 0.285388,0.88716 0.339926,0.46487 0.530131,0.0771 0.530131,-1.08076 v -1.11835 h 0.976924 0.976924 v 1.35749 c 0,0.84144 -0.08226,1.55438 -0.216398,1.87541 -0.271277,0.64926 -1.031781,1.12439 -1.800879,1.12512 -0.491105,4.5e-4 -0.675534,-0.0942 -1.105257,-0.56733 l -0.515788,-0.56789 -0.567895,0.56789 c -0.662066,0.66207 -1.287788,0.74505 -2.061351,0.27339 z m 9.445901,0.12235 c -0.277157,-0.0797 -0.82167,-0.4628 -1.210028,-0.85115 -0.778368,-0.77837 -1.121958,-1.65918 -1.039858,-2.66572 l 0.04845,-0.59441 1.088092,-0.0752 c 1.034864,-0.0714 1.083421,-0.0605 0.992675,0.22472 -0.422946,1.32926 0.667344,2.53782 1.801538,1.99696 0.660629,-0.31503 0.955576,-0.99654 0.738042,-1.70532 l -0.158474,-0.51636 h 1.113153 1.113154 l -0.0034,0.86421 c -0.0091,2.37821 -2.178437,3.98569 -4.483469,3.32223 z m 17.618982,0.0571 c -0.09545,-0.0624 -0.160854,-0.47016 -0.150294,-0.93704 l 0.01869,-0.82663 0.991943,-0.0752 c 0.545572,-0.0413 1.100085,-0.16511 1.232258,-0.27504 0.40136,-0.33385 0.606426,-1.16843 0.419123,-1.70573 -0.08989,-0.25785 -0.163558,-0.47564 -0.163706,-0.48397 -0.0017,-0.10432 2.059415,0.0259 2.139692,0.13515 0.175906,0.23943 0.11988,1.45241 -0.09485,2.05361 -0.488794,1.36848 -1.772646,2.23143 -3.314023,2.22753 -0.500413,-8.3e-4 -0.98589,-0.052 -1.078839,-0.11273 z m -12.379076,-1.5758 c 0.0012,-0.84729 0.04277,-1.7891 0.09299,-2.0929 l 0.09133,-0.55235 1.111443,-0.0488 c 0.947709,-0.0417 1.09488,-0.0156 0.999027,0.17662 -0.06183,0.124 -0.13415,1.08777 -0.160713,2.14172 l -0.04829,1.91627 h -1.043717 -1.043714 l 0.0017,-1.54053 z m 6.962052,1.23408 C 88.958182,49.96022 88.679782,49.27758 88.679782,47.67043 V 46.4711 h 1.045748 1.045755 l 0.04391,1.15846 c 0.04153,1.09625 0.06407,1.16321 0.41964,1.24676 0.345226,0.0812 0.375179,0.15489 0.36884,0.90812 l -0.0069,0.81981 -0.594281,0.0412 c -0.373566,0.0259 -0.82688,-0.0753 -1.220531,-0.27254 z m 2.694447,-1.79769 0.02294,-2.10415 h 1.020982 1.020987 v 2.10415 2.10415 H 93.497334 92.453369 Z M 47.656802,45.7388 46.988334,45.6445 47.467836,45.09987 c 0.690116,-0.78386 1.834188,-1.24246 2.784914,-1.11634 0.971669,0.12889 1.793237,0.55748 2.272097,1.1853 0.211444,0.27723 0.384449,0.53818 0.384449,0.5799 0,0.11 -4.462213,0.10157 -5.252494,-0.01 z m 7.125315,-0.0213 c -0.21784,-0.0764 -0.196862,-0.15214 0.15944,-0.57559 0.525377,-0.62436 1.401268,-1.0692 2.319399,-1.17794 0.929111,-0.11004 2.188395,0.43085 2.765913,1.18803 0.218482,0.28644 0.397225,0.54823 0.397208,0.58176 -5.2e-5,0.0968 -5.363639,0.0814 -5.64196,-0.0163 z m 12.412211,0.002 c -0.06477,-0.0413 -0.09952,-0.27804 -0.07723,-0.52603 0.02226,-0.24799 0.0472,-0.56925 0.05544,-0.71391 0.01261,-0.22221 0.167677,-0.26301 0.999686,-0.26301 h 0.98478 l -0.04544,0.78905 -0.04544,0.78906 h -0.877032 c -0.482364,0 -0.93002,-0.0338 -0.994784,-0.0752 z m 5.741935,0.0281 c -0.478762,-0.0461 -0.488465,-0.0618 -0.488465,-0.78906 v -0.74195 h 0.976925 0.976923 v 0.82653 0.82654 l -0.488459,-0.0375 c -0.268658,-0.0206 -0.708271,-0.0587 -0.976924,-0.0846 z m 2.81806,-0.005 c -4.5e-5,-0.2412 0.753482,-1.0017 1.324905,-1.33717 0.865012,-0.50783 2.195603,-0.5641 3.033674,-0.12829 0.622439,0.32368 1.502959,1.12831 1.502959,1.37343 0,0.12477 -0.814405,0.16878 -2.930766,0.15838 -1.611917,-0.008 -2.930767,-0.0378 -2.930772,-0.0663 z m 8.731972,-0.0113 -1.413009,-0.087 0.395037,-0.46846 c 0.738958,-0.87629 2.805569,-1.4628 4.219629,-1.19751 l 0.540941,0.10148 -4.49e-4,0.85739 -4.54e-4,0.85739 -1.164403,0.0119 c -0.640418,0.007 -1.800253,-0.0273 -2.577406,-0.0752 z m 4.256017,5.6e-4 c -0.03442,-0.0344 -0.06253,-0.38947 -0.06253,-0.78901 v -0.72643 h 1.059927 1.059927 l -0.04544,0.76446 -0.04544,0.76446 -0.95197,0.0246 c -0.523581,0.0135 -0.980105,-0.003 -1.014494,-0.0381 z m 5.348131,-0.0125 -1.578113,-0.0752 v -0.82663 -0.82662 h 2.404743 c 2.192135,0 2.459543,0.0293 3.024592,0.33157 0.564953,0.30221 1.40942,1.12379 1.408954,1.37079 -2.22e-4,0.11875 -3.001148,0.13362 -5.260176,0.026 z m -0.356729,-2.95842 c -0.482875,-0.20301 -0.667605,-0.21387 -1.082973,-0.0636 -0.878174,0.31755 -1.605191,-0.30464 -1.94389,-1.6636 -0.05516,-0.22125 -0.222101,-0.51253 -0.371021,-0.64729 -0.25331,-0.22924 -0.291988,-0.21524 -0.600012,0.21735 l -0.329252,0.46239 -0.450071,-0.37871 c -0.516464,-0.43458 -0.921136,-0.46439 -2.080267,-0.15327 -0.948857,0.25468 -1.709258,0.28648 -2.081874,0.0871 -0.165871,-0.0888 -0.606812,-0.0637 -1.230058,0.0699 -1.033343,0.2215 -2.828472,0.26193 -3.451394,0.0778 -0.244148,-0.0722 -0.633993,-0.0118 -1.113137,0.17234 -0.405569,0.1559 -0.845188,0.24002 -0.976923,0.18695 -0.131743,-0.053 -0.822711,-0.1169 -1.535481,-0.14184 -0.712776,-0.0249 -1.445462,-0.12534 -1.628192,-0.22312 -0.266408,-0.14259 -0.381864,-0.13396 -0.582743,0.0435 -0.394959,0.34894 -1.953984,0.24848 -2.532059,-0.16315 l -0.464005,-0.3304 -0.379337,0.2984 c -0.479597,0.37725 -1.318866,0.38502 -1.774071,0.0164 -0.271278,-0.21968 -0.436359,-0.25126 -0.74707,-0.14294 -0.311983,0.10876 -0.519468,0.0679 -0.95277,-0.18778 -0.421117,-0.24847 -0.701762,-0.30701 -1.170527,-0.24413 -0.417208,0.0559 -1.02439,-0.0354 -1.877632,-0.28273 -2.52013,-0.7303 -4.219924,-1.90091 -4.985165,-3.43315 l -0.336693,-0.67417 0.371055,-0.42006 c 1.309124,-1.48203 1.291679,-1.45288 1.29415,-2.16215 0.0012,-0.3795 0.07692,-1.24377 0.168012,-1.92059 l 0.165609,-1.23059 -0.766798,-1.05094 c -0.795444,-1.09021 -0.896857,-1.32976 -0.578926,-1.36741 0.103327,-0.0122 0.289324,-0.0361 0.413317,-0.0529 0.123994,-0.0168 0.309985,-0.0407 0.413312,-0.0529 0.103329,-0.0122 0.187871,-0.15752 0.187871,-0.32284 0,-0.35657 0.190927,-0.38839 0.450888,-0.0752 0.148545,0.17899 0.148846,0.27154 0.0017,0.44912 -0.151101,0.18206 -0.136746,0.24243 0.07717,0.3245 0.634135,0.24335 0.85126,-0.31717 0.594076,-1.53365 -0.114546,-0.54179 0.153771,-0.83796 0.7894,-0.87134 0.23382,-0.0123 0.539766,-0.17407 0.69737,-0.36878 l 0.280798,-0.3469 0.350509,0.51583 c 0.296907,0.43693 0.639747,0.70401 0.903748,0.70401 0.03459,0 0.06285,-0.0923 0.06285,-0.20503 0,-0.11276 0.304349,-0.32125 0.676336,-0.46332 1.00849,-0.38514 0.851743,-1.14783 -0.182554,-0.88823 l -0.384115,0.0964 0.358479,-0.50986 c 0.197164,-0.28042 0.41998,-0.55432 0.49515,-0.60867 0.248334,-0.17956 0.522702,0.0429 0.694349,0.563 0.193812,0.58726 0.386898,0.62531 1.166397,0.22984 0.306694,-0.1556 1.301585,-0.57313 2.210877,-0.92784 0.909293,-0.35472 1.826958,-0.81919 2.039261,-1.03219 0.212297,-0.21298 0.516645,-0.36827 0.67633,-0.34507 0.159683,0.0232 0.932848,-0.10232 1.718147,-0.27894 0.785299,-0.17664 1.732162,-0.31253 2.104148,-0.302 0.371981,0.0105 0.929844,-0.0607 1.239692,-0.15833 0.436108,-0.1374 0.74866,-0.13602 1.383743,0.006 0.68464,0.15322 0.874391,0.27097 1.14677,0.7117 0.288449,0.46672 0.302947,0.5719 0.124733,0.90491 -0.281741,0.52644 -1.300996,1.08473 -2.102183,1.15149 -0.370975,0.0309 -0.809026,0.12818 -0.973447,0.21617 -0.164422,0.088 -0.872551,0.23986 -1.573625,0.33747 -0.962916,0.13406 -1.476864,0.29779 -2.101314,0.66943 -0.454643,0.27057 -1.502959,0.8373 -2.329589,1.25939 -0.82663,0.42211 -1.767886,0.9865 -2.091684,1.25423 -0.433831,0.3587 -0.712521,0.4761 -1.05928,0.44622 -0.425219,-0.0367 -0.592952,0.0995 -1.740864,1.41286 -1.419405,1.624 -1.711473,2.0205 -2.028223,2.75347 -0.291011,0.67343 -0.276918,1.93827 0.02783,2.49911 0.134758,0.24799 0.342755,0.63799 0.462204,0.86667 0.119449,0.22869 0.397662,0.50857 0.618258,0.62195 0.524768,0.26977 3.390289,0.88653 4.152105,0.8937 l 0.594815,0.006 -0.482092,0.19671 c -0.770381,0.31435 -0.599536,0.57931 0.532409,0.82572 1.335777,0.29076 1.757047,0.13702 1.637814,-0.59773 -0.06995,-0.43106 -0.04953,-0.48021 0.135633,-0.32653 0.119887,0.0995 0.217971,0.27407 0.217971,0.38795 0,0.11387 0.124028,0.33106 0.275624,0.48266 0.232496,0.2325 0.473508,0.26815 1.54053,0.22791 0.695706,-0.0262 1.320349,-0.0488 1.388094,-0.0502 0.06775,-8.3e-4 0.101561,-0.15465 0.07515,-0.34063 -0.04272,-0.3006 -0.139871,-0.34065 -0.874653,-0.36052 -0.94605,-0.0256 -1.718113,-0.27715 -1.572681,-0.51248 0.06533,-0.10571 0.512652,-0.12438 1.324137,-0.0553 1.145618,0.0976 1.266209,0.14161 1.850736,0.67605 0.753664,0.6891 1.227741,0.79479 3.208298,0.71523 1.579731,-0.0635 2.003541,-0.2276 1.659116,-0.6426 -0.250112,-0.30137 -0.08143,-0.74538 0.236785,-0.62327 0.132617,0.0509 0.45674,-0.0408 0.720274,-0.20362 0.274907,-0.16989 0.613697,-0.26095 0.794774,-0.21359 0.17359,0.0454 0.635271,-0.0588 1.025963,-0.23169 0.390693,-0.17282 0.803204,-0.31422 0.916694,-0.31422 0.246658,0 0.263496,-0.21355 0.04851,-0.61527 -0.116922,-0.21846 -0.292068,-0.28587 -0.675717,-0.26003 -0.661657,0.0446 -1.006116,-0.2477 -0.454973,-0.38603 0.503428,-0.12635 0.492175,-0.36032 -0.02659,-0.55245 -0.227321,-0.0842 -1.016312,-0.40115 -1.753309,-0.70434 l -1.340004,-0.55126 0.489561,-0.19977 c 0.312086,-0.12734 0.460636,-0.27511 0.409785,-0.40763 -0.127544,-0.33238 0.710475,-0.53152 2.236685,-0.53152 1.307738,0 1.402085,0.0213 1.629691,0.36872 0.146789,0.22402 0.448985,0.40763 0.770074,0.46786 0.290665,0.0545 0.696508,0.23132 0.901874,0.39286 0.756862,0.59534 4.192402,0.5628 5.059579,-0.048 0.220369,-0.1552 0.605801,-0.3232 0.85652,-0.37335 0.25072,-0.0501 0.571246,-0.21867 0.712276,-0.37451 0.193074,-0.21335 0.464159,-0.28328 1.097334,-0.28311 1.096679,3e-4 1.87572,0.376 1.940205,0.93568 0.0468,0.40641 0.180957,0.53976 1.568461,1.55923 0.392646,0.2885 0.713906,0.61669 0.713906,0.72931 0,0.11261 -0.297696,0.39309 -0.661543,0.62328 -1.317446,0.83348 -1.757474,2.05478 -1.460276,4.05299 0.09238,0.62112 0.167966,1.24824 0.167966,1.39358 0,0.33271 -0.8859,0.67267 -1.410069,0.54111 -0.315199,-0.0791 -0.395998,-0.0334 -0.471389,0.26704 -0.05005,0.19938 -0.0699,0.4596 -0.04414,0.57826 0.06803,0.31315 -0.732073,0.33421 -1.437083,0.0378 z M 83.456991,37.90601 c 0.399878,-0.002 0.563612,-0.0676 0.563612,-0.22749 0,-0.20913 0.260604,-0.29553 0.713906,-0.23667 0.103328,0.0135 0.187871,-0.0892 0.187871,-0.22806 0,-0.21387 -0.106583,-0.23786 -0.697313,-0.15688 -0.383519,0.0525 -1.059854,0.0956 -1.50296,0.0956 -0.751755,0 -0.805652,0.0243 -0.805652,0.36322 0,0.40367 0.223419,0.55467 0.67633,0.45711 0.165331,-0.0356 0.554222,-0.0656 0.864206,-0.0668 z m 3.091524,-0.7911 c -0.0347,-0.24432 -0.131457,-0.32377 -0.348623,-0.2863 -0.445662,0.0769 -0.483239,0.17415 -0.158905,0.41131 0.412988,0.30199 0.562925,0.26505 0.507528,-0.12501 z m 1.79317,-0.30059 c -0.09469,-0.28439 -0.56368,-0.32482 -0.56368,-0.0486 0,0.13942 0.128504,0.23646 0.313114,0.23646 0.183661,0 0.287256,-0.0777 0.250566,-0.18786 z m 1.456936,-0.24945 c 0.09661,-0.15634 -0.05015,-0.61592 -0.195568,-0.61245 -0.264807,0.007 -0.505681,0.29532 -0.423855,0.50856 0.100045,0.26071 0.482825,0.3249 0.619423,0.10389 z M 63.878617,28.99892 c -0.0017,-0.27346 -0.03016,-0.29503 -0.147993,-0.11273 -0.188308,0.2914 -0.188308,0.45089 0,0.45089 0.08266,0 0.14926,-0.15217 0.147993,-0.33816 z m -0.591418,-2.29587 c 0.492152,-0.25451 0.563226,-0.53624 0.209366,-0.82992 -0.196942,-0.16345 -0.2956,-0.1327 -0.622274,0.19398 -0.23728,0.23728 -0.352639,0.48095 -0.296698,0.62673 0.112888,0.29419 0.157384,0.29477 0.709606,0.009 z m 6.154675,-1.28254 c 0,-0.16044 -0.06763,-0.29172 -0.150294,-0.29172 -0.08266,0 -0.150295,0.17308 -0.150295,0.38461 0,0.21814 0.06505,0.34441 0.150295,0.29172 0.08266,-0.051 0.150294,-0.22416 0.150294,-0.38461 z M 46.991691,42.15648 c -0.316828,-0.31682 0.405377,-1.51175 0.992699,-1.64249 0.302185,-0.0673 0.676818,-0.46696 1.418803,-1.5137 1.123401,-1.58483 1.930246,-2.35466 2.738914,-2.61327 0.713855,-0.22829 1.169242,-0.65818 1.605924,-1.516 0.440203,-0.86475 0.861656,-1.17526 1.595148,-1.17526 0.508693,0 0.576131,-0.0475 0.694047,-0.48846 0.203254,-0.76021 -0.269863,-2.28457 -0.906713,-2.92141 -0.688855,-0.68887 -3.537687,-1.75342 -4.337959,-1.62104 -0.604568,0.10003 -1.490366,0.58762 -1.490366,0.82041 0,0.17583 -0.402541,0.20818 -0.495099,0.0397 -0.03408,-0.062 -0.0034,-0.32733 0.06757,-0.58962 0.183633,-0.67607 1.597983,-1.59788 2.820769,-1.83845 0.508614,-0.10006 1.182939,-0.27302 1.498495,-0.38435 0.546304,-0.19275 0.622365,-0.17796 1.590462,0.30928 0.559198,0.28144 1.202871,0.51171 1.430397,0.51171 0.282684,0 0.550592,0.15914 0.846108,0.50262 0.628318,0.73028 0.987626,0.88806 1.38639,0.60875 0.403133,-0.28237 0.435046,-0.26169 1.108661,0.71832 l 0.550223,0.8005 -0.180481,1.62177 -0.180486,1.62178 -1.125934,1.35555 c -0.619264,0.74555 -1.362652,1.50025 -1.65197,1.6771 -0.289325,0.17686 -1.155995,0.9094 -1.92594,1.62787 l -1.399893,1.30631 -1.004843,0.0598 c -1.260205,0.0749 -2.335372,0.55571 -3.602733,1.611 -0.946307,0.78796 -1.865489,1.28826 -2.042198,1.11155 z M 77.137038,37.4231 c -0.275492,-0.27549 -0.216665,-0.42083 0.170335,-0.42083 0.452348,0 0.591532,0.14591 0.381081,0.39949 -0.206361,0.24866 -0.31972,0.25304 -0.551416,0.0213 z m 2.600122,-5.2303 c -0.05419,-0.0877 0.09864,-0.1503 0.366869,-0.1503 0.252866,0 0.459761,0.0676 0.459761,0.1503 0,0.0827 -0.165092,0.1503 -0.366868,0.1503 -0.201783,0 -0.408672,-0.0676 -0.459762,-0.1503 z m 7.827224,-0.30756 c -1.650475,-0.58349 -2.728728,-1.54179 -3.483591,-3.09607 -0.373701,-0.76945 -0.426973,-1.04949 -0.424655,-2.23248 0.0022,-1.22758 0.04897,-1.44626 0.50362,-2.36482 0.600348,-1.2129 1.632395,-2.23015 2.833988,-2.79333 0.776267,-0.36383 1.026923,-0.4028 2.590971,-0.4028 1.64888,0 1.778821,0.0233 2.721111,0.48714 3.136326,1.54401 4.186911,5.24312 2.297529,8.08959 -0.644145,0.97044 -1.381608,1.58164 -2.56658,2.12713 -1.217708,0.56056 -3.181321,0.64207 -4.472393,0.18564 z m 4.288993,-1.96164 c -0.23967,-0.68751 -0.209581,-1.72542 0.05777,-1.99277 0.123994,-0.12399 0.225448,-0.25452 0.225448,-0.29005 0,-0.0355 -0.369351,-0.30984 -0.82078,-0.60957 l -0.820772,-0.54497 -0.375668,0.49254 c -0.509034,0.66737 -0.385041,1.09967 0.381268,1.32926 0.339977,0.10186 0.583875,0.26881 0.583875,0.39966 0,0.31001 0.754385,1.87903 0.855037,1.77838 0.04482,-0.0448 0.0061,-0.29794 -0.08618,-0.56248 z m -0.521678,-2.39927 c -0.271141,-0.26394 -0.270039,-0.26914 0.03993,-0.18809 0.353246,0.0924 0.531955,0.29082 0.354116,0.39321 -0.06335,0.0364 -0.24066,-0.0558 -0.394033,-0.20512 z m -2.94803,-0.88412 c -0.188523,-0.35226 -0.45537,-0.53851 -0.45537,-0.31783 0,0.50757 -0.729238,-0.14293 -0.852794,-0.76073 -0.05706,-0.2853 -0.179134,-0.43277 -0.358234,-0.43277 -0.149419,0 -0.314608,-0.13527 -0.367078,-0.3006 -0.05249,-0.16532 -0.162474,-0.30059 -0.244443,-0.30059 -0.08197,0 -0.100385,-0.0845 -0.0409,-0.18787 0.05947,-0.10333 0.05277,-0.13773 -0.01489,-0.0764 -0.06764,0.0612 -0.204651,0.0436 -0.304462,-0.0392 -0.350702,-0.29106 0.07588,1.39367 0.437812,1.72911 0.183632,0.17018 0.381688,0.43402 0.440123,0.5863 0.07553,0.19682 0.21303,0.25646 0.475571,0.20628 0.203128,-0.0388 0.333563,-0.0127 0.289852,0.058 -0.04368,0.0707 0.197436,0.12858 0.535874,0.12858 0.562896,0 0.602012,-0.0249 0.458949,-0.29221 z m 0.485307,-0.43061 c -0.398134,-0.0582 -0.790377,-0.56467 -0.790377,-1.02061 0,-0.42492 0.361949,-0.7114 0.898806,-0.7114 0.460323,0 0.598149,-0.23904 0.602103,-1.04426 0.0012,-0.23141 0.102692,-0.45666 0.227492,-0.50454 0.123999,-0.0476 0.225447,-0.18073 0.225447,-0.29588 0,-0.11515 0.08266,-0.20937 0.183695,-0.20937 0.104595,0 0.05175,-0.13195 -0.122749,-0.30644 -0.40528,-0.40528 -0.763634,-0.2517 -0.7803,0.33443 -0.01733,0.60866 -0.294925,0.89882 -0.504507,0.5273 -0.08418,-0.14925 -0.323236,-0.33605 -0.531221,-0.41513 -0.207985,-0.0791 -0.413312,-0.27822 -0.456285,-0.44256 -0.05459,-0.20882 -0.205383,-0.29878 -0.500758,-0.29878 -0.544809,0 -0.894983,0.35704 -0.894983,0.91251 0,0.43222 -0.102879,0.50313 -0.647723,0.4465 -0.149583,-0.0155 -0.372594,0.0552 -0.495576,0.1573 -0.282428,0.2344 -0.02471,0.43185 0.568031,0.43524 0.323544,0.002 0.434825,0.10279 0.57219,0.51901 0.115387,0.34962 0.277105,0.53188 0.500116,0.56361 0.20957,0.0298 0.347184,0.17086 0.377911,0.3873 0.02659,0.18721 0.104469,0.30569 0.173101,0.26327 0.06863,-0.0424 0.361716,0.15983 0.651313,0.44943 0.388591,0.38858 0.599183,0.49716 0.803828,0.41441 0.25035,-0.10123 0.244567,-0.11691 -0.05956,-0.16134 z m -1.290572,-3.53139 c -0.418515,-0.32475 -0.42832,-0.32533 -0.638754,-0.0381 -0.209905,0.28655 -0.213716,0.2862 -0.213716,-0.0192 0,-0.171 0.109446,-0.40174 0.243215,-0.51276 0.209814,-0.17413 0.28799,-0.1457 0.569253,0.20704 0.179327,0.22489 0.437869,0.4089 0.574547,0.4089 0.136673,0 0.290301,0.0676 0.341386,0.15029 0.170523,0.2759 -0.445265,0.13796 -0.875931,-0.19622 z m 2.454043,3.20289 c -0.191279,-0.12425 -0.184241,-0.14679 0.04646,-0.14874 0.160888,-8.3e-4 0.229725,-0.0705 0.168614,-0.1694 -0.0568,-0.0919 -0.01392,-0.22233 0.09531,-0.28983 0.149618,-0.0925 0.159769,-0.20876 0.04118,-0.47166 -0.08658,-0.19191 -0.139439,-0.46729 -0.117478,-0.61194 0.05129,-0.3377 -0.01562,-0.33116 -0.384353,0.0375 -0.16533,0.16532 -0.300594,0.43586 -0.300594,0.60119 0,0.36045 -0.13089,0.38458 -0.363136,0.067 -0.191626,-0.26206 -0.619526,-0.16404 -0.74825,0.17141 -0.04538,0.11831 -0.02432,0.36671 0.04686,0.55199 0.108963,0.28364 0.25669,0.34254 0.935138,0.37287 0.566776,0.0253 0.738867,-0.007 0.580284,-0.11041 z m 4.427812,-1.51684 c -0.145846,-0.32342 -0.311188,-0.58805 -0.367424,-0.58805 -0.154748,0 -0.428951,0.99866 -0.321635,1.17139 0.120312,0.19365 0.828066,0.29642 0.899754,0.13066 0.02999,-0.0693 -0.06485,-0.39057 -0.210695,-0.714 z m -2.664874,-2.4952 c 0.02931,-0.088 -0.06067,-0.20369 -0.199987,-0.25716 -0.320362,-0.12293 -0.393385,-0.05 -0.270453,0.27045 0.102243,0.26645 0.379808,0.2586 0.47044,-0.0133 z m -34.199099,5.85243 c 0.03488,-0.18414 0.219415,-0.27707 0.615287,-0.30986 0.404831,-0.0335 0.553899,0.009 0.524787,0.1503 -0.06015,0.2916 -0.289842,0.41769 -0.765588,0.42027 -0.323543,0.002 -0.412494,-0.0602 -0.374486,-0.26071 z m -0.896085,-1.23148 c -0.457273,-0.41765 -0.484386,-0.50123 -0.484386,-1.49317 0,-1.20696 0.158667,-1.73528 0.59056,-1.96642 0.389028,-0.20821 1.299667,0.14293 1.411345,0.54421 0.04238,0.1522 0.227162,0.79871 0.410676,1.43668 0.314381,1.09292 0.319249,1.18195 0.0843,1.54054 -0.372855,0.56905 -1.354795,0.53888 -2.012493,-0.0618 z m 11.389007,-4.21676 c 0,-0.0827 0.185997,-0.14554 0.413318,-0.13973 0.366249,0.009 0.379082,0.0253 0.112724,0.13973 -0.410517,0.1764 -0.526042,0.1764 -0.526042,0 z m 0.997726,-0.37574 c 0.0476,-0.12399 0.237876,-0.22545 0.422878,-0.22545 0.184996,0 0.460228,-0.13686 0.611612,-0.30414 0.171051,-0.18901 0.328525,-0.25086 0.415993,-0.16339 0.177385,0.17739 -0.01198,0.50397 -0.245113,0.42277 -0.09575,-0.0334 -0.335392,0.0646 -0.532534,0.21751 -0.434977,0.33754 -0.792904,0.36558 -0.672836,0.0527 z m 2.643857,-0.81906 c -0.267898,-0.22365 -0.441607,-0.45211 -0.386023,-0.5077 0.113649,-0.11364 1.403625,-0.14079 1.403625,-0.0295 0,0.0393 -0.11937,0.26779 -0.265256,0.5077 l -0.265256,0.43617 z" />
  </g>
</svg>
