<?xml version="1.0" encoding="UTF-8" standalone="no"?>
<!-- Created with Inkscape (http://www.inkscape.org/) -->

<svg
   width="57.28738mm"
   height="25.044146mm"
   viewBox="0 0 57.28738 25.044146"
   version="1.1"
   id="svg2955"
   inkscape:version="1.1.2 (0a00cf5339, 2022-02-04)"
   sodipodi:docname="14.html"
   xmlns:inkscape="http://www.inkscape.org/namespaces/inkscape"
   xmlns:sodipodi="http://sodipodi.sourceforge.net/DTD/sodipodi-0.dtd"
   xmlns="http://www.w3.org/2000/svg"
   xmlns:svg="http://www.w3.org/2000/svg">
  <sodipodi:namedview
     id="namedview2957"
     pagecolor="#ffffff"
     bordercolor="#666666"
     borderopacity="1.0"
     inkscape:pageshadow="2"
     inkscape:pageopacity="0.0"
     inkscape:pagecheckerboard="0"
     inkscape:document-units="mm"
     showgrid="false"
     inkscape:zoom="0.69664703"
     inkscape:cx="287.80716"
     inkscape:cy="484.46342"
     inkscape:window-width="1920"
     inkscape:window-height="1016"
     inkscape:window-x="0"
     inkscape:window-y="0"
     inkscape:window-maximized="1"
     inkscape:current-layer="layer1" />
  <defs
     id="defs2952" />
  <g
     inkscape:label="Capa 1"
     inkscape:groupmode="layer"
     id="layer1"
     transform="translate(-28.705414,-20.140336)">
    <path
       id="path37402"
       style="fill:#ffffff;stroke-width:0.0720858"
       d="m 37.205575,44.81681 c 0.86044,-0.41676 1.40456,-0.8367 2.48672,-1.91919 0.8993,-0.89958 0.90046,-0.90118 0.68481,-0.94446 -0.11881,-0.0238 -0.37821,-0.0284 -0.57644,-0.0101 -0.33181,0.0306 -0.40337,0.0745 -0.90108,0.55284 -1.29429,1.24383 -2.20022,1.76998 -3.04757,1.76998 -0.43776,0 -0.77554,-0.15408 -1.06799,-0.48716 -0.30518,-0.34758 -0.46997,-0.7606 -0.64905,-1.62667 -0.13697,-0.66241 -0.14795,-0.89438 -0.11319,-2.39154 0.0374,-1.609 0.1418,-2.58623 0.43528,-4.07285 0.19044,-0.96465 0.66493,-1.98524 1.50607,-3.23941 0.33624,-0.50135 0.9655,-1.36078 1.05886,-1.44617 0.0217,-0.0198 0.2016,-0.23068 0.39983,-0.46856 0.19824,-0.23788 0.73348,-0.80556 1.18942,-1.26151 0.45594,-0.45594 1.02362,-0.99118 1.2615,-1.18941 0.23789,-0.19824 0.44874,-0.37756 0.46856,-0.3985 0.22254,-0.23502 1.55574,-1.17923 2.56488,-1.81651 1.40966,-0.89022 3.01753,-1.34022 3.6292,-1.01572 0.33475,0.17759 0.4466,0.52121 0.49116,1.50902 0.0722,1.60047 -0.53454,3.88516 -1.6879,6.35577 -0.13485,0.28884 -0.27607,0.60642 -0.31382,0.70574 l -0.0687,0.18058 0.59403,-0.0209 0.59403,-0.0209 0.31915,-0.64878 c 1.20804,-2.4557 1.99711,-4.71908 2.2434,-6.43496 0.12916,-0.89985 0.0625,-2.34629 -0.12752,-2.76889 -0.30959,-0.68837 -1.02706,-0.7698 -2.4665,-0.27993 -2.59216,0.88217 -6.1907,3.59426 -8.8055,6.63639 -0.6947,0.80824 -1.76939,2.39037 -2.27114,3.3435 l -0.2991,0.56819 -0.0479,-1.00071 c -0.15486,-3.23276 -0.60406,-5.81626 -1.31455,-7.56052 -0.67507,-1.6573 -1.54527,-2.63114 -2.35113,-2.63114 -0.63151,0 -1.23146,1.02737 -1.74631,2.99038 -0.43942,1.67541 -0.57208,2.91351 -0.57167,5.33555 2.7e-4,1.95459 0.0435,2.55648 0.28402,3.96472 0.35617,2.08488 0.99606,3.76216 1.69069,4.43167 0.55301,0.53302 0.91516,0.55782 1.53492,0.10512 0.44596,-0.32574 0.86515,-0.90189 1.34935,-1.85458 0.21447,-0.422 0.40235,-0.75487 0.41751,-0.73972 0.0152,0.0152 -0.0216,0.47636 -0.0818,1.0249 -0.24771,2.25965 -0.20852,3.76449 0.13311,5.11122 0.20321,0.80105 0.44112,1.2531 0.85894,1.63205 0.57513,0.52162 1.28121,0.53115 2.31339,0.0312 z m -6.06735,-5.95299 c -0.39596,-0.24144 -0.87996,-1.20216 -1.20063,-2.38321 -0.7435,-2.73836 -0.7323,-7.39724 0.0245,-10.20016 0.58534,-2.16783 1.06032,-2.86156 1.80623,-2.63807 1.4817,0.44392 2.58816,4.39229 2.58947,9.24042 5.5e-4,1.49024 -0.0664,1.87697 -0.5467,3.16344 -0.27527,0.73732 -0.86271,1.89828 -1.10056,2.17503 -0.34136,0.39717 -0.41828,0.4728 -0.63421,0.62357 -0.28021,0.19566 -0.63653,0.20287 -0.93812,0.019 z m 54.16662,1.8412 c 0.2539,-0.0875 0.27169,-0.11333 0.29211,-0.42325 l 0.0217,-0.33002 -0.36493,0.13866 c -0.71831,0.27294 -1.66482,0.14797 -2.03098,-0.26816 -0.18931,-0.21515 -0.42289,-0.72545 -0.42289,-0.92389 v -0.18309 h 1.59647 1.59647 l -0.0451,-0.53376 c -0.0851,-1.00677 -0.51587,-1.67083 -1.21936,-1.87974 -1.05309,-0.31274 -2.0035,0.11086 -2.48103,1.10579 -0.16586,0.34557 -0.19585,0.50406 -0.19975,1.05541 -0.009,1.2191 0.48818,1.98242 1.50922,2.31894 0.33787,0.11136 1.32846,0.0678 1.74804,-0.0769 z m -2.47445,-2.59097 c -0.0204,-0.0531 0.0324,-0.28225 0.11726,-0.50913 0.19742,-0.52766 0.58385,-0.83597 1.04779,-0.83597 0.40399,0 0.59812,0.0793 0.86649,0.35375 0.21536,0.22028 0.43916,0.87622 0.34883,1.02239 -0.0223,0.0361 -0.55866,0.0656 -1.19192,0.0656 -0.89598,0 -1.1596,-0.0214 -1.18845,-0.0966 z m -37.43835,2.47643 c 0.18101,-0.0885 0.39186,-0.25496 0.46856,-0.36985 l 0.13945,-0.2089 0.036,0.34295 0.036,0.34295 0.34241,0.022 0.34241,0.022 -0.002,-1.53578 c -0.002,-1.63427 -0.049,-2.00545 -0.3055,-2.40381 -0.35111,-0.54539 -1.34399,-0.75401 -2.28783,-0.4807 l -0.46855,0.13568 -0.0222,0.34096 c -0.0217,0.3341 -0.0189,0.33921 0.14084,0.25372 0.22212,-0.11887 0.84679,-0.28079 1.0873,-0.28184 0.30758,-0.001 0.75535,0.20861 0.89301,0.4187 0.14607,0.22293 0.25211,0.72018 0.16506,0.77398 -0.033,0.0204 -0.36124,0.0521 -0.72948,0.0705 -1.44762,0.0724 -2.14527,0.57024 -2.1469,1.53216 -8.1e-4,0.47456 0.42249,1.01099 0.92734,1.17519 0.31374,0.10205 1.02649,0.0249 1.38374,-0.14986 z m -1.15017,-0.462 c -0.59893,-0.33197 -0.4421,-1.21143 0.25665,-1.43922 0.30967,-0.10095 1.43146,-0.18419 1.49189,-0.1107 0.0129,0.0157 0.003,0.23043 -0.0219,0.47713 -0.0501,0.49434 -0.19695,0.7502 -0.58043,1.01119 -0.27497,0.18715 -0.86267,0.21873 -1.14617,0.0616 z m 21.35488,0.55262 c 0.19311,-0.0692 0.44234,-0.2308 0.55646,-0.36078 0.11369,-0.12948 0.22391,-0.23542 0.24494,-0.23542 0.021,0 0.0383,0.14597 0.0383,0.32439 v 0.32438 h 0.36043 0.36043 V 39.1208 c 0,-1.73661 -0.0398,-1.98597 -0.3905,-2.44574 -0.22559,-0.29577 -0.72843,-0.48363 -1.2932,-0.48315 -0.48711,5.4e-4 -1.39543,0.20112 -1.43766,0.31768 -0.0158,0.0435 -0.0141,0.1978 0.004,0.34282 l 0.0323,0.26367 0.22724,-0.0949 c 0.12498,-0.0522 0.4264,-0.13609 0.66983,-0.18637 0.39021,-0.0806 0.4816,-0.0765 0.77199,0.0344 0.36918,0.14098 0.57995,0.42008 0.64565,0.85494 l 0.0408,0.27032 -0.44601,10e-4 c -1.3922,0.004 -2.23955,0.39593 -2.42156,1.11876 -0.12208,0.48482 -0.096,0.69879 0.12809,1.0522 0.3762,0.59319 1.12556,0.79509 1.90889,0.51431 z m -0.97504,-0.57545 c -0.23108,-0.14335 -0.34789,-0.37665 -0.34789,-0.69482 0,-0.28384 0.33619,-0.63632 0.72498,-0.7601 0.23169,-0.0738 1.34796,-0.12844 1.39573,-0.0684 0.0109,0.0136 -2.7e-4,0.22293 -0.0249,0.46511 -0.0756,0.74554 -0.53897,1.18408 -1.24643,1.17969 -0.16977,-0.001 -0.39542,-0.0557 -0.50144,-0.12151 z m -26.22673,-1.27909 v -1.90712 l 0.52263,-0.0212 0.52262,-0.0212 0.0221,-0.26628 c 0.0209,-0.25145 0.009,-0.26842 -0.21626,-0.3045 -0.13111,-0.021 -0.36814,-0.0309 -0.52673,-0.0221 l -0.28834,0.0162 v -0.62512 c 0,-0.56243 0.0175,-0.64376 0.17475,-0.81097 0.14538,-0.15459 0.23932,-0.18584 0.55867,-0.18584 h 0.38391 V 34.3978 c 0,-0.31979 -0.0724,-0.36978 -0.52852,-0.36498 -0.35089,0.004 -0.79393,0.14805 -0.98495,0.32092 -0.24529,0.22198 -0.37539,0.61885 -0.42259,1.28905 l -0.0463,0.65757 -0.37845,0.009 c -0.20815,0.005 -0.4109,0.0131 -0.45054,0.018 -0.0396,0.005 -0.0721,0.13877 -0.0721,0.29735 v 0.28835 h 0.46856 0.46856 v 1.91027 1.91028 h 0.39647 0.39647 z m 13.69673,0.59155 c 2.1e-4,-0.72357 0.035,-1.44028 0.0773,-1.5927 0.0423,-0.15242 0.18342,-0.3933 0.31354,-0.53529 0.21218,-0.23153 0.28227,-0.26146 0.67955,-0.2902 l 0.44296,-0.032 v -0.23774 c 0,-0.13076 0.0192,-0.28769 0.0426,-0.34875 0.0672,-0.17501 -0.26967,-0.21744 -0.70441,-0.0887 -0.32311,0.0957 -0.42597,0.17185 -0.65376,0.48424 l -0.27032,0.37072 V 36.7421 36.3365 h -0.36043 -0.36043 v 2.19862 2.19862 h 0.39647 0.39647 l 5.5e-4,-1.31556 z m 6.70358,-0.59471 v -1.91028 h 0.54065 0.54064 v -0.28393 c 0,-0.28028 -0.004,-0.28439 -0.30636,-0.32016 -0.1685,-0.0199 -0.40368,-0.03 -0.52262,-0.0224 l -0.21626,0.0138 V 35.7108 c 0,-0.48661 0.0265,-0.62516 0.15151,-0.79295 0.13025,-0.17478 0.20864,-0.20635 0.55866,-0.22493 l 0.40716,-0.0216 v -0.27704 c 0,-0.31913 -0.0697,-0.36454 -0.55982,-0.36454 -0.39981,0 -0.87273,0.21454 -1.07214,0.48638 -0.19654,0.26791 -0.31436,0.77536 -0.31436,1.35389 v 0.47888 l -0.27032,-0.0163 c -0.63458,-0.0382 -0.6668,-0.0241 -0.6668,0.29222 v 0.28835 h 0.46856 0.46856 v 1.91027 1.91028 h 0.39647 0.39647 z m 13.62424,-0.96259 c 0,-1.58007 0.0208,-3.07225 0.0463,-3.31595 l 0.0463,-0.44309 h -0.44278 -0.44278 v 3.31595 3.31595 h 0.39647 0.39647 z m 5.33479,0.15162 c 2.2e-4,-1.49668 0.0213,-2.98886 0.0467,-3.31595 l 0.0463,-0.59471 h -0.44452 -0.44452 l 0.004,3.31595 0.004,3.31595 h 0.39372 0.39371 l 5.5e-4,-2.72124 z m -42.03517,-8.57822 c 0.41462,-2.17602 0.53984,-3.38148 0.54474,-5.24425 0.004,-1.50245 -0.0131,-1.78398 -0.12999,-2.13988 -0.15776,-0.48054 -0.39637,-0.74319 -0.61276,-0.67452 -0.19233,0.061 -0.49086,0.69448 -0.55106,1.16928 -0.0448,0.35343 -0.0393,0.37119 0.10328,0.3339 0.34965,-0.0914 0.61748,0.44257 0.73825,1.47197 0.0835,0.71171 0.0308,2.05329 -0.15219,3.87606 -0.10043,1.00028 -0.13352,1.69402 -0.0808,1.69402 0.0263,0 0.0895,-0.21896 0.14053,-0.48658 z m 1.56993,-1.24348 c 0.2432,-0.37665 0.81655,-1.28824 1.27413,-2.02576 1.48305,-2.39039 2.36564,-3.51515 3.18248,-4.05574 0.28769,-0.19039 0.61402,-0.25305 0.61402,-0.11789 0,0.28294 0.3955,-0.31278 0.63805,-0.96105 0.29875,-0.79848 0.16307,-1.06804 -0.38991,-0.77469 -0.85983,0.45614 -2.41252,2.50251 -4.26573,5.62202 -0.38398,0.64635 -1.89346,3.448 -1.89346,3.51432 0,0.0629 0.31337,-0.38495 0.84042,-1.20121 z" />
  </g>
</svg>
