<?xml version="1.0" encoding="UTF-8" standalone="no"?>
<!-- Created with Inkscape (http://www.inkscape.org/) -->

<svg
   width="88.155739mm"
   height="17.395939mm"
   viewBox="0 0 88.155739 17.395939"
   version="1.1"
   id="svg34"
   inkscape:version="1.1.2 (0a00cf5339, 2022-02-04)"
   sodipodi:docname="15.html"
   xmlns:inkscape="http://www.inkscape.org/namespaces/inkscape"
   xmlns:sodipodi="http://sodipodi.sourceforge.net/DTD/sodipodi-0.dtd"
   xmlns="http://www.w3.org/2000/svg"
   xmlns:svg="http://www.w3.org/2000/svg">
  <sodipodi:namedview
     id="namedview36"
     pagecolor="#ffffff"
     bordercolor="#666666"
     borderopacity="1.0"
     inkscape:pageshadow="2"
     inkscape:pageopacity="0.0"
     inkscape:pagecheckerboard="0"
     inkscape:document-units="mm"
     showgrid="false"
     inkscape:zoom="0.69664703"
     inkscape:cx="305.03252"
     inkscape:cy="332.30602"
     inkscape:window-width="1920"
     inkscape:window-height="1016"
     inkscape:window-x="0"
     inkscape:window-y="0"
     inkscape:window-maximized="1"
     inkscape:current-layer="layer1" />
  <defs
     id="defs31" />
  <g
     inkscape:label="Capa 1"
     inkscape:groupmode="layer"
     id="layer1"
     transform="translate(-24.285304,-60.424793)">
    <path
       style="fill:#ffffff;stroke-width:0.0260898"
       d="m 40.252501,77.656129 c 0.587934,-0.430007 1.23465,-1.00996 1.692034,-1.51738 l 0.298123,-0.330734 21.708611,0.0017 21.708603,0.0017 0.164061,0.335984 c 0.196422,0.402272 0.545179,0.934829 0.844177,1.289071 0.119885,0.142042 0.239509,0.285866 0.265821,0.319601 l 0.04785,0.06133 H 63.507217 40.032656 l 0.219862,-0.160807 z m 50.935834,0.132423 c -0.727813,-0.06498 -1.408096,-0.303274 -1.997229,-0.699513 -1.022899,-0.687996 -1.722829,-1.725418 -1.998411,-2.962006 l -0.07015,-0.314882 -0.0083,-4.533107 -0.0083,-4.533098 h 0.992053 0.992046 v 0.352212 c 0,0.193717 0.0058,0.352211 0.01304,0.352211 0.0075,0 0.08638,-0.05409 0.176109,-0.120254 0.480292,-0.354041 1.061395,-0.617174 1.599443,-0.724268 1.226413,-0.244094 2.448888,-0.01722 3.424707,0.635448 0.28719,0.192095 0.780172,0.65839 1.01776,0.962655 1.269165,1.625346 1.32698,3.933972 0.140544,5.612323 -0.213739,0.302352 -0.695252,0.791855 -1.002447,1.019066 -0.566143,0.41873 -1.229217,0.692764 -1.964371,0.811807 -0.335302,0.05426 -1.161755,0.04019 -1.529136,-0.02613 -0.658989,-0.118884 -1.251525,-0.378233 -1.748884,-0.765451 -0.05225,-0.04069 -0.103837,-0.07406 -0.114535,-0.07406 -0.01067,0 -0.01304,0.190788 -0.005,0.423965 0.01581,0.464414 0.05717,0.673111 0.202903,1.023134 0.16739,0.40208 0.537393,0.864039 0.900663,1.124509 0.206657,0.148184 0.545603,0.308975 0.806914,0.382801 l 0.208721,0.059 7.520377,0.0067 7.520378,0.0067 v 1.004111 1.004102 l -7.416022,-0.0033 c -4.078802,-0.0017 -7.52284,-0.01318 -7.653391,-0.0248 z m 0.95485,-6.139522 c 0.770809,-0.137808 1.462309,-0.672187 1.826103,-1.411184 0.201481,-0.409286 0.246242,-0.617424 0.246882,-1.147951 5.57e-4,-0.382293 -0.0083,-0.47594 -0.06066,-0.678336 -0.23221,-0.890958 -0.926232,-1.579488 -1.829689,-1.815212 -0.311205,-0.08121 -0.897882,-0.09991 -1.202904,-0.03835 -0.466462,0.09414 -0.875599,0.322204 -1.226363,0.683619 -0.337874,0.348126 -0.547367,0.724927 -0.668799,1.20288 -0.06857,0.269889 -0.06041,1.04317 0.0139,1.315257 0.271021,0.992819 1.026304,1.715997 1.971259,1.887472 0.2459,0.0446 0.686033,0.04543 0.930318,0.0017 z m 14.532005,5.163446 v -1.004461 h 0.18262 0.18264 v 0.834874 0.834875 h 0.32611 0.32613 v 0.169577 0.169586 h -0.50875 -0.50875 z m 1.2784,0.169577 v -0.834874 h -0.19567 -0.19568 v -0.169578 -0.169586 h 0.57398 0.57397 v 0.169586 0.169578 h -0.18263 -0.18262 v 0.834874 0.834874 h -0.19568 -0.19567 z m 0.96532,-0.167656 v -1.006382 h 0.4292 c 0.44602,0 0.64193,0.02588 0.79702,0.105418 0.13773,0.07057 0.30172,0.254237 0.3835,0.429424 0.068,0.145704 0.073,0.179097 0.0721,0.482654 -8.3e-4,0.295603 -0.008,0.339555 -0.0686,0.469616 -0.0954,0.202295 -0.23363,0.350114 -0.40734,0.435414 -0.1465,0.07198 -0.15941,0.07348 -0.67766,0.08179 l -0.52832,0.0084 z m 0.98003,0.625223 c 0.24327,-0.101624 0.33518,-0.291841 0.32048,-0.663225 -0.0117,-0.296858 -0.0934,-0.44525 -0.30595,-0.556314 -0.12227,-0.0639 -0.16828,-0.07289 -0.37139,-0.07289 h -0.23183 v 0.682172 0.682164 l 0.243,-0.01448 c 0.13365,-0.0083 0.2892,-0.03378 0.34569,-0.05742 z m 0.67464,0.33165 c 0.009,-0.02513 0.18355,-0.477479 0.38761,-1.00526 l 0.37102,-0.959601 0.169,0.0075 0.16899,0.0075 0.38219,0.998936 0.38218,0.998935 -0.20845,-0.0075 -0.20846,-0.0075 -0.0707,-0.195674 -0.0707,-0.195672 h -0.38845 -0.38845 l -0.0761,0.202197 -0.0761,0.202197 h -0.19506 c -0.17471,0 -0.19334,-0.005 -0.17848,-0.04568 z m 1.16303,-0.746396 c 0,-0.005 -0.0471,-0.137224 -0.10475,-0.293505 -0.0576,-0.156288 -0.11123,-0.30176 -0.11916,-0.323286 -0.0197,-0.05359 -0.0387,-0.01714 -0.15075,0.289319 -0.0493,0.135037 -0.0981,0.266062 -0.1082,0.291176 -0.0168,0.04161 0.004,0.04568 0.23221,0.04568 0.13786,0 0.25065,-0.0042 0.25065,-0.0094 z m -78.999866,0.724644 c -0.642213,-0.05467 -0.819605,-0.07481 -1.147003,-0.130096 -1.799068,-0.303749 -3.383232,-1.127615 -4.711795,-2.450436 -0.819705,-0.816167 -1.431614,-1.698489 -1.876406,-2.705646 -0.940262,-2.129029 -0.955514,-4.617958 -0.04127,-6.739031 0.627102,-1.454945 1.737324,-2.771817 3.132532,-3.71559 1.220137,-0.825347 2.520841,-1.324919 3.991738,-1.533149 0.511412,-0.0724 1.925351,-0.06616 2.491774,0.01094 2.050144,0.27926 3.640683,1.02409 5.159052,2.415926 0.125564,0.115089 0.228243,0.221803 0.228193,0.237138 -5.8e-5,0.01531 -0.07481,0.06648 -0.166108,0.113705 -0.40342,0.208589 -0.90701,0.561707 -1.327157,0.930586 -0.148143,0.13007 -0.239526,0.193077 -0.260902,0.179879 -0.01805,-0.0112 -0.156164,-0.126776 -0.306836,-0.256917 -1.02647,-0.886616 -2.148726,-1.398919 -3.522115,-1.607848 -0.31048,-0.04726 -0.497582,-0.05792 -1.043595,-0.05983 -0.832786,-0.0025 -1.263999,0.05434 -1.962962,0.260021 -1.807431,0.531932 -3.367747,1.822992 -4.179589,3.458332 -0.400499,0.806757 -0.608371,1.58612 -0.665005,2.493298 -0.11949,1.914158 0.588034,3.754575 1.974679,5.136535 1.401307,1.396571 3.189599,2.058348 5.245176,1.941036 1.334471,-0.07614 2.463383,-0.440949 3.481382,-1.124935 0.276913,-0.186054 0.695245,-0.521597 0.853573,-0.684643 0.06399,-0.0659 0.126894,-0.11978 0.139828,-0.11978 0.01304,0 0.130834,0.0957 0.261994,0.212648 0.329868,0.294155 0.75489,0.606865 1.123719,0.826778 0.171201,0.102071 0.323819,0.190921 0.339164,0.197446 0.03961,0.01681 -0.440841,0.481264 -0.781019,0.755098 -1.337841,1.076888 -2.961199,1.726557 -4.800392,1.921132 -0.269832,0.02854 -1.423541,0.05492 -1.630614,0.03727 z m 0.06523,-4.08347 c -0.529095,-0.05517 -0.978515,-0.188235 -1.487124,-0.44035 -1.052165,-0.521573 -1.913401,-1.522689 -2.294969,-2.667735 -0.456843,-1.370917 -0.252981,-2.912263 0.538024,-4.067819 0.674067,-0.984706 1.713384,-1.681182 2.881988,-1.931308 0.252848,-0.05409 0.350681,-0.06058 0.896917,-0.0595 0.562297,8.33e-4 0.640268,0.0067 0.940753,0.0709 1.41235,0.300129 2.555724,1.193044 3.181595,2.48466 0.348567,0.719334 0.495187,1.413672 0.460037,2.17849 -0.0471,1.02468 -0.313933,1.823991 -0.863973,2.588059 -0.207389,0.288089 -0.779273,0.855353 -1.06528,1.056684 -0.879026,0.618782 -2.045284,0.907028 -3.187968,0.787919 z m -0.587016,-2.410703 v -1.291442 h 1.134903 1.134904 v 1.291442 1.291442 h 0.587019 0.587019 v -1.291442 -1.291442 h 0.707252 0.707251 l -0.01489,-0.05867 c -0.03612,-0.142267 -1.969737,-4.832519 -1.990049,-4.827194 -0.01252,0.0033 -0.400558,0.929054 -0.86245,2.057317 -0.461886,1.128263 -0.844769,2.05636 -0.850851,2.062443 -0.0058,0.0058 -0.130083,-0.279867 -0.275573,-0.635432 -0.145488,-0.355557 -0.525726,-1.285125 -0.844985,-2.065696 -0.319252,-0.78057 -0.59088,-1.418149 -0.603612,-1.416835 -0.02113,0.0025 -1.953709,4.69042 -1.989083,4.825397 l -0.01539,0.05867 h 0.707252 0.707253 v 1.291442 1.291442 h 0.587018 0.587028 z m 10.344598,2.410703 c -0.644551,-0.06716 -1.332049,-0.303717 -1.859971,-0.639892 -0.566066,-0.360484 -1.136425,-0.952228 -1.50562,-1.562089 -0.804569,-1.329045 -0.875599,-3.060105 -0.182734,-4.453382 0.616576,-1.239876 1.808313,-2.156921 3.186245,-2.451849 0.250843,-0.05368 0.353502,-0.06066 0.88387,-0.06041 0.663965,5.57e-4 0.938889,0.03837 1.446798,0.199925 1.442614,0.458965 2.596972,1.682522 3.001283,3.181221 0.280116,1.038326 0.166574,2.27583 -0.297408,3.241464 -0.306453,0.637786 -0.842047,1.278577 -1.442281,1.725533 -0.271979,0.202523 -0.861785,0.502885 -1.203944,0.613107 -0.62141,0.200183 -1.362022,0.275615 -2.026238,0.206382 z m 1.708876,-2.410427 v -1.291168 l 1.141427,-0.0067 1.141427,-0.0067 0.0067,-0.867485 0.0067,-0.867485 h -1.14842 -1.148301 V 66.91128 65.606516 l -1.154475,0.0067 -1.154475,0.0067 -0.0067,1.297965 -0.0067,1.297966 h -1.147933 -1.14806 l 0.0067,0.867485 0.0067,0.867486 1.141427,0.0067 1.141427,0.0067 v 1.291168 1.291176 h 1.161 1.160998 z m 23.012606,2.411059 c -1.96813,-0.222342 -3.506361,-1.655911 -3.945105,-3.676689 -0.05235,-0.240874 -0.05958,-0.347943 -0.06016,-0.887048 -8.32e-4,-0.690477 0.03628,-0.952353 0.209286,-1.480508 0.492749,-1.504223 1.844153,-2.717796 3.409196,-3.061485 0.31961,-0.07023 1.014387,-0.09534 1.397612,-0.05059 0.750723,0.08766 1.495769,0.380645 2.144614,0.84337 0.278886,0.198894 0.905073,0.825696 1.100004,1.101103 0.568122,0.802646 0.804552,1.623682 0.804552,2.794001 v 0.480262 h -3.499404 -3.499398 l 0.01806,0.163061 c 0.02638,0.237754 0.155565,0.602854 0.296294,0.837379 0.144431,0.2407 0.468067,0.564668 0.699721,0.700428 0.523761,0.30697 1.180395,0.422152 1.836414,0.322123 0.628858,-0.09589 1.176202,-0.403861 1.523428,-0.857184 l 0.153551,-0.200491 h 1.07911 c 0.767705,0 1.079109,0.0083 1.079109,0.02871 0,0.04809 -0.297132,0.650876 -0.416674,0.845292 -0.696943,1.133514 -1.743824,1.847565 -3.02717,2.064765 -0.279784,0.04735 -1.01348,0.06623 -1.303083,0.03353 z m 2.894554,-5.541511 c 0,-0.03428 -0.133672,-0.360742 -0.208687,-0.509683 -0.120135,-0.238543 -0.21903,-0.377216 -0.415868,-0.583149 -0.430697,-0.450602 -0.941486,-0.660562 -1.672836,-0.687631 -0.431845,-0.01598 -0.679401,0.0208 -1.015594,0.150956 -0.393161,0.152177 -0.833227,0.49655 -1.086598,0.850301 -0.121242,0.16927 -0.299606,0.528821 -0.344199,0.693821 l -0.02646,0.09783 h 2.385114 c 1.311811,0 2.385114,-0.0058 2.385114,-0.01252 z m 6.952928,5.551737 C 76.013055,73.580056 75.053389,73.130695 74.271686,72.339232 73.921231,71.984399 73.693372,71.6639 73.454545,71.189867 73.24153,70.767066 73.10274,70.370994 73.013804,69.932059 c -0.05185,-0.255761 -0.05941,-0.369403 -0.058,-0.868252 0.0017,-0.517694 0.0084,-0.606107 0.0709,-0.901617 0.133264,-0.630589 0.386212,-1.215495 0.743675,-1.719676 0.214977,-0.303208 0.722745,-0.819979 1.02909,-1.047331 0.592186,-0.439484 1.214113,-0.713277 1.931575,-0.850327 0.187493,-0.03578 0.376992,-0.04601 0.854071,-0.0461 0.690877,-1.08e-4 0.953535,0.03712 1.48278,0.210127 0.631929,0.206574 1.156114,0.536285 1.675815,1.054055 0.499463,0.497615 0.803927,0.996022 1.032369,1.689976 0.06266,0.190215 0.113837,0.351647 0.113837,0.358737 0,0.0075 -0.484476,0.01291 -1.076629,0.01291 h -1.076623 l -0.08614,-0.144024 c -0.340753,-0.569702 -0.840724,-0.956089 -1.460205,-1.128488 -0.230414,-0.06415 -0.293738,-0.0704 -0.709564,-0.07057 -0.396065,-10e-5 -0.483495,0.0075 -0.659772,0.05858 -0.5773,0.166716 -1.035199,0.507901 -1.373755,1.023616 -0.288588,0.4396 -0.419147,0.916954 -0.418574,1.530351 8.33e-4,0.794118 0.252192,1.416834 0.772957,1.914376 0.513426,0.490527 1.094387,0.699513 1.861777,0.669732 0.943748,-0.03662 1.584315,-0.424607 1.957945,-1.185879 l 0.105629,-0.215245 h 1.070515 1.070513 l -0.01847,0.0848 c -0.01015,0.0466 -0.06498,0.219804 -0.121796,0.384821 -0.580827,1.687132 -1.913884,2.74365 -3.684018,2.919792 -0.266795,0.02655 -0.676373,0.03129 -0.915134,0.01054 z m 24.02127,-0.03629 c -1.212453,-0.09312 -2.276368,-0.640881 -3.055406,-1.573081 -0.713635,-0.853946 -1.045235,-1.80679 -1.045327,-3.003728 0,-1.344456 0.456111,-2.438294 1.398628,-3.353435 0.629581,-0.6113 1.321615,-0.971051 2.164295,-1.125092 0.41335,-0.07556 1.3285,-0.08376 1.69672,-0.01523 0.46488,0.08656 0.89956,0.252956 1.21281,0.464257 0.21291,0.143598 0.51602,0.435781 0.64212,0.618939 l 0.0983,0.142717 0.007,-0.525018 0.007,-0.525026 h 0.99088 0.99087 v 4.356996 4.356988 h -0.97783 -0.97783 l -0.007,-0.528313 -0.007,-0.528321 -0.11535,0.169586 c -0.44556,0.65502 -1.14241,0.992245 -2.20937,1.069175 -0.39705,0.02863 -0.42259,0.02854 -0.81347,-0.0017 z m 0.99561,-2.076571 c 0.4098,-0.09238 0.7684,-0.295403 1.12297,-0.635807 0.34954,-0.335568 0.57674,-0.699671 0.71087,-1.13923 0.0634,-0.207822 0.0702,-0.270165 0.0717,-0.659979 0.002,-0.370801 -0.007,-0.463033 -0.0593,-0.665289 -0.14992,-0.576201 -0.51896,-1.12352 -1.00588,-1.4918 -0.18778,-0.142025 -0.56509,-0.32912 -0.78496,-0.389223 -0.20891,-0.05708 -0.77237,-0.0778 -1.02199,-0.03752 -0.95386,0.153877 -1.768735,0.912362 -2.009908,1.870847 -0.06291,0.250044 -0.06324,0.992095 -5.57e-4,1.24099 0.116354,0.461944 0.328621,0.85096 0.642213,1.176984 0.466132,0.484619 0.929282,0.708784 1.620582,0.784348 0.15296,0.01672 0.52448,-0.01146 0.71426,-0.05434 z M 48.834155,69.102951 v -4.356996 h 0.99083 0.990837 l 0.0075,0.483403 0.0075,0.483412 0.165292,-0.19812 c 0.336193,-0.402955 0.849395,-0.726075 1.374005,-0.865088 0.240957,-0.06382 0.302783,-0.06932 0.808787,-0.07115 0.577358,-0.0025 0.751788,0.01722 1.179447,0.130847 0.686357,0.182367 1.314717,0.613721 1.751546,1.202388 l 0.138998,0.187319 0.191561,-0.254304 c 0.470048,-0.62399 1.027968,-1.021694 1.67936,-1.197105 0.226827,-0.06108 0.298615,-0.06774 0.746653,-0.0694 0.546611,-0.0017 0.742127,0.02339 1.134911,0.14731 1.225023,0.38647 1.955749,1.435673 2.111547,3.031863 0.01772,0.181211 0.02779,1.271355 0.02779,2.993801 v 2.708799 h -0.989831 -0.989841 l -0.01028,-2.432869 c -0.0112,-2.638168 -0.01332,-2.68223 -0.162421,-3.270047 -0.170485,-0.672079 -0.493538,-1.022984 -1.082796,-1.176153 -0.232427,-0.06041 -0.785064,-0.06041 -1.0175,0 -0.892274,0.231937 -1.26221,0.927281 -1.355673,2.548169 -0.01448,0.251117 -0.02655,1.328295 -0.02671,2.393734 l -5.58e-4,1.937166 h -0.991421 -0.991412 l -5.58e-4,-1.884984 c -5.57e-4,-2.602905 -0.03245,-3.226213 -0.19673,-3.851625 -0.08863,-0.337384 -0.196596,-0.549906 -0.377774,-0.743591 -0.294263,-0.314566 -0.644269,-0.438826 -1.238294,-0.439634 -0.590339,-8.32e-4 -0.937974,0.123007 -1.268483,0.451807 -0.28853,0.287025 -0.461644,0.712628 -0.577451,1.419656 -0.05318,0.324677 -0.056,0.439767 -0.06499,2.693772 l -0.0094,2.354599 h -0.976943 -0.976975 v -4.356985 z m 34.308063,0 v -4.356996 h 0.978365 0.978365 v 4.356996 4.356988 h -0.978365 -0.978365 z m 25.176632,0 v -4.356996 h 0.93923 0.93924 v 0.49501 0.495012 l 0.2935,-0.296683 c 0.16681,-0.168604 0.37497,-0.348925 0.48221,-0.417708 0.3691,-0.236738 0.77766,-0.370734 1.21363,-0.398036 l 0.25438,-0.01589 v 0.941295 0.941293 l -0.15002,0.01739 c -0.96536,0.112032 -1.51786,0.443553 -1.75014,1.050126 -0.20308,0.530302 -0.21265,0.686866 -0.2129,3.482364 l -1.4e-4,2.41983 h -1.00448 -1.00446 z M 83.142218,62.867485 v -0.965317 h 0.978365 0.978365 v 0.965317 0.965326 h -0.978365 -0.978365 z"
       id="path721" />
  </g>
</svg>
