<?xml version="1.0" encoding="UTF-8" standalone="no"?>
<!-- Created with Inkscape (http://www.inkscape.org/) -->

<svg
   width="70.911423mm"
   height="32.583092mm"
   viewBox="0 0 70.911423 32.583092"
   version="1.1"
   id="svg115"
   inkscape:version="1.1.2 (0a00cf5339, 2022-02-04)"
   sodipodi:docname="16.html"
   xmlns:inkscape="http://www.inkscape.org/namespaces/inkscape"
   xmlns:sodipodi="http://sodipodi.sourceforge.net/DTD/sodipodi-0.dtd"
   xmlns="http://www.w3.org/2000/svg"
   xmlns:svg="http://www.w3.org/2000/svg">
  <sodipodi:namedview
     id="namedview117"
     pagecolor="#ffffff"
     bordercolor="#666666"
     borderopacity="1.0"
     inkscape:pageshadow="2"
     inkscape:pageopacity="0.0"
     inkscape:pagecheckerboard="0"
     inkscape:document-units="mm"
     showgrid="false"
     inkscape:zoom="0.69664703"
     inkscape:cx="259.09821"
     inkscape:cy="513.17236"
     inkscape:window-width="1920"
     inkscape:window-height="1016"
     inkscape:window-x="0"
     inkscape:window-y="0"
     inkscape:window-maximized="1"
     inkscape:current-layer="layer1" />
  <defs
     id="defs112" />
  <g
     inkscape:label="Capa 1"
     inkscape:groupmode="layer"
     id="layer1"
     transform="translate(-36.364192,-12.581805)">
    <g
       id="g3033"
       transform="matrix(0.29251472,0,0,0.29251472,15.392972,-2.8501324)"
       style="fill:#ffffff">
      <path
         id="path1030"
         style="fill:#ffffff;stroke-width:0.264583"
         d="m 171.72737,134.87581 c -3.05945,-10.31778 -3.77234,-22.57456 -1.83426,-31.53657 1.56436,-7.233843 4.64134,-12.941877 9.72463,-18.039909 6.78881,-6.808491 15.98439,-10.769078 29.12929,-12.546148 2.0218,-0.273329 6.90439,-0.491334 14.55208,-0.649742 11.73164,-0.243 16.50834,-0.49929 22.62187,-1.21376 19.76605,-2.309995 35.6758,-8.145163 44.06742,-16.162462 l 2.06314,-1.971115 0.56353,1.273133 c 1.09232,2.46776 3.4904,9.777226 4.23709,12.9148 1.44604,6.076312 1.72091,8.485143 1.72091,15.08125 0,5.410166 -0.0685,6.391299 -0.61711,8.842053 -3.76861,16.83443 -16.43384,25.527 -41.06476,28.18413 -6.92322,0.74686 -12.34234,0.96189 -30.41709,1.20693 -21.18191,0.28717 -26.5243,0.64766 -33.22118,2.24164 -7.98011,1.89942 -14.84089,6.40024 -18.7736,12.31587 -1.61547,2.43003 -2.04639,2.43941 -2.75196,0.0599 z m 35.10143,-10.29554 c 0.1819,-0.0734 0.47956,-0.0734 0.66146,0 0.1819,0.0734 0.0331,0.13345 -0.33073,0.13345 -0.3638,0 -0.51263,-0.06 -0.33073,-0.13345 z m 5.29475,-0.27649 c 0.32912,-0.0633 0.80537,-0.0609 1.05833,0.005 0.25297,0.0662 -0.0163,0.11801 -0.59839,0.11507 -0.58209,-0.003 -0.78906,-0.0571 -0.45994,-0.12041 z m 33.06983,-0.26417 c 0.32742,-0.0631 0.8632,-0.0631 1.19063,0 0.32742,0.0631 0.0595,0.11466 -0.59532,0.11466 -0.65484,0 -0.92273,-0.0516 -0.59531,-0.11466 z m 6.36654,-0.2586 c 0.19099,-0.0764 0.4192,-0.067 0.50712,0.0209 0.0879,0.0879 -0.0684,0.15045 -0.34727,0.13896 -0.30823,-0.0127 -0.37092,-0.0754 -0.15985,-0.15985 z m 55.10383,-44.423604 c 0.0127,-0.308226 0.0754,-0.370919 0.15985,-0.159853 0.0764,0.190995 0.067,0.419198 -0.0209,0.507119 -0.0879,0.08792 -0.15045,-0.06835 -0.13896,-0.347266 z m 0.33051,-6.327952 c 10e-4,-1.018646 0.049,-1.402944 0.10627,-0.853995 0.0573,0.548949 0.0563,1.382387 -0.002,1.852083 -0.0585,0.469698 -0.10533,0.02056 -0.10416,-0.998088 z m -0.33051,-6.636632 c 0.0127,-0.308225 0.0754,-0.37092 0.15985,-0.159853 0.0764,0.190996 0.067,0.419199 -0.0209,0.507118 -0.0879,0.08792 -0.15045,-0.06835 -0.13896,-0.347265 z M 105.42724,163.89078 c -3.83273,-0.53246 -3.97087,-0.58294 -3.94684,-1.44244 0.0121,-0.43091 0.26661,-1.67644 0.56569,-2.76784 0.63094,-2.30243 0.51968,-2.26357 3.88649,-1.35718 3.24548,0.87373 4.97895,0.66205 6.65916,-0.8132 0.896,-0.7867 1.85774,-2.25703 1.62715,-2.48763 -0.061,-0.061 -0.69294,0.14655 -1.40431,0.46122 -2.64612,1.1705 -6.47356,0.90578 -8.03838,-0.55598 -2.48482,-2.32117 -1.24274,-8.16642 2.60201,-12.24511 3.09872,-3.28728 6.18527,-4.65353 11.05473,-4.89335 2.87845,-0.14176 8.47028,0.44446 9.33452,0.97859 0.2597,0.16051 -0.16136,1.43221 -1.76679,5.33616 -1.15926,2.81899 -2.91349,7.2641 -3.89829,9.87802 -0.9848,2.61393 -2.05684,5.17443 -2.38231,5.69002 -0.7031,1.11377 -2.43549,2.72533 -3.54828,3.30077 -2.10121,1.08658 -6.70156,1.47961 -10.74455,0.91795 z M 114.66419,150.17 c 0.52846,-0.32661 1.2512,-0.97452 1.6061,-1.43981 0.87671,-1.14943 2.06417,-3.79566 1.85507,-4.13398 -0.0934,-0.15106 -0.0149,-0.24194 0.17437,-0.20196 0.18926,0.04 0.38731,-0.21294 0.44011,-0.56206 0.0939,-0.62092 0.0635,-0.6314 -1.39526,-0.48085 -2.94843,0.30431 -5.3192,2.47522 -6.06421,5.55297 -0.13785,0.56949 -0.0355,0.87521 0.4586,1.36926 0.76093,0.76093 1.57295,0.73218 2.92522,-0.10357 z m 106.00998,6.44574 c 0.0127,-0.30823 0.0754,-0.37092 0.15985,-0.15985 0.0764,0.19099 0.067,0.4192 -0.0209,0.50712 -0.0879,0.0879 -0.15046,-0.0684 -0.13897,-0.34727 z m -119.03181,-0.7717 c 0.005,-0.43656 0.0647,-0.58313 0.13178,-0.3257 0.0671,0.25744 0.0627,0.61462 -0.01,0.79375 -0.0725,0.17914 -0.12737,-0.0315 -0.12197,-0.46805 z m 46.3828,0.48668 c -3.60643,-0.77281 -5.2611,-2.5521 -5.25061,-5.64606 0.014,-4.12686 2.62163,-8.57726 6.2773,-10.7133 4.58326,-2.67805 10.39656,-2.99638 13.83991,-0.75787 0.60955,0.39626 1.09027,0.7879 1.06827,0.87031 -0.022,0.0824 0.13412,0.44748 0.34693,0.81128 0.26252,0.44876 0.38694,1.43358 0.38694,3.06266 0,2.29064 -0.0515,2.50514 -1.11872,4.65887 -1.90979,3.85411 -5.23726,6.51022 -9.37895,7.48662 -1.55171,0.36581 -4.94228,0.4908 -6.17107,0.22749 z m 5.68375,-5.9082 c 1.74659,-0.89104 3.53651,-3.79388 3.39309,-5.50283 -0.24191,-2.88247 -4.34141,-1.6266 -5.95411,1.82403 -0.9546,2.04252 -1.00511,2.77533 -0.24375,3.53669 0.80643,0.80643 1.4397,0.83852 2.80477,0.14211 z m 28.3152,5.7351 c -0.80036,-0.188 -1.82706,-0.53908 -2.28156,-0.78017 -0.45449,-0.24109 -0.88357,-0.38113 -0.9535,-0.3112 -0.22179,0.22179 -2.3458,-2.25919 -2.73824,-3.19844 -0.81649,-1.95413 -0.1496,-6.72857 1.35253,-9.68308 2.49461,-4.90663 7.49445,-8.60157 13.26267,-9.80126 2.18246,-0.45392 3.17984,-0.51624 6.17477,-0.38584 1.96453,0.0855 3.84861,0.23365 4.18683,0.32915 0.69852,0.19722 0.70333,0.15058 -0.38812,3.75607 l -0.66575,2.19922 -1.50033,-0.21485 c -0.82519,-0.11817 -2.5719,-0.2107 -3.88159,-0.20564 -2.11009,0.008 -2.58487,0.10462 -4.16944,0.84705 -4.44645,2.08334 -7.61217,7.39238 -5.93463,9.95262 1.43186,2.1853 3.97643,2.44778 10.30251,1.0627 1.02539,-0.22451 0.95302,0.11144 -0.72737,3.37651 -1.2072,2.34562 -1.56904,2.83983 -2.17911,2.97618 -1.63857,0.36623 -8.40861,0.42184 -9.85967,0.081 z m 21.82813,0.1731 c -3.60752,-0.77305 -5.26237,-2.55306 -5.24902,-5.64606 0.0298,-6.89581 5.89077,-12.45475 13.59257,-12.89202 1.87685,-0.10656 2.89294,-0.0352 3.96875,0.27857 1.37914,0.40228 3.7072,1.69568 3.62257,2.01259 -0.022,0.0824 0.13412,0.44748 0.34694,0.81128 0.26251,0.44876 0.38694,1.43358 0.38694,3.06266 0,2.29064 -0.0515,2.50514 -1.11873,4.65887 -1.90979,3.85411 -5.23726,6.51022 -9.37895,7.48662 -1.55171,0.36581 -4.94228,0.4908 -6.17107,0.22749 z m 5.68375,-5.9082 c 1.74659,-0.89104 3.53651,-3.79388 3.39309,-5.50283 -0.24191,-2.88247 -4.34141,-1.6266 -5.95411,1.82403 -0.9546,2.04252 -1.00511,2.77533 -0.24375,3.53669 0.80643,0.80643 1.4397,0.83852 2.80477,0.14211 z m 38.85435,5.91363 c -0.38811,-0.0694 -1.02878,-0.42562 -1.42372,-0.79164 -0.6715,-0.62232 -0.70932,-0.77468 -0.58296,-2.34879 0.0743,-0.92582 0.39829,-2.2565 0.71995,-2.95708 0.55476,-1.20829 0.70561,-1.56258 1.33092,-3.12585 0.66293,-1.65734 0.88239,-2.16323 1.22285,-2.81895 0.51608,-0.99393 0.49693,-1.01751 -0.82598,-1.01751 -0.68878,0 -1.19062,-0.12255 -1.19062,-0.29074 0,-0.27091 0.56933,-1.70026 1.04693,-2.62836 0.11478,-0.22306 0.29283,-0.78861 0.39565,-1.25677 0.18153,-0.82648 0.22725,-0.85121 1.57338,-0.85121 h 1.38643 l 0.76373,-1.71235 0.76373,-1.71235 1.46685,-0.28148 c 0.80676,-0.15481 2.28511,-0.45581 3.28523,-0.6689 1.00012,-0.21308 1.98238,-0.38742 2.18281,-0.38742 0.40356,0 0.50012,1.07001 0.13251,1.46843 -0.12754,0.13825 -0.48652,0.9452 -0.79771,1.79323 l -0.5658,1.54187 0.99615,-0.0461 c 1.80698,-0.0837 2.45136,0.001 2.45136,0.32253 0,0.17458 -0.37113,1.30074 -0.82474,2.50258 l -0.82473,2.18516 -1.88185,0.0771 -1.88184,0.0771 -1.28225,3.41005 c -1.13962,3.03071 -1.23812,3.45419 -0.8855,3.80681 0.33007,0.33007 0.59773,0.34615 1.59245,0.0957 1.50011,-0.37773 1.75512,-0.3769 1.75512,0.006 0,0.74263 -2.53584,5.2291 -3.03889,5.37647 -0.71924,0.2107 -6.17639,0.39066 -7.05946,0.23279 z m 33.24939,-0.005 c -3.60643,-0.77281 -5.26109,-2.5521 -5.2506,-5.64605 0.014,-4.12687 2.62163,-8.57727 6.2773,-10.71331 4.58326,-2.67804 10.39656,-2.99638 13.83991,-0.75787 0.60955,0.39626 1.09027,0.7879 1.06827,0.87031 -0.022,0.0824 0.13412,0.44748 0.34693,0.81128 0.26252,0.44876 0.38694,1.43358 0.38694,3.06266 0,2.29064 -0.0515,2.50514 -1.11872,4.65887 -1.90979,3.85411 -5.23726,6.51022 -9.37895,7.48662 -1.55171,0.36581 -4.94229,0.49081 -6.17108,0.22749 z m 5.68376,-5.9082 c 1.74659,-0.89104 3.5365,-3.79388 3.39309,-5.50282 -0.24191,-2.88248 -4.34141,-1.62661 -5.95411,1.82402 -0.95461,2.04252 -1.00511,2.77533 -0.24375,3.53669 0.80643,0.80643 1.4397,0.83852 2.80477,0.14211 z m -215.623437,4.56162 c 0.0067,-0.92003 0.604526,-1.67524 8.221228,-10.38489 4.517726,-5.16599 8.711448,-10.01215 9.319381,-10.76925 l 1.105334,-1.37655 4.659823,-0.0125 4.659823,-0.0125 0.173244,9.59115 c 0.09528,5.27513 0.244864,10.57341 0.332404,11.77396 l 0.15917,2.18281 h -4.251581 -4.251581 l 0.159638,-3.175 0.159637,-3.175 h -4.004596 -4.004595 l -2.577107,3.175 -2.577106,3.175 H 75.33802 71.692872 Z m 20.869979,-13.3159 c 0.0062,-1.29836 -0.07502,-2.35397 -0.180383,-2.34579 -0.105363,0.008 -1.055015,1.07664 -2.110337,2.37438 l -1.918767,2.35951 2.09915,-0.0137 2.099151,-0.0137 0.01119,-2.36066 z m 32.833248,14.04718 c 0,-0.15149 0.13765,-0.54171 0.30589,-0.86716 0.61725,-1.194 0.75244,-1.51655 0.75244,-1.79514 0,-0.15651 0.28226,-0.90226 0.62725,-1.65724 0.34499,-0.75497 0.83101,-1.90845 1.08005,-2.5633 0.24905,-0.65484 0.60713,-1.54781 0.79574,-1.98437 0.18861,-0.43657 0.55206,-1.38907 0.80767,-2.11667 0.25561,-0.7276 0.67369,-1.79917 0.92907,-2.38125 0.25538,-0.58208 0.6778,-1.74294 0.93872,-2.57969 l 0.47439,-1.52135 h 3.50151 c 2.22053,0 3.53554,0.1021 3.59454,0.27909 0.0578,0.17345 0.5419,0.0755 1.27882,-0.25877 1.23516,-0.56026 3.80949,-0.74882 4.08726,-0.29937 0.085,0.13757 -0.23537,1.56808 -0.71198,3.17892 l -0.86658,2.92879 -1.10464,-0.16327 c -2.44247,-0.36102 -4.71899,1.27802 -6.1818,4.45074 -0.48749,1.05732 -1.32621,3.17257 -1.86381,4.70054 l -0.97747,2.77812 -3.73353,0.0734 c -2.45774,0.0483 -3.73354,-0.0207 -3.73354,-0.20203 z m 94.19485,-0.20211 c 0.002,-0.25466 0.29941,-0.98119 0.66146,-1.6145 0.36205,-0.63332 0.65827,-1.25808 0.65827,-1.38836 0,-0.13028 0.36677,-1.04086 0.81505,-2.02352 0.8666,-1.89966 1.23233,-2.74566 1.6016,-3.70487 0.40938,-1.06337 0.81573,-2.04168 1.02016,-2.45608 0.11004,-0.22306 0.2839,-0.78724 0.38636,-1.25374 0.10246,-0.46649 0.29619,-0.9161 0.43052,-0.99911 0.13432,-0.083 0.24827,-0.35228 0.2532,-0.59835 0.005,-0.24607 0.23903,-0.92366 0.52019,-1.50574 0.28117,-0.58208 0.51526,-1.20716 0.52019,-1.38906 0.007,-0.24897 0.95745,-0.33073 3.84544,-0.33073 3.34732,0 3.83646,0.0542 3.83646,0.42518 0,0.3033 0.13272,0.36893 0.46302,0.22895 2.18776,-0.92722 2.73902,-1.03448 5.35781,-1.0425 3.28873,-0.0101 4.302,0.38401 4.94513,1.92325 0.6268,1.50014 0.30537,2.96217 -1.85413,8.43377 -1.08108,2.73917 -2.18723,5.60539 -2.45811,6.36937 l -0.49251,1.38906 h -3.77436 c -2.73138,0 -3.77435,-0.0866 -3.77435,-0.31334 0,-0.17233 0.22348,-0.79741 0.49663,-1.38906 0.27315,-0.59165 0.69965,-1.6115 0.94777,-2.26635 0.24812,-0.65484 0.63208,-1.60734 0.85325,-2.11666 0.75722,-1.74375 0.85136,-1.98645 1.26089,-3.2504 0.52313,-1.61454 0.51547,-1.864 -0.0737,-2.39714 -0.62998,-0.57013 -1.16483,-0.5524 -2.40382,0.0797 -1.87535,0.95673 -3.16509,3.05627 -5.33009,8.67671 l -1.14657,2.97656 h -3.7845 c -3.42911,0 -3.7842,-0.0435 -3.78131,-0.46302 z m 39.41973,0.20211 c 0,-0.15149 0.13765,-0.54171 0.30589,-0.86716 0.61725,-1.194 0.75244,-1.51655 0.75244,-1.79514 0,-0.15651 0.28226,-0.90226 0.62725,-1.65724 0.34499,-0.75497 0.83101,-1.90845 1.08005,-2.5633 0.24905,-0.65484 0.60713,-1.54781 0.79574,-1.98437 0.18861,-0.43657 0.55206,-1.38907 0.80767,-2.11667 0.25561,-0.7276 0.67369,-1.79917 0.92907,-2.38125 0.25538,-0.58208 0.6778,-1.74294 0.93872,-2.57969 l 0.47439,-1.52135 h 3.50151 c 2.22053,0 3.53554,0.1021 3.59454,0.27909 0.0578,0.17345 0.5419,0.0755 1.27882,-0.25877 1.23516,-0.56026 3.80949,-0.74882 4.08726,-0.29937 0.085,0.13757 -0.23537,1.56808 -0.71199,3.17892 l -0.86657,2.92879 -1.10464,-0.16327 c -2.44247,-0.36102 -4.71899,1.27802 -6.1818,4.45074 -0.48749,1.05732 -1.32621,3.17257 -1.86381,4.70054 l -0.97747,2.77812 -3.73353,0.0734 c -2.45774,0.0483 -3.73354,-0.0207 -3.73354,-0.20203 z m 38.36458,-0.007 c 0,-0.14749 0.10155,-0.47491 0.22565,-0.7276 0.50287,-1.02383 1.09457,-2.43715 2.02006,-4.82506 0.53581,-1.38244 1.15482,-2.93026 1.3756,-3.43958 0.49263,-1.13652 0.87488,-2.06057 1.17659,-2.84427 0.60726,-1.57738 1.31585,-3.30573 1.54933,-3.779 0.11004,-0.22306 0.2839,-0.78724 0.38636,-1.25373 0.10246,-0.4665 0.29619,-0.9161 0.43052,-0.99912 0.13432,-0.083 0.24496,-0.35228 0.24585,-0.59835 8e-4,-0.24607 0.16928,-0.76874 0.37418,-1.16149 0.20489,-0.39275 0.56467,-1.37501 0.79951,-2.18281 l 0.42697,-1.46873 h 3.85991 3.85991 l -0.14584,0.59531 c -0.0802,0.32742 -1.56338,4.10766 -3.29593,8.40052 -1.73255,4.29287 -3.72044,9.32326 -4.41753,11.17865 l -1.26744,3.37344 h -3.80185 c -2.39211,10e-6 -3.80185,-0.0994 -3.80185,-0.26817 z m -195.98417,-9.25682 c 0,-0.65484 0.0516,-0.92273 0.11465,-0.59531 0.0631,0.32742 0.0631,0.8632 0,1.19062 -0.0631,0.32742 -0.11465,0.0595 -0.11465,-0.59531 z m 86.97584,-4.36562 c 0.34178,-0.36381 0.68094,-0.66146 0.7537,-0.66146 0.0728,0 -0.14734,0.29765 -0.48911,0.66146 -0.34178,0.3638 -0.68094,0.66145 -0.7537,0.66145 -0.0728,0 0.14734,-0.29765 0.48911,-0.66145 z m -23.58166,-1.38907 c -0.32911,-0.41964 -0.31975,-0.429 0.0999,-0.0999 0.44073,0.34565 0.58088,0.56292 0.36312,0.56292 -0.0549,0 -0.2633,-0.20836 -0.46302,-0.46302 z m 55.82708,0 c -0.32911,-0.41964 -0.31975,-0.429 0.0999,-0.0999 0.44073,0.34565 0.58088,0.56292 0.36312,0.56292 -0.0549,0 -0.2633,-0.20836 -0.46302,-0.46302 z m 77.78749,0 c -0.3291,-0.41964 -0.31974,-0.429 0.0999,-0.0999 0.44073,0.34565 0.58089,0.56292 0.36313,0.56292 -0.0549,0 -0.2633,-0.20836 -0.46303,-0.46302 z m -152.34535,-1.27882 c 0.0127,-0.30822 0.0754,-0.37092 0.15985,-0.15985 0.0764,0.191 0.067,0.4192 -0.0209,0.50712 -0.0879,0.0879 -0.15045,-0.0683 -0.13896,-0.34727 z m 133.61458,0 c 0.0127,-0.30822 0.0754,-0.37092 0.15985,-0.15985 0.0764,0.191 0.067,0.4192 -0.0209,0.50712 -0.0879,0.0879 -0.15045,-0.0683 -0.13896,-0.34727 z m -76.72917,-5.55625 c 0.0127,-0.30822 0.0754,-0.37092 0.15985,-0.15985 0.0764,0.191 0.067,0.4192 -0.0209,0.50712 -0.0879,0.0879 -0.15045,-0.0684 -0.13896,-0.34727 z m 2.31076,-9.02223 c 0.19099,-0.0764 0.4192,-0.067 0.50711,0.0209 0.0879,0.0879 -0.0683,0.15045 -0.34726,0.13897 -0.30823,-0.0127 -0.37092,-0.0754 -0.15985,-0.15986 z m 3.82495,-0.2672 c 0.25743,-0.0671 0.61462,-0.0627 0.79375,0.01 0.17913,0.0725 -0.0315,0.12737 -0.46805,0.12197 -0.43657,-0.005 -0.58313,-0.0647 -0.3257,-0.13177 z m 14.0361,-0.27947 c 3.46614,-0.0418 9.06208,-0.0418 12.43542,9e-5 3.37334,0.0418 0.53741,0.0761 -6.30207,0.076 -6.83948,-5e-5 -9.59949,-0.0343 -6.13335,-0.0761 z m 25.64637,-0.24873 c 0.25466,-0.0666 0.67138,-0.0666 0.92604,0 0.25466,0.0665 0.0463,0.12101 -0.46302,0.12101 -0.50933,0 -0.71769,-0.0545 -0.46302,-0.12101 z m 4.91132,-0.26293 c 0.191,-0.0764 0.4192,-0.067 0.50712,0.0209 0.0879,0.0879 -0.0684,0.15045 -0.34726,0.13896 -0.30823,-0.0127 -0.37092,-0.0754 -0.15986,-0.15985 z m 3.175,-0.26459 c 0.191,-0.0764 0.4192,-0.067 0.50712,0.0209 0.0879,0.0879 -0.0684,0.15046 -0.34726,0.13897 -0.30823,-0.0127 -0.37092,-0.0754 -0.15986,-0.15985 z m -88.03575,-2.35485 c 0.0127,-0.30822 0.0754,-0.37092 0.15986,-0.15985 0.0764,0.19099 0.067,0.4192 -0.0209,0.50712 -0.0879,0.0879 -0.15046,-0.0684 -0.13897,-0.34727 z m -0.22408,-3.54982 c 0,-0.50933 0.0544,-0.71769 0.121,-0.46302 0.0666,0.25466 0.0666,0.67138 0,0.92604 -0.0666,0.25466 -0.121,0.0463 -0.121,-0.46302 z m -0.01,-5.95313 c 0.005,-0.43656 0.0647,-0.58312 0.13177,-0.32569 0.0671,0.25743 0.0627,0.61462 -0.01,0.79375 -0.0725,0.17913 -0.12736,-0.0315 -0.12197,-0.46806 z m 124.43489,-0.92604 c 0.26339,-0.29104 0.53842,-0.52917 0.61118,-0.52917 0.0728,0 -0.0832,0.23813 -0.3466,0.52917 -0.26339,0.29104 -0.53842,0.52917 -0.61118,0.52917 -0.0728,0 0.0832,-0.23813 0.3466,-0.52917 z m 2.77812,-2.74573 c 0,-0.0549 0.20836,-0.2633 0.46302,-0.46302 0.41965,-0.32911 0.42901,-0.31975 0.0999,0.0999 -0.34565,0.44073 -0.56292,0.58089 -0.56292,0.36312 z M 177.65849,86.920079 c 0.26339,-0.291042 0.53842,-0.529167 0.61118,-0.529167 0.0728,0 -0.0832,0.238125 -0.3466,0.529167 -0.26339,0.291042 -0.53842,0.529167 -0.61118,0.529167 -0.0728,0 0.0832,-0.238125 0.3466,-0.529167 z m 3.04271,-3.010313 c 0,-0.05494 0.20835,-0.2633 0.46302,-0.463021 0.41964,-0.329107 0.429,-0.319749 0.0999,0.0999 -0.34565,0.44073 -0.56292,0.580888 -0.56292,0.363125 z m 126.24802,-6.514687 c 0,-0.363802 0.06,-0.51263 0.13345,-0.330729 0.0734,0.181901 0.0734,0.479557 0,0.661458 -0.0734,0.181901 -0.13345,0.03307 -0.13345,-0.330729 z M 212.137,72.187255 c 0.191,-0.07643 0.4192,-0.06703 0.50712,0.02089 0.0879,0.08792 -0.0684,0.150453 -0.34727,0.138964 -0.30822,-0.0127 -0.37091,-0.07539 -0.15985,-0.159854 z m 4.08451,-0.266227 c 0.25466,-0.06655 0.67138,-0.06655 0.92604,0 0.25466,0.06655 0.0463,0.121 -0.46302,0.121 -0.50933,0 -0.71768,-0.05445 -0.46302,-0.121 z m 16.66875,-0.264584 c 0.25466,-0.06655 0.67138,-0.06655 0.92604,0 0.25466,0.06655 0.0463,0.121 -0.46302,0.121 -0.50933,0 -0.71769,-0.05445 -0.46302,-0.121 z m 5.15937,-0.257427 c 0.1819,-0.0734 0.47956,-0.0734 0.66146,0 0.1819,0.0734 0.0331,0.133452 -0.33073,0.133452 -0.3638,0 -0.51263,-0.06005 -0.33073,-0.133452 z m 3.45612,-0.270096 c 0.191,-0.07643 0.4192,-0.06703 0.50712,0.02089 0.0879,0.08792 -0.0683,0.150453 -0.34727,0.138965 -0.30822,-0.0127 -0.37092,-0.07539 -0.15985,-0.159855 z m 65.45327,-2.597384 c 0.005,-0.436563 0.0647,-0.583125 0.13177,-0.325694 0.0671,0.257431 0.0627,0.614619 -0.01,0.79375 -0.0725,0.179132 -0.12735,-0.03149 -0.12196,-0.468056 z m -0.29527,-3.726215 c 0.0127,-0.308225 0.0754,-0.37092 0.15985,-0.159853 0.0764,0.190996 0.067,0.419199 -0.0209,0.507118 -0.0879,0.08792 -0.15045,-0.06835 -0.13896,-0.347265 z m -17.21881,-9.767536 c 0.34178,-0.363802 0.68094,-0.661458 0.7537,-0.661458 0.0728,0 -0.14734,0.297656 -0.48911,0.661458 -0.34178,0.363803 -0.68094,0.661459 -0.7537,0.661459 -0.0728,0 0.14734,-0.297656 0.48911,-0.661459 z m 1.71979,-1.719791 c 0.26339,-0.291042 0.53843,-0.529167 0.61119,-0.529167 0.0728,0 -0.0832,0.238125 -0.3466,0.529167 -0.26339,0.291041 -0.53843,0.529166 -0.61119,0.529166 -0.0728,0 0.0832,-0.238125 0.3466,-0.529166 z" />
      <g
         id="path1026"
         style="fill:#ffffff;stroke:#000000">
        <path
           style="color:#000000;fill:#ffffff;stroke:none;-inkscape-stroke:none"
           d="m 305.86719,56.005859 -2.89258,1.802735 c -1.1302,0.704572 -3.27912,1.902452 -4.70899,2.623047 -0.7292,0.367485 -1.40145,0.710535 -1.89843,0.966796 -0.24849,0.128131 -0.45136,0.233874 -0.59961,0.3125 -0.0741,0.03931 -0.13413,0.0713 -0.18164,0.09766 -0.0238,0.01318 -0.0445,0.02411 -0.0664,0.03711 -0.0219,0.013 -0.003,-0.01894 -0.12891,0.09375 -3.4e-4,3.12e-4 -0.13837,0.169403 -0.13867,0.169922 -2.9e-4,5.19e-4 -0.0436,0.09016 -0.0547,0.123047 -0.0222,0.06577 -0.0272,0.106501 -0.0312,0.138672 -0.008,0.06434 -0.007,0.09478 -0.006,0.123047 0.002,0.05654 0.007,0.09311 0.0117,0.132812 0.0102,0.07941 0.0251,0.166031 0.0449,0.273438 0.0397,0.214812 0.10034,0.504429 0.17773,0.859375 0.15478,0.70989 0.37729,1.671392 0.63281,2.720703 1.59689,6.557558 1.86328,8.780025 1.86328,15.544922 0,5.404401 -0.0588,6.268686 -0.60156,8.693359 -1.85417,8.282592 -5.84674,14.477376 -12.42773,18.994136 -6.581,4.51676 -15.79403,7.33877 -28.04297,8.66016 -6.8981,0.74414 -12.28123,0.9575 -30.35352,1.20312 -18.24376,0.24795 -22.10071,0.43034 -28.39843,1.33985 -8.09673,1.16931 -14.08248,3.63017 -19.09961,7.89648 -1.98327,1.68647 -4.26095,4.27368 -5.47266,6.23437 -0.22368,0.36194 -0.4057,0.68914 -0.53125,0.95313 -0.0628,0.13199 -0.11143,0.2392 -0.15039,0.37695 -0.0195,0.0689 -0.0499,0.13301 -0.0371,0.3086 0.006,0.0878 0.0216,0.22511 0.14648,0.38672 0.12488,0.1616 0.3851,0.27148 0.55469,0.27148 0.2766,0 0.29918,-0.0594 0.36133,-0.0898 0.0622,-0.0304 0.1105,-0.0603 0.16406,-0.0937 0.10712,-0.0668 0.22515,-0.1477 0.35938,-0.2461 0.26846,-0.19678 0.59891,-0.45782 0.9414,-0.74609 4.82795,-4.06345 12.3594,-7.54932 20.09766,-9.25977 7.27565,-1.6082 13.47888,-1.993 32.5293,-2 15.27819,-0.005 23.61837,-0.2609 30.16797,-0.93359 17.09779,-1.75607 28.75916,-6.25352 36.875,-14.33789 6.48393,-6.45878 10.16661,-14.44777 12.00195,-25.916013 0.48234,-3.013927 0.60562,-8.387365 0.47266,-13.607422 -0.13297,-5.220057 -0.50201,-10.187405 -1.14649,-12.535156 z m -0.85352,2.140625 c 0.52669,2.062632 0.93938,6.938134 1.06836,12.001953 0.13176,5.172935 -0.008,10.563433 -0.45508,13.357422 -1.80623,11.286389 -5.34705,18.918261 -11.61718,25.164061 -7.83251,7.80214 -19.12727,12.2089 -36.05274,13.94727 -6.46743,0.66425 -14.76431,0.92046 -30.02734,0.92578 -19.06879,0.007 -25.43286,0.39747 -32.82422,2.03125 -7.19307,1.58994 -14.07294,4.67599 -19.08985,8.4082 1.15817,-1.47105 2.53327,-3.02118 3.83594,-4.1289 4.80815,-4.08861 10.4858,-6.44152 18.41016,-7.58594 6.2457,-0.90199 9.98328,-1.07831 28.2207,-1.32617 18.0794,-0.24572 23.53659,-0.46165 30.48242,-1.21094 12.38196,-1.33574 21.81648,-4.19017 28.66797,-8.89258 6.85149,-4.70241 11.07385,-11.270444 12.98828,-19.822265 0.55447,-2.47683 0.63477,-3.574315 0.63477,-8.990234 0,-6.802621 -0.29649,-9.27281 -1.90234,-15.867188 -0.25337,-1.04044 -0.47374,-1.995666 -0.625,-2.689453 -0.0601,-0.27567 -0.0996,-0.470846 -0.13477,-0.650391 0.12082,-0.06327 0.23311,-0.120772 0.40039,-0.207031 0.49149,-0.253431 1.16071,-0.595062 1.88672,-0.960937 1.48053,-0.746128 3.61827,-1.93667 4.81641,-2.683594 z"
           id="path2799" />
        <path
           style="color:#000000;fill:#ffffff;stroke:none;-inkscape-stroke:none"
           d="m 306.17187,55.226562 -0.56835,0.355469 -2.89258,1.802735 c -1.10465,0.688642 -3.25913,1.888629 -4.66992,2.599609 -0.73059,0.368184 -1.40368,0.711618 -1.90235,0.96875 -0.24956,0.128682 -0.45435,0.236258 -0.60547,0.316406 -0.0745,0.03955 -0.13576,0.07178 -0.18945,0.101563 -0.0174,0.0096 -0.0432,0.02283 -0.0742,0.04102 -0.003,0.0015 -0.003,0.0023 -0.006,0.0039 -0.005,0.0022 -0.01,0.0018 -0.0137,0.0039 -0.0966,0.05426 -0.12218,0.08277 -0.19336,0.146484 l -0.002,0.002 -0.002,0.002 c -3.4e-4,3.12e-4 -0.23407,0.288544 -0.23437,0.289063 l -0.002,0.0039 v 0.002 c -1.5e-4,2.6e-4 -0.0266,0.05258 -0.041,0.08398 -0.0145,0.03141 -0.0282,0.05033 -0.0527,0.123047 -0.0349,0.103482 -0.0488,0.204808 -0.0527,0.236328 -0.011,0.08857 -0.0108,0.173953 -0.01,0.203125 0.003,0.07835 0.0116,0.139641 0.0156,0.173828 v 0.002 0.0039 c 0.0122,0.09487 0.0285,0.188268 0.0488,0.298828 v 0.002 c 0.0416,0.225311 0.10377,0.51786 0.18164,0.875 0.15601,0.715526 0.37842,1.679725 0.63477,2.732422 1.59376,6.544739 1.8496,8.674017 1.8496,15.425782 0,5.400769 -0.0509,6.176518 -0.58984,8.583984 -1.83235,8.185131 -5.73974,14.241955 -12.22266,18.691405 -6.48159,4.44854 -15.61441,7.25811 -27.81445,8.57422 -6.88065,0.74226 -12.23695,0.95559 -30.30664,1.20117 -18.24611,0.24798 -22.14595,0.43342 -28.46289,1.34571 -8.16044,1.17851 -14.25721,3.67778 -19.35156,8.00976 -2.0316,1.72757 -4.31861,4.31984 -5.57422,6.35156 -0.23075,0.37339 -0.41941,0.71341 -0.55664,1.00196 -0.0649,0.13641 -0.12956,0.27785 -0.17969,0.45507 -0.005,0.016 -0.0708,0.23911 -0.0547,0.47852 0.008,0.11124 0.0517,0.40606 0.24805,0.66016 0.26332,0.34074 0.56561,0.46484 0.95117,0.46484 0.17409,0 0.31345,-0.0186 0.44141,-0.0684 0.12796,-0.0497 0.20159,-0.10304 0.13867,-0.0723 0.0867,-0.0423 0.15459,-0.0852 0.20898,-0.11914 0.121,-0.0754 0.24907,-0.16185 0.39063,-0.26562 0.28072,-0.20577 0.61881,-0.47304 0.96875,-0.76758 4.73973,-3.9892 12.21759,-7.45999 19.88281,-9.1543 7.23358,-1.5989 13.37817,-1.98128 32.42188,-1.98828 15.2837,-0.005 23.63906,-0.25976 30.21875,-0.93554 17.1611,-1.76258 28.95793,-6.29449 37.17773,-14.48243 6.56291,-6.53745 10.29648,-14.65394 12.14258,-26.189449 0.49489,-3.092365 0.6119,-8.462571 0.47852,-13.699219 -0.13337,-5.235522 -0.48483,-10.181875 -1.16407,-12.65625 z m -0.60937,1.556641 0.25586,0.927734 c 0.60972,2.221123 0.99633,7.211435 1.12891,12.416016 0.13253,5.203456 0.003,10.580142 -0.4668,13.515625 -1.82457,11.400954 -5.45639,19.260532 -11.86133,25.640622 -8.01186,7.98079 -19.53782,12.4438 -36.57227,14.19336 -6.51949,0.6696 -14.84453,0.92664 -30.11718,0.93164 -19.0571,0.007 -25.31901,0.39422 -32.63672,2.01172 -7.81128,1.72659 -15.39634,5.22754 -20.3125,9.36524 -0.33504,0.28199 -0.65786,0.53877 -0.91406,0.72656 -0.12691,0.093 -0.23683,0.16646 -0.33008,0.22461 -0.0527,0.0329 -0.0795,0.0499 -0.11719,0.0684 h -0.002 c -0.12507,0.0612 -0.0925,0.0515 -0.0606,0.0391 0.032,-0.0124 0.0224,0 -0.0801,0 0.0459,0 -0.16714,-0.0933 -0.1582,-0.0781 -0.0534,-0.0691 -0.0405,-0.0489 -0.0449,-0.11328 v -0.002 -0.002 c -0.008,-0.10954 -0.0149,-0.013 0.0195,-0.13477 0.0278,-0.0983 0.0604,-0.17126 0.12109,-0.29883 0.11387,-0.23943 0.28926,-0.5538 0.50586,-0.90429 1.16781,-1.88966 3.43616,-4.47182 5.3711,-6.11719 4.93989,-4.20064 10.81465,-6.6231 18.84765,-7.7832 6.27849,-0.90674 10.09067,-1.08607 28.33203,-1.33399 18.07486,-0.24565 23.48485,-0.45906 30.40039,-1.20508 12.29782,-1.32666 21.59305,-4.16112 28.27344,-8.74609 6.67905,-4.58406 10.75683,-10.916838 12.63281,-19.296875 0.54661,-2.441875 0.61329,-3.394712 0.61328,-8.802734 0,-6.778017 -0.27694,-9.093698 -1.87695,-15.664063 -0.25469,-1.045922 -0.47731,-2.004732 -0.63086,-2.708984 -0.0767,-0.351967 -0.13605,-0.637573 -0.17383,-0.841797 v -0.002 c -0.0185,-0.100673 -0.0328,-0.177597 -0.041,-0.240235 v -0.0059 c -0.005,-0.03859 -0.007,-0.05341 -0.008,-0.08594 -9.7e-4,-0.02736 -0.003,-0.0029 0.002,-0.04297 0.004,-0.03282 2.9e-4,-0.01296 0.01,-0.04102 -0.0134,0.03983 0.002,-0.0036 0.0117,-0.02539 0.006,-0.01232 0.002,-0.0075 0.002,-0.0078 2.7e-4,-4.76e-4 0.0328,-0.03954 0.0391,-0.04687 l 0.004,-0.0039 c 0.0321,-0.02544 0.0642,-0.04817 0.01,-0.01758 -0.0345,0.0194 -0.1352,0.0498 -0.14062,0.05078 -0.005,9.84e-4 0.12212,-0.0334 0.17773,-0.06641 0.009,-0.0052 0.0239,-0.01335 0.0527,-0.0293 0.0413,-0.02293 0.10018,-0.05468 0.17383,-0.09375 0.14538,-0.0771 0.34633,-0.181015 0.59375,-0.308594 0.49529,-0.25539 1.16672,-0.598059 1.89453,-0.964844 1.44895,-0.730208 3.5923,-1.925984 4.74805,-2.646484 z m -0.23438,0.578125 -0.57812,0.361328 -1.31641,0.820313 c -1.17397,0.731859 -3.31496,1.923176 -4.77734,2.660156 -0.72744,0.366596 -1.3975,0.708614 -1.89063,0.962891 -0.16671,0.08597 -0.28098,0.144407 -0.40429,0.208984 l -0.33008,0.173828 0.0723,0.365234 c 0.0356,0.18177 0.0759,0.382999 0.13671,0.66211 0.15245,0.699213 0.37271,1.657134 0.62696,2.701172 1.6024,6.580228 1.88867,8.959961 1.88867,15.748047 0,5.410971 -0.0732,6.424715 -0.62305,8.880859 -1.89211,8.45213 -6.03179,14.88581 -12.7832,19.51953 -6.75275,4.63464 -16.10415,7.47615 -28.4375,8.80664 -6.92824,0.74739 -12.35878,0.9633 -30.43555,1.20899 -18.23969,0.24789 -22.02261,0.42732 -28.28711,1.33203 -7.98687,1.15344 -13.7781,3.5461 -18.66211,7.69922 -1.34575,1.14435 -2.73274,2.71312 -3.90429,4.20117 l 0.6914,0.70898 c 4.94717,-3.68033 11.77291,-6.7453 18.89844,-8.32031 7.34869,-1.62435 13.65481,-2.01253 32.7168,-2.01953 15.26854,-0.005 23.58046,-0.26038 30.07812,-0.92774 16.9884,-1.74483 28.41939,-6.18648 36.35547,-14.09179 6.34773,-6.3231 9.94103,-14.087125 11.75781,-25.439456 0.46037,-2.877009 0.59316,-8.258453 0.46094,-13.449218 -0.12946,-5.082787 -0.52605,-9.926359 -1.08398,-12.111329 z m -0.73437,1.634766 c 0.45674,2.152063 0.86764,6.429388 0.98828,11.166015 0.13131,5.155094 -0.0154,10.554663 -0.44922,13.265625 -1.79567,11.220425 -5.28404,18.720176 -11.47656,24.888676 -7.72892,7.69895 -18.88749,12.07083 -35.75,13.80273 -6.43719,0.66114 -14.71908,0.91851 -29.97656,0.92383 -19.07556,0.007 -25.49763,0.39976 -32.93164,2.04297 -5.75908,1.27297 -11.26847,3.51245 -15.85743,6.26367 0.35509,-0.35284 0.68898,-0.82086 1.03516,-1.11524 4.73228,-4.02409 10.29637,-6.33726 18.1582,-7.47265 6.22689,-0.89927 9.91919,-1.07249 28.1543,-1.32031 18.082,-0.24576 23.56589,-0.46171 30.5293,-1.21289 12.43054,-1.34099 21.94822,-4.20835 28.89844,-8.97852 6.95155,-4.77109 11.25661,-11.473505 13.19335,-20.125 0.5591,-2.497511 0.64649,-3.678754 0.64649,-9.099609 0,-6.817143 -0.30672,-9.377814 -1.91602,-15.986329 -0.25249,-1.036839 -0.47297,-1.989375 -0.62304,-2.677734 -0.0252,-0.115734 -0.0376,-0.180036 -0.0566,-0.271484 0.024,-0.01238 0.0359,-0.01948 0.0625,-0.0332 0.48985,-0.252585 1.15823,-0.593831 1.88281,-0.958985 1.49868,-0.755274 3.63316,-1.945043 4.85547,-2.707031 z"
           id="path2801" />
      </g>
    </g>
  </g>
</svg>
