<?xml version="1.0" encoding="UTF-8" standalone="no"?>
<!-- Created with Inkscape (http://www.inkscape.org/) -->

<svg
   width="70.184914mm"
   height="42.131424mm"
   viewBox="0 0 70.184914 42.131424"
   version="1.1"
   id="svg208"
   inkscape:version="1.1.2 (0a00cf5339, 2022-02-04)"
   sodipodi:docname="17.html"
   xmlns:inkscape="http://www.inkscape.org/namespaces/inkscape"
   xmlns:sodipodi="http://sodipodi.sourceforge.net/DTD/sodipodi-0.dtd"
   xmlns="http://www.w3.org/2000/svg"
   xmlns:svg="http://www.w3.org/2000/svg">
  <sodipodi:namedview
     id="namedview210"
     pagecolor="#ffffff"
     bordercolor="#666666"
     borderopacity="1.0"
     inkscape:pageshadow="2"
     inkscape:pageopacity="0.0"
     inkscape:pagecheckerboard="0"
     inkscape:document-units="mm"
     showgrid="false"
     inkscape:zoom="0.69664703"
     inkscape:cx="-306.46797"
     inkscape:cy="488.76976"
     inkscape:window-width="1920"
     inkscape:window-height="1016"
     inkscape:window-x="0"
     inkscape:window-y="0"
     inkscape:window-maximized="1"
     inkscape:current-layer="layer1" />
  <defs
     id="defs205" />
  <g
     inkscape:label="Capa 1"
     inkscape:groupmode="layer"
     id="layer1"
     transform="translate(-55.949677,-18.846928)">
    <path
       style="fill:#ffffff;stroke-width:0.178875"
       d="m 86.828745,60.734202 c -3.272179,-0.510872 -5.57999,-1.332719 -6.554411,-2.334138 -0.29514,-0.303322 -0.979342,-0.760819 -1.520435,-1.016655 -0.592932,-0.280349 -1.443702,-0.931828 -2.14133,-1.639725 -0.636633,-0.646004 -1.262815,-1.174556 -1.39151,-1.174556 -0.337456,0 -2.439487,-2.183692 -3.244656,-3.3707 -0.9949,-1.46671 -1.810324,-3.161893 -1.796376,-3.734464 0.01183,-0.48679 0.01609,-0.488737 0.206206,-0.09454 0.106756,0.221355 0.302544,0.402466 0.435078,0.402466 0.336645,0 0.300705,-0.531899 -0.06308,-0.933905 -0.167251,-0.184809 -0.304094,-0.608536 -0.304094,-0.941626 0,-0.333082 -0.04713,-0.57647 -0.104768,-0.540855 -0.0576,0.03563 -0.115188,-0.0702 -0.127925,-0.235147 -0.0503,-0.651529 -0.274589,-1.562461 -0.431787,-1.753705 -0.254253,-0.309318 0.130055,-5.978277 0.539024,-7.9512 0.592007,-2.855886 1.371554,-4.793898 3.071422,-7.635756 l 0.720451,-1.204445 -0.590032,0.626149 c -0.324509,0.344386 -0.734392,0.827343 -0.91085,1.073248 -0.308514,0.42994 -0.308514,0.424275 0,-0.147687 0.481193,-0.892075 2.081856,-2.943659 2.372184,-3.040437 0.139904,-0.04666 -5.88e-4,0.224519 -0.312205,0.602566 -1.10505,1.340624 -0.39891,0.803087 1.404011,-1.068771 2.22028,-2.305175 3.556279,-3.217835 6.247754,-4.268035 3.394418,-1.324485 3.783343,-1.412401 6.528923,-1.475854 2.278171,-0.05265 2.36779,-0.04364 0.992721,0.09988 -3.122802,0.325919 -5.985213,1.106306 -8.282044,2.257951 -2.444429,1.225654 -5.839203,4.261173 -7.473426,6.682548 -0.936123,1.387007 -2.317696,4.376329 -2.318912,5.017431 -4.79e-4,0.250873 -0.07275,0.532601 -0.160599,0.626061 -0.55479,0.590228 -1.088182,5.873047 -0.747561,7.404042 0.09976,0.448384 0.268944,1.338453 0.375965,1.977933 0.622551,3.719988 2.437844,7.487564 4.895942,10.16136 2.122874,2.309155 6.247945,4.766335 8.240324,4.908511 0.34709,0.02475 0.631226,0.118818 0.631429,0.209005 1.75e-4,0.09018 0.04604,0.118304 0.101835,0.06246 0.05585,-0.05585 0.554762,0.0578 1.108781,0.252557 0.554019,0.194725 1.193952,0.318356 1.422075,0.274752 0.228124,-0.04361 0.87621,0.02927 1.440179,0.162017 1.110527,0.261347 4.982594,0.338762 5.079907,0.101564 0.03279,-0.07993 0.703571,-0.271634 1.490621,-0.426012 1.765278,-0.346253 4.796064,-1.765596 6.171184,-2.890015 2.00377,-1.638476 2.68313,-2.317233 2.68313,-2.68076 0,-0.202162 0.21218,-0.673749 0.47151,-1.047962 0.45036,-0.649858 0.75707,-0.928909 0.5021,-0.456801 -0.14576,0.26987 1.29038,-1.29858 1.81065,-1.977467 0.46077,-0.601269 2.05607,-3.562121 2.01804,-3.745468 -0.0508,-0.244748 0.45649,-1.834521 0.58534,-1.834521 0.12284,0 0.25733,-0.645882 0.41999,-2.017178 0.0441,-0.37159 0.13079,-0.757581 0.19271,-0.857759 0.0619,-0.100173 0.18087,-0.721824 0.26434,-1.381438 0.11934,-0.94295 0.13945,-0.644902 0.0941,1.394384 -0.0424,1.905222 -0.15546,2.959182 -0.42596,3.970671 -1.47935,5.531778 -4.74254,9.817319 -9.59973,12.607297 -0.78705,0.452082 -1.877326,1.079373 -2.422834,1.393983 -1.149324,0.66284 -3.552648,1.356351 -4.988766,1.439568 -0.547528,0.03167 -1.478471,0.144049 -2.068754,0.249587 -1.345607,0.240598 -2.624844,0.217917 -4.535819,-0.08043 z M 79.8468,51.772864 c -1.116292,-0.556271 -1.991677,-1.657974 -2.468429,-3.106598 -0.255084,-0.77507 -0.319817,-1.515156 -0.305106,-3.488058 0.01609,-2.160097 0.08442,-2.725481 0.497128,-4.114112 2.009917,-6.762921 6.948175,-11.904415 12.719355,-13.242841 0.663465,-0.153871 1.25011,-0.23596 1.303648,-0.182415 0.05355,0.05355 -0.125896,2.492422 -0.398755,5.419734 -0.272852,2.92732 -0.492321,5.612027 -0.487703,5.966014 0.007,0.547224 -0.137221,0.787408 -0.963835,1.603759 -0.534724,0.528086 -0.97217,0.882402 -0.972102,0.787383 6.1e-5,-0.09502 0.239753,-1.531618 0.532636,-3.192438 0.29289,-1.660818 0.49491,-3.080534 0.448938,-3.154916 -0.04597,-0.07438 -1.191207,0.218801 -2.54498,0.651521 -1.353765,0.43272 -3.328993,1.060836 -4.38939,1.395824 l -1.927992,0.609064 0.407557,-0.72653 0.407564,-0.72653 4.107277,-1.228133 c 2.258997,-0.675473 4.161456,-1.287553 4.227669,-1.360182 0.152844,-0.167636 0.772278,-5.215543 0.654461,-5.333353 -0.171517,-0.171524 -1.816523,0.304552 -3.067778,0.88783 -4.778863,2.227691 -8.07164,7.323545 -8.456475,13.087125 -0.313341,4.692881 1.593566,7.881228 4.681341,7.827183 1.613894,-0.02826 3.035977,-0.628751 4.130898,-1.744381 1.044509,-1.064262 1.469035,-2.080998 1.628552,-3.900387 0.08676,-0.989572 0.05855,-1.207399 -0.156313,-1.207399 -0.144191,0 -1.015485,0.321973 -1.936213,0.715495 -0.920721,0.393523 -1.745692,0.715497 -1.833269,0.715497 -0.08758,0 -0.133508,-0.180521 -0.102072,-0.401168 0.04827,-0.338957 0.417779,-0.5315 2.382528,-1.241532 1.278954,-0.46219 2.425987,-0.845118 2.548962,-0.850946 0.548861,-0.02602 0.0336,3.76145 -0.742308,5.456236 -1.563258,3.41459 -6.877136,5.598464 -9.925794,4.079254 z m 15.224439,-1.16309 c 0.05131,-0.331075 0.485858,-3.322113 0.965728,-6.64676 0.840329,-5.822018 0.887634,-6.048607 1.283394,-6.147935 0.226,-0.05672 0.445795,-0.06824 0.488427,-0.02562 0.04267,0.04267 -0.282412,2.889702 -0.722332,6.326813 -0.840567,6.567303 -0.790735,6.372637 -1.768685,6.909064 -0.309689,0.169875 -0.331519,0.133076 -0.246532,-0.415575 z m 1.922604,-0.288921 c -0.0027,-0.07379 0.375342,-3.046422 0.840521,-6.605859 0.808988,-6.190094 0.863702,-6.479874 1.257393,-6.659246 0.374612,-0.170686 0.411808,-0.143677 0.413945,0.30053 0.0027,0.527293 -1.220102,11.694377 -1.347532,12.307848 -0.08936,0.430158 -1.149744,1.028256 -1.164327,0.656727 z m -6.339077,-1.971288 c 0.05854,-0.465293 0.243673,-2.053387 0.411329,-3.529101 0.277314,-2.44084 0.337618,-2.68786 0.667847,-2.735528 0.351214,-0.05071 0.358083,6e-6 0.211297,1.559958 -0.426994,4.537799 -0.555655,5.240436 -0.988821,5.400163 -0.396795,0.14632 -0.405184,0.126977 -0.301652,-0.695492 z m 1.227755,-0.01014 c 0.05124,-0.262948 0.218246,-1.604997 0.371178,-2.982331 0.404785,-3.645628 0.409631,-3.666931 0.833996,-3.666931 0.321014,0 0.353033,0.08143 0.263778,0.670782 -0.05585,0.368927 -0.227135,1.837941 -0.380581,3.264465 -0.327937,3.048705 -0.305864,2.963109 -0.797435,3.091663 -0.336368,0.08796 -0.372497,0.04104 -0.290936,-0.377648 z m 1.360222,-0.956485 c 0,-0.315329 0.315444,-0.840454 0.939089,-1.563331 0.936948,-1.08602 0.939448,-1.087439 1.09516,-0.620334 0.13997,0.419867 0.04306,0.581162 -0.939091,1.563331 -1.029371,1.029371 -1.095158,1.066635 -1.095158,0.620334 z m 6.446456,-1.791259 c -0.599802,-0.643814 -0.55358,-2.298556 0.102511,-3.669709 1.06878,-2.233627 2.9635,-2.642076 3.47332,-0.748758 0.25308,0.939853 0.0805,1.986707 -0.50777,3.080717 -0.88436,1.644533 -2.234,2.233011 -3.068061,1.33775 z m 1.772351,-1.302953 c 0.57238,-0.295987 1.26156,-1.557395 1.26156,-2.309047 0,-1.207568 -0.83102,-1.555145 -1.65447,-0.691984 -0.85404,0.895228 -1.120882,2.310677 -0.55375,2.937353 0.35582,0.393177 0.31481,0.390418 0.94666,0.06369 z m -8.123449,1.176454 c -0.0965,-0.304037 0.0752,-0.603296 0.808841,-1.40971 0.512244,-0.563057 0.991066,-1.047158 1.064046,-1.075775 0.07299,-0.0286 0.181435,0.132365 0.240996,0.357745 0.08736,0.330546 -0.0947,0.613195 -0.941545,1.461752 -0.968864,0.970826 -1.059287,1.022192 -1.172338,0.665988 z m 0.262393,-2.024006 c 0,-0.326456 0.30218,-0.823341 0.93909,-1.544179 0.926386,-1.048455 0.9412,-1.056758 1.095159,-0.613809 0.138349,0.398031 0.0317,0.573361 -0.939091,1.54418 -1.036827,1.036827 -1.095158,1.069515 -1.095158,0.613808 z m -2.239447,-1.935563 c -0.06947,-0.112403 -0.04211,-0.288537 0.06071,-0.391406 0.240387,-0.240388 0.800842,-0.0307 0.703043,0.263028 -0.09956,0.299022 -0.605737,0.384098 -0.763781,0.128378 z m 1.468048,-0.288719 c -0.2532,-0.253199 -0.109921,-0.599972 0.247891,-0.599972 0.250061,0 0.352025,0.09714 0.31303,0.298205 -0.06382,0.329215 -0.369197,0.49349 -0.560921,0.301767 z m -1.196224,-2.143061 c 0,-0.05145 0.158016,-1.395499 0.351153,-2.986847 0.19313,-1.591348 0.475962,-4.020274 0.628515,-5.397607 0.403892,-3.646724 0.272425,-3.365117 1.528622,-3.274254 0.85801,0.06206 1.195216,0.185342 1.769605,0.646936 0.818981,0.658146 0.908477,0.683384 0.912209,0.257228 0.0054,-0.62387 0.346536,-0.807305 2.43449,-1.309287 1.168245,-0.28087 2.189795,-0.513705 2.270115,-0.517424 0.0803,-0.0033 0.12057,0.208254 0.0894,0.471039 -0.0491,0.414264 -0.2105,0.529032 -1.21408,0.863149 -1.390492,0.462926 -1.272385,0.09195 -1.70866,5.366859 -0.170874,2.066003 -0.383299,3.848231 -0.472054,3.960504 -0.169305,0.214169 -1.222332,0.43506 -1.224184,0.256789 -5.35e-4,-0.05672 0.253009,-2.016199 0.563551,-4.354337 0.310543,-2.338138 0.517653,-4.298129 0.460242,-4.35554 -0.0574,-0.0574 -0.371969,-0.01609 -0.699027,0.09188 -0.568528,0.187634 -0.591919,0.230652 -0.532385,0.979154 0.104242,1.310687 -0.769019,2.529599 -2.135327,2.980525 -0.383265,0.126485 -0.69685,0.258493 -0.69685,0.293336 0,0.03489 0.523211,1.107483 1.162691,2.383624 0.639473,1.276141 1.162684,2.393177 1.162684,2.482302 0,0.282046 -0.93504,0.423532 -1.100169,0.166473 -0.08266,-0.128682 -0.480611,-1.079149 -0.884329,-2.112151 -0.403717,-1.033002 -0.794129,-1.942223 -0.86759,-2.020499 -0.07345,-0.07827 -0.230821,0.922494 -0.349706,2.223932 -0.118886,1.301433 -0.251908,2.424093 -0.295601,2.494789 -0.100091,0.161957 -1.153349,0.535846 -1.153349,0.40943 z m 3.035922,-7.307556 c 1.04661,-0.772163 1.46157,-1.677397 1.145958,-2.499879 -0.141006,-0.367446 -0.99231,-0.812951 -1.553447,-0.812951 -0.400607,0 -0.438047,0.08308 -0.544236,1.207406 -0.25533,2.703475 -0.156178,2.92281 0.951725,2.105424 z m 15.953097,6.346399 c 0,-0.245952 0.0406,-0.34657 0.0902,-0.223594 0.0496,0.122976 0.0496,0.324213 0,0.447188 -0.0496,0.122976 -0.0902,0.02238 -0.0902,-0.223594 z M 76.160216,23.26608 c 0.178068,-0.19676 0.364006,-0.357745 0.413196,-0.357745 0.04921,0 -0.05625,0.160985 -0.234316,0.357745 -0.178068,0.196769 -0.364012,0.357752 -0.413202,0.357752 -0.04921,0 0.05625,-0.160983 0.234322,-0.357752 z m 24.505824,-1.979752 c -0.3286,-0.21048 -0.42602,-0.344096 -0.25132,-0.344674 0.15692,-5.17e-4 0.43101,0.160047 0.60907,0.356808 0.39327,0.434555 0.33661,0.432634 -0.35775,-0.01214 z"
       id="path6694" />
  </g>
</svg>
