<?xml version="1.0" encoding="UTF-8" standalone="no"?>
<!-- Created with Inkscape (http://www.inkscape.org/) -->

<svg
   width="72.83213mm"
   height="35.992447mm"
   viewBox="0 0 72.832131 35.992447"
   version="1.1"
   id="svg283"
   inkscape:version="1.1.2 (0a00cf5339, 2022-02-04)"
   sodipodi:docname="18.html"
   xmlns:inkscape="http://www.inkscape.org/namespaces/inkscape"
   xmlns:sodipodi="http://sodipodi.sourceforge.net/DTD/sodipodi-0.dtd"
   xmlns="http://www.w3.org/2000/svg"
   xmlns:svg="http://www.w3.org/2000/svg">
  <sodipodi:namedview
     id="namedview285"
     pagecolor="#ffffff"
     bordercolor="#666666"
     borderopacity="1.0"
     inkscape:pageshadow="2"
     inkscape:pageopacity="0.0"
     inkscape:pagecheckerboard="0"
     inkscape:document-units="mm"
     showgrid="false"
     inkscape:zoom="0.69664703"
     inkscape:cx="-274.88813"
     inkscape:cy="392.5948"
     inkscape:window-width="1920"
     inkscape:window-height="1016"
     inkscape:window-x="0"
     inkscape:window-y="0"
     inkscape:window-maximized="1"
     inkscape:current-layer="layer1" />
  <defs
     id="defs280" />
  <g
     inkscape:label="Capa 1"
     inkscape:groupmode="layer"
     id="layer1"
     transform="translate(-47.586494,-44.290216)">
    <g
       aria-label="ART STUDIUM"
       id="text4408"
       style="font-weight:bold;font-size:20.1428px;line-height:1.25;font-family:Poppins;-inkscape-font-specification:'Poppins, Bold';letter-spacing:0px;word-spacing:0px;stroke-width:0.839282;fill:#ffffff"
       transform="matrix(1.2586608,0,0,1.2586608,20.293567,-209.01103)">
      <path
         id="path6642"
         d="m 67.439451,226.15425 v 3.6518 h -0.88954 v -2.19004 l -0.816711,2.19004 h -0.717875 l -0.821913,-2.19524 v 2.19524 h -0.88954 v -3.6518 h 1.050802 l 1.024791,2.52817 1.014385,-2.52817 z m -6.929044,0 v 2.18484 q 0,0.32772 0.161262,0.50459 0.161262,0.17687 0.47338,0.17687 0.312119,0 0.478583,-0.17687 0.166463,-0.17687 0.166463,-0.50459 v -2.18484 h 0.88954 v 2.17963 q 0,0.48899 -0.208079,0.82712 -0.208079,0.33813 -0.561813,0.5098 -0.348534,0.17166 -0.780298,0.17166 -0.431767,0 -0.775097,-0.16646 -0.338128,-0.17167 -0.535805,-0.5098 -0.197676,-0.34333 -0.197676,-0.83232 v -2.17963 z m -1.51897,0 v 3.6518 h -0.88954 v -3.6518 z m -3.303256,0 q 0.57742,0 1.009184,0.22889 0.431764,0.22889 0.665855,0.64505 0.239291,0.41095 0.239291,0.95196 0,0.5358 -0.239291,0.95196 -0.234091,0.41616 -0.671056,0.64505 -0.431767,0.22889 -1.003983,0.22889 h -1.368123 v -3.6518 z m -0.05722,2.8819 q 0.504592,0 0.785499,-0.2757 0.280907,-0.27571 0.280907,-0.7803 0,-0.50459 -0.280907,-0.7855 -0.280907,-0.28091 -0.785499,-0.28091 h -0.421362 v 2.12241 z m -4.104369,-2.8819 v 2.18484 q 0,0.32772 0.161262,0.50459 0.161263,0.17687 0.473382,0.17687 0.312117,0 0.478581,-0.17687 0.166464,-0.17687 0.166464,-0.50459 v -2.18484 h 0.889539 v 2.17963 q 0,0.48899 -0.208078,0.82712 -0.208079,0.33813 -0.561814,0.5098 -0.348534,0.17166 -0.780298,0.17166 -0.431764,0 -0.775097,-0.16646 -0.338128,-0.17167 -0.535805,-0.5098 -0.197673,-0.34333 -0.197673,-0.83232 v -2.17963 z m -1.321301,0 v 0.71267 H 49.23772 v 2.93913 h -0.889539 v -2.93913 h -0.967569 v -0.71267 z m -4.504917,3.68821 q -0.400553,0 -0.717875,-0.13005 -0.317321,-0.13005 -0.509794,-0.38495 -0.187272,-0.25489 -0.197675,-0.61383 h 0.946761 q 0.02081,0.20288 0.140454,0.31212 0.119645,0.10404 0.312119,0.10404 0.197675,0 0.312119,-0.0884 0.114443,-0.0936 0.114443,-0.25489 0,-0.13525 -0.09363,-0.22369 -0.08843,-0.0884 -0.223686,-0.14565 -0.13005,-0.0572 -0.374543,-0.13005 -0.353735,-0.10924 -0.57742,-0.21849 -0.223685,-0.10924 -0.384947,-0.32252 -0.161262,-0.21328 -0.161262,-0.55661 0,-0.5098 0.369341,-0.7959 0.369341,-0.29132 0.962368,-0.29132 0.60343,0 0.972771,0.29132 0.369341,0.2861 0.395351,0.8011 h -0.962367 q -0.0104,-0.17687 -0.13005,-0.2757 -0.119646,-0.10405 -0.306917,-0.10405 -0.161262,0 -0.260099,0.0884 -0.09884,0.0832 -0.09884,0.24449 0,0.17687 0.166463,0.27571 0.166464,0.0988 0.520199,0.21328 0.353735,0.11964 0.572218,0.22889 0.223686,0.10924 0.384947,0.31732 0.161262,0.20808 0.161262,0.5358 0,0.31212 -0.161262,0.56702 -0.15606,0.2549 -0.457775,0.40575 -0.301715,0.15086 -0.712671,0.15086 z m -2.871493,-3.68821 v 0.71267 H 41.86131 v 2.93913 h -0.88954 v -2.93913 h -0.967569 v -0.71267 z m -4.156379,3.6518 -0.75949,-1.37853 h -0.213281 v 1.37853 h -0.88954 v -3.6518 h 1.49297 q 0.431765,0 0.73348,0.15086 0.306917,0.15086 0.457775,0.41616 0.150857,0.2601 0.150857,0.58262 0,0.36414 -0.208079,0.65025 -0.202878,0.28611 -0.60343,0.40575 l 0.842721,1.44616 z m -0.972771,-2.00797 h 0.55141 q 0.244494,0 0.364139,-0.11964 0.124848,-0.11965 0.124848,-0.33814 0,-0.20807 -0.124848,-0.32772 -0.119645,-0.11965 -0.364139,-0.11965 h -0.55141 z m -2.450133,1.36292 h -1.36292 l -0.218483,0.64505 H 32.73704 l 1.321304,-3.6518 h 1.029993 l 1.321304,3.6518 H 35.46808 Z m -0.228887,-0.68666 -0.452572,-1.33691 -0.447371,1.33691 z m -1.069395,-3.95288 c -0.35144,-0.0916 -0.869824,-0.61304 -1.151958,-1.15863 -0.496939,-0.96097 -0.339267,-1.30833 5.044533,-11.11375 3.725305,-6.78483 5.855846,-10.29534 6.462415,-10.64821 1.754231,-1.02052 2.321077,-0.33563 7.336896,8.86464 2.577396,4.72758 5.049287,8.83712 5.493091,9.13229 1.759173,1.17006 4.605247,0.3644 5.477794,-1.55064 0.643149,-1.41155 0.540471,-1.85082 -1.248174,-5.3397 -1.830354,-3.57025 -1.827505,-4.54345 0.01575,-5.38329 1.347439,-0.61393 2.313053,0.22695 4.079266,3.55232 1.783726,3.35834 2.163966,5.2055 1.576042,7.65623 -1.433572,5.97577 -8.928604,8.06709 -13.518801,3.77212 -0.549781,-0.51444 -2.587832,-3.83742 -4.528971,-7.38441 -1.941138,-3.54699 -3.639744,-6.44986 -3.774685,-6.45082 -0.134884,-10e-4 -2.157049,3.51715 -4.493585,7.81804 -3.152954,5.80365 -4.47365,7.90549 -5.122455,8.15215 -0.480792,0.1828 -0.904331,0.31346 -0.941166,0.29034 -0.03684,-0.0231 -0.354538,-0.11708 -0.705976,-0.20868 z m 10.369754,-3.01048 c -1.011118,-0.40364 -1.940934,-1.75178 -1.940934,-2.81415 0,-1.1729 1.551532,-2.62288 2.791488,-2.60877 1.163642,0.0133 1.978085,0.54786 2.592861,1.70205 1.08891,2.0443 -1.266783,4.58979 -3.443415,3.72087 z m 12.702863,-4.39513 c -3.205676,-5.07812 -3.772782,-8.1415 -2.120857,-11.45648 1.969814,-3.95289 7.094362,-5.56609 11.100527,-3.49443 1.018541,0.52671 1.619237,1.88681 1.253855,2.83898 -0.11037,0.28774 -0.598109,0.78353 -1.083763,1.10174 -0.810157,0.53083 -1.006034,0.52934 -2.374441,-0.0182 -2.492704,-0.99738 -4.870334,0.16525 -5.328109,2.60539 -0.18214,0.97091 0.09257,1.81421 1.459196,4.48 1.549796,3.02299 1.646159,3.36241 1.212638,4.27134 -0.367257,0.77001 -0.765629,1.01193 -1.809378,1.0988 -1.227193,0.10216 -1.419139,-0.0164 -2.309668,-1.42715 z"
         style="stroke-width:0.216749;fill:#ffffff" />
    </g>
  </g>
</svg>
