<?xml version="1.0" encoding="UTF-8" standalone="no"?>
<!-- Created with Inkscape (http://www.inkscape.org/) -->

<svg
   width="71.206177mm"
   height="39.863293mm"
   viewBox="0 0 71.206177 39.863293"
   version="1.1"
   id="svg361"
   inkscape:version="1.1.2 (0a00cf5339, 2022-02-04)"
   sodipodi:docname="19.html"
   xmlns:inkscape="http://www.inkscape.org/namespaces/inkscape"
   xmlns:sodipodi="http://sodipodi.sourceforge.net/DTD/sodipodi-0.dtd"
   xmlns="http://www.w3.org/2000/svg"
   xmlns:svg="http://www.w3.org/2000/svg">
  <sodipodi:namedview
     id="namedview363"
     pagecolor="#ffffff"
     bordercolor="#666666"
     borderopacity="1.0"
     inkscape:pageshadow="2"
     inkscape:pageopacity="0.0"
     inkscape:pagecheckerboard="0"
     inkscape:document-units="mm"
     showgrid="false"
     inkscape:zoom="0.69664703"
     inkscape:cx="-191.6322"
     inkscape:cy="531.83318"
     inkscape:window-width="1920"
     inkscape:window-height="1016"
     inkscape:window-x="0"
     inkscape:window-y="0"
     inkscape:window-maximized="1"
     inkscape:current-layer="layer1" />
  <defs
     id="defs358" />
  <g
     inkscape:label="Capa 1"
     inkscape:groupmode="layer"
     id="layer1"
     transform="translate(-25.352153,-7.413623)">
    <path
       style="fill:#ffffff;stroke-width:0.0239013"
       d="m 57.586366,47.084744 c -0.0778,-0.1056 -0.1827,-0.229186 -0.23301,-0.274632 l -0.0915,-0.08263 -0.11356,0.04466 c -0.0625,0.02457 -0.24126,0.09527 -0.39733,0.157131 -0.39682,0.15728 -0.52437,0.179558 -1.03081,0.180023 -0.72464,8.03e-4 -1.0963,-0.04974 -1.60026,-0.217039 -1.02483,-0.340213 -1.82602,-1.107187 -2.13949,-2.0481 -0.13734,-0.412235 -0.15556,-0.556698 -0.15588,-1.235975 -2.7e-4,-0.675721 0.0198,-0.815303 0.17077,-1.188277 0.41561,-1.026366 1.60006,-1.927126 2.8029,-2.13157 0.29288,-0.04978 0.95642,-0.05083 1.28024,-0.002 0.69774,0.105162 1.33824,0.378341 1.84525,0.787012 0.48357,0.389785 0.85945,0.947957 1.031,1.531003 0.10982,0.373239 0.13259,0.570342 0.13259,1.147262 -2e-5,0.520368 -0.004,0.562358 -0.0637,0.786069 -0.0845,0.313412 -0.27163,0.693924 -0.54005,1.097935 l -0.21953,0.330415 0.11873,0.13566 c 0.0653,0.07462 0.30767,0.323775 0.53861,0.553684 0.23094,0.229908 0.41989,0.4262 0.41989,0.436199 0,0.01 -0.0377,0.01818 -0.0838,0.01818 -0.0461,0 -0.39558,0.03765 -0.77669,0.08365 -0.3811,0.04601 -0.70641,0.08359 -0.7229,0.08351 -0.0165,0 -0.0937,-0.08655 -0.17154,-0.192145 z m -1.75133,-1.632918 0.0909,-0.04083 -0.50188,-0.518991 -0.50188,-0.518987 0.72166,-0.07557 c 0.39691,-0.04156 0.76988,-0.08086 0.82882,-0.08732 l 0.10715,-0.01176 0.22168,0.217397 c 0.13764,0.13497 0.23009,0.208855 0.24386,0.194878 0.0416,-0.04225 0.16385,-0.30904 0.20744,-0.45274 0.0597,-0.196649 0.0596,-0.678029 0,-0.89492 -0.15111,-0.549028 -0.52677,-0.993644 -1.03377,-1.223532 -0.26089,-0.118288 -0.43157,-0.146245 -0.82143,-0.134553 -0.31216,0.0094 -0.36906,0.01806 -0.57313,0.0874 -0.50175,0.170513 -0.83354,0.455586 -1.04258,0.895771 -0.12049,0.253711 -0.15353,0.394887 -0.1685,0.720107 -0.0163,0.352929 0.0221,0.55706 0.15647,0.833333 0.31648,0.650578 1.03939,1.082377 1.77115,1.057928 0.1268,-0.0042 0.23735,-0.02212 0.2941,-0.04762 z m 6.11147,1.584694 c -1.00204,-0.121941 -1.73085,-0.767785 -1.98071,-1.755248 -0.0925,-0.365657 -0.0987,-0.535195 -0.0987,-2.706202 v -2.109919 h 0.87153 0.87152 l 0.008,2.06149 c 0.008,1.90014 0.0115,2.074588 0.0516,2.228805 0.0697,0.268093 0.16491,0.453049 0.30582,0.593964 0.15873,0.158736 0.31852,0.222844 0.60844,0.244134 0.64679,0.04749 1.027,-0.17519 1.23379,-0.7226 0.0525,-0.138944 0.0527,-0.146358 0.0646,-2.266624 l 0.012,-2.127219 0.86765,-0.0063 0.86764,-0.0063 -0.009,2.276904 c -0.0102,2.507146 -0.006,2.441172 -0.16231,2.871924 -0.1261,0.348497 -0.33404,0.620801 -0.6638,0.869291 -0.32423,0.244306 -0.74904,0.435901 -1.16105,0.523647 -0.20216,0.04306 -1.40434,0.06458 -1.68685,0.03019 z m -21.24243,-3.337746 0.006,-3.221673 1.38629,-0.007 c 1.48392,-0.0075 1.68407,0.0028 2.03438,0.103982 0.98901,0.285971 1.93312,1.179643 2.2547,2.134235 0.10201,0.302826 0.12072,0.460539 0.12072,1.017908 0,0.489051 -0.005,0.55268 -0.0595,0.769254 -0.0739,0.293197 -0.29053,0.736521 -0.48904,1.000945 -0.49648,0.661327 -1.1885,1.14695 -1.93478,1.35772 -0.17602,0.04971 -0.2303,0.05154 -1.75325,0.05883 l -1.5716,0.0075 z m 2.68302,1.739625 c 0.23691,-0.06083 0.57699,-0.227299 0.75867,-0.371365 0.25417,-0.201541 0.46999,-0.536467 0.54732,-0.849373 0.0487,-0.197263 0.0421,-0.875677 -0.0104,-1.075561 -0.11526,-0.437889 -0.41658,-0.805175 -0.82946,-1.011036 -0.3379,-0.168483 -0.53226,-0.21193 -1.00983,-0.225758 l -0.40035,-0.0116 v 1.810882 1.810881 l 0.37645,-0.01401 c 0.2626,-0.0098 0.43427,-0.02882 0.56766,-0.06309 z m 3.90787,-1.746709 v -3.226828 l 1.89419,0.0061 1.89418,0.0061 v 0.705091 0.705091 l -1.0103,0.0062 -1.0103,0.0062 0.006,0.519597 0.006,0.519598 0.96203,0.0063 0.96202,0.0063 v 0.728717 0.728722 h -0.968 -0.96801 v 0.522888 0.522889 l 0.75887,0.01521 c 0.41738,0.0084 0.87449,0.02164 1.01581,0.02946 l 0.25694,0.01421 v 0.702482 0.702478 h -1.90016 -1.90016 z m 19.43182,2.69e-4 v -3.226683 h 1.87625 1.87626 v 0.71704 0.717041 h -1.02776 -1.02776 v 0.525831 0.525831 h 0.97996 0.97996 v 0.72899 0.728994 h -0.95606 -0.95605 v 0.523074 0.523077 l 0.75887,0.01501 c 0.41737,0.0083 0.86911,0.02131 1.00385,0.02894 l 0.24499,0.01393 v 0.702791 0.702791 h -1.87626 -1.87625 z m 4.80417,0 v -3.226683 h 0.82991 0.82991 l 0.19316,0.197186 c 0.22043,0.22504 0.57904,0.66893 1.53,1.893915 0.97698,1.258482 1.41191,1.780921 1.48264,1.780921 0.0293,0 0.0342,-0.273457 0.0342,-1.936009 v -1.936013 h 0.86044 0.86046 v 3.226683 3.226686 l -0.89033,-2.73e-4 -0.89033,-2.68e-4 -0.0567,-0.09924 c -0.21711,-0.380071 -2.58308,-3.304233 -2.96406,-3.663355 l -0.0745,-0.0702 v 1.916582 1.916581 h -0.87239 -0.8724 v -3.226655 z m 7.72015,-0.02392 v -3.202783 h 0.8485 0.84849 v 3.202783 3.202788 h -0.84849 -0.8485 z m 0.43022,-3.356478 c 0,-0.0057 0.13375,-0.314881 0.29722,-0.687165 l 0.29721,-0.676877 -0.0761,-0.06383 c -0.0419,-0.03512 -0.47408,-0.367347 -0.96048,-0.738323 -0.48639,-0.370971 -1.09216,-0.83701 -1.34616,-1.035638 -0.25399,-0.198627 -0.48254,-0.375896 -0.5079,-0.393931 -0.0453,-0.03227 -0.0461,-0.01417 -0.0461,1.105437 v 1.138231 h -0.54974 -0.54973 v -1.756749 -1.756753 h 0.369 0.36901 l 1.35306,1.033736 c 0.74418,0.568555 1.40093,1.06972 1.45945,1.113701 l 0.10639,0.07997 3.6e-4,-1.083826 c 2.8e-4,-0.640072 0.01,-1.098509 0.023,-1.119678 0.0188,-0.0297 0.1127,-0.03709 0.54937,-0.04312 l 0.52674,-0.0073 v 1.495134 1.49513 h 0.45412 c 0.24977,0 0.45413,0.0071 0.45413,0.0159 0,0.0088 -0.0607,0.129748 -0.13485,0.268892 -0.29932,0.561548 -0.60027,1.017592 -0.93404,1.415409 l -0.17779,0.211901 h -0.48808 c -0.26843,-9.2e-5 -0.48806,-0.0047 -0.48806,-0.0104 z m -38.95923,-3.108969 v -1.756753 h 1.37433 1.37432 v 0.298768 0.298769 h -0.82459 -0.8246 v 0.382423 0.38242 h 0.71704 0.71704 v 0.274865 0.274865 h -0.71704 -0.71704 v 0.800696 0.800699 h -0.54973 -0.54973 z m 4.74945,1.71943 c -0.7025,-0.10932 -1.18567,-0.468105 -1.31882,-0.979325 -0.0305,-0.117168 -0.0366,-0.337431 -0.0366,-1.31876 v -1.178098 h 0.52475 0.52475 l 0.007,1.141294 c 0.007,1.107508 0.009,1.145392 0.0594,1.279888 0.079,0.20914 0.19236,0.351283 0.34317,0.430455 l 0.13028,0.06839 0.39437,-0.0095 c 0.43645,-0.01052 0.55744,-0.04043 0.73634,-0.182126 0.11551,-0.09148 0.23143,-0.306367 0.26544,-0.492041 0.0161,-0.08818 0.026,-0.537982 0.026,-1.189097 v -1.04727 h 0.52584 0.52583 l -4e-4,1.117391 c -4.1e-4,1.226763 -0.008,1.315074 -0.14215,1.601098 -0.18708,0.399784 -0.65686,0.677327 -1.30347,0.77007 -0.23751,0.03408 -1.01211,0.02649 -1.26174,-0.01236 z m 3.40091,-1.71943 v -1.756753 l 0.3645,8.03e-4 0.36449,8.03e-4 1.45053,1.110619 c 0.79779,0.610842 1.45657,1.110623 1.46396,1.110623 0.007,0 0.0134,-0.487229 0.0134,-1.08273 0,-0.810257 0.007,-1.089951 0.0287,-1.111414 0.0206,-0.02055 0.17633,-0.0287 0.54973,-0.0287 h 0.52105 v 1.756753 1.756748 l -0.35255,-4.01e-4 -0.35254,-4.01e-4 -1.04082,-0.794214 c -0.57244,-0.436821 -1.23351,-0.944797 -1.46903,-1.128838 -0.23553,-0.184041 -0.4367,-0.338206 -0.44705,-0.342585 -0.0104,-0.0044 -0.0188,0.503818 -0.0188,1.12934 v 1.137308 h -0.53778 -0.53778 z m 5.61682,0.0016 v -1.758486 h 0.99789 c 1.07204,0 1.23311,0.01284 1.63198,0.129121 0.49445,0.144142 0.85138,0.341878 1.14735,0.635625 0.23291,0.231149 0.34154,0.413749 0.39431,0.662788 0.17614,0.831234 -0.36526,1.552485 -1.43099,1.90635 -0.48448,0.160868 -0.49604,0.162064 -1.67095,0.173022 l -1.06959,0.01 v -1.758487 z m 2.00239,1.111093 c 0.70117,-0.144688 1.10479,-0.59439 1.10479,-1.230906 0,-0.195778 -0.0744,-0.342641 -0.29101,-0.574613 -0.18907,-0.202448 -0.34924,-0.293208 -0.65582,-0.371621 -0.1504,-0.03845 -0.26458,-0.0471 -0.62253,-0.0471 h -0.43835 v 1.135317 1.135313 l 0.34059,-2.72e-4 c 0.24131,-2.69e-4 0.40524,-0.01365 0.56233,-0.04607 z m 2.16044,0.622744 c 0.004,-0.01164 0.47046,-0.802012 1.03572,-1.756371 l 1.02776,-1.735194 0.41654,0.0056 0.41654,0.0056 1.03544,1.744799 1.03544,1.744799 -0.54194,0.0064 -0.54194,0.0064 -0.065,-0.06228 c -0.0358,-0.03424 -0.12233,-0.16939 -0.19239,-0.300297 -0.0701,-0.130908 -0.15802,-0.275179 -0.19546,-0.320601 l -0.0681,-0.08258 h -0.88014 -0.88013 l -0.0712,0.08109 c -0.0392,0.0446 -0.12264,0.178666 -0.18552,0.297913 -0.0629,0.119252 -0.14566,0.254848 -0.18397,0.30133 l -0.0697,0.08451 h -0.54999 c -0.30952,0 -0.54649,-0.0093 -0.54201,-0.02119 z m 3.029,-1.394981 c -0.0282,-0.05587 -0.16423,-0.314924 -0.30228,-0.575676 l -0.25102,-0.474099 -0.29574,0.568247 c -0.16266,0.312536 -0.29574,0.571586 -0.29574,0.575676 0,0.0041 0.26911,0.0074 0.59802,0.0074 h 0.59802 z m 4.07767,1.399694 c -0.7334,-0.09517 -1.38981,-0.383435 -1.79002,-0.786101 -0.60942,-0.613167 -0.53127,-1.504579 0.18199,-2.075896 0.33267,-0.266472 0.77076,-0.460307 1.28291,-0.567637 0.18155,-0.03805 0.35191,-0.05036 0.8151,-0.05893 l 0.58558,-0.01084 0.34657,0.09235 0.34657,0.09236 0.007,0.389589 0.007,0.389592 -0.0663,-0.01642 c -0.0365,-0.009 -0.15776,-0.05744 -0.26952,-0.107606 -0.34804,-0.156228 -0.42771,-0.173412 -0.86257,-0.186032 -0.34937,-0.01015 -0.42041,-0.0055 -0.59753,0.03926 -0.53746,0.135696 -0.98931,0.496845 -1.03938,0.83076 -0.0284,0.189215 0.002,0.485495 0.0632,0.617667 0.0846,0.182636 0.31736,0.397845 0.5531,0.511493 0.35301,0.170176 0.51977,0.204407 0.99886,0.205013 l 0.41827,4.02e-4 0.36453,-0.149384 c 0.20049,-0.08216 0.36989,-0.149384 0.37645,-0.149384 0.007,0 0.0119,0.17698 0.0119,0.393289 v 0.393289 l -0.0777,0.01333 c -0.76434,0.131273 -1.34334,0.180127 -1.65517,0.13967 z m 2.6172,-1.739822 v -1.757214 h 0.52599 0.52598 l -0.006,1.750771 -0.006,1.750776 -0.51985,0.0065 -0.51986,0.0064 z m 3.93178,1.740123 c -0.68313,-0.08573 -1.3981,-0.395566 -1.79725,-0.778844 -0.30151,-0.289532 -0.38973,-0.505163 -0.38973,-0.952677 0,-0.313151 0.0407,-0.48462 0.1602,-0.674212 0.27923,-0.443175 0.84463,-0.818975 1.52485,-1.013517 0.20383,-0.0583 0.25168,-0.06207 0.91235,-0.07194 0.4316,-0.0065 0.76011,-8.03e-4 0.86228,0.01517 0.71204,0.11048 1.44604,0.53153 1.76941,1.015018 0.17315,0.258881 0.20163,0.375078 0.19233,0.784728 -0.007,0.328436 -0.0108,0.348478 -0.0853,0.505745 -0.25304,0.534264 -1.06047,1.002627 -1.98807,1.153207 -0.1879,0.03051 -0.96375,0.04207 -1.16106,0.0173 z m 1.02138,-0.688008 c 0.25907,-0.05491 0.5727,-0.231638 0.78521,-0.44248 0.24516,-0.243235 0.33258,-0.417867 0.33258,-0.66435 0,-0.154052 -0.0102,-0.197198 -0.0756,-0.319853 -0.13361,-0.250685 -0.47368,-0.515423 -0.83755,-0.652015 -0.29384,-0.110308 -0.87505,-0.13851 -1.20874,-0.05865 -0.16844,0.04031 -0.52327,0.214475 -0.6911,0.339217 -0.29556,0.219673 -0.42567,0.450405 -0.41003,0.727132 0.0127,0.224907 0.10449,0.401695 0.31978,0.615957 0.23236,0.231253 0.55121,0.409634 0.83104,0.464923 0.17064,0.03372 0.77836,0.02741 0.95438,-0.0099 z m -32.50401,-5.36046 c 0.007,-0.03633 0.36425,-1.663191 0.79289,-3.615216 0.42864,-1.952033 0.77616,-3.581506 0.77228,-3.62106 -0.006,-0.06282 -0.0175,-0.07291 -0.0893,-0.07974 -0.0452,-0.0043 -0.38543,0.02677 -0.75607,0.06902 -0.37063,0.04226 -0.70203,0.06978 -0.73644,0.06115 l -0.0625,-0.0157 v -0.777527 c 0,-0.848406 0.002,-0.86606 0.13906,-0.96327 0.0997,-0.07099 0.27209,-0.108731 1.056,-0.231165 0.92785,-0.144913 0.92993,-0.145386 0.95752,-0.217951 0.0372,-0.09775 0.0278,-0.116 -0.10803,-0.209522 -0.26313,-0.181227 -0.47933,-0.478285 -0.57769,-0.793767 -0.0562,-0.180388 -0.0605,-0.224189 -0.0517,-0.526955 0.008,-0.263429 0.0202,-0.35889 0.0618,-0.471999 0.0822,-0.223246 0.19362,-0.392042 0.38951,-0.590159 0.3195,-0.323133 0.77001,-0.49382 1.23772,-0.468945 0.6651,0.03536 1.23019,0.447394 1.45211,1.05877 0.0505,0.139044 0.0567,0.196786 0.0567,0.524543 0,0.327753 -0.006,0.385494 -0.0567,0.524538 -0.12648,0.348441 -0.34562,0.60994 -0.70138,0.83695 -0.003,0.002 0.007,0.04261 0.0216,0.09064 0.0199,0.06471 0.0429,0.0906 0.0889,0.09998 0.13534,0.02762 1.08529,0.182198 1.40053,0.227917 0.39418,0.05717 0.56454,0.127573 0.63681,0.263169 0.0244,0.0458 0.0444,0.07038 0.0444,0.05461 0,-0.05646 0.14748,-0.19522 0.2461,-0.231554 0.0553,-0.02035 0.28331,-0.06477 0.50679,-0.0987 0.40266,-0.06114 1.1833,-0.189961 1.30728,-0.215735 0.0472,-0.0098 0.0718,-0.03572 0.092,-0.09704 0.0152,-0.04601 0.0238,-0.08628 0.0193,-0.0895 -0.38914,-0.272561 -0.58664,-0.518666 -0.71453,-0.89038 -0.0674,-0.19595 -0.0674,-0.753833 0,-0.949783 0.16957,-0.49288 0.55295,-0.872205 1.04426,-1.033233 0.19228,-0.06302 0.24116,-0.06927 0.53431,-0.06832 0.28914,8.03e-4 0.34254,0.0079 0.51388,0.0673 0.49895,0.172894 0.87358,0.547041 1.03767,1.036336 0.062,0.184808 0.0701,0.6811 0.0145,0.891079 -0.0851,0.321716 -0.32336,0.660379 -0.59727,0.849024 -0.12459,0.08582 -0.13293,0.09744 -0.11865,0.165396 0.008,0.0402 0.0223,0.07982 0.0308,0.08805 0.0312,0.0303 2.1346,-1.516127 3.42592,-2.518806 l 1.3311,-1.033555 0.0335,-0.119508 0.0335,-0.119508 -0.14905,-0.100402 c -0.37913,-0.255385 -0.69792,-0.681453 -0.84493,-1.129276 -0.0444,-0.135407 -0.0501,-0.209361 -0.0501,-0.658288 0,-0.552471 0.0175,-0.647595 0.17867,-0.968247 0.14526,-0.289079 0.4609,-0.646302 0.73739,-0.834534 0.16817,-0.114482 0.47803,-0.253739 0.69728,-0.313371 0.28532,-0.0776 0.74259,-0.09022 1.03982,-0.0287 0.85657,0.177297 1.51944,0.786282 1.73602,1.594873 0.0213,0.07937 0.0321,0.268989 0.0323,0.564606 2.7e-4,0.410562 -0.004,0.459315 -0.0595,0.628308 -0.16421,0.503055 -0.4764,0.903871 -0.9432,1.21096 -0.0552,0.03633 -0.0561,0.04153 -0.0258,0.149998 0.0173,0.0618 0.0391,0.117092 0.0485,0.122872 0.0227,0.01405 1.47842,0.256268 2.02,0.336127 0.58863,0.0868 0.76435,0.161883 0.8677,0.370779 l 0.0466,0.09422 0.0296,-0.07155 c 0.0439,-0.105932 0.19078,-0.226785 0.34647,-0.28504 0.0756,-0.0283 0.32171,-0.07812 0.54689,-0.110742 0.40107,-0.05811 2.00753,-0.320905 2.01304,-0.329314 0.0108,-0.01646 0.0801,-0.240261 0.0754,-0.243456 -0.003,-0.0024 -0.0597,-0.04002 -0.12541,-0.08403 -0.27646,-0.185069 -0.59478,-0.543946 -0.74153,-0.835995 -0.16112,-0.320657 -0.1787,-0.4159 -0.17835,-0.966216 2.7e-4,-0.492443 0.002,-0.50813 0.0689,-0.700684 0.11361,-0.326405 0.24986,-0.540048 0.51638,-0.809723 0.32167,-0.325474 0.61668,-0.49559 1.07556,-0.62022 0.23607,-0.06411 0.7212,-0.07183 0.99202,-0.01577 0.81808,0.169334 1.45019,0.721544 1.70732,1.491529 0.0574,0.171823 0.0613,0.21303 0.0613,0.648795 0,0.406271 -0.006,0.486113 -0.0506,0.629171 -0.14339,0.464533 -0.47038,0.906107 -0.86466,1.167642 -0.1476,0.0979 -0.15294,0.11559 -0.0874,0.28952 0.0305,0.08103 2.46786,1.957748 3.66667,2.823274 0.90738,0.655117 1.10302,0.787036 1.11655,0.752889 0.0395,-0.09964 0.0191,-0.138763 -0.13193,-0.252832 -0.25176,-0.19017 -0.44606,-0.457991 -0.5425,-0.747788 -0.0453,-0.13623 -0.0499,-0.195408 -0.0427,-0.552724 l 0.008,-0.400162 0.0991,-0.203159 c 0.12364,-0.253567 0.26883,-0.435966 0.46546,-0.584748 0.51747,-0.391551 1.19653,-0.456188 1.7777,-0.169225 0.33443,0.165131 0.5891,0.43145 0.7588,0.793499 0.0752,0.160422 0.0769,0.171489 0.0852,0.563795 0.008,0.35803 0.003,0.416221 -0.0423,0.552724 -0.0572,0.171911 -0.17337,0.375801 -0.29519,0.51812 -0.0799,0.09339 -0.34706,0.320099 -0.3971,0.337022 -0.0173,0.0058 -0.0166,0.03604 0.002,0.09702 0.0202,0.06587 0.0431,0.09177 0.0893,0.101192 0.13116,0.02677 1.08159,0.181676 1.40053,0.228295 0.37241,0.05443 0.54281,0.119476 0.62054,0.236873 l 0.0469,0.07084 0.0788,-0.0921 c 0.0441,-0.05156 0.12343,-0.108582 0.18016,-0.129547 0.0557,-0.02059 0.3487,-0.07545 0.65105,-0.121888 0.50573,-0.07768 1.00665,-0.160712 1.16338,-0.192839 0.0442,-0.0091 0.0719,-0.03589 0.0896,-0.08687 0.036,-0.103135 0.0385,-0.09811 -0.0924,-0.182945 -0.2488,-0.161217 -0.48889,-0.484166 -0.59998,-0.80703 -0.0674,-0.19595 -0.0674,-0.753833 0,-0.949783 0.23163,-0.673232 0.85343,-1.115881 1.56504,-1.114135 0.68412,0.0016 1.31021,0.437588 1.53225,1.066802 0.051,0.144447 0.0578,0.205259 0.0583,0.517004 4e-4,0.295425 -0.008,0.377643 -0.0493,0.501928 -0.11596,0.346137 -0.31837,0.593242 -0.71146,0.868564 -0.005,0.0032 0.004,0.0435 0.0193,0.0895 0.0203,0.06143 0.0447,0.08714 0.092,0.09682 0.10739,0.02196 1.04695,0.176181 1.39093,0.228303 0.38947,0.05901 0.50097,0.09758 0.59643,0.206302 l 0.0728,0.08293 v 0.800616 c 0,0.72732 -0.004,0.802024 -0.0401,0.816001 -0.0221,0.0085 -0.34741,-0.01891 -0.72301,-0.06086 -0.37561,-0.04194 -0.71656,-0.07609 -0.75767,-0.07589 -0.11204,4.01e-4 -0.14157,0.05061 -0.11014,0.186766 0.0143,0.06186 0.37157,1.688154 0.79399,3.613971 0.42241,1.925822 0.7735,3.520314 0.78019,3.543318 0.0114,0.03922 -0.0345,0.04183 -0.73114,0.04183 -0.57319,0 -0.74567,-0.0068 -0.75365,-0.02986 -0.006,-0.01642 -0.29522,-0.855298 -0.6434,-1.864147 -0.34818,-1.008853 -0.65432,-1.882347 -0.6803,-1.941095 -0.0515,-0.116437 -0.12875,-0.156397 -0.21406,-0.110738 -0.0594,0.03179 -0.0221,-0.06939 -0.71977,1.950095 -0.31792,0.9202 -0.60295,1.743005 -0.63342,1.828454 l -0.0554,0.155357 -0.73178,0.0063 c -0.6727,0.0058 -0.73179,0.0032 -0.73179,-0.03396 0,-0.02216 0.35566,-1.658928 0.79035,-3.637297 0.46352,-2.109581 0.78455,-3.620105 0.77634,-3.652839 -0.0186,-0.07382 -0.0623,-0.07305 -0.82574,0.01461 -0.33522,0.03849 -0.70091,0.06987 -0.81265,0.06971 -0.11174,-2.69e-4 -0.48281,-0.03171 -0.8246,-0.07016 -0.74663,-0.08396 -0.79084,-0.08525 -0.82362,-0.024 -0.0189,0.03544 0.15621,0.869985 0.76385,3.638982 0.43366,1.976149 0.79412,3.617199 0.80102,3.646778 l 0.0126,0.05378 h -0.73783 -0.73782 l -0.25759,-0.746917 c -0.75189,-2.180232 -1.09143,-3.137039 -1.12727,-3.176641 -0.051,-0.05632 -0.15707,-0.05666 -0.20774,-8.03e-4 -0.0328,0.03621 -0.54072,1.471087 -1.23612,3.491871 l -0.15143,0.440036 -1.11072,-0.01578 c -0.6109,-0.0087 -1.36441,-0.01581 -1.67446,-0.01581 h -0.56373 l -0.1112,-0.328604 c -0.17389,-0.513857 -1.35692,-3.92754 -1.55844,-4.496942 -0.10406,-0.294016 -0.20346,-0.535332 -0.23383,-0.567661 -0.0721,-0.07678 -0.19584,-0.07592 -0.26794,0.002 -0.0296,0.03195 -0.11607,0.23363 -0.19212,0.448149 -0.12863,0.362899 -1.28038,3.689739 -1.5748,4.548882 l -0.13105,0.382424 -1.02188,0.0062 -1.02188,0.0062 0.0134,-0.07794 c 0.007,-0.04287 0.49817,-2.282307 1.09068,-4.976528 0.59249,-2.694269 1.07727,-4.932458 1.07727,-4.973798 0,-0.0443 -0.0192,-0.09258 -0.0468,-0.117557 -0.045,-0.04069 -0.0877,-0.03781 -1.06617,0.07227 -0.80546,0.0906 -1.03384,0.109185 -1.08848,0.08856 -0.0503,-0.01899 -0.0885,-0.01883 -0.13999,8.03e-4 -0.0569,0.02147 -0.27134,0.0043 -1.08633,-0.0872 -1.07947,-0.12113 -1.09797,-0.121226 -1.12694,-0.0058 -0.008,0.03307 0.43233,2.089427 1.07667,5.024574 0.59989,2.732716 1.0962,4.987394 1.10289,5.010398 0.0115,0.03938 -0.0478,0.04182 -1.01121,0.04168 l -1.0234,-2.73e-4 -0.69117,-2.001593 c -1.11847,-3.238962 -1.1524,-3.333198 -1.22179,-3.393805 -0.0737,-0.06438 -0.17785,-0.06938 -0.24839,-0.01196 -0.0674,0.0549 -0.0751,0.07618 -1.30532,3.635756 -0.33332,0.964438 -0.60929,1.756351 -0.61325,1.759803 -0.004,0.0036 -0.75972,0.01028 -1.67945,0.01517 l -1.67223,0.009 -0.26828,-0.776792 c -0.82059,-2.376054 -1.07437,-3.08971 -1.11373,-3.131962 -0.0546,-0.05856 -0.14786,-0.06041 -0.20422,-0.0041 -0.0431,0.04315 -0.10958,0.228709 -0.93435,2.610185 l -0.45114,1.302623 -0.73185,0.0063 c -0.57722,0.005 -0.73193,0 -0.73218,-0.02388 -1.8e-4,-0.01662 0.35583,-1.652004 0.79113,-3.634182 0.49505,-2.254289 0.78591,-3.626025 0.77665,-3.662885 -0.0194,-0.07743 -0.0566,-0.07692 -0.82652,0.01152 -0.33522,0.03849 -0.70091,0.06987 -0.81265,0.06971 -0.11173,-2.72e-4 -0.48281,-0.03171 -0.82459,-0.07016 -0.74523,-0.08381 -0.79089,-0.08517 -0.82333,-0.02456 -0.0186,0.03468 0.1614,0.891271 0.76214,3.627422 0.43256,1.970092 0.79384,3.61139 0.80286,3.647328 l 0.0164,0.06534 h -0.73966 -0.73966 l -0.40155,-1.165193 c -0.70284,-2.039481 -0.94357,-2.713793 -0.98524,-2.759838 -0.0538,-0.05945 -0.14641,-0.04608 -0.20236,0.02922 -0.0393,0.05296 -0.34985,0.928991 -1.13514,3.202664 l -0.23528,0.681187 -0.73802,0.0063 -0.73803,0.0063 z m 12.90719,-5.061464 c 0.56111,-2.563421 1.02013,-4.706479 1.02004,-4.762345 -9e-5,-0.05587 -0.0101,-0.101582 -0.0224,-0.101582 -0.0122,0 -0.43975,0.27619 -0.95008,0.613761 -0.91335,0.604139 -0.93651,0.621448 -1.47762,1.104433 -0.82094,0.732744 -1.03995,0.937617 -1.0745,1.005152 -0.028,0.05478 0.0463,0.414383 0.71281,3.447737 0.40926,1.862617 0.75027,3.379158 0.7578,3.370094 0.008,-0.0091 0.47278,-2.113828 1.0339,-4.67725 z m 16.06594,1.258675 c 0.4019,-1.831714 0.72497,-3.348491 0.71795,-3.370616 -0.0194,-0.06122 -0.27157,-0.301373 -0.99296,-0.945765 l -0.65729,-0.587124 -0.92536,-0.611469 c -0.53701,-0.354852 -0.93696,-0.604288 -0.95302,-0.594366 -0.0182,0.01124 -0.0229,0.05767 -0.0137,0.135504 0.008,0.06512 0.47153,2.20242 1.0307,4.749553 0.55918,2.547133 1.01753,4.640831 1.01857,4.652668 0.006,0.06466 0.10703,-0.383688 0.77506,-3.428385 z M 40.722096,18.263601 c 0,-0.787101 0.007,-1.463713 0.0145,-1.503583 0.0139,-0.0697 0.0648,-0.09596 1.32055,-0.682348 8.34154,-3.895086 17.0461,-7.91369 18.40547,-8.497198 l 0.3887,-0.166849 0.27871,0.129884 c 0.15329,0.07144 4.68313,2.160792 10.06632,4.64301 l 9.78761,4.51313 0.006,1.50036 c 0.006,1.421558 0.004,1.499742 -0.0358,1.488624 -0.0231,-0.0065 -1.01539,-0.433759 -2.20508,-0.949567 -7.2667,-3.150573 -16.71011,-7.224378 -17.61593,-7.599355 l -0.27549,-0.114041 -1.12275,0.483912 c -0.61751,0.266151 -4.04289,1.742311 -7.61196,3.280358 -3.56907,1.538047 -7.58899,3.270817 -8.93315,3.850603 -1.34416,0.579787 -2.4493,1.054155 -2.45586,1.054155 -0.007,0 -0.012,-0.643995 -0.012,-1.431095 z"
       id="path7055"
       sodipodi:nodetypes="cscsscssccscssscscssssscccccccsscssccscssccccccssccccssssccccccssccccscsscssscccsccsscccccccccccccccccccccccccsccccccccccccccccccccccccccccccccccccsssscccccccsscccccccccccccccccscssscscccccccsscccscccsscscccccccccccccccccccccccccssscccccscsscscccscsssccccssscscccccssssccccccssssssccccsssscccccccsccccccccssccccsccsccsscssscscssssccccccsscsssccssscscccccccccccssscsccsccsssssscsssssssscscssscscscccccsssscccsssssssccscsccscsccscccscscssscscsccssccsssccsccssssscssssssccssssccsccssscsssccssccsccccssscscscsssscssssscssscscscsccccssssccscssssssccccssssscccscccsssscccsccsccsscscscsscccsscscccccssssssccccsscsscsccccccscsscccsscsssscc" />
  </g>
</svg>
