<?xml version="1.0" encoding="UTF-8" standalone="no"?>
<svg
   width="102"
   height="80"
   viewBox="0 0 253.725 199"
   fill="none"
   version="1.1"
   id="svg4"
   sodipodi:docname="2.html"
   inkscape:version="1.1.2 (0a00cf5339, 2022-02-04)"
   xmlns:inkscape="http://www.inkscape.org/namespaces/inkscape"
   xmlns:sodipodi="http://sodipodi.sourceforge.net/DTD/sodipodi-0.dtd"
   xmlns="http://www.w3.org/2000/svg"
   xmlns:svg="http://www.w3.org/2000/svg">
  <defs
     id="defs8" />
  <sodipodi:namedview
     id="namedview6"
     pagecolor="#ffffff"
     bordercolor="#666666"
     borderopacity="1.0"
     inkscape:pageshadow="2"
     inkscape:pageopacity="0.0"
     inkscape:pagecheckerboard="0"
     showgrid="false"
     inkscape:zoom="9.775"
     inkscape:cx="50.690537"
     inkscape:cy="39.948849"
     inkscape:window-width="1920"
     inkscape:window-height="1016"
     inkscape:window-x="0"
     inkscape:window-y="0"
     inkscape:window-maximized="1"
     inkscape:current-layer="svg4" />
  <path
     d="m 119.46745,198.202 c -2.5822,-0.13 -7.6937,-0.808 -11.6034,-1.54 -7.4887,-1.402 -15.208403,-3.82 -21.891703,-6.857 -1.8154,-0.825 -5.6111,-2.692 -6.7337,-3.313 -4.5141,-2.495 -9.2508,-5.55 -12.6185,-8.139 -0.3902,-0.3 -0.9821,-0.753 -1.3151,-1.007 -3.6668,-2.796 -10.7428,-9.518 -13.7997,-13.108 -5.0329,-5.911 -8.7186,-11.232 -12.3518,-17.833 -0.6371,-1.157 -2.653,-5.253 -3.38888,-6.886 -3.78531,-8.397 -6.42121,-17.8 -7.72088,-27.541 -0.55302,-4.145 -0.7007,-6.818 -0.7007,-12.686 0,-5.8576 0.1474,-8.5317 0.69845,-12.6864 1.11209,-8.382 3.29012,-16.7481 6.30399,-24.2145 1.17185,-2.9029 3.46132,-7.766 4.80802,-10.2125 1.9039,-3.4588 3.4302,-5.9186 6.126,-9.8724 1.2271,-1.7997 3.9908,-5.3313 6.2552,-7.993 3.0218,-3.552 10.1158,-10.2881 13.7703,-13.0755 0.333,-0.2541 0.9249,-0.7072 1.3151,-1.0071 2.8497,-2.1902 7.7055,-5.3806 11.0714,-7.2743 1.7486,-0.9837 2.1761,-1.2087 4.4905,-2.363 8.3158,-4.14761 16.257,-6.84413 25.295203,-8.58929 2.8352,-0.54745 4.3647,-0.77941 9.5922,-1.454868 2.0829,-0.26914 16.3633,-0.266192 18.5653,0.002948 11.335,1.38989 18.484,3.13234 27.495,6.70199 2.915,1.1544 7.866,3.47142 10.336,4.83682 4.568,2.5254 8.49,5.0491 12.278,7.9003 0.798,0.6012 1.634,1.2297 1.856,1.3968 3.238,2.4309 10.644,9.4846 13.57,12.9241 2.264,2.6618 5.028,6.1933 6.255,7.9931 2.696,3.9538 4.222,6.4136 6.126,9.8723 0.637,1.1576 2.653,5.2537 3.389,6.8863 3.779,8.3838 6.423,17.8157 7.721,27.5408 0.553,4.1449 0.7,6.8186 0.7,12.6863 0,5.8571 -0.148,8.5571 -0.691,12.6091 -1.151,8.587 -3.281,16.786 -6.311,24.292 -1.172,2.903 -3.461,7.766 -4.808,10.212 -3.633,6.601 -7.319,11.922 -12.352,17.833 -3.057,3.59 -10.133,10.312 -13.8,13.108 -0.333,0.254 -0.924,0.707 -1.315,1.007 -3.367,2.589 -8.104,5.644 -12.618,8.139 -5.237,2.895 -13.106,6.151 -19.036,7.877 -6.532,1.901 -14.568,3.373 -20.651,3.783 -2.006,0.135 -11.9348,0.17 -14.3113,0.05 z m -25.659603,-44.49 c 0.4366,-0.362 0.9818,-0.884 1.2114,-1.16 l 0.4175,-0.503 -1.2842,-1.431 c -0.7064,-0.787 -1.4547,-1.621 -1.6629,-1.853 l -0.3786,-0.421 1.1804,-1.135 c 0.8362,-0.804 1.304,-1.404 1.604,-2.054 0.9308,-2.02 0.3915,-4.231 -1.4816,-6.075 -1.1957,-1.177 -2.1014,-1.625 -3.4447,-1.703 -1.9108,-0.111 -2.8256,0.381 -5.7102,3.07 -2.0276,1.89 -2.1543,2.013 -2.1543,2.089 0,0.075 0.9015,1.095 4.1818,4.729 1.4917,1.652 3.535,3.927 4.5407,5.054 1.0058,1.128 1.9092,2.05 2.0077,2.05 0.0983,0 0.5363,-0.296 0.973,-0.657 z m -4.2938,-8.277 c -1.2531,-1.314 -2.7681,-3.087 -2.7681,-3.241 0,-0.165 0.9638,-0.975 1.4983,-1.259 0.8793,-0.468 2.1394,0.047 3.0306,1.24 0.9525,1.275 0.8535,2.148 -0.3786,3.337 l -0.681,0.658 z m 13.288403,0.364 c 0.4013,-0.204 0.9912,-0.626 1.3108,-0.937 0.479,-0.466 0.5535,-0.617 0.4237,-0.86 -0.0865,-0.161 -0.3647,-0.904 -0.6184,-1.649 -0.3488,-1.026 -0.4142,-1.382 -0.2687,-1.463 0.1055,-0.06 0.8534,-0.598 1.6618,-1.197 2.188,-1.62 2.0327,-1.574 2.8994,-0.844 1.4383,1.212 2.2487,1.402 3.2595,0.764 0.5624,-0.355 1.4306,-1.334 1.4137,-1.594 -0.0114,-0.191 -12.922303,-9.796 -13.165903,-9.796 -0.2554,0 -1.8398,1.036 -2.6558,1.736 l -0.5909,0.507 2.5771,7.734 c 1.417303,4.254 2.609803,7.787 2.649803,7.852 0.1172,0.189 0.3292,0.141 1.1041,-0.253 z m -0.5023,-7.82 c -0.045,-0.073 -0.2143,-0.54 -0.3765,-1.038 -0.2419,-0.743 -0.8288,-2.282 -1.6431,-4.309 -0.1206,-0.3 -0.1131,-0.299 0.2486,0.018 0.2049,0.179 1.2432,1.043 2.3068,1.92 1.0637,0.876 1.9487,1.635 1.9666,1.685 0.0567,0.159 -2.4166,1.865 -2.5024,1.726 z m 15.412,-2.417 c 0.5399,-0.303 1.1358,-0.703 1.324,-0.889 l 0.3424,-0.339 -1.4487,-2.474 -1.4488,-2.474 0.7197,-0.424 c 1.1914,-0.702 1.3635,-0.635 3.7994,1.48 1.8982,1.649 2.3078,1.812 3.2997,1.315 0.7799,-0.392 1.5105,-1.202 1.6681,-1.851 0.085,-0.35 0.0392,-0.421 -0.3293,-0.513 -0.5299,-0.133 -1.0566,-0.496 -2.5155,-1.735 -0.6272,-0.532 -1.5171,-1.124 -1.9774,-1.315 -0.6344,-0.263 -0.812,-0.405 -0.7338,-0.587 0.6864,-1.601 0.6838,-2.846 -0.008,-4.262 -1.3704,-2.801 -4.0208,-3.7 -6.7965,-2.306 -1.4607,0.733 -5.2007,3.036 -5.2007,3.201 0,0.09 0.5702,1.144 1.2672,2.342 1.8849,3.238 3.2818,5.653 4.5707,7.901 1.5998,2.791 2.0531,3.481 2.2857,3.481 0.1107,0 0.6428,-0.248 1.1828,-0.551 z m -3.7757,-10.59 c -0.5743,-1.003 -1.0442,-1.896 -1.0442,-1.985 0,-0.089 0.5151,-0.416 1.1445,-0.728 1.3803,-0.682 1.8324,-0.64 2.629,0.242 1.1695,1.294 1.0744,2.552 -0.2601,3.436 -1.5103,1.001 -1.2949,1.085 -2.4693,-0.965 z m -37.105103,7.513 c 1.1416,-0.94 3.0561,-2.505 4.2546,-3.478 2.769,-2.247 4.3298,-3.581 4.4002,-3.76 0.0303,-0.077 -0.0782,-0.292 -0.2415,-0.477 -0.1629,-0.186 -0.3969,-0.488 -0.5194,-0.671 -0.1224,-0.184 -0.7967,-1.145 -1.4985,-2.136 -1.1691,-1.652 -3.1095,-4.552 -4.8679,-7.277 -4.9918,-7.736 -11.7673,-20.4221 -17.063,-31.9481 -0.9969,-2.1699 -1.8381,-3.9724 -1.8693,-4.0057 -0.0302,-0.0333 -0.3791,0.2105 -0.7732,0.5415 -0.3941,0.3311 -0.9457,0.7761 -1.2259,0.9888 -0.5072,0.3852 -3.5725,2.8891 -7.0612,5.768 l -1.8341,1.5135 0.2321,0.5364 c 0.1278,0.2951 0.3443,0.7976 0.4811,1.1167 0.364,0.8477 1.7246,3.8597 2.1492,4.7574 0.2014,0.4254 0.823,1.7368 1.3818,2.9142 0.5588,1.1774 1.016,2.1725 1.016,2.2113 0,0.2777 6.0152,12.045 7.2868,14.255 0.417,0.725 0.7582,1.339 0.7582,1.364 0,0.041 1.447,2.54 3.1724,5.479 1.7595,2.997 4.6082,7.36 7.2549,11.111 0.8596,1.218 1.6911,2.419 1.848,2.669 0.1682,0.268 0.3583,0.409 0.4641,0.345 0.0987,-0.06 1.113,-0.878 2.2546,-1.818 z m 53.962403,-4.111 c 0.842,-0.415 0.987,-0.544 0.917,-0.814 -0.142,-0.54 -0.465,-3.2 -0.396,-3.248 0.54,-0.369 4.364,-1.981 4.453,-1.877 0.066,0.078 0.449,0.534 0.849,1.014 0.401,0.48 0.937,0.959 1.191,1.064 0.654,0.271 1.637,0.097 2.363,-0.417 1.025,-0.726 1.035,-0.832 0.171,-1.796 -0.652,-0.729 -3.749,-4.212 -8.849,-9.954 l -1.28,-1.441 -1.102,0.397 c -1.132,0.408 -2.604,1.225 -2.604,1.445 0,0.068 0.172,1.402 0.381,2.965 0.21,1.563 0.455,3.575 0.544,4.47 0.089,0.896 0.335,2.905 0.546,4.465 0.212,1.56 0.385,3.066 0.385,3.348 0,0.898 0.127,1.046 0.815,0.954 0.338,-0.046 1.065,-0.304 1.615,-0.575 z m -0.254,-8.562 c -0.102,-0.777 -0.317,-2.107 -0.477,-2.954 -0.161,-0.848 -0.277,-1.557 -0.258,-1.577 0.019,-0.018 0.486,0.532 1.037,1.224 0.552,0.692 1.41,1.737 1.908,2.321 0.498,0.584 0.881,1.079 0.851,1.099 -0.03,0.021 -0.69,0.321 -1.466,0.668 l -1.411,0.632 z m 19.824,0.735 c 0.706,-0.223 1.702,-0.615 2.212,-0.872 1.012,-0.509 2.947,-1.734 3.081,-1.951 0.094,-0.151 -1.611,-5.265 -2.107,-6.319 -0.628,-1.337 -1.665,-1.431 -4.455,-0.405 l -1.624,0.597 0.05,0.693 c 0.026,0.382 0.173,0.938 0.324,1.235 0.36,0.714 0.888,0.896 1.834,0.633 0.402,-0.111 0.835,-0.231 0.963,-0.266 0.171,-0.047 0.344,0.274 0.658,1.221 0.233,0.706 0.425,1.364 0.425,1.461 0,0.098 -0.396,0.372 -0.88,0.609 -0.707,0.345 -1.099,0.432 -1.986,0.436 -0.972,0.006 -1.183,-0.047 -1.752,-0.442 -0.813,-0.563 -1.576,-1.774 -2.194,-3.481 -0.4,-1.105 -0.483,-1.568 -0.495,-2.766 -0.015,-1.353 0.012,-1.478 0.439,-2.084 0.279,-0.397 0.778,-0.816 1.301,-1.091 0.822,-0.434 0.904,-0.446 2.663,-0.386 l 1.815,0.062 0.268,-0.55 c 0.16,-0.328 0.27,-0.923 0.274,-1.478 l 0.007,-0.928 -1.157,-0.22 c -1.715,-0.325 -3.851,-0.045 -5.401,0.708 -2.611,1.269 -4.093,4.007 -3.833,7.083 0.272,3.218 2.408,7.156 4.463,8.226 1.526,0.795 3.176,0.884 5.108,0.275 z m -51.069903,-2.914 c 11.377803,-1.96 20.407503,-9.129 22.049903,-17.507 0.3507,-1.7889 0.3514,-4.7703 0.002,-6.6752 -0.4214,-2.2952 -1.6747,-5.5331 -2.855,-7.3761 -2.1101,-3.2948 -5.063,-5.3842 -8.6147,-6.0956 -1.9164,-0.3838 -3.2012,-0.4414 -6.2658,-0.2812 -2.1247,0.1112 -3.5311,0.2506 -9.050603,0.8981 -1.6117,0.189 -3.3687,0.0903 -4.5161,-0.2538 -2.2583,-0.6775 -3.2225,-4.1462 -1.9023,-6.8437 1.9489,-3.9821 9.0553,-7.1369 15.277703,-6.7823 l 1.7428,0.0991 -0.0412,-4.9186 -0.0409,-4.9185 -3.6357,0.0087 c -3.867103,0.0117 -5.090903,0.1329 -8.569303,0.8529 -5.8115,1.2025 -8.5539,2.6415 -12.3167,6.4628 -2.9387,2.9843 -4.881,6.2733 -5.9061,10.0012 -0.494,1.7964 -0.5106,1.9518 -0.5125,4.7961 -0.0017,2.5918 0.0408,3.1042 0.3617,4.3319 0.5719,2.1892 0.9317,3.1613 1.5821,4.275 2.7164,4.651 8.4462,6.877 16.929,6.5766 1.4466,-0.0512 3.4655,-0.211 4.4866,-0.3549 1.1771,-0.166 2.932403,-0.2662 4.796103,-0.2739 2.496,-0.0087 3.0652,0.0317 3.7728,0.2783 1.7028,0.593 2.6477,2.0276 2.6477,4.02 0,1.7704 -0.7589,3.3041 -2.1976,4.4411 -1.9717,1.559 -4.2826,2.597 -7.162403,3.218 -1.7062,0.369 -2.1605,0.401 -5.6083,0.404 l -3.7519,0.003 1e-4,1.638 c 0,0.901 0.0461,3.528 0.1024,5.838 l 0.1024,4.2 0.5554,0.104 c 2.3897,0.449 5.2872,0.391 8.5391,-0.169 z m 68.029903,-2.018 c 1.323,-0.505 2.617,-1.588 3.103,-2.598 0.75,-1.558 0.698,-3.186 -0.22,-6.918 -0.655,-2.661 -1.554,-6.3934 -1.692,-7.0212 -0.095,-0.437 -0.114,-0.4444 -0.901,-0.3592 -0.808,0.0872 -2.395,0.5304 -2.634,0.735 -0.07,0.0605 0.047,0.7974 0.26,1.6374 0.214,0.84 0.633,2.537 0.931,3.771 1.492,6.176 1.496,6.21 0.885,7.213 -0.506,0.829 -2.184,1.232 -3.117,0.75 -0.858,-0.444 -1.13,-1.154 -2.309,-6.033 -0.616,-2.551 -1.18,-4.752 -1.254,-4.892 -0.074,-0.14 -0.36,-0.443 -0.635,-0.675 -0.435,-0.366 -0.592,-0.409 -1.202,-0.331 -1.097,0.14 -1.863,0.403 -1.863,0.641 0,0.119 0.454,2.083 1.007,4.363 0.554,2.281 1.112,4.581 1.24,5.112 0.516,2.151 1.531,3.712 2.895,4.454 1.138,0.619 1.457,0.687 2.981,0.632 1.064,-0.038 1.66,-0.151 2.526,-0.481 z m 11.012,-2.444 c 0.355,-0.18 0.404,-0.339 0.603,-1.926 l 0.216,-1.73 0.712,-0.092 c 0.391,-0.05 1.474,-0.211 2.406,-0.357 l 1.694,-0.265 0.645,1.326 c 0.376,0.773 0.812,1.435 1.047,1.588 0.569,0.373 1.585,0.326 2.538,-0.117 0.961,-0.447 1.037,-0.058 -0.733,-3.719 -0.7,-1.447 -1.64,-3.396 -2.09,-4.332 -0.45,-0.936 -1.414,-2.938 -2.141,-4.4483 l -1.323,-2.7462 h -0.772 c -0.821,0 -2.954,0.3993 -3.143,0.5885 -0.106,0.1049 -0.462,2.2146 -1.68,9.932 -0.262,1.659 -0.576,3.619 -0.698,4.354 -0.375,2.27 -0.438,2.144 1.055,2.141 0.718,-10e-4 1.446,-0.087 1.663,-0.197 z m 1.327,-7.265 c 0.181,-1.296 0.53,-4.692 0.533,-5.198 0.003,-0.494 0.103,-0.34 0.783,1.214 0.429,0.979 0.873,2.032 0.989,2.342 0.115,0.309 0.325,0.786 0.466,1.059 0.141,0.273 0.227,0.525 0.19,0.562 -0.07,0.07 -2.535,0.523 -2.848,0.524 -0.118,0 -0.158,-0.179 -0.113,-0.503 z m 17.598,4.999 c 0.326,-0.076 0.624,-0.169 0.663,-0.207 0.038,-0.039 -0.015,-1.181 -0.115,-2.539 l -0.184,-2.469 0.652,-2.078 c 0.36,-1.142 0.902,-2.877 1.206,-3.8559 0.305,-0.9786 0.757,-2.3919 1.007,-3.1409 0.542,-1.6271 0.524,-1.9733 -0.108,-2.1532 -0.577,-0.1642 -2.287,-0.0087 -2.602,0.2379 -0.262,0.204 -1.328,3.6983 -1.841,6.0361 l -0.335,1.522 -0.568,-1.444 c -0.853,-2.1711 -2.264,-4.9582 -2.709,-5.3513 -0.302,-0.2671 -0.58,-0.3473 -1.197,-0.3447 -0.918,0.003 -2.119,0.4798 -2.119,0.8395 0,0.1315 1.107,2.415 2.46,5.0745 l 2.46,4.835 0.181,2.398 c 0.099,1.319 0.208,2.485 0.242,2.592 0.074,0.229 1.99,0.261 2.908,0.048 z m -55.592,-11.6393 c 4.507,-1.7506 10.355,-4.0969 11.653,-4.6753 0.271,-0.1206 0.892,-0.3961 1.381,-0.6124 0.503,-0.222 0.89,-0.4924 0.89,-0.621 0,-0.1253 -0.148,-0.5643 -0.328,-0.9755 -0.181,-0.4112 -0.487,-1.1306 -0.68,-1.5986 -0.193,-0.468 -0.887,-2.1389 -1.543,-3.7131 -1.787,-4.2897 -2.112,-5.0777 -4.316,-10.4817 -3.493,-8.5639 -6.93,-17.1739 -10.298,-25.7981 -0.532,-1.3615 -1.227,-3.1368 -1.545,-3.9452 -0.318,-0.8084 -0.885,-2.2616 -1.261,-3.2293 -0.376,-0.9677 -0.769,-1.7926 -0.873,-1.8331 -0.204,-0.079 -0.983,0.1742 -3.678,1.1931 -0.936,0.354 -1.98,0.7372 -2.32,0.8515 -0.341,0.1144 -1.455,0.5311 -2.4758,0.926 -1.0211,0.3949 -2.4831,0.9479 -3.2489,1.2289 -4.4744,1.6415 -5.332,1.9459 -5.4815,1.9459 -0.0911,0 -0.1656,0.0869 -0.1656,0.1934 5e-4,0.497 4.3254,13.1564 6.0124,17.5984 1.7591,4.6322 2.2392,5.8749 2.5697,6.6526 0.1988,0.468 0.7287,1.756 1.1767,2.8622 1.072,2.6465 1.636,4.0119 1.906,4.6135 0.121,0.2706 0.477,1.0837 0.791,1.807 2.452,5.6603 5.404,11.974 7.937,16.9774 0.753,1.4877 0.924,1.7257 1.189,1.6517 0.171,-0.048 1.389,-0.506 2.708,-1.0183 z m 45.485,-12.1934 c 5.369,-0.1975 7.477,-0.5095 10.145,-1.5017 1.332,-0.4953 1.241,-0.1943 1.003,-3.3131 -0.08,-1.0547 -0.186,-2.6487 -0.234,-3.5421 -0.251,-4.6314 -0.252,-4.6414 -0.555,-4.6414 -0.156,0 -0.327,0.0696 -0.38,0.1548 -0.052,0.0849 -0.352,0.156 -0.666,0.1574 -0.314,0.0012 -1.999,0.1751 -3.743,0.386 -5.006,0.6051 -7.127,0.507 -10.211,-0.4719 -3.454,-1.0965 -6.78,-3.4839 -9.141,-6.5621 -1.221,-1.5926 -2.384,-3.9817 -2.865,-5.8863 -0.443,-1.7541 -0.41,-7.5241 0.055,-9.5362 0.367,-1.5883 1.157,-3.2657 1.924,-4.0832 1.192,-1.2704 3.186,-2.213 5.285,-2.4975 1.271,-0.1721 7.092,-0.084 7.798,0.1183 0.341,0.0978 0.348,0.0737 0.349,-1.1948 0.003,-2.5888 -0.358,-9.0315 -0.511,-9.1307 -0.085,-0.0552 -0.858,-0.2456 -1.718,-0.4227 -6.132,-1.2634 -12.277,-1.1329 -16.367,0.3475 -2.927,1.0596 -4.592,2.092 -6.617,4.1031 -3.153,3.1317 -4.828,6.8446 -5.661,12.5464 -0.395,2.7049 -0.256,7.1399 0.307,9.8274 1.365,6.5136 4.784,12.7004 9.623,17.4139 5.271,5.134 10.99,7.7654 17.075,7.8568 0.638,0.0087 2.936,-0.0478 5.106,-0.1276 z M 51.259147,73.3141 c 3.6429,-1.7047 6.3924,-6.6533 6.399,-11.5173 0.0029,-2.5996 -0.5916,-4.4066 -1.8732,-5.6883 -0.8903,-0.8903 -1.6871,-1.2112 -3.0172,-1.2153 -1.8125,-0.006 -3.1983,0.6831 -4.8715,2.4211 -2.4094,2.5027 -3.7644,5.9689 -3.7697,9.643 -0.0029,2.0956 0.3493,3.4602 1.2408,4.8073 0.5504,0.8317 1.573,1.6515 2.4689,1.9794 0.8025,0.2936 2.2709,0.1093 3.4229,-0.4299 z M 121.42015,38.7334 c 1.3984,-0.2494 3.5977,-1.1153 4.7117,-1.8549 1.1949,-0.7931 2.7679,-2.4441 3.3909,-3.5591 1.355,-2.4218 1.257,-5.2838 -0.255,-7.4617 -1.124,-1.6189 -2.544,-2.6616 -4.6779,-3.4337 -3.34,-1.2086 -6.9269,-0.9469 -10.4212,0.7602 -3.3411,1.6323 -5.5995,4.7958 -5.6063,7.8527 -0.002,1.0102 0.6145,2.9147 1.2368,3.8192 1.3686,1.9893 3.9724,3.5162 6.8062,3.9914 0.8859,0.1486 3.7187,0.0817 4.8148,-0.1141 z"
     fill="white"
     id="path2"
     style="fill:#ffffff" />
</svg>
