<?xml version="1.0" encoding="UTF-8" standalone="no"?>
<!-- Created with Inkscape (http://www.inkscape.org/) -->

<svg
   width="83.717812mm"
   height="23.426968mm"
   viewBox="0 0 83.717812 23.426968"
   version="1.1"
   id="svg56386"
   inkscape:version="1.1.2 (0a00cf5339, 2022-02-04)"
   sodipodi:docname="20.html"
   xmlns:inkscape="http://www.inkscape.org/namespaces/inkscape"
   xmlns:sodipodi="http://sodipodi.sourceforge.net/DTD/sodipodi-0.dtd"
   xmlns="http://www.w3.org/2000/svg"
   xmlns:svg="http://www.w3.org/2000/svg">
  <sodipodi:namedview
     id="namedview56388"
     pagecolor="#ffffff"
     bordercolor="#666666"
     borderopacity="1.0"
     inkscape:pageshadow="2"
     inkscape:pageopacity="0.0"
     inkscape:pagecheckerboard="0"
     inkscape:document-units="mm"
     showgrid="false"
     inkscape:zoom="0.69664703"
     inkscape:cx="207.42212"
     inkscape:cy="478.72163"
     inkscape:window-width="1920"
     inkscape:window-height="1016"
     inkscape:window-x="0"
     inkscape:window-y="0"
     inkscape:window-maximized="1"
     inkscape:current-layer="layer1" />
  <defs
     id="defs56383" />
  <g
     inkscape:label="Capa 1"
     inkscape:groupmode="layer"
     id="layer1"
     transform="translate(-50.05158,-21.708511)">
    <g
       aria-label="D a n i e l"
       id="text9287"
       style="font-size:34.9311px;line-height:1.25;letter-spacing:4.47675px;word-spacing:0px;stroke-width:1.45546;fill:#ffffff"
       transform="translate(39.175124,-74.357111)">
      <path
         id="path54469"
         d="m 70.375072,101.98887 h 0.600892 v 5.0815 h -0.600892 z m -4.826573,3.10245 v 0.29392 h -2.762823 q 0.03917,0.62049 0.372291,0.94706 0.336379,0.32331 0.934008,0.32331 0.346169,0 0.669478,-0.0849 0.326572,-0.0849 0.646619,-0.25473 v 0.56824 q -0.32331,0.13716 -0.662952,0.20901 -0.339634,0.0718 -0.689065,0.0718 -0.87522,0 -1.387947,-0.50946 -0.509455,-0.50945 -0.509455,-1.37814 0,-0.89808 0.483333,-1.42386 0.486596,-0.52905 1.309562,-0.52905 0.738055,0 1.165872,0.47679 0.431079,0.47354 0.431079,1.28997 z m -0.600901,-0.17635 q -0.0064,-0.49312 -0.277591,-0.78705 -0.267784,-0.29391 -0.711933,-0.29391 -0.50292,0 -0.806633,0.28412 -0.30045,0.28412 -0.346169,0.8001 z m -8.226216,-1.50224 h 0.6009 v 3.65764 h -0.6009 z m 0,-1.42386 h 0.6009 v 0.76091 h -0.6009 z m -5.03885,2.87385 v 2.20765 H 51.08164 v -2.18806 q 0,-0.51925 -0.202478,-0.77725 -0.202479,-0.25799 -0.607427,-0.25799 -0.486595,0 -0.76745,0.31025 -0.280854,0.31025 -0.280854,0.84582 v 2.06723 h -0.604163 v -3.65764 h 0.604163 v 0.56824 q 0.21554,-0.32984 0.506192,-0.49313 0.293915,-0.16329 0.676004,-0.16329 0.630286,0 0.953595,0.39189 0.32331,0.38862 0.32331,1.14628 z m -9.316967,0.36902 q -0.728267,0 -1.009112,0.16656 -0.280863,0.16655 -0.280863,0.56824 0,0.32004 0.209014,0.50946 0.212267,0.18615 0.574769,0.18615 0.499657,0 0.800107,-0.35271 0.303713,-0.35597 0.303713,-0.9438 v -0.1339 z m 1.198529,-0.24819 v 2.08682 h -0.600901 v -0.55519 q -0.205741,0.33311 -0.512717,0.49313 -0.306986,0.15676 -0.751126,0.15676 -0.561708,0 -0.894816,-0.31352 -0.329835,-0.31677 -0.329835,-0.84582 0,-0.61723 0.411483,-0.93074 0.414746,-0.31351 1.234449,-0.31351 h 0.842562 v -0.0588 q 0,-0.41474 -0.274319,-0.64008 -0.271056,-0.2286 -0.764186,-0.2286 -0.313512,0 -0.61069,0.0751 -0.297187,0.0751 -0.571506,0.22533 v -0.55511 q 0.329835,-0.12737 0.640084,-0.18942 0.310248,-0.0653 0.604163,-0.0653 0.793572,0 1.185468,0.41148 0.391887,0.41148 0.391887,1.24751 z m -11.165387,-2.24683 v 3.79152 h 0.796844 q 1.009112,0 1.476111,-0.4572 0.470272,-0.4572 0.470272,-1.44345 0,-0.97973 -0.470272,-1.43367 -0.466999,-0.4572 -1.476111,-0.4572 z m -0.65968,-0.54211 h 1.35528 q 1.417341,0 2.080284,0.59109 0.662943,0.58784 0.662943,1.84189 0,1.26057 -0.666206,1.85167 -0.666215,0.59111 -2.077021,0.59111 h -1.35528 z M 10.97052,119.41659 c 0.01754,-0.0458 1.91e-4,-0.076 -0.04363,-0.076 -0.0439,0 -0.06126,0.0302 -0.04363,0.076 0.01609,0.0418 0.03572,0.076 0.04363,0.076 0.0082,0 0.02763,-0.0342 0.04363,-0.076 z m 1.653449,-0.63626 c 0,-0.0262 0.03127,-0.0476 0.06953,-0.0476 0.03827,0 0.465718,-0.11612 0.949868,-0.25806 0.484161,-0.14193 1.028472,-0.29923 1.209582,-0.34955 0.54543,-0.15153 1.551978,-0.44756 2.086992,-0.61377 0.276936,-0.0861 0.514017,-0.14594 0.526833,-0.13313 0.01282,0.0128 -0.447576,0.33424 -1.023109,0.71424 l -1.046422,0.69093 -0.690092,0.003 c -0.379553,0.002 -1.00355,0.0116 -1.386666,0.0223 -0.414964,0.0116 -0.696564,1.9e-4 -0.696564,-0.0282 z m -0.759897,-0.52141 c 0,-0.0131 0.07735,-0.19111 0.171921,-0.3956 0.09456,-0.20449 0.251496,-0.55417 0.348741,-0.77707 0.09725,-0.2229 0.233836,-0.53066 0.303531,-0.68391 0.06971,-0.15324 0.336407,-0.75736 0.592684,-1.34248 0.256277,-0.58512 0.518199,-1.17784 0.582059,-1.31715 0.132802,-0.28971 0.660799,-1.48776 1.194467,-2.71029 0.200697,-0.45974 0.441959,-1.00052 0.53614,-1.20173 0.09419,-0.20121 0.171249,-0.37732 0.171249,-0.39134 0,-0.014 0.07144,-0.17995 0.158769,-0.36872 0.248106,-0.53638 0.592956,-1.31754 0.77772,-1.76169 0.153588,-0.36923 0.445986,-1.02722 0.810432,-1.82376 0.284254,-0.62125 0.380789,-0.83945 0.380789,-0.8607 0,-0.012 0.195362,-0.46155 0.434143,-0.99902 0.416427,-0.93735 0.525833,-1.10711 0.73392,-1.13887 0.05008,-0.007 0.257976,-0.0689 0.462018,-0.13619 0.415437,-0.13697 1.57182,-0.51045 3.145294,-1.01584 0.578541,-0.18582 1.074371,-0.32397 1.101848,-0.30698 0.02745,0.017 0.04999,0.0594 0.04999,0.0944 0,0.0349 0.04563,0.15785 0.101316,0.27319 0.05572,0.11534 0.101326,0.23031 0.101326,0.25549 0,0.0252 0.104834,0.28274 0.232963,0.57237 0.12813,0.28962 0.381062,0.87993 0.562072,1.31181 0.181019,0.43187 0.383934,0.90558 0.450939,1.05269 0.06699,0.14711 0.121831,0.27604 0.121831,0.28651 0,0.0105 0.134183,0.32325 0.298187,0.69506 0.164004,0.37182 0.451475,1.04078 0.638829,1.48658 0.371146,0.88317 0.506292,1.19178 0.615943,1.40654 l 0.07153,0.14003 -1.573165,-0.0134 -1.573156,-0.0134 -0.254513,-0.58259 c -0.139982,-0.32042 -0.369592,-0.85615 -0.510246,-1.1905 -0.140645,-0.33435 -0.321101,-0.7561 -0.401003,-0.93721 -0.319928,-0.72512 -0.72205,-1.66766 -0.870612,-2.04062 -0.08635,-0.21682 -0.171984,-0.37639 -0.190271,-0.35463 -0.01827,0.0218 -0.165895,0.33594 -0.328,0.69816 -0.162114,0.36222 -0.394059,0.87204 -0.515453,1.13293 -0.121395,0.2609 -0.220712,0.48182 -0.220712,0.49093 0,0.0242 -0.387551,0.85951 -0.560699,1.2085 -0.08171,0.16467 -0.148535,0.3164 -0.148535,0.3372 0,0.0208 -0.132755,0.31921 -0.295006,0.66315 -0.16225,0.34393 -0.336406,0.72161 -0.387015,0.83926 -0.05063,0.11766 -0.11515,0.19963 -0.143435,0.18215 -0.02881,-0.0178 -0.03599,-0.006 -0.01627,0.0251 0.03527,0.057 0.01491,0.10846 -0.369618,0.93697 -0.113923,0.24544 -0.207142,0.454 -0.207142,0.46345 0,0.009 -0.100135,0.23038 -0.222529,0.49093 -0.122385,0.26056 -0.370791,0.8043 -0.55201,1.20831 -0.18121,0.40401 -0.402694,0.89415 -0.492185,1.08919 -0.08944,0.19503 -0.25246,0.55979 -0.362166,0.81055 -0.109715,0.25077 -0.24507,0.55558 -0.300795,0.67737 -0.109906,0.24017 -0.09784,0.31888 0.02936,0.19165 0.04417,-0.0442 0.147808,-0.12015 0.230383,-0.16893 0.08262,-0.0488 0.150134,-0.10657 0.150134,-0.12842 0,-0.0219 0.02845,-0.0403 0.06335,-0.0409 0.03481,-5.7e-4 0.120313,-0.0474 0.189972,-0.10385 0.06962,-0.0565 0.206441,-0.15696 0.303959,-0.22324 0.09752,-0.0663 0.371082,-0.25752 0.607917,-0.42496 0.236835,-0.16744 0.720577,-0.50531 1.07498,-0.75083 0.354413,-0.24552 0.730557,-0.50935 0.835882,-0.58629 0.105334,-0.0769 0.379717,-0.26853 0.609745,-0.42576 0.230018,-0.15723 0.443685,-0.31654 0.474798,-0.35404 0.03108,-0.0374 0.08798,-0.0682 0.126366,-0.0682 0.03836,0 0.0698,-0.0191 0.0698,-0.0424 0,-0.0234 0.142481,-0.13658 0.31662,-0.25156 0.174148,-0.11499 0.476207,-0.31932 0.671241,-0.45406 0.195044,-0.13474 0.496912,-0.34258 0.670833,-0.46184 0.173911,-0.11927 0.328753,-0.23717 0.344096,-0.26199 0.01536,-0.0248 0.101016,-0.08 0.19039,-0.12259 0.08935,-0.0426 0.28788,-0.1743 0.441123,-0.29266 l 0.278627,-0.21519 3.318205,-0.0254 c 1.825015,-0.0139 3.321577,-0.0254 3.325685,-0.0254 0.0045,0 -0.03217,0.21657 -0.08071,0.48126 -0.04854,0.26471 -0.139873,0.82322 -0.203024,1.24117 -0.06317,0.41794 -0.121404,0.78421 -0.12943,0.81394 -0.01009,0.0372 -0.846352,0.0582 -2.683774,0.0673 l -2.669159,0.0133 -0.362902,0.25971 c -0.199597,0.14285 -0.491386,0.35192 -0.648428,0.46462 -0.157042,0.1127 -0.452038,0.31889 -0.655544,0.4582 -0.9298,0.63651 -1.588144,1.0914 -2.051726,1.41762 -0.2765,0.19458 -0.639502,0.44503 -0.806678,0.55655 -0.167176,0.11152 -0.452139,0.31418 -0.633249,0.45035 -0.402603,0.3027 -0.501783,0.34607 -1.281567,0.56032 -0.339988,0.0934 -0.777748,0.21917 -0.972782,0.27946 -0.195044,0.0603 -0.423008,0.1294 -0.506601,0.15359 -0.08362,0.0242 -0.391342,0.11611 -0.683903,0.20428 -0.29256,0.0882 -0.600318,0.17923 -0.683902,0.20235 -0.08362,0.0231 -0.505337,0.14514 -0.937207,0.27118 -0.43187,0.12604 -1.258019,0.36592 -1.835869,0.53307 -0.57786,0.16715 -1.07369,0.31815 -1.101848,0.33555 -0.02818,0.0174 -0.05117,0.0209 -0.05117,0.008 z m 6.48444,-1.80592 c 0.09921,-0.0641 0.166268,-0.0641 0.126648,0 -0.01718,0.0279 -0.06989,0.0504 -0.116977,0.0499 -0.0738,-7.6e-4 -0.07517,-0.007 -0.0096,-0.0499 z m 0.876647,-14.85594 c 0.01445,-0.0348 0.155197,-0.34828 0.312766,-0.69657 0.39824,-0.88028 0.395877,-0.87493 0.649091,-1.469128 0.124667,-0.29256 0.320528,-0.731837 0.435242,-0.976172 0.114714,-0.244335 0.208568,-0.453615 0.208568,-0.465068 0,-0.01145 0.06662,-0.164892 0.147953,-0.340978 0.08135,-0.176087 0.192835,-0.434142 0.247679,-0.573456 0.05481,-0.139314 0.181128,-0.423571 0.280609,-0.631682 l 0.180873,-0.378384 0.08326,0.201075 c 0.04581,0.110591 0.129675,0.303626 0.186363,0.428967 0.123467,0.272971 0.365538,0.829784 0.616716,1.418547 0.269329,0.631324 0.327999,0.771345 0.429843,1.025858 0.02509,0.06269 0.09676,0.227968 0.159287,0.367283 0.392478,0.874488 0.381444,0.810088 0.146172,0.853098 -0.06771,0.0124 -0.476453,0.13752 -0.908323,0.27809 -0.431879,0.14056 -1.263961,0.40635 -1.849083,0.59064 -0.585113,0.18427 -1.116218,0.35669 -1.180214,0.38313 -0.153225,0.0633 -0.178338,0.0607 -0.146826,-0.0153 z m 8.850004,16.80633 c -0.06026,-0.1811 -0.126357,-0.32928 -0.146862,-0.32928 -0.02045,0 -0.07808,-0.13108 -0.127975,-0.2913 -0.0499,-0.1602 -0.119513,-0.32548 -0.154725,-0.36728 -0.03518,-0.0418 -0.104506,-0.20137 -0.153988,-0.35461 -0.04944,-0.15325 -0.104997,-0.29003 -0.123366,-0.30396 -0.01836,-0.0139 -0.06381,-0.10513 -0.100981,-0.20264 -0.03717,-0.0975 -0.120358,-0.29129 -0.184854,-0.43061 -0.06453,-0.13931 -0.211768,-0.46986 -0.327254,-0.73456 -0.115496,-0.2647 -0.233291,-0.50977 -0.261749,-0.54459 -0.04117,-0.0504 0.262557,-0.0633 1.489017,-0.0633 h 1.54078 l 0.137192,0.29889 c 0.07544,0.16438 0.137191,0.31199 0.137191,0.32801 0,0.016 0.06835,0.17846 0.151979,0.36097 0.08362,0.1825 0.15198,0.36382 0.15198,0.40292 0,0.0391 0.02936,0.10123 0.06517,0.13805 0.03581,0.0368 0.09528,0.16896 0.132092,0.29364 0.03681,0.12468 0.131402,0.36406 0.210186,0.53192 0.0788,0.16788 0.158587,0.36793 0.177356,0.44455 0.01872,0.0766 0.0569,0.13931 0.08471,0.13931 0.02781,0 0.03745,0.0342 0.02145,0.076 -0.01609,0.0418 -0.01018,0.076 0.013,0.076 0.02318,0 0.08117,0.12405 0.128838,0.27567 0.04772,0.15162 0.106116,0.2827 0.129839,0.29129 0.02372,0.008 0.05871,0.0784 0.07771,0.15495 l 0.03454,0.1393 h -1.495827 -1.495825 z m -1.997146,-4.4605 c -0.01781,-0.071 -0.100089,-0.26883 -0.1828,-0.43958 -0.08271,-0.17077 -0.150398,-0.31784 -0.150398,-0.32683 0,-0.009 0.693446,-0.0164 1.540989,-0.0164 h 1.540989 l 0.10867,0.32654 c 0.05981,0.1796 0.154461,0.38477 0.210441,0.45594 l 0.10178,0.12939 H 27.679049 26.11042 Z m 63.02597,0.82884 c -0.01618,-0.0404 -0.02818,-0.0284 -0.03063,0.0306 -0.0018,0.0534 0.0098,0.0833 0.02663,0.0664 0.01682,-0.0168 0.01863,-0.0605 0.0036,-0.0971 z M 70.655808,97.054176 c -0.03672,-0.115736 -0.127857,-0.14373 -0.127857,-0.03928 0,0.0721 0.107397,0.198243 0.140555,0.165084 0.01136,-0.01137 0.0055,-0.06798 -0.01273,-0.125806 z m 14.08217,20.966544 c -1.030925,-0.0191 -2.968655,-0.0416 -4.306066,-0.05 -1.33742,-0.008 -3.480318,-0.0314 -4.762013,-0.0513 -2.409274,-0.0373 -6.160776,-0.0795 -11.119786,-0.12528 -1.574256,-0.0145 -4.287079,-0.0483 -6.028502,-0.0752 -1.741423,-0.0268 -4.043908,-0.0614 -5.116626,-0.077 -1.072717,-0.0155 -2.178364,-0.0375 -2.456991,-0.049 -0.278628,-0.0114 -1.464068,-0.0355 -2.634303,-0.0536 -1.170234,-0.0181 -2.196097,-0.0416 -2.279681,-0.0523 -0.08362,-0.0106 -0.721904,-0.0203 -1.418476,-0.0214 -0.696564,-9.1e-4 -2.337943,-0.0233 -3.647495,-0.0493 -1.309553,-0.0259 -3.418259,-0.063 -4.686019,-0.0824 -1.267752,-0.0194 -2.350604,-0.0403 -2.406329,-0.0464 -0.05572,-0.006 -0.402603,-0.0142 -0.770849,-0.0177 l -0.669524,-0.006 0.162932,-0.23219 c 0.08962,-0.1277 0.191035,-0.28387 0.225383,-0.34704 l 0.06244,-0.11484 5.890056,0.0225 c 3.23953,0.0124 7.223668,0.0393 8.853649,0.0598 1.629972,0.0206 5.18433,0.0414 7.898572,0.0466 3.524555,0.006 4.95432,0.0254 5.002638,0.0654 0.04954,0.0411 0.06762,0.0411 0.06762,-2e-5 0,-0.041 4.316083,-0.0582 15.970456,-0.0637 8.783743,-0.005 16.432092,-0.0138 16.996308,-0.0215 l 1.025863,-0.014 v 0.7047 0.70469 l -3.989455,-0.009 c -2.194189,-0.005 -4.832927,-0.025 -5.863852,-0.0441 z m 6.515325,-1.67376 c -0.528679,-0.0813 -1.105148,-0.40343 -1.308617,-0.7314 -0.06126,-0.0987 -0.06162,-0.0987 -0.03481,0.002 0.01491,0.0557 -0.01227,0.0329 -0.06044,-0.0506 -0.04817,-0.0836 -0.115977,-0.25457 -0.15067,-0.37996 -0.05372,-0.19402 -0.06381,-0.20596 -0.06762,-0.0802 -0.0073,0.24886 -0.05799,0.11179 -0.09861,-0.2684 l -0.03854,-0.36062 0.96552,1e-4 0.965511,1e-4 0.01272,0.18987 c 0.01636,0.24343 0.111588,0.47779 0.184146,0.45324 0.03099,-0.0105 0.129748,0.0115 0.219412,0.0487 0.200997,0.0836 0.385506,0.0856 0.722931,0.007 0.157442,-0.0363 0.280454,-0.0975 0.311039,-0.15465 0.07871,-0.147 0.06462,-0.47344 -0.0259,-0.60272 -0.04508,-0.0644 -0.08189,-0.0992 -0.08189,-0.0774 0,0.0217 -0.05063,0.004 -0.112596,-0.0393 -0.0619,-0.0434 -0.153425,-0.0789 -0.203324,-0.0789 -0.0499,0 -0.13032,-0.0202 -0.178701,-0.0447 -0.09605,-0.0489 -0.301614,-0.13418 -0.480579,-0.19947 -0.312039,-0.11384 -0.847961,-0.40093 -1.04984,-0.56238 -0.124648,-0.0997 -0.247788,-0.18126 -0.273665,-0.18126 -0.0259,0 -0.09237,-0.0874 -0.147771,-0.19412 -0.06408,-0.12342 -0.114177,-0.17238 -0.137627,-0.13443 -0.129284,0.20918 -0.208459,-0.94148 -0.09243,-1.34322 0.05535,-0.19174 0.06053,-0.19583 0.09598,-0.076 0.02063,0.0696 0.03972,0.0969 0.04254,0.0605 0.01118,-0.14692 0.215121,-0.51648 0.284944,-0.51648 0.04108,0 0.120322,-0.0456 0.176047,-0.10133 0.05572,-0.0557 0.107016,-0.0998 0.113987,-0.098 0.02799,0.007 0.224184,-0.0647 0.369546,-0.13553 0.476361,-0.23206 2.241461,-0.22841 2.690055,0.005 0.07953,0.0414 0.17004,0.0755 0.201106,0.0757 0.08716,5.8e-4 0.326318,0.20448 0.379771,0.32393 0.0459,0.10263 0.0469,0.10223 0.02509,-0.01 -0.01445,-0.0744 -9.09e-4,-0.10972 0.03654,-0.0972 0.0399,0.0133 0.06399,0.22128 0.07353,0.63614 l 0.01418,0.61644 h -0.609472 c -0.598046,0 -0.60949,-0.002 -0.610253,-0.11398 -5.73e-4,-0.0627 -0.02409,-0.14818 -0.05254,-0.18997 -0.03736,-0.0548 -0.04263,-0.0231 -0.01891,0.11398 0.02163,0.12527 0.01363,0.18997 -0.02345,0.18997 -0.03099,0 -0.05626,-0.0754 -0.05626,-0.16762 0,-0.0922 -0.02845,-0.20327 -0.06335,-0.24682 -0.197488,-0.24699 -1.077789,-0.26436 -1.194338,-0.0235 -0.0289,0.0598 -0.05417,0.0789 -0.05608,0.0424 -0.0018,-0.0364 -0.02627,-0.0523 -0.05408,-0.035 -0.05826,0.036 -0.06753,0.43037 -0.01191,0.50763 0.0509,0.0707 0.299695,0.17627 0.415327,0.17627 0.05208,0 0.102317,0.0194 0.111606,0.043 0.01691,0.043 1.125661,0.42379 1.245383,0.42775 0.03481,9.1e-4 0.06335,0.0211 0.06335,0.0443 0,0.0233 0.0649,0.0423 0.144127,0.0423 0.07926,0 0.1849,0.0451 0.234745,0.10011 0.04981,0.0551 0.108824,0.0889 0.131092,0.0751 0.02227,-0.0137 0.101289,0.0723 0.175593,0.19117 0.07426,0.11891 0.122422,0.17703 0.106934,0.12916 -0.01545,-0.0479 -0.0091,-0.0989 0.01454,-0.11342 0.08071,-0.0499 0.10348,0.20268 0.10238,1.13765 -9.09e-4,0.71795 -0.01809,0.96684 -0.07353,1.06386 -0.06462,0.113 -0.07271,0.11573 -0.07535,0.0254 -0.0018,-0.0762 -0.03027,-0.0542 -0.113068,0.0886 -0.06053,0.10448 -0.129784,0.18997 -0.153807,0.18997 -0.02399,0 -0.02918,-0.0285 -0.01154,-0.0633 0.01772,-0.0348 -0.01463,-0.0101 -0.07199,0.055 -0.05726,0.0651 -0.1365,0.12306 -0.176056,0.12886 -0.03954,0.005 -0.104016,0.0372 -0.143254,0.0698 -0.238926,0.19829 -1.765154,0.3258 -2.516971,0.21028 z m -22.589878,-0.0457 c -0.697381,-0.14894 -1.073735,-0.58395 -1.073735,-1.24109 0,-0.23845 0.317138,-2.54608 0.401531,-2.92166 l 0.04363,-0.19422 h -0.399894 c -0.465154,0 -0.436515,0.0627 -0.314729,-0.68967 l 0.08516,-0.52616 h 0.38597 0.38597 l 0.06153,-0.29793 0.06153,-0.29794 0.391878,-0.20427 c 0.215522,-0.11234 0.486423,-0.25753 0.60201,-0.32264 1.054257,-0.59389 1.182995,-0.65418 1.182995,-0.55403 0,0.0774 -0.206096,1.44188 -0.236044,1.56282 -0.02763,0.11153 -0.01891,0.11399 0.404675,0.11399 h 0.432915 l -0.02581,0.18997 c -0.01418,0.10449 -0.0469,0.29939 -0.0728,0.43311 -0.02581,0.13372 -0.04699,0.32179 -0.04699,0.41794 v 0.17481 h -0.429643 c -0.404993,0 -0.430961,0.006 -0.452557,0.11399 -0.01263,0.0627 -0.06044,0.37615 -0.106279,0.69657 -0.04581,0.32042 -0.106624,0.70538 -0.135064,0.85548 -0.02845,0.1501 -0.05481,0.4081 -0.05863,0.57336 -0.0091,0.39473 0.101507,0.49345 0.554537,0.4951 l 0.309585,9.1e-4 -0.0429,0.2153 c -0.02363,0.11841 -0.07653,0.46406 -0.117704,0.7681 -0.04117,0.30405 -0.09331,0.57135 -0.115959,0.59399 -0.06172,0.0618 -1.424476,0.0975 -1.6752,0.044 z m -34.838397,-0.0907 c -0.616316,-0.22534 -0.832483,-0.47246 -1.059156,-1.21086 -0.09988,-0.32535 -0.102335,-0.68024 -0.0082,-1.20632 0.03981,-0.2229 0.10937,-0.71303 0.15457,-1.08918 0.04517,-0.37615 0.117486,-0.92327 0.16066,-1.21583 0.04317,-0.29256 0.08862,-0.60602 0.101062,-0.69658 l 0.02254,-0.16464 h 1.066982 c 0.905777,0 1.062764,0.011 1.039096,0.0726 -0.01536,0.04 -0.0529,0.26223 -0.08335,0.49394 -0.102607,0.77874 -0.204324,1.45356 -0.229137,1.52025 -0.01354,0.0365 -0.0569,0.34607 -0.09637,0.68813 -0.08035,0.69663 -0.05381,0.88626 0.151316,1.07893 0.115023,0.10806 0.177692,0.12287 0.519334,0.12275 0.472126,-1.6e-4 0.597474,-0.0705 0.791536,-0.44462 0.104344,-0.20112 0.154488,-0.40905 0.21035,-0.87219 0.04036,-0.33447 0.08517,-0.64128 0.09965,-0.68179 0.01936,-0.0541 0.274847,-1.88127 0.274856,-1.96538 0,-0.007 0.473489,-0.0126 1.052203,-0.0126 h 1.052203 l -0.08726,0.59525 c -0.04799,0.32739 -0.135273,0.92581 -0.193971,1.32982 -0.191235,1.31629 -0.309058,2.1004 -0.331117,2.20369 -0.01191,0.0557 -0.06171,0.40381 -0.110606,0.77353 l -0.08898,0.6722 -0.894916,-0.008 c -0.492203,-0.005 -0.922447,-0.0248 -0.956104,-0.0456 -0.04254,-0.0263 -0.04608,-0.0649 -0.01163,-0.12643 0.04163,-0.0743 0.03018,-0.52031 -0.01463,-0.57321 -0.0073,-0.009 -0.110469,0.0882 -0.228392,0.21608 -0.133483,0.1448 -0.358493,0.30381 -0.59621,0.42129 -0.358021,0.17694 -0.415201,0.1896 -0.917375,0.20294 -0.419236,0.0112 -0.590566,-0.005 -0.788855,-0.0784 z m 23.328769,-0.002 c 0,-0.0843 0.06462,-0.5653 0.201897,-1.50338 0.315611,-2.1563 0.312248,-2.0543 0.07562,-2.29093 -0.168276,-0.16828 -0.193853,-0.17715 -0.449712,-0.15592 -0.272719,0.0226 -0.540212,0.17398 -0.608753,0.34447 -0.121676,0.30269 -0.190736,0.60685 -0.281809,1.24117 -0.02399,0.16718 -0.06799,0.46354 -0.09771,0.65857 -0.140754,0.9234 -0.258004,1.70819 -0.258004,1.72699 0,0.0114 -0.467336,0.0208 -1.038524,0.0208 -0.797198,0 -1.038451,-0.0147 -1.038224,-0.0634 1.46e-4,-0.0348 0.06926,-0.54205 0.153516,-1.12717 0.08426,-0.58512 0.160759,-1.12084 0.169966,-1.1905 0.0092,-0.0696 0.04681,-0.33582 0.08362,-0.59147 0.08126,-0.56453 0.03018,-0.80683 -0.198388,-0.94184 -0.216939,-0.12815 -0.553019,-0.11344 -0.76954,0.0337 -0.251433,0.17086 -0.35783,0.54655 -0.582541,2.05688 -0.101571,0.68264 -0.207514,1.37224 -0.235436,1.53246 l -0.05081,0.29128 h -1.039442 -1.039442 l 0.03354,-0.16464 c 0.01845,-0.0905 0.101853,-0.63197 0.185337,-1.20316 0.08353,-0.57119 0.19557,-1.31209 0.249069,-1.64644 0.05354,-0.33435 0.122003,-0.79029 0.152243,-1.01319 0.03027,-0.22291 0.07535,-0.51927 0.100299,-0.65858 0.0249,-0.13931 0.0599,-0.38438 0.07762,-0.54459 l 0.03236,-0.2913 h 0.965775 0.965774 l -0.03127,0.22794 c -0.01718,0.12536 -0.04645,0.29064 -0.06499,0.36728 -0.03263,0.1348 -0.02763,0.13293 0.154125,-0.0575 0.528251,-0.55359 1.192257,-0.79043 1.925123,-0.68665 0.568579,0.0805 0.959721,0.38899 1.11709,0.88097 0.02781,0.0869 0.05926,0.069 0.261894,-0.14852 0.245007,-0.26309 0.510319,-0.44742 0.878001,-0.61004 0.184509,-0.0816 0.338952,-0.10009 0.835882,-0.10009 0.568916,0 0.627404,0.009 0.877265,0.14106 0.822184,0.4332 0.987034,1.08559 0.726012,2.87319 -0.05899,0.40401 -0.130102,0.90555 -0.158006,1.11452 -0.0279,0.20897 -0.08489,0.62224 -0.126602,0.91837 -0.04172,0.29614 -0.07589,0.564 -0.07589,0.59525 0,0.0402 -0.30485,0.0568 -1.038524,0.0568 -0.971319,0 -1.038524,-0.006 -1.038524,-0.0924 z m 20.890774,9.1e-4 c 0.04699,-0.16751 0.08517,-0.39458 0.129447,-0.76984 0.06099,-0.51679 0.405848,-2.89436 0.433524,-2.98891 0.01227,-0.0418 0.04617,-0.28117 0.07544,-0.53194 0.02927,-0.25076 0.0788,-0.6212 0.110124,-0.82321 l 0.0569,-0.36728 h 0.950759 0.950768 l -0.02463,0.2153 c -0.01354,0.11842 -0.04372,0.27606 -0.06708,0.35031 -0.02327,0.0743 -0.03063,0.14678 -0.01627,0.16116 0.04208,0.0421 0.168221,-0.023 0.168221,-0.0867 0,-0.0321 0.04563,-0.0869 0.101317,-0.12166 0.05572,-0.0348 0.101325,-0.0936 0.101325,-0.13071 0,-0.0371 0.05699,-0.0934 0.126648,-0.12513 0.06962,-0.0317 0.126648,-0.0794 0.126648,-0.10577 0,-0.10578 0.55171,-0.30947 0.871566,-0.32178 l 0.318938,-0.0123 -0.01791,0.20265 c -0.0098,0.11145 -0.04099,0.21697 -0.06908,0.2345 -0.03118,0.0194 -0.02409,0.0426 0.0179,0.0594 0.03799,0.0151 0.04563,0.0293 0.01709,0.0314 -0.02981,0.003 -0.04372,0.091 -0.03254,0.20759 0.01072,0.11198 -0.0045,0.2323 -0.03354,0.26739 -0.04545,0.0548 -0.09071,0.39957 -0.127266,0.96903 l -0.0095,0.14819 -0.341479,-0.0124 c -0.874283,-0.0317 -1.268388,0.32938 -1.404134,1.28645 -0.03163,0.2229 -0.08944,0.57625 -0.128447,0.78523 -0.03899,0.20897 -0.09699,0.63071 -0.128811,0.9372 -0.03181,0.30649 -0.06626,0.56614 -0.07653,0.577 -0.01027,0.0108 -0.487768,0.0267 -1.061101,0.0353 -0.960203,0.0143 -1.040533,0.009 -1.018346,-0.0704 z m -37.448896,-0.0604 c -0.746981,-0.26872 -0.954122,-0.81258 -0.745627,-1.95763 0.0399,-0.21901 0.08716,-0.54638 0.105043,-0.72749 0.01791,-0.18111 0.07753,-0.60058 0.132629,-0.93217 0.06444,-0.38816 0.08262,-0.62033 0.05108,-0.65187 -0.0269,-0.0269 -0.211168,-0.0398 -0.409402,-0.0286 l -0.360429,0.0204 0.02609,-0.1284 c 0.01436,-0.0706 0.04963,-0.28797 0.07853,-0.48301 0.102934,-0.69586 0.05244,-0.63324 0.510618,-0.63324 0.388597,0 0.401249,-0.004 0.401249,-0.12033 0,-0.35193 0.05126,-0.43029 0.398894,-0.6095 0.184628,-0.0952 0.43826,-0.23155 0.563644,-0.30304 0.125385,-0.0715 0.330554,-0.18519 0.455938,-0.25265 0.827266,-0.44508 0.881182,-0.46264 0.836219,-0.27227 -0.02972,0.12582 -0.22831,1.44204 -0.22831,1.51316 0,0.0245 0.196216,0.0446 0.436032,0.0446 0.355722,0 0.430943,0.0133 0.408439,0.0719 -0.01518,0.0395 -0.06635,0.32451 -0.113769,0.63325 l -0.08617,0.56135 h -0.415037 -0.415028 l -0.112805,0.7219 c -0.06208,0.39705 -0.134274,0.86055 -0.160523,1.03001 -0.123212,0.79542 -0.05363,0.93336 0.478288,0.94873 l 0.334062,0.01 -0.02663,0.15198 c -0.128429,0.73307 -0.210977,1.32146 -0.192235,1.37032 0.03181,0.0828 -0.331835,0.12451 -1.066228,0.12232 -0.47438,-9.1e-4 -0.674977,-0.0239 -0.884554,-0.0993 z m 6.004715,-5.68565 c -0.106061,-5.7e-4 -0.20027,0.005 -0.279318,0.0147 -0.520616,0.0693 -0.935326,0.15971 -1.046931,0.22817 -0.05572,0.0342 -0.154752,0.0782 -0.220057,0.0977 -0.176365,0.0528 -0.55001,0.31709 -0.796208,0.56329 -0.816676,0.81668 -1.106283,2.47732 -0.615043,3.52649 0.379226,0.80992 1.115845,1.31583 2.122266,1.45765 0.442714,0.0624 1.390764,0.0207 1.77378,-0.0781 0.920257,-0.2373 1.624546,-0.90452 1.940402,-1.8381 0.258386,-0.7637 0.233691,-1.8704 -0.05544,-2.48262 -0.08107,-0.1718 -0.164577,-0.31237 -0.185528,-0.31237 -0.0209,0 -0.03808,-0.0317 -0.03808,-0.0705 0,-0.0388 -0.03417,-0.0837 -0.07599,-0.0997 -0.04181,-0.0161 -0.07598,-0.0641 -0.07598,-0.10677 0,-0.0427 -0.0239,-0.0776 -0.05317,-0.0776 -0.02918,0 -0.10328,-0.0541 -0.164649,-0.12011 -0.140809,-0.15163 -0.814096,-0.51067 -1.048713,-0.55924 -0.438733,-0.0908 -0.863213,-0.14116 -1.181396,-0.14288 z m 0.03417,1.52068 c 0.351204,-0.003 0.579433,0.12208 0.716651,0.39321 0.139736,0.27611 0.145272,1.28582 0.0092,1.6783 -0.114596,0.33054 -0.342624,0.64814 -0.537667,0.749 -0.34316,0.17746 -0.897588,0.0568 -1.085915,-0.23638 -0.242398,-0.37729 -0.211804,-1.40628 0.05908,-1.98483 0.194444,-0.41531 0.446958,-0.59578 0.838654,-0.5993 z m 39.24668,-1.44766 c -0.490404,6.4e-4 -0.988552,0.0465 -1.193857,0.13734 -0.545548,0.24126 -0.886544,0.41871 -0.886544,0.46128 0,0.0283 -0.05699,0.0774 -0.126657,0.10913 -0.06962,0.0317 -0.126648,0.0904 -0.126648,0.13031 0,0.0399 -0.04072,0.0832 -0.09035,0.0962 -0.04963,0.013 -0.121477,0.0942 -0.159596,0.18027 -0.03808,0.0862 -0.110151,0.19742 -0.160096,0.24737 -0.0499,0.0499 -0.118641,0.18899 -0.152661,0.309 -0.03399,0.12002 -0.09239,0.24355 -0.12972,0.27457 -0.07708,0.064 -0.218594,0.92161 -0.219167,1.32695 -7.63e-4,0.66379 0.195471,1.28597 0.528861,1.67691 0.42718,0.50094 0.810168,0.72434 1.486054,0.86685 0.755816,0.15937 1.955535,0.0956 2.451838,-0.13041 0.328345,-0.14951 0.625741,-0.3325 0.74021,-0.45534 0.06381,-0.0685 0.134528,-0.12447 0.157024,-0.12447 0.02254,0 0.08171,-0.0905 0.131601,-0.20125 0.0499,-0.11069 0.107788,-0.19081 0.12852,-0.17801 0.03636,0.0225 0.108606,-0.12877 0.17632,-0.36876 0.01781,-0.0631 0.05117,-0.10303 0.07408,-0.0889 0.0229,0.0142 0.05481,-0.008 0.07071,-0.05 0.02518,-0.0656 -0.10587,-0.0757 -0.982525,-0.0757 -0.774013,0 -1.012357,0.0149 -1.014484,0.0633 -0.0055,0.11734 -0.295287,0.29545 -0.577832,0.35471 -0.61019,0.12799 -1.203992,-0.16273 -1.266388,-0.61999 -0.01718,-0.12576 -0.04345,-0.29135 -0.05853,-0.36797 l -0.02754,-0.13931 h 2.030439 2.030448 l -0.0027,-0.59526 c -0.0018,-0.50703 -0.121504,-1.45187 -0.145754,-1.1525 -0.0045,0.0557 -0.07335,-0.0924 -0.153061,-0.32929 -0.07971,-0.23683 -0.147934,-0.38501 -0.151688,-0.32929 -0.0045,0.0702 -0.03781,0.0352 -0.107743,-0.11398 -0.05553,-0.11842 -0.133646,-0.21531 -0.173657,-0.21531 -0.03999,0 -0.09496,-0.0414 -0.122094,-0.0921 -0.02709,-0.0507 -0.204596,-0.16708 -0.394395,-0.25865 -0.189791,-0.0915 -0.385834,-0.18759 -0.435651,-0.21342 -0.174157,-0.0904 -0.656763,-0.135 -1.147158,-0.13436 z m -0.05381,1.30646 c 0.224156,0 0.607717,0.10374 0.607717,0.16435 0,0.0211 0.03363,0.0383 0.07471,0.0383 0.08144,0 0.227119,0.24416 0.232818,0.39014 0.0036,0.0817 0.0073,0.0809 0.04236,-0.008 0.03118,-0.0797 0.04526,-0.0599 0.0718,0.10132 0.01818,0.11025 0.03308,0.2385 0.03363,0.28506 v 1e-4 c 5.73e-4,0.0762 -0.09452,0.0845 -0.949278,0.0826 -1.076862,-0.003 -1.178105,-0.0138 -1.177142,-0.13288 9.09e-4,-0.1471 0.05972,-0.313 0.101417,-0.28725 0.022,0.0135 0.0639,-0.038 0.09321,-0.11458 0.02927,-0.0766 0.0828,-0.17442 0.118931,-0.21747 0.11006,-0.1312 0.53375,-0.30169 0.749798,-0.30169 z m -22.042485,-1.30695 c -0.700617,-0.005 -1.326304,0.14673 -1.847593,0.45157 -0.379507,0.22194 -0.527387,0.3232 -0.527778,0.36106 -1.73e-4,0.0206 -0.06299,0.10045 -0.139609,0.1773 -0.167431,0.16797 -0.274174,0.33971 -0.472853,0.76129 -0.283863,0.60232 -0.388651,1.38396 -0.273183,2.03806 0.08226,0.466 0.165259,0.66706 0.440887,1.0687 0.37259,0.54293 0.868757,0.84269 1.660302,1.003 0.773785,0.15672 1.417831,0.11806 2.200723,-0.13199 0.498948,-0.15936 1.070191,-0.58312 1.377503,-1.022 0.593502,-0.8476 0.739556,-2.34571 0.315839,-3.23875 -0.08835,-0.18626 -0.179992,-0.34622 -0.203633,-0.35551 -0.02363,-0.009 -0.0429,-0.0384 -0.0429,-0.0646 0,-0.0823 -0.420263,-0.4712 -0.661943,-0.61246 -0.401785,-0.23483 -0.765241,-0.34598 -1.329122,-0.40646 -0.169294,-0.0182 -0.334925,-0.0279 -0.496602,-0.0292 z m -0.178201,1.51197 c 0.05272,-5.8e-4 0.116868,0.003 0.200061,0.007 0.317356,0.0179 0.363338,0.0347 0.493539,0.18047 0.187127,0.20944 0.263012,0.50099 0.260422,1.00053 -0.0045,0.89498 -0.324855,1.55481 -0.824102,1.69799 -0.257713,0.0739 -0.404167,0.0613 -0.638693,-0.0548 -0.302468,-0.14971 -0.390887,-0.35915 -0.413783,-0.98083 -0.03099,-0.84184 0.145126,-1.38346 0.550619,-1.69334 0.15846,-0.1211 0.213768,-0.15543 0.371937,-0.15713 z m 11.048846,-1.5189 c -0.103507,9.1e-4 -0.214931,0.005 -0.336507,0.009 -0.736747,0.0294 -1.098312,0.12062 -1.602305,0.4041 -0.537613,0.30236 -1.094949,0.98176 -1.299345,1.5838 -0.21953,0.64661 -0.232246,1.72751 -0.0269,2.28058 0.295224,0.79518 0.973546,1.35887 1.860263,1.5458 0.894861,0.18867 2.02713,0.0874 2.688128,-0.24033 0.613371,-0.30417 1.163127,-0.97873 1.394318,-1.71075 0.178647,-0.56565 0.215631,-1.45719 0.08153,-1.96573 -0.07599,-0.2883 -0.304595,-0.79522 -0.358576,-0.79522 -0.02409,0 -0.04372,-0.0349 -0.04372,-0.0775 0,-0.0427 -0.03417,-0.0907 -0.07598,-0.10676 -0.04181,-0.016 -0.07599,-0.0573 -0.07599,-0.0916 0,-0.0344 -0.05699,-0.0883 -0.126647,-0.12011 -0.06962,-0.0317 -0.126648,-0.0808 -0.126648,-0.10904 0,-0.0283 -0.08553,-0.0959 -0.189972,-0.1502 -0.701145,-0.36467 -1.037043,-0.46306 -1.761619,-0.45594 z m -0.153061,1.48961 c 0.176992,-0.003 0.350613,0.0277 0.44713,0.0909 0.215149,0.14097 0.347532,0.4576 0.378163,0.90455 0.05781,0.84366 -0.231146,1.59922 -0.706562,1.84759 -0.202133,0.10561 -0.641038,0.091 -0.835882,-0.0278 -0.287271,-0.17516 -0.344423,-0.35202 -0.344423,-1.06593 0,-0.88834 0.185191,-1.40172 0.594056,-1.64654 0.110097,-0.0659 0.290516,-0.10051 0.467518,-0.1028 z"
         style="stroke-width:0.278676;fill:#ffffff" />
    </g>
  </g>
</svg>
