<?xml version="1.0" encoding="UTF-8" standalone="no"?>
<!-- Created with Inkscape (http://www.inkscape.org/) -->

<svg
   width="53.359051mm"
   height="34.152691mm"
   viewBox="0 0 53.359051 34.152691"
   version="1.1"
   id="svg56464"
   inkscape:version="1.1.2 (0a00cf5339, 2022-02-04)"
   sodipodi:docname="21.html"
   xmlns:inkscape="http://www.inkscape.org/namespaces/inkscape"
   xmlns:sodipodi="http://sodipodi.sourceforge.net/DTD/sodipodi-0.dtd"
   xmlns="http://www.w3.org/2000/svg"
   xmlns:svg="http://www.w3.org/2000/svg">
  <sodipodi:namedview
     id="namedview56466"
     pagecolor="#ffffff"
     bordercolor="#666666"
     borderopacity="1.0"
     inkscape:pageshadow="2"
     inkscape:pageopacity="0.0"
     inkscape:pagecheckerboard="0"
     inkscape:document-units="mm"
     showgrid="false"
     inkscape:zoom="0.69664703"
     inkscape:cx="376.80488"
     inkscape:cy="541.88131"
     inkscape:window-width="1920"
     inkscape:window-height="1016"
     inkscape:window-x="0"
     inkscape:window-y="0"
     inkscape:window-maximized="1"
     inkscape:current-layer="layer1" />
  <defs
     id="defs56461" />
  <g
     inkscape:label="Capa 1"
     inkscape:groupmode="layer"
     id="layer1"
     transform="translate(-5.31024,-4.951787)">
    <path
       style="fill:#ffffff;stroke-width:0.110541"
       d="m 30.169948,38.515359 c -0.79038,-0.31901 -3.12833,-1.24341 -5.19546,-2.05422 -2.06712,-0.81081 -4.467712,-1.75426 -5.334622,-2.09657 l -1.576221,-0.62236 -0.0267,-11.90588 -0.0267,-11.90588 h 13.679523 13.67953 v 11.97575 11.97574 l -1.18833,0.45223 c -0.65357,0.24873 -2.40704,0.93273 -3.89659,1.52001 -6.318,2.49099 -8.32486,3.25874 -8.49599,3.25023 -0.0998,-0.005 -0.82819,-0.27003 -1.61856,-0.58905 z m 3.22037,-0.87727 c 0.66071,-0.26426 3.41489,-1.34271 6.1204,-2.39655 2.7055,-1.05384 4.92559,-1.91956 4.93352,-1.92381 0.008,-0.004 0.0328,-5.05672 0.0553,-11.2277 l 0.0409,-11.21998 -6.27323,-0.0285 -6.27324,-0.0285 v 12.81191 c 0,11.65478 -0.016,12.81806 -0.17728,12.87994 -0.10871,0.0417 -0.15073,0.13723 -0.10864,0.24693 0.0378,0.0984 0.0125,0.24656 -0.0562,0.32928 -0.16633,0.2004 -0.0457,0.48701 0.20043,0.47611 0.11581,-0.005 0.14,-0.0317 0.0587,-0.0645 -0.17142,-0.0692 -0.18339,-0.36895 -0.0148,-0.36895 0.0679,0 0.0989,-0.094 0.0688,-0.20885 -0.0807,-0.3086 0.0912,-0.5468 0.26742,-0.37057 0.10675,0.10675 0.10777,0.16673 0.005,0.2699 -0.18069,0.18069 -0.16751,0.34655 0.0218,0.27391 0.0993,-0.0381 0.17238,0.0347 0.2047,0.20372 0.0388,0.20298 -0.003,0.27054 -0.18206,0.29615 -0.23029,0.0329 -0.41576,0.53061 -0.19772,0.53061 0.0579,0 0.64583,-0.21621 1.30655,-0.48047 z m -0.31789,-1.06711 c -0.15085,-0.34824 -0.15025,-0.40071 0.006,-0.52508 0.3859,-0.3071 0.75489,0.0242 0.43556,0.39101 -0.0906,0.10413 -0.18937,0.26395 -0.2194,0.35515 -0.0363,0.11034 -0.11067,0.0364 -0.2222,-0.22108 z m 0.3585,-0.33163 c 0,-0.0608 -0.0498,-0.11054 -0.11055,-0.11054 -0.0608,0 -0.11054,0.0497 -0.11054,0.11054 0,0.0608 0.0498,0.11054 0.11054,0.11054 0.0608,0 0.11055,-0.0497 0.11055,-0.11054 z m 0.43943,0.15862 c -0.13522,-0.35566 -0.13615,-0.34518 0.0364,-0.4114 0.10007,-0.0384 0.14749,0.0595 0.15487,0.3198 0.0127,0.44802 -0.0452,0.47576 -0.1913,0.0916 z m 0.46701,-0.0702 c -0.073,-0.0729 -0.13265,-0.19556 -0.13265,-0.27246 0,-0.17154 0.33646,-0.35689 0.52507,-0.28926 0.19845,0.0712 0.17059,0.54774 -0.0367,0.62727 -0.22263,0.0854 -0.20073,0.0895 -0.35575,-0.0656 z m 0.39472,-0.2197 c -0.0683,-0.20497 -0.30629,-0.23896 -0.30629,-0.0438 0,0.0963 0.0788,0.17503 0.17503,0.17503 0.0963,0 0.15533,-0.0591 0.13126,-0.13127 z m 0.31448,-0.1051 c -0.0982,-0.14024 -0.1786,-0.3495 -0.1786,-0.46501 0,-0.17415 0.0283,-0.18652 0.16581,-0.0724 0.0912,0.0757 0.16581,0.23101 0.16581,0.34516 0,0.11415 0.0429,0.20755 0.0952,0.20755 0.0524,0 0.0716,-0.12375 0.0426,-0.27498 -0.0594,-0.31076 0.23311,-0.50369 0.44397,-0.29282 0.0927,0.0927 0.0695,0.16901 -0.0903,0.29675 -0.20804,0.16628 -0.20648,0.16955 0.0474,0.0991 0.17822,-0.0495 0.23827,-0.0335 0.18692,0.0495 -0.0416,0.0673 -0.16224,0.12239 -0.26809,0.12239 -0.10585,0 -0.24638,0.0539 -0.3123,0.11985 -0.0861,0.0861 -0.17014,0.0481 -0.29847,-0.13514 z m 1.00051,-0.27949 c -0.0405,-0.0405 -0.0737,-0.18977 -0.0737,-0.33163 0,-0.19173 0.0622,-0.25793 0.24222,-0.25793 0.23019,0 0.2321,0.007 0.0385,0.14894 -0.12827,0.0938 -0.16025,0.17578 -0.0864,0.22144 0.20365,0.12586 0.46889,-0.0524 0.46889,-0.31511 0,-0.2632 0.27616,-0.45553 0.38988,-0.27152 0.0359,0.0581 -0.0164,0.10571 -0.11622,0.10571 -0.0999,0 -0.15961,0.0622 -0.1328,0.13818 0.0268,0.076 0.13288,0.13086 0.23571,0.12192 0.10284,-0.009 0.16774,0.0408 0.14423,0.11054 -0.0235,0.0697 -0.14926,0.12823 -0.27944,0.12999 -0.13018,0.002 -0.29743,0.0639 -0.37168,0.13818 -0.14885,0.14885 -0.34543,0.17509 -0.45924,0.0613 z m 1.19898,-0.73485 c -0.19542,-0.46771 -0.20176,-0.51796 -0.0653,-0.51796 0.12347,0 0.38896,0.76188 0.29739,0.85344 -0.0357,0.0357 -0.1401,-0.1153 -0.2321,-0.33548 z m 0.44132,0.10413 c -0.14442,-0.1056 -0.17638,-0.2079 -0.11167,-0.35738 0.0499,-0.11519 0.0806,-0.27161 0.0684,-0.34761 -0.0122,-0.076 0.0326,-0.13818 0.0996,-0.13818 0.067,0 0.0947,0.0441 0.0614,0.098 -0.0333,0.0539 0.0384,0.12385 0.15929,0.15547 0.25149,0.0658 0.29459,0.43124 0.0726,0.61548 -0.10877,0.0903 -0.20013,0.0835 -0.34959,-0.0257 z m 0.29233,-0.23519 c 0,-0.0578 -0.0535,-0.12284 -0.11883,-0.14463 -0.0653,-0.0218 -0.11883,0.0433 -0.11883,0.14463 0,0.10133 0.0535,0.16641 0.11883,0.14463 0.0654,-0.0218 0.11883,-0.0869 0.11883,-0.14463 z m 0.33333,-0.16088 c -0.10012,-0.28722 -0.0858,-0.3353 0.11899,-0.40031 0.22022,-0.0699 0.52598,0.17222 0.52598,0.4165 0,0.18223 -0.2086,0.0818 -0.27687,-0.13327 -0.0388,-0.12248 -0.11697,-0.19408 -0.17356,-0.1591 -0.0626,0.0387 -0.0594,0.14481 0.008,0.27125 0.0651,0.12162 0.0697,0.23329 0.0111,0.26951 -0.055,0.034 -0.15128,-0.085 -0.21387,-0.26458 z m 0.9376,-0.46823 c -0.13693,-0.32211 -0.13476,-0.38226 0.0182,-0.50394 0.0955,-0.076 0.25119,-0.1366 0.34596,-0.13466 0.14595,0.003 0.14272,0.026 -0.0211,0.15036 -0.26318,0.19978 -0.24298,0.27817 0.0553,0.21446 0.23061,-0.0493 0.23464,-0.0416 0.0553,0.10544 -0.27912,0.22879 -0.23825,0.31478 0.11054,0.23258 0.36216,-0.0854 0.22125,0.11135 -0.16284,0.22733 -0.20395,0.0616 -0.27218,0.012 -0.40122,-0.29157 z m 0.78938,-0.2947 c -0.0986,-0.25097 -0.13766,-0.48201 -0.0868,-0.51342 0.10641,-0.0658 0.3699,0.65825 0.30759,0.84518 -0.0229,0.0685 -0.12218,-0.0808 -0.22076,-0.33176 z m 0.32216,-0.12524 c -0.0926,-0.21219 -0.14121,-0.42989 -0.1079,-0.48378 0.0767,-0.12417 0.38321,0.59057 0.32189,0.7507 -0.025,0.0654 -0.12133,-0.0547 -0.21399,-0.26692 z m 0.33156,-0.0378 c -0.0958,-0.14617 -0.13122,-0.31872 -0.0819,-0.39855 0.061,-0.0986 0.14078,-0.033 0.26673,0.21948 0.20858,0.41812 0.21209,0.43684 0.0819,0.43684 -0.0538,0 -0.17383,-0.116 -0.26673,-0.25777 z m 0.50273,0.0665 c -0.16976,-0.0592 -0.18325,-0.54158 -0.018,-0.6437 0.15056,-0.0931 0.35296,0.10162 0.39551,0.38042 0.0339,0.22189 -0.14286,0.34513 -0.37751,0.26328 z m 0.8567,-0.47643 c 0,-0.0713 0.073,-0.10168 0.16228,-0.0674 0.0892,0.0343 0.19167,0.0147 0.2276,-0.0434 0.0359,-0.0581 -0.0272,-0.10571 -0.14016,-0.10571 -0.30413,0 -0.49463,-0.22499 -0.3441,-0.40638 0.14714,-0.17728 0.53655,-0.19467 0.53655,-0.024 0,0.0673 -0.073,0.0943 -0.16227,0.0601 -0.0892,-0.0343 -0.18959,-0.0181 -0.22296,0.0359 -0.0334,0.054 0.077,0.11401 0.24518,0.13335 0.43044,0.0495 0.43195,0.46281 0.002,0.5123 -0.17879,0.0206 -0.30399,-0.0185 -0.30399,-0.0947 z m 0.77379,-0.21659 c 0,-0.0608 0.0498,-0.11054 0.11054,-0.11054 0.0608,0 0.11054,0.0497 0.11054,0.11054 0,0.0608 -0.0497,0.11054 -0.11054,0.11054 -0.0608,0 -0.11054,-0.0498 -0.11054,-0.11054 z m 0.33163,-0.49744 c 0,-0.27359 0.0346,-0.49743 0.0769,-0.49743 0.11391,0 0.69693,0.57837 0.69693,0.69137 0,0.0535 -0.0997,0.0657 -0.22163,0.027 -0.1473,-0.0467 -0.24395,-0.0122 -0.28818,0.10309 -0.12847,0.33481 -0.26398,0.16849 -0.26398,-0.324 z m 0.33162,-0.0553 c 0,-0.0608 -0.0497,-0.11054 -0.11054,-0.11054 -0.0608,0 -0.11054,0.0497 -0.11054,0.11054 0,0.0608 0.0497,0.11054 0.11054,0.11054 0.0608,0 0.11054,-0.0497 0.11054,-0.11054 z m -10.83307,-4.52139 c 0,-0.0548 0.14923,-0.15175 0.33162,-0.21533 l 0.33162,-0.11561 v -3.13408 c 0,-3.25282 -0.02,-3.39937 -0.46427,-3.39937 -0.10944,0 -0.19897,-0.0533 -0.19897,-0.11851 0,-0.0806 0.52776,-0.10712 1.65045,-0.0829 1.79061,0.0386 1.96268,0.0931 2.47855,0.784 0.27035,0.3621 0.36699,1.34442 0.18617,1.89231 -0.17921,0.54303 -0.7019,1.04088 -1.16904,1.1135 -0.21043,0.0327 -0.55821,0.0869 -0.77285,0.12038 l -0.39025,0.0609 0.031,1.3485 0.031,1.34849 0.35628,0.178 c 0.19596,0.0979 0.32446,0.20983 0.28557,0.24872 -0.11066,0.11066 -2.68687,0.0828 -2.68687,-0.029 z m 2.47666,-3.674 c 0.79078,-0.36031 0.84323,-2.44269 0.0719,-2.85549 -0.53375,-0.28566 -0.55883,-0.22134 -0.55883,1.43376 0,0.90709 0.0436,1.54758 0.10535,1.54758 0.0579,0 0.22964,-0.0566 0.38157,-0.12585 z m 2.3533,3.70301 c -0.0389,-0.0389 0.0896,-0.15081 0.28556,-0.24872 l 0.35629,-0.178 0.0294,-3.01619 c 0.019,-1.9539 -0.0115,-3.09267 -0.0868,-3.23334 -0.0672,-0.12568 -0.23099,-0.21715 -0.38868,-0.21715 -0.14985,0 -0.27246,-0.0497 -0.27246,-0.11054 0,-0.07 0.82001,-0.11064 2.23847,-0.11079 l 2.23847,-2.2e-4 -0.0394,1.13329 c -0.0247,0.70955 -0.0723,1.05063 -0.12734,0.91221 -0.0483,-0.12159 -0.16976,-0.45283 -0.26983,-0.73607 -0.21516,-0.609 -0.64096,-0.8668 -1.43167,-0.8668 h -0.50836 v 1.43704 c 0,1.22246 0.0255,1.43704 0.17083,1.43704 0.33754,0 0.70033,-0.51081 0.77785,-1.09523 0.14805,-1.11604 0.26727,-0.52596 0.26727,1.32284 0,1.77106 -0.11284,2.35213 -0.25334,1.3046 -0.0736,-0.54847 -0.39359,-1.02083 -0.72499,-1.0701 -0.23224,-0.0345 -0.23762,-0.004 -0.23762,1.33203 0,1.46717 0.0556,1.63311 0.54718,1.63203 0.90067,-0.002 1.54646,-0.46881 1.85666,-1.3422 0.22607,-0.63651 0.41476,-0.70768 0.32308,-0.12185 -0.0357,0.22799 -0.0987,0.7503 -0.13994,1.16068 l -0.0751,0.74616 h -2.23241 c -1.22783,0 -2.26424,-0.0318 -2.30313,-0.0707 z m -0.0767,-10.20544 c 0,-0.0585 0.1227,-0.49269 0.27266,-0.96491 0.20559,-0.64742 0.23957,-0.87778 0.13817,-0.9366 -0.074,-0.0429 -0.4578,-0.31754 -0.85299,-0.6103 l -0.71852,-0.53229 1.05819,-0.0314 1.05819,-0.0314 0.31706,-0.99211 c 0.17438,-0.54565 0.34964,-0.95434 0.38946,-0.9082 0.0398,0.0461 0.18598,0.49256 0.32479,0.99204 l 0.25237,0.90814 1.06351,0.0315 1.06351,0.0315 -0.54361,0.38689 c -0.29898,0.2128 -0.66851,0.49146 -0.82117,0.61926 l -0.27756,0.23236 0.33431,0.95596 c 0.18387,0.52578 0.31163,0.95596 0.2839,0.95596 -0.0277,0 -0.39236,-0.24871 -0.81031,-0.5527 -0.41795,-0.30399 -0.81579,-0.55271 -0.8841,-0.55271 -0.0683,0 -0.43677,0.24872 -0.81879,0.55271 -0.71375,0.56794 -0.82907,0.63003 -0.82907,0.44637 z m -6.48733,18.45943 c -0.0257,-0.0286 -0.0812,-0.004 -0.12354,0.0553 -0.0423,0.059 -0.1757,0.10734 -0.29646,0.10734 -0.29418,0 -0.35872,0.38602 -0.0966,0.57768 0.18622,0.13617 0.22196,0.11115 0.38428,-0.26904 0.0984,-0.23055 0.15797,-0.44261 0.13232,-0.47125 z m -0.53206,0.54951 c -0.0441,-0.0714 -0.0305,-0.17955 0.0303,-0.24035 0.0737,-0.0737 0.13729,-0.0673 0.19077,0.0193 0.0441,0.0714 0.0305,0.17955 -0.0303,0.24035 -0.0737,0.0737 -0.13729,0.0673 -0.19077,-0.0193 z m -0.34345,-0.17485 c 0.12804,-0.33366 0.0695,-0.48848 -0.18162,-0.48063 -0.23732,0.007 -0.23859,0.0121 -0.0276,0.10277 0.21096,0.0907 0.20969,0.0954 -0.0276,0.10277 -0.38387,0.012 -0.29876,0.39241 0.0987,0.44122 0.0391,0.005 0.10128,-0.07 0.13818,-0.16613 z m -0.49122,-0.76475 c 0.001,-0.13978 -0.0282,-0.17319 -0.0806,-0.0909 -0.0456,0.0716 -0.18159,0.12138 -0.3023,0.11055 -0.30138,-0.027 -0.38406,0.54932 -0.0877,0.61163 0.22204,0.0467 0.46712,-0.28206 0.47063,-0.63132 z m -0.5471,0.34083 c 0,-0.0963 0.0788,-0.17502 0.17503,-0.17502 0.0963,0 0.15533,0.0591 0.13127,0.13127 -0.0683,0.20497 -0.3063,0.23896 -0.3063,0.0438 z m -0.27371,-0.18335 c 0.10655,-0.3357 -10e-4,-0.37014 -0.14813,-0.0474 -0.0694,0.15225 -0.0808,0.27682 -0.0254,0.27682 0.0554,0 0.13349,-0.10323 0.17354,-0.22941 z m -0.50008,-0.0414 c 0,-0.0882 0.0801,-0.20512 0.17791,-0.25988 0.15744,-0.0881 0.15841,-0.10705 0.008,-0.16459 -0.11737,-0.045 -0.20424,0.0348 -0.2827,0.25989 -0.0693,0.19876 -0.0726,0.3249 -0.008,0.3249 0.0576,0 0.10479,-0.0721 0.10479,-0.16032 z m -0.19371,-0.54808 c -0.0351,-0.0567 -0.10373,0.005 -0.15256,0.13679 -0.12872,0.34798 -0.33713,0.30351 -0.24769,-0.0529 0.0517,-0.20609 0.036,-0.26965 -0.0532,-0.21456 -0.20161,0.1246 -0.15258,0.59627 0.0668,0.64253 0.20684,0.0436 0.49454,-0.33729 0.38663,-0.5119 z m -0.79392,0.1919 c 0.14097,-0.37076 0.062,-0.58892 -0.21303,-0.58892 -0.28263,0 -0.40966,0.34399 -0.18713,0.50671 0.24777,0.18117 0.21159,0.29614 -0.0493,0.15654 -0.13076,-0.07 -0.22108,-0.0753 -0.22108,-0.0131 0,0.11162 0.18393,0.211 0.41726,0.22545 0.0775,0.005 0.19146,-0.12421 0.25323,-0.28669 z m -0.33887,-0.31256 c 0,-0.0912 0.0498,-0.16581 0.11054,-0.16581 0.0608,0 0.11054,0.0746 0.11054,0.16581 0,0.0912 -0.0497,0.16581 -0.11054,0.16581 -0.0608,0 -0.11054,-0.0746 -0.11054,-0.16581 z m -0.50477,-0.0666 c -0.19309,-0.0756 -0.18882,-0.0845 0.0442,-0.0915 0.31435,-0.009 0.266,-0.26945 -0.0591,-0.31761 -0.30438,-0.0451 -0.44024,0.31282 -0.18859,0.49683 0.10346,0.0756 0.23966,0.10569 0.30267,0.0668 0.0661,-0.0409 0.0242,-0.1062 -0.0992,-0.1545 z m -0.43053,-0.21675 c 0.0399,-0.0646 -0.007,-0.20534 -0.10402,-0.31269 -0.20367,-0.22507 -0.24321,-0.45438 -0.044,-0.25516 0.19178,0.19178 0.3621,0.16339 0.19898,-0.0332 -0.0757,-0.0912 -0.2032,-0.16581 -0.28337,-0.16581 -0.25076,0 -0.29927,0.22586 -0.0966,0.44981 0.10691,0.11813 0.15746,0.25171 0.11233,0.29684 -0.0451,0.0451 -0.1526,-0.0144 -0.23883,-0.13234 -0.1204,-0.16467 -0.15677,-0.17531 -0.15677,-0.0459 0,0.0927 0.0332,0.20168 0.0737,0.24222 0.11465,0.11464 0.45792,0.0867 0.53859,-0.0438 z m -1.12154,-0.38897 c 0.12317,-0.32099 0.0692,-0.4884 -0.15746,-0.4884 -0.27828,0 -0.39919,0.27865 -0.21645,0.49885 0.1755,0.21145 0.28998,0.20825 0.37391,-0.0105 z m -0.28526,-0.12174 c 0.0798,-0.0319 0.17514,-0.028 0.21187,0.009 0.0367,0.0367 -0.0286,0.0629 -0.14508,0.0581 -0.12878,-0.005 -0.15497,-0.0315 -0.0668,-0.0668 z m -0.25566,-0.32836 c 0.15838,-0.37905 0.13609,-0.65888 -0.0336,-0.42199 -0.0423,0.059 -0.1757,0.10734 -0.29647,0.10734 -0.29031,0 -0.35955,0.3854 -0.10295,0.57303 0.26149,0.1912 0.23977,0.20416 0.43303,-0.25838 z m -0.49571,0.0999 c 0.004,-0.19652 0.19307,-0.38073 0.26737,-0.26052 0.0416,0.0673 0.0449,0.17209 0.007,0.23288 -0.0797,0.12894 -0.27714,0.14881 -0.27467,0.0276 z m -0.566,-0.33758 c 0.13744,-0.25682 -0.0116,-0.49688 -0.27673,-0.44582 -0.25108,0.0484 -0.34332,0.41668 -0.13708,0.54738 0.21909,0.13884 0.29514,0.12018 0.41381,-0.10156 z m -0.40523,-0.15295 c 0.0683,-0.20497 0.30629,-0.23896 0.30629,-0.0438 0,0.0963 -0.0788,0.17502 -0.17503,0.17502 -0.0963,0 -0.15533,-0.0591 -0.13126,-0.13127 z m -0.20594,-0.47671 0.0703,-0.33162 -0.19357,0.33684 c -0.20086,0.34951 -0.580471,0.40822 -0.580471,0.0898 0,-0.11968 0.0685,-0.14462 0.248721,-0.0906 0.23804,0.0714 0.24041,0.0659 0.0553,-0.12678 -0.179141,-0.18647 -0.206831,-0.18799 -0.374371,-0.0204 -0.22281,0.2228 -0.12377,0.52969 0.17093,0.52969 0.11991,0 0.252721,0.0561 0.295121,0.12474 0.0944,0.15283 0.20671,-0.0336 0.30806,-0.51163 z m -0.928331,-0.32512 c -0.002,-0.0644 -0.0765,-0.0205 -0.16581,0.0975 -0.0893,0.11802 -0.16071,0.26725 -0.15878,0.33163 0.002,0.0644 0.0765,0.0205 0.16581,-0.0975 0.0893,-0.11802 0.16071,-0.26725 0.15878,-0.33163 z m -0.2706,-0.15166 c -0.0287,-0.0287 -0.12798,0.0108 -0.22065,0.0877 -0.1394,0.11569 -0.16848,0.10826 -0.16848,-0.0431 0,-0.19035 -0.44471,-0.42716 -0.567921,-0.30241 -0.0388,0.0392 -0.10406,0.19571 -0.14511,0.34771 l -0.0746,0.27635 0.22045,-0.2747 c 0.281601,-0.35091 0.317331,-0.31648 0.448441,0.43215 0.005,0.0258 0.13238,-0.0697 0.28413,-0.21231 0.15176,-0.14257 0.25245,-0.28269 0.22376,-0.31138 z m -1.419761,0.0121 c -0.12448,-0.0322 -0.17732,-0.11529 -0.13818,-0.2173 0.0349,-0.0909 0.0634,-0.18893 0.0634,-0.21794 0,-0.029 0.0551,-0.0187 0.12235,0.0229 0.0853,0.0527 0.0769,0.1044 -0.0276,0.17065 -0.11552,0.0732 -0.10366,0.0954 0.0516,0.0967 0.13287,10e-4 0.18885,-0.0642 0.16429,-0.19176 -0.0206,-0.1068 -0.1356,-0.19344 -0.25682,-0.19344 -0.15736,0 -0.22948,0.0861 -0.25455,0.30399 -0.0296,0.25704 0.005,0.30201 0.22109,0.29116 0.19993,-0.01 0.21187,-0.0242 0.0545,-0.0649 z m -0.44481,-0.31325 c 0.0359,-0.0935 -0.0231,-0.26756 -0.13114,-0.38689 -0.21387,-0.23632 -0.0768,-0.30332 0.16124,-0.0788 0.11822,0.11152 0.13671,0.10619 0.0959,-0.0276 -0.0613,-0.20068 -0.40121,-0.28328 -0.55069,-0.1338 -0.0703,0.0703 -0.0204,0.18966 0.14313,0.34199 0.18075,0.1684 0.20502,0.23397 0.0866,0.23397 -0.0905,0 -0.22425,-0.0597 -0.2972,-0.13264 -0.0737,-0.0737 -0.13265,-0.0835 -0.13265,-0.0221 0,0.3267 0.51356,0.49594 0.62485,0.2059 z m 0.49295,-4.77403 c 0.14518,0.0341 0.48781,0.14548 0.761401,0.24751 0.56957,0.2124 1.33909,0.1672 1.875451,-0.11016 0.47908,-0.24775 0.97412,-0.97893 1.0627,-1.56966 0.16464,-1.0979 -0.41989,-1.92716 -1.956421,-2.77553 -0.8857,-0.48902 -1.426901,-0.97668 -1.449801,-1.30637 -0.0461,-0.66387 0.408051,-1.1487 1.076051,-1.1487 0.64669,0 1.375211,0.63932 1.712351,1.50266 l 0.21179,0.54236 0.005,-1.19484 c 0.003,-0.76966 -0.0342,-1.17054 -0.10537,-1.12653 -0.0608,0.0376 -0.11054,0.14 -0.11054,0.22761 0,0.21788 -0.29515,0.19606 -0.86877,-0.0642 -1.561371,-0.70849 -3.085062,0.4207 -2.857452,2.11763 0.0991,0.73884 0.52011,1.23 1.648721,1.92341 1.259281,0.77369 1.404891,0.89682 1.596801,1.3503 0.1299,0.30693 0.12894,0.41453 -0.007,0.73881 -0.1662,0.39779 -0.652171,0.72586 -1.075211,0.72586 -0.77409,0 -1.705291,-0.87805 -1.968711,-1.85635 -0.0689,-0.25576 -0.14818,-0.46502 -0.17623,-0.46502 -0.028,0 -0.0499,0.60936 -0.0486,1.35413 0.003,1.33722 0.005,1.35083 0.20585,1.08962 0.14938,-0.19429 0.27346,-0.24806 0.46734,-0.20251 z m 4.959402,0.16642 0.19866,-0.24535 0.75866,0.24695 c 0.41727,0.13581 0.85815,0.24594 0.97974,0.24472 0.78047,-0.008 1.72259,-0.61576 2.00622,-1.29457 0.17255,-0.41298 0.1967,-1.331 0.0455,-1.72875 -0.1702,-0.44766 -0.77949,-0.97429 -1.90195,-1.64393 -1.10334,-0.65823 -1.42098,-0.98759 -1.42098,-1.47341 0,-0.4156 0.554,-0.93499 0.99731,-0.93499 0.79371,0 1.67379,0.77659 1.83125,1.61591 0.0386,0.20561 0.11434,0.37384 0.16837,0.37384 0.13645,0 0.12461,-2.18148 -0.0123,-2.2661 -0.0608,-0.0376 -0.11054,0.0108 -0.11054,0.10749 0,0.29624 -0.30905,0.31634 -0.90722,0.059 -1.68965,-0.72687 -3.31478,0.59908 -2.84995,2.3253 0.17256,0.64085 0.71061,1.17653 1.88286,1.87458 1.3167,0.78406 1.64534,1.29036 1.31218,2.02155 -0.14982,0.32882 -0.64877,0.63145 -1.04108,0.63145 -0.77888,0 -1.70948,-0.85048 -1.94772,-1.78003 -0.0763,-0.29774 -0.17908,-0.54134 -0.22839,-0.54134 -0.0493,0 -0.0896,0.59692 -0.0896,1.32649 0,0.72958 0.0293,1.3265 0.0652,1.3265 0.0358,0 0.15458,-0.1104 0.26385,-0.24533 z m -0.57602,-11.18482 c 0.085,-0.0495 0.44214,0.13844 0.91028,0.47894 0.42369,0.30816 0.79251,0.5603 0.8196,0.5603 0.0271,0 -0.10025,-0.4096 -0.28296,-0.91023 l -0.33219,-0.91024 0.31228,-0.25373 c 0.17175,-0.13955 0.5236,-0.38905 0.78189,-0.55444 0.25828,-0.16539 0.46969,-0.33615 0.4698,-0.37947 1.1e-4,-0.0433 -0.45783,-0.0931 -1.01763,-0.11054 l -1.01782,-0.0318 -0.28939,-0.93961 -0.28938,-0.9396 -0.31721,0.96349 -0.31721,0.9635 -1.05622,0.0314 -1.056211,0.0314 0.855541,0.59335 c 0.95468,0.66211 0.92415,0.55578 0.50899,1.77297 -0.11211,0.3287 -0.20384,0.64388 -0.20384,0.7004 0,0.0565 0.31089,-0.14192 0.69088,-0.44097 0.37999,-0.29905 0.75385,-0.58034 0.8308,-0.6251 z m -6.408313,-9.90639 0.0325,-1.992022 2.381961,0.02978 2.381962,0.02978 0.0175,1.326499 0.0175,1.326501 h 1.21595 1.21596 l -0.0284,-0.994876 c -0.0156,-0.547182 -8.3e-4,-1.156542 0.0326,-1.354135 l 0.061,-0.35926 h 2.26109 2.2611 v 1.38177 1.381771 h 1.21255 1.21256 l 0.031,-1.354134 0.031,-1.354136 2.51482,-0.02971 2.51482,-0.02971 v 1.383845 1.383855 h 1.21596 1.21596 V 6.337841 4.956069 h 2.76354 2.76354 V 6.94582 8.935579 l -13.67952,1.3e-4 -13.679533,1.3e-4 0.0325,-1.992029 z m 1.787281,1.21348 c 0.46071,-0.393792 0.49859,-0.396662 0.933351,-0.0706 0.61104,0.45829 0.63249,0.4506 0.3986,-0.1428 -0.1223,-0.310262 -0.22235,-0.580372 -0.22235,-0.600252 0,-0.0199 0.20793,-0.179704 0.46208,-0.355165 l 0.46208,-0.319024 -0.59693,-0.05527 -0.59693,-0.05527 -0.186061,-0.607975 c -0.19208,-0.627658 -0.2023,-0.623924 -0.45366,0.16581 -0.13785,0.433133 -0.15303,0.443298 -0.74247,0.49744 l -0.60173,0.05527 0.46356,0.305558 c 0.51128,0.337016 0.52448,0.382756 0.29456,1.020948 -0.0876,0.24319 -0.16005,0.4546 -0.16096,0.4698 -0.006,0.099 0.21794,-0.0273 0.54686,-0.30848 z m 7.078842,0.005 c 0.23029,-0.1824 0.45233,-0.331622 0.49343,-0.331622 0.0411,0 0.29509,0.151612 0.56443,0.336932 0.26935,0.18531 0.4897,0.32211 0.48967,0.30399 -3e-5,-0.0181 -0.098,-0.29052 -0.21761,-0.60534 l -0.21756,-0.572392 0.49517,-0.31194 0.49517,-0.311943 -0.62391,-0.05527 -0.62391,-0.05527 -0.18011,-0.599565 -0.18011,-0.599565 -0.20077,0.636928 -0.20078,0.636925 -0.59941,-0.03735 c -0.32968,-0.02056 -0.59926,-0.01249 -0.59907,0.01792 2.2e-4,0.03042 0.22411,0.196635 0.49759,0.36941 0.27348,0.17278 0.49724,0.3326 0.49724,0.35517 0,0.0226 -0.0988,0.29159 -0.21947,0.597832 -0.12071,0.30624 -0.19005,0.5568 -0.15409,0.5568 0.036,0 0.25381,-0.14923 0.4841,-0.33162 z m 8.20923,-0.331622 c 0.0529,0 0.26828,0.131292 0.47867,0.291762 0.21039,0.16048 0.40658,0.26772 0.43597,0.23833 0.0294,-0.0294 -0.0217,-0.26643 -0.11354,-0.526752 -0.2179,-0.61757 -0.22689,-0.58407 0.22154,-0.825564 0.66416,-0.357675 0.65746,-0.454143 -0.0314,-0.451449 l -0.62295,0.0025 -0.18802,-0.607979 c -0.11413,-0.369025 -0.21344,-0.54281 -0.2527,-0.442167 -0.0356,0.0912 -0.13278,0.364788 -0.21602,0.607981 -0.15025,0.438948 -0.15549,0.442165 -0.72003,0.442165 -0.31277,0 -0.56859,0.03071 -0.56849,0.06822 1.1e-4,0.03752 0.19918,0.19989 0.44237,0.360828 0.50306,0.332915 0.49944,0.320425 0.27635,0.952727 -0.0912,0.25848 -0.16581,0.49289 -0.16581,0.5209 0,0.028 0.20877,-0.1026 0.46394,-0.29025 0.25517,-0.18766 0.50721,-0.341192 0.56008,-0.341192 z m 8.09744,0.309322 c 0.27261,0.19215 0.49565,0.31976 0.49565,0.28358 0,-0.0362 -0.087,-0.31637 -0.19344,-0.622612 -0.13206,-0.38013 -0.15481,-0.57019 -0.0717,-0.598933 0.067,-0.02315 0.28805,-0.164778 0.49128,-0.314713 l 0.3695,-0.272607 h -0.6252 -0.62519 l -0.12026,-0.469802 c -0.20917,-0.817123 -0.2345,-0.828021 -0.44967,-0.193447 -0.11339,0.334386 -0.20756,0.625017 -0.20927,0.645844 -0.002,0.02085 -0.27677,0.02085 -0.61125,0 -0.33447,-0.02081 -0.60797,-0.01299 -0.60777,0.01742 2.2e-4,0.03042 0.2241,0.196631 0.49758,0.36941 0.27349,0.172775 0.49724,0.331208 0.49724,0.352068 0,0.0208 -0.0425,0.15309 -0.0943,0.29384 -0.0519,0.14075 -0.12862,0.397312 -0.17049,0.570122 l -0.0761,0.31422 0.5039,-0.36187 0.50389,-0.361872 z"
       id="path54537" />
  </g>
</svg>
