<?xml version="1.0" encoding="UTF-8" standalone="no"?>
<!-- Created with Inkscape (http://www.inkscape.org/) -->

<svg
   width="49.641647mm"
   height="24.544714mm"
   viewBox="0 0 49.641647 24.544714"
   version="1.1"
   id="svg56537"
   inkscape:version="1.1.2 (0a00cf5339, 2022-02-04)"
   sodipodi:docname="22.html"
   xmlns:inkscape="http://www.inkscape.org/namespaces/inkscape"
   xmlns:sodipodi="http://sodipodi.sourceforge.net/DTD/sodipodi-0.dtd"
   xmlns="http://www.w3.org/2000/svg"
   xmlns:svg="http://www.w3.org/2000/svg">
  <sodipodi:namedview
     id="namedview56539"
     pagecolor="#ffffff"
     bordercolor="#666666"
     borderopacity="1.0"
     inkscape:pageshadow="2"
     inkscape:pageopacity="0.0"
     inkscape:pagecheckerboard="0"
     inkscape:document-units="mm"
     showgrid="false"
     inkscape:zoom="0.69664703"
     inkscape:cx="135.64976"
     inkscape:cy="471.54439"
     inkscape:window-width="1920"
     inkscape:window-height="1016"
     inkscape:window-x="0"
     inkscape:window-y="0"
     inkscape:window-maximized="1"
     inkscape:current-layer="layer1" />
  <defs
     id="defs56534" />
  <g
     inkscape:label="Capa 1"
     inkscape:groupmode="layer"
     id="layer1"
     transform="translate(-68.988639,-23.42841)">
    <path
       id="path54950"
       style="fill:#ffffff;stroke-width:0.0738549"
       d="m 68.988659,40.859605 c 0,-0.0957 0.19854,-1.89513 0.2595,-2.35192 l 0.0394,-0.29542 16.55272,0.0213 16.552721,0.0213 0.47362,0.51156 c 0.66674,0.72013 1.97858,1.71648 2.6434,2.00767 0.26292,0.11516 -1.07347,0.12423 -22.433511,0.15235 -10.61294,0.014 -14.08787,-0.003 -14.08787,-0.0667 z m 13.17645,-0.68759 c 0.21445,-0.21444 0.24211,-0.85804 0.05,-1.16383 -0.24385,-0.3882 -0.77324,-0.41907 -1.00928,-0.0588 -0.26156,0.3992 -0.15268,1.17061 0.19047,1.3493 0.22867,0.11909 0.58112,0.061 0.76878,-0.12663 z m -0.69039,-0.25562 c -0.12866,-0.15503 -0.0683,-0.71216 0.0878,-0.80997 0.21149,-0.13255 0.38417,0.0326 0.41072,0.39282 0.0248,0.33655 -0.0754,0.52247 -0.28148,0.52247 -0.0713,0 -0.16895,-0.0474 -0.21703,-0.10532 z m 18.03299,0.23311 c 0.18213,-0.23505 0.2375,-0.61337 0.13824,-0.94465 -0.22823,-0.76176 -1.12825,-0.64924 -1.23436,0.15432 -0.0541,0.4092 0.1118,0.85525 0.35589,0.95724 0.24456,0.10218 0.59251,0.0237 0.74023,-0.16691 z m -0.67703,-0.23311 c -0.12866,-0.15503 -0.0683,-0.71216 0.0878,-0.80997 0.21149,-0.13255 0.38417,0.0326 0.41072,0.39282 0.0248,0.33655 -0.0754,0.52247 -0.28147,0.52247 -0.0713,0 -0.16896,-0.0474 -0.21704,-0.10532 z m -27.46895,0.013 0.01,-0.38774 0.0745,0.38774 c 0.0636,0.33085 0.0989,0.38774 0.2408,0.38774 0.13885,0 0.17832,-0.0579 0.23938,-0.35081 l 0.0731,-0.35081 0.009,0.35081 c 0.007,0.29866 0.0307,0.35081 0.15644,0.35081 0.13881,0 0.14771,-0.0492 0.14771,-0.81731 v -0.81732 l -0.2031,0.0234 c -0.18413,0.0212 -0.21302,0.0669 -0.30926,0.48911 l -0.10615,0.46574 -0.11541,-0.46574 c -0.10394,-0.41945 -0.13559,-0.46807 -0.31852,-0.48911 l -0.20309,-0.0234 v 0.81732 c 0,0.76807 0.009,0.81731 0.14771,0.81731 0.12772,0 0.14902,-0.0524 0.15741,-0.38774 z m 1.95934,-0.4062 c -0.0111,-0.74075 -0.0218,-0.79395 -0.15959,-0.79395 -0.13725,0 -0.14919,0.0563 -0.16867,0.79395 l -0.0209,0.79394 h 0.18055 0.18055 z m 1.71,0.6647 c -0.0185,-0.0974 -0.11085,-0.13481 -0.37469,-0.15176 -0.31357,-0.0202 -0.35014,-0.0409 -0.35014,-0.19886 0,-0.15466 0.0386,-0.17914 0.31388,-0.19906 0.21968,-0.0159 0.31388,-0.0559 0.31388,-0.13348 0,-0.0775 -0.0942,-0.11761 -0.31388,-0.1335 -0.25376,-0.0184 -0.31388,-0.0502 -0.31388,-0.16617 0,-0.1208 0.0525,-0.14347 0.33234,-0.14347 0.30749,0 0.33235,-0.0142 0.33235,-0.18938 0,-0.18687 -0.007,-0.18908 -0.49852,-0.16617 l -0.49852,0.0232 -0.0157,0.79394 -0.0157,0.79395 h 0.55656 c 0.49018,0 0.55363,-0.0154 0.53202,-0.12925 z m 0.90968,-0.2585 0.01,-0.38774 0.0745,0.38774 c 0.0639,0.33207 0.0986,0.38774 0.24229,0.38774 0.13863,0 0.17658,-0.0522 0.21852,-0.3004 0.0589,-0.34874 0.10141,-0.34514 0.12993,0.011 0.0159,0.19839 0.056,0.25758 0.1873,0.27639 0.16582,0.0238 0.16693,0.0178 0.14607,-0.77548 l -0.021,-0.79942 h -0.2182 c -0.2054,0 -0.22453,0.026 -0.32624,0.44268 l -0.10804,0.44267 -0.11728,-0.44267 c -0.10369,-0.39136 -0.13864,-0.44268 -0.30153,-0.44268 -0.1837,0 -0.18431,0.002 -0.20521,0.79395 -0.02,0.75597 -0.0138,0.79394 0.12924,0.79394 0.13074,0 0.15147,-0.0503 0.15992,-0.38774 z m 2.69769,0.19565 c 0.10268,-0.15671 0.11075,-0.23214 0.0438,-0.40949 -0.0451,-0.11956 -0.0654,-0.32393 -0.045,-0.45414 0.0594,-0.37984 -0.0937,-0.51172 -0.60692,-0.52276 l -0.43751,-0.009 -0.0209,0.79394 -0.0209,0.79394 h 0.48086 c 0.43639,0 0.4925,-0.0178 0.60672,-0.19209 z m -0.7133,-0.28797 c 0,-0.16856 0.0271,-0.19134 0.2031,-0.17107 0.14608,0.0168 0.2031,0.0648 0.2031,0.17107 0,0.10624 -0.057,0.15427 -0.2031,0.17108 -0.17605,0.0203 -0.2031,-0.003 -0.2031,-0.17108 z m 0,-0.62777 c 0,-0.12827 0.0377,-0.15318 0.2031,-0.13415 0.12092,0.0139 0.2031,0.0682 0.2031,0.13415 0,0.066 -0.0822,0.12024 -0.2031,0.13415 -0.16539,0.0191 -0.2031,-0.006 -0.2031,-0.13415 z m 1.74615,0.84934 c 0.0152,-0.31943 0.019,-0.33235 0.098,-0.33235 0.0394,0 0.14743,0.13268 0.24003,0.29485 0.11771,0.20611 0.21839,0.29503 0.33455,0.29543 0.20277,5.5e-4 0.20308,-0.007 0.0157,-0.37416 -0.1354,-0.2654 -0.1391,-0.30636 -0.0369,-0.40853 0.14976,-0.14976 0.14558,-0.57533 -0.007,-0.70187 -0.0692,-0.0574 -0.29708,-0.10055 -0.53545,-0.10136 l -0.41501,-10e-4 -0.021,0.79942 c -0.0209,0.79548 -0.0202,0.79929 0.14771,0.77548 0.12994,-0.0184 0.17116,-0.0749 0.17928,-0.24551 z m 0.0706,-0.68207 c -0.0243,-0.0243 -0.0442,-0.10732 -0.0442,-0.18448 0,-0.10949 0.0446,-0.13518 0.2031,-0.11694 0.11259,0.013 0.2031,0.069 0.2031,0.12569 0,0.10946 -0.28834,0.24942 -0.36203,0.17573 z m 5.05418,0.86545 c 0.2004,-0.10726 0.31196,-0.58266 0.22625,-0.96414 -0.0974,-0.43364 -0.22186,-0.53188 -0.68515,-0.54095 l -0.39278,-0.008 -0.0209,0.79394 -0.0209,0.79394 h 0.37662 c 0.20715,0 0.43979,-0.0338 0.51698,-0.0751 z m -0.5329,-0.42341 c -0.0476,-0.41301 0.0225,-0.75702 0.15426,-0.75702 0.19852,0 0.30244,0.15527 0.30244,0.45186 0,0.38539 -0.0632,0.50826 -0.26149,0.50826 -0.13255,0 -0.17718,-0.0465 -0.19521,-0.2031 z m 2.45079,0.35081 c 0,-0.12583 -0.0492,-0.14771 -0.33235,-0.14771 -0.30527,0 -0.33235,-0.015 -0.33235,-0.18464 0,-0.16617 0.0295,-0.18464 0.29542,-0.18464 0.24327,0 0.29542,-0.0253 0.29542,-0.14346 0,-0.11542 -0.06,-0.1479 -0.30723,-0.16618 -0.22567,-0.0167 -0.31216,-0.057 -0.32581,-0.15195 -0.0156,-0.10828 0.0411,-0.12925 0.34929,-0.12925 0.33926,0 0.36604,-0.0129 0.34428,-0.16617 -0.0217,-0.15287 -0.062,-0.16618 -0.50366,-0.16618 h -0.48006 l -0.0209,0.79395 -0.0209,0.79394 h 0.51948 c 0.47025,0 0.51949,-0.014 0.51949,-0.14771 z m 2.58493,0 c 0,-0.12583 -0.0492,-0.14771 -0.33235,-0.14771 h -0.33235 v -0.62777 c 0,-0.57853 -0.0116,-0.62777 -0.14771,-0.62777 -0.13833,0 -0.14771,0.0492 -0.14771,0.77548 v 0.77548 h 0.48006 c 0.43082,0 0.48006,-0.0152 0.48006,-0.14771 z m 0.8338,0 c 0.0284,-0.10873 0.10074,-0.14771 0.27402,-0.14771 0.17329,0 0.24559,0.039 0.27402,0.14771 0.025,0.0956 0.10074,0.14771 0.21466,0.14771 0.0968,0 0.17599,-0.008 0.17596,-0.0184 -3e-5,-0.0102 -0.11151,-0.36715 -0.24773,-0.79332 -0.21585,-0.67531 -0.26866,-0.77493 -0.41114,-0.77548 -0.14246,-5.6e-4 -0.196,0.0991 -0.41618,0.77485 -0.13897,0.42652 -0.25304,0.78379 -0.25348,0.79395 -5.6e-4,0.0102 0.0784,0.0184 0.17522,0.0184 0.11391,0 0.18966,-0.0521 0.21465,-0.14771 z m 0.17877,-0.66469 c 0.0213,-0.0812 0.0641,-0.14772 0.0952,-0.14772 0.0311,0 0.074,0.0665 0.0953,0.14772 0.0282,0.10759 0.002,0.1477 -0.0953,0.1477 -0.0975,0 -0.12339,-0.0401 -0.0952,-0.1477 z m 2.90742,0.33166 c 0.10653,-0.53597 0.18317,-0.50856 0.25825,0.0924 0.0448,0.35882 0.0635,0.38838 0.24447,0.38838 0.1898,0 0.20002,-0.0226 0.32524,-0.72009 0.15735,-0.87643 0.15741,-0.89619 0.003,-0.87346 -0.14146,0.0207 -0.23252,0.21033 -0.24008,0.49983 -0.009,0.35892 -0.14009,0.29097 -0.20323,-0.10563 -0.0554,-0.34826 -0.0809,-0.38854 -0.24579,-0.38854 -0.16353,0 -0.19596,0.0492 -0.2923,0.44314 l -0.10837,0.44313 -0.0783,-0.44251 c -0.0546,-0.30861 -0.11471,-0.44953 -0.19863,-0.46569 -0.18074,-0.0348 -0.21998,0.0905 -0.13866,0.44281 0.0403,0.17472 0.11007,0.50878 0.15496,0.74234 0.0714,0.37154 0.10308,0.42467 0.25302,0.42467 0.15194,0 0.18222,-0.0546 0.26694,-0.48074 z m 1.84071,0.29069 c 0,-0.24242 -0.24707,-0.22084 -0.2821,0.0246 -0.0179,0.12564 0.0131,0.16542 0.12925,0.16542 0.11496,0 0.15285,-0.0471 0.15285,-0.19005 z m 0.96247,-0.0131 c 0.001,-0.11171 0.0473,-0.26245 0.10238,-0.33498 0.0914,-0.12043 0.11197,-0.10284 0.23768,0.20282 0.1227,0.29837 0.16327,0.33473 0.37367,0.33498 l 0.23601,2.8e-4 -0.25448,-0.45023 c -0.13997,-0.24764 -0.25448,-0.4672 -0.25448,-0.48791 0,-0.0207 0.0988,-0.16243 0.21959,-0.31492 0.12077,-0.15249 0.19832,-0.29853 0.17233,-0.32451 -0.11535,-0.11534 -0.30115,-0.0266 -0.55589,0.26548 l -0.27475,0.31503 -0.002,-0.3193 c -0.002,-0.26367 -0.0247,-0.31499 -0.13145,-0.29455 -0.11192,0.0215 -0.13205,0.13105 -0.1502,0.81782 -0.02,0.7551 -0.0138,0.79307 0.12925,0.79307 0.11405,0 0.15077,-0.0489 0.15255,-0.2031 z m 1.75684,0.0377 c -0.035,-0.24547 -0.28209,-0.26705 -0.28209,-0.0246 0,0.14294 0.0379,0.19005 0.15285,0.19005 0.11609,0 0.14717,-0.0398 0.12924,-0.16542 z m 2.819821,-0.0192 c 0,-0.1354 -0.0394,-0.18464 -0.1477,-0.18464 -0.10832,0 -0.14771,0.0492 -0.14771,0.18464 0,0.1354 0.0394,0.18463 0.14771,0.18463 0.10832,0 0.1477,-0.0492 0.1477,-0.18463 z m 8.34564,0.81049 c -0.0609,-0.0119 -0.35745,-0.062 -0.65894,-0.11119 -1.71026,-0.27921 -3.61264,-1.33086 -4.82553,-2.6676 -1.48946,-1.64154 -2.22299,-3.399 -2.32272,-5.56493 -0.0705,-1.53092 0.19673,-2.84503 0.85604,-4.20975 2.1155,-4.37896 7.40279,-6.20632 11.75797,-4.0637 2.47889,1.21953 4.24964,3.55834 4.76126,6.28867 0.13976,0.74586 0.15877,2.23799 0.0379,2.98182 -0.30943,1.9055 -1.24934,3.64801 -2.7004,5.00632 -1.31749,1.23328 -2.78896,1.96685 -4.53684,2.26174 -0.5957,0.10051 -2.01644,0.14766 -2.36881,0.0786 z m 2.81195,-1.01858 c 2.36588,-0.61234 4.16827,-2.06202 5.26059,-4.23114 0.53238,-1.0572 0.79686,-2.19086 0.80005,-3.42922 0.003,-1.36585 -0.22557,-2.35865 -0.82584,-3.57911 -1.21383,-2.46797 -3.50847,-4.05092 -6.36689,-4.39221 -2.58846,-0.30906 -5.45941,0.95679 -7.07338,3.11877 -3.21842,4.31122 -1.42492,10.37525 3.6286,12.26869 0.43166,0.16174 1.24655,0.36271 1.80185,0.4444 0.588,0.0865 2.08451,-0.0215 2.77502,-0.20018 z m -2.92273,-0.568 c -1.43451,-0.21769 -2.81394,-0.88974 -3.86888,-1.88492 -1.58133,-1.49174 -2.37716,-3.43745 -2.27712,-5.56725 0.0829,-1.76578 0.72251,-3.31436 1.89388,-4.58561 l 0.37429,-0.40621 -0.18442,0.41282 c -0.44117,0.98762 -0.62061,2.17482 -0.48491,3.2083 0.18051,1.37463 0.75216,2.53809 1.72914,3.51921 1.13894,1.14377 2.50398,1.66601 4.14741,1.58673 1.15406,-0.0557 2.09448,-0.38904 2.99383,-1.06129 1.41248,-1.05578 2.242,-2.63711 2.33883,-4.45854 0.0501,-0.94318 -0.0466,-1.56375 -0.38377,-2.46139 l -0.24734,-0.65848 0.35916,0.36252 c 0.76294,0.7701 1.48111,2.17572 1.73233,3.39059 0.15137,0.73199 0.15392,2.19562 0.005,2.89524 -0.46219,2.1721 -1.80444,3.93102 -3.80779,4.98985 -1.24552,0.6583 -2.90126,0.93367 -4.3197,0.71843 z m 0.0353,-5.16464 c -1.24985,-0.16985 -2.42773,-0.91656 -3.15542,-2.00037 -0.5092,-0.7584 -0.70803,-1.45027 -0.71056,-2.47248 -0.002,-0.69743 0.0266,-0.89489 0.20016,-1.39514 0.2533,-0.73012 0.48376,-1.12534 0.96013,-1.64657 0.34228,-0.37451 1.29435,-1.09161 1.36091,-1.02504 0.0153,0.0153 -0.0217,0.12387 -0.0824,0.24115 -0.39946,0.77249 -0.45273,2.16411 -0.11121,2.90578 0.51483,1.11805 1.51772,1.5547 2.5303,1.10166 0.51269,-0.22938 1.42127,-0.18512 1.85311,0.0903 0.72214,0.46053 1.06902,1.05586 1.07018,1.83671 0.002,1.30913 -1.17079,2.24261 -2.99042,2.38031 -0.28434,0.0215 -0.70051,0.0142 -0.92482,-0.0163 z m 0.25959,-5.64355 c -0.40287,-0.18761 -0.80891,-0.59909 -0.96882,-0.98182 -0.0559,-0.13367 -0.10154,-0.44458 -0.10154,-0.69091 0,-0.52541 0.11233,-0.83056 0.44536,-1.20986 0.5127,-0.58394 1.44943,-0.80502 2.09228,-0.49382 0.49914,0.24162 0.69706,0.4236 0.90323,0.83046 0.25987,0.51282 0.30422,0.9905 0.13553,1.45961 -0.38297,1.06502 -1.50621,1.55193 -2.50604,1.08634 z m 6.01973,12.37811 -1.14475,-0.0228 0.55391,-0.30037 c 0.61727,-0.33474 1.36619,-0.851 1.58087,-1.08976 0.0774,-0.0861 0.16878,-0.15646 0.2031,-0.15646 0.0343,0 0.0624,0.36558 0.0624,0.8124 0,0.44682 -0.0249,0.80504 -0.0554,0.79602 -0.0305,-0.009 -0.57053,-0.0266 -1.20015,-0.0391 z m -30.841711,-3.61881 c 0.0228,-0.1117 0.17563,-0.9675 0.3396,-1.90177 0.16398,-0.93426 0.31476,-1.77344 0.33508,-1.86483 0.0342,-0.15385 0.0771,-0.16618 0.57804,-0.16618 h 0.54109 l -0.12897,0.68316 c -0.0709,0.37574 -0.11666,0.69599 -0.10162,0.71168 0.0151,0.0157 0.17599,-0.29173 0.35766,-0.68315 l 0.33032,-0.71169 h 0.48434 c 0.26639,0 0.48434,0.0171 0.48434,0.0381 0,0.0209 -0.19974,0.43652 -0.44387,0.92354 l -0.44388,0.88548 0.11106,0.9413 c 0.0611,0.51771 0.12734,1.03408 0.14723,1.14748 l 0.0361,0.20619 -0.57115,-0.0215 -0.57115,-0.0215 -0.0178,-0.33235 c -0.01,-0.18279 -0.0401,-0.54837 -0.0675,-0.81241 -0.056,-0.54032 -0.0424,-0.57615 -0.24538,0.64623 l -0.0889,0.53546 h -0.55312 -0.5531 z m 2.73722,0 c 0.0253,-0.1117 0.30364,-1.03396 0.61845,-2.04947 l 0.5724,-1.84638 0.80238,-0.0211 0.80239,-0.0211 -0.0485,1.27662 c -0.0266,0.70214 -0.0485,1.63389 -0.0486,2.07056 l -2.2e-4,0.79394 h -0.56105 -0.56103 l 0.0256,-0.36932 c 0.0247,-0.35673 0.0189,-0.36932 -0.17014,-0.36927 -0.17382,4e-5 -0.20565,0.0414 -0.28432,0.36932 l -0.0886,0.36927 h -0.55242 -0.55242 z m 1.7646,-1.72796 c 0.0261,-0.24968 0.0442,-0.57372 0.0401,-0.72009 -0.007,-0.23937 -0.0241,-0.21415 -0.17454,0.25087 -0.28649,0.88545 -0.29011,0.92319 -0.0886,0.92319 0.16061,0 0.17955,-0.0386 0.22297,-0.45397 z m 1.11556,1.76489 c 0.0203,-0.0914 0.1711,-0.93057 0.33507,-1.86484 0.16397,-0.93426 0.31679,-1.79006 0.33961,-1.90177 l 0.0415,-0.2031 h 0.9132 c 0.85909,0 0.92548,0.0106 1.12043,0.17837 0.18079,0.15563 0.20675,0.22937 0.20354,0.57838 -0.002,0.22 -0.0635,0.55667 -0.13662,0.74814 -0.10764,0.28187 -0.17421,0.35638 -0.34967,0.39148 -0.21033,0.0421 -0.21231,0.0465 -0.067,0.14817 0.27818,0.19485 0.30426,0.33947 0.18619,1.03288 -0.20044,1.17717 -0.12259,1.05847 -0.69422,1.05847 h -0.4994 l 0.15183,-0.89058 c 0.13173,-0.77269 0.1376,-0.89937 0.0443,-0.95704 -0.0591,-0.0365 -0.13012,-0.0429 -0.15771,-0.0142 -0.0426,0.0444 -0.35727,1.6332 -0.35727,1.80375 0,0.0319 -0.24989,0.058 -0.55532,0.058 -0.53759,0 -0.55414,-0.005 -0.51837,-0.16618 z m 1.80259,-2.44405 c 0.0452,-0.0545 0.0909,-0.261 0.10136,-0.45883 0.0151,-0.28535 -0.006,-0.36491 -0.1034,-0.38501 -0.12409,-0.0257 -0.14118,0.0194 -0.25249,0.66603 -0.0374,0.21738 -0.024,0.27696 0.0623,0.27696 0.0605,0 0.14699,-0.0446 0.19225,-0.0991 z m 0.8187,2.55484 c -0.002,-0.0305 0.27215,-0.96104 0.60889,-2.06795 l 0.61225,-2.01255 h 0.79354 0.79356 l -0.0401,1.82792 c -0.022,1.00535 -0.0564,1.93592 -0.0764,2.06794 l -0.0363,0.24003 -0.5321,4e-5 -0.5321,5e-5 0.0256,-0.36932 c 0.0245,-0.35331 0.0174,-0.36932 -0.16271,-0.36932 -0.15467,0 -0.20203,0.0495 -0.26521,0.27696 -0.0423,0.15232 -0.0771,0.31849 -0.0773,0.36927 -5.6e-4,0.10173 -1.10544,0.13844 -1.11159,0.0369 z m 1.77589,-1.59521 c 0,-0.0954 0.0174,-0.43608 0.0387,-0.75701 l 0.0386,-0.58353 -0.22234,0.70163 c -0.12228,0.38589 -0.22278,0.72655 -0.22333,0.75701 -5.6e-4,0.0305 0.0821,0.0554 0.18366,0.0554 0.14454,0 0.18463,-0.0377 0.18463,-0.1735 z m 1.2844,1.52136 c 0.0361,-0.12019 0.56198,-3.07428 0.56198,-3.1569 0,-0.0206 -0.13294,-0.0374 -0.29542,-0.0374 -0.32345,0 -0.33309,-0.0208 -0.24802,-0.53545 l 0.0457,-0.27696 h 1.17201 c 1.30449,0 1.21979,-0.0403 1.12462,0.53545 -0.0447,0.27058 -0.0531,0.27696 -0.36706,0.27696 -0.2723,0 -0.32726,0.0253 -0.36053,0.16617 -0.0405,0.17152 -0.5544,3.06851 -0.5544,3.12539 0,0.0175 -0.2515,0.0319 -0.55889,0.0319 -0.49783,0 -0.55465,-0.0141 -0.52007,-0.12924 z m 1.99477,-0.0739 c 0.0227,-0.1117 0.15885,-0.86779 0.30253,-1.6802 0.14368,-0.8124 0.29628,-1.65159 0.33909,-1.86484 l 0.0779,-0.38774 h 0.89069 0.890691 l -0.0457,0.27696 c -0.0252,0.15232 -0.0461,0.33512 -0.0466,0.4062 -5.6e-4,0.10732 -0.0697,0.12925 -0.407021,0.12925 -0.33731,0 -0.40634,0.0219 -0.40702,0.12925 -5.6e-4,0.0711 -0.0214,0.25387 -0.0466,0.40619 l -0.0458,0.27696 h 0.34342 c 0.33581,0 0.34246,0.005 0.30045,0.20311 -0.0236,0.1117 -0.0581,0.27787 -0.0767,0.36927 -0.0288,0.14214 -0.0808,0.16617 -0.35967,0.16617 -0.35982,0 -0.36606,0.008 -0.45088,0.60931 l -0.0495,0.35081 h 0.38732 0.38733 l -0.0458,0.27696 c -0.0252,0.15233 -0.0461,0.33511 -0.0466,0.40621 -6.4e-4,0.11645 -0.0964,0.12924 -0.9668,0.12924 h -0.96598 z m -22.37843,-4.66916 c -0.32113,-0.16389 -0.47236,-0.39685 -0.47236,-0.72763 0,-0.26246 0.35008,-2.27012 0.449,-2.57498 0.17938,-0.55281 0.70063,-0.90476 1.34436,-0.90772 0.6941,-0.003 1.08699,0.30356 1.08699,0.84866 0,0.52466 -0.36937,2.42191 -0.53901,2.76862 -0.30195,0.61712 -1.23912,0.91449 -1.86898,0.59305 z m 0.88676,-0.72229 c 0.0218,-0.0711 0.14308,-0.70651 0.26945,-1.41205 0.17274,-0.9645 0.20871,-1.30352 0.14495,-1.36631 -0.0632,-0.0623 -0.10861,-0.0513 -0.17836,0.0431 -0.10651,0.14413 -0.58016,2.70023 -0.51877,2.79956 0.0685,0.11077 0.24103,0.0715 0.28273,-0.0643 z m 5.06196,0.80133 c -0.36122,-0.11642 -0.52573,-0.2422 -0.62119,-0.47492 -0.11071,-0.26993 -0.1098,-0.2787 0.22528,-2.19578 0.13888,-0.79459 0.25252,-1.46759 0.25252,-1.49557 0,-0.028 0.24989,-0.0508 0.55531,-0.0508 0.53764,0 0.55415,0.005 0.51826,0.16617 -0.0844,0.37828 -0.55659,3.13916 -0.55659,3.25416 0,0.13368 0.18384,0.17166 0.25709,0.0532 0.0244,-0.0394 0.14305,-0.64591 0.26379,-1.34786 0.12076,-0.70194 0.25669,-1.46736 0.30208,-1.70092 l 0.0825,-0.42468 h 0.54246 0.54246 l -0.0388,0.20311 c -0.0213,0.11171 -0.16674,0.90838 -0.32312,1.77039 -0.30755,1.69533 -0.38189,1.87652 -0.86754,2.11444 -0.29251,0.14331 -0.88235,0.21048 -1.13452,0.1292 z m 2.8065,5.6e-4 c -0.57447,-0.18668 -0.69687,-0.40294 -0.62313,-1.10097 l 0.0492,-0.46531 0.5027,0.0147 0.50272,0.0147 -0.0392,0.43218 c -0.0322,0.35422 -0.019,0.43216 0.0728,0.43216 0.15823,0 0.25661,-0.14199 0.31503,-0.45467 0.0561,-0.30014 0.0636,-0.28975 -0.64662,-0.89219 -0.47828,-0.40568 -0.54839,-0.60479 -0.42397,-1.2041 0.16025,-0.77194 0.66943,-1.11736 1.55289,-1.05346 0.69261,0.0501 0.93924,0.34027 0.84176,0.99034 l -0.0486,0.32457 h -0.50948 -0.50947 l 0.0457,-0.28614 c 0.03,-0.18786 0.0152,-0.30502 -0.0432,-0.34109 -0.13717,-0.0848 -0.30475,0.13436 -0.31255,0.40872 -0.006,0.19926 0.0416,0.28327 0.24465,0.43448 0.13842,0.1031 0.39292,0.32495 0.56556,0.49301 0.28555,0.27798 0.31373,0.3381 0.31212,0.66609 -0.004,0.73921 -0.20348,1.1939 -0.63623,1.44738 -0.25348,0.14846 -0.94169,0.22772 -1.2127,0.13965 z m -14.69287,-0.12164 c 0,-0.066 0.11388,-0.74046 0.25307,-1.49879 0.13918,-0.75833 0.29449,-1.65297 0.34512,-1.98809 l 0.0921,-0.6093 h 0.54113 c 0.38372,0 0.5411,0.0269 0.54103,0.0923 -5e-5,0.0508 -0.0494,0.37254 -0.10968,0.71504 -0.0602,0.34249 -0.0992,0.63314 -0.0864,0.64589 0.0128,0.0127 0.1761,-0.30901 0.363,-0.71503 l 0.33982,-0.73821 h 1.00222 1.00222 l 0.004,0.75701 0.004,0.75702 0.28031,-0.73855 0.2803,-0.73856 0.4916,-0.0218 c 0.27039,-0.012 0.49161,-0.005 0.49161,0.0162 0,0.0209 -0.27875,0.63035 -0.61945,1.35431 -0.53255,1.13163 -0.63796,1.42206 -0.75141,2.07023 l -0.13196,0.75394 h -0.50413 c -0.27727,0 -0.50358,-0.008 -0.50291,-0.0185 5.6e-4,-0.0102 0.0637,-0.36317 0.14005,-0.78447 0.13641,-0.75257 0.13632,-0.78814 -0.005,-2.02848 -0.079,-0.69435 -0.15663,-1.27544 -0.17249,-1.29129 -0.0159,-0.0159 -0.23343,0.37935 -0.48351,0.87823 l -0.4547,0.90706 0.1386,1.13566 c 0.0762,0.62462 0.12372,1.15053 0.10554,1.16871 -0.0182,0.0182 -0.27677,0.0331 -0.57465,0.0331 h -0.5416 l -0.006,-0.4616 c -0.004,-0.25387 -0.0301,-0.62776 -0.059,-0.83087 l -0.0525,-0.36927 -0.0961,0.55391 c -0.0529,0.30466 -0.1191,0.67023 -0.14718,0.81241 l -0.0511,0.2585 -0.53238,0.0217 c -0.4511,0.0184 -0.53238,0.003 -0.53238,-0.0983 z m 8.24707,0.0582 c -0.0265,-0.0438 0.27129,-1.83067 0.65222,-3.91433 l 0.0439,-0.24002 h 0.54052 0.54053 l -0.12763,0.70162 c -0.0702,0.38589 -0.10722,0.70014 -0.0823,0.69833 0.0249,-0.002 0.19238,-0.31755 0.37211,-0.70163 l 0.32676,-0.69832 h 0.50463 0.50464 l -0.47527,0.94845 -0.47527,0.94846 0.13545,1.10084 c 0.0745,0.60546 0.12,1.12585 0.10111,1.15641 -0.0189,0.0305 -0.26087,0.0556 -0.53774,0.0556 h -0.50339 l -0.0462,-0.2308 c -0.0254,-0.12694 -0.0485,-0.43436 -0.0514,-0.68316 -0.009,-0.78384 -0.0995,-0.76829 -0.23754,0.0409 -0.0709,0.41526 -0.16987,0.78109 -0.22001,0.81294 -0.11667,0.0741 -0.92098,0.0781 -0.96522,0.005 z m 8.4442,-0.0603 c 0,-0.13603 0.65389,-3.86628 0.70149,-4.00174 0.0381,-0.10858 1.07104,-0.13265 1.07104,-0.0249 0,0.037 -0.0499,0.32785 -0.11077,0.64623 -0.1408,0.73577 -0.13965,0.76351 0.0317,0.76351 0.14562,0 0.16087,-0.0476 0.35485,-1.10783 l 0.0608,-0.33235 0.53334,-0.0217 c 0.29334,-0.012 0.53388,0.005 0.53453,0.0369 0.005,0.24698 -0.7145,4.0587 -0.77414,4.10106 -0.13674,0.0971 -0.9996,0.0662 -0.99933,-0.0358 2.8e-4,-0.12263 0.21755,-1.38635 0.26661,-1.55095 0.0292,-0.0978 -0.005,-0.12925 -0.13823,-0.12925 -0.16658,0 -0.18417,0.0436 -0.3054,0.75702 -0.18813,1.10708 -0.1237,1.0155 -0.71446,1.0155 -0.41553,0 -0.51201,-0.0218 -0.51201,-0.11569 z m 2.94263,0.0795 c -0.0199,-0.0199 0.0865,-0.72615 0.23648,-1.56942 0.14997,-0.84328 0.31328,-1.77418 0.3629,-2.06868 l 0.0902,-0.53545 h 0.55525 c 0.53866,0 0.55403,0.005 0.51447,0.16618 -0.0224,0.0914 -0.17669,0.94719 -0.3428,1.90177 -0.16612,0.95457 -0.32019,1.82699 -0.34238,1.9387 -0.0392,0.19753 -0.054,0.2031 -0.53915,0.2031 -0.27435,0 -0.5151,-0.0163 -0.53501,-0.0362 z m 1.48868,-0.0115 c 0,-0.0534 0.66407,-3.82926 0.70276,-3.99583 0.0346,-0.14905 0.0832,-0.16618 0.47172,-0.16618 0.50263,0 0.46755,-0.0584 0.60762,1.01214 0.0497,0.37954 0.11261,0.66435 0.13991,0.63291 0.0273,-0.0314 0.10913,-0.41444 0.18184,-0.85111 l 0.13222,-0.79394 h 0.43293 c 0.38457,0 0.43292,0.0166 0.43292,0.14862 0,0.19201 -0.66311,3.92495 -0.71097,4.00239 -0.02,0.0323 -0.21596,0.0587 -0.43554,0.0587 -0.4863,0 -0.51672,-0.0434 -0.5913,-0.84405 -0.0887,-0.95183 -0.14378,-1.05218 -0.24634,-0.44841 -0.0483,0.28434 -0.12252,0.69158 -0.16495,0.90497 l -0.0771,0.38798 -0.43784,-0.01 c -0.24082,-0.005 -0.43785,-0.0227 -0.43785,-0.0383 z m 2.87775,-0.008 c -0.001,-0.0305 0.15608,-0.97766 0.35002,-2.10488 l 0.35262,-2.04948 h 0.53625 c 0.29493,0 0.53624,0.0303 0.53624,0.0674 0,0.0371 -0.0499,0.32786 -0.11077,0.64624 -0.16548,0.86474 -0.14156,0.86882 0.25537,0.0434 l 0.36405,-0.75701 h 0.48423 c 0.26632,0 0.48422,0.0171 0.48422,0.0381 0,0.0209 -0.20371,0.44445 -0.4527,0.94114 l -0.4527,0.90307 0.12073,1.03449 c 0.16744,1.43481 0.21416,1.29298 -0.42587,1.29298 h -0.54584 l -0.0533,-0.81638 c -0.0293,-0.44902 -0.067,-0.80267 -0.0838,-0.78592 -0.0168,0.0168 -0.081,0.32598 -0.14276,0.68714 -0.16882,0.98735 -0.1135,0.91516 -0.70134,0.91516 -0.2816,0 -0.51318,-0.0249 -0.51461,-0.0554 z m 2.68064,-0.0369 c 0.0193,-0.0508 0.31223,-0.99797 0.65102,-2.10488 l 0.61598,-2.01255 h 0.78906 0.78906 l -0.0366,1.56942 c -0.0201,0.86318 -0.0581,1.80207 -0.0843,2.08641 l -0.0477,0.51699 h -0.51699 -0.51698 l 0.0253,-0.38774 c 0.0243,-0.37311 0.0182,-0.38774 -0.16332,-0.38774 -0.16002,0 -0.20076,0.0476 -0.26894,0.31388 -0.0442,0.17264 -0.0943,0.35543 -0.1113,0.40621 -0.0211,0.0631 -0.20954,0.0923 -0.5951,0.0923 -0.42076,0 -0.55523,-0.0234 -0.52909,-0.0923 z m 1.82713,-1.75184 c 0,-0.15179 0.0162,-0.48857 0.036,-0.7484 l 0.036,-0.47244 -0.18338,0.55392 c -0.10085,0.30465 -0.2031,0.65788 -0.2272,0.78495 -0.0411,0.21669 -0.032,0.22877 0.14734,0.19449 0.16504,-0.0316 0.19117,-0.0743 0.19117,-0.31252 z m 1.11235,1.71814 c 0.003,-0.0729 0.16194,-1.0132 0.35435,-2.08964 l 0.34982,-1.95716 0.531911,-0.0217 c 0.47172,-0.0193 0.53141,-0.007 0.5274,0.11078 -0.003,0.0729 -0.1607,1.01321 -0.3516,2.08965 l -0.347101,1.95716 -0.53465,0.0217 c -0.47435,0.0193 -0.53414,0.007 -0.53013,-0.11078 z m -19.77343,-4.78223 c -0.30506,-0.1327 -0.41419,-0.34981 -0.40397,-0.80361 0.014,-0.62323 0.0288,-0.63969 0.57462,-0.63969 h 0.4804 l -0.0496,0.39728 c -0.0586,0.46949 0.0551,0.6134 0.27253,0.34485 0.22021,-0.27195 0.17719,-0.63195 -0.10406,-0.87081 -0.1319,-0.11202 -0.38569,-0.34508 -0.564,-0.51792 l -0.32418,-0.31425 0.0383,-0.47681 c 0.0476,-0.59234 0.24446,-0.9858 0.5807,-1.16029 0.54225,-0.2814 1.32262,-0.24019 1.67541,0.0885 0.12507,0.11652 0.163,0.2357 0.163,0.51222 0,0.56982 -0.0231,0.594 -0.56747,0.594 h -0.4778 l 0.0223,-0.30835 c 0.0251,-0.34724 -0.11582,-0.46817 -0.28148,-0.24161 -0.21089,0.2884 -0.12502,0.51947 0.31908,0.85863 0.61331,0.46839 0.72982,0.65518 0.71249,1.14235 -0.0166,0.46652 -0.13602,0.88769 -0.3088,1.08895 -0.31852,0.37104 -1.23973,0.53174 -1.75737,0.30658 z m 2.80546,0.004 c -0.25664,-0.11598 -0.46637,-0.44743 -0.46637,-0.73704 0,-0.23308 0.34154,-2.20649 0.44556,-2.5744 0.21847,-0.77278 1.28455,-1.16112 2.07102,-0.75443 0.43226,0.22354 0.45263,0.69299 0.1056,2.43438 -0.20614,1.03441 -0.37635,1.36345 -0.81944,1.58409 -0.30361,0.15119 -1.04828,0.1776 -1.33637,0.0474 z m 0.93163,-0.919 c 0.0776,-0.29756 0.44838,-2.37322 0.44838,-2.50981 0,-0.16231 -0.29113,-0.0921 -0.33266,0.0802 -0.12168,0.50491 -0.47073,2.66903 -0.43881,2.72067 0.0786,0.12717 0.25565,-0.0323 0.32309,-0.29104 z m 1.92651,0.89777 c -0.51093,-0.26426 -0.53023,-0.53233 -0.17435,-2.42267 0.19029,-1.01081 0.20145,-1.04081 0.49811,-1.33935 0.58388,-0.58757 1.54768,-0.62687 2.00631,-0.0818 0.18711,0.22237 0.19619,0.2672 0.15433,0.76243 -0.0662,0.78296 -0.0548,0.76952 -0.65546,0.76952 h -0.5176 l 0.0566,-0.42466 c 0.0909,-0.6823 0.0866,-0.71791 -0.0888,-0.74289 -0.17767,-0.0253 -0.17989,-0.0178 -0.46677,1.57376 -0.15719,0.87214 -0.18371,1.26209 -0.0898,1.32016 0.13856,0.0856 0.26475,-0.11855 0.34366,-0.55603 l 0.0845,-0.46871 0.54082,-0.0219 0.54082,-0.0219 -0.0519,0.35423 c -0.13567,0.92542 -0.58501,1.3666 -1.43481,1.40875 -0.36262,0.018 -0.55446,-0.01 -0.74569,-0.10895 z m 7.15454,0.007 c -0.49483,-0.20555 -0.53758,-0.58432 -0.24698,-2.18834 0.10327,-0.57003 0.23269,-1.14392 0.28758,-1.27531 0.30982,-0.74149 1.66109,-1.00898 2.22886,-0.44122 0.14536,0.14537 0.176,0.25095 0.17533,0.60417 -5.6e-4,0.23542 -0.0214,0.55266 -0.0466,0.70498 l -0.0457,0.27696 h -0.55225 c -0.53882,0 -0.55122,-0.004 -0.50978,-0.16926 0.0234,-0.0931 0.0648,-0.35897 0.092,-0.59084 0.0463,-0.39355 0.0394,-0.42158 -0.10397,-0.42158 -0.0844,0 -0.17008,0.0268 -0.19032,0.0595 -0.0202,0.0327 -0.14414,0.66525 -0.27532,1.40556 -0.1828,1.03159 -0.21823,1.36629 -0.15166,1.43285 0.14511,0.14511 0.30252,-0.0911 0.39613,-0.59451 l 0.085,-0.45707 h 0.54675 0.54675 l -0.0488,0.24003 c -0.1718,0.84386 -0.37351,1.16224 -0.88301,1.39367 -0.35952,0.16331 -0.938,0.17234 -1.30389,0.0204 z m 4.46763,0.0123 c -0.31337,-0.13639 -0.47107,-0.38513 -0.47107,-0.74305 0,-0.47006 0.35794,-2.39046 0.50936,-2.73275 0.34153,-0.77211 1.54674,-1.02371 2.12651,-0.44395 0.30876,0.30877 0.31102,0.44938 0.0314,1.96291 -0.21441,1.16083 -0.32175,1.47937 -0.57605,1.70951 -0.36894,0.33388 -1.14806,0.45282 -1.6202,0.24733 z m 0.85922,-0.72475 c 0.10205,-0.23686 0.52064,-2.64706 0.4731,-2.72399 -0.0932,-0.15076 -0.25174,-0.0447 -0.31807,0.21292 -0.14197,0.55124 -0.45665,2.53505 -0.41325,2.60527 0.0744,0.12047 0.18277,0.0809 0.25822,-0.0942 z m -21.5639,0.6647 c 0.001,-0.0508 0.27923,-0.98966 0.6172,-2.08641 l 0.6145,-1.99409 0.79772,-0.0211 0.79771,-0.0211 -0.0483,1.16583 c -0.0266,0.64122 -0.0485,1.58958 -0.0486,2.10749 l -2.4e-4,0.94166 h -0.5776 -0.5776 l 0.0473,-0.36927 c 0.0467,-0.36427 0.0447,-0.36928 -0.15358,-0.36928 -0.1801,0 -0.21015,0.0383 -0.28955,0.36928 l -0.0886,0.36927 h -0.54655 c -0.38945,0 -0.54577,-0.0265 -0.54384,-0.0923 z m 1.77438,-1.62482 c 0.003,-0.13201 0.0287,-0.48057 0.0582,-0.77456 0.0295,-0.29399 0.033,-0.51002 0.008,-0.48006 -0.045,0.0535 -0.43973,1.35163 -0.43973,1.44632 0,0.0266 0.0831,0.0483 0.18464,0.0483 0.15814,0 0.1853,-0.0345 0.18921,-0.24002 z m 9.67047,1.65702 c 0,-0.10003 0.66711,-3.88137 0.70929,-4.02038 0.0324,-0.10689 0.12777,-0.12925 0.55122,-0.12925 0.2816,0 0.51295,0.0249 0.51411,0.0554 0.001,0.0305 -0.15672,0.9776 -0.35082,2.10474 l -0.35291,2.04935 -0.53544,1.5e-4 c -0.2945,7e-5 -0.53545,-0.0269 -0.53545,-0.06 z m 1.25553,0.0432 c 0,-0.0127 0.10979,-0.37137 0.24397,-0.79705 0.13418,-0.42568 0.42498,-1.36479 0.64623,-2.08692 l 0.40227,-1.31296 0.77548,0.0205 0.77548,0.0205 -0.0199,1.10783 c -0.0109,0.6093 -0.0399,1.54819 -0.0643,2.08641 l -0.0445,0.97858 h -0.54755 -0.54755 l 0.0497,-0.37517 0.0497,-0.37518 -0.21028,0.0243 c -0.18172,0.0211 -0.22119,0.0695 -0.29057,0.35671 l -0.0803,0.33235 -0.56905,0.0216 c -0.31299,0.0118 -0.56906,0.0112 -0.56906,-10e-4 z m 1.86407,-2.19878 c 0.03,-0.3859 0.0445,-0.733 0.0322,-0.77133 -0.0227,-0.0704 -0.41911,1.2918 -0.41911,1.44014 0,0.044 0.0748,0.0694 0.16617,0.0564 0.15443,-0.022 0.17003,-0.0732 0.22079,-0.72523 z m 4.01307,2.08641 c 0.0457,-0.20574 0.69598,-3.96812 0.69598,-4.02717 0,-0.0293 0.2519,-0.0534 0.55978,-0.0534 h 0.55978 l -0.0415,0.20311 c -0.0228,0.11171 -0.17597,0.9675 -0.34035,1.90177 -0.16438,0.93426 -0.31717,1.79006 -0.33953,1.90177 -0.04,0.19939 -0.0506,0.2031 -0.5818,0.2031 -0.47708,0 -0.53773,-0.0153 -0.51239,-0.12925 z m 4.41828,-0.0702 c 0.0237,-0.11374 0.16077,-0.88811 0.30482,-1.72083 0.14405,-0.83272 0.29628,-1.68852 0.33828,-1.90177 l 0.0764,-0.38774 h 0.42988 c 0.495501,0 0.451841,-0.0737 0.601721,1.01551 0.0517,0.37573 0.1144,0.68316 0.13933,0.68316 0.0249,0 0.10742,-0.38221 0.18333,-0.84934 l 0.138,-0.84933 h 0.46864 c 0.44828,0 0.46697,0.007 0.42984,0.16617 -0.0504,0.21589 -0.70189,3.91557 -0.70227,3.98818 -2.2e-4,0.0483 -0.95808,0.0851 -0.96183,0.0369 -0.0211,-0.27103 -0.224601,-1.63544 -0.247221,-1.65806 -0.0175,-0.0175 -0.0722,0.21133 -0.12153,0.50848 -0.0494,0.29715 -0.11168,0.67321 -0.13851,0.8357 l -0.0488,0.29541 -0.4665,0.0222 -0.4665,0.0222 z m 5.058071,20.23261 c 0.98442,-0.28815 1.3854,-1.21241 0.81835,-1.8863 -0.2572,-0.30567 -0.65853,-0.40075 -1.44458,-0.34223 -0.38466,0.0286 -0.65801,0.0193 -0.68436,-0.0233 -0.0759,-0.12276 0.12467,-0.18852 0.70992,-0.23278 0.44918,-0.034 0.63038,-0.085 0.87359,-0.24594 0.52281,-0.34597 0.73697,-1.10348 0.48349,-1.71014 -0.10465,-0.25047 -0.1021,-0.26033 0.10743,-0.41524 l 0.21463,-0.15868 -0.31054,-0.27777 -0.31052,-0.27778 -0.19956,0.18883 c -0.18299,0.17314 -0.21844,0.18101 -0.42665,0.0948 -0.14446,-0.0599 -0.41153,-0.0809 -0.73394,-0.0578 -0.42216,0.0302 -0.56313,0.0767 -0.8436,0.2781 -0.70907,0.50921 -0.81784,1.41972 -0.24435,2.04551 l 0.23872,0.26049 -0.24316,0.24317 c -0.25989,0.25989 -0.2853,0.3591 -0.16979,0.66291 0.12237,0.32187 0.51171,0.43347 1.30834,0.37502 0.70544,-0.0517 0.92387,-0.003 1.01156,0.22541 0.0715,0.18631 -0.13964,0.44771 -0.44226,0.54759 -0.37383,0.12337 -0.86546,0.0517 -1.21006,-0.1763 l -0.29031,-0.19212 -0.26225,0.32005 c -0.14424,0.17603 -0.26226,0.34038 -0.26226,0.36523 0,0.0638 0.26756,0.1993 0.6807,0.34479 0.46737,0.16458 1.15695,0.1834 1.63146,0.0445 z m -1.03026,-3.2925 c -0.53484,-0.21583 -0.51994,-1.08107 0.0217,-1.25984 0.53303,-0.17591 0.91205,0.10216 0.91205,0.66914 0,0.52036 -0.43155,0.79337 -0.93375,0.5907 z m 11.19221,3.27437 c 0.20836,-0.0673 0.49109,-0.22516 0.62829,-0.35081 0.26246,-0.24038 0.29942,-0.32709 1.47575,-3.46285 l 0.54839,-1.46185 -0.48059,0.0217 -0.48057,0.0217 -0.46602,1.29246 -0.46601,1.29247 -0.12613,-0.29542 c -0.0694,-0.16248 -0.30214,-0.74409 -0.51726,-1.29246 l -0.39112,-0.99705 -0.48037,-0.0217 -0.48036,-0.0217 0.70697,1.7573 c 0.80981,2.01287 0.90243,2.43474 0.58084,2.64545 -0.10683,0.07 -0.34331,0.14407 -0.52552,0.16461 l -0.33128,0.0374 v 0.3966 c 0,0.38792 0.005,0.3966 0.21308,0.3966 0.1172,0 0.38356,-0.0551 0.59191,-0.12235 z m -20.577591,-1.56622 0.25138,-0.15536 0.17231,0.18341 c 0.20042,0.21334 0.54522,0.24328 0.79411,0.0689 0.15804,-0.1107 0.15922,-0.12089 0.036,-0.30891 -0.10039,-0.15322 -0.13753,-0.43817 -0.17519,-1.34417 -0.0312,-0.74934 -0.0859,-1.24095 -0.15727,-1.41167 -0.13643,-0.32646 -0.49197,-0.63188 -0.85193,-0.73186 -0.61545,-0.17093 -1.78912,-0.034 -1.78829,0.20862 2.3e-4,0.0663 0.0339,0.24105 0.0748,0.3884 l 0.0744,0.26792 0.27598,-0.0985 c 0.6816,-0.24328 1.42047,-0.022 1.4208,0.4256 6e-5,0.0712 -0.12334,0.0941 -0.46159,0.0857 -0.80914,-0.0201 -1.44761,0.28888 -1.68726,0.81659 -0.32412,0.71369 -0.0225,1.5315 0.64356,1.74479 0.34745,0.11126 1.09476,0.0356 1.3781,-0.1395 z m -1.05796,-0.6627 c -0.18925,-0.15324 -0.21891,-0.53479 -0.0568,-0.73028 0.14986,-0.18071 0.53789,-0.31579 0.90715,-0.31579 h 0.33472 v 0.37496 c 0,0.31596 -0.034,0.40893 -0.21589,0.59084 -0.26004,0.26004 -0.70199,0.29664 -0.96919,0.0803 z m 7.55721,0.6627 0.251381,-0.15536 0.17232,0.18341 c 0.20042,0.21334 0.54522,0.24328 0.79411,0.0689 0.15803,-0.1107 0.15922,-0.12089 0.036,-0.30891 -0.10046,-0.15331 -0.13755,-0.4386 -0.17537,-1.34881 -0.0506,-1.21811 -0.13822,-1.54913 -0.49546,-1.87221 -0.35252,-0.3188 -1.265561,-0.43958 -1.974141,-0.26116 -0.35622,0.0897 -0.37807,0.14081 -0.25288,0.5915 l 0.0744,0.26792 0.27598,-0.0985 c 0.672,-0.23985 1.41045,-0.0253 1.41794,0.41199 0.001,0.0888 -0.11193,0.11163 -0.57036,0.11501 -0.70381,0.005 -1.19935,0.22001 -1.47786,0.64066 -0.46016,0.69501 -0.18594,1.68027 0.52927,1.90155 0.36671,0.11346 1.10791,0.0412 1.39463,-0.13604 z m -1.04927,-0.65567 c -0.21679,-0.17554 -0.23781,-0.54155 -0.0434,-0.75631 0.15606,-0.17245 0.54847,-0.29579 0.9429,-0.29637 l 0.27695,-2.9e-4 v 0.36516 c 0,0.49265 -0.21042,0.74291 -0.668,0.79449 -0.25625,0.0289 -0.37081,0.005 -0.5084,-0.10654 z m 8.617301,0.66537 c 0.30833,-0.15138 0.31389,-0.15154 0.31389,-0.01 0,0.1304 0.0451,0.14238 0.46159,0.12254 l 0.4616,-0.022 0.0197,-1.90177 0.0197,-1.90177 h -0.48131 -0.4813 v 1.35975 1.35976 l -0.2198,0.18495 c -0.42575,0.35825 -1.02944,0.34511 -1.22166,-0.0266 -0.0849,-0.16418 -0.1095,-0.51127 -0.1095,-1.54481 v -1.33306 h -0.46235 -0.46234 l 0.0157,1.50995 c 0.014,1.35854 0.0308,1.53973 0.16717,1.80698 0.22283,0.43679 0.59572,0.60596 1.25888,0.57108 0.22341,-0.0117 0.54745,-0.0907 0.72008,-0.17546 z m 3.87278,-0.005 0.24465,-0.15076 0.21254,0.18339 c 0.23522,0.20294 0.583,0.2207 0.79933,0.0408 0.11822,-0.0983 0.11822,-0.11572 7e-5,-0.29603 -0.0972,-0.1483 -0.13551,-0.43426 -0.1697,-1.26585 -0.0515,-1.25133 -0.14601,-1.62661 -0.48475,-1.92404 -0.33547,-0.29454 -0.75821,-0.39562 -1.42839,-0.34151 -0.93947,0.0758 -0.96571,0.0966 -0.80417,0.63573 l 0.0821,0.27399 0.26871,-0.096 c 0.6743,-0.24091 1.41511,-0.0165 1.41303,0.4281 -2.8e-4,0.0716 -0.15127,0.0983 -0.5727,0.1014 -0.45319,0.003 -0.64748,0.0418 -0.93381,0.18464 -0.66173,0.33018 -0.93791,1.04475 -0.67247,1.7398 0.11018,0.28852 0.18593,0.36604 0.50823,0.52012 0.31145,0.14889 0.45993,0.17537 0.83572,0.14902 0.28335,-0.0199 0.54993,-0.0893 0.70162,-0.1828 z m -0.99652,-0.60953 c -0.19894,-0.12204 -0.27966,-0.39762 -0.19098,-0.652 0.0922,-0.26459 0.50273,-0.45185 0.99052,-0.45185 h 0.33084 v 0.36516 c 0,0.49553 -0.21105,0.7451 -0.66712,0.78885 -0.18146,0.0174 -0.38992,-0.005 -0.46326,-0.0501 z m -21.617001,-0.20734 v -0.9499 l 0.66623,-0.038 c 0.77368,-0.0441 1.22039,-0.23042 1.56075,-0.65095 0.25734,-0.31796 0.40054,-0.93358 0.32857,-1.41255 -0.14455,-0.96189 -0.9508,-1.34992 -2.70327,-1.30104 l -0.77548,0.0216 -0.0194,2.64032 -0.0194,2.64032 h 0.48099 0.48099 z m 0.0492,-1.832 c -0.0271,-0.0271 -0.0492,-0.42591 -0.0492,-0.88627 v -0.83703 h 0.29964 c 0.4628,0 0.92622,0.14353 1.11599,0.34565 0.13442,0.14316 0.17107,0.26317 0.16686,0.54646 -0.006,0.43313 -0.1877,0.66761 -0.61511,0.79567 -0.31003,0.0929 -0.84027,0.1134 -0.91815,0.0355 z m 7.42394,1.44664 0.0231,-1.33524 0.27587,-0.25265 c 0.28531,-0.2613 0.49463,-0.30705 0.82688,-0.18072 0.17676,0.0672 0.2013,0.048 0.37403,-0.29286 l 0.18484,-0.36478 -0.15986,-0.0856 c -0.24911,-0.13332 -1.06818,-0.0414 -1.3253,0.14864 -0.21186,0.15663 -0.21339,0.15669 -0.21339,0.008 0,-0.135 -0.0469,-0.14992 -0.47151,-0.14992 h -0.4715 l 0.01,1.9202 0.01,1.92019 0.45693,4e-5 0.45694,4e-5 z" />
  </g>
</svg>
