<?xml version="1.0" encoding="UTF-8" standalone="no"?>
<!-- Created with Inkscape (http://www.inkscape.org/) -->

<svg
   width="172.58749mm"
   height="101.58447mm"
   viewBox="0 0 172.58749 101.58447"
   version="1.1"
   id="svg5"
   inkscape:version="1.1.2 (0a00cf5339, 2022-02-04)"
   sodipodi:docname="23.html"
   xmlns:inkscape="http://www.inkscape.org/namespaces/inkscape"
   xmlns:sodipodi="http://sodipodi.sourceforge.net/DTD/sodipodi-0.dtd"
   xmlns="http://www.w3.org/2000/svg"
   xmlns:svg="http://www.w3.org/2000/svg">
  <sodipodi:namedview
     id="namedview7"
     pagecolor="#ffffff"
     bordercolor="#666666"
     borderopacity="1.0"
     inkscape:pageshadow="2"
     inkscape:pageopacity="0.0"
     inkscape:pagecheckerboard="0"
     inkscape:document-units="mm"
     showgrid="false"
     width="152.58749mm"
     inkscape:zoom="0.69664703"
     inkscape:cx="261.96911"
     inkscape:cy="444.2709"
     inkscape:window-width="1920"
     inkscape:window-height="1016"
     inkscape:window-x="0"
     inkscape:window-y="0"
     inkscape:window-maximized="1"
     inkscape:current-layer="layer1" />
  <defs
     id="defs2" />
  <g
     inkscape:label="Capa 1"
     inkscape:groupmode="layer"
     id="layer1"
     transform="translate(-35.818202,-30.833531)">
    <path
       style="fill:#ffffff;stroke-width:0.264583"
       d="m 87.411965,132.21977 c -16.767412,-0.25757 -27.268405,-0.57802 -26.240691,-0.80078 5.698185,-1.23511 115.415486,-1.24233 122.416856,-0.008 4.30821,0.7595 -62.70115,1.32304 -96.176165,0.80883 z m -28.290114,-7.82071 c -0.65772,-0.55343 -0.814052,-0.88704 -0.814052,-1.73719 0,-0.57871 0.128646,-1.29258 0.28588,-1.58637 0.402267,-0.75164 1.846879,-1.30382 2.767161,-1.0577 1.246208,0.33329 1.086535,0.78716 -0.224925,0.63934 -0.972945,-0.10967 -1.257062,-0.0312 -1.731444,0.47795 -0.760741,0.81656 -0.726882,1.96154 0.08193,2.77035 0.693706,0.69371 1.450729,0.81849 2.278377,0.37554 0.394936,-0.21136 0.511773,-0.18762 0.511773,0.10399 0,0.92663 -2.059278,0.93583 -3.154698,0.0141 z m 7.220561,0.21607 c -0.850797,-0.68917 -1.22292,-1.60201 -1.043324,-2.55934 0.491294,-2.61882 4.070927,-2.83649 4.908542,-0.29849 0.749335,2.2705 -2.042234,4.33451 -3.865218,2.85783 z m 2.64533,-0.60863 c 1.420493,-1.11736 0.612331,-3.42038 -1.200255,-3.42038 -1.157949,0 -1.806771,0.66166 -1.806771,1.84252 0,1.9008 1.557501,2.71806 3.007026,1.57786 z m 4.401307,-1.436 c 0,-1.90888 0.08424,-2.51354 0.350173,-2.51354 0.192596,0 0.936736,0.85958 1.653646,1.91018 l 1.303473,1.91018 0.07774,-1.91018 c 0.114961,-2.82485 0.583721,-2.34032 0.583721,0.60336 0,1.38245 -0.111215,2.51354 -0.247142,2.51354 -0.135927,0 -0.909833,-0.91892 -1.719792,-2.04205 l -1.472649,-2.04204 v 2.04204 c 0,1.18498 -0.111049,2.04205 -0.264584,2.04205 -0.157821,0 -0.264583,-1.01424 -0.264583,-2.51354 z m 7.557093,2.09533 c -0.582716,-0.58271 -0.220869,-1.05198 0.386987,-0.50188 0.265769,0.24052 0.700431,0.39547 0.965922,0.34435 0.69392,-0.13364 0.634307,-1.31743 -0.08439,-1.67573 -1.044328,-0.52066 -1.41728,-0.9828 -1.41728,-1.75623 0,-1.02568 1.083236,-1.50187 2.020089,-0.88802 0.971327,0.63644 0.840552,1.23084 -0.136547,0.62063 -0.596876,-0.37276 -1.354375,-0.12708 -1.354375,0.43925 0,0.22776 0.419796,0.66179 0.932878,0.96452 1.288955,0.7605 1.599528,1.41059 1.064202,2.2276 -0.495424,0.75612 -1.729801,0.8732 -2.377486,0.22551 z m 6.20124,-0.11096 c -0.435091,-0.43509 -0.529167,-0.88194 -0.529167,-2.51354 0,-1.14653 0.111713,-1.98437 0.264584,-1.98437 0.150931,0 0.264583,0.78745 0.264583,1.83318 0,1.94235 0.358627,2.66473 1.322917,2.66473 0.96429,0 1.322916,-0.72238 1.322916,-2.66473 0,-1.04573 0.113652,-1.83318 0.264584,-1.83318 0.152871,0 0.264583,0.83784 0.264583,1.98437 0,2.27381 -0.468027,3.04271 -1.852083,3.04271 -0.440973,0 -1.028936,-0.23519 -1.322917,-0.52917 z m 6.614583,-1.98437 c 0,-3.09861 0.477655,-3.36884 0.584613,-0.33073 l 0.07685,2.18281 0.992187,0.0821 c 1.466596,0.12138 1.205159,0.57934 -0.330729,0.57934 h -1.322917 z m 5.820833,0.26458 c 0,-2.2225 -0.0078,-2.24896 -0.661458,-2.24896 -0.363802,0 -0.661458,-0.11906 -0.661458,-0.26458 0,-0.14699 0.705556,-0.26458 1.5875,-0.26458 0.881948,0 1.587508,0.11759 1.587508,0.26458 0,0.14552 -0.29766,0.26458 -0.66146,0.26458 -0.65368,0 -0.66147,0.0265 -0.66147,2.24896 0,1.32292 -0.10894,2.24896 -0.264578,2.24896 -0.155639,0 -0.264584,-0.92604 -0.264584,-2.24896 z m 5.271342,1.47556 c -2.00615,-2.00614 0.14225,-5.24829 2.7545,-4.15682 1.09776,0.45867 1.49921,1.10659 1.49921,2.41964 0,1.34121 -1.17076,2.51058 -2.51356,2.51058 -0.71573,0 -1.16756,-0.20081 -1.74015,-0.7734 z m 3.0751,-0.4052 c 0.79368,-0.79367 0.82851,-1.69739 0.10107,-2.62218 -1.1531,-1.46591 -3.26165,-0.60321 -3.26165,1.33449 0,1.77177 1.9017,2.54657 3.16058,1.28769 z m 4.35363,-1.33494 v -2.51354 h 1.01733 c 1.26106,0 2.03387,0.7223 1.74899,1.63468 -0.10549,0.33785 -0.32156,0.69736 -0.48015,0.79891 -0.19615,0.1256 -0.10125,0.56974 0.29681,1.38906 0.41579,0.85582 0.48654,1.20443 0.24444,1.20443 -0.18739,0 -0.60538,-0.54476 -0.92887,-1.21059 -0.7031,-1.44718 -1.20693,-1.40641 -1.31845,0.10667 -0.15628,2.12052 -0.5801,1.09065 -0.5801,-1.40962 z m 1.98438,-1.19063 c 0,-0.5249 -0.15021,-0.67874 -0.72761,-0.74517 -0.65673,-0.0756 -0.7276,-0.003 -0.7276,0.74517 0,0.74816 0.0709,0.82075 0.7276,0.74518 0.5774,-0.0664 0.72761,-0.22027 0.72761,-0.74518 z m 4.36565,1.19063 c 0,-1.49931 0.10676,-2.51354 0.26458,-2.51354 0.15784,0 0.2646,1.01423 0.2646,2.51354 0,1.4993 -0.10676,2.51354 -0.2646,2.51354 -0.15782,0 -0.26458,-1.01424 -0.26458,-2.51354 z m 3.44981,2.3151 c 0.0378,-0.73493 1.83278,-4.69635 2.12799,-4.69635 0.29318,0 2.02958,3.91711 2.08183,4.69635 0.0365,0.54433 -0.57841,0.098 -0.82009,-0.59531 -0.24205,-0.69436 -0.40274,-0.79375 -1.28327,-0.79375 -0.88053,0 -1.04121,0.0994 -1.28327,0.79375 -0.24238,0.69528 -0.85097,1.1354 -0.82319,0.59531 z m 2.76621,-2.38125 c -0.10484,-0.25466 -0.25053,-0.67138 -0.32375,-0.92604 -0.20556,-0.7149 -0.48425,-0.55279 -0.79601,0.46302 -0.28123,0.91634 -0.27585,0.92604 0.51308,0.92604 0.65556,0 0.76341,-0.0823 0.60668,-0.46302 z m 8.08481,2.38125 c 0.007,-0.10914 0.3976,-1.21047 0.8673,-2.44739 0.52769,-1.38964 0.99999,-2.24896 1.23606,-2.24896 0.23607,0 0.70836,0.85932 1.23605,2.24896 0.94459,2.48751 0.98337,2.64583 0.64813,2.64583 -0.12787,0 -0.38044,-0.35719 -0.56127,-0.79375 -0.28332,-0.68401 -0.46708,-0.79375 -1.32913,-0.79375 -0.87362,0 -1.0354,0.10056 -1.27705,0.79375 -0.24168,0.69327 -0.85659,1.13964 -0.82009,0.59531 z m 2.76311,-2.38125 c -0.10484,-0.25466 -0.25053,-0.67138 -0.32375,-0.92604 -0.20556,-0.7149 -0.48425,-0.55279 -0.79601,0.46302 -0.28123,0.91634 -0.27586,0.92604 0.51308,0.92604 0.65555,0 0.76341,-0.0823 0.60668,-0.46302 z m 4.41095,0.0661 c -0.0162,-2.25221 0.0315,-2.51354 0.45892,-2.51354 0.3374,0 0.72249,0.55578 1.31578,1.89901 l 0.83878,1.89901 0.91007,-1.89901 c 1.3101,-2.7337 1.7245,-2.58603 1.7245,0.61453 0,1.4993 -0.10676,2.51354 -0.26459,2.51354 -0.15145,0 -0.27536,-0.87671 -0.2898,-2.05052 l -0.0252,-2.05052 -0.83467,1.78529 c -0.45907,0.98191 -0.99084,1.78558 -1.18172,1.78594 -0.19087,2.6e-4 -0.69142,-0.7435 -1.11233,-1.653 l -0.7653,-1.65365 -0.0121,1.91823 c -0.009,1.451 -0.1013,1.91823 -0.37817,1.91823 -0.28469,0 -0.37004,-0.55854 -0.3841,-2.51354 z m 8.68763,0 v -2.51354 h 1.02594 c 1.29458,0 1.73487,0.49477 1.50947,1.69626 -0.099,0.52762 -0.0561,0.97894 0.10231,1.07685 0.48369,0.29893 0.2924,1.41642 -0.31534,1.84209 -0.32342,0.22653 -0.97826,0.41188 -1.45521,0.41188 h -0.86717 z m 2.12572,1.43829 c 0.37283,-0.69664 -0.0786,-1.306 -0.96749,-1.306 -0.54254,0 -0.62906,0.12737 -0.62906,0.92604 0,0.80786 0.0832,0.92604 0.65215,0.92604 0.38809,0 0.77048,-0.22111 0.9444,-0.54608 z m -0.1421,-2.36197 c 0.227,-0.71518 -0.0364,-1.0607 -0.80861,-1.0607 -0.54121,0 -0.64584,0.12859 -0.64584,0.79375 0,0.66442 0.10487,0.79375 0.64363,0.79375 0.41029,0 0.70424,-0.19098 0.81082,-0.5268 z m 4.1018,0.92368 c 0,-1.49931 0.10676,-2.51354 0.26458,-2.51354 0.15782,0 0.26458,1.01423 0.26458,2.51354 0,1.4993 -0.10676,2.51354 -0.26458,2.51354 -0.15782,0 -0.26458,-1.01424 -0.26458,-2.51354 z m 3.96875,0 v -2.51354 h 1.19062 c 0.65485,0 1.19063,0.11906 1.19063,0.26458 0,0.14552 -0.41672,0.26458 -0.92604,0.26458 -0.85255,0 -0.92605,0.063 -0.92605,0.79375 0,0.70556 0.0882,0.79375 0.79375,0.79375 0.43657,0 0.79375,0.11907 0.79375,0.26459 0,0.14552 -0.35718,0.26458 -0.79375,0.26458 -0.73075,0 -0.79375,0.0735 -0.79375,0.92604 0,0.88195 0.0441,0.92604 0.92605,0.92604 0.50932,0 0.92604,0.11907 0.92604,0.26459 0,0.14552 -0.53578,0.26458 -1.19063,0.26458 h -1.19062 z m 5.55625,0 c 0,-3.13646 0.27567,-3.2264 2.03644,-0.6644 l 1.27085,1.84914 0.0777,-1.84914 c 0.11673,-2.77675 0.58372,-2.24522 0.58372,0.6644 0,1.38245 -0.11095,2.51354 -0.24656,2.51354 -0.1356,0 -0.84997,-0.85649 -1.5875,-1.9033 l -1.34094,-1.90331 v 1.90331 c 0,1.51543 -0.0809,1.9033 -0.39688,1.9033 -0.32492,0 -0.39687,-0.45567 -0.39687,-2.51354 z m 8.46666,0.26458 v -2.24896 h -0.79375 c -0.43656,0 -0.79375,-0.11906 -0.79375,-0.26458 0,-0.14925 0.74966,-0.26458 1.7198,-0.26458 0.97013,0 1.71979,0.11533 1.71979,0.26458 0,0.14552 -0.29766,0.26458 -0.66146,0.26458 -0.65368,0 -0.66146,0.0265 -0.66146,2.24896 0,1.32292 -0.10894,2.24896 -0.26458,2.24896 -0.15564,0 -0.26459,-0.92604 -0.26459,-2.24896 z m 4.04149,1.91823 c 0.0711,-0.1819 0.50926,-1.31299 0.97358,-2.51354 0.46433,-1.20055 0.9844,-2.18167 1.15573,-2.18027 0.2625,0.002 2.04268,4.22577 2.03412,4.8261 -0.007,0.49161 -0.49851,0.1243 -0.79658,-0.59531 -0.28061,-0.67744 -0.47066,-0.79375 -1.29701,-0.79375 -0.83284,0 -1.01012,0.11099 -1.26784,0.79375 -0.16478,0.43656 -0.44175,0.79375 -0.61548,0.79375 -0.17373,0 -0.25766,-0.14883 -0.18652,-0.33073 z m 2.81755,-1.98437 c -0.0324,-0.31898 -0.73136,-2.06709 -0.75349,-1.8844 -0.0111,0.0914 -0.20032,0.59739 -0.42056,1.12448 l -0.40042,0.95835 h 0.7973 c 0.43851,0 0.78824,-0.0893 0.77717,-0.19843 z m 4.51805,-0.19844 c 0,-1.49931 0.10676,-2.51354 0.26458,-2.51354 0.15564,0 0.26458,0.92604 0.26458,2.24896 v 2.24895 h 0.92604 c 0.50933,0 0.92605,0.11907 0.92605,0.26459 0,0.14552 -0.53578,0.26458 -1.19063,0.26458 h -1.19062 z m -65.61669,-3.10269 c 0,-0.48232 0.46907,-0.88207 0.72947,-0.62167 0.0908,0.0908 -0.0362,0.36635 -0.28219,0.61236 -0.41248,0.41247 -0.44728,0.41319 -0.44728,0.009 z m -60.147652,-1.91703 c -0.39716,-0.39716 -0.442032,-1.44219 -0.442032,-10.29444 0,-7.679604 0.07605,-9.956424 0.344858,-10.324034 0.311171,-0.42555 0.757012,-0.46243 4.564062,-0.37757 3.708075,0.0827 4.349602,0.16339 5.295585,0.66647 1.387277,0.73776 2.871394,2.38735 3.290562,3.657454 0.41443,1.25573 0.199769,3.88303 -0.390914,4.78453 -0.422579,0.64494 -0.407416,0.71631 0.429118,2.01994 0.684426,1.06658 0.889298,1.6988 0.97215,2.99997 0.05774,0.90673 -0.04158,2.09266 -0.220697,2.63539 -0.444026,1.34541 -1.939025,2.93306 -3.552309,3.77247 -1.252093,0.65147 -1.617927,0.70375 -5.59403,0.79945 -3.710095,0.0893 -4.310866,0.0458 -4.696353,-0.33963 z m 8.108174,-4.94176 c 0.75982,-0.39994 0.965843,-0.73842 0.970743,-1.59484 0.0065,-1.13576 -1.084466,-1.80514 -2.942048,-1.80514 h -1.551818 v 1.85208 1.85209 h 1.472602 c 0.809932,0 1.732666,-0.13689 2.050521,-0.30419 z m -0.30281,-8.86495 c 0.632946,-0.5728 0.618289,-1.58822 -0.02792,-1.93405 -0.281474,-0.15065 -1.114912,-0.2739 -1.852083,-0.2739 h -1.340311 v 1.32292 1.32292 h 1.368229 c 0.901856,0 1.533155,-0.14926 1.852085,-0.43789 z m 8.572544,13.78045 c -0.362992,-0.36299 -0.415774,-1.65838 -0.415774,-10.20386 0,-6.24119 0.09925,-9.973534 0.273892,-10.299854 0.233061,-0.43547 0.566954,-0.51177 2.23965,-0.51177 1.672696,0 2.006589,0.0763 2.23965,0.51177 0.174641,0.32632 0.273892,4.058664 0.273892,10.299854 0,11.32336 0.166563,10.61963 -2.513542,10.61963 -1.176308,0 -1.806996,-0.125 -2.097768,-0.41577 z m 14.665476,-0.008 C 88.728267,117.30234 87.435,116.74462 86.654704,116.27711 80.8452,112.79639 79.74606,104.91892 84.378835,99.966106 c 2.382216,-2.54679 5.089152,-3.58759 8.861517,-3.40724 1.955451,0.0935 2.585321,0.24664 4.118372,1.00136 6.837546,3.366104 8.298446,12.062734 2.886196,17.181384 -2.959734,2.7992 -6.855231,3.80789 -10.716288,2.77486 z m 5.248214,-4.92003 c 1.176375,-0.3573 2.596163,-1.63809 3.261458,-2.94218 0.427982,-0.83891 0.520078,-1.4306 0.440867,-2.83241 -0.124124,-2.19671 -0.961858,-3.59904 -2.793053,-4.67544 -1.649409,-0.96954 -4.371562,-1.04332 -6.025194,-0.16329 -3.482499,1.85332 -4.368425,5.97015 -1.923143,8.9367 1.619224,1.96439 4.125828,2.56144 7.039065,1.67662 z m 14.196664,4.88623 c -1.84807,-0.66343 -3.09645,-1.69415 -3.9489,-3.26035 -0.96675,-1.77623 -0.79873,-2.30911 1.02692,-3.25689 1.73079,-0.89854 2.57349,-0.80503 3.047,0.33813 0.53382,1.28875 1.23831,1.74229 2.70632,1.74229 1.06647,0 1.41521,-0.11941 1.82432,-0.62462 0.27818,-0.34355 0.50579,-0.79919 0.50579,-1.01255 0,-0.6734 -1.45841,-1.87955 -2.66576,-2.20465 -2.67827,-0.72118 -4.94407,-2.38953 -5.72666,-4.21665 -0.53286,-1.24405 -0.50144,-3.68694 0.0618,-4.80194 0.6302,-1.247674 1.66025,-2.300434 2.90668,-2.970784 0.85899,-0.46197 1.50691,-0.56918 3.43961,-0.56918 2.63343,0 3.88074,0.45538 5.17735,1.8902 2.14893,2.377974 2.07389,3.301164 -0.35766,4.400314 -1.41931,0.64159 -1.70838,0.58318 -2.99825,-0.60577 -0.8115,-0.74801 -1.38263,-1.05833 -1.94782,-1.05833 -0.77226,0 -1.85801,0.77306 -1.85801,1.32292 0,0.53491 1.03177,1.27138 2.41557,1.72422 4.43273,1.45059 6.39702,3.60442 6.39,7.00661 -0.006,2.79381 -1.09425,4.5563 -3.62449,5.8688 -1.48778,0.77175 -4.63093,0.91389 -6.37375,0.28823 z m 12.35816,0.14047 c -0.45576,-0.45575 -0.45576,-20.340504 0,-20.796254 0.4501,-0.4501 11.87948,-0.4501 12.32958,0 0.18281,0.1828 0.3175,1.05833 0.3175,2.06375 0,1.00542 -0.13469,1.880954 -0.3175,2.063754 -0.21626,0.21627 -1.48166,0.3175 -3.96875,0.3175 h -3.65125 v 1.71979 1.71979 h 3.43959 c 4.18282,0 4.49791,0.17609 4.49791,2.51355 0,2.33745 -0.31509,2.51354 -4.49791,2.51354 h -3.43959 v 3.513 c 0,4.50438 -0.10272,4.68908 -2.60791,4.68908 -1.03491,0 -1.9175,-0.13333 -2.10167,-0.3175 z m 14.1433,-0.16635 c -0.39089,-0.43193 -0.43788,-1.53726 -0.43788,-10.29985 0,-8.570864 0.0527,-9.868744 0.41577,-10.231784 0.35309,-0.35308 1.3043,-0.41577 6.30899,-0.41577 6.86519,0 6.76899,-0.0344 6.76899,2.41766 0,2.399954 -0.11338,2.463004 -4.60832,2.562804 l -3.85835,0.0857 v 1.56798 1.56798 h 3.58927 c 1.9741,0 3.81957,0.12325 4.10104,0.2739 0.42868,0.22942 0.51112,0.56234 0.50772,2.05052 -0.002,0.97714 -0.11672,1.95522 -0.25442,2.1735 -0.19946,0.31618 -1.03251,0.41429 -4.09699,0.48254 l -3.84662,0.0857 v 1.56798 1.56798 h 3.70417 c 4.5134,0 4.7625,0.13624 4.7625,2.60482 0,2.45315 0.0866,2.42226 -6.79285,2.42226 -5.30728,0 -5.86407,-0.043 -6.26302,-0.48385 z m 14.96087,0.16635 c -0.45576,-0.45575 -0.45576,-20.340504 0,-20.796254 0.49958,-0.49958 8.2156,-0.42639 9.96986,0.0946 1.78032,0.52869 3.82077,2.43273 4.23683,3.953564 0.37204,1.35997 0.37045,3.67642 -0.003,5.02708 -0.27418,0.99039 -2.01862,3.01161 -3.19694,3.70417 -0.3898,0.2291 -0.0971,0.68256 2.18282,3.3819 1.44814,1.71453 2.63298,3.34313 2.63298,3.61912 0,1.00924 -0.70554,1.33335 -2.90253,1.33335 h -2.07098 l -2.60647,-3.07918 c -1.43356,-1.69355 -2.81219,-3.33066 -3.06361,-3.63802 -0.43908,-0.53676 -0.45738,-0.43831 -0.46303,2.49114 -0.008,3.98621 -0.15603,4.22606 -2.6138,4.22606 -1.03491,0 -1.9175,-0.13333 -2.10166,-0.3175 z m 8.29164,-12.50199 c 1.8058,-0.75452 1.71807,-2.86592 -0.14558,-3.5036 -0.50762,-0.17368 -1.48848,-0.32251 -2.17971,-0.33073 l -1.25677,-0.0149 v 2.11667 2.11666 h 1.33142 c 0.73227,0 1.74506,-0.17283 2.25064,-0.38407 z m 8.2108,12.40372 c -0.5746,-0.5746 -0.54067,-0.80941 0.50069,-3.46492 0.50406,-1.28536 2.11016,-5.43264 3.56912,-9.21618 1.45896,-3.78355 2.80682,-7.176834 2.99525,-7.540634 0.30941,-0.5974 0.52345,-0.66891 2.21038,-0.73836 1.28654,-0.053 1.95362,0.0294 2.14358,0.26458 0.25415,0.31471 1.06805,2.31207 3.64314,8.940454 0.53708,1.38245 1.62865,4.17886 2.42573,6.21426 1.75367,4.47814 1.86106,4.93946 1.28414,5.51639 -0.55568,0.55567 -3.884,0.63027 -4.3266,0.097 -0.15665,-0.18877 -0.74468,-1.52822 -1.30672,-2.97657 l -1.02188,-2.63335 h -2.72081 -2.7208 l -1.039,2.76686 c -0.57145,1.52177 -1.18465,2.8594 -1.36268,2.97251 -0.62212,0.39525 -3.82781,0.24371 -4.27354,-0.20202 z m 9.82198,-11.49048 c -0.27237,-0.7216 -0.70749,-1.08319 -0.71637,-0.59531 -0.002,0.10914 -0.0754,0.46633 -0.16315,0.79375 -0.13467,0.50252 -0.0552,0.59531 0.5098,0.59531 0.63389,0 0.65347,-0.042 0.36972,-0.79375 z M 112.15057,93.803676 c -2.0373,-0.13495 -3.80659,-0.34465 -3.93174,-0.46599 -0.26853,-0.26037 3.73163,-4.65278 8.33521,-9.15255 7.26205,-7.09832 14.3929,-12.5761 20.50949,-15.75496 1.64506,-0.85496 2.78482,-1.55364 2.53281,-1.55262 -0.79383,0.003 -4.82199,1.03859 -6.9148,1.77735 -4.4866,1.58375 -10.34722,5.02023 -15.37157,9.01336 -2.53373,2.01371 -9.0679,8.37256 -11.59799,11.28682 l -1.36666,1.57417 v -3.31349 c 0,-13.99882 7.83903,-24.73011 21.29906,-29.15751 2.46699,-0.81147 5.84184,-1.62282 8.46667,-2.03548 4.89913,-0.7702 14.41227,-0.76502 20.57918,0.0112 l 2.57186,0.32373 v 1.52854 c 0,3.2352 -1.14434,8.38105 -2.82283,12.69362 -3.23769,8.31868 -10.25202,16.1993 -17.62263,19.79907 -6.64639,3.24607 -13.33773,4.17512 -24.66606,3.42474 z m -12.237897,-6.97944 c -0.690102,-0.54009 -2.372008,-2.4246 -4.005998,-4.48857 -2.685571,-3.39227 -5.885635,-9.2836 -7.247845,-13.34329 -1.568725,-4.67517 -1.88876,-6.69975 -1.882066,-11.90625 0.0079,-6.12022 0.754928,-11.06688 2.577291,-17.06563 0.706514,-2.32567 2.974078,-7.65546 3.468597,-8.15277 0.171672,-0.17264 0.428548,-0.52285 0.570833,-0.77824 0.237228,-0.4258 0.433494,-0.37738 2.364113,0.5832 4.727222,2.35204 9.491842,5.36399 12.577572,7.95094 1.30154,1.09115 6.23827,5.94451 6.99734,6.87916 2.64331,3.25476 5.99361,10.14647 5.26305,10.82634 -0.13357,0.12431 -1.19536,0.63662 -2.35953,1.13847 -2.66278,1.14787 -5.48035,2.97122 -7.54467,4.8824 -0.87984,0.81457 -1.64202,1.43507 -1.69374,1.37889 -0.0517,-0.0562 -0.4223,-0.93558 -0.82352,-1.95422 -1.23849,-3.14441 -3.02864,-6.51313 -4.71011,-8.86354 -1.67381,-2.33973 -3.37181,-4.30175 -3.560003,-4.11355 -0.06,0.06 0.548403,1.69469 1.352013,3.63267 2.44969,5.90767 4.66727,12.89361 4.67442,14.72558 0.001,0.34027 -0.36887,1.41183 -0.82266,2.38125 -1.84181,3.93466 -3.40778,9.55246 -4.01866,14.41662 l -0.31917,2.54144 z"
       id="path57" />
  </g>
</svg>
