<?xml version="1.0" encoding="UTF-8" standalone="no"?>
<!-- Created with Inkscape (http://www.inkscape.org/) -->

<svg
   width="114.23804mm"
   height="114.25499mm"
   viewBox="0 0 114.23804 114.25499"
   version="1.1"
   id="svg5"
   inkscape:version="1.1.2 (0a00cf5339, 2022-02-04)"
   sodipodi:docname="24.html"
   xmlns:inkscape="http://www.inkscape.org/namespaces/inkscape"
   xmlns:sodipodi="http://sodipodi.sourceforge.net/DTD/sodipodi-0.dtd"
   xmlns="http://www.w3.org/2000/svg"
   xmlns:svg="http://www.w3.org/2000/svg">
  <sodipodi:namedview
     id="namedview7"
     pagecolor="#ffffff"
     bordercolor="#666666"
     borderopacity="1.0"
     inkscape:pageshadow="2"
     inkscape:pageopacity="0.0"
     inkscape:pagecheckerboard="0"
     inkscape:document-units="mm"
     showgrid="false"
     width="147.23795mm"
     inkscape:zoom="0.69664703"
     inkscape:cx="172.97138"
     inkscape:cy="470.10894"
     inkscape:window-width="1920"
     inkscape:window-height="1016"
     inkscape:window-x="0"
     inkscape:window-y="0"
     inkscape:window-maximized="1"
     inkscape:current-layer="layer1" />
  <defs
     id="defs2" />
  <g
     inkscape:label="Capa 1"
     inkscape:groupmode="layer"
     id="layer1"
     transform="translate(-59.103124,-24.114794)">
    <g
       id="g44">
      <path
         style="fill:#ffffff;stroke-width:0.105865"
         d="m 113.2617,138.2992 c -3.55978,-0.19604 -8.78558,-1.02076 -11.80408,-1.86287 -2.988815,-0.83383 -6.42841,-2.06602 -8.687289,-3.11212 -0.520569,-0.24108 -1.208507,-0.55922 -1.52875,-0.70697 -1.522571,-0.70251 -4.205209,-2.23579 -6.431099,-3.67577 -0.921241,-0.59597 -4.372293,-3.11057 -4.578922,-3.33642 -0.02911,-0.0318 -0.696067,-0.6102 -1.482119,-1.28529 -2.079258,-1.78574 -5.185482,-4.98098 -6.732622,-6.92555 -0.169092,-0.21253 -0.430752,-0.53694 -0.581469,-0.72092 -0.920281,-1.12335 -2.752707,-3.71183 -3.646761,-5.15138 -0.851197,-1.37056 -1.169228,-1.92185 -1.923754,-3.33477 -4.082264,-7.64441 -6.25415,-15.610233 -6.706015,-24.595623 -0.222424,-4.42295 0.228043,-9.67758 1.2313,-14.36291 0.390321,-1.82285 1.180564,-4.76018 1.580723,-5.87554 0.135783,-0.37847 0.280874,-0.80723 0.322424,-0.95279 0.159597,-0.55914 1.4384,-3.71542 2.041973,-5.03991 1.337063,-2.93407 3.542393,-6.74993 5.269506,-9.11779 4.919736,-6.74492 10.629345,-12.03618 17.243413,-15.97999 2.862354,-1.70675 5.332871,-2.92731 8.363381,-4.13192 7.29362,-2.89919 15.83999,-4.34035 23.44932,-3.95424 6.46206,0.32791 12.70464,1.63911 18.26181,3.83576 0.87339,0.34524 1.7309,0.69201 1.90558,0.7706 3.89089,1.75064 5.83612,2.81157 9.21031,5.02331 0.8111,0.53167 3.96595,2.85757 4.18169,3.08293 0.0291,0.0304 0.33877,0.29132 0.68812,0.5798 5.10014,4.21138 10.28635,10.51874 13.36191,16.25047 0.23433,0.43669 0.5927,1.10365 0.79639,1.48212 2.07816,3.86144 4.08744,9.58383 5.0926,14.50358 1.83329,8.97303 1.53375,17.92313 -0.89817,26.83693 -1.33667,4.899373 -3.47942,9.855193 -6.15648,14.238923 -1.31925,2.1603 -3.02193,4.61691 -4.07234,5.87554 -0.19438,0.2329 -0.38728,0.4711 -0.42867,0.52933 -0.59085,0.83108 -2.97036,3.43987 -4.51926,4.95474 -0.78709,0.76978 -3.5312,3.21133 -3.91614,3.48435 -0.0587,0.0417 -0.2735,0.21265 -0.47729,0.38001 -2.99223,2.45734 -7.68636,5.35354 -11.43348,7.05427 -0.72783,0.33034 -1.4186,0.64406 -1.53505,0.69716 -0.11645,0.0531 -0.71195,0.29095 -1.32332,0.52856 -0.61138,0.23761 -1.23069,0.48289 -1.37626,0.54508 -1.30707,0.55839 -5.09678,1.67483 -7.33525,2.16096 -5.03718,1.09392 -10.66008,1.57082 -15.42586,1.30835 z m 0.53988,-5.31929 c 0.006,-0.41871 0.0445,-0.88038 0.086,-1.02594 0.0696,-0.24426 0.0806,-0.23371 0.1423,0.13667 0.10195,0.61186 0.46792,1.10969 1.06934,1.45462 2.09204,1.19988 4.34567,-1.26094 2.98983,-3.2647 -1.11199,-1.64338 -3.68175,-1.11726 -4.08105,0.83554 -0.0735,0.35963 -0.0832,0.24775 -0.042,-0.48545 0.0294,-0.52404 0.0702,-1.00744 0.0906,-1.07423 0.0378,-0.1239 -0.86841,-0.31668 -0.97721,-0.20788 -0.0314,0.0314 -0.0814,0.39688 -0.11112,0.81217 l -0.054,0.75508 -0.31587,-0.0632 c -0.17373,-0.0347 -0.60096,-0.0632 -0.9494,-0.0632 h -0.63358 l 0.038,-0.81783 0.038,-0.81783 -0.49242,-0.0366 -0.49243,-0.0366 -0.0725,1.03965 c -0.0399,0.57181 -0.11519,1.46841 -0.16741,1.99245 -0.15161,1.52177 -0.17853,1.42918 0.41551,1.42918 h 0.51411 l 0.0725,-0.86888 c 0.0398,-0.47788 0.0869,-0.88335 0.10464,-0.90104 0.0177,-0.0177 0.4326,0.004 0.92202,0.0484 l 0.88985,0.0806 -0.0381,0.91967 -0.0381,0.91967 0.46155,0.0338 c 0.25386,0.0187 0.4973,0.0188 0.54097,0 0.0437,-0.0184 0.0841,-0.37604 0.09,-0.79474 z m 1.66681,-0.41775 c -0.52235,-0.44155 -0.64943,-0.98975 -0.35945,-1.55053 0.46135,-0.89215 1.79,-0.85582 2.26718,0.062 0.16592,0.31913 0.15055,0.62563 -0.0528,1.05427 -0.31918,0.67261 -1.301,0.90248 -1.85488,0.43427 z m 7.51998,0.81023 c 0.022,-0.0186 -0.0133,-0.39208 -0.0785,-0.82992 l -0.1184,-0.79604 0.51306,-1.19309 c 0.4993,-1.16109 0.65907,-1.56087 0.66718,-1.66948 0.005,-0.0617 -0.61595,-0.0138 -0.90146,0.0696 -0.17023,0.0497 -0.48586,0.62624 -0.82387,1.50487 -0.0921,0.23952 -0.12455,0.21584 -0.69994,-0.51138 l -0.60332,-0.76252 -0.4795,0.0702 c -0.26372,0.0386 -0.51402,0.10314 -0.55621,0.14346 -0.0422,0.0403 0.35166,0.60569 0.87523,1.2564 l 0.95195,1.1831 0.11992,0.848 0.11992,0.84799 0.48697,-0.0636 c 0.26783,-0.035 0.50494,-0.0789 0.52692,-0.0975 z m -14.58581,-0.31831 c 0.38197,-0.10718 0.71803,-0.28664 0.90681,-0.48426 0.29481,-0.30861 0.29632,-0.31651 0.0882,-0.46131 -0.11645,-0.081 -0.26927,-0.19659 -0.33959,-0.2568 -0.18615,-0.15937 -0.3672,-0.13158 -0.66614,0.10226 -0.14556,0.11385 -0.40758,0.20791 -0.58226,0.20897 -0.37433,0.002 -0.9441,-0.31946 -1.10803,-0.62577 -0.29638,-0.55379 -0.0338,-1.45041 0.49531,-1.6915 0.13868,-0.0632 0.44675,-0.11488 0.6846,-0.11488 0.36024,0 0.49312,0.0643 0.79579,0.38526 0.35604,0.3775 0.37183,0.38271 0.78532,0.25883 0.36456,-0.10923 0.41246,-0.15804 0.35207,-0.35879 -0.10608,-0.35266 -0.6838,-0.92275 -1.15813,-1.14283 -1.66196,-0.77112 -3.51102,0.84155 -3.02944,2.64214 0.21146,0.79059 0.90867,1.45803 1.6792,1.6075 0.2186,0.0424 0.41814,0.0826 0.44343,0.0893 0.0253,0.007 0.31908,-0.0645 0.65285,-0.1581 z m -3.51179,-0.85723 c 0.1141,-0.41323 0.0327,-0.55546 -0.31963,-0.55886 -0.20056,-0.002 -1.80626,-0.40586 -1.87109,-0.47069 -0.09,-0.09 0.10089,-0.69545 0.21922,-0.69545 0.0668,0 0.49166,0.0795 0.94407,0.17676 0.45241,0.0972 0.84709,0.15222 0.87708,0.12223 0.03,-0.03 0.0659,-0.23598 0.0797,-0.45778 l 0.0252,-0.40326 -0.89986,-0.21046 c -0.49493,-0.11575 -0.91048,-0.21826 -0.92346,-0.22779 -0.0651,-0.0478 0.20572,-0.79942 0.28807,-0.79942 0.0526,0 0.34816,0.0655 0.65669,0.14556 0.30853,0.0801 0.76058,0.17904 1.00455,0.21996 l 0.44359,0.0744 0.072,-0.3837 c 0.0396,-0.21103 0.0478,-0.40791 0.0182,-0.43749 -0.0842,-0.0842 -2.97552,-0.77125 -3.0505,-0.72491 -0.0368,0.0227 -0.12737,0.34046 -0.20133,0.70608 -0.074,0.36561 -0.19557,0.87914 -0.27023,1.14115 -0.13155,0.46167 -0.43819,1.85911 -0.49664,2.26332 -0.0251,0.17327 0.16259,0.24346 1.45336,0.54366 0.81517,0.1896 1.56326,0.35018 1.66242,0.35686 0.12226,0.008 0.21515,-0.11413 0.28861,-0.38018 z m 24.48157,-0.12868 c 0.35874,-0.2458 0.74557,-0.72117 0.8832,-1.08534 0.0714,-0.1889 -0.11325,-0.3266 -0.59021,-0.44017 -0.22215,-0.0529 -0.30392,-0.007 -0.45967,0.25638 -0.43485,0.73613 -1.37998,0.80467 -1.9616,0.14224 -0.48807,-0.55588 -0.38646,-1.35693 0.22659,-1.78633 0.30691,-0.21496 0.97819,-0.21117 1.34858,0.008 0.28292,0.16713 0.30363,0.16304 0.62506,-0.12336 0.18285,-0.16292 0.33246,-0.33538 0.33246,-0.38325 0,-0.0479 -0.19595,-0.21074 -0.43544,-0.36192 -1.66154,-1.04889 -3.77343,0.42089 -3.37341,2.34774 0.12845,0.61874 0.63111,1.2832 1.18343,1.56432 0.53079,0.27017 1.73453,0.19542 2.22101,-0.13793 z m -28.39112,-0.57205 c 0,-0.0772 -0.1191,-0.49042 -0.26467,-0.91841 -0.14556,-0.42798 -0.26466,-0.79178 -0.26466,-0.80845 0,-0.0167 0.18998,-0.0815 0.42218,-0.14399 0.57533,-0.15492 0.95408,-0.70969 0.95408,-1.39749 0,-0.79288 -0.37037,-1.13228 -1.759,-1.61196 -0.618604,-0.21369 -1.1492,-0.36407 -1.179098,-0.33417 -0.07615,0.0761 -1.402402,3.88537 -1.402402,4.02794 0,0.0641 0.210187,0.19448 0.467081,0.2897 l 0.467081,0.17311 0.109777,-0.28261 c 0.06038,-0.15543 0.167966,-0.487 0.239087,-0.73682 0.08593,-0.30183 0.181608,-0.4439 0.285186,-0.42346 0.203485,0.0401 0.280211,0.19192 0.571251,1.13005 0.234482,0.75581 0.258288,0.78805 0.718907,0.97333 0.58366,0.23479 0.6352,0.23993 0.6352,0.0632 z m -1.359411,-2.85287 c -0.38029,-0.12164 -0.398124,-0.25474 -0.128824,-0.96145 0.09958,-0.26133 0.154325,-0.29255 0.404699,-0.23084 0.581666,0.14337 0.926286,0.42443 0.903536,0.73688 -0.0418,0.57362 -0.38977,0.70799 -1.179411,0.45541 z m 32.317541,2.7755 c 0.0911,-0.0884 -0.28917,-1.69234 -0.62611,-2.64075 -0.0724,-0.20379 -0.1905,-0.62079 -0.26244,-0.92665 -0.0719,-0.30587 -0.17256,-0.58193 -0.22359,-0.61347 -0.13046,-0.0806 -0.9446,0.1513 -0.9446,0.26909 0,0.11858 0.43928,1.69615 0.8653,3.10754 l 0.31469,1.04252 0.38926,-0.0715 c 0.2141,-0.0393 0.43346,-0.11438 0.48749,-0.16678 z m 2.38962,-0.72202 1.53505,-0.5137 -0.0302,-0.35695 c -0.0166,-0.19632 -0.0711,-0.39781 -0.12107,-0.44776 -0.0505,-0.0505 -0.57574,0.0774 -1.18334,0.28819 -0.6009,0.20845 -1.12498,0.34392 -1.16464,0.30103 -0.0397,-0.0429 -0.10333,-0.22642 -0.14149,-0.40788 l -0.0694,-0.32994 0.90517,-0.28221 c 0.49783,-0.15522 0.90516,-0.31303 0.90516,-0.35068 0,-0.26298 -0.28292,-0.77162 -0.42919,-0.77162 -0.0962,0 -0.50328,0.1191 -0.9046,0.26466 -0.40132,0.14557 -0.76045,0.26467 -0.79805,0.26467 -0.0376,0 -0.0972,-0.11468 -0.13234,-0.25483 -0.0352,-0.14016 -0.0909,-0.3251 -0.12388,-0.41098 -0.0459,-0.11972 0.18859,-0.2344 1.00527,-0.4915 0.58585,-0.18444 1.06519,-0.36533 1.06519,-0.40196 0,-0.19967 -0.2704,-0.76986 -0.36533,-0.77038 -0.0611,-3.1e-4 -0.76849,0.22112 -1.57201,0.49212 -1.19307,0.40237 -1.44862,0.5238 -1.3937,0.66226 0.037,0.0933 0.35427,1.03897 0.70507,2.10159 0.35081,1.06263 0.66832,1.9315 0.70557,1.93081 0.0373,-0.001 0.75853,-0.2324 1.60281,-0.51494 z m -37.275182,-0.87575 c 0.121136,-0.34749 0.01411,-0.61952 -0.243747,-0.61952 -0.112257,0 -1.649725,-0.70406 -1.744559,-0.7989 -0.06896,-0.069 0.217966,-0.68322 0.319137,-0.68322 0.05195,0 0.177181,0.047 0.278287,0.10443 0.284427,0.16156 1.430978,0.64279 1.457024,0.61154 0.06324,-0.0759 0.36772,-0.71391 0.36772,-0.77053 0,-0.0358 -0.369206,-0.23454 -0.820458,-0.44166 -0.451252,-0.20712 -0.83878,-0.39305 -0.861174,-0.41318 -0.03445,-0.031 0.17995,-0.65612 0.263548,-0.76846 0.01512,-0.0203 0.440328,0.15834 0.944904,0.397 0.504577,0.23867 0.974629,0.43394 1.044559,0.43394 0.117047,0 0.446958,-0.71473 0.364664,-0.79002 -0.114468,-0.10472 -2.666897,-1.22143 -2.791796,-1.22143 -0.08272,0 -0.253512,0.22629 -0.379538,0.50286 -1.223312,2.68467 -1.470004,3.25167 -1.470004,3.37866 0,0.0806 0.107189,0.1876 0.238197,0.2377 0.131009,0.0501 0.643134,0.27907 1.138056,0.50883 1.736273,0.80604 1.730281,0.805 1.89518,0.33196 z m 39.805652,-0.16959 c 0.38752,-0.22127 0.3895,-0.21051 -0.31111,-1.69385 -0.28188,-0.59682 -0.49528,-1.08512 -0.47421,-1.08512 0.0211,0 0.70674,0.38111 1.52372,0.84692 0.81698,0.46581 1.52791,0.84693 1.57985,0.84693 0.0951,0 0.76215,-0.31248 0.76215,-0.35703 0,-0.0373 -1.7137,-3.90312 -1.75842,-3.96672 -0.0592,-0.0842 -0.78235,0.2483 -0.78235,0.35974 0,0.0672 0.21136,0.60551 0.46969,1.19619 0.25834,0.59068 0.45185,1.07397 0.43003,1.07397 -0.0218,0 -0.6203,-0.33913 -1.32994,-0.75361 -1.28884,-0.75276 -1.29074,-0.75345 -1.70578,-0.61648 -0.82665,0.27282 -0.85538,0.12675 0.6549,3.3286 0.10986,0.23291 0.24868,0.55447 0.30847,0.71459 0.12754,0.3415 0.19932,0.3535 0.633,0.10587 z m -43.629155,-1.89866 c 0.730427,-0.45325 1.221807,-1.191 1.357193,-2.03766 0.08792,-0.54981 -0.166588,-1.25112 -0.591387,-1.62962 -0.328873,-0.29303 -1.917082,-1.13021 -2.143433,-1.12985 -0.103345,2.2e-4 -1.013373,1.67856 -2.067408,3.81299 -0.01493,0.0303 0.461465,0.30138 1.058656,0.60255 1.205301,0.60785 1.854474,0.71165 2.386379,0.38159 z m -1.618175,-1.00415 c -0.232904,-0.12118 -0.437549,-0.23241 -0.454767,-0.24717 -0.09245,-0.0793 1.111608,-2.26459 1.248759,-2.26644 0.280522,-0.004 0.985504,0.5633 1.08954,0.87644 0.220896,0.6649 -0.52766,1.87181 -1.154973,1.86219 -0.167802,-0.002 -0.495655,-0.10383 -0.728559,-0.22502 z m 50.45858,0.29225 c 0.78735,-0.32902 1.30083,-0.98377 1.37858,-1.75787 l 0.0371,-0.36906 -0.48858,-0.0317 c -0.46143,-0.0299 -0.49191,-0.015 -0.54842,0.26748 -0.0909,0.45439 -0.46336,0.85691 -0.9194,0.99354 -0.35422,0.10613 -0.46506,0.0944 -0.81478,-0.0864 -0.48085,-0.24856 -0.66661,-0.56757 -0.66554,-1.14293 0.002,-0.86836 0.84853,-1.3872 1.71906,-1.05314 0.10037,0.0385 0.23389,-0.0749 0.38037,-0.3232 0.12413,-0.2104 0.2257,-0.40242 0.2257,-0.42671 0,-0.0243 -0.14055,-0.11684 -0.31234,-0.20568 -0.43542,-0.22516 -1.30461,-0.20541 -1.78272,0.0405 -1.72432,0.88695 -1.70722,3.15412 0.0307,4.06871 0.39794,0.20941 1.29037,0.22281 1.76032,0.0264 z m 2.83234,-1.66891 c 0.21066,-0.12657 0.39699,-0.23979 0.41407,-0.2516 0.0412,-0.0285 -0.37147,-0.70735 -1.44508,-2.37748 l -0.8847,-1.37626 -0.41215,0.23163 c -0.22668,0.12741 -0.41215,0.29284 -0.41215,0.36763 0,0.0748 0.185,0.4114 0.41113,0.74803 0.44091,0.65639 1.1993,1.84493 1.58956,2.49116 0.13187,0.21835 0.26598,0.397 0.29802,0.397 0.032,0 0.23063,-0.10355 0.4413,-0.23011 z m -56.937307,-0.11395 c 0.109291,-0.13101 0.200296,-0.29641 0.202234,-0.36755 0.0019,-0.0711 -0.422656,-0.42844 -0.943541,-0.79399 -0.868483,-0.6095 -0.935808,-0.68173 -0.811422,-0.87054 0.284247,-0.43146 0.413377,-0.42151 1.142354,0.0881 0.384218,0.26859 0.739577,0.48776 0.789687,0.48704 0.05011,-8e-4 0.193366,-0.15928 0.31835,-0.35234 l 0.227243,-0.35102 -0.680837,-0.4617 c -0.925608,-0.62767 -0.948045,-0.66284 -0.666236,-1.044 l 0.234568,-0.31727 0.91127,0.62175 0.911271,0.62174 0.234391,-0.28425 c 0.316061,-0.3833 0.301134,-0.49155 -0.102059,-0.74011 -0.189235,-0.11666 -0.677539,-0.45539 -1.085122,-0.75273 -0.77795,-0.56755 -1.194678,-0.81379 -1.253416,-0.74066 -0.01929,0.024 -0.360188,0.52006 -0.757558,1.10232 -0.397371,0.58226 -0.93195,1.33667 -1.187953,1.67647 -0.256003,0.3398 -0.450845,0.68241 -0.432982,0.76135 0.03161,0.13968 2.484763,1.9356 2.66215,1.94893 0.04889,0.004 0.178316,-0.10051 0.287608,-0.23152 z m 32.759517,-0.60777 c 4.01282,-0.44716 8.15019,-1.48103 11.86638,-2.96522 1.24247,-0.49622 4.31774,-2.01394 5.80468,-2.86474 2.86026,-1.63659 6.42298,-4.44439 9.01097,-7.10156 1.25696,-1.29056 3.07476,-3.39695 3.73292,-4.32553 2.17937,-3.07483 2.84103,-4.1498 4.09534,-6.65355 2.14637,-4.284433 3.28334,-7.915433 4.18184,-13.355053 0.38539,-2.33321 0.50648,-7.90332 0.22668,-10.42776 -0.6213,-5.60565 -2.02107,-10.4303 -4.41592,-15.22055 -0.50149,-1.00309 -0.97848,-1.89901 -1.05998,-1.99094 -0.0815,-0.0919 -0.14819,-0.19742 -0.14819,-0.23444 0,-0.1112 -0.95107,-1.64779 -1.68444,-2.72146 -2.61305,-3.82553 -5.48169,-6.88948 -9.38681,-10.02589 -0.88055,-0.70722 -3.95049,-2.78315 -4.59685,-3.10844 -0.26202,-0.13187 -0.54786,-0.29943 -0.63519,-0.37236 -0.21357,-0.17832 -3.1975,-1.66394 -4.27313,-2.12748 -4.45216,-1.91862 -9.51594,-3.11868 -14.47802,-3.43112 -4.48642,-0.28249 -9.30739,0.16453 -13.43206,1.2455 -0.78605,0.206 -1.57211,0.40989 -1.74679,0.45308 -2.08748,0.51614 -6.647015,2.4677 -9.24131,3.95544 -4.893103,2.80602 -9.631755,6.98505 -13.111132,11.56273 -0.829504,1.09134 -2.481141,3.56622 -2.787967,4.17758 -0.131497,0.26202 -0.300139,0.54786 -0.374761,0.6352 -0.233982,0.27386 -1.824132,3.52359 -2.339049,4.78022 -1.312742,3.2037 -2.350137,6.87038 -2.795908,9.88216 -0.452273,3.05571 -0.616999,6.6935 -0.432666,9.55497 0.384186,5.96393 1.84114,11.39358 4.480868,16.698953 0.798512,1.60487 1.028387,2.02012 2.022275,3.65311 2.011277,3.30459 5.350619,7.19557 8.488064,9.89023 2.074618,1.78183 4.554066,3.57933 6.141583,4.45239 0.406823,0.22374 0.811139,0.46631 0.898478,0.53905 0.247586,0.20619 3.211512,1.66871 4.446355,2.19401 4.17738,1.77703 9.21422,3.00836 13.70967,3.35153 1.50322,0.11475 6.47641,0.0512 7.83407,-0.10006 z m -19.63815,-9.52886 v -2.22318 h 0.6107 0.6107 l 0.47442,0.94698 c 0.26094,0.52084 0.52207,0.93499 0.5803,0.92033 0.0582,-0.0146 0.31952,-0.4408 0.58065,-0.94698 l 0.47479,-0.92033 h 0.61034 0.61034 v 2.22318 2.22317 h -0.42347 -0.42346 v -1.53505 c 0,-0.84427 -0.0357,-1.53269 -0.0794,-1.5298 -0.0437,0.003 -0.27999,0.43164 -0.52514,0.95279 -0.43301,0.92047 -0.45606,0.94754 -0.80681,0.94754 -0.35029,0 -0.37471,-0.0285 -0.81764,-0.95279 -0.25111,-0.52403 -0.49546,-0.95279 -0.54299,-0.95279 -0.0475,0 -0.0864,0.69078 -0.0864,1.53505 v 1.53505 h -0.42346 -0.42346 z m 6.71659,2.02938 c -1.09625,-0.51294 -1.63983,-1.90022 -1.14946,-2.93359 0.67414,-1.42063 2.36865,-1.77416 3.51651,-0.73364 l 0.49725,0.45075 -0.38349,0.18325 c -0.37418,0.1788 -0.39124,0.17751 -0.70357,-0.0534 -0.38675,-0.28593 -1.14126,-0.38103 -1.50349,-0.1895 -0.39296,0.20777 -0.74424,0.79623 -0.74424,1.24676 0,0.89959 0.9384,1.57637 1.77052,1.27691 0.21985,-0.0791 0.48405,-0.24043 0.58709,-0.35847 0.18093,-0.20723 0.20038,-0.2084 0.56647,-0.0338 0.35882,0.1711 0.37087,0.19336 0.22505,0.4156 -0.0847,0.12916 -0.3513,0.37469 -0.59239,0.54563 -0.57113,0.40497 -1.44809,0.48212 -2.08625,0.18352 z m 3.65829,-2.02938 v -2.22318 h 0.61011 0.61012 l 0.51708,1.01415 0.51709,1.01416 0.54019,-1.01342 0.54019,-1.01341 0.60874,-8e-4 0.60873,-8e-4 v 2.22317 2.22318 h -0.42071 -0.42071 l -0.0292,-1.61445 -0.0292,-1.61445 -0.50306,1.03219 c -0.49521,1.01609 -0.50889,1.03219 -0.87723,1.03219 -0.36734,0 -0.38231,-0.0173 -0.82027,-0.94941 -0.24535,-0.52218 -0.48183,-0.95093 -0.5255,-0.95279 -0.0437,-0.002 -0.0794,0.6874 -0.0794,1.53168 v 1.53505 h -0.42346 -0.42346 z m 5.35242,1.93205 c 0.10414,-0.16013 0.44957,-0.68314 0.76763,-1.16227 l 0.57829,-0.87113 -0.61566,-0.92858 c -0.33861,-0.51072 -0.66058,-0.98814 -0.71548,-1.06092 -0.0766,-0.10154 0.0237,-0.13233 0.43089,-0.13233 h 0.53071 l 0.40858,0.68628 c 0.22471,0.37745 0.45622,0.68619 0.51444,0.68609 0.0582,-9e-5 0.28641,-0.30892 0.50708,-0.68627 0.39987,-0.68382 0.40279,-0.6861 0.87964,-0.6861 0.35268,0 0.45846,0.0348 0.40246,0.13233 -0.0418,0.0728 -0.33043,0.52286 -0.64144,1.00017 -0.31101,0.47731 -0.56548,0.92638 -0.56548,0.99794 0,0.0716 0.30966,0.59671 0.68813,1.167 0.37847,0.5703 0.68812,1.06211 0.68812,1.09291 0,0.0308 -0.22723,0.056 -0.50497,0.056 h -0.50497 l -0.45729,-0.74105 c -0.2515,-0.40759 -0.48875,-0.74055 -0.52721,-0.73993 -0.0385,8e-4 -0.28431,0.33359 -0.54633,0.73993 l -0.47639,0.73879 -0.51504,10e-4 -0.51504,0.001 0.18933,-0.29113 z m 5.73015,0.18348 c -0.86122,-0.25851 -1.47101,-1.13149 -1.47172,-2.10692 -8e-4,-0.99094 0.47281,-1.71334 1.36933,-2.08903 0.81256,-0.34051 2.0049,-0.039 2.50737,0.63398 0.18774,0.25147 0.19627,0.30625 0.0613,0.39381 -0.36013,0.23359 -0.6434,0.23303 -0.89332,-0.002 -0.30234,-0.28403 -1.00312,-0.39436 -1.41672,-0.22304 -0.72159,0.29889 -1.03602,1.37956 -0.58107,1.99715 0.52315,0.71017 1.38463,0.82641 2.03969,0.27522 0.31248,-0.26294 0.32314,-0.26426 0.69746,-0.0866 l 0.38012,0.18038 -0.35028,0.36845 c -0.62989,0.66255 -1.50693,0.9091 -2.34214,0.6584 z m 3.42105,-2.11553 v -2.22318 h 0.42346 0.42346 v 2.22318 2.22317 h -0.42346 -0.42346 z m 2.07654,0.0708 c -0.38516,-1.18941 -0.70029,-2.19488 -0.70029,-2.23438 0,-0.0395 0.20075,-0.0572 0.44612,-0.0393 0.50549,0.0369 0.43218,-0.0956 1.04297,1.8852 0.18851,0.61138 0.37458,1.14827 0.41348,1.1931 0.0389,0.0448 0.29883,-0.63405 0.57762,-1.50859 l 0.50688,-1.59009 h 0.46498 c 0.25574,0 0.46369,0.0119 0.46212,0.0265 -0.002,0.0146 -0.33095,1.00308 -0.73195,2.19671 l -0.7291,2.17025 -0.52626,0.0316 -0.52628,0.0316 z m -38.1768,-6.02577 c -10e-7,-0.0437 0.08995,-0.0794 0.199886,-0.0794 0.839871,0 3.735568,-1.20388 4.816622,-2.0025 l 0.594366,-0.43909 v -0.68478 -0.68479 h 0.935001 0.935 l 0.134619,-2.30258 c 0.07404,-1.26641 0.147312,-2.31623 0.162825,-2.33292 0.01551,-0.0167 0.280926,0.0693 0.589808,0.19102 0.308882,0.12174 1.041579,0.34889 1.628214,0.50477 0.974349,0.25889 1.236029,0.28332 3.025139,0.28248 1.76661,-8e-4 2.08301,-0.0299 3.22892,-0.29601 0.69871,-0.1623 1.93735,-0.50996 2.75252,-0.77257 2.70361,-0.871003 3.95431,-1.069423 4.98586,-0.791003 0.86331,0.23301 1.70346,1.055193 2.12451,2.079063 0.10692,0.26 0.21822,0.47272 0.24733,0.47272 0.0291,0 0.14249,-0.21775 0.25194,-0.48389 0.42793,-1.04046 1.38343,-1.922713 2.28883,-2.113353 1.01016,-0.2127 1.91398,-0.0635 4.49929,0.742933 3.00896,0.93853 3.93005,1.12682 5.82261,1.19028 1.86464,0.0625 2.90403,-0.0837 4.60304,-0.64746 0.61021,-0.20249 1.1174,-0.35927 1.12709,-0.3484 0.01,0.0109 0.0782,1.05593 0.15223,2.32234 l 0.13462,2.30258 h 0.87723 0.87723 l 0.0313,0.7126 0.0313,0.7126 0.74106,0.50072 c 0.93737,0.63337 2.35924,1.26475 3.65237,1.62185 0.55315,0.15275 1.0902,0.31023 1.19346,0.34996 0.10326,0.0397 -11.69943,0.0722 -26.2282,0.0722 -14.52885,0 -26.416027,-0.0357 -26.416027,-0.0794 z m 25.93531,-4.71102 c -0.003,-0.60204 -0.27823,-1.77841 -0.55985,-2.39095 -0.89447,-1.94561 -2.10987,-2.137903 -5.79028,-0.91608 -2.5172,0.83566 -4.02667,1.15531 -5.82264,1.23301 -1.83943,0.0796 -3.929177,-0.18743 -5.101574,-0.65182 -0.220707,-0.0874 -0.263027,0.1428 -0.34538,1.87891 l -0.05901,1.24393 h 8.840284 8.84029 l -0.002,-0.397 z m 18.47025,-0.84693 c -0.0824,-1.73695 -0.12463,-1.96662 -0.34538,-1.87777 -0.0983,0.0396 -0.6552,0.19656 -1.23746,0.34882 -0.9584,0.25064 -1.24915,0.27724 -3.0701,0.28095 -2.42434,0.005 -3.05992,-0.11119 -6.67371,-1.21926 -2.10079,-0.64415 -2.5379,-0.74479 -3.24146,-0.74634 -1.26621,-0.003 -1.92612,0.4394 -2.49168,1.66958 -0.28161,0.61254 -0.55706,1.78891 -0.55985,2.39095 l -0.002,0.397 h 8.84025 8.84024 z m -19.84467,-6.874763 c -2.62975,-0.27691 -5.50414,-1.29021 -7.83409,-2.76175 -1.55956,-0.98498 -3.40394,-2.67789 -4.46631,-4.09954 -3.991902,-5.34188 -4.707562,-12.16917 -1.90319,-18.15595 2.36883,-5.05694 7.19418,-8.72642 12.81755,-9.74722 0.67499,-0.12253 1.24435,-0.23967 1.26526,-0.2603 0.0209,-0.0206 -0.0586,-0.17319 -0.17666,-0.339 -0.40586,-0.56998 -0.67964,-1.60206 -0.6351,-2.39416 l 0.0408,-0.72493 -0.46158,-0.31757 c -0.73878,-0.5083 -2.33023,-1.21532 -3.30476,-1.4682 -1.2482,-0.32388 -3.27073,-0.39252 -4.81691,-0.16348 -1.17661,0.1743 -1.76049,0.30718 -3.96998,0.90351 -2.344355,0.63272 -3.779507,0.85576 -5.486209,0.85259 -1.357312,-0.003 -2.218102,-0.11768 -3.366999,-0.45044 l -0.860176,-0.24915 -0.18048,0.57256 c -0.12692,0.40263 -0.319323,0.70558 -0.648321,1.02082 -0.310844,0.29784 -0.46784,0.53779 -0.46784,0.71504 0,0.14672 0.613953,2.69169 1.36434,5.65549 1.900735,7.5073 3.496129,13.77608 4.362047,17.1398 0.758415,2.9461 1.446635,5.65052 1.791557,7.04005 0.451952,1.82073 0.375518,1.66776 0.873553,1.74829 0.684416,0.11067 1.252252,0.40403 1.713688,0.88532 l 0.41848,0.4365 h -0.80607 c -0.773298,0 -0.817413,0.0135 -1.0852,0.33173 -0.153524,0.18245 -0.369895,0.50964 -0.480825,0.72708 -0.337324,0.66121 -1.216827,1.53875 -1.788801,1.78481 -0.287514,0.12368 -0.848236,0.27193 -1.24605,0.32944 -0.944783,0.1366 -10.352443,0.13585 -11.298432,-8e-4 -1.407121,-0.20339 -2.220701,-0.7764 -3.049139,-2.14751 -0.563189,-0.93211 -0.756655,-1.05576 -1.622545,-1.03698 -0.377275,0.008 -0.685953,-0.008 -0.685953,-0.0354 0,-0.11766 0.922084,-0.93334 1.160607,-1.02667 0.143412,-0.0561 0.500708,-0.15262 0.793992,-0.21446 0.293283,-0.0618 0.545399,-0.12292 0.56026,-0.13574 0.01486,-0.0128 0.2379,-0.8528 0.495643,-1.8666 0.257745,-1.0138 0.930077,-3.65358 1.494073,-5.86617 0.563996,-2.21259 1.42007,-5.57118 1.902388,-7.46352 0.482319,-1.89235 1.284182,-5.03656 1.78192,-6.98713 1.848487,-7.24401 2.183734,-8.61135 2.231932,-9.10318 0.04729,-0.48253 0.03182,-0.5177 -0.369513,-0.84022 -1.024452,-0.82327 -1.149079,-2.37699 -0.26578,-3.31345 0.712486,-0.75537 1.675976,-0.7355 2.425181,0.05 0.326608,0.34244 0.55074,0.46422 1.138227,0.61846 2.762161,0.72518 4.5743,0.49237 9.070605,-1.16531 3.48884,-1.28625 5.01617,-1.62358 7.38167,-1.63035 2.12802,-0.006 4.20249,0.41446 5.967,1.20966 0.37053,0.16699 0.71592,0.27752 0.76753,0.24562 0.25296,-0.15633 0.0461,-0.54938 -0.64964,-1.23413 -0.90973,-0.89541 -1.03059,-1.07475 -1.14806,-1.7035 -0.14756,-0.78983 0.0263,-1.3504 1.08689,-3.50403 0.54716,-1.11109 1.20216,-2.62725 1.45554,-3.36927 0.25339,-0.74201 0.48453,-1.34934 0.51364,-1.34962 0.0291,-3.1e-4 0.25834,0.60638 0.50939,1.34812 0.25105,0.74174 0.91703,2.27654 1.47996,3.41067 0.93356,1.88084 1.02703,2.1243 1.06353,2.77031 0.0578,1.02274 -0.0891,1.34523 -1.04923,2.30411 -0.78121,0.78017 -1.00004,1.1699 -0.74529,1.32734 0.0516,0.0319 0.397,-0.0786 0.76753,-0.24562 1.76854,-0.79703 3.84151,-1.21659 5.96696,-1.20771 2.14526,0.009 3.74665,0.31984 6.19314,1.20221 3.18913,1.15022 3.86291,1.37892 4.67969,1.58846 1.22149,0.31337 2.26257,0.39745 3.68369,0.29752 1.64716,-0.11582 2.47331,-0.36589 3.02101,-0.91445 0.76141,-0.7626 1.6056,-0.79853 2.34738,-0.0999 0.88938,0.83765 0.8738,2.34925 -0.0333,3.22278 -0.70236,0.67641 -0.77045,0.18308 0.96106,6.96245 0.44614,1.74678 1.00126,3.91438 1.23359,4.81688 0.23233,0.9025 0.89991,3.52268 1.48352,5.8226 0.58362,2.29994 1.41463,5.56324 1.84671,7.2518 0.43207,1.68856 1.03494,4.05862 1.33971,5.26681 0.40161,1.59208 0.59632,2.19671 0.70745,2.19671 0.0843,0 0.43541,0.0791 0.78019,0.17589 0.46834,0.13141 0.76462,0.30472 1.17147,0.68528 l 0.54458,0.50938 -0.74105,-0.0152 c -0.88276,-0.018 -1.08028,0.0724 -1.42919,0.65435 -0.89722,1.49653 -1.51532,2.06617 -2.60816,2.40369 -0.56696,0.17505 -1.12062,0.19166 -6.39041,0.19166 -5.74989,0 -5.7721,-8e-4 -6.47607,-0.2441 -0.92132,-0.31837 -1.52792,-0.86167 -2.15357,-1.92885 -0.27377,-0.46698 -0.58474,-0.8956 -0.69106,-0.9525 -0.1063,-0.0569 -0.53956,-0.10345 -0.96279,-0.10345 h -0.76951 l 0.41849,-0.43578 c 0.45638,-0.47525 0.87786,-0.69498 1.68251,-0.87714 l 0.52297,-0.11839 0.38871,-1.53399 c 0.21379,-0.84369 0.99654,-3.91596 1.73944,-6.82726 1.82343,-7.14565 3.59121,-14.08704 4.67043,-18.3389 0.49108,-1.93474 0.93973,-3.64096 0.997,-3.79159 0.0573,-0.15063 0.10412,-0.52957 0.10412,-0.8421 0,-0.47101 -0.0355,-0.57948 -0.20708,-0.63396 -0.31135,-0.0988 -0.71785,-0.63568 -0.92682,-1.22403 -0.1024,-0.28833 -0.2192,-0.52423 -0.25956,-0.52423 -0.0404,0 -0.51748,0.1213 -1.06027,0.26955 -1.26695,0.34605 -3.30119,0.45441 -4.92757,0.26249 -0.62748,-0.074 -1.97457,-0.34649 -2.99353,-0.60543 -1.01895,-0.25894 -2.20994,-0.56162 -2.64664,-0.67262 -2.35771,-0.59931 -4.97233,-0.68212 -6.7754,-0.21458 -0.95382,0.24734 -2.77895,1.07173 -3.37227,1.52323 -0.35229,0.26809 -0.35525,0.27761 -0.37411,1.20358 -0.0201,0.98803 -0.28613,1.83245 -0.73589,2.33607 -0.117,0.13101 -0.18444,0.2382 -0.14988,0.2382 0.0346,0 0.65788,0.1184 1.38516,0.26311 3.06491,0.60984 6.0507,2.08988 8.39852,4.1631 2.48692,2.19604 4.36178,5.30221 5.26053,8.71536 1.05432,4.00399 0.6316,8.08232 -1.24163,11.97902 -2.06598,4.29764 -5.70694,7.47114 -10.33495,9.00804 -2.27687,0.75612 -4.91848,1.06895 -7.093,0.83998 z m 4.42953,-3.02582 c 1.58156,-1.218 2.95748,-3.44393 3.89175,-6.29601 0.19785,-0.60396 0.35971,-1.14375 0.35971,-1.19955 0,-0.063 -1.13482,-0.0908 -2.9907,-0.0733 l -2.9907,0.0281 -0.0238,4.11679 c -0.0131,2.26423 8e-4,4.15645 0.0307,4.20493 0.0916,0.14815 1.12441,-0.32 1.72297,-0.78096 z m -3.79433,-3.41201 v -4.18169 h -3.01719 c -1.65945,0 -3.01718,0.0224 -3.01718,0.0498 0,0.22909 0.93464,2.81027 1.27994,3.53477 1.0296,2.1603 2.58097,3.96371 3.92157,4.55865 0.90627,0.4022 0.83286,0.7514 0.83286,-3.96155 z m -4.86984,3.17811 c 0,-0.0279 -0.19233,-0.30186 -0.42738,-0.60873 -0.86715,-1.13205 -2.0898,-3.91107 -2.70238,-6.14234 l -0.16712,-0.60873 h -2.32154 c -1.27685,0 -2.32155,0.033 -2.32155,0.0732 0,0.14035 0.887,1.57293 1.42948,2.30873 1.3963,1.89392 3.24134,3.45094 5.41414,4.56898 0.84134,0.43292 1.09635,0.52801 1.09635,0.40885 z m 12.73022,-0.32556 c 2.56567,-1.26799 4.80143,-3.29567 6.30157,-5.71508 0.2874,-0.46352 0.55651,-0.94995 0.59803,-1.08097 l 0.0755,-0.23819 h -2.3244 -2.32439 l -0.0666,0.35512 c -0.0366,0.19532 -0.24987,0.92182 -0.47383,1.61445 -0.60922,1.88407 -1.61787,3.93998 -2.47466,5.04402 -0.16944,0.21835 -0.25512,0.397 -0.19038,0.397 0.0647,0 0.46037,-0.16936 0.8792,-0.37635 z m -37.695697,-2.38637 c 2.542086,-0.13383 8.633504,-0.0678 10.301664,0.11173 0.523281,0.0563 0.985426,0.0684 1.026987,0.0268 0.04156,-0.0416 -0.131952,-0.88539 -0.385588,-1.87519 -0.253635,-0.98979 -0.849795,-3.32409 -1.324801,-5.18732 -0.475005,-1.86324 -1.16747,-4.57869 -1.538811,-6.03434 -0.371341,-1.45565 -1.014499,-3.98054 -1.429241,-5.61088 -0.414743,-1.63033 -1.112096,-4.3696 -1.549676,-6.08727 -0.437579,-1.71767 -0.829183,-3.15799 -0.870231,-3.20072 -0.04105,-0.0427 -0.299614,0.81479 -0.574592,1.90558 -0.274978,1.0908 -0.805283,3.17426 -1.178457,4.62991 -0.373173,1.45565 -1.107917,4.33784 -1.632765,6.40487 -0.981575,3.86577 -1.66894,6.56286 -3.039174,11.92516 -0.433627,1.69696 -0.788412,3.12019 -0.788412,3.16273 0,0.0425 0.139496,0.0495 0.309991,0.0154 0.170495,-0.0341 1.373393,-0.11799 2.673106,-0.18641 z m 54.016907,-0.004 c 2.83508,-0.1258 8.21934,-0.0605 9.89744,0.12008 0.54782,0.059 1.02026,0.0829 1.04987,0.0533 0.0296,-0.0296 -0.0197,-0.35157 -0.10955,-0.71547 -0.25699,-1.04067 -2.40443,-9.4734 -3.51265,-13.79371 -1.53737,-5.99335 -2.22775,-8.70266 -2.76386,-10.84647 -0.69447,-2.77703 -0.69552,-2.78073 -0.76722,-2.70902 -0.0357,0.0357 -0.26558,0.86226 -0.51092,1.83687 -0.24533,0.9746 -0.73443,2.89154 -1.08688,4.25985 -0.35245,1.36831 -0.92593,3.60737 -1.27442,4.97568 -0.34848,1.36832 -0.94318,3.70265 -1.32155,5.18742 -1.51542,5.94663 -2.94553,11.59518 -2.94838,11.64521 -0.0112,0.19594 0.0609,0.23043 0.35741,0.17113 0.18445,-0.0369 1.53027,-0.1201 2.99071,-0.1849 z m -32.80512,-7.10565 c -0.31242,-2.29147 -0.36123,-5.6409 -0.11443,-7.85235 0.084,-0.75244 0.13576,-1.39558 0.11507,-1.42918 -0.0207,-0.0336 -1.16894,-0.0373 -2.55168,-0.008 l -2.51408,0.0529 -0.14254,0.41213 c -0.83299,2.40846 -0.80509,6.72147 0.0581,8.98344 l 0.1111,0.29113 h 2.54989 2.5499 z m 8.59813,-4.44635 0.0275,-4.84335 h -3.22154 -3.22158 l -0.0624,0.29113 c -0.34999,1.63266 -0.45344,4.95524 -0.2275,7.30707 0.0966,1.0057 0.20296,1.89963 0.2363,1.98652 0.0522,0.1361 0.50254,0.1541 3.25116,0.12998 l 3.19053,-0.028 z m 8.54127,4.80063 c 0.0325,-0.0526 0.13015,-0.73147 0.21697,-1.50858 0.26461,-2.36871 0.17637,-6.39069 -0.16978,-7.73841 l -0.10197,-0.39699 h -3.17188 -3.17189 v 4.86982 4.86981 h 3.16972 c 1.77323,0 3.19576,-0.0421 3.22883,-0.0957 z m 7.29404,0.0162 c 0.0267,-0.0437 0.18266,-0.65108 0.34673,-1.34979 0.27431,-1.16818 0.29846,-1.44072 0.30031,-3.38769 0.002,-2.14968 -0.0748,-2.77906 -0.53086,-4.34783 l -0.16713,-0.57493 h -2.56331 -2.56331 l 0.12921,0.97926 c 0.3114,2.36002 0.28014,6.31094 -0.0649,8.20123 -0.0448,0.24562 -0.0562,0.47191 -0.0252,0.50286 0.0883,0.0883 5.08424,0.0658 5.13847,-0.0231 z m -23.68606,-12.7472 c 0.56963,-2.14636 1.87891,-4.8957 2.87854,-6.04459 0.2965,-0.34078 0.0378,-0.32151 -0.75814,0.0565 -1.61169,0.76538 -3.54056,2.23614 -4.767,3.63481 -0.7447,0.8493 -1.78466,2.31096 -2.12091,2.98096 l -0.17369,0.3461 2.34895,-0.0285 2.34895,-0.0285 z m 7.87615,-3.1591 c 0,-4.69747 0.0816,-4.3597 -0.93075,-3.85525 -0.73419,0.36586 -1.98166,1.54805 -2.64298,2.50469 -0.89018,1.28768 -1.70994,3.04567 -2.23261,4.78782 l -0.20745,0.6915 h 3.0069 3.00689 z m 7.98871,3.79224 c -0.13187,-0.60035 -0.85435,-2.44616 -1.31829,-3.36794 -1.1564,-2.29762 -2.63489,-3.91284 -4.10317,-4.48261 l -0.44993,-0.1746 -0.008,3.78384 c -0.004,2.08111 -0.0232,3.96248 -0.0421,4.18083 l -0.0343,0.397 h 3.01475 3.01475 l -0.0739,-0.33652 z m 6.83248,0.27001 c 0,-0.1468 -0.70753,-1.30236 -1.24819,-2.03858 -1.17562,-1.60087 -3.11049,-3.36007 -4.71707,-4.2888 -0.71913,-0.41572 -1.73024,-0.91084 -1.86007,-0.91084 -0.06,0 0.15799,0.39213 0.48433,0.87139 0.83808,1.23081 1.55691,2.74295 2.16177,4.54758 0.28663,0.85517 0.52114,1.62931 0.52114,1.72031 0,0.14501 0.28777,0.16545 2.32905,0.16545 1.28097,0 2.32904,-0.0299 2.32904,-0.0665 z m 16.16534,52.408323 c 0.22786,-0.17379 0.34043,-0.3377 0.30903,-0.44993 -0.22608,-0.80804 -0.24049,-0.77789 0.69012,-1.44417 l 0.86868,-0.62194 0.39996,0.23019 c 0.21998,0.1266 0.46198,0.22995 0.53779,0.22966 0.16682,-8e-4 0.79478,-0.48913 0.72008,-0.56015 -0.0291,-0.0277 -0.55315,-0.34283 -1.16452,-0.70033 -0.61138,-0.35751 -1.18305,-0.69352 -1.27039,-0.7467 -1.71217,-1.04251 -1.66467,-1.03035 -2.26874,-0.58091 -0.20154,0.14995 -0.20111,0.17004 0.0309,1.44973 0.34088,1.88083 0.67839,3.46793 0.73748,3.46793 0.0282,0 0.21255,-0.12302 0.40968,-0.27338 z m -0.20477,-3.14609 c -0.0906,-0.41922 -0.15776,-0.7684 -0.14921,-0.77597 0.009,-0.008 0.31263,0.17841 0.67574,0.41326 l 0.66018,0.427 -0.34259,0.25608 c -0.68128,0.50924 -0.66332,0.51605 -0.84412,-0.32037 z m -60.777525,0.7645 c 1.162655,-0.56283 1.776894,-2.17136 1.171954,-3.06903 -0.225751,-0.33499 -1.515791,-1.49058 -1.888843,-1.69197 -0.136223,-0.0736 -0.43843,0.24601 -1.508584,1.59519 -0.736029,0.92794 -1.336278,1.72399 -1.333886,1.76899 0.0061,0.11577 1.300992,1.09376 1.825337,1.37869 0.548162,0.29786 1.143317,0.30408 1.734022,0.0181 z m -1.692911,-1.0603 c -0.271999,-0.18017 -0.494545,-0.35197 -0.494545,-0.38178 0,-0.0298 0.321567,-0.46291 0.714593,-0.96242 0.393026,-0.49952 0.746514,-0.95559 0.785529,-1.01349 0.09811,-0.14561 0.791327,0.3999 0.985601,0.77558 0.242793,0.46952 -0.05585,1.15758 -0.726751,1.67441 -0.410332,0.3161 -0.677269,0.29661 -1.264427,-0.0923 z m 67.354106,-0.11648 c 0.83792,-0.62651 1.1758,-1.13671 1.1758,-1.77542 0,-0.3418 -0.0741,-0.5111 -0.36019,-0.82331 -0.48653,-0.53091 -0.90817,-0.52829 -2.06113,0.0128 -0.70324,0.33001 -0.894,0.38152 -1.02142,0.27576 -0.23948,-0.19874 -0.18842,-0.45756 0.15523,-0.78679 0.25349,-0.24286 0.37328,-0.28657 0.63943,-0.23334 0.23972,0.0479 0.42533,0.002 0.69249,-0.1709 0.20074,-0.13001 0.36558,-0.26888 0.3663,-0.30858 0.003,-0.18729 -0.64751,-0.51008 -1.02859,-0.51008 -0.78832,0 -1.93243,1.08356 -1.9338,1.83144 -8e-4,0.37697 0.24791,0.86063 0.55174,1.07344 0.37285,0.26116 0.93689,0.19711 1.80785,-0.2053 0.89592,-0.41394 1.0818,-0.44606 1.17504,-0.20307 0.12964,0.33783 0.0566,0.56122 -0.27463,0.83994 -0.28073,0.23621 -0.41031,0.27557 -0.75505,0.22933 -0.31451,-0.0422 -0.50292,3.2e-4 -0.77138,0.17418 -0.46626,0.30189 -0.44981,0.46385 0.0708,0.69694 0.33918,0.15185 0.53018,0.17295 0.91504,0.10105 0.26751,-0.05 0.56291,-0.1481 0.65646,-0.21804 z M 80.519469,118.1814 c 0.553379,-0.30597 1.190179,-0.92948 1.365328,-1.33683 0.08056,-0.18736 0.146477,-0.57106 0.146477,-0.85266 0,-0.63206 -0.331856,-1.18214 -1.258286,-2.08574 l -0.648409,-0.63244 -0.925767,0.90944 c -0.509171,0.50019 -1.221357,1.18374 -1.582635,1.51902 l -0.656869,0.60959 0.75473,0.83179 c 1.118311,1.23251 1.918185,1.52841 2.805431,1.03783 z m -1.739294,-1.27105 c -0.220695,-0.23853 -0.377443,-0.46327 -0.34833,-0.49942 0.02911,-0.0362 0.447295,-0.44434 0.929295,-0.90708 l 0.876364,-0.84134 0.369379,0.40327 c 0.203159,0.2218 0.397776,0.51641 0.432483,0.65469 0.09049,0.36055 -0.134666,0.82358 -0.608751,1.25189 -0.324371,0.29305 -0.500007,0.37167 -0.830288,0.37167 -0.354474,0 -0.480595,-0.0667 -0.820152,-0.43368 z m 75.874985,0.26225 c 0.74574,-0.39785 1.27038,-1.17071 1.27038,-1.87144 0,-0.40279 -0.0591,-0.54549 -0.35656,-0.86089 -0.48547,-0.51475 -1.0499,-0.52498 -1.87506,-0.034 -1.04924,0.62431 -1.13068,0.65572 -1.31126,0.50586 -0.22914,-0.19017 -0.20308,-0.36188 0.11166,-0.73593 0.21389,-0.2542 0.35919,-0.32584 0.66167,-0.32625 0.25693,-3.2e-4 0.49464,-0.0894 0.70517,-0.26426 l 0.3176,-0.26374 -0.24992,-0.21214 c -0.46158,-0.39177 -1.28539,-0.24018 -1.90289,0.35016 -0.48269,0.46147 -0.65262,0.82323 -0.65262,1.3893 0,0.38075 0.0639,0.55146 0.30891,0.82572 0.45881,0.5135 0.99554,0.48537 1.98793,-0.1042 0.41654,-0.24746 0.85384,-0.44993 0.97177,-0.44993 0.31311,0 0.44825,0.30573 0.27944,0.63218 -0.25146,0.48628 -0.56185,0.68504 -1.04072,0.66647 -0.33604,-0.013 -0.51565,0.0462 -0.74411,0.24548 -0.2463,0.21483 -0.27762,0.29103 -0.17195,0.41835 0.29042,0.34993 1.11986,0.39372 1.69056,0.0893 z m -77.458584,-2.02527 c 0.260013,-0.50948 0.739596,-1.42297 1.065741,-2.02998 0.326144,-0.607 0.591054,-1.17867 0.588688,-1.27038 -0.0024,-0.0917 -0.133375,-0.31605 -0.291131,-0.49854 l -0.286828,-0.3318 -2.259325,0.56203 c -1.242628,0.30912 -2.283985,0.5867 -2.314125,0.61683 -0.03014,0.0301 0.04892,0.20047 0.175688,0.3785 0.244657,0.34359 0.460488,0.39062 1.035612,0.22568 0.313309,-0.0899 0.361132,-0.07 0.574689,0.2382 0.128118,0.18491 0.415919,0.55867 0.63956,0.83058 l 0.406617,0.49437 -0.22701,0.46725 -0.227011,0.46726 0.250728,0.38685 c 0.1379,0.21277 0.28327,0.38743 0.323042,0.38816 0.03977,8e-4 0.285053,-0.41554 0.545065,-0.92501 z m -0.498017,-2.13653 c -0.167255,-0.22616 -0.298146,-0.45132 -0.290868,-0.50036 0.0073,-0.049 0.325194,-0.16789 0.706482,-0.26411 0.381287,-0.0962 0.678916,-0.13987 0.661397,-0.097 -0.115827,0.28353 -0.676728,1.27675 -0.719978,1.27492 -0.02911,-0.001 -0.189778,-0.1873 -0.357033,-0.41346 z m 80.751251,0.8132 c 0.66519,-0.44344 1.01651,-1.08434 1.01651,-1.85441 0,-0.58258 -0.20172,-1.20331 -0.49712,-1.52972 -0.16289,-0.17999 -0.15444,-0.18352 0.16921,-0.0707 0.51644,0.18003 1.4147,0.0678 1.85755,-0.23215 0.77114,-0.52224 1.15407,-1.48882 0.96954,-2.44728 -0.11787,-0.6122 -0.20151,-0.66546 -0.61719,-0.39297 -0.35337,0.23164 -0.36864,0.26781 -0.35803,0.84804 0.009,0.5056 -0.0317,0.65173 -0.24723,0.88153 -0.14208,0.1515 -0.43632,0.32879 -0.65387,0.39397 -0.33712,0.101 -0.45534,0.0876 -0.80034,-0.0907 -0.46213,-0.23888 -0.66564,-0.56506 -0.66789,-1.07049 -0.003,-0.60953 0.43823,-1.1768 0.91852,-1.18167 0.28122,-0.003 0.30594,-0.0406 0.40034,-0.61109 l 0.0745,-0.44992 h -0.38406 c -0.77415,0 -1.8565,0.86724 -2.00423,1.6059 -0.15474,0.77369 0.0144,1.55107 0.44167,2.03019 0.17457,0.19574 0.17151,0.19977 -0.0834,0.10974 -0.43746,-0.1545 -1.39813,-0.0943 -1.79972,0.1128 -1.32114,0.68125 -1.67096,2.33856 -0.73349,3.47503 0.4821,0.58444 0.9745,0.80775 1.79336,0.81331 0.60542,0.004 0.75217,-0.0372 1.20546,-0.33939 z m -1.59858,-0.67913 c -0.12821,-0.0268 -0.37832,-0.21423 -0.55579,-0.41637 -0.52053,-0.59285 -0.41337,-1.44927 0.23047,-1.84182 1.05503,-0.64326 2.31343,0.39109 1.84367,1.5154 -0.23919,0.57246 -0.86658,0.87938 -1.51835,0.74279 z m -81.235309,-2.8418 c 0.68399,-0.49442 1.270474,-0.89895 1.3033,-0.89895 0.03283,0 0.233434,0.23669 0.445798,0.52599 l 0.386115,0.52599 0.35683,-0.2339 0.356828,-0.23391 -0.227705,-0.37149 c -0.125238,-0.20431 -0.265558,-0.41912 -0.311822,-0.47735 -0.04626,-0.0582 -0.424596,-0.59177 -0.840739,-1.18566 -0.796386,-1.13654 -0.780635,-1.12763 -1.303476,-0.73736 -0.206267,0.15397 -0.203634,0.16597 0.142005,0.64726 0.193692,0.26971 0.328863,0.55112 0.300378,0.62535 -0.02848,0.0742 -0.65215,0.55314 -1.385924,1.06425 -0.733776,0.51111 -1.334137,0.95607 -1.334137,0.9888 0,0.0327 0.123981,0.22204 0.275515,0.42071 0.174873,0.22927 0.333577,0.33894 0.434465,0.30023 0.08742,-0.0335 0.718578,-0.46553 1.402569,-0.95996 z m -2.276329,-0.70422 c 0.148305,-0.0676 0.269108,-0.19858 0.268451,-0.29113 -6.36e-4,-0.0925 -0.214497,-0.52557 -0.475201,-0.96226 -0.260703,-0.4367 -0.474543,-0.82598 -0.475201,-0.86508 -6.36e-4,-0.0391 0.641996,-0.43677 1.428116,-0.8837 0.786121,-0.44694 1.453626,-0.85196 1.483343,-0.90004 0.05434,-0.0879 -0.345943,-0.84474 -0.446777,-0.84474 -0.165904,0 -3.730784,2.08402 -3.733275,2.18246 -0.0043,0.16971 1.488289,2.68735 1.593192,2.68735 0.04824,0 0.209047,-0.0553 0.357352,-0.12286 z m 89.887008,-2.74006 c 0.16631,-0.3688 0.17219,-0.44718 0.0426,-0.56652 -0.18519,-0.17047 -3.46167,-2.07588 -3.56767,-2.07475 -0.042,4e-4 -0.18224,0.18626 -0.31165,0.41291 -0.27889,0.48848 -0.38741,0.37454 1.29395,1.35864 1.8063,1.05722 2.21466,1.28819 2.2865,1.29326 0.0348,0.002 0.15017,-0.18813 0.25633,-0.42354 z m 0.7631,-1.18892 c 0.15169,-0.38032 0.14734,-0.40102 -0.16774,-0.79884 l -0.32346,-0.4084 0.40606,-0.94342 0.40607,-0.94342 0.58641,-0.0315 c 0.52838,-0.0284 0.59666,-0.0598 0.69005,-0.3176 0.057,-0.15736 0.13743,-0.36947 0.17873,-0.47137 0.0702,-0.17326 -0.0832,-0.18527 -2.36714,-0.18527 h -2.44223 l -0.20019,0.44993 -0.20019,0.44993 0.48546,0.58226 c 0.267,0.32025 0.68298,0.79664 0.92441,1.05866 0.24142,0.26202 0.71865,0.81944 1.06051,1.23872 0.34186,0.41928 0.6634,0.75072 0.71454,0.73653 0.0511,-0.0142 0.16306,-0.20149 0.24871,-0.41622 z m -1.80396,-2.67196 -0.50949,-0.58092 h 0.73004 c 0.40152,0 0.75656,0.0265 0.78897,0.0589 0.066,0.066 -0.35012,1.10635 -0.44165,1.10425 -0.0321,-8e-4 -0.28766,-0.26275 -0.56787,-0.58226 z m -88.689519,2.20331 c 0.731758,-0.38536 1.348793,-0.71536 1.371186,-0.73333 0.06704,-0.0538 -0.211599,-0.65876 -0.360221,-0.7821 -0.103434,-0.0858 -0.486861,0.0612 -1.533174,0.58784 -1.593512,0.80211 -1.77996,0.816 -2.115808,0.15769 -0.332535,-0.65182 -0.19387,-0.81993 1.36082,-1.64979 0.735505,-0.39259 1.355603,-0.72897 1.377996,-0.74751 0.06778,-0.0561 -0.21231,-0.66038 -0.364746,-0.78689 -0.109547,-0.0909 -0.455376,0.0452 -1.497194,0.58916 -1.766443,0.92236 -2.130409,1.32924 -1.983054,2.21686 0.126481,0.7619 0.676374,1.55697 1.258256,1.81927 0.511324,0.2305 1.049762,0.0851 2.485939,-0.6712 z m -3.274682,-3.462 c 0,-0.4219 -0.02987,-0.47645 -0.315322,-0.57596 -0.369328,-0.12875 -0.742375,-0.68462 -0.742938,-1.10704 -0.0016,-1.205543 1.603419,-1.700633 2.222336,-0.685513 0.240575,0.39458 0.269287,0.793663 0.08604,1.195853 -0.114921,0.25222 -0.09476,0.30616 0.226781,0.60667 l 0.352919,0.32983 0.1953,-0.24119 c 0.604712,-0.74678 0.446257,-2.172753 -0.316836,-2.851283 -0.506706,-0.45055 -0.88239,-0.59062 -1.556961,-0.58052 -0.725223,0.0108 -1.121237,0.17895 -1.617511,0.68655 -0.943633,0.96517 -0.740693,2.611673 0.417803,3.389733 0.244782,0.1644 0.580808,0.2989 0.746725,0.2989 0.28596,0 0.301666,-0.0242 0.301666,-0.46603 z m 96.001791,-1.14841 c 0.17543,-0.42214 0.43972,-1.089003 0.58731,-1.481903 l 0.26835,-0.71437 -0.32233,-0.16668 c -0.17727,-0.0917 -0.38142,-0.144 -0.45367,-0.11628 -0.0722,0.0277 -0.23994,0.35273 -0.37268,0.72225 -0.13273,0.36952 -0.2837,0.71711 -0.33549,0.77242 -0.0518,0.0553 -0.0942,0.18633 -0.0942,0.29114 0,0.104803 -0.0154,0.190563 -0.0343,0.190563 -0.0188,0 -0.75681,-0.279353 -1.63993,-0.620773 -1.12787,-0.43604 -1.6329,-0.58568 -1.69716,-0.50286 -0.15942,0.20543 -0.32472,0.79924 -0.23749,0.85314 0.0461,0.0285 0.81739,0.340803 1.71399,0.694023 0.8966,0.35322 1.72546,0.68503 1.84191,0.73737 0.38588,0.17341 0.45414,0.1155 0.77561,-0.65804 z M 67.092813,98.105327 c 0.326521,-0.27528 0.617494,-0.52568 0.646607,-0.55646 0.02911,-0.0308 0.36259,-0.31738 0.74106,-0.63689 0.378469,-0.31952 0.711946,-0.60758 0.741059,-0.64013 0.02911,-0.0326 0.236201,-0.19686 0.460197,-0.36512 0.384172,-0.28859 0.403418,-0.32999 0.33942,-0.73021 -0.09229,-0.57717 -0.186514,-0.66166 -0.82793,-0.74237 -0.304672,-0.0383 -1.333799,-0.18951 -2.28695,-0.33595 -0.953151,-0.14643 -1.758746,-0.2405 -1.79021,-0.20903 -0.03147,0.0315 -0.0013,0.24368 0.06695,0.4716 0.117751,0.39301 0.151142,0.4181 0.647338,0.48635 0.522947,0.0719 0.523254,0.0722 0.680319,0.61848 0.444204,1.54496 0.443583,1.49205 0.02216,1.88579 -0.371634,0.34722 -0.377064,0.36392 -0.261707,0.80451 0.06479,0.24746 0.1426,0.44993 0.17291,0.44993 0.03031,0 0.322261,-0.22523 0.648782,-0.5005 z m 0.538959,-2.25863 c -0.0637,-0.23655 -0.144601,-0.50511 -0.179791,-0.59682 -0.055,-0.14332 0.009,-0.15669 0.455792,-0.0952 0.285876,0.0393 0.650916,0.0973 0.811202,0.1289 l 0.291429,0.0574 -0.556093,0.46564 c -0.305851,0.2561 -0.589986,0.46667 -0.631411,0.46792 -0.04143,0.001 -0.127433,-0.19126 -0.191128,-0.42781 z m 99.100918,0.57392 c 0.22713,-0.80694 0.41334,-1.51871 0.41379,-1.58173 0.001,-0.17826 -0.71183,-0.367 -0.82528,-0.21842 -0.0509,0.0667 -0.20286,0.55002 -0.33765,1.07405 -0.13478,0.52404 -0.28066,0.99334 -0.32418,1.0429 -0.0435,0.0496 -0.22676,0.0577 -0.4072,0.018 -0.39,-0.0857 -0.40051,-0.18591 -0.11495,-1.09686 0.1157,-0.3691 0.21036,-0.73031 0.21036,-0.80269 0,-0.15117 -0.75426,-0.41265 -0.85627,-0.29686 -0.0372,0.0422 -0.16741,0.45193 -0.28935,0.91043 -0.12193,0.4585 -0.23804,0.84998 -0.25802,0.86995 -0.02,0.02 -0.21152,-0.0174 -0.42566,-0.0832 -0.42597,-0.13074 -0.43693,-0.21635 -0.13287,-1.03816 0.0754,-0.20379 0.17041,-0.57065 0.21113,-0.81524 0.0726,-0.43591 0.0671,-0.44665 -0.27845,-0.54193 -0.46095,-0.12713 -0.525,-0.0403 -0.82314,1.11632 -0.1317,0.51094 -0.30756,1.1378 -0.39079,1.39302 -0.0832,0.25522 -0.13785,0.47529 -0.12135,0.48903 0.0281,0.0234 3.29121,0.95938 4.0529,1.16248 0.20134,0.0537 0.28576,-0.14024 0.69698,-1.60119 z m 0.27268,-2.5603 c 0.39477,-0.2831 0.79102,-1.18801 0.80632,-1.84141 0.0232,-0.98981 -0.49889,-1.56474 -1.42089,-1.56474 -0.51531,0 -0.85606,0.31517 -1.30932,1.21104 -0.34991,0.69158 -0.59091,0.93639 -0.83109,0.84422 -0.42893,-0.1646 -0.26276,-1.02541 0.247,-1.27949 0.32263,-0.16081 0.60762,-0.87448 0.40146,-1.00535 -0.33613,-0.21338 -1.02971,0.0801 -1.32686,0.5615 -0.71325,1.15546 -0.45235,2.47269 0.54427,2.74787 0.73136,0.20193 1.16093,-0.13865 1.88159,-1.4918 0.21373,-0.40131 0.30346,-0.4764 0.56925,-0.4764 0.29936,0 0.31714,0.0247 0.34696,0.48228 0.0351,0.53846 -0.26286,1.05278 -0.60988,1.05278 -0.2621,0 -0.61184,0.83576 -0.40661,0.97166 0.18688,0.12375 0.80425,0.006 1.1078,-0.21216 z m -99.447133,-0.54468 c 0.04591,-0.0411 -0.0075,-0.48316 -0.118736,-0.9823 l -0.202216,-0.90752 0.410479,-0.10419 c 0.225763,-0.0573 0.427182,-0.0735 0.447596,-0.0359 0.02041,0.0376 0.122769,0.49705 0.227454,1.02108 0.104685,0.52404 0.22015,0.98758 0.256588,1.03009 0.03644,0.0425 0.243788,0.0283 0.460777,-0.0317 0.32937,-0.0909 0.386392,-0.14742 0.34527,-0.34196 -0.401035,-1.89719 -0.61603,-2.79006 -0.689778,-2.86462 -0.04994,-0.0505 -0.246936,-0.0431 -0.443643,0.0167 -0.330657,0.10047 -0.708544,0.18424 -2.738003,0.60692 -1.062558,0.2213 -1.095392,0.24668 -1.005718,0.77745 0.04057,0.24011 0.108459,0.43656 0.150874,0.43656 0.118479,0 1.310918,-0.21697 1.508746,-0.27453 0.137232,-0.0399 0.190554,0.0476 0.245598,0.4029 0.0606,0.39124 0.163917,0.81365 0.324184,1.32544 0.04179,0.13346 0.650028,0.0783 0.820528,-0.0745 z m 4.490836,-13.18336 c 0.156376,-7.49222 2.319037,-15.11377 6.095526,-21.48158 0.800918,-1.35048 2.33595,-3.62749 3.043942,-4.51526 0.298825,-0.37471 0.694055,-0.87058 0.878291,-1.10193 0.675581,-0.84838 2.400461,-2.70671 3.470536,-3.73905 5.407257,-5.21659 11.746419,-8.82937 19.096232,-10.88322 3.39373,-0.94835 7.77266,-1.52412 11.59235,-1.52426 6.30367,-2.1e-4 12.17999,1.25279 18.10288,3.86007 6.17298,2.71737 12.254,7.45226 16.52371,12.8659 4.1861,5.30766 7.03979,11.29964 8.49553,17.83835 0.62229,2.79509 0.90979,5.03806 1.01097,7.88699 l 0.0658,1.85265 h 5.02862 5.02861 l -0.0315,-1.58798 c -0.0791,-3.99176 -0.8058,-9.13606 -1.77208,-12.54508 -0.0908,-0.32024 -0.23654,-0.84427 -0.32391,-1.16452 -0.1876,-0.68761 -1.05959,-3.34757 -1.19731,-3.65236 -0.0526,-0.11645 -0.25099,-0.61667 -0.44082,-1.11159 -0.84658,-2.20715 -2.08785,-4.78393 -3.4118,-7.08262 -1.1088,-1.92516 -3.22035,-5.07661 -4.22743,-6.30938 -0.0476,-0.0582 -0.33029,-0.41513 -0.62828,-0.79312 -2.06429,-2.61853 -5.48887,-6.00376 -8.55774,-8.4594 -3.74598,-2.99744 -8.47931,-5.77053 -13.09972,-7.67463 -5.08646,-2.09616 -10.58154,-3.3898 -16.48971,-3.88197 -2.01211,-0.16762 -7.99337,-0.0732 -9.89847,0.15623 -6.76873,0.81521 -12.54276,2.49374 -18.187732,5.28724 -3.306743,1.63639 -6.945774,3.93452 -9.48354,5.98908 -0.400634,0.32435 -0.893936,0.71814 -1.096225,0.87508 -1.740102,1.35001 -5.734446,5.34441 -7.332722,7.33282 -1.439677,1.7911 -4.234624,5.71025 -4.234624,5.93791 0,0.0373 -0.08969,0.19435 -0.199309,0.3489 -0.917814,1.29403 -3.37863,6.17151 -4.040849,8.0092 -0.10491,0.29113 -0.290856,0.79134 -0.413212,1.11158 -1.576871,4.12714 -2.560435,8.24758 -3.123471,13.08514 -0.184651,1.58649 -0.411596,5.93137 -0.317745,6.08322 0.03877,0.0627 1.962499,0.0908 5.057836,0.0737 l 4.995268,-0.0275 z m 90.602077,-5.26633 c -0.0897,-0.2751 -0.50455,-3.0539 -0.46225,-3.09621 0.0724,-0.0724 4.11721,-0.71804 4.16969,-0.66556 0.0634,0.0634 0.50131,2.94684 0.45436,2.99188 -0.0199,0.0191 -0.1776,0.0513 -0.35044,0.0715 l -0.31427,0.0368 -0.18202,-1.05866 c -0.10011,-0.58226 -0.18498,-1.07665 -0.18859,-1.09865 -0.008,-0.0479 -0.8545,0.081 -0.95983,0.14614 -0.0405,0.025 -0.011,0.36866 0.0654,0.76366 0.21008,1.08552 0.19912,1.15764 -0.18773,1.23501 -0.18398,0.0368 -0.35004,0.0514 -0.36902,0.0324 -0.019,-0.019 -0.0976,-0.43616 -0.17479,-0.92706 l -0.14028,-0.89255 -0.44383,0.009 c -0.24411,0.005 -0.46952,0.0349 -0.5009,0.0662 -0.0314,0.0314 0.0324,0.58353 0.1417,1.22697 l 0.19877,1.16991 -0.22077,0.0593 c -0.34391,0.0924 -0.4884,0.0734 -0.53521,-0.0702 z m -95.811587,-0.61476 c -1.493089,-0.30937 -1.429372,-0.28238 -1.427564,-0.60471 0.0032,-0.56477 0.05284,-0.57299 1.620347,-0.26789 1.728884,0.3365 1.953888,0.3006 2.179145,-0.34772 0.204361,-0.58817 0.0904,-0.9754 -0.337784,-1.14776 -0.187162,-0.0753 -0.911969,-0.24418 -1.610682,-0.37518 -0.698713,-0.13101 -1.300338,-0.26869 -1.336945,-0.30597 -0.03661,-0.0373 -0.01279,-0.23874 0.05293,-0.44771 l 0.119491,-0.37994 1.452963,0.29024 c 0.900996,0.17999 1.599359,0.38073 1.838327,0.52842 0.684306,0.42292 0.848274,1.22675 0.461246,2.26117 -0.388259,1.03772 -1.030104,1.20759 -3.011477,0.79705 z m 1.662423,-5.42793 c -1.81392,-0.61086 -1.933274,-0.66718 -1.878269,-0.88634 0.181969,-0.72502 0.183767,-0.7263 1.664252,-1.18935 0.775481,-0.24255 1.504154,-0.47864 1.619275,-0.52466 0.160395,-0.0641 -0.08701,-0.1831 -1.058656,-0.50917 -1.172163,-0.39335 -1.265736,-0.44444 -1.238457,-0.67624 0.01623,-0.13791 0.06864,-0.28988 0.116468,-0.3377 0.04783,-0.0478 0.979016,0.20755 2.069307,0.56751 1.972601,0.65125 1.982014,0.65583 1.914478,0.93163 -0.03733,0.15244 -0.124285,0.33 -0.193235,0.39458 -0.06895,0.0646 -0.839959,0.34599 -1.71335,0.62534 -0.873391,0.27935 -1.625205,0.54004 -1.670697,0.57931 -0.04549,0.0392 0.538091,0.28117 1.296853,0.53755 0.844494,0.28535 1.379567,0.52081 1.379567,0.60708 0,0.18681 -0.199246,0.5528 -0.294854,0.54161 -0.04162,-0.005 -0.947328,-0.30239 -2.012682,-0.66115 z m 96.601434,-0.0581 -0.17301,-0.62228 -1.3,0.34415 c -0.715,0.18928 -1.47827,0.3939 -1.69616,0.45471 -0.44465,0.12411 -0.45681,0.11513 -0.55529,-0.4098 l -0.0708,-0.37749 0.617,-0.13712 c 0.6866,-0.15258 2.68522,-0.71576 2.74216,-0.7727 0.02,-0.02 -0.0359,-0.31347 -0.1243,-0.65204 -0.0884,-0.33858 -0.14566,-0.63069 -0.12722,-0.64913 0.0185,-0.0184 0.17429,-0.0491 0.34635,-0.068 0.34806,-0.0384 0.27715,-0.21069 0.96226,2.3383 0.28451,1.05858 0.26322,1.16848 -0.22712,1.17207 -0.17963,10e-4 -0.25313,-0.11451 -0.39385,-0.62065 z m -4.80825,-3.87663 c -0.65059,-0.55688 -0.97943,-1.77541 -0.65194,-2.41578 0.11981,-0.23427 0.50776,-0.5951 0.64447,-0.59942 0.041,-0.001 0.10495,0.1594 0.14204,0.3571 0.0473,0.25237 0.0134,0.44195 -0.11406,0.63643 -0.34928,0.53307 0.10999,1.54489 0.70124,1.54489 0.44009,0 0.51961,-0.2857 0.38405,-1.37988 -0.1355,-1.09368 -0.0189,-1.43022 0.60033,-1.73254 0.36114,-0.17633 0.45842,-0.18432 0.7888,-0.0649 1.1689,0.42268 1.61448,2.45039 0.6517,2.96566 -0.17506,0.0937 -0.21516,0.0566 -0.31006,-0.28713 -0.0712,-0.25781 -0.073,-0.43072 -0.005,-0.49849 0.32651,-0.32651 -0.0802,-1.43767 -0.52616,-1.43767 -0.37509,0 -0.43685,0.23886 -0.37316,1.44321 0.0649,1.22695 0.044,1.29975 -0.47613,1.65822 -0.43709,0.30125 -0.96223,0.23281 -1.45589,-0.18974 z m -89.009253,-1.01386 c -0.524034,-0.231 -1.357726,-0.59314 -1.852647,-0.80477 -0.494922,-0.21162 -0.912393,-0.3939 -0.927714,-0.40506 -0.03749,-0.0273 0.284968,-0.79386 0.333945,-0.79386 0.06155,0 0.811696,0.31765 1.387761,0.58765 0.623503,0.29224 2.037548,0.8868 2.302576,0.96816 0.101896,0.0313 0.185265,0.10132 0.185265,0.15564 0,0.15762 -0.315383,0.72402 -0.399715,0.71785 -0.04217,-0.003 -0.505436,-0.19461 -1.029471,-0.42561 z m 86.658143,-3.89518 c -0.2883,-0.57451 -0.61942,-1.21412 -0.73582,-1.42137 -0.24592,-0.43784 -0.2728,-0.40535 0.78168,-0.94461 0.40759,-0.20843 1.20696,-0.61788 1.77639,-0.90989 l 1.03532,-0.53092 0.33392,0.65243 c 0.54875,1.07219 1.04389,2.11027 1.01252,2.1228 -0.0162,0.006 -0.13593,0.0713 -0.26615,0.14408 -0.13022,0.0728 -0.25798,0.13233 -0.2839,0.13233 -0.0259,0 -0.24583,-0.39303 -0.48866,-0.87339 -0.24284,-0.48037 -0.48271,-0.91707 -0.53305,-0.97045 -0.10107,-0.10719 -0.94547,0.22937 -0.94547,0.37685 0,0.0489 0.19056,0.45276 0.42346,0.89756 0.23291,0.4448 0.42346,0.82512 0.42346,0.84516 0,0.02 -0.13812,0.10786 -0.30694,0.19516 -0.3622,0.1873 -0.35172,0.19724 -0.85982,-0.81495 -0.19728,-0.39303 -0.39895,-0.7146 -0.44815,-0.7146 -0.0785,0 -0.70953,0.29473 -0.80159,0.37442 -0.019,0.0164 0.21246,0.51337 0.51434,1.10429 0.30188,0.59092 0.5318,1.08899 0.51093,1.10682 -0.0762,0.0651 -0.50207,0.27284 -0.55935,0.27284 -0.0324,0 -0.29482,-0.47005 -0.58312,-1.04456 z m -86.446411,0.65011 c -1.106296,-0.14602 -2.025398,-0.27785 -2.04245,-0.29294 -0.0703,-0.0622 0.343783,-0.79447 0.447607,-0.79153 0.062,0.002 0.755858,0.0903 1.54191,0.19681 0.786052,0.10648 1.450662,0.17487 1.476913,0.15198 0.02625,-0.0229 -0.466061,-0.5283 -1.094024,-1.12313 l -1.141751,-1.0815 0.172327,-0.40467 0.172328,-0.40467 1.345159,1.268 c 0.739837,0.6974 1.473803,1.40367 1.631034,1.5695 l 0.285876,0.3015 -0.201301,0.44962 c -0.134354,0.30009 -0.264636,0.44578 -0.391742,0.43808 -0.104742,-0.006 -1.095591,-0.13102 -2.201886,-0.27705 z m 2.27611,-4.10793 c -0.96073,-0.60544 -1.740524,-1.13826 -1.732874,-1.18404 0.02411,-0.14431 1.570773,-2.56257 1.641747,-2.56693 0.03722,-0.002 0.178349,0.0855 0.313624,0.195 l 0.245955,0.19916 -0.557101,0.87526 c -0.306405,0.48139 -0.532374,0.93969 -0.502152,1.01845 0.05572,0.14521 0.773652,0.53647 0.831189,0.45298 0.01722,-0.025 0.257257,-0.39212 0.533408,-0.81583 l 0.502092,-0.77039 0.258587,0.18813 c 0.142222,0.10347 0.260083,0.23628 0.261914,0.29513 0.0018,0.0588 -0.214214,0.43127 -0.480097,0.82761 -0.520035,0.77519 -0.518031,0.82766 0.04423,1.15773 l 0.318142,0.18677 0.657723,-1.05673 0.657725,-1.05673 0.301727,0.21485 0.301726,0.21485 -0.386463,0.60218 c -0.212555,0.3312 -0.600163,0.94757 -0.861351,1.36971 -0.261189,0.42214 -0.503707,0.7644 -0.538928,0.76059 -0.03522,-0.004 -0.850091,-0.50231 -1.810821,-1.10775 z m 80.102861,-3.1464 -0.92323,-1.19099 0.2468,-0.21173 c 0.64242,-0.55115 3.05483,-2.38198 3.13862,-2.38198 0.067,0 0.43366,0.5611 0.43366,0.66354 0,0.0267 -0.58358,0.49145 -1.29685,1.03271 -0.71327,0.54126 -1.32957,1.01225 -1.36955,1.04665 -0.04,0.0344 0.23372,0.4608 0.60822,0.94756 l 0.68091,0.88503 -0.25439,0.2001 c -0.13991,0.11005 -0.27387,0.20009 -0.29768,0.20009 -0.0238,0 -0.45874,-0.53594 -0.96651,-1.19098 z m -77.191558,-1.0915 c -0.873391,-0.66658 -1.60197,-1.25372 -1.619066,-1.30476 -0.05896,-0.17606 1.305542,-1.84189 1.673587,-2.04317 0.434738,-0.23775 0.836908,-0.19168 1.342219,0.15376 0.420002,0.28712 0.591062,0.66574 0.544917,1.20611 l -0.03471,0.40645 h 0.925802 c 0.509191,0 0.92573,0.0383 0.925641,0.0851 -8.9e-5,0.0468 -0.127723,0.24492 -0.283635,0.44032 l -0.283473,0.35526 -0.960447,-0.0546 c -0.887699,-0.0505 -0.970293,-0.0381 -1.090444,0.16323 -0.117051,0.19612 -0.08015,0.25734 0.370529,0.61469 0.27529,0.21828 0.541489,0.43069 0.591552,0.47202 0.109637,0.0905 -0.249404,0.73194 -0.404981,0.7235 -0.06023,-0.003 -0.824099,-0.55132 -1.69749,-1.21789 z m 1.112654,-1.68947 c 0.284014,-0.53068 -0.353944,-1.19334 -0.87536,-0.90925 -0.266723,0.14532 -0.766622,0.77117 -0.766622,0.95978 0,0.0678 0.214378,0.28361 0.476395,0.47962 l 0.476396,0.35637 0.274791,-0.31283 c 0.151135,-0.17205 0.337615,-0.43021 0.4144,-0.57369 z m 73.091944,-0.76553 c -0.51326,-0.56771 -1.00743,-1.09421 -1.09816,-1.17001 -0.14484,-0.12101 -0.10009,-0.19847 0.36696,-0.63519 1.34111,-1.25403 2.52649,-2.29973 2.63806,-2.32723 0.10802,-0.0266 1.96614,1.96828 2.05048,2.20142 0.0182,0.0502 -0.0948,0.17509 -0.25104,0.27746 -0.26917,0.17637 -0.2911,0.17652 -0.41808,0.003 -0.0737,-0.1008 -0.40645,-0.47344 -0.73942,-0.82809 l -0.60539,-0.64481 -0.37254,0.37253 -0.37253,0.37254 0.66127,0.71081 0.66126,0.71081 -0.28288,0.27996 -0.28289,0.27995 -0.67566,-0.74106 -0.67567,-0.74106 -0.33977,0.33469 -0.33978,0.33469 0.23543,0.3005 c 0.12948,0.16528 0.43665,0.51489 0.68259,0.7769 0.6151,0.6553 0.64473,0.72151 0.42938,0.95946 -0.10207,0.11279 -0.21997,0.20506 -0.262,0.20506 -0.042,0 -0.49636,-0.46448 -1.00962,-1.03218 z m -69.890575,-0.92536 c -0.408229,-0.17743 -0.418167,-0.2228 -0.105866,-0.48334 0.155858,-0.13002 0.408236,-0.19992 0.730093,-0.20223 0.428449,-0.003 0.534273,-0.0518 0.820458,-0.37774 0.342117,-0.38964 0.41892,-0.76347 0.201525,-0.98086 -0.211997,-0.212 -0.499803,-0.14648 -1.302147,0.29642 -0.995323,0.54943 -1.520571,0.57469 -1.968972,0.0947 -0.549158,-0.58787 -0.299424,-1.59189 0.548793,-2.20633 0.568399,-0.41175 0.934472,-0.4804 1.435679,-0.26924 l 0.407963,0.17187 -0.297034,0.25759 c -0.193575,0.16787 -0.426872,0.25759 -0.669804,0.25759 -0.726475,0 -1.319869,0.98143 -0.770999,1.27518 0.185972,0.0995 0.339973,0.0479 0.979257,-0.32835 0.534685,-0.31468 0.916438,-0.46115 1.293422,-0.49628 0.508539,-0.0474 0.551493,-0.0309 0.873391,0.33576 0.24309,0.27686 0.338549,0.49021 0.338549,0.75665 0,0.7214 -0.627278,1.56956 -1.399319,1.89206 -0.4778,0.19959 -0.668343,0.20071 -1.114989,0.007 z m 66.616015,-2.45534 c -0.17468,-0.0934 -0.60344,-0.41304 -0.95279,-0.71035 -0.98909,-0.84174 -0.94724,-0.78765 -0.76995,-0.99514 1.2456,-1.45781 2.55716,-2.93996 2.62387,-2.96512 0.15548,-0.0587 1.77012,1.45233 1.94437,1.81954 0.22474,0.47362 0.21388,0.97142 -0.0326,1.49428 -0.57588,1.22154 -1.88485,1.85292 -2.81288,1.35679 z m 1.38189,-0.93045 c 0.45041,-0.34355 0.82761,-1.11818 0.7396,-1.51888 -0.0364,-0.16582 -0.26866,-0.50018 -0.5161,-0.74302 l -0.44988,-0.44152 -0.37281,0.39748 c -0.20506,0.21862 -0.63042,0.70197 -0.94527,1.07412 l -0.57246,0.67664 0.47338,0.4082 c 0.58656,0.5058 1.11155,0.55275 1.64354,0.14698 z m -64.345235,-0.14082 c -0.323666,-0.38994 -0.724117,-0.87352 -0.889889,-1.07463 -0.165773,-0.20111 -0.445577,-0.53458 -0.621785,-0.74106 -0.649139,-0.76064 -0.636243,-0.7248 -0.364832,-1.0137 0.135148,-0.14386 0.296969,-0.25907 0.359601,-0.25601 0.06263,0.003 0.334392,0.27698 0.603909,0.60872 0.269516,0.33175 0.8531,1.03932 1.296854,1.57239 0.443752,0.53306 0.804187,1.00945 0.800965,1.05865 -0.0032,0.0492 -0.138716,0.19412 -0.301098,0.32204 l -0.295241,0.23258 z m 2.34091,-1.4801 c -0.153426,-0.21637 -0.717064,-0.96507 -1.25253,-1.66379 l -0.973574,-1.27038 0.352672,-0.30022 c 0.19397,-0.16511 0.637026,-0.49554 0.984568,-0.73427 1.288777,-0.88528 2.328644,-0.60794 3.198392,0.85303 0.355037,0.59638 0.37566,1.32218 0.05243,1.84518 -0.206892,0.33476 -1.613967,1.50105 -1.952847,1.61867 -0.07158,0.0248 -0.255683,-0.13186 -0.409109,-0.34822 z m 1.311146,-1.21982 c 0.338879,-0.31298 0.396996,-0.43248 0.396996,-0.81628 0,-0.83383 -0.688307,-1.5862 -1.451139,-1.5862 -0.294613,0 -0.539887,0.0935 -0.857049,0.32675 -0.244375,0.17972 -0.444317,0.35157 -0.444317,0.38188 0,0.0303 0.366532,0.54697 0.814516,1.14811 0.897528,1.20437 0.847187,1.18654 1.540993,0.54574 z m 52.588819,-1.18692 c -0.6696,-0.42849 -1.20585,-0.81774 -1.19168,-0.86499 0.0201,-0.0671 1.87798,-3.03857 2.15377,-3.44475 0.0684,-0.1007 0.73002,0.23726 0.73109,0.37345 3.2e-4,0.0466 -0.40988,0.72778 -0.91166,1.51375 -0.50178,0.78598 -0.89427,1.44711 -0.8722,1.46918 0.0221,0.0221 0.4207,0.28739 0.88586,0.5896 0.46515,0.30221 0.85943,0.56151 0.87617,0.57621 0.0719,0.0632 -0.2339,0.58266 -0.33856,0.57504 -0.0634,-0.005 -0.66319,-0.35899 -1.33279,-0.78749 z m -49.526559,-0.56741 c -0.0088,-0.22577 -0.08812,-1.1624 -0.176154,-2.08138 -0.213366,-2.22724 -0.224307,-2.10738 0.216059,-2.36721 l 0.376127,-0.22192 1.895996,1.39147 1.895996,1.39147 -0.376059,0.20155 -0.376059,0.20156 -0.353949,-0.26997 c -0.194672,-0.14849 -0.410273,-0.26997 -0.479115,-0.26997 -0.06884,0 -0.52428,0.22628 -1.012087,0.50286 l -0.886923,0.50286 -7.6e-4,0.54362 c -6.4e-4,0.46056 -0.04057,0.56974 -0.261638,0.71459 -0.380475,0.2493 -0.443625,0.21652 -0.461495,-0.23953 z m 1.884319,-2.65757 c -0.0036,-0.0751 -1.318431,-1.06068 -1.415002,-1.06068 -0.07411,0 0.01025,1.38578 0.101961,1.67481 0.03244,0.10223 0.215023,0.0459 0.680011,-0.2097 0.349617,-0.19221 0.63448,-0.3742 0.63303,-0.40443 z m 44.81034,1.51765 c -0.32341,-0.13539 -0.34406,-0.17596 -0.34406,-0.67596 v -0.53194 l -0.90613,-0.42055 c -0.49837,-0.2313 -0.98407,-0.42055 -1.07933,-0.42055 -0.0953,0 -0.30247,0.12384 -0.46045,0.2752 -0.23286,0.22309 -0.34899,0.26164 -0.61331,0.20358 -0.17933,-0.0394 -0.35066,-0.11142 -0.38073,-0.16008 -0.0592,-0.0959 3.27094,-3.07121 3.43748,-3.07121 0.0556,0 0.27464,0.0827 0.4867,0.18386 l 0.38555,0.18386 -0.0617,2.26597 c -0.0339,1.24629 -0.0748,2.2763 -0.0908,2.28892 -0.016,0.0126 -0.18401,-0.0419 -0.37324,-0.1211 z m -0.2382,-3.06355 c 0,-0.50004 -0.0433,-0.89281 -0.0962,-0.87339 -0.14315,0.0525 -1.28009,1.14709 -1.27998,1.23227 1.1e-4,0.0819 1.03672,0.53549 1.24382,0.54422 0.096,0.004 0.13233,-0.24376 0.13233,-0.9031 z m -41.090772,1.25274 c -0.501775,-1.15195 -1.359193,-3.198 -1.385749,-3.30679 -0.01573,-0.0645 0.422749,-0.31121 0.974403,-0.54834 1.161631,-0.49932 1.779996,-0.56161 2.340746,-0.23579 0.447208,0.25985 1.017831,1.18615 1.110218,1.80223 0.169468,1.13009 -0.275323,1.71755 -1.802192,2.38025 -0.521208,0.22622 -0.963566,0.4113 -0.983019,0.4113 -0.01945,0 -0.133935,-0.22628 -0.254407,-0.50286 z m 1.479433,-0.81158 c 0.716806,-0.36323 0.875502,-0.75857 0.631462,-1.5731 -0.185859,-0.62035 -0.70962,-1.13535 -1.15466,-1.13535 -0.444225,0 -1.258068,0.32507 -1.258602,0.50272 -2.11e-4,0.0727 0.185157,0.5491 0.411946,1.05865 0.226789,0.50956 0.444377,1.03366 0.483529,1.16467 0.09059,0.30313 0.260055,0.29977 0.886325,-0.0176 z m 34.194739,0.0805 c -0.0969,-0.0267 -0.20794,-0.12919 -0.24667,-0.22777 -0.0387,-0.0986 -0.30929,-0.84619 -0.60123,-1.66136 -0.29196,-0.81517 -0.56664,-1.52003 -0.61041,-1.56637 -0.0438,-0.0463 -0.23748,0.4777 -0.43048,1.16452 -0.46377,1.6504 -0.45456,1.63412 -0.84691,1.49735 -0.17433,-0.0608 -0.31512,-0.14156 -0.31288,-0.17953 0.008,-0.13523 1.13033,-3.93831 1.17566,-3.98363 0.0254,-0.0254 0.25221,0.0147 0.50403,0.089 0.51556,0.15222 0.48854,0.10578 1.11681,1.91998 0.2218,0.64049 0.43711,1.20225 0.47847,1.24836 0.0688,0.0767 0.3267,-0.69358 0.65606,-1.95967 0.11969,-0.46013 0.15129,-0.49459 0.40001,-0.43627 0.14853,0.0348 0.30613,0.0957 0.35023,0.13514 0.0441,0.0395 -0.0146,0.40255 -0.13047,0.80679 -0.89949,3.1382 -0.91052,3.16957 -1.1203,3.18594 -0.11312,0.009 -0.28498,-0.006 -0.38192,-0.0325 z m -28.12885,-2.80969 c -0.54989,-2.36249 -0.62443,-2.73462 -0.55614,-2.77661 0.0362,-0.0222 0.28011,-0.0703 0.54213,-0.10681 l 0.4764,-0.0664 1.16453,1.05159 c 0.64049,0.57838 1.19398,1.03342 1.22999,1.01122 0.036,-0.0222 -0.065,-0.5909 -0.22455,-1.26377 -0.27603,-1.16437 -0.2808,-1.22833 -0.0989,-1.32568 0.289,-0.15467 0.50216,-0.12326 0.56321,0.083 0.0302,0.10189 0.18068,0.75694 0.33449,1.45565 0.15381,0.69871 0.34672,1.5305 0.42869,1.84842 0.19385,0.75181 0.20678,0.70821 -0.2311,0.77927 -0.36417,0.0591 -0.43806,0.0105 -1.75858,-1.15652 -0.75815,-0.67001 -1.39749,-1.19917 -1.42075,-1.1759 -0.0233,0.0233 0.10167,0.67644 0.27763,1.45151 0.17596,0.77507 0.30749,1.42005 0.29229,1.4333 -0.0152,0.0132 -0.177,0.0561 -0.35957,0.0951 l -0.33195,0.071 z m 21.17965,0.94566 c -0.48723,-0.15601 -1.13272,-0.92304 -1.2847,-1.52658 -0.4627,-1.83757 1.5157,-3.37625 3.16729,-2.46333 0.68319,0.37764 1.08974,1.00934 1.14547,1.77984 0.11732,1.62187 -1.402,2.73075 -3.02806,2.21007 z m 1.71934,-1.0389 c 1.15216,-1.01161 -0.0348,-2.92407 -1.39481,-2.24746 -0.5577,0.27745 -0.82464,0.69242 -0.80312,1.24849 0.0225,0.58035 0.17087,0.85824 0.5972,1.11819 0.52652,0.32104 1.1524,0.27442 1.60073,-0.11922 z m -17.51382,0.40016 c 0,-0.29315 1.32542,-4.17205 1.46337,-4.28263 0.0908,-0.0728 0.31886,-0.13234 0.50681,-0.13234 0.32805,0 0.37858,0.0625 1.26158,1.56152 0.50591,0.85884 1.0338,1.73915 1.17309,1.95625 0.13929,0.21709 0.25326,0.41956 0.25326,0.44992 0,0.0304 -0.18997,0.0552 -0.42214,0.0552 -0.37903,0 -0.45009,-0.0443 -0.69597,-0.43378 -0.24749,-0.39205 -0.30617,-0.42814 -0.61006,-0.37517 -0.18492,0.0322 -0.67977,0.0905 -1.09965,0.12945 l -0.76344,0.0709 -0.16774,0.50504 c -0.15156,0.4563 -0.20304,0.50916 -0.53343,0.54773 -0.20113,0.0235 -0.36568,6e-5 -0.36568,-0.0521 z m 2.8359,-2.02815 c 0.0726,-0.0726 -0.77274,-1.53559 -0.86968,-1.50521 -0.0919,0.0288 -0.58996,1.3699 -0.58996,1.58854 0,0.0904 1.36376,0.0126 1.45964,-0.0833 z m 8.76343,1.96502 c -0.0484,-0.0783 0.43924,-4.15847 0.5022,-4.20201 0.011,-0.008 0.19876,0.008 0.41711,0.0356 0.47824,0.0596 0.47041,-0.0261 0.1866,2.04067 -0.33026,2.40498 -0.27302,2.22028 -0.68801,2.22028 -0.19772,0 -0.38577,-0.0425 -0.4179,-0.0945 z m -4.41025,-0.46934 c -0.25662,-0.13544 -0.61847,-0.44495 -0.80411,-0.68778 -1.35381,-1.77094 0.74884,-4.20701 2.72114,-3.15265 0.26112,0.13959 0.56914,0.38008 0.6845,0.53442 0.18103,0.24222 0.18827,0.29454 0.0529,0.38233 -0.25919,0.16812 -0.65142,0.24098 -0.72396,0.1345 -0.17434,-0.2559 -0.63177,-0.45812 -1.03626,-0.45812 -0.77924,0 -1.40789,0.75707 -1.26429,1.52254 0.19509,1.03989 1.48526,1.47195 2.21533,0.74187 0.26893,-0.26893 0.27394,-0.26961 0.59413,-0.0805 0.1776,0.10492 0.32285,0.21621 0.32278,0.24733 -4e-4,0.17159 -0.56027,0.66347 -0.96336,0.84635 -0.62299,0.28266 -1.22509,0.27251 -1.79883,-0.0303 z"
         id="path39" />
    </g>
  </g>
</svg>
