<?xml version="1.0" encoding="UTF-8" standalone="no"?>
<svg
   viewBox="0 0 197.01085 103.45087"
   version="1.1"
   id="svg14"
   sodipodi:docname="25.html"
   width="197.01085"
   height="103.45087"
   inkscape:version="1.1.2 (0a00cf5339, 2022-02-04)"
   xmlns:inkscape="http://www.inkscape.org/namespaces/inkscape"
   xmlns:sodipodi="http://sodipodi.sourceforge.net/DTD/sodipodi-0.dtd"
   xmlns="http://www.w3.org/2000/svg"
   xmlns:svg="http://www.w3.org/2000/svg"
   xmlns:rdf="http://www.w3.org/1999/02/22-rdf-syntax-ns#"
   xmlns:cc="http://creativecommons.org/ns#"
   xmlns:dc="http://purl.org/dc/elements/1.1/">
  <defs
     id="defs18" />
  <sodipodi:namedview
     id="namedview16"
     pagecolor="#ffffff"
     bordercolor="#666666"
     borderopacity="1.0"
     inkscape:pageshadow="2"
     inkscape:pageopacity="0.0"
     inkscape:pagecheckerboard="0"
     showgrid="false"
     inkscape:zoom="3.2583333"
     inkscape:cx="48.951408"
     inkscape:cy="65.831204"
     inkscape:window-width="1920"
     inkscape:window-height="1016"
     inkscape:window-x="0"
     inkscape:window-y="0"
     inkscape:window-maximized="1"
     inkscape:current-layer="svg14" />
  <title
     id="title2">Euro Student Agency</title>
  <path
     id="path12"
     d="m 78.097466,79.090674 c 0,0 4.335865,15.46698 24.286434,22.553686 19.95057,7.0867 36.57537,-8.963186 36.57537,-8.963186 0,0 5.92888,-5.781153 8.96318,-16.045893 0.0639,-0.219588 0.34336,-0.834435 0.13176,-0.838427 l -1.14186,-0.02795 h -11.13111 c 0,0 -2.60313,10.26474 -12.43268,16.045893 -9.82956,5.781154 -15.6147,4.914779 -15.6147,4.914779 0,0 -10.26474,0.14373 -17.203721,-5.206232 C 83.591159,86.173385 78.097466,79.090674 78.097466,79.090674 Z M 175.25516,17.230743 V 4.6463539 h -2.35557 -2.35558 V 2.5662569 0.48216695 h 7.15857 7.15856 l -0.0519,2.03618095 -0.0519,2.036179 -2.3995,0.0519 -2.3995,0.0519 V 17.23473 29.811133 h -2.35558 -2.35557 z M 153.16861,15.150645 V 0.48216695 h 2.9864 l 2.98639,0.115784 c 0,0.06388 0.9063,3.66911495 2.01622,8.01296395 l 2.10405,8.3962481 c 0.048,0.275482 0.1597,0.542981 0.24754,0.598875 0.0879,0.05589 0.1597,-3.56531 0.1597,-8.5120291 V 0.48216695 h 2.08409 2.08409 l -0.048,14.62056805 -0.0479,14.620568 -2.37155,0.0519 -2.37154,0.0519 -0.39526,-1.497191 -4.19214,-16.253504 -0.91428,-3.2578861 c -0.0838,-0.151716 -0.15571,4.4516471 -0.1597,10.3645521 l -0.005,10.636044 h -2.08009 -2.0801 z m -15.20746,0 V 0.48216695 h 6.34409 6.34409 l -0.0519,2.03618095 -0.0519,2.036179 -3.93661,0.04791 -3.93662,0.04791 v 3.888704 3.8887031 h 3.17006 3.17004 v 2.080097 2.080097 h -3.17004 -3.17006 v 4.527506 4.527505 h 3.98452 3.98453 v 2.080097 2.080097 h -6.33611 -6.33612 z m -9.08297,10.304666 c 0.31142,-0.107803 0.73064,-0.463131 0.93425,-0.790517 0.35533,-0.574921 0.36731,-0.870367 0.36731,-9.498179 0,-9.7696691 0.008,-9.6778411 -1.08197,-10.2407851 -0.35134,-0.183655 -1.05002,-0.275483 -2.0801,-0.275483 h -1.54908 V 15.03087 l 0.11977,10.500298 c 0.19563,0.195633 2.67099,0.139738 3.28584,-0.07585 z M 120.94507,15.162623 V 0.48216695 h 4.32788 c 3.79687,0 4.46761,0.04392 5.4857,0.359326 1.83656,0.56693595 3.0383,1.77666695 3.71703,3.74098095 0.44317,1.281595 0.57891,18.1379681 0.1597,20.1382151 -0.50705,2.431438 -1.37342,3.601244 -3.3577,4.531497 -0.98615,0.463132 -1.07798,0.471117 -5.66537,0.527012 l -4.66324,0.05589 z M 92.338745,17.234735 V 4.6463539 H 89.89533 87.451915 V 2.5662569 0.48216695 h 7.150583 7.150582 v 2.07610595 2.076104 l -2.359571,0.0519 -2.359574,0.0519 0.008,12.5364781 0.008,12.536478 h -2.355579 -2.355581 z m 15.922125,12.528493 c -2.40748,-0.678727 -3.90467,-2.627071 -4.32389,-5.637423 -0.11977,-0.870366 -0.19563,-5.61746 -0.19563,-12.596366 V 0.32645995 l 2.03618,-0.05589 2.35558,0.008 c 0.29944,0.06388 0.31541,0.77055495 0.31541,11.80984105 l 0.28746,12.456627 c 0.46712,1.169806 1.93237,1.624952 3.23792,1.006113 1.1219,-0.531004 1.08597,-0.111787 1.18578,-13.299047 l 0.0918,-12.04140605 0.63481,0.02795 2.21584,0.04391 1.58503,0.01598 -0.005,11.63417105 -0.26351,12.863863 c -0.49107,2.319648 -1.48921,3.697064 -3.32177,4.599371 -0.90629,0.443168 -1.25764,0.507048 -3.01833,0.546973 -1.20175,0.02795 -2.31965,-0.04791 -2.81472,-0.187647 z M 40.472062,12.715215 c 0.902307,-0.590891 1.073985,-1.105926 1.137865,-3.4495281 0.07187,-2.475355 -0.119775,-3.449528 -0.798501,-4.088329 -0.411228,-0.387274 -0.670742,-0.447161 -2.084089,-0.503056 l -1.616966,-0.06388 v 4.152209 l 0.139737,4.2919471 c 0.227573,0.235558 2.750839,-0.03194 3.221954,-0.343356 z m -7.885204,2.523266 V 0.48216695 h 3.948591 l 5.022576,0.195634 c 2.227819,0.40723595 3.633183,1.60898095 4.275977,3.65713795 0.28746,0.914284 0.35134,1.632936 0.343356,3.844786 -0.01598,3.8128461 -0.463131,5.1024261 -2.187895,6.2602541 l -0.714659,0.479101 0.515033,0.215596 c 0.662757,0.275483 1.569057,1.213722 1.840547,1.908419 0.491078,1.249655 0.570928,2.052149 0.706674,6.97092 l 0.279476,5.573542 0.135745,0.411229 -2.331626,-0.0519 -2.331625,-0.0519 -0.211603,-0.814472 c -0.131752,-0.503056 -0.219587,-2.511287 -0.231564,-5.250149 -0.01598,-3.984523 -0.05589,-4.515527 -0.371304,-5.210224 -0.447162,-0.982157 -1.165812,-1.30555 -2.894569,-1.30555 h -1.27361 v 6.336112 6.336111 H 34.842626 32.578872 Z M 0.487086,29.875019 C 0.419216,29.807149 0.363318,23.167603 0.363318,15.118705 V 0.48216695 H 6.69943 13.035541 V 2.5622639 4.6423619 H 9.051018 5.066494 v 3.888703 3.8887041 l 3.122142,0.04791 3.122141,0.04791 0.05589,2.03618 0.05589,2.036179 H 8.244525 5.066488 v 4.531498 4.523513 l 3.936614,0.04791 3.936614,0.04791 v 2.080098 2.080097 l -6.168427,0.04791 c -3.385647,0.03194 -6.220329,-0.0039 -6.284209,-0.07187 z m 77.203145,0.279474 c -3.565312,-0.44716 -5.58552,-3.293819 -5.413842,-7.621699 l 0.0519,-1.317528 2.128006,-0.0519 2.128008,-0.0519 0.0039,1.229692 c 0.008,1.744727 0.243542,2.591139 0.894321,3.174045 0.467124,0.419214 0.718652,0.499064 1.565064,0.499064 0.898315,0 1.073984,-0.06388 1.597004,-0.586899 0.714659,-0.714659 0.926261,-1.880471 0.630816,-3.489453 -0.359326,-1.964314 -0.746599,-2.487333 -4.767055,-6.415962 -3.405611,-3.329753 -4.176166,-4.96668 -4.060382,-8.6557591 0.05989,-1.936367 0.115782,-2.231813 0.642793,-3.349714 a 5.3100368,5.3100368 0 0 1 2.599124,-2.75882395 c 2.455393,-1.265626 6.312157,-0.902307 8.156695,0.76656195 1.321521,1.19376 2.147971,3.521392 2.147971,6.068613 v 1.042045 h -2.171926 -2.171924 v -0.962195 c 0,-1.489206 -0.451154,-2.782779 -1.08197,-3.110164 -0.766562,-0.395259 -2.203865,-0.355334 -2.758823,0.08384 -0.590892,0.463131 -0.946225,1.748718 -0.806488,2.922516 0.219589,1.864502 0.782532,2.6749811 4.160195,6.0207041 2.782778,2.75483 3.209977,3.257888 3.78889,4.463625 0.898315,1.868494 1.109917,3.006359 1.010105,5.413842 -0.07984,1.912411 -0.119775,2.088082 -0.794509,3.409603 -0.534996,1.054022 -0.930255,1.557078 -1.604988,2.068119 -1.373424,1.03406 -3.625199,1.501183 -5.876973,1.217715 z M 57.571978,25.682884 c 1.014098,-0.750592 0.998127,-0.618839 0.998127,-10.536231 l -0.3194,-9.7297451 c -0.447161,-0.818464 -1.253649,-1.19376 -2.339611,-1.089955 -1.046037,0.09982 -1.68883,0.61884 -1.956329,1.573049 -0.107803,0.387274 -0.179663,4.1562011 -0.179663,9.3784041 0,9.430306 0.03593,9.813586 0.974172,10.428433 a 2.5552057,2.5552057 0 0 0 2.822704,-0.02395 z m -3.205984,4.495565 C 52.545409,29.791176 51.056203,28.773086 50.221769,27.34776 49.279537,25.742771 49.251589,25.399416 49.251589,15.122698 L 49.606923,4.4427369 A 5.6693626,5.6693626 0 0 1 52.57735,0.85347095 c 1.125887,-0.574921 1.397377,-0.634809 3.106171,-0.698689 2.706921,-0.09981 4.100307,0.343356 5.509662,1.75271195 0.706675,0.706674 1.165813,1.36943 1.465252,2.112037 l 0.435183,1.085962 V 15.06281 c 0,10.80373 0.01198,10.648021 -1.03406,12.392748 -0.718652,1.19376 -1.820584,2.072112 -3.090202,2.455393 -1.157828,0.347348 -3.573295,0.491078 -4.603362,0.27149 z M 20.48157,30.174549 C 18.253751,29.703433 16.636785,28.226205 15.874215,25.97443 15.49892,24.868505 15.486942,24.509179 15.427054,12.663405 L 15.367167,0.48225995 h 2.359573 2.359572 l 0.0519,12.11726505 0.427199,12.628306 a 2.4354304,2.4354304 0 0 0 2.639048,0.754584 2.5951308,2.5951308 0 0 0 1.129881,-0.754584 c 0.375295,-0.503056 0.379287,-0.662757 0.427197,-12.632298 l 0.0519,-12.12125705 2.21185,0.0519 2.211849,0.0519 0.04791,11.40659805 -0.139737,12.672223 c -0.383281,2.571176 -1.724764,4.387767 -3.832808,5.186269 -1.09794,0.415222 -3.617213,0.590891 -4.834929,0.331379 z m 79.414995,32.818422 -0.0519,-7.198493 -3.122142,-9.414337 -3.122143,-9.55008 c 0,-0.07586 1.241671,-0.135745 2.762817,-0.135745 h 2.762816 l 1.161817,4.028441 1.3894,4.751086 0.61484,2.060133 c 0.2156,0.734622 0.45914,1.261633 0.53899,1.177791 0.0799,-0.08384 0.35134,-0.890329 0.59888,-1.788645 l 2.95845,-10.085075 c 0.0479,-0.07985 1.23368,-0.143731 2.63106,-0.143731 1.96032,0 2.52327,0.0519 2.45939,0.227573 l -3.18603,9.58202 -3.10218,9.358441 v 7.162561 7.162561 h -2.61908 -2.619092 z M 56.665678,53.438897 V 36.686331 l 3.305798,0.04791 3.305797,0.04791 2.455393,9.593998 2.567183,9.865489 c 0.05989,0.147723 0.115783,-4.188141 0.123768,-9.641908 l 0.01598,-9.913399 h 2.35558 2.355581 v 16.748573 16.748575 h -2.69495 -2.694943 L 67.39355,68.78205 63.181453,52.536531 61.464675,46.124562 c -0.04392,-0.04392 -0.07985,5.353954 -0.07985,11.989504 v 12.06932 H 59.029243 56.673664 V 53.43082 Z m -17.37939,0.0039 V 36.694223 h 7.150583 7.150583 v 2.351588 2.351587 l -4.479595,0.04791 -4.479595,0.04791 v 4.395751 4.395753 l 3.529378,0.03993 3.529378,0.03993 0.0519,2.399498 0.0519,2.399498 h -3.625199 -3.625198 v 5.158321 5.158322 h 4.527505 4.527506 v 2.35558 2.35558 H 46.44485 39.286282 Z M 11.09119,59.008354 c 0.03993,-0.07585 -0.439176,-3.681093 -1.066,-8.012966 L 8.87934,42.862648 C 8.8474,42.112057 8.651767,43.206005 8.060875,47.466011 l -1.101932,7.89319 -0.447161,3.485461 c 0,0.259512 0.279476,0.299437 2.251775,0.299437 1.237678,0 2.283715,-0.05989 2.32364,-0.135745 z M 0,70.083574 A 1267.5817,1267.5817 0 0 1 1.453273,61.076473 L 4.607355,41.67288 5.353954,37.193287 5.457759,36.694223 h 3.561318 3.561319 l 1.237677,7.649646 3.637176,22.270215 0.590891,3.577287 H 15.399106 12.752074 L 12.336852,67.248892 11.829804,63.991005 C 11.749954,63.707537 11.446523,63.675597 8.76755,63.675597 l -2.97442,0.09183 c 0,0.203618 -0.738614,5.465744 -0.834434,5.928875 l -0.09981,0.499064 H 2.431441 C 1.09395,70.195366 3e-6,70.147456 3e-6,70.091561 Z m 82.409376,0.467123 c -2.946472,-0.626824 -4.950711,-2.818711 -5.453767,-5.972793 -0.111787,-0.710666 -0.187648,-5.158322 -0.187648,-11.222943 0.0039,-10.879586 0.05589,-11.590253 0.994134,-13.510648 1.261633,-2.579161 4.563438,-4.020457 8.116771,-3.545348 3.094194,0.415221 5.114404,2.072112 6.000741,4.926755 0.423206,1.365438 0.622831,6.691444 0.251528,6.711407 l -2.511289,0.02795 -2.263752,0.01596 -0.09183,-2.698936 c -0.05989,-1.740734 -0.175671,-2.846659 -0.327386,-3.114157 -0.882345,-1.545101 -3.709041,-1.473236 -4.499557,0.115783 -0.307424,0.622831 -0.331379,1.361445 -0.331379,11.254883 l 0.371304,11.222942 c 0.463131,0.790516 1.141857,1.12988 2.275729,1.12988 0.974173,0 1.608982,-0.323394 2.10006,-1.077978 0.263506,-0.403243 0.335371,-1.042045 0.411229,-3.752958 l 0.09183,-3.265872 h 2.443416 2.443416 l 0.05589,2.535243 c 0.09981,4.643288 -0.463131,6.723385 -2.295693,8.472104 -1.381407,1.317527 -2.607108,1.772674 -5.002613,1.856516 a 14.732357,14.732357 0 0 1 -2.595128,-0.09981 z m -56.849334,-0.09582 c -2.874606,-0.622832 -4.699184,-2.730876 -5.28209,-6.088576 -0.135744,-0.774547 -0.179662,-4.559445 -0.135744,-11.646149 0.06788,-11.590253 0.05589,-11.454507 1.25764,-13.346955 1.517152,-2.391513 4.539483,-3.549341 7.985017,-3.062255 4.479595,0.63481 6.467864,3.485461 6.467864,9.27859 v 1.980285 l -2.459384,-0.0519 -2.459386,-0.0519 -0.07586,-2.147969 c -0.09183,-2.599123 -0.407236,-3.509415 -1.389393,-3.972546 -1.389394,-0.658765 -3.034308,-0.215596 -3.701056,1.002119 -0.303432,0.554959 -0.327386,1.329506 -0.327386,11.095183 l 0.3194,11.143092 c 0.423206,0.846412 1.189769,1.277602 2.2917,1.285588 1.046038,0.008 1.744727,-0.291454 2.24379,-0.97018 0.439176,-0.594884 0.710668,-3.465498 0.630817,-6.663498 l -0.0519,-2.080097 -1.313535,-0.0519 -1.313536,-0.0519 v -2.347595 -2.347595 h 3.800868 3.800869 v 5.928875 c 0,6.128501 -0.111786,7.517894 -0.738615,9.186763 a 7.5458418,7.5458418 0 0 1 -2.790763,3.269868 c -1.549094,0.906299 -4.443662,1.20973 -6.759318,0.706674 z m 86.609498,5.238172 c -0.4791,-0.479101 -0.67075,-0.974172 -0.53899,-1.397378 0.1078,-0.339364 1.39738,-1.868495 4.22407,-5.002614 0.30743,-0.343356 0.55896,-0.706674 0.55896,-0.814472 0,-0.107798 -1.08198,-0.758577 -2.3995,-1.449281 l -2.91853,-1.569055 -0.52302,-0.315409 3.42158,-1.704801 3.42158,-1.704801 1.44929,0.239551 3.76093,0.626823 2.31167,0.387274 3.11814,-1.401371 8.82345,-3.972547 2.3995,-1.062007 c 1.29357,-0.538989 2.93449,-0.07985 -15.97802,-4.447654 l -6.33611,-1.469244 -3.96855,-0.918277 -1.70481,-0.387273 1.52514,-0.622832 7.76943,-2.994381 c 1.45326,-0.515034 1.68484,-0.546974 4.12425,-0.531004 l 22.03466,0.834435 10.5003,0.467122 4.70717,0.199626 1.90043,-0.81048 6.97093,-3.022329 10.2288,-4.375788 c 1.48122,-0.542981 3.85277,-1.014097 5.79313,-1.153835 3.12614,-0.22358 8.81147,0.946225 9.72975,2.004239 0.89431,1.030066 0.43119,1.868493 -1.56906,2.830689 l -6.9869,3.313782 -3.3497,1.581033 -2.89857,1.36943 -3.17005,1.497192 -3.80087,1.804614 -3.34972,1.585025 -7.28233,3.457513 -1.73275,0.750592 c -0.20361,0 -1.3894,1.269617 -4.4756,4.787018 l -3.8887,4.419707 -2.05216,2.359573 c -2.46736,2.926509 -3.86075,3.53337 -11.03928,4.814966 l -0.51104,0.09183 0.53101,-0.950217 1.39737,-2.579161 1.65689,-3.058262 c 0.43519,-0.786524 0.7506,-1.469243 0.70667,-1.513161 -0.10786,-0.107798 -4.51153,1.35346 -15.67458,5.218209 l -13.88595,4.495565 c -2.21185,0.455146 -2.65502,0.471116 -3.03031,0.09582 z M 97.485089,94.996829 A 5.7492128,5.7492128 0 0 1 95.856145,94.5856 L 93.33288,93.34393 c -1.984277,-0.950216 -3.385647,-1.760696 -3.501431,-2.016217 -0.03194,-0.07586 -0.14373,-0.135745 -0.247535,-0.135745 -0.151716,0 -1.253647,-0.734621 -2.770801,-1.840546 -2.048157,-1.497191 -6.42794,-6.160442 -6.42794,-6.843161 0,-0.103805 -0.07984,-0.187648 -0.179662,-0.187648 -0.09982,0 -0.179662,-0.123767 -0.179662,-0.27149 0,-0.147723 -0.07187,-0.271491 -0.159701,-0.271491 -0.1597,0 -1.28958,-2.036179 -1.636929,-2.950464 -0.243543,-0.634809 -0.09582,-0.630816 0.235558,0.008 0.574921,1.109918 3.042292,3.936614 4.842913,5.55358 1.688832,1.513161 4.886831,3.445535 7.673603,4.635304 1.237677,0.52701 4.739107,1.3854 6.603609,1.616966 3.209978,0.399251 6.715398,0.119775 10.117018,-0.802495 1.73275,-0.471116 3.92863,-1.273611 4.31989,-1.581034 0.11978,-0.09582 0.31541,-0.111786 0.43519,-0.03993 0.11977,0.07187 0.17168,0.05589 0.1078,-0.04391 -0.0639,-0.09981 0.25952,-0.355333 0.71067,-0.574921 2.92252,-1.421334 7.00287,-5.082464 9.05901,-8.128748 l 1.06999,-1.493199 c 0.15571,0 -1.08597,3.066247 -1.68084,4.148217 -4.08434,7.446027 -11.18303,12.133233 -19.48745,12.867855 -2.21185,0.195632 -3.090202,0.195632 -4.751086,0.008 z"
     style="fill:#ffffff;stroke-width:3.99251" />
  <metadata
     id="metadata20">
    <rdf:RDF>
      <cc:Work
         rdf:about="">
        <dc:title>Euro Student Agency</dc:title>
      </cc:Work>
    </rdf:RDF>
  </metadata>
</svg>
