<?xml version="1.0" encoding="UTF-8" standalone="no"?>
<!-- Created with Inkscape (http://www.inkscape.org/) -->

<svg
   width="86.000168mm"
   height="22.367496mm"
   viewBox="0 0 86.000168 22.367496"
   version="1.1"
   id="svg5"
   inkscape:version="1.1.2 (0a00cf5339, 2022-02-04)"
   sodipodi:docname="26.html"
   xmlns:inkscape="http://www.inkscape.org/namespaces/inkscape"
   xmlns:sodipodi="http://sodipodi.sourceforge.net/DTD/sodipodi-0.dtd"
   xmlns="http://www.w3.org/2000/svg"
   xmlns:svg="http://www.w3.org/2000/svg">
  <sodipodi:namedview
     id="namedview7"
     pagecolor="#ffffff"
     bordercolor="#666666"
     borderopacity="1.0"
     inkscape:pageshadow="2"
     inkscape:pageopacity="0.0"
     inkscape:pagecheckerboard="0"
     inkscape:document-units="mm"
     showgrid="false"
     inkscape:zoom="2.0518905"
     inkscape:cx="212.73065"
     inkscape:cy="95.765345"
     inkscape:window-width="1920"
     inkscape:window-height="1016"
     inkscape:window-x="0"
     inkscape:window-y="0"
     inkscape:window-maximized="1"
     inkscape:current-layer="layer1" />
  <defs
     id="defs2" />
  <g
     inkscape:label="Capa 1"
     inkscape:groupmode="layer"
     id="layer1"
     transform="translate(-19.37346,-39.715765)">
    <path
       style="fill:#ffffff;stroke-width:0.466817"
       d="M 25.47701,61.409256 C 25.084456,61.016703 24.874121,60.40666 25.0096,60.053609 25.297928,59.30224 21.470815,53.277473 20.696114,53.263178 18.954381,53.231031 18.921996,50.45256 20.66335,50.45256 c 1.349132,0 3.593433,-2.269079 3.593433,-3.633108 0,-1.464944 -1.669441,-3.78386 -3.121551,-4.335952 -0.82833,-0.314931 -1.103357,-0.725133 -0.995468,-1.484741 0.145682,-1.025743 0.273954,-1.047748 5.646506,-0.968651 6.356465,0.09358 7.842655,0.666241 9.549482,3.679616 1.91994,3.389619 1.010409,7.766188 -2.036667,9.800239 l -1.461083,0.975335 2.081788,2.768508 c 3.430056,4.561529 3.428627,4.404232 0.03987,4.390338 l -2.934032,-0.012 -2.567494,-3.488125 c -2.156216,-2.92937 -2.781734,-3.488279 -3.904931,-3.489098 -1.27805,-9.33e-4 -1.307128,0.04566 -0.654871,1.049364 0.375409,0.577687 0.966845,1.509503 1.314302,2.070701 0.347457,0.561199 1.008706,1.118943 1.469447,1.239429 1.115574,0.29173 1.552861,1.55235 0.837485,2.414326 -0.728593,0.877901 -1.149216,0.873896 -2.042565,-0.01946 z m 4.755039,-11.983693 c 0.616411,-0.616411 0.744047,-3.09757 0.20292,-3.944628 -0.409116,-0.640413 -1.122902,-0.76968 -3.610687,-0.653896 -1.699456,0.0791 -1.772874,0.132432 -0.81693,0.593463 1.47679,0.712229 1.415119,2.588631 -0.09755,2.968289 -0.631342,0.158456 -1.3923,0.582593 -1.691019,0.942527 -0.456296,0.549803 -0.06382,0.654425 2.454984,0.654425 1.709438,0 3.238888,-0.24078 3.558288,-0.56018 z m 8.962891,1.260406 V 39.715765 h 1.633859 1.633868 V 50.685969 61.656173 H 40.828799 39.19494 Z m 5.752177,10.318054 c 0.195313,-0.509008 4.538257,-6.854627 5.269862,-7.699986 0.202265,-0.233713 2.012663,1.926169 2.033306,2.425831 0.0088,0.206651 -0.832561,1.624608 -1.869133,3.151017 -1.783157,2.625822 -1.986974,2.775288 -3.784475,2.775288 -1.434698,0 -1.838557,-0.159655 -1.64956,-0.65215 z m 7.542272,-9.691075 c -4.021232,-5.688775 -7.419615,-10.625366 -7.551941,-10.970204 -0.176876,-0.46095 0.258424,-0.626979 1.643861,-0.626979 1.83854,0 1.952393,0.09766 4.673495,4.008422 l 2.789029,4.008423 1.818426,-2.491267 c 1.000139,-1.370197 2.294941,-3.173987 2.877318,-4.008423 0.889813,-1.274887 1.352002,-1.517155 2.894378,-1.517155 1.009507,0 1.829753,0.157556 1.822731,0.350112 -0.0071,0.192563 -1.58075,2.555825 -3.497239,5.251695 -1.916471,2.695868 -3.4845,5.111647 -3.4845,5.368397 0,0.25675 1.568029,2.67253 3.4845,5.368398 1.916489,2.69587 3.490235,5.059132 3.497239,5.251694 0.0071,0.192561 -0.812712,0.350112 -1.821602,0.350112 h -1.834358 z m 13.321009,1.590403 c 0.0053,-6.017409 0.187091,-9.103481 0.583523,-9.874865 1.450594,-2.822599 5.394608,-4.016461 8.279142,-2.506117 1.58682,0.830865 1.692345,0.83033 3.66561,-0.01854 2.456009,-1.056536 4.590535,-0.777082 6.530066,0.854921 2.224226,1.871561 2.44297,3.001982 2.303163,11.902435 l -0.128268,8.161583 -1.517146,0.146282 -1.517163,0.146283 v -8.09501 c 0,-9.250141 -0.274444,-10.170017 -3.034309,-10.170017 -2.417934,0 -3.034309,1.253864 -3.034309,6.172494 v 4.097486 H 76.30685 74.672992 v -4.57481 c 0,-2.935761 -0.200712,-4.775509 -0.560181,-5.13499 -0.931099,-0.931083 -4.000148,-0.700308 -4.558388,0.342766 -0.280514,0.524121 -0.483238,4.343189 -0.483238,9.102936 v 8.199989 h -1.633882 -1.633857 z m 28.9358,6.185328 v -2.567494 h 1.633864 1.633857 v 2.567494 2.567494 H 96.380062 94.746198 Z M 91.785091,46.954084 c -2.479386,-3.721408 -4.507963,-6.872425 -4.507963,-7.002258 0,-0.129838 0.833866,-0.236061 1.853042,-0.236061 1.792631,0 1.93168,0.117947 4.264995,3.617832 1.326579,1.989809 2.57578,3.799788 2.775998,4.022175 0.200218,0.222387 1.568559,-1.405639 3.040731,-3.617834 2.610746,-3.923041 2.722236,-4.022173 4.523856,-4.022173 1.42297,0 1.78741,0.155651 1.58704,0.677813 -0.30462,0.79383 -8.653569,13.326704 -8.877782,13.326704 -0.08363,0 -2.180548,-3.044789 -4.659917,-6.766198 z"
       id="path149"
       sodipodi:nodetypes="sssssssssscsscssssssssssssssssscccccccccsscssssssscssssssscscscssssccccssscccsssscccccccccccccssssssssss" />
  </g>
</svg>
