<?xml version="1.0" encoding="UTF-8" standalone="no"?>
<!-- Created with Inkscape (http://www.inkscape.org/) -->

<svg
   width="178.20351mm"
   height="128.71748mm"
   viewBox="0 0 178.20351 128.71748"
   version="1.1"
   id="svg5"
   inkscape:version="1.1.2 (0a00cf5339, 2022-02-04)"
   sodipodi:docname="27.html"
   xmlns:inkscape="http://www.inkscape.org/namespaces/inkscape"
   xmlns:sodipodi="http://sodipodi.sourceforge.net/DTD/sodipodi-0.dtd"
   xmlns="http://www.w3.org/2000/svg"
   xmlns:svg="http://www.w3.org/2000/svg">
  <sodipodi:namedview
     id="namedview7"
     pagecolor="#ffffff"
     bordercolor="#666666"
     borderopacity="1.0"
     inkscape:pageshadow="2"
     inkscape:pageopacity="0.0"
     inkscape:pagecheckerboard="0"
     inkscape:document-units="mm"
     showgrid="false"
     width="134.20351mm"
     inkscape:zoom="0.69664703"
     inkscape:cx="270.58179"
     inkscape:cy="358.14407"
     inkscape:window-width="1920"
     inkscape:window-height="1016"
     inkscape:window-x="0"
     inkscape:window-y="0"
     inkscape:window-maximized="1"
     inkscape:current-layer="layer1" />
  <defs
     id="defs2" />
  <g
     inkscape:label="Capa 1"
     inkscape:groupmode="layer"
     id="layer1"
     transform="translate(-33.504745,-53.391234)">
    <path
       style="fill:#ffffff;stroke-width:0.154744"
       d="m 118.27471,181.94335 c -0.93219,-0.37062 -1.72764,-1.68564 -1.21581,-2.00995 0.38746,-0.24551 0.90632,-0.15929 0.90632,0.15061 0,0.41788 0.70295,1.05658 1.28256,1.16532 0.53422,0.10022 1.39465,-0.0881 1.74996,-0.38295 0.11941,-0.0991 0.21712,-0.37897 0.21712,-0.62191 0,-0.54913 -0.34173,-0.78168 -1.78597,-1.21539 -1.55521,-0.46702 -2.028,-0.79471 -2.25899,-1.56568 -0.17108,-0.57101 -0.15876,-0.70837 0.10763,-1.19986 0.45,-0.83026 1.12264,-1.15413 2.34208,-1.12769 1.34955,0.0292 2.01875,0.35702 2.38133,1.16629 0.26444,0.59024 0.26566,0.63746 0.0191,0.7359 -0.50169,0.20024 -0.81338,0.12537 -0.94759,-0.22761 -0.22127,-0.58199 -0.60644,-0.7897 -1.48004,-0.79813 -0.59744,-0.006 -0.90886,0.0722 -1.14634,0.28687 -0.70542,0.63776 -0.22235,1.15413 1.59952,1.70984 1.6201,0.49416 2.23732,0.98315 2.35277,1.86398 0.10038,0.76574 -0.38267,1.56887 -1.18653,1.97275 -0.5994,0.30113 -2.28431,0.35713 -2.93707,0.0976 z m 5.50157,-0.17475 c -0.0566,-0.1838 -0.55819,-6.01483 -0.55246,-6.42187 0.003,-0.20636 1.08551,-0.28346 1.08646,-0.0774 5.9e-4,0.14855 0.42636,4.80839 0.53717,5.88026 l 0.084,0.81241 h -0.54782 c -0.30334,0 -0.57437,-0.0863 -0.60733,-0.19343 z m 2.93527,-0.15094 c -0.037,-0.10848 -0.24543,-1.52029 -0.46313,-3.13737 -0.21771,-1.61707 -0.42309,-3.06199 -0.45641,-3.21093 -0.0485,-0.21677 0.0446,-0.27081 0.46653,-0.27081 0.46722,0 0.52711,0.0467 0.52711,0.4106 v 0.4106 l 0.52501,-0.54059 c 0.95405,-0.98235 2.53544,-1.14446 3.47251,-0.35596 0.52891,0.44504 0.70557,1.04171 1.03029,3.47972 0.13036,0.97876 0.26831,1.96612 0.30656,2.19414 0.0601,0.35826 0.006,0.42858 -0.39969,0.51764 -0.25808,0.0567 -0.50929,0.063 -0.55825,0.014 -0.049,-0.0489 -0.25143,-1.18715 -0.44994,-2.52931 -0.32532,-2.19954 -0.40027,-2.47466 -0.75964,-2.78848 -0.63201,-0.5519 -1.51917,-0.47936 -2.17649,0.17795 -0.63008,0.63009 -0.65743,1.0663 -0.23681,3.77685 0.14934,0.96234 0.23238,1.77092 0.18453,1.79685 -0.35885,0.19448 -0.95356,0.22683 -1.01218,0.055 z m -15.96697,-0.51608 c -0.0509,-0.13281 0.0905,-1.15992 0.31446,-2.28247 0.22392,-1.12255 0.40707,-2.25518 0.40701,-2.51694 -3.1e-4,-1.32194 -2.26994,-1.75397 -2.97187,-0.56571 -0.13839,0.23428 -0.44693,1.41969 -0.68565,2.63424 l -0.43402,2.20828 -0.46889,-0.10027 c -0.25789,-0.0551 -0.49931,-0.12836 -0.53648,-0.16269 -0.0372,-0.0343 0.20699,-1.50593 0.54262,-3.27023 l 0.61022,-3.20782 0.52353,-0.0501 c 0.51188,-0.049 0.52136,-0.0392 0.42591,0.43798 -0.0537,0.26845 -0.046,0.46141 0.0171,0.4288 0.94002,-0.48593 1.40778,-0.60847 2.00844,-0.52613 1.37876,0.18898 2.09481,0.86891 2.10782,2.00151 0.004,0.35644 -0.19157,1.67519 -0.43482,2.93056 l -0.44227,2.28247 h -0.4452 c -0.26065,0 -0.48362,-0.1001 -0.53787,-0.24147 z m 26.26035,-4.48563 c -0.88925,-3.07056 -0.79046,-2.91522 -1.64934,-2.59324 -0.14547,0.0545 -0.35888,-0.38389 -0.36639,-0.75273 -0.001,-0.0571 0.2131,-0.15103 0.47614,-0.20881 0.40162,-0.0882 0.46178,-0.15838 0.37539,-0.43784 -0.0566,-0.18304 -0.14001,-0.64932 -0.18541,-1.03618 -0.0701,-0.59717 -0.023,-0.77414 0.31179,-1.17203 0.36657,-0.43564 1.259,-0.83261 1.87181,-0.83261 0.20136,0 0.25134,0.11286 0.21416,0.48363 -0.0396,0.39479 -0.14505,0.5156 -0.57413,0.65766 -0.61251,0.2028 -0.79497,0.59277 -0.60629,1.29593 0.14514,0.54091 0.40803,0.6234 1.12186,0.35201 0.30838,-0.11725 0.39693,-0.10282 0.39693,0.0647 0,0.1186 0.0377,0.31389 0.0838,0.43398 0.058,0.15099 -0.10916,0.27617 -0.54161,0.40573 -0.34396,0.10306 -0.62539,0.2232 -0.62539,0.26699 0,0.0438 0.35367,1.30286 0.78592,2.79793 0.43226,1.49507 0.72821,2.77052 0.65766,2.83433 -0.0705,0.0638 -0.30604,0.15771 -0.52333,0.20867 -0.39198,0.0919 -0.40157,0.0702 -1.22357,-2.76813 z m -35.52004,2.35764 c -0.89379,-0.4298 -1.21026,-0.74564 -1.541544,-1.53851 -0.321368,-0.76915 -0.299395,-1.59071 0.07138,-2.66838 0.40233,-1.1694 0.97139,-1.89861 1.76169,-2.2575 1.7347,-0.78775 3.94588,0.23396 4.43465,2.0491 0.36103,1.34077 -0.43919,3.51216 -1.57015,4.2606 -0.90065,0.59601 -2.11452,0.65551 -3.15603,0.15469 z m 2.51161,-1.0609 c 0.56735,-0.52211 1.12162,-1.79569 1.12339,-2.58126 0.002,-1.04314 -0.36977,-1.66447 -1.18276,-1.97496 -0.66249,-0.253 -0.7224,-0.25151 -1.41429,0.0352 -0.61336,0.2542 -0.79042,0.43227 -1.17233,1.17903 -0.54704,1.06964 -0.62922,2.30976 -0.19679,2.96973 0.58519,0.8931 2.06605,1.087 2.84278,0.37222 z m 35.79943,-2.48678 c -0.69159,-1.71171 -1.20348,-3.16182 -1.13753,-3.22246 0.066,-0.0606 0.28148,-0.15914 0.47895,-0.21889 0.28408,-0.086 0.37668,-0.0411 0.44359,0.21472 0.12179,0.46572 0.31699,0.39789 0.4378,-0.15212 0.12062,-0.54918 0.85355,-1.07049 1.50628,-1.07137 0.3814,-4.7e-4 0.42555,0.0543 0.42555,0.52873 0,0.46182 -0.0589,0.54225 -0.46235,0.63085 -0.25429,0.0559 -0.60792,0.28662 -0.78585,0.51282 -0.4404,0.55988 -0.32241,1.23507 0.62549,3.5791 0.41432,1.02454 0.69913,1.89628 0.63292,1.9372 -0.0662,0.0409 -0.29745,0.14172 -0.51389,0.22401 -0.39213,0.14909 -0.39797,0.13861 -1.65096,-2.96259 z m -42.759944,1.80529 c -0.409119,-0.22195 -0.417329,-0.2501 -0.212539,-0.72884 0.294224,-0.68782 2.594585,-5.59287 2.651889,-5.65462 0.051,-0.055 1.003714,0.41442 1.003714,0.49453 0,0.0273 -0.26504,0.59999 -0.588979,1.27266 -0.323941,0.67267 -0.965895,2.04125 -1.426565,3.04128 -0.460664,1.00004 -0.874562,1.81546 -0.919771,1.81205 -0.04521,-0.004 -0.273694,-0.11008 -0.507749,-0.23706 z m 47.918434,-1.21487 c -0.9315,-0.40556 -1.87929,-1.68547 -2.22846,-3.00936 -0.47933,-1.81738 0.806,-3.55363 2.83679,-3.83198 0.81066,-0.11111 1.95448,0.3356 2.53115,0.98853 0.99882,1.13091 1.5176,2.94589 1.12619,3.94003 -0.6443,1.63645 -2.74095,2.57661 -4.26567,1.91278 z m 2.56452,-1.1708 c 1.10856,-0.78937 0.9156,-2.65579 -0.41181,-3.98319 -0.68796,-0.68797 -0.70788,-0.69595 -1.56001,-0.62529 -0.72756,0.0603 -0.93199,0.14863 -1.30139,0.56206 -0.72987,0.81686 -0.55311,2.2504 0.43762,3.54932 0.74866,0.98154 1.87737,1.17941 2.83559,0.4971 z m -54.622346,0.53038 c -1.725647,-0.9636 -2.007722,-2.94233 -0.712032,-4.99484 0.224091,-0.35498 0.695326,-0.85396 1.047185,-1.10885 0.5478,-0.39682 0.778455,-0.46343 1.604875,-0.46343 0.83401,0 1.065598,0.0683 1.704632,0.50292 0.85002,0.57808 1.30715,1.33167 1.30715,2.15487 0,0.65621 -0.14049,0.79489 -0.67047,0.66188 -0.311213,-0.0781 -0.388716,-0.214 -0.454393,-0.79667 -0.104495,-0.92709 -0.61844,-1.44828 -1.52626,-1.54778 -0.535693,-0.0587 -0.787713,0.002 -1.215095,0.29231 -0.657504,0.44677 -1.549824,2.0902 -1.549824,2.8544 0,1.62966 1.873945,2.50639 2.93748,1.37431 l 0.356331,-0.37929 0.452369,0.32211 0.452369,0.32211 -0.358404,0.38898 c -0.81758,0.88733 -2.222752,1.06088 -3.375913,0.41697 z m 30.149196,-2.07412 c -0.0336,-0.35226 -0.0299,-0.67167 0.008,-0.70981 0.0381,-0.0381 0.30145,-0.0693 0.58515,-0.0693 0.49862,0 0.51581,0.0206 0.51581,0.61897 0,0.3909 -0.0713,0.61976 -0.19343,0.62109 -0.10639,0.001 -0.34221,0.042 -0.52406,0.0908 -0.29268,0.0785 -0.33765,0.0152 -0.39172,-0.55176 z m -34.238449,-0.1788 c -0.334174,-0.26286 -0.409782,-0.42698 -0.345277,-0.74952 0.07913,-0.39565 0.05288,-0.41449 -0.626619,-0.44967 -0.835667,-0.0433 -1.632341,-0.42171 -2.323509,-1.10377 -1.220179,-1.2041 -0.55595,-3.05314 1.151162,-3.20454 0.64232,-0.057 0.914142,0.0249 2.057717,0.61923 1.901873,0.98854 1.922686,0.99191 2.222957,0.35913 0.302126,-0.63668 0.182397,-1.05624 -0.480472,-1.68372 -0.625676,-0.59227 -1.253629,-0.74948 -1.903046,-0.47642 -0.60017,0.25236 -0.836873,0.19816 -1.074603,-0.24604 -0.147423,-0.27546 -0.102713,-0.35841 0.338051,-0.62714 0.683281,-0.41659 1.386284,-0.39065 2.342398,0.0864 1.540687,0.7688 2.314561,1.86752 2.052049,2.91345 -0.05144,0.20496 -0.66386,1.16289 -1.360934,2.12875 -0.697074,0.96585 -1.347192,1.98431 -1.444707,2.26323 l -0.1773,0.50715 z m -0.137595,-2.00288 c 0.492257,-0.18599 1.287445,-0.89191 1.285287,-1.141 -0.002,-0.22886 -2.459808,-1.32777 -2.966344,-1.32628 -0.557025,0.002 -0.900832,0.37991 -0.900832,0.99113 0,0.57496 0.407698,1.03371 1.239058,1.39423 0.655723,0.28436 0.785991,0.2923 1.342831,0.0819 z m 61.142234,-0.47946 -1.81009,-2.80598 0.38918,-0.30613 0.38918,-0.30613 0.2458,0.35092 c 0.24578,0.3509 0.24581,0.35088 0.49453,-0.32242 0.29376,-0.79527 1.253,-1.59973 2.09611,-1.7579 1.17869,-0.22112 1.84582,0.45054 4.24604,4.27493 l 0.4563,0.72704 -0.478,0.30264 -0.478,0.30265 -1.15753,-1.8034 c -1.61446,-2.51529 -1.80087,-2.70035 -2.6284,-2.60936 -0.79759,0.0877 -1.21532,0.4316 -1.44157,1.18676 -0.21851,0.72931 -0.045,1.14467 1.38766,3.32203 0.60759,0.92342 1.10471,1.70227 1.10471,1.73079 0,0.0518 -0.8719,0.52601 -0.95946,0.52179 -0.0255,-0.001 -0.86092,-1.26494 -1.85646,-2.80823 z m -45.31255,1.16323 c -0.2317,-0.063 -1.03056,-2.01312 -0.8845,-2.15919 0.0414,-0.0413 0.36236,0.0398 0.71343,0.18027 0.53253,0.21307 0.63829,0.32632 0.63829,0.68347 0,0.23545 0.0435,0.6457 0.0967,0.91166 0.0985,0.4926 0.0237,0.5435 -0.56393,0.38379 z m -4.09775,-1.93941 c -0.17022,-0.0951 -0.33203,-0.19093 -0.35959,-0.21302 -0.04275,-0.0343 0.39373,-0.97925 0.51964,-1.12487 0.0806,-0.0933 1.01104,0.4493 0.95961,0.5596 -0.48089,1.03132 -0.56364,1.08885 -1.11966,0.77829 z m 57.23389,-1.20889 c -0.29713,-0.11992 -1.56654,-1.55712 -2.97951,-3.37332 -0.49194,-0.63233 -0.53307,-0.65285 -0.86834,-0.43318 -0.31985,0.20958 -0.37684,0.20308 -0.62512,-0.0712 -0.26067,-0.28805 -0.26073,-0.31563 -0.001,-0.6025 0.2615,-0.28895 0.25329,-0.32681 -0.21128,-0.97371 -0.43744,-0.60911 -0.46692,-0.72022 -0.31032,-1.16943 0.0952,-0.273 0.21845,-0.49775 0.27396,-0.49943 0.0555,-0.002 0.42163,0.35943 0.81363,0.80251 l 0.71272,0.80557 0.42577,-0.33492 0.42578,-0.33492 0.26781,0.33073 c 0.25836,0.31906 0.25223,0.34486 -0.17389,0.73167 l -0.44169,0.40096 1.43392,1.73346 c 0.78866,0.95341 1.52725,1.77184 1.64132,1.81875 0.11406,0.0469 0.40719,-0.0328 0.65139,-0.17701 0.42121,-0.24881 0.46033,-0.24749 0.76216,0.0257 l 0.31816,0.28793 -0.35057,0.38064 c -0.28404,0.30841 -1.20697,0.83634 -1.39013,0.79519 -0.024,-0.005 -0.19261,-0.0699 -0.37466,-0.14341 z M 82.141885,168.1017 c -1.667838,-0.86565 -2.215027,-2.53635 -1.379712,-4.21261 0.763977,-1.5331 2.555012,-2.64727 3.801705,-2.36495 1.801818,0.40802 2.937526,2.02361 2.453502,3.49021 -0.205278,0.62201 -0.168581,0.60287 -0.695514,0.36278 -0.365163,-0.16638 -0.391053,-0.23856 -0.300985,-0.83918 0.123271,-0.82202 -0.236096,-1.49769 -0.98579,-1.85344 -0.777044,-0.36874 -1.471749,-0.17716 -2.355636,0.64962 -0.885103,0.82791 -1.233918,1.50064 -1.233918,2.37977 0,0.52349 0.09091,0.73449 0.46842,1.08713 0.657734,0.61442 1.258964,0.71384 1.995436,0.32996 l 0.597942,-0.31166 0.32603,0.34704 c 0.179316,0.19088 0.326028,0.39337 0.326028,0.44999 0,0.0566 -0.275764,0.24362 -0.61281,0.41557 -0.730602,0.37272 -1.763279,0.40269 -2.404698,0.0698 z m 77.321455,-2.11992 c -1.27429,-0.40777 -2.81155,-2.41876 -2.80718,-3.67224 0.002,-0.59712 0.41327,-1.59882 0.8648,-2.10673 0.48004,-0.53997 1.47301,-0.98815 2.18933,-0.98815 0.74904,0 1.93018,0.53427 2.47644,1.12016 l 0.35156,0.37707 -1.81467,1.74667 -1.81468,1.74667 0.4192,0.36058 c 0.87474,0.75243 2.0578,0.62887 2.8362,-0.2962 0.34811,-0.41372 0.39133,-0.58347 0.33168,-1.30275 -0.0634,-0.7645 -0.036,-0.85027 0.36229,-1.13387 0.42804,-0.30479 0.43194,-0.30481 0.59365,-0.003 0.0895,0.16728 0.16276,0.68411 0.16276,1.14851 0,1.13664 -0.68644,2.1652 -1.85105,2.7736 -0.85364,0.44594 -1.44061,0.50447 -2.30033,0.22936 z m 0.27685,-3.87667 c 1.37724,-1.31918 1.40928,-1.47177 0.38041,-1.81132 -1.06216,-0.35055 -2.18761,0.38649 -2.34144,1.53339 -0.0947,0.70595 0.20015,1.60536 0.50289,1.53405 0.10704,-0.0252 0.76321,-0.59047 1.45814,-1.25612 z m -81.903745,2.09163 c -0.338102,-0.3736 -0.328127,-0.46502 0.08867,-0.81272 l 0.348174,-0.29046 -0.57504,-0.005 c -1.149624,-0.0103 -2.321517,-0.98262 -2.531161,-2.10012 -0.154532,-0.82373 0.291519,-1.47287 2.322475,-3.37986 l 1.899953,-1.78399 0.421331,0.43977 0.421331,0.43977 -0.33407,0.23399 c -0.183736,0.1287 -1.059704,0.93335 -1.946594,1.78812 -1.44025,1.3881 -1.612525,1.61166 -1.612525,2.09266 0,0.65661 0.670761,1.40057 1.393019,1.54502 0.75343,0.15068 1.337639,-0.19788 3.080893,-1.83819 l 1.611149,-1.51601 0.375745,0.43684 0.375746,0.43683 -0.594198,0.54101 c -0.326808,0.29755 -1.41908,1.31351 -2.427268,2.25767 -1.00819,0.94417 -1.883708,1.73577 -1.945596,1.75912 -0.06189,0.0233 -0.229303,-0.0866 -0.372031,-0.2443 z m 87.582005,-2.63421 c -0.14314,-0.15817 -1.30088,-1.15027 -2.57274,-2.20466 l -2.31248,-1.91707 0.32984,-0.3511 c 0.30827,-0.32814 0.35394,-0.3353 0.69841,-0.10959 0.36807,0.24116 0.36844,0.24076 0.26775,-0.29596 -0.14109,-0.75207 0.0182,-1.12795 0.66407,-1.56682 l 0.55869,-0.37964 0.29904,0.49173 c 0.21838,0.3591 0.24732,0.50896 0.10728,0.55565 -0.43304,0.14434 -0.77205,0.66483 -0.77205,1.18536 0,0.66436 0.50704,1.25727 2.38233,2.78584 0.73091,0.59576 1.32951,1.15811 1.33022,1.24966 5.9e-4,0.0915 -0.16101,0.31894 -0.3594,0.50532 -0.3506,0.32938 -0.36799,0.33081 -0.62096,0.0513 z m -92.53722,-2.94034 c -0.321556,-0.35532 -0.321477,-0.48618 4.64e-4,-0.72157 0.227096,-0.16606 0.20598,-0.20028 -0.183992,-0.29815 -1.117535,-0.28049 -1.826188,-1.30285 -1.797127,-2.5927 0.04264,-1.89287 1.959113,-3.58629 4.07325,-3.59916 0.751813,-0.005 0.963953,0.0628 1.470068,0.4673 0.722323,0.57722 1.132511,1.34228 1.132831,2.1129 l 3.1e-4,0.57905 1.327881,-0.94373 1.327882,-0.94372 0.258244,0.36468 c 0.142035,0.20057 0.258244,0.42674 0.258244,0.5026 0,0.12985 -7.322471,5.34002 -7.519785,5.35057 -0.05064,0.003 -0.20732,-0.12243 -0.348174,-0.27807 z m 1.907771,-2.03687 c 2.285494,-1.16598 2.603099,-3.69797 0.516214,-4.11534 -0.89697,-0.1794 -2.749036,0.89606 -3.207714,1.86266 -0.400838,0.8447 -0.319579,1.43512 0.280039,2.03473 0.428891,0.4289 0.644527,0.52613 1.166745,0.52613 0.352337,0 0.91246,-0.13868 1.244716,-0.30818 z m 92.534369,1.4192 c -1.44094,-0.63863 -1.58753,-1.71331 -0.53639,-3.93228 0.38298,-0.8085 0.69635,-1.53781 0.69635,-1.62069 0,-0.19738 -0.69465,-0.50985 -1.13344,-0.50985 -0.50042,0 -0.99312,0.39842 -1.34454,1.08726 -0.36859,0.7225 -0.38915,1.20309 -0.0709,1.65745 0.21744,0.31045 0.209,0.36932 -0.10466,0.73007 -0.31924,0.36716 -0.35927,0.37602 -0.62251,0.13779 -0.60621,-0.54861 -0.63223,-1.86954 -0.0587,-2.97867 0.38351,-0.74164 1.43025,-1.69417 1.97378,-1.79614 0.70724,-0.13268 1.11225,0.0523 3.05559,1.39604 0.92888,0.64225 1.90246,1.24219 2.16352,1.33319 0.55381,0.19306 0.56539,0.24602 0.16026,0.73232 -0.22935,0.2753 -0.39924,0.34113 -0.6912,0.26785 -0.35562,-0.0892 -0.38711,-0.0547 -0.38711,0.42431 0,1.87844 -1.79009,3.65194 -3.10008,3.07135 z m 1.80023,-1.65914 c 0.2773,-0.36357 0.44256,-0.80284 0.49077,-1.30459 0.0697,-0.72505 0.0434,-0.78742 -0.63218,-1.50223 -0.63566,-0.67254 -0.71547,-0.71539 -0.81275,-0.43628 -0.0593,0.17021 -0.34468,0.84549 -0.63411,1.5006 -0.72484,1.64067 -0.53766,2.27439 0.67515,2.28592 0.3879,0.004 0.58553,-0.11393 0.91312,-0.54342 z m -45.6658,-3.87763 -0.38743,-0.41804 0.0394,-16.10869 0.0394,-16.1087 h 13.38535 13.38536 l 0.91132,0.34403 c 2.58197,0.97472 4.51651,3.04712 5.27275,5.64851 0.22342,0.76854 0.24772,1.80255 0.20346,8.65905 -0.0496,7.68764 -0.0549,7.80001 -0.41269,8.86949 -0.69927,2.08993 -1.97635,4.20295 -3.40167,5.62826 -1.46753,1.46754 -3.84134,2.83123 -5.99449,3.44369 -1.20243,0.34203 -1.38395,0.34818 -11.93717,0.40388 l -10.71616,0.0566 z m -54.32629,-0.36622 c -0.954287,-0.38612 -1.913198,-1.92345 -1.919021,-3.07658 -0.01217,-2.40861 3.29492,-4.27883 5.455652,-3.08529 1.468776,0.81132 2.002584,2.72628 1.160512,4.16316 -0.375717,0.64112 -1.400936,1.53359 -1.753445,1.52641 -0.08053,-0.002 -0.656847,-0.94105 -1.280696,-2.08757 -0.623849,-1.14651 -1.186987,-2.11715 -1.25142,-2.15697 -0.195052,-0.12056 -0.772866,0.3678 -1.035036,0.87478 -0.315117,0.60937 -0.314187,1.34084 0.0025,1.95321 0.29288,0.56637 0.718411,0.82861 1.53638,0.94682 0.48773,0.0705 0.631787,0.17586 0.804937,0.58877 l 0.210891,0.50291 -0.804935,-0.01 c -0.442715,-0.005 -0.949552,-0.0683 -1.126304,-0.13984 z m 3.959183,-2.87197 c 0.361301,-0.74471 0.223376,-1.51039 -0.372998,-2.07065 -0.597047,-0.5609 -2.258981,-0.7629 -2.258981,-0.27458 0,0.0923 0.395116,0.87802 0.878036,1.74601 0.789091,1.41827 0.907091,1.56012 1.16484,1.40023 0.157742,-0.0979 0.422838,-0.45831 0.589103,-0.80101 z m 97.770947,2.63654 c -0.0569,-0.058 -0.0326,-0.30844 0.0538,-0.55654 0.12581,-0.36088 0.24858,-0.45107 0.61403,-0.45107 0.95694,0 1.6025,-0.63661 1.91436,-1.88783 0.0813,-0.32622 0.0177,-0.50422 -0.29052,-0.8124 -0.21706,-0.21706 -0.50572,-0.39465 -0.64147,-0.39465 -0.13575,0 -0.78392,0.56069 -1.44038,1.24597 -1.34152,1.40042 -1.9005,1.65414 -2.82694,1.28313 -1.08312,-0.43374 -1.36074,-1.73157 -0.66785,-3.12202 0.46191,-0.92693 1.19471,-1.55459 1.9426,-1.66388 0.73913,-0.108 0.94711,0.0758 0.74428,0.6576 -0.13243,0.37987 -0.25419,0.47187 -0.63908,0.48281 -0.93435,0.0265 -1.78694,1.41808 -1.3954,2.27742 0.32826,0.72045 0.84347,0.51613 2.14414,-0.85031 1.37817,-1.44787 1.95225,-1.70732 2.82039,-1.27463 1.58955,0.79221 1.56856,2.96139 -0.0436,4.50988 -0.45171,0.43386 -0.69651,0.54041 -1.36757,0.59522 -0.44955,0.0367 -0.86391,0.0193 -0.92079,-0.0387 z m -75.027327,-6.76834 c -0.0014,-0.1083 -3.1e-4,-4.20905 0.0023,-9.11277 0.0054,-10.07293 -0.03903,-9.66129 1.211036,-11.2171 0.574932,-0.71555 0.994672,-1.04568 1.946823,-1.5312 l 1.213868,-0.61898 9.08501,-0.0466 c 7.78744,-0.04 9.11161,-0.0146 9.27124,0.17778 0.14155,0.17057 0.17551,2.37154 0.14157,9.1765 l -0.0447,8.9521 -0.37335,0.92733 c -0.44908,1.11546 -1.72939,2.46218 -2.8763,3.02549 l -0.77372,0.38001 -9.40075,0.0422 c -7.527298,0.0337 -9.401206,0.003 -9.403141,-0.15474 z M 59.217577,133.9879 c -1.088446,-0.43122 -2.064722,-1.33419 -2.613513,-2.41728 -0.401974,-0.79334 -0.459167,-1.07006 -0.459167,-2.22155 0,-1.15163 0.0572,-1.42816 0.459395,-2.22199 1.858022,-3.66701 7.042687,-3.61757 8.892785,0.0848 0.405426,0.81133 0.474061,1.12076 0.474061,2.1372 0,1.01413 -0.06894,1.32649 -0.469846,2.12877 -0.515798,1.0322 -1.323231,1.85049 -2.347261,2.37882 -0.962135,0.4964 -2.855388,0.55952 -3.936454,0.13124 z m 119.639433,0.0558 c -1.03665,-0.43509 -1.87406,-1.08865 -2.38683,-1.86279 -2.18627,-3.30067 -0.12886,-7.49909 3.79839,-7.75113 1.51184,-0.097 2.47346,0.25273 3.62877,1.31983 1.16174,1.07304 1.58516,2.03199 1.58984,3.60061 0.003,0.9224 -0.078,1.33974 -0.39192,2.02542 -0.45959,1.00386 -1.44674,2.01419 -2.43581,2.49299 -0.93686,0.45352 -2.92131,0.54489 -3.80244,0.17507 z M 91.813386,117.96162 c -2.443211,-0.6474 -4.602088,-2.4359 -5.699281,-4.72152 -0.343155,-0.71485 -0.698347,-1.71291 -0.789315,-2.21792 -0.104907,-0.5824 -0.165,-4.17606 -0.164312,-9.82624 0.0011,-8.384226 0.01935,-8.984266 0.311808,-10.204196 0.837591,-3.49393 3.35128,-6.30505 6.840435,-7.64982 l 1.280221,-0.49341 9.813838,-0.0442 c 6.52976,-0.0294 10.08032,0.0111 10.61008,0.12109 0.92585,0.1922 2.46968,0.8926 3.29519,1.49495 1.88554,1.3758 3.10829,3.32591 3.5262,5.62376 0.28999,1.59453 0.32373,27.690156 0.0362,27.977706 -0.14185,0.14185 -3.49438,0.18329 -14.19785,0.17551 -11.756918,-0.009 -14.14908,-0.0465 -14.863193,-0.2357 z m -27.312313,-2.697 c -1.191534,-0.24234 -3.717757,-0.73836 -5.613836,-1.10227 -1.896078,-0.36391 -3.524168,-0.7091 -3.617985,-0.76708 -0.226183,-0.13979 0.1588,-2.14317 0.398207,-2.07216 0.09237,0.0274 0.355963,0.0909 0.58576,0.14112 l 0.417805,0.0913 -0.456494,-0.86782 c -0.956186,-1.81774 -0.29271,-3.69245 1.641758,-4.63889 0.784577,-0.38386 0.963533,-0.41128 2.201943,-0.33742 3.036296,0.18108 4.887728,1.66133 4.887728,3.90782 0,0.76582 -0.08538,1.10269 -0.427428,1.68634 -0.235085,0.40114 -0.596311,0.8063 -0.802731,0.90035 -0.206421,0.0941 -0.37531,0.22477 -0.37531,0.29048 0,0.15412 0.198852,0.20808 2.243789,0.60883 0.936201,0.18347 1.752163,0.38066 1.81325,0.43821 0.06109,0.0575 0.03338,0.57342 -0.06156,1.14639 -0.131124,0.79132 -0.232234,1.03861 -0.420554,1.02859 -0.13636,-0.007 -1.222814,-0.21146 -2.41434,-0.45379 z m -2.290982,-3.6033 c 0.581204,-0.39293 0.820909,-0.85232 0.820909,-1.57328 0,-1.09792 -1.199892,-1.89187 -3.088618,-2.04369 -0.888939,-0.0714 -1.077726,-0.0365 -1.551445,0.28717 -0.701749,0.47948 -0.95973,0.99079 -0.872095,1.72845 0.200045,1.68381 3.10338,2.67486 4.691249,1.60135 z m 65.890889,3.86902 c -1.44992,-0.5819 -2.5041,-1.63428 -3.02101,-3.01585 -0.30451,-0.81389 -0.32055,-1.11651 -0.27596,-5.20669 l 0.0474,-4.34258 0.41163,-0.77371 c 0.50284,-0.94513 1.19536,-1.66496 2.13102,-2.215016 l 0.70697,-0.41563 4.61535,-0.0473 c 5.25629,-0.0538 5.60379,10e-4 6.82586,1.076726 1.62888,1.43379 1.83469,2.31537 1.7647,7.55879 l -0.0527,3.94598 -0.43015,0.87593 c -0.4724,0.96196 -1.28519,1.78133 -2.30958,2.3283 -0.64621,0.34504 -0.79326,0.35574 -5.30695,0.38608 -3.32431,0.0223 -4.77413,-0.0217 -5.10656,-0.1551 z m 56.86841,-1.37614 c -0.46809,-0.0814 -2.91635,-0.48582 -5.44056,-0.89878 -2.5242,-0.41297 -4.79645,-0.85788 -5.04943,-0.9887 -0.97904,-0.50628 -1.51369,-1.50599 -1.61288,-3.01583 l -0.0445,-0.67782 0.8057,-0.27763 c 0.90351,-0.31133 0.84634,-0.35594 1.04348,0.81415 0.17916,1.06342 1.51109,1.65068 2.45561,1.08271 0.27075,-0.16282 2.08283,-1.28628 4.02683,-2.49657 1.94401,-1.21031 3.55479,-2.1779 3.5795,-2.15021 0.0847,0.0949 0.39103,1.69011 0.39103,2.03628 0,0.21545 -0.16046,0.43719 -0.42555,0.58803 -3.26508,1.858 -5.1495,2.96676 -5.10977,3.00649 0.0269,0.0269 1.47132,0.22951 3.20982,0.45023 1.7385,0.22071 3.18342,0.42381 3.21093,0.45132 0.0275,0.0275 0.14481,0.54751 0.26067,1.15553 0.2415,1.26745 0.33059,1.20438 -1.30084,0.9208 z m -9.26363,-8.90757 -0.34853,-1.04345 0.40451,-0.34818 c 0.22248,-0.1915 0.33341,-0.34818 0.24652,-0.34818 -0.34353,0 -1.32057,-1.04558 -1.66184,-1.77842 -0.42858,-0.92034 -0.47328,-2.044886 -0.1116,-2.807086 0.54692,-1.15254 2.44872,-1.67528 3.58172,-0.98449 0.27883,0.17001 0.77844,0.74423 1.11023,1.27606 0.3318,0.53183 0.83103,1.332536 1.10941,1.779366 0.5447,0.87429 0.78032,0.96461 1.35792,0.52052 0.32531,-0.25012 0.36053,-0.37494 0.28781,-1.02007 -0.10044,-0.891066 -0.51927,-1.501096 -1.16459,-1.696226 -0.50494,-0.15267 -0.55675,-0.2602 -0.74141,-1.53876 l -0.10915,-0.7557 0.7557,0.11163 c 1.41465,0.20896 2.23551,1.02167 2.8573,2.82895 0.48445,1.408076 0.53038,2.216886 0.17191,3.027276 -0.37707,0.85241 -0.93776,1.17157 -3.58883,2.04279 -1.7018,0.55927 -2.80142,1.04649 -3.4904,1.54654 -0.30649,0.22244 -0.33093,0.19265 -0.66668,-0.81257 z m 2.80307,-2.67641 c 0.31916,-0.0886 0.5803,-0.22616 0.5803,-0.30561 0,-0.1989 -1.04248,-1.81193 -1.4059,-2.17534 -0.39304,-0.393036 -1.04316,-0.375456 -1.48558,0.0402 -0.41649,0.39127 -0.46426,1.02116 -0.12692,1.6735 0.45646,0.88269 1.19062,1.11373 2.4381,0.76729 z m -117.082152,0.86544 c -1.299551,-0.5343 -1.903406,-1.09571 -2.503349,-2.32736 -1.004741,-2.062686 0.02222,-4.972636 2.124723,-6.020346 0.656037,-0.32691 1.025568,-0.40153 1.988615,-0.40153 1.010122,0 1.32139,0.0692 2.131536,0.47406 1.773155,0.88606 2.762731,2.50356 2.630438,4.29956 -0.123784,1.680486 -1.263917,3.426206 -2.648071,4.054606 -0.954917,0.43353 -2.560151,0.39948 -3.723892,-0.079 z m 2.873139,-1.9405 c 0.17327,0 0.585383,-0.27035 0.915807,-0.60077 0.527916,-0.52791 0.600771,-0.68922 0.600771,-1.330136 0,-0.40115 -0.113891,-0.92216 -0.253089,-1.1578 -0.336819,-0.57019 -1.299803,-1.17744 -2.215599,-1.39713 -1.409657,-0.33817 -2.41231,0.21536 -2.813079,1.55302 -0.346026,1.15492 0.682729,2.432476 2.312159,2.871346 0.399201,0.10752 0.818557,0.16534 0.931903,0.12848 0.113351,-0.0368 0.347856,-0.067 0.521127,-0.067 z M 172.15511,95.959064 c -0.27153,-0.4582 -0.4937,-0.89539 -0.4937,-0.97152 0,-0.0761 0.22632,-0.25665 0.50292,-0.40114 l 0.50292,-0.26271 -0.48517,-0.12795 c -1.4997,-0.39549 -2.68708,-1.85988 -2.68708,-3.31395 0,-1.42937 0.43519,-1.83142 4.56495,-4.21736 2.43335,-1.40585 2.2264,-1.40613 2.94998,0.004 l 0.37202,0.72496 -1.16358,0.70643 c -0.63996,0.38853 -1.19666,0.70642 -1.2371,0.70642 -0.22679,0 -2.88569,1.77015 -3.08384,2.05306 -0.37739,0.53879 -0.29554,1.25486 0.20465,1.79031 0.94116,1.00752 1.56819,0.88723 4.66589,-0.89507 l 2.39853,-1.38004 0.50312,0.87937 c 0.27672,0.48365 0.48562,0.96591 0.46423,1.07168 -0.0214,0.10578 -1.71427,1.15406 -3.76196,2.32951 l -3.72308,2.13718 z M 67.548302,94.398584 c -0.160666,-0.1019 -0.11889,-0.33694 0.202634,-1.14009 0.40431,-1.00996 0.406136,-1.01176 1.03346,-1.02041 0.722599,-0.01 1.227947,-0.39826 1.689378,-1.29803 0.390953,-0.76235 0.37457,-1.2865 -0.04949,-1.58352 -0.189154,-0.13249 -0.402504,-0.24089 -0.474107,-0.24089 -0.0716,0 -0.74071,0.6193 -1.486902,1.37623 -0.746192,0.75693 -1.659267,1.53059 -2.029056,1.71924 -1.245135,0.63522 -2.61174,0.16429 -3.270508,-1.127 -0.586719,-1.15006 -0.217632,-2.6036 1.114139,-4.38776 0.687131,-0.92054 1.633262,-1.44931 2.593239,-1.44931 0.751098,0 0.778271,0.10164 0.351499,1.31484 -0.242537,0.68947 -0.329819,0.78264 -0.805668,0.85999 -0.72263,0.11746 -0.843526,0.20988 -1.305393,0.998 -0.504448,0.86077 -0.480404,1.67615 0.05165,1.75164 0.269979,0.0383 0.727674,-0.3144 1.95298,-1.50498 0.880199,-0.85526 1.787984,-1.62634 2.017301,-1.71353 1.519105,-0.57756 3.088987,0.42813 3.415874,2.18828 0.223942,1.20582 -0.779234,3.38091 -2.068148,4.48418 -0.892273,0.76375 -2.344184,1.14648 -2.932882,0.77312 z m 96.413408,-5.82363 c -1.08613,-0.47204 -2.48106,-1.90825 -3.18722,-3.28154 -0.38048,-0.73994 -0.33482,-2.04869 0.0935,-2.68089 0.1915,-0.28263 0.4237,-0.53861 0.516,-0.56885 0.0923,-0.0302 0.48501,0.42202 0.87268,1.00502 0.52566,0.79052 0.66874,1.12452 0.56279,1.31383 -0.23655,0.42269 0.0161,0.99485 0.7298,1.65272 0.91821,0.84637 1.3329,0.82946 2.4751,-0.10098 l 0.89059,-0.72547 -0.85403,-0.17053 c -1.04307,-0.20828 -1.54057,-0.52024 -2.13223,-1.33701 -1.43023,-1.97436 -0.16537,-4.90616 2.75961,-6.39648 1.18509,-0.60382 2.85012,-0.4529 3.81251,0.34558 0.86758,0.71982 1.20693,1.3566 1.30314,2.44529 l 0.0896,1.01334 0.3417,-0.3195 c 0.18794,-0.17573 0.40587,-0.31951 0.48428,-0.31951 0.16576,0 1.26307,1.3033 1.26307,1.50018 0,0.12144 -1.48352,1.44753 -5.41605,4.84134 -2.17987,1.88124 -3.34315,2.33179 -4.60482,1.78346 z m 4.53605,-4.93318 c 0.82098,-0.38229 1.87319,-1.45862 2.02768,-2.07415 0.15233,-0.60698 -0.0691,-1.45323 -0.49714,-1.90003 -0.70348,-0.73427 -1.73165,-0.69141 -2.90621,0.12115 -1.5176,1.04989 -1.9739,2.63513 -1.03015,3.57888 0.42438,0.42437 0.73785,0.5638 1.39139,0.61888 0.12766,0.0108 0.58415,-0.14437 1.01443,-0.34473 z m -94.714815,2.11731 c -0.338916,-0.22904 -1.417011,-1.06615 -2.395767,-1.86025 l -1.779556,-1.44382 -0.336839,0.41719 -0.336839,0.41719 -0.582343,-0.45256 c -0.320288,-0.2489 -0.64943,-0.49809 -0.731427,-0.55373 -0.08692,-0.059 -0.01483,-0.28483 0.172899,-0.54161 l 0.321985,-0.44042 -0.670828,-0.61898 -0.670829,-0.61898 0.165735,-1.19926 c 0.09115,-0.6596 0.225988,-1.19927 0.299631,-1.19927 0.07364,0 0.632199,0.41122 1.241236,0.91382 l 1.10734,0.91383 0.449519,-0.56565 c 0.247236,-0.31111 0.495521,-0.56565 0.551744,-0.56565 0.162791,0 1.410594,0.91684 1.414244,1.03914 0.0018,0.0609 -0.214868,0.35915 -0.481521,0.66286 -0.266655,0.3037 -0.458151,0.57177 -0.425546,0.59572 0.03261,0.0239 0.88106,0.71796 1.885459,1.54224 1.004399,0.82429 1.951084,1.49871 2.103747,1.49871 0.3021,0 0.68291,-0.37378 0.845446,-0.82983 0.06989,-0.19611 0.163963,-0.2431 0.294324,-0.14703 0.105378,0.0777 0.446546,0.30893 0.758147,0.51393 l 0.566548,0.37271 -0.366931,0.7241 c -0.201812,0.39826 -0.660788,0.97564 -1.019947,1.28306 -0.820318,0.70217 -1.491982,0.7424 -2.379631,0.14254 z m 5.647049,-2.09817 c -0.28263,-0.19149 -0.540391,-0.42903 -0.572801,-0.52785 -0.03241,-0.0988 0.385462,-0.49679 0.928605,-0.88437 0.867325,-0.61891 1.05671,-0.69346 1.555849,-0.61246 0.519547,0.0843 0.628069,0.0325 1.264568,-0.60403 0.958094,-0.95809 0.953791,-1.45959 -0.02234,-2.60315 -0.395221,-0.46301 -0.760803,-0.84184 -0.812406,-0.84184 -0.0516,0 -0.104726,0.28683 -0.118054,0.6374 -0.04241,1.11561 -0.842802,2.21343 -2.021559,2.77279 -0.742713,0.35244 -2.058065,0.232 -3.070758,-0.28117 -1.48676,-0.7534 -2.853481,-2.57551 -3.103203,-4.13718 -0.155199,-0.97057 0.325759,-2.22262 1.123546,-2.92486 0.711587,-0.62637 1.800571,-1.02843 2.449491,-0.90438 0.479799,0.0917 0.488797,0.009 0.05001,-0.4577 l -0.341243,-0.36323 0.780784,-0.78079 0.780784,-0.78078 2.336987,2.52674 c 1.285343,1.38971 2.723608,2.94455 3.196143,3.45521 2.148843,2.32219 2.140062,3.81009 -0.0351,5.94677 -1.688625,1.65875 -3.22654,2.13916 -4.369306,1.36488 z m 0.279813,-4.99988 c 0.466341,-0.32664 0.807267,-1.0255 0.807267,-1.65482 0,-1.02727 -1.30398,-2.56791 -2.468859,-2.91691 -1.519773,-0.45534 -2.778574,0.85588 -2.261763,2.35593 0.227095,0.65915 0.990699,1.5997 1.713114,2.11009 0.566561,0.40027 1.711504,0.45503 2.210241,0.10571 z m 80.120753,0.79205 c -0.7226,-0.63669 -0.75595,-0.69902 -0.58029,-1.08454 0.1025,-0.22497 0.18636,-0.43083 0.18636,-0.45747 0,-0.0266 -0.38627,-0.0883 -0.85838,-0.13704 -1.71948,-0.17747 -3.16496,-1.55226 -3.16496,-3.01019 0,-0.82802 0.27913,-1.39225 1.00332,-2.02809 0.47355,-0.41579 0.67551,-0.48721 1.3777,-0.48721 0.68399,0 1.1154,0.1436 2.55696,0.85109 0.95379,0.46811 1.83292,0.8511 1.95364,0.8511 0.12071,0 0.33381,-0.1745 0.47355,-0.38778 0.33368,-0.50926 0.0891,-1.13937 -0.66565,-1.71507 -0.46584,-0.35531 -0.64257,-0.40044 -1.27494,-0.32554 -0.72951,0.0864 -0.73768,0.0823 -1.2998,-0.65481 -0.31111,-0.40796 -0.56567,-0.78994 -0.56567,-0.84885 0,-0.22054 1.09975,-0.55541 1.81328,-0.55213 0.9656,0.004 1.77229,0.39441 2.87354,1.38916 1.39792,1.26272 1.83308,2.47197 1.27673,3.54783 -0.12442,0.2406 -0.92652,1.26426 -1.78246,2.27479 -0.85593,1.01054 -1.73719,2.20293 -1.95836,2.64975 -0.22116,0.44682 -0.44617,0.80973 -0.50001,0.80646 -0.0539,-0.003 -0.4429,-0.30993 -0.86456,-0.68146 z m 0.96276,-3.55208 0.66034,-0.64437 -1.14852,-0.57558 c -1.55104,-0.7773 -2.24146,-0.76471 -2.5415,0.0463 -0.29029,0.78474 0.18207,1.55061 1.13139,1.83439 0.70409,0.21047 1.17257,0.0474 1.89829,-0.66078 z m -77.047375,-3.99575 c -1.321534,-1.89637 -2.448595,-3.52705 -2.504578,-3.62374 -0.08902,-0.15374 1.340042,-1.29426 1.621697,-1.29426 0.05474,0 0.244457,0.22631 0.421598,0.50292 l 0.322078,0.50291 0.0026,-0.58526 c 0.0042,-0.94788 0.363904,-1.59972 1.08599,-1.9681 0.960289,-0.48991 1.257496,-0.3823 1.496176,0.54169 0.275722,1.06739 0.264949,1.12301 -0.238966,1.23368 -0.24464,0.0537 -0.6022,0.26524 -0.794578,0.47002 -0.708106,0.75375 -0.203374,2.01189 2.083628,5.19387 l 0.842388,1.17203 -0.771062,0.57566 c -0.424085,0.31661 -0.859516,0.60959 -0.967625,0.65108 -0.121104,0.0465 -1.118963,-1.24819 -2.599353,-3.3725 z m 66.514935,0.23932 c -0.56886,-0.36102 -0.8657,-0.64535 -0.8141,-0.77981 0.13416,-0.34961 4.14248,-6.75472 4.40823,-7.04416 0.23219,-0.25288 0.28569,-0.24192 0.94092,0.19272 0.38211,0.25347 0.75616,0.48164 0.83125,0.50706 0.0751,0.0254 0.0229,0.26599 -0.11606,0.53462 -0.33744,0.65254 -0.33756,0.65239 0.32772,0.41497 0.80565,-0.28752 1.11645,-0.26897 1.74087,0.10388 0.51506,0.30756 1.07235,0.87202 1.07976,1.09366 0.002,0.0566 -0.3513,0.38535 -0.78488,0.73057 l -0.78832,0.62767 -0.50658,-0.53713 c -0.63964,-0.67821 -1.24347,-0.71262 -1.95818,-0.11159 -0.4617,0.38826 -3.23156,4.42866 -3.23156,4.71388 0,0.21785 -0.2188,0.13136 -1.12907,-0.44634 z m -58.642391,-1.04209 c -0.765474,-0.27786 -1.002616,-0.48918 -1.380776,-1.23044 -0.241008,-0.47241 -0.298588,-0.81676 -0.244878,-1.46444 0.06642,-0.80097 0.120171,-0.8937 0.993423,-1.71386 0.507759,-0.47689 1.284574,-1.16689 1.726255,-1.53332 0.879554,-0.72971 0.958649,-0.95772 0.493569,-1.4228 -0.392916,-0.39291 -0.932319,-0.39275 -1.703174,5.1e-4 -0.668633,0.34111 -0.927474,0.70367 -0.927474,1.29911 0,0.34631 -0.111624,0.42478 -0.96715,0.67988 -1.042207,0.31076 -1.193353,0.25616 -1.196034,-0.43206 -0.0053,-1.3606 0.869394,-2.44919 2.659961,-3.31041 0.922185,-0.44356 1.344847,-0.55819 2.05813,-0.55819 1.369711,0 1.665828,0.30408 3.177288,3.26268 0.725412,1.41995 1.506251,2.7275 1.810489,3.03174 0.294225,0.29422 0.510582,0.55687 0.480789,0.58367 -0.02977,0.0268 -0.481345,0.26282 -1.003461,0.5245 -0.93836,0.47031 -0.952461,0.4723 -1.223249,0.17309 -0.350353,-0.38714 -0.489521,-0.38176 -0.61827,0.0239 -0.156851,0.4942 -1.141509,1.51734 -1.76357,1.83249 -0.799928,0.40526 -1.691945,0.50078 -2.371868,0.25397 z m 2.786858,-2.49358 c 0.354988,-0.37686 0.502918,-0.68202 0.502918,-1.03747 0,-0.54193 -0.473298,-1.84545 -0.647332,-1.78281 -0.05815,0.0209 -0.563004,0.44294 -1.121894,0.93782 -0.862359,0.76358 -1.016165,0.9766 -1.016165,1.4074 0,0.49258 0.280546,0.87983 0.77372,1.068 0.434868,0.16593 1.004958,-0.0581 1.508753,-0.59294 z m 52.228343,1.50615 c -0.95425,-0.41509 -0.96397,-0.42559 -0.86941,-0.93947 0.0935,-0.508 0.0855,-0.51746 -0.35567,-0.42057 -1.59932,0.35127 -3.2786,-0.18619 -4.00329,-1.28128 -0.7817,-1.18123 -0.42338,-2.87441 0.76115,-3.59673 0.6349,-0.38715 1.61485,-0.37662 3.70575,0.0398 1.86014,0.37047 1.95167,0.3433 1.95625,-0.58075 0.003,-0.57256 -0.32495,-0.90196 -1.2073,-1.21327 -0.67892,-0.23953 -1.00565,-0.19749 -1.45397,0.18711 -0.23772,0.20394 -0.35447,0.16811 -1.13019,-0.34679 -0.4758,-0.31581 -0.83844,-0.65505 -0.80586,-0.75386 0.0326,-0.0988 0.35617,-0.38855 0.71911,-0.64388 0.56995,-0.40096 0.79087,-0.46239 1.62104,-0.45072 1.48618,0.0209 3.61784,1.09572 4.27188,2.154 0.54656,0.88435 0.4142,1.59639 -0.77645,4.17699 -0.80565,1.74615 -1.23589,2.9864 -1.23589,3.56265 0,0.29594 -0.0522,0.53548 -0.11606,0.53231 -0.0638,-0.003 -0.55033,-0.19467 -1.08109,-0.42555 z m -0.90902,-2.72381 c 0.36338,-0.15183 0.61715,-0.42697 0.86383,-0.93655 0.19212,-0.39685 0.31027,-0.76058 0.26257,-0.80828 -0.12407,-0.12407 -1.95771,-0.5042 -2.46329,-0.51066 -0.57719,-0.007 -1.04508,0.49389 -1.04215,1.11646 0.003,0.6271 0.11727,0.80933 0.69751,1.11188 0.57066,0.29756 1.01708,0.30477 1.68153,0.0272 z m -15.07042,0.93509 c -0.70734,-0.14835 -0.84596,-0.23078 -0.82073,-0.48799 0.0167,-0.17022 0.45449,-2.29408 0.97288,-4.71969 0.51839,-2.42561 1.05663,-4.96729 1.1961,-5.64816 0.13946,-0.68087 0.26476,-1.25557 0.27843,-1.27711 0.0137,-0.0215 0.47147,0.0527 1.01733,0.16501 l 0.99247,0.20417 -0.0453,0.56917 -0.0453,0.56918 0.72599,-0.38601 c 1.26151,-0.67075 2.81375,-0.4771 3.81554,0.47602 0.97883,0.93128 1.11981,1.32928 1.11981,3.16131 0,1.45623 -0.045,1.72115 -0.43392,2.55328 -0.79736,1.70611 -1.9431,2.54353 -3.48866,2.54987 -1.02209,0.004 -1.70642,-0.30821 -2.43032,-1.10947 -0.30649,-0.33926 -0.57443,-0.59323 -0.59542,-0.56439 -0.021,0.0289 -0.15317,0.60953 -0.29374,1.2904 -0.59661,2.88961 -0.5887,2.86331 -0.85613,2.84784 -0.14189,-0.008 -0.64097,-0.0952 -1.10908,-0.19343 z m 5.84797,-4.52664 c 0.81391,-0.53329 1.39983,-3.02541 0.96062,-4.08578 -0.61043,-1.47371 -2.74911,-1.44399 -3.45713,0.0481 -0.35316,0.74422 -0.57817,2.0106 -0.4659,2.62201 0.28329,1.54271 1.72042,2.22951 2.96241,1.41572 z m -35.1732,2.66896 c -0.92903,-0.43263 -1.686718,-1.25534 -2.211214,-2.40099 -0.494031,-1.0791 -0.659751,-3.3552 -0.3057,-4.19864 0.751702,-1.79074 2.799794,-2.66708 4.536944,-1.94125 0.32005,0.13372 0.59927,0.22481 0.62049,0.20241 0.0212,-0.0224 -0.20512,-0.93341 -0.503,-2.02448 -0.29788,-1.09107 -0.50314,-2.02222 -0.45614,-2.06921 0.047,-0.047 0.53968,-0.21141 1.09486,-0.36535 l 1.00942,-0.27991 0.30306,1.0338 c 0.57577,1.96407 2.79855,10.38441 2.79855,10.60148 0,0.13329 -0.34913,0.31573 -0.89993,0.47028 -1.04811,0.29408 -1.11175,0.30025 -1.11175,0.10783 0,-0.0796 -0.073,-0.33658 -0.16214,-0.57113 l -0.16214,-0.42647 -0.34093,0.56488 c -0.6007,0.99532 -1.79149,1.65988 -2.97129,1.65823 -0.25534,-3.1e-4 -0.81292,-0.16302 -1.23909,-0.36148 z m 2.87622,-1.91182 c 0.93,-0.54936 1.15575,-1.84564 0.59307,-3.40536 -0.41936,-1.16243 -1.16796,-1.90142 -1.92613,-1.90142 -0.68521,0 -1.33944,0.32744 -1.6738,0.83774 -0.35255,0.53806 -0.327,1.89861 0.0549,2.91916 0.5901,1.57716 1.81613,2.22086 2.95202,1.54988 z m 8.73077,-0.18324 c -2.19358,-0.59294 -3.30635,-2.11558 -3.34332,-4.57474 -0.0285,-1.89472 0.8171,-3.32094 2.44384,-4.12193 0.6141,-0.30238 0.98902,-0.36724 2.13744,-0.36977 1.23898,-0.003 1.47149,0.0432 2.10652,0.41656 1.32608,0.77956 2.07525,1.87865 2.3211,3.40517 0.45265,2.8107 -1.38077,5.14392 -4.17194,5.30923 -0.56617,0.0335 -1.23831,0.005 -1.49364,-0.0645 z m 1.78836,-1.8738 c 0.30272,-0.0841 0.75536,-0.367 1.00584,-0.62867 0.43259,-0.4519 0.45544,-0.5432 0.45544,-1.81923 0,-1.57923 -0.24677,-2.12659 -1.20037,-2.66254 -1.53326,-0.86173 -3.05511,0.2964 -3.05511,2.32493 0,1.28885 0.55661,2.31989 1.47008,2.7231 0.56794,0.2507 0.63496,0.25386 1.32412,0.0624 z m 8.37683,1.48027 c -0.92691,-0.29917 -1.63426,-0.81795 -2.10487,-1.54373 -0.70267,-1.08367 -0.50277,-1.32305 1.10831,-1.32724 0.58434,-0.002 0.81241,0.0572 0.81241,0.20913 0,1.1559 2.8534,1.74671 3.41031,0.70612 0.34058,-0.63639 0.0679,-0.8555 -1.90674,-1.53186 -1.03974,-0.35614 -2.12413,-0.82538 -2.40976,-1.04275 -1.36765,-1.04079 -1.19362,-3.08593 0.33902,-3.98411 1.37322,-0.80476 4.06568,-0.63925 5.33364,0.32788 0.42978,0.3278 1.199,1.56601 1.05952,1.70549 -0.0198,0.0198 -0.53367,0.0954 -1.14196,0.16807 -1.07451,0.12833 -1.10851,0.12199 -1.19506,-0.22286 -0.1249,-0.49763 -0.85177,-0.8248 -1.83249,-0.8248 -0.64618,0 -0.89993,0.072 -1.12307,0.31855 -0.46401,0.51272 -0.12733,0.7826 1.86052,1.49138 2.90594,1.03612 3.59296,1.66841 3.44833,3.1736 -0.0866,0.90174 -0.68069,1.72151 -1.59504,2.20117 -0.77063,0.40426 -3.04992,0.50296 -4.06307,0.17596 z"
       id="path249" />
  </g>
</svg>
