<?xml version="1.0" encoding="UTF-8" standalone="no"?>
<!-- Created with Inkscape (http://www.inkscape.org/) -->

<svg
   width="157.93686mm"
   height="105.80708mm"
   viewBox="0 0 157.93686 105.80708"
   version="1.1"
   id="svg5"
   inkscape:version="1.1.2 (0a00cf5339, 2022-02-04)"
   sodipodi:docname="28.html"
   xmlns:inkscape="http://www.inkscape.org/namespaces/inkscape"
   xmlns:sodipodi="http://sodipodi.sourceforge.net/DTD/sodipodi-0.dtd"
   xmlns="http://www.w3.org/2000/svg"
   xmlns:svg="http://www.w3.org/2000/svg">
  <sodipodi:namedview
     id="namedview7"
     pagecolor="#ffffff"
     bordercolor="#666666"
     borderopacity="1.0"
     inkscape:pageshadow="2"
     inkscape:pageopacity="0.0"
     inkscape:pagecheckerboard="0"
     inkscape:document-units="mm"
     showgrid="false"
     width="157.93686mm"
     inkscape:zoom="0.69664703"
     inkscape:cx="197.37399"
     inkscape:cy="307.90342"
     inkscape:window-width="1920"
     inkscape:window-height="1016"
     inkscape:window-x="0"
     inkscape:window-y="0"
     inkscape:window-maximized="1"
     inkscape:current-layer="layer1" />
  <defs
     id="defs2" />
  <g
     inkscape:label="Capa 1"
     inkscape:groupmode="layer"
     id="layer1"
     transform="translate(-52.750417,-66.535264)">
    <path
       style="fill:#ffffff;stroke-width:0.264583"
       d="m 80.040129,171.89938 c -0.317982,-0.25748 -0.95625,-1.18022 -1.418375,-2.05052 l -0.840227,-1.58237 -3.042709,-0.0768 c -1.673489,-0.0422 -3.309618,-0.0104 -3.635841,0.0706 -0.380631,0.0946 -0.8417,0.64347 -1.286933,1.53199 -0.381591,0.76151 -0.877275,1.59293 -1.101521,1.84759 -0.585107,0.66447 -2.047898,0.60563 -2.543768,-0.10233 -0.457091,-0.65259 -0.232885,-1.35693 2.220358,-6.97527 3.229423,-7.39593 4.1913,-8.86354 5.809168,-8.86354 1.870547,0 2.112789,0.3655 5.984292,9.02931 2.726574,6.10164 2.78144,6.31482 1.819865,7.0712 -0.877533,0.69026 -1.214276,0.70742 -1.964309,0.10008 z m -3.263677,-6.49992 c -0.07461,-0.19442 -0.641029,-1.57125 -1.258717,-3.05962 -0.898961,-2.16612 -1.187092,-2.63675 -1.443896,-2.35849 -0.358154,0.38809 -2.245438,4.74417 -2.245438,5.18274 0,0.44437 0.51238,0.54568 2.872579,0.56797 1.742181,0.0165 2.182351,-0.0541 2.075472,-0.3326 z m 29.184588,6.62631 c -0.38992,-0.19727 -0.72906,-0.65591 -0.82859,-1.12058 -0.0927,-0.43263 -0.18258,-3.72477 -0.1998,-7.31585 l -0.0313,-6.52923 0.69714,-0.54837 c 0.64259,-0.50546 1.04113,-0.54788 5.09326,-0.54206 2.41786,0.003 4.86314,0.11463 5.43396,0.24702 2.86001,0.66332 4.35155,3.49077 3.16286,5.99575 -0.48932,1.03116 -1.38866,1.7399 -2.78031,2.19104 l -0.96084,0.31148 1.52537,1.52538 c 1.62985,1.62984 2.9931,3.95821 2.85925,4.88344 -0.0449,0.31053 -0.38615,0.73491 -0.75828,0.94306 -1.05952,0.59266 -1.99136,-0.0374 -3.95756,-2.67571 -2.71274,-3.64007 -3.12522,-3.97884 -5.01044,-4.1152 l -1.60023,-0.11575 v 3.0553 c 0,2.98556 -0.0159,3.06782 -0.69715,3.60368 -0.80816,0.63569 -1.04875,0.66122 -1.94734,0.2066 z m 8.8641,-9.76139 c 0.80691,-0.36766 1.29468,-1.34504 1.08606,-2.17624 -0.30597,-1.21911 -1.2896,-1.59615 -4.44599,-1.70418 l -2.85968,-0.0979 v 2.31433 2.31434 l 2.80908,-0.18817 c 1.54499,-0.10349 3.07973,-0.31148 3.41053,-0.4622 z m 14.146,9.74371 c -3.49319,-0.75259 -5.77336,-3.15411 -6.3482,-6.68604 -0.45422,-2.79083 0.69942,-6.23303 2.56616,-7.65686 1.92404,-1.46753 3.16537,-1.82819 6.30292,-1.83126 2.65269,-0.003 3.04354,0.0625 4.41368,0.73536 3.53004,1.73351 5.22732,5.84472 4.06441,9.84498 -0.92774,3.19131 -2.74922,4.84243 -6.13293,5.55933 -2.13671,0.4527 -2.8998,0.45811 -4.86604,0.0345 z m 5.00294,-3.09424 c 2.00191,-1.12513 2.98335,-3.71955 2.42482,-6.40997 -0.37227,-1.7932 -1.27038,-2.97654 -2.77927,-3.66193 -2.06161,-0.93646 -4.923,-0.3773 -6.16788,1.2053 -0.71748,0.91213 -1.2237,3.35067 -1.01367,4.88301 0.26887,1.96162 1.09187,3.35104 2.3554,3.97648 1.50141,0.74319 3.86516,0.74644 5.1806,0.007 z m 10.36166,3.11694 c -0.35751,-0.18092 -0.7326,-0.62565 -0.83352,-0.98829 -0.22985,-0.8259 -0.28772,-12.219 -0.0688,-13.54313 0.19232,-1.16322 0.96393,-1.536 3.17932,-1.536 1.05258,0 1.54855,0.13282 1.93352,0.51779 0.29068,0.29068 1.19497,2.62352 2.06173,5.31874 l 1.54394,4.80096 1.4418,-4.58069 c 0.86813,-2.75812 1.68889,-4.87434 2.06283,-5.31874 0.55815,-0.66333 0.78918,-0.73806 2.28162,-0.73806 1.29969,0 1.81811,0.1239 2.38533,0.57008 l 0.72474,0.57007 -0.0937,7.12624 -0.0937,7.12625 -0.64473,0.52204 c -0.65293,0.52869 -1.68505,0.4963 -2.26568,-0.0711 -0.15173,-0.14827 -0.32101,-2.70774 -0.39688,-6.00055 -0.0728,-3.1581 -0.2134,-5.50387 -0.31254,-5.21283 -0.0991,0.29104 -0.79696,2.63276 -1.55073,5.20383 -0.75377,2.57107 -1.5917,5.03842 -1.86207,5.483 -0.97783,1.60792 -2.8337,1.33077 -3.67523,-0.54885 -0.2724,-0.60843 -1.06376,-3.11167 -1.75857,-5.56274 -0.69481,-2.45107 -1.34588,-4.30462 -1.44683,-4.11899 -0.10095,0.18562 -0.2313,2.64259 -0.28966,5.45993 -0.0965,4.65746 -0.15176,5.15581 -0.60894,5.49011 -0.61396,0.44894 -0.87772,0.4537 -1.71317,0.0309 z m 20.12288,0.003 c -1.28904,-0.66543 -1.26223,-0.92664 0.52482,-5.11347 0.92631,-2.17021 2.46124,-5.49364 3.41097,-7.38541 1.91449,-3.81348 2.29386,-4.14913 4.16677,-3.6865 0.96254,0.23776 1.06862,0.38433 2.86178,3.95389 1.0242,2.03884 2.56569,5.35189 3.42553,7.36232 1.67179,3.90888 1.69402,4.20643 0.3632,4.86092 -1.14085,0.56106 -1.76906,0.15402 -2.74102,-1.77604 -0.49413,-0.98122 -1.09285,-1.85865 -1.33049,-1.94984 -0.23763,-0.0912 -1.89739,-0.16579 -3.68834,-0.16579 h -3.25627 l -0.94238,1.98438 c -0.51831,1.0914 -1.05757,1.98437 -1.19836,1.98437 -0.14079,0 -0.41455,0.0583 -0.60835,0.12962 -0.19381,0.0713 -0.63834,-0.018 -0.98786,-0.19844 z m 9.64193,-6.56292 c 0.18992,-0.30729 -1.96647,-5.80366 -2.27694,-5.80366 -0.10483,0 -0.25319,0.14882 -0.3297,0.33073 -2.07121,4.92445 -2.24582,5.46188 -1.81191,5.57689 0.92781,0.24592 4.25063,0.16774 4.41855,-0.10396 z m 10.01421,6.63712 c -0.30717,-0.12412 -0.63239,-0.4182 -0.72269,-0.65352 -0.0903,-0.23531 -0.24429,-3.55593 -0.34221,-7.37915 l -0.17804,-6.95131 0.76455,-0.60139 c 0.73836,-0.58079 0.91875,-0.59841 5.26635,-0.51434 5.13948,0.0994 6.04924,0.36418 7.19389,2.09386 1.41038,2.13123 0.95976,4.89757 -1.03291,6.34106 -1.23199,0.89245 -1.95401,1.0575 -5.59422,1.27881 l -2.67954,0.1629 -0.13229,2.73632 c -0.11959,2.47349 -0.19229,2.78481 -0.75692,3.24115 -0.68122,0.55057 -0.94236,0.58648 -1.78597,0.24561 z m 7.9487,-9.36185 c 0.85619,-0.561 1.29702,-1.75404 0.96795,-2.61957 -0.45497,-1.19664 -1.35124,-1.56473 -3.91908,-1.6095 l -2.32239,-0.0405 -0.0766,2.48724 -0.0766,2.48723 2.41414,-0.1564 c 1.44113,-0.0934 2.65534,-0.31444 3.01258,-0.54851 z m -102.718329,8.8553 c -1.997131,-0.68982 -3.221874,-1.78745 -4.270156,-3.82697 -0.805823,-1.56779 -0.908269,-1.99924 -0.905401,-3.81306 0.0076,-4.80672 3.145716,-7.8683 8.399851,-8.19499 3.619945,-0.22509 6.323021,0.76529 7.917465,2.90088 0.66235,0.88714 0.4276,1.91874 -0.550343,2.41845 -0.911854,0.46594 -1.514038,0.23964 -2.708145,-1.01775 -1.302343,-1.37135 -2.116296,-1.72371 -3.98177,-1.72371 -2.023684,0 -3.250139,0.55479 -4.236461,1.91636 -1.795754,2.47897 -1.526188,5.8796 0.636148,8.02514 0.941525,0.93422 1.310415,1.11538 2.563411,1.25894 1.737066,0.19902 4.305482,-0.17109 5.184587,-0.7471 0.501401,-0.32853 0.627835,-0.64306 0.627835,-1.5619 v -1.15053 l -2.156034,-0.12482 c -1.694963,-0.0981 -2.232343,-0.22916 -2.512859,-0.61279 -0.299683,-0.40984 -0.298889,-0.57536 0.005,-1.03366 0.32875,-0.49585 0.66625,-0.55244 3.695637,-0.61968 4.264664,-0.0947 4.407874,0.006 4.407874,3.10426 0,2.54387 -0.3228,3.336 -1.63157,4.00368 -2.65022,1.35204 -7.757499,1.74136 -10.485035,0.79925 z m 25.610429,-23.42105 c -4.62031,-1.21409 -14.28757,-4.71514 -14.28757,-5.17433 0,-0.10244 1.33946,-0.56118 2.97658,-1.01943 19.30394,-5.40342 37.47957,-6.58686 61.44954,-4.00105 2.76489,0.29827 5.32474,0.63958 5.68854,0.75847 0.59184,0.19342 0.53614,0.23338 -0.52917,0.37963 -0.65484,0.0899 -4.22672,0.28704 -7.9375,0.4381 -3.71078,0.15106 -7.69937,0.39485 -8.86354,0.54176 -7.14863,0.9021 -16.19046,3.50804 -24.81898,7.15305 l -3.69924,1.5627 -3.86485,-0.024 c -3.09621,-0.0192 -4.31212,-0.1415 -6.11381,-0.61493 z m -19.976116,-7.48996 c -2.873029,-0.40563 -22.127447,-6.83984 -23.942581,-8.00084 -0.668703,-0.42771 -0.02042,-0.75026 3.181043,-1.58269 5.729643,-1.48981 12.782328,-2.48638 23.804246,-3.36363 8.220458,-0.65427 26.363698,-0.65748 31.882368,-0.006 15.5087,1.83182 30.18505,4.45388 43.92084,7.84683 6.94932,1.7166 14.80166,3.94532 14.60238,4.14459 -0.0489,0.0489 -4.66411,-0.73373 -10.25605,-1.73916 -18.09561,-3.25359 -23.3302,-3.90426 -33.4505,-4.15794 -12.97755,-0.32532 -20.2185,0.56812 -35.71878,4.40722 -10.007676,2.47869 -11.714916,2.77712 -14.022966,2.45125 z m 76.527576,-10.67645 c -2.20933,-3.76303 -8.97604,-16.29095 -11.06476,-20.48532 -1.57806,-3.16892 -1.88519,-4.0168 -2.12546,-5.86779 -0.99401,-7.657376 4.20176,-14.685866 12.09214,-16.357437 2.28358,-0.483775 2.9561,-0.483767 5.2685,6.1e-5 5.6265,1.177245 10.26194,5.454322 11.88076,10.962256 0.60887,2.07165 0.55204,5.46628 -0.12557,7.50095 -0.89407,2.6846 -9.02247,18.19043 -12.30515,23.47342 -2.30996,3.71755 -1.93877,3.63821 -3.62046,0.77386 z m 4.20281,-24.01036 c 2.7096,-1.39326 3.87155,-4.21171 2.9729,-7.211142 -1.01836,-3.398989 -4.99918,-4.946449 -8.3847,-3.259376 -2.27943,1.135888 -3.42443,3.230716 -3.12905,5.724718 0.272,2.29668 1.90713,4.41234 4.01054,5.18918 1.09627,0.40487 3.3001,0.18919 4.53031,-0.44338 z M 74.334819,123.54209 c -0.610487,-4.03854 -0.424324,-10.92296 0.400394,-14.80685 3.891244,-18.325224 18.130453,-34.00336 36.383877,-40.060533 5.48014,-1.818516 7.67754,-2.140657 14.59366,-2.13944 7.08804,0.0012 9.49758,0.316527 14.25976,1.865831 5.78223,1.881161 12.32061,5.492782 17.71326,9.784315 2.44363,1.944663 7.19536,6.483976 7.60467,7.264703 0.1531,0.292028 -0.36423,-0.07261 -1.14961,-0.810318 -5.55409,-5.216917 -13.48203,-9.217245 -21.40402,-10.800176 -7.18426,-1.435524 -15.91163,-1.197849 -23.01875,0.626876 -5.31058,1.363474 -12.38659,4.659597 -16.92375,7.883389 -3.166314,2.24976 -8.104895,7.172685 -10.288123,10.255494 -2.042432,2.883995 -4.808328,8.391829 -5.857269,11.663799 -1.70253,5.31072 -2.588207,12.26551 -2.260632,17.75169 0.176263,2.95203 0.17408,2.96755 -0.436679,3.10266 -1.258451,0.27839 -8.347482,1.47109 -8.743722,1.47109 -0.322001,0 -0.512104,-0.66466 -0.873066,-3.05253 z m 60.263511,0.90378 c -0.84075,-0.24269 -0.85292,-0.26704 -0.48402,-0.96833 0.8517,-1.61911 7.16769,-7.22423 10.93761,-9.70657 2.27507,-1.49804 0.91943,-1.49176 -2.21559,0.0103 -1.03668,0.49668 -3.77511,2.28405 -6.08542,3.97194 -5.06016,3.6969 -5.1266,3.73652 -5.1266,3.05778 0,-1.07857 1.08749,-3.93629 2.02596,-5.32382 3.01454,-4.45703 7.73162,-7.02901 13.45217,-7.33478 4.48558,-0.23977 6.21789,0.65144 6.2175,3.19865 -2.7e-4,2.36647 -2.48448,6.71652 -5.26108,9.21293 -3.46451,3.11489 -9.794,4.94028 -13.46053,3.88193 z m -13.45831,-1.57137 c -2.6606,-0.25793 -6.47443,-1.50525 -9.09205,-2.97357 -2.46171,-1.38086 -5.83436,-4.64057 -7.53933,-7.28687 -3.12157,-4.845 -4.829797,-10.35219 -5.273225,-17.000446 l -0.151654,-2.273713 1.021249,-0.305975 c 2.31664,-0.694079 6.18757,-0.279823 9.82345,1.051272 6.21378,2.274877 13.46765,7.843222 16.78353,12.883652 1.99359,3.03043 2.65141,5.15695 2.63352,8.51327 -0.008,1.52797 -0.15662,3.12126 -0.32994,3.54065 -0.3116,0.75398 -0.32138,0.75694 -0.87341,0.26458 -0.30705,-0.27387 -2.03768,-2.22435 -3.84584,-4.3344 -3.87909,-4.52676 -9.95963,-10.75774 -11.9161,-12.21092 -1.58731,-1.17897 -3.68231,-2.34116 -4.22028,-2.34116 -0.63522,0 -0.0443,0.74274 4.32379,5.4346 5.39277,5.79252 6.83281,7.45583 8.69542,10.04352 1.68178,2.33647 2.90995,4.76142 3.18261,6.28386 0.20309,1.13399 0.48724,1.07122 -3.22174,0.71165 z"
       id="path516" />
  </g>
</svg>
