<?xml version="1.0" encoding="UTF-8" standalone="no"?>
<!-- Created with Inkscape (http://www.inkscape.org/) -->

<svg
   width="157.15216mm"
   height="116.37961mm"
   viewBox="0 0 157.15216 116.37961"
   version="1.1"
   id="svg5"
   inkscape:version="1.1.2 (0a00cf5339, 2022-02-04)"
   sodipodi:docname="29.html"
   xmlns:inkscape="http://www.inkscape.org/namespaces/inkscape"
   xmlns:sodipodi="http://sodipodi.sourceforge.net/DTD/sodipodi-0.dtd"
   xmlns="http://www.w3.org/2000/svg"
   xmlns:svg="http://www.w3.org/2000/svg">
  <sodipodi:namedview
     id="namedview7"
     pagecolor="#ffffff"
     bordercolor="#666666"
     borderopacity="1.0"
     inkscape:pageshadow="2"
     inkscape:pageopacity="0.0"
     inkscape:pagecheckerboard="0"
     inkscape:document-units="mm"
     showgrid="false"
     inkscape:snap-global="false"
     width="157.15216mm"
     inkscape:zoom="0.71310941"
     inkscape:cx="192.81754"
     inkscape:cy="-83.437407"
     inkscape:window-width="1920"
     inkscape:window-height="1016"
     inkscape:window-x="0"
     inkscape:window-y="0"
     inkscape:window-maximized="1"
     inkscape:current-layer="layer1" />
  <defs
     id="defs2" />
  <g
     inkscape:label="Capa 1"
     inkscape:groupmode="layer"
     id="layer1"
     transform="translate(-37.679368,-64.134068)">
    <path
       id="path141"
       style="fill:#ffffff;stroke-width:0.264583"
       d="m 134.73867,179.91147 c 0.64101,-0.33148 0.83665,-0.60826 0.83665,-1.18362 v -0.75097 l -1.25677,0.64635 c -2.15257,1.10705 -4.58084,0.49897 -5.46731,-1.36912 -0.57369,-1.20897 -0.55023,-3.98099 0.0438,-5.17004 0.90714,-1.81587 3.24823,-2.33868 5.45949,-1.2192 l 1.2501,0.63288 -0.0808,-0.82948 c -0.11196,-1.14966 -1.15034,-1.62691 -3.53979,-1.62691 -1.59894,0 -2.03171,0.10602 -2.97134,0.72791 -1.60395,1.06155 -2.27066,2.5105 -2.28352,4.96275 -0.009,1.70384 0.0938,2.16432 0.72201,3.23628 0.72881,1.24362 1.18675,1.62481 2.70019,2.24763 1.01785,0.41887 3.50816,0.25359 4.58731,-0.30446 z m 14.41406,0.25594 c 1.88236,-0.67133 3.02823,-2.33088 3.27537,-4.74366 0.26728,-2.60946 -0.83121,-4.91369 -2.82191,-5.91936 -3.70461,-1.87151 -7.39486,0.70197 -7.41047,5.16787 -0.009,2.68299 0.97533,4.42693 3.03689,5.37841 1.24822,0.57608 2.5255,0.61412 3.92012,0.11674 z m -3.14795,-1.19593 c -2.73513,-1.10648 -2.98337,-6.7599 -0.36475,-8.30675 1.60117,-0.94584 3.91645,-0.17221 4.63559,1.54893 0.20952,0.50146 0.38095,1.63377 0.38095,2.51625 0,0.88247 -0.17143,2.01478 -0.38095,2.51624 -0.65404,1.56533 -2.66159,2.37634 -4.27084,1.72533 z m -71.019154,-3.58012 v -4.89479 h 1.984375 c 1.940277,0 1.984375,-0.0147 1.984375,-0.66146 v -0.66145 h -4.7625 -4.762499 v 0.66145 c 0,0.64676 0.0441,0.66146 1.984375,0.66146 h 1.984374 v 4.89479 4.8948 h 0.79375 0.79375 z m 17.330208,4.23334 c 0,-0.4917 -0.201422,-0.53449 -2.844271,-0.60427 l -2.844271,-0.0751 v -1.97543 -1.97542 h 2.645834 2.645833 v -0.66146 -0.66146 h -2.645833 -2.645834 v -1.5875 -1.5875 h 2.778125 2.778125 v -0.66146 -0.66145 h -3.571875 -3.571874 v 5.56371 5.56372 l 3.63802,-0.0736 c 3.437094,-0.0696 3.638021,-0.10284 3.638021,-0.60278 z m 14.155246,0 v -0.66146 h -2.64586 -2.64584 v -4.89479 -4.89479 h -0.79376 -0.793745 v 5.55625 5.55625 h 3.439595 3.43961 z m 13.49382,0 v -0.66146 h -2.77814 -2.77814 v -1.98438 -1.98437 h 2.64585 2.64584 v -0.66146 -0.66146 h -2.64584 -2.64585 v -1.5875 -1.5875 h 2.77814 2.77814 v -0.66146 -0.66145 h -3.5719 -3.57188 v 5.55625 5.55625 h 3.57188 3.5719 z m 41.01042,-4.01285 c 0,-2.57087 0.0694,-4.60488 0.15428,-4.52003 0.0848,0.0849 0.72732,1.68228 1.42771,3.54983 1.21905,3.25056 1.30744,3.39901 2.07008,3.47662 0.74916,0.0762 0.8312,-0.0105 1.37601,-1.4552 0.31864,-0.84496 0.89525,-2.36973 1.28136,-3.38837 l 0.70202,-1.85209 0.0725,4.43178 0.0726,4.43177 h 0.78735 0.78735 v -5.55625 -5.55625 h -1.12942 -1.12942 l -1.28446,3.44413 c -0.70645,1.89428 -1.36048,3.49112 -1.4534,3.54855 -0.0929,0.0574 -0.7587,-1.49244 -1.47952,-3.44414 l -1.31058,-3.54854 h -1.13368 -1.13369 v 5.55625 5.55625 h 0.66146 0.66146 z m 1.64433,-11.71056 c 1.09645,-0.28043 3.05735,-1.04413 4.35754,-1.69713 2.04342,-1.02627 2.42312,-1.32489 2.79996,-2.20212 1.0882,-2.53317 1.51657,-6.55634 1.00864,-9.47307 -0.43117,-2.47597 -0.86709,-3.23093 -2.0744,-3.59265 -0.88454,-0.26502 -1.32178,-0.18973 -4.03335,0.69446 -5.29485,1.72655 -8.69569,1.50478 -12.56626,-0.81947 -3.11982,-1.87342 -5.06851,-4.52641 -6.11813,-8.32932 -0.74092,-2.68444 -0.67813,-8.71668 0.1197,-11.50009 1.28168,-4.47144 3.4696,-7.29363 6.93821,-8.94958 3.69164,-1.76242 6.10839,-1.87635 11.22964,-0.52938 3.41509,0.89822 3.95412,0.77578 4.88843,-1.11038 0.56884,-1.14837 0.6675,-1.76336 0.76021,-4.73878 0.13786,-4.42467 -0.18379,-5.92667 -1.59768,-7.46055 -1.81132,-1.96506 -5.37324,-2.85813 -11.32559,-2.83967 -3.87628,0.012 -6.2994,0.55715 -9.69802,2.18173 -3.21753,1.53801 -4.90417,2.70766 -7.46682,5.17805 -5.16192,4.97611 -8.58596,11.56401 -9.98066,19.20293 -0.62197,3.40662 -0.62507,9.87491 -0.006,13.04592 1.23018,6.30378 3.47783,10.78411 7.55853,15.06671 4.04724,4.24748 10.26977,7.37872 16.28593,8.19524 2.42305,0.32886 7.02318,0.16237 8.92037,-0.32285 z M 85.833542,140.90123 v -22.187 l 1.785938,-0.16674 c 8.3708,-0.78152 12.45535,-5.26518 12.81252,-14.06446 l 0.0859,-2.11667 -20.835936,-0.0678 -20.835936,-0.0678 v 8.20369 8.20369 h 5.68854 5.688543 v 22.225 22.225 h 7.805208 7.805207 z m 34.395948,3.13701 v -19.05 H 109.14583 98.062189 l -0.189632,5.09323 c -0.104296,2.80127 -0.147071,5.39088 -0.09505,5.75468 l 0.09458,0.66146 3.373443,0.074 3.37345,0.074 v 13.22127 13.22126 h 7.80525 7.80526 z m 1.13646,-31.3798 c 0,4.97443 -4.03258,9.00699 -9.00701,9.00696 -4.97443,3e-5 -9.00701,-4.03253 -9.00701,-9.00696 0,-4.97443 4.03258,-9.00699 9.00701,-9.00696 4.97443,-3e-5 9.00701,4.03253 9.00701,9.00696 z m 18.04213,-14.30415 c -1.7403,-1.999871 -3.48909,-3.991604 -5.26786,-5.957208 -4.82482,-5.331606 -10.70978,-8.098383 -19.05417,-8.958196 -3.29595,-0.339617 -6.64371,-0.222383 -7.97073,0.279127 -3.74756,1.416283 -4.41797,7.139469 -1.11646,9.531059 1.17383,0.850315 1.72048,0.952447 6.96739,1.301753 5.44695,0.362624 9.04195,1.694971 12.42261,4.603941 0.58209,0.50087 3.30966,3.362294 3.42155,3.488454 4.50944,5.08492 12.4331,-2.786166 10.59767,-4.28893 z m 15.35878,-6.469961 c 1.14482,-1.519867 -1.61888,-4.930788 -2.98362,-7.108028 -2.1751,-3.470047 -4.65402,-6.328486 -8.12346,-9.217374 -9.24898,-7.701309 -19.73033,-11.424859 -32.15966,-11.424859 -4.88226,0 -6.48116,0.791639 -7.30204,3.615354 -0.46836,1.611085 -0.24684,2.821988 0.79587,4.350478 1.04178,1.527119 2.00537,1.825164 6.84533,2.11728 2.35902,0.142378 5.36213,0.427882 6.67355,0.63445 8.19151,1.290288 15.74141,5.19217 21.65345,11.190763 l 1.81284,1.839376 4.47934,5.874636 c 1.7373,2.278462 6.99121,-0.123394 8.3084,-1.872076 z"
       sodipodi:nodetypes="sscsscscssscssssssscssssssssccsscccssccccccssccccccccccccccccccccsccccccccccccccccccccccccccccccccccccccscscsscccccccccssscccccccscssssssssssssssssscssccccssccccccccccccccccssccccccccscscsccsssssscsassssssscss" />
  </g>
</svg>
