<svg width="337" height="79" viewBox="0 0 337 79" fill="none" xmlns="http://www.w3.org/2000/svg">
<path d="M103.428 78.0483C97.764 76.0098 96.4334 74.7045 94.2852 69.0795C92.1315 63.4402 92.7058 54.5825 95.5019 50.3152C101.888 40.5684 117.812 41.507 122.032 51.879L123.484 55.4478H120.038C117.773 55.4478 115.721 54.5071 114.048 52.7026C109.498 47.7925 102.47 49.6201 100.834 56.1389C99.5882 61.1027 101.106 68.9305 103.726 71.0518C107.209 73.8725 110.08 73.4858 113.596 69.7226C115.488 67.6968 117.772 66.4284 119.526 66.4284C122.788 66.4284 123.033 67.4714 120.789 71.8102C117.655 77.8705 110.288 80.5175 103.428 78.0483V78.0483ZM0.495117 53.8942V29.2813L5.71092 25.5129C8.57957 23.4402 17.9086 16.9809 26.4421 11.1589L41.9575 0.573273L57.4624 11.7386L72.9672 22.9039V27.634V32.3641L57.443 21.2222C46.3719 13.2764 41.492 10.3663 40.4309 11.0773C39.6126 11.6257 32.0368 16.7685 23.5959 22.5059L8.2487 32.9375L8.21544 51.879L8.18218 70.8206H40.575H72.9679V74.6639V78.5071H36.7318H0.495723L0.495117 53.8942ZM127.555 77.8254C127.124 77.3951 126.772 69.7134 126.772 60.7551V44.4671H130.616H134.459V50.5065V56.5458H140.498H146.537V50.5065V44.4671H150.409H154.281L153.978 61.2126L153.675 77.9581H150.381H147.087L146.762 70.5461L146.438 63.1342H140.499H134.56L134.235 70.5461C133.928 77.5639 133.762 77.9753 131.124 78.2829C129.592 78.4618 127.986 78.2527 127.556 77.8254H127.555ZM242.175 77.1183C237.398 74.6634 235.064 70.2386 234.649 62.8479C233.961 50.6174 240.8 42.6971 251.21 43.6669C260.162 44.501 265.043 49.8529 265.952 59.8298C266.992 71.2427 260.933 78.5213 250.416 78.4909C247.335 78.4818 243.626 77.8643 242.175 77.1183ZM255.521 70.8399C257.087 69.608 258.601 66.9934 259.01 64.8168C259.942 59.8467 257.949 52.5024 255.28 51.0742C251.839 49.2322 245.894 49.7467 243.793 52.0683C241.604 54.4871 240.363 61.6633 241.412 65.8409C243.106 72.5908 250.131 75.0797 255.521 70.8399V70.8399ZM276.902 76.1622C272.371 72.7826 270.265 67.8556 270.258 60.6215C270.249 53.5038 272.142 50.0265 278.294 45.8397C285.04 41.2483 295.396 43.6607 299.506 50.781L301.566 54.3497H298.073C295.798 54.3497 293.896 53.5068 292.623 51.934C290.023 48.7233 283.529 48.6377 280.394 51.773C277.985 54.1812 276.521 61.3508 277.578 65.5605C279.433 72.9522 288.173 75.6248 292.5 70.1237C295.639 66.1329 295.377 65.3304 290.933 65.3304C287.565 65.3304 287.089 64.9906 287.089 62.5853C287.089 59.9387 287.345 59.8401 294.227 59.8401H301.364V68.6246V77.4091H298.07C296.258 77.4091 294.776 76.887 294.776 76.2488C294.776 75.5984 293.703 75.8396 292.335 76.7978C288.795 79.2773 280.627 78.9409 276.902 76.1623V76.1622ZM159.714 60.9381V44.4671H171.793H183.872V47.2123C183.872 49.9117 183.725 49.9574 175.087 49.9574H166.302V53.8006V57.6439H174.538C182.59 57.6439 182.773 57.705 182.773 60.3891C182.773 63.0732 182.59 63.1342 174.538 63.1342H166.302V67.5264V71.9187H175.636C184.86 71.9187 184.97 71.952 184.97 74.6639V77.409H172.342H159.714V60.9381ZM203.637 60.8352V44.2614L214.716 44.6386C224.799 44.9822 225.984 45.249 227.893 47.6083C230.508 50.84 230.622 57.3222 228.112 60.095C226.546 61.8258 226.488 62.3266 227.762 63.1138C228.692 63.689 229.477 66.6645 229.772 70.7333L230.254 77.4089H226.968C223.825 77.4089 223.658 77.1686 223.152 71.8944C222.86 68.8615 222.314 66.0723 221.938 65.6962C221.562 65.3202 218.773 64.774 215.74 64.4826L210.225 63.9527V70.6808V77.4089H206.931H203.637V60.835L203.637 60.8352ZM223.363 56.618C224.833 53.8712 224.816 53.7244 222.774 51.683C221.672 50.5811 219.093 49.9575 215.637 49.9575H210.225V54.3497V58.7419H216.226C221.035 58.7419 222.452 58.3201 223.363 56.618V56.618ZM309.546 63.9578C317.191 42.5105 316.159 44.2856 320.749 44.6753C324.226 44.9703 324.948 45.5322 326.127 48.8594C326.876 50.9732 329.474 58.2888 331.9 65.1164L336.311 77.5302L332.332 77.1953C329.121 76.9248 328.231 76.3309 327.716 74.115C327.14 71.6322 326.476 71.3382 320.772 71.0394C314.615 70.7169 314.438 70.7882 313.298 74.059C312.308 76.8973 311.566 77.4092 308.441 77.4092H304.752L309.546 63.9578ZM323.745 62.3107C323.349 60.6499 322.439 57.8102 321.724 56.0004L320.422 52.7098L318.58 58.1176C316.134 65.2941 316.145 65.3303 320.601 65.3303C324.259 65.3303 324.427 65.1694 323.745 62.3107V62.3107ZM12.5738 51.1294V35.8304L26.4893 26.24C34.1427 20.9652 40.9811 16.6496 41.6856 16.6496C42.3901 16.6496 49.7121 21.3026 57.9567 26.9897C72.6978 37.1579 72.9471 37.3982 72.9571 41.4475L72.9662 45.5652H57.5933H42.2204V52.7026V59.84H57.5933H72.9662V63.1342V66.4284H52.652H32.3379V55.9968V45.5652H26.8476H21.3572V55.9968V66.4284H16.965H12.5728L12.5738 51.1294Z" fill="white"/>
</svg>
