<?xml version="1.0" encoding="UTF-8" standalone="no"?>
<!-- Created with Inkscape (http://www.inkscape.org/) -->

<svg
   width="138.73521mm"
   height="54.961147mm"
   viewBox="0 0 138.73521 54.961148"
   version="1.1"
   id="svg5"
   inkscape:version="1.1.2 (0a00cf5339, 2022-02-04)"
   sodipodi:docname="30.html"
   xmlns:inkscape="http://www.inkscape.org/namespaces/inkscape"
   xmlns:sodipodi="http://sodipodi.sourceforge.net/DTD/sodipodi-0.dtd"
   xmlns="http://www.w3.org/2000/svg"
   xmlns:svg="http://www.w3.org/2000/svg">
  <sodipodi:namedview
     id="namedview7"
     pagecolor="#ffffff"
     bordercolor="#666666"
     borderopacity="1.0"
     inkscape:pageshadow="2"
     inkscape:pageopacity="0.0"
     inkscape:pagecheckerboard="0"
     inkscape:document-units="mm"
     showgrid="false"
     inkscape:snap-global="false"
     width="157.15216mm"
     inkscape:zoom="0.71310941"
     inkscape:cx="166.17366"
     inkscape:cy="-159.16211"
     inkscape:window-width="1920"
     inkscape:window-height="1016"
     inkscape:window-x="0"
     inkscape:window-y="0"
     inkscape:window-maximized="1"
     inkscape:current-layer="layer1" />
  <defs
     id="defs2" />
  <g
     inkscape:label="Capa 1"
     inkscape:groupmode="layer"
     id="layer1"
     transform="translate(-44.584164,-84.069334)">
    <path
       style="fill:#ffffff;stroke-width:0.611276"
       d="m 59.569094,134.15486 c -4.706829,-2.64171 -9.93324,-5.57789 -11.61425,-6.52485 l -3.056382,-1.72173 -0.157149,-14.64509 -0.157149,-14.645106 5.047367,-2.617772 c 2.776054,-1.439755 8.244415,-4.263216 12.151916,-6.274363 l 7.104552,-3.656615 8.78863,5.192849 c 4.83375,2.856083 9.95771,5.879088 11.38656,6.717787 l 2.59793,1.524914 v 4.293986 c 0,2.3617 -0.1146,4.29399 -0.25465,4.29399 -0.54522,0 -14.19711,-8.211253 -15.65898,-9.418473 -0.85175,-0.703382 -2.80242,-1.942923 -4.3348,-2.75459 l -2.78618,-1.475704 -3.611792,2.046634 c -1.986487,1.125642 -3.749331,2.236035 -3.917433,2.467554 -0.1681,0.231519 -2.306875,1.425708 -4.752834,2.653744 l -4.447198,2.232825 0.168262,9.50417 0.168262,9.50419 3.056382,1.70849 c 1.68101,0.93968 5.386564,3.09332 8.234566,4.78592 l 5.178185,3.07744 3.37968,-1.72497 c 1.85883,-0.94874 3.90727,-2.12117 4.5521,-2.60539 1.11072,-0.83408 1.02103,-0.96912 -1.70446,-2.56636 -3.66999,-2.15076 -4.92211,-2.26362 -5.02824,-0.45322 -0.045,0.76711 -0.25476,1.5677 -0.4662,1.77914 -0.67746,0.67746 -2.83702,-1.78521 -2.83702,-3.23525 0,-0.90618 -0.571185,-1.68139 -1.619185,-2.19754 -4.521447,-2.22682 -5.086634,-9.64353 -1.225319,-16.07936 1.210272,-2.0172 2.751754,-4.355331 3.425514,-5.195854 l 1.22501,-1.528172 1.53452,1.833829 c 0.84399,1.0086 2.51888,3.561477 3.72197,5.673057 2.00721,3.52289 2.17587,4.19621 2.04692,8.17191 -0.11967,3.6899 0.0311,4.43526 1.01664,5.02426 0.63643,0.38038 4.04931,2.2145 7.58416,4.07585 3.53485,1.86132 6.5048,3.78816 6.59987,4.28187 0.10743,0.55809 -1.27837,1.68456 -3.66356,2.97793 -2.11004,1.14415 -7.05075,3.96235 -10.97935,6.26263 -3.92861,2.30029 -7.36704,4.14999 -7.64096,4.11044 -0.27392,-0.0395 -4.349079,-2.23331 -9.055907,-4.875 z m 39.266965,-4.06942 c -0.12799,-0.25215 -0.21278,-4.03443 -0.18899,-8.40504 l 0.0437,-7.94659 1.528171,-0.16495 c 1.14475,-0.12361 1.86262,0.33652 2.86096,1.83382 0.73302,1.09938 2.7176,4.00024 4.4102,6.44637 l 3.07743,4.44751 0.17443,-6.23169 c 0.1206,-4.31261 0.4097,-6.30973 0.93846,-6.48511 0.58724,-0.19476 0.7641,1.74925 0.7641,8.39793 0,8.51083 -0.0208,8.64813 -1.31689,8.45598 -0.84662,-0.12568 -2.53839,-1.95445 -4.73739,-5.12136 -1.88128,-2.7093 -4.04521,-5.7351 -4.80876,-6.72402 l -1.38825,-1.79802 0.0672,3.05637 c 0.15017,6.83382 -0.0726,10.69733 -0.616631,10.69733 -0.31638,0 -0.67984,-0.20631 -0.80774,-0.45846 z m 16.085711,-0.61127 c 0.0185,-0.58835 1.20653,-4.37063 2.64189,-8.40504 3.64927,-10.25706 4.14844,-10.2316 8.08156,0.41237 1.64895,4.46245 3.08979,8.32707 3.20187,8.588 0.11205,0.26092 -0.60037,0.4744 -1.58316,0.4744 -1.54275,0 -1.8972,-0.33412 -2.59391,-2.4451 -0.80335,-2.43421 -0.82104,-2.44512 -3.97437,-2.44512 -3.16572,0 -3.16782,0.001 -3.89999,2.44512 -0.74044,2.47139 -1.93315,3.34678 -1.87389,1.37537 z m 7.91443,-6.15669 c 0,-0.27629 -0.46159,-1.85707 -1.02575,-3.51282 l -1.02576,-3.01046 -0.77503,1.89933 c -0.42626,1.04464 -0.95724,2.62542 -1.17996,3.51284 -0.38164,1.52055 -0.27788,1.61349 1.80077,1.61349 1.21316,0 2.20573,-0.22618 2.20573,-0.50238 z m 9.16916,-0.37763 v -7.60405 l -2.15224,-0.18968 c -1.18374,-0.10443 -2.14789,-0.46479 -2.14258,-0.80099 0.005,-0.35147 2.47911,-0.68564 5.8199,-0.78623 4.89391,-0.1474 5.81024,-0.0268 5.81024,0.7641 0,0.66567 -0.62284,0.93905 -2.13949,0.93905 h -2.13946 v 7.64095 7.64095 h -1.5282 -1.52817 z m 10.34467,5.81724 c -1.75981,-1.75981 -1.78681,-1.8891 -1.78681,-8.55785 0,-6.7487 0.005,-6.77106 1.47411,-6.77106 1.45692,0 1.47653,0.079 1.681,6.77922 0.1936,6.34401 0.30355,6.85741 1.71226,7.99701 1.08902,0.88095 2.0166,1.11552 3.35384,0.84808 3.27451,-0.65492 3.67898,-1.57875 3.90558,-8.92057 0.1139,-3.68707 0.45765,-6.70374 0.76409,-6.70374 0.30647,0 0.55721,3.04696 0.55721,6.77106 0,6.66875 -0.027,6.79804 -1.78681,8.55785 -1.51265,1.51264 -2.27023,1.78681 -4.93724,1.78681 -2.667,0 -3.42461,-0.27417 -4.93723,-1.78681 z m 15.32894,-6.77106 v -8.55785 h 3.08672 c 1.69771,0 3.87541,0.40782 4.83932,0.90627 3.20717,1.6585 3.00619,6.5745 -0.30274,7.405 -0.8308,0.20862 -1.51055,0.5119 -1.51055,0.67416 0,0.16218 1.1003,1.86361 2.4451,3.78076 1.34483,1.91714 2.44512,3.68009 2.44512,3.91764 0,0.23754 -0.63504,0.43189 -1.41117,0.43189 -1.05668,0 -2.01637,-0.93707 -3.82047,-3.73045 l -2.40933,-3.73042 -0.18205,3.73042 c -0.17097,3.50279 -0.27346,3.73045 -1.68101,3.73045 h -1.49901 z m 6.37472,-1.57183 c 1.80729,-1.80729 0.80144,-4.62209 -1.94299,-5.43731 -1.31054,-0.38929 -1.37536,-0.24813 -1.37536,2.99466 0,2.95369 0.15571,3.40321 1.17889,3.40321 0.6484,0 1.61116,-0.43226 2.13946,-0.96056 z m 5.55246,9.05997 c 0.24406,-0.58835 1.60429,-4.37063 3.02272,-8.40504 2.05801,-5.85349 2.82987,-7.37267 3.82091,-7.52021 1.06562,-0.15872 1.56197,0.70927 3.49584,6.11275 1.23963,3.46373 2.51332,6.92952 2.83041,7.7018 0.90237,2.19768 0.68756,3.18043 -0.6952,3.18043 -0.91607,0 -1.5403,-0.68377 -2.23218,-2.4451 -0.94872,-2.41518 -0.99931,-2.44512 -4.13301,-2.44512 -3.17167,0 -3.17273,6.9e-4 -3.90511,2.44512 -0.44959,1.50057 -1.10256,2.4451 -1.69033,2.4451 -0.6737,0 -0.82618,-0.31728 -0.51405,-1.06973 z m 8.24494,-6.15669 c 0,-0.27629 -0.45438,-1.83584 -1.00969,-3.46562 l -1.00968,-2.96326 -1.09563,2.70155 c -1.56269,3.85313 -1.47582,4.22971 0.97551,4.22971 1.17672,0 2.13949,-0.22618 2.13949,-0.50238 z m -75.59412,-15.56526 c -4.270681,-2.39474 -5.655861,-9.104598 -2.700781,-13.082534 1.885701,-2.538366 4.001221,-3.360776 8.051151,-3.129858 2.63415,0.150172 3.34072,0.415098 3.51226,1.316799 0.17952,0.943749 -0.0208,1.045704 -1.21683,0.621988 -2.49262,-0.88234 -5.38925,-0.509845 -6.76965,0.870535 -1.93347,1.933497 -2.20418,7.67223 -0.49071,10.40289 1.15304,1.83755 1.50328,2.00419 3.85419,1.83383 l 2.58589,-0.18737 0.30563,-3.6711 c 0.22665,-2.72209 0.54268,-3.670225 1.22256,-3.667661 0.71207,0.0023 0.95667,0.975331 1.09487,4.353761 l 0.1779,4.35031 -1.93537,0.38708 c -2.96446,0.5929 -6.22418,0.42392 -7.69118,-0.39867 z m 15.48526,0.37822 c -0.2241,-0.2241 -0.40752,-4.07518 -0.40752,-8.557852 v -8.150379 h 3.58522 c 4.5756,0 6.80648,1.51119 6.80648,4.610667 0,1.598729 -0.42212,2.388887 -1.83383,3.432605 -1.0086,0.745689 -1.83382,1.515419 -1.83382,1.710499 0,0.195 1.10029,1.68623 2.44512,3.31363 2.83337,3.42879 2.98493,4.04835 0.99034,4.04835 -1.05376,0 -2.19109,-0.96884 -4.12612,-3.51483 l -2.67137,-3.51485 -0.18321,3.51485 c -0.15109,2.89652 -0.37508,3.51483 -1.27348,3.51483 -0.5996,0 -1.27355,-0.18344 -1.4977,-0.40752 z m 6.29502,-9.943984 c 1.00684,-1.881284 0.74097,-3.562769 -0.72577,-4.590106 -2.38794,-1.672568 -2.92038,-1.233096 -2.92038,2.410443 0,3.165853 0.088,3.362023 1.50668,3.362023 0.864,0 1.7766,-0.504346 2.13947,-1.18236 z m 11.9305,9.806954 c -2.05959,-0.89102 -2.70337,-3.12794 -2.87826,-10.001254 l -0.16727,-6.572512 1.52819,0.0023 1.5282,0.0023 V 98.1963 c 0,7.67251 0.45137,8.50596 4.60665,8.50596 3.6769,0 4.25686,-1.19328 4.25686,-8.758826 0,-5.548087 0.14486,-6.523095 0.96951,-6.523095 0.84078,0 0.94222,0.931389 0.7641,7.014341 -0.18298,6.24992 -0.35136,7.16006 -1.54449,8.35175 -1.47087,1.4691 -6.81181,2.17925 -9.06354,1.20512 z m 16.03174,0.16288 c -0.23831,-0.23831 -0.4333,-4.10096 -0.4333,-8.583633 v -8.150379 h 3.70786 c 5.55991,0 7.26963,1.161198 7.28576,4.9483 0.0115,2.785734 -1.62227,4.335482 -5.05566,4.794622 l -2.57594,0.34447 -0.0554,3.36137 c -0.0469,2.84137 -0.23986,3.38899 -1.2477,3.53997 -0.65577,0.0982 -1.38729,-0.0162 -1.6256,-0.25472 z m 7.09334,-9.383633 c 0.27333,-0.252358 0.52266,-1.362728 0.55408,-2.467508 0.064,-2.251283 -1.48559,-3.81813 -3.4917,-3.530562 -1.00615,0.144165 -1.26121,0.715349 -1.41714,3.17313 -0.12591,1.98548 0.0804,3.167263 0.61129,3.500898 0.81911,0.514766 2.85119,0.147862 3.74347,-0.675958 z m 11.11705,8.918193 c -2.42871,-1.05848 -3.18399,-2.05654 -3.87138,-5.11598 -0.76003,-3.382679 0.16311,-7.557594 2.06657,-9.345794 1.84263,-1.731042 7.26069,-2.353886 10.13166,-1.16471 3.50944,1.453664 5.18388,7.445034 3.32443,11.895344 -1.65748,3.96691 -7.10645,5.71186 -11.65128,3.73114 z m 7.61739,-2.32447 c 1.00305,-1.07664 1.24636,-2.15605 1.24636,-5.529259 0,-3.635151 -0.19916,-4.390608 -1.50041,-5.691881 -1.98356,-1.983562 -4.40144,-1.93121 -6.56555,0.142085 -1.49964,1.436775 -1.71446,2.095082 -1.71446,5.254304 0,4.910901 1.54289,7.162501 4.90803,7.162501 1.66083,0 2.75614,-0.40412 3.62603,-1.33782 z"
       id="path2652" />
  </g>
</svg>
