<?xml version="1.0" encoding="UTF-8" standalone="no"?>
<!-- Created with Inkscape (http://www.inkscape.org/) -->

<svg
   width="106.06197mm"
   height="48.237221mm"
   viewBox="0 0 106.06197 48.237221"
   version="1.1"
   id="svg5"
   inkscape:version="1.1.2 (0a00cf5339, 2022-02-04)"
   sodipodi:docname="31.html"
   xmlns:inkscape="http://www.inkscape.org/namespaces/inkscape"
   xmlns:sodipodi="http://sodipodi.sourceforge.net/DTD/sodipodi-0.dtd"
   xmlns="http://www.w3.org/2000/svg"
   xmlns:svg="http://www.w3.org/2000/svg">
  <sodipodi:namedview
     id="namedview7"
     pagecolor="#ffffff"
     bordercolor="#666666"
     borderopacity="1.0"
     inkscape:pageshadow="2"
     inkscape:pageopacity="0.0"
     inkscape:pagecheckerboard="0"
     inkscape:document-units="mm"
     showgrid="false"
     inkscape:zoom="0.69664703"
     inkscape:cx="257.66277"
     inkscape:cy="172.97138"
     inkscape:window-width="1920"
     inkscape:window-height="1016"
     inkscape:window-x="0"
     inkscape:window-y="0"
     inkscape:window-maximized="1"
     inkscape:current-layer="layer1" />
  <defs
     id="defs2" />
  <g
     inkscape:label="Capa 1"
     inkscape:groupmode="layer"
     id="layer1"
     transform="translate(-37.011641,-102.45355)">
    <path
       style="fill:#000000;stroke-width:0.264583"
       id="path41"
       d="" />
    <path
       style="fill:#000000;stroke-width:0.264583"
       id="path21"
       d="" />
    <path
       style="fill:#ffffff;stroke-width:0.136885"
       d="m 117.97905,150.58744 c -3.89388,-0.43629 -7.34549,-1.54883 -10.40721,-3.3545 -1.57753,-0.93035 -2.69406,-1.82591 -4.18862,-3.35963 -1.48515,-1.52405 -2.67124,-3.2187 -3.719123,-5.31377 l -0.712048,-1.42362 -0.03885,1.45784 c -0.02747,1.03079 -0.08762,1.45838 -0.205329,1.45969 -5.141121,0.0576 -27.954104,-0.0312 -27.954104,-0.10876 0,-0.10287 2.433776,-4.22884 3.893388,-6.60045 0.524557,-0.85232 4.961737,-8.22434 5.355365,-8.89752 0.06604,-0.11293 0.367548,-0.62112 0.670023,-1.1293 0.526947,-0.8853 0.537134,-0.92407 0.243449,-0.92638 -4.197063,-0.0329 -8.084765,10e-4 -8.155033,0.071 -0.04993,0.0498 -0.127592,2.56485 -0.17256,5.58901 -0.07355,4.94693 -0.109422,5.59597 -0.357538,6.4705 -0.844647,2.97705 -2.704494,4.67248 -5.946821,5.42112 -1.857307,0.42884 -4.915883,0.42368 -6.549504,-0.0111 -2.685958,-0.71478 -4.294906,-1.8811 -5.194197,-3.76529 -0.291667,-0.6111 -0.600805,-1.44987 -0.686977,-1.86395 -0.242419,-1.1649 -0.424225,-5.0776 -0.399267,-8.5929 0.01247,-1.75227 -0.02121,-3.2298 -0.07482,-3.28338 -0.169378,-0.16938 -9.27588,-0.18131 -9.479379,-0.0124 -0.201715,0.16741 -0.261889,3.0624 -0.06993,3.36456 0.077,0.12121 0.849146,0.17845 2.769822,0.20533 l 2.663064,0.0373 0.0373,2.49815 0.0373,2.49815 h -2.664264 c -1.981093,0 -2.692661,0.0439 -2.775006,0.1711 -0.06091,0.0941 -0.141542,2.14225 -0.179185,4.55142 l -0.06844,4.38032 -3.319458,0.0367 -3.319457,0.0367 v -11.50157 -11.50157 l 11.034315,0.035 11.034315,0.035 -0.01133,6.02293 c -0.01681,8.9138 0.05967,9.63886 1.141022,10.81943 1.31691,1.43773 4.467136,1.3635 5.787371,-0.13636 0.985282,-1.11935 0.992111,-1.18273 0.992111,-9.21239 0,-3.92095 0.03741,-7.22644 0.08308,-7.34553 0.07489,-0.19517 1.269684,-0.21652 12.114312,-0.21652 6.61717,0 12.031224,0.0313 12.031224,0.0695 0,0.0382 -0.438276,0.79282 -0.973946,1.67684 -0.535664,0.88401 -1.089891,1.80908 -1.231607,2.0557 -0.141715,0.24663 -0.606754,1.0166 -1.033416,1.71106 -0.426662,0.69446 -0.922996,1.50905 -1.10296,1.8102 -0.179969,0.30114 -0.725106,1.19432 -1.211414,1.98483 -0.486313,0.79051 -1.139242,1.86847 -1.450962,2.39548 -0.311715,0.52701 -1.150697,1.91297 -1.864406,3.07991 -0.713703,1.16695 -1.323784,2.16791 -1.355731,2.22438 -0.03197,0.0565 2.625074,0.10266 5.904485,0.10266 h 5.962575 v -6.22018 c 0,-3.4211 0.0462,-6.24727 0.10266,-6.28039 0.05647,-0.0331 0.687846,0.0823 1.40307,0.25647 2.554797,0.62214 4.408182,1.03715 4.441231,0.99448 0.01847,-0.0239 0.301181,-0.44376 0.628241,-0.93313 0.779769,-1.16673 2.593149,-2.991 3.612009,-3.6337 1.91406,-1.20741 3.89305,-1.80498 6.41328,-1.93656 1.85496,-0.0968 1.85362,0.0218 0.0155,-1.37317 -6.42719,-4.87762 -14.855414,-8.11779 -24.34998,-9.36118 -5.903016,-0.77305 -16.569269,-0.69986 -21.627809,0.14839 -0.376431,0.0631 -1.146413,0.18896 -1.71106,0.27963 -7.666691,1.23118 -15.191637,3.98995 -20.771039,7.615 -0.620435,0.40311 -1.166961,0.73292 -1.214504,0.73292 -0.288765,0 1.53469,-1.52052 3.392103,-2.82857 3.192306,-2.24813 6.945947,-4.11461 11.612313,-5.77415 1.653985,-0.58823 5.359442,-1.62433 6.638914,-1.85634 0.225859,-0.041 0.995836,-0.19868 1.71106,-0.3505 1.597375,-0.33908 5.997399,-0.90285 8.486863,-1.08742 6.082044,-0.45092 12.674624,-0.26525 19.095435,0.5378 7.57009,0.94679 15.056664,3.36653 20.147344,6.51184 1.99489,1.23256 3.36098,2.2559 5.009,3.75226 1.00446,0.91204 3.0639,3.38235 3.9408,4.72702 l 0.88064,1.35042 0.0408,-1.01355 c 0.0224,-0.55745 0.10697,-1.0933 0.18786,-1.19077 0.18408,-0.2218 5.45993,-0.25591 5.86721,-0.0379 0.14314,0.0766 0.9268,1.01599 1.74145,2.0875 0.81466,1.07152 1.99907,2.62579 2.63203,3.45394 0.63295,0.82816 1.52104,1.99852 1.97354,2.60081 0.4525,0.6023 0.88707,1.16136 0.96572,1.24236 0.0787,0.081 0.72819,0.92554 1.44341,1.87674 0.71522,0.95121 1.3466,1.7319 1.40307,1.73489 0.0565,0.003 0.10266,-2.83214 0.10266,-6.30027 0,-4.08491 0.0499,-6.39895 0.1417,-6.57047 0.1328,-0.24815 0.31121,-0.26464 2.84037,-0.26268 1.48426,0.001 2.77601,0.0512 2.87056,0.11123 0.13615,0.0864 0.16462,2.45655 0.13689,11.39357 -0.0309,9.95888 -0.0591,11.27652 -0.24035,11.2171 -0.11293,-0.037 -1.45819,-0.0986 -2.98946,-0.13688 l -2.78413,-0.0696 -0.29578,-0.35683 c -0.16268,-0.19626 -0.69033,-0.90464 -1.17256,-1.57418 -1.04563,-1.45177 -1.68195,-2.32412 -2.43562,-3.33906 -0.63857,-0.85995 -4.56048,-6.21128 -5.48887,-7.48941 -0.33978,-0.46777 -0.66982,-0.81832 -0.73344,-0.77901 -0.0636,0.0393 -0.11567,3.11816 -0.11567,6.84188 v 6.77039 l -2.97725,-0.0369 -2.97724,-0.0369 -0.0684,-2.80614 -0.0684,-2.80615 -0.39689,0.61599 c -0.2183,0.33879 -0.43424,0.64678 -0.47988,0.68443 -0.0456,0.0377 -0.26305,0.31483 -0.48313,0.61597 -0.63826,0.87338 -2.20002,2.33041 -3.19703,2.98265 -2.7998,1.83162 -6.28707,2.31697 -9.93378,1.38256 -0.44123,-0.11306 -0.84162,-0.16597 -0.88975,-0.11759 -0.0481,0.0484 0.59005,0.74488 1.41821,1.54776 2.94523,2.85535 6.32755,4.72565 10.40325,5.75261 4.90546,1.23604 11.74729,0.82713 16.15241,-0.96538 3.42406,-1.3933 6.16075,-3.18181 8.59351,-5.61612 0.6105,-0.61089 1.06408,-0.87322 0.83601,-0.4835 -0.29695,0.50739 -1.95522,2.37338 -3.01408,3.39162 -3.62186,3.48292 -7.71196,5.53744 -12.80778,6.43356 -1.90509,0.33501 -6.97538,0.48578 -8.93876,0.26578 z m -6.5053,-15.7365 c 4.67983,-1.39371 6.17131,-7.21159 2.73681,-10.67563 -2.51674,-2.5384 -6.40644,-2.54885 -9.01875,-0.0242 -0.45804,0.44267 -0.8328,0.85482 -0.8328,0.9159 0,0.0611 -0.0878,0.20831 -0.19511,0.32716 -0.1073,0.11886 -0.35369,0.68896 -0.54753,1.26688 -0.57099,1.70233 -0.42238,3.58452 0.41024,5.19614 0.2771,0.53636 1.40395,1.73152 2.05466,2.17922 1.47038,1.01165 3.63353,1.33841 5.39248,0.81457 z m -29.461312,11.87874 c -1.828143,-0.4802 -2.122769,-3.12808 -0.438757,-3.9433 1.081427,-0.52351 2.288335,-0.23865 2.912059,0.68733 0.273368,0.40585 0.314664,0.60975 0.270073,1.33366 -0.04615,0.74888 -0.109422,0.91314 -0.511814,1.3283 -0.252544,0.26056 -0.650037,0.51199 -0.883325,0.55873 -0.233283,0.0468 -0.516548,0.10415 -0.629483,0.12756 -0.112929,0.0234 -0.436367,-0.0181 -0.718753,-0.0923 z m 1.075121,-0.93431 c 0.518411,-0.19709 0.729261,-0.52158 0.734362,-1.13014 0.0058,-0.6963 -0.475935,-1.19152 -1.159171,-1.19152 -1.342472,0 -1.617304,1.90114 -0.342213,2.36726 0.306908,0.11219 0.360377,0.10901 0.767022,-0.0456 z m -45.668349,0.8656 c -0.0017,-0.059 -0.0086,-0.96972 -0.01521,-2.02374 l -0.01212,-1.91639 h 0.460092 0.460091 l 0.03798,1.95062 c 0.02089,1.07283 -0.0099,1.95567 -0.06844,1.96186 -0.05853,0.006 -0.275818,0.0391 -0.482856,0.0731 -0.207038,0.034 -0.377827,0.0136 -0.37953,-0.0455 z m 3.082227,-0.0169 c -0.03721,-0.0372 -0.06766,-0.95057 -0.06766,-2.02968 v -1.96201 h 0.594766 c 0.694204,0 0.769425,0.0702 1.610287,1.504 l 0.601086,1.02491 0.03936,-1.26446 0.03936,-1.26445 h 0.473961 0.47396 v 1.97105 1.97104 l -0.607444,0.0483 -0.607442,0.0483 -0.795627,-1.30072 -0.795627,-1.30071 -0.03916,1.25138 -0.03916,1.25137 -0.406492,0.0597 c -0.223571,0.0328 -0.436942,0.0292 -0.474157,-0.008 z m 6.947686,0.0173 c -0.298033,-0.0565 -0.307991,-0.10895 -0.307991,-1.62301 v -1.56466 h -0.54754 c -0.517121,0 -0.547539,-0.0228 -0.547539,-0.41065 v -0.41066 h 1.574176 1.574176 v 0.40239 c 0,0.36618 -0.0462,0.40622 -0.513319,0.44488 l -0.513318,0.0425 -0.06844,1.56317 c -0.03845,0.87829 -0.128416,1.57438 -0.205327,1.58877 -0.07529,0.0141 -0.275481,-5.2e-4 -0.444876,-0.0327 z m 3.661398,-0.0165 c -0.08249,-0.0275 -0.136614,-0.82939 -0.136614,-2.02384 v -1.97821 l 1.40307,0.039 1.40307,0.039 0.04268,0.36999 c 0.04232,0.36668 0.03435,0.37035 -0.88975,0.41066 -0.841735,0.0367 -0.936613,0.07 -0.975302,0.3419 -0.03978,0.2796 0.01919,0.30418 0.821309,0.34221 0.859822,0.0408 0.864168,0.043 0.864168,0.45163 0,0.40814 -0.0053,0.41091 -0.855533,0.45141 -0.801354,0.0382 -0.855527,0.0616 -0.855527,0.37044 0,0.31393 0.04692,0.3316 0.981484,0.3699 0.912473,0.0374 0.983077,0.0623 1.004185,0.35401 0.01247,0.17258 -0.03844,0.35158 -0.113219,0.39779 -0.142429,0.088 -2.457481,0.14311 -2.694033,0.0641 z m 4.859625,-6e-5 c -0.03761,-0.0376 -0.06838,-0.95129 -0.06838,-2.0304 v -1.96202 l 1.197745,0.005 c 1.523331,0.006 1.836535,0.20824 1.836535,1.18709 0,0.54484 -0.06082,0.69869 -0.375401,0.94953 l -0.375402,0.29933 0.443553,0.69122 c 0.490075,0.76372 0.467559,0.98044 -0.09416,0.90624 -0.205853,-0.0272 -0.407463,-0.0537 -0.448029,-0.0589 -0.04056,-0.005 -0.251013,-0.34823 -0.467647,-0.7623 -0.216639,-0.41408 -0.476038,-0.75287 -0.576442,-0.75287 -0.130028,0 -0.182561,0.21665 -0.182561,0.75287 0,0.41407 -0.0462,0.758 -0.10266,0.76428 -0.05647,0.006 -0.241286,0.0268 -0.410711,0.0456 -0.169431,0.0188 -0.338825,0.004 -0.376437,-0.0342 z m 1.827249,-2.47096 c 0.101516,-0.0643 0.162606,-0.23279 0.13575,-0.37434 -0.03554,-0.18732 -0.188226,-0.26893 -0.56101,-0.29985 -0.489329,-0.0406 -0.512181,-0.0238 -0.512181,0.37643 0,0.36626 0.04734,0.41866 0.376436,0.41682 0.207037,-0.001 0.459494,-0.0547 0.561005,-0.11906 z m 3.226423,2.45961 c -0.03151,-0.0313 -0.05732,-0.93994 -0.05732,-2.01905 v -1.96202 h 0.605379 0.605373 l 0.716834,1.16892 c 0.394259,0.64291 0.768621,1.20093 0.83192,1.24005 0.06329,0.0391 0.115076,-0.4869 0.115076,-1.16892 v -1.24005 h 0.479102 0.479096 v 1.9693 1.96929 l -0.437335,0.0642 c -0.667296,0.0979 -0.838992,0.004 -1.266984,-0.69151 -0.217213,-0.35311 -0.553989,-0.90155 -0.748382,-1.21877 -0.194393,-0.31722 -0.39414,-0.57902 -0.443879,-0.58177 -0.04977,-0.003 -0.09181,0.50319 -0.09347,1.12431 -0.0016,0.62111 -0.0071,1.19978 -0.01221,1.28592 -0.0084,0.14352 -0.640037,0.19262 -0.773195,0.0601 z m 5.524169,-0.0304 c -0.111507,-0.0689 -0.114947,-0.14953 -0.0119,-0.27852 0.07977,-0.0999 0.439378,-0.88992 0.799135,-1.75572 0.771078,-1.85569 0.811624,-1.91639 1.280166,-1.91639 0.274951,0 0.407312,0.10555 0.557854,0.44488 1.275453,2.87488 1.504959,3.44867 1.413355,3.53353 -0.05863,0.0543 -0.301926,0.0683 -0.540652,0.031 -0.317364,-0.0495 -0.478221,-0.17436 -0.598368,-0.46442 -0.149631,-0.36126 -0.224182,-0.39671 -0.834145,-0.39671 -0.605534,0 -0.695171,0.0417 -0.933809,0.43408 -0.26182,0.43052 -0.765584,0.59443 -1.131642,0.3682 z m 2.283234,-1.93157 c -0.103518,-0.34263 -0.29965,-0.59535 -0.391088,-0.50392 -0.0328,0.0328 -0.10208,0.22887 -0.154002,0.43576 -0.08536,0.34008 -0.05929,0.37615 0.271867,0.37615 0.316154,0 0.353543,-0.0422 0.273223,-0.30799 z m 4.484783,1.85984 c -1.34748,-0.66415 -1.499931,-2.75329 -0.26508,-3.63258 0.606811,-0.43209 1.675895,-0.48216 2.274863,-0.10654 l 0.465474,0.29191 -0.360946,0.36094 c -0.282981,0.28298 -0.396821,0.32506 -0.527066,0.19481 -0.230965,-0.23096 -0.879135,-0.20753 -1.265711,0.0458 -0.434096,0.28442 -0.566173,1.01992 -0.281889,1.56967 0.302097,0.58419 0.784344,0.74471 1.383333,0.46047 0.44211,-0.20979 0.488605,-0.20852 0.741387,0.0202 0.368288,0.3333 0.339269,0.51217 -0.127855,0.78811 -0.497933,0.29414 -1.447522,0.29749 -2.03651,0.007 z m 4.34377,0.0143 c -0.08249,-0.0994 -0.122899,-0.90527 -0.100062,-1.99573 l 0.03828,-1.82901 0.51332,-0.0425 0.513314,-0.0425 v 1.97756 1.97756 l -0.413252,0.0607 c -0.230095,0.0338 -0.474574,-0.0132 -0.551619,-0.10607 z m 9.092681,0.0135 c -0.03296,-0.0859 -0.04263,-0.98463 -0.02152,-1.9972 l 0.03839,-1.84104 0.641563,-0.0414 c 0.553017,-0.0357 0.664192,0.002 0.80555,0.27377 0.09019,0.17333 0.417474,0.71118 0.727284,1.19521 l 0.563302,0.88007 0.03958,-1.18806 0.03953,-1.18806 h 0.466551 0.46655 l 0.04144,1.92367 c 0.02276,1.05802 -0.0097,1.97457 -0.07209,2.03676 -0.12637,0.12588 -1.059946,0.0389 -1.221978,-0.11393 -0.180078,-0.16978 -1.333744,-2.08732 -1.333744,-2.21686 0,-0.0682 -0.0616,-0.12391 -0.136884,-0.12391 -0.08099,0 -0.136888,0.49673 -0.136888,1.21643 v 1.21643 l -0.42333,0.0621 c -0.245089,0.0359 -0.448566,-0.004 -0.483261,-0.094 z m 5.632194,0.0679 c -0.07002,-0.11331 0.102034,-0.58405 0.67725,-1.85292 0.170647,-0.37643 0.450549,-1.01105 0.622007,-1.41025 0.288961,-0.67279 0.342472,-0.72281 0.732209,-0.68443 0.401203,0.0395 0.459349,0.13076 1.269431,1.99202 0.466933,1.07283 0.807734,1.95855 0.757333,1.96826 -0.647963,0.12481 -0.900538,0.0399 -1.152679,-0.38743 -0.244359,-0.41416 -0.322532,-0.45153 -0.944435,-0.45153 -0.63029,0 -0.6881,0.0289 -0.82118,0.41066 -0.07874,0.22585 -0.183327,0.41489 -0.232429,0.42008 -0.0491,0.005 -0.257692,0.0317 -0.463539,0.0589 -0.205848,0.0272 -0.405631,-0.002 -0.443968,-0.0633 z m 2.213629,-2.05824 c -0.08526,-0.22586 -0.189592,-0.41066 -0.231871,-0.41066 -0.04227,0 -0.146614,0.1848 -0.23187,0.41066 -0.149465,0.39597 -0.141177,0.41065 0.23187,0.41065 0.373048,0 0.381336,-0.0147 0.231871,-0.41065 z m 3.737792,0.0955 v -2.02927 l 0.42022,0.0429 0.420216,0.0429 0.02468,1.50574 0.02468,1.50573 0.787084,0.041 c 0.77105,0.0402 0.78709,0.0493 0.78709,0.44487 0,0.28984 -0.0676,0.40642 -0.23955,0.41302 -0.13175,0.005 -0.686134,0.0212 -1.231959,0.0358 l -0.992416,0.0266 z m -0.558946,-22.73783 c -0.03135,-0.0309 -1.073408,-0.28752 -2.315636,-0.57012 -1.242228,-0.2826 -2.337423,-0.57431 -2.43376,-0.64826 -0.129195,-0.0991 -0.165116,-0.56919 -0.136883,-1.79115 l 0.03828,-1.65671 h 2.874582 2.874582 l 0.03746,2.36126 0.03746,2.36127 H 98.29369 c -0.252731,0 -0.485181,-0.0254 -0.516548,-0.0563 z"
       id="path809" />
  </g>
</svg>
