<?xml version="1.0" encoding="UTF-8" standalone="no"?>
<!-- Created with Inkscape (http://www.inkscape.org/) -->

<svg
   width="106.06197mm"
   height="48.237221mm"
   viewBox="0 0 106.06197 48.237221"
   version="1.1"
   id="svg5"
   inkscape:version="1.1.2 (0a00cf5339, 2022-02-04)"
   sodipodi:docname="32.html"
   xmlns:inkscape="http://www.inkscape.org/namespaces/inkscape"
   xmlns:sodipodi="http://sodipodi.sourceforge.net/DTD/sodipodi-0.dtd"
   xmlns="http://www.w3.org/2000/svg"
   xmlns:svg="http://www.w3.org/2000/svg">
  <sodipodi:namedview
     id="namedview7"
     pagecolor="#ffffff"
     bordercolor="#666666"
     borderopacity="1.0"
     inkscape:pageshadow="2"
     inkscape:pageopacity="0.0"
     inkscape:pagecheckerboard="0"
     inkscape:document-units="mm"
     showgrid="false"
     inkscape:zoom="1.932981"
     inkscape:cx="176.67012"
     inkscape:cy="95.965763"
     inkscape:window-width="1920"
     inkscape:window-height="1016"
     inkscape:window-x="0"
     inkscape:window-y="0"
     inkscape:window-maximized="1"
     inkscape:current-layer="layer1" />
  <defs
     id="defs2" />
  <g
     inkscape:label="Capa 1"
     inkscape:groupmode="layer"
     id="layer1"
     transform="translate(-37.011641,-102.45355)">
    <path
       style="fill:#000000;stroke-width:0.264583"
       id="path41"
       d="" />
    <path
       style="fill:#000000;stroke-width:0.264583"
       id="path21"
       d="" />
    <path
       style="fill:#ffffff;stroke-width:0.532826"
       d="m 75.720535,146.84274 c 0.02659,-2.35395 0.17178,-3.01777 0.495384,-2.26451 0.642595,1.49543 0.642595,5.59469 0,5.59469 -0.302378,0 -0.51663,-1.44031 -0.495384,-3.33018 z m 2.981908,2.97497 c -0.569694,-0.5697 -0.408828,-6.03871 0.17762,-6.03871 0.293055,0 0.532841,1.15257 0.532841,2.56127 0,2.29853 0.150233,2.62068 1.465269,3.1403 l 1.465288,0.579 -1.642888,0.0566 c -0.90359,0.0312 -1.802748,-0.10316 -1.99811,-0.29853 z m 4.820704,0.0251 c -0.209258,-0.20925 -0.357356,-1.71919 -0.329102,-3.35543 l 0.05135,-2.97493 0.614663,2.93054 c 0.835038,3.98131 2.148402,4.05499 2.374195,0.13313 0.0886,-1.53853 0.40025,-2.79734 0.692618,-2.79734 0.310433,0 0.465096,1.27452 0.371774,3.06375 -0.155468,2.98151 -0.203236,3.06803 -1.777432,3.22223 -0.889693,0.0872 -1.788852,-0.012 -1.998109,-0.22202 z m 5.671469,-1.66813 c 0.181648,-1.09896 0.332907,-2.5376 0.336129,-3.19697 0.01004,-2.00397 1.507404,-1.37964 2.194899,0.91501 0.736265,2.4574 1.278252,2.383 1.770906,-0.24308 0.47328,-2.52281 1.762195,-2.44709 2.16729,0.12725 0.65173,4.14172 0.656159,4.43687 0.06369,4.24208 -0.327892,-0.10771 -0.716088,-1.13631 -0.862613,-2.28563 l -0.26641,-2.08966 -0.687428,2.26452 c -0.841152,2.77097 -2.063368,2.96523 -2.543819,0.40428 -0.408802,-2.17912 -1.297792,-1.97828 -1.297792,0.29321 0,0.86186 -0.271143,1.56702 -0.602541,1.56702 -0.399766,0 -0.491395,-0.67241 -0.27227,-1.9981 z m 8.334406,-1.19887 c 0,-1.77608 0.236814,-3.19695 0.532821,-3.19695 0.296034,0 0.532848,1.42087 0.532848,3.19695 0,1.77608 -0.236814,3.19697 -0.532848,3.19697 -0.296007,0 -0.532821,-1.42089 -0.532821,-3.19697 z m 3.196968,0 c 0,-3.89574 0.87521,-4.2188 2.52611,-0.93244 l 1.13758,2.26452 0.0331,-2.26452 c 0.0181,-1.24547 0.27284,-2.26451 0.56589,-2.26451 0.29602,0 0.53282,1.42087 0.53282,3.19695 0,3.84137 -0.99353,4.29462 -2.62784,1.19887 l -1.05486,-1.99811 -0.0236,1.99811 c -0.012,1.09897 -0.26331,1.9981 -0.55638,1.9981 -0.29601,0 -0.53282,-1.42089 -0.53282,-3.19697 z m 6.39393,0.63939 c 0,-1.40666 0.28774,-2.84529 0.63939,-3.19695 0.97886,-0.97887 2.98793,-0.76082 3.60449,0.39122 0.70582,1.31886 0.71997,5.36331 0.0181,5.36331 -0.29306,0 -0.53285,-0.59943 -0.53285,-1.33207 0,-1.06567 -0.26641,-1.33208 -1.33205,-1.33208 -1.06566,0 -1.33207,0.26641 -1.33207,1.33208 0,0.73264 -0.23977,1.33207 -0.53284,1.33207 -0.29305,0 -0.53283,-1.1509 -0.53283,-2.55758 z m 3.59659,-1.83824 c -0.12203,-0.36632 -0.6616,-0.66604 -1.19885,-0.66604 -0.53728,0 -1.07677,0.29972 -1.19889,0.66604 -0.14055,0.42182 0.29898,0.66603 1.19889,0.66603 0.89987,0 1.33946,-0.24421 1.19885,-0.66603 z m 3.09395,3.2116 c -0.45619,-0.65131 -0.82943,-1.55705 -0.82943,-2.01275 0,-1.4626 1.6062,-3.19695 2.96076,-3.19695 0.71602,0 1.30185,0.23975 1.30185,0.53282 0,0.29305 -0.45017,0.53283 -1.00041,0.53283 -2.3484,0 -2.87446,2.96111 -0.71712,4.03666 1.87468,0.93461 2.01413,1.29161 0.5045,1.29161 -0.83305,0 -1.72326,-0.47483 -2.22015,-1.18422 z m 5.03166,-2.01275 c 0,-1.77608 0.23683,-3.19695 0.53285,-3.19695 0.296,0 0.53282,1.42087 0.53282,3.19695 0,1.77608 -0.23682,3.19697 -0.53282,3.19697 -0.29602,0 -0.53285,-1.42089 -0.53285,-3.19697 z m 3.56936,2.24841 c -1.38549,-1.53096 -1.12043,-3.47897 0.69328,-5.09501 0.87915,-0.78332 1.59847,-1.66215 1.59847,-1.95295 0,-0.2908 0.25594,-0.52871 0.56874,-0.52871 0.31373,0 0.42649,0.44817 0.25146,0.99961 -0.22555,0.71068 -0.007,1.08079 0.75694,1.2805 1.55631,0.40696 2.33367,2.79002 1.48834,4.5626 -0.87454,1.83389 -3.97714,2.25894 -5.35723,0.73396 z m 3.32975,-0.10235 c 2.13193,-1.14096 1.63056,-4.27741 -0.68376,-4.27741 -2.35045,0 -3.20948,2.04671 -1.60372,3.82104 1.02664,1.1344 1.02222,1.13352 2.28748,0.45637 z m 3.86406,-1.97081 c 0.19434,-3.67297 1.05364,-4.15644 2.50366,-1.40845 l 1.07244,2.03238 0.0236,-1.99809 c 0.012,-1.09897 0.26334,-1.9981 0.55639,-1.9981 0.29602,0 0.53282,1.42087 0.53282,3.19696 0,3.89575 -0.87521,4.21881 -2.52612,0.93245 l -1.13757,-2.26452 -0.0331,2.26452 c -0.0182,1.24547 -0.2848,2.26451 -0.59247,2.26451 -0.34368,0 -0.49781,-1.16521 -0.39962,-3.02166 z m -85.334695,1.71891 c -0.351434,-0.42344 -0.560622,-1.32258 -0.464864,-1.99808 0.14393,-1.01528 0.497421,-1.2282 2.039007,-1.2282 1.541589,0 1.895083,0.21292 2.039003,1.2282 0.208439,1.47035 -0.747462,2.76801 -2.039003,2.76801 -0.514345,0 -1.222707,-0.34645 -1.574143,-0.76993 z m 4.795451,0 c -0.351433,-0.42344 -0.560621,-1.32258 -0.464861,-1.99808 0.143929,-1.01528 0.497416,-1.2282 2.039002,-1.2282 1.541589,0 1.895084,0.21292 2.039005,1.2282 0.208437,1.47035 -0.747467,2.76801 -2.039005,2.76801 -0.514343,0 -1.222704,-0.34645 -1.574141,-0.76993 z m -4.795451,-4.79544 c -0.351434,-0.42345 -0.560622,-1.32259 -0.464864,-1.99809 0.14393,-1.01528 0.497421,-1.22819 2.039007,-1.22819 1.572466,0 1.893717,0.20419 2.048707,1.30221 0.300361,2.12793 -2.305218,3.51174 -3.62285,1.92407 z m 4.776855,-0.0223 c -0.384128,-0.46283 -0.514441,-1.36259 -0.313377,-2.1637 0.293144,-1.16799 0.598326,-1.34681 2.057603,-1.20578 1.322341,0.12791 1.753148,0.44593 1.887516,1.3938 0.332464,2.34524 -2.187374,3.71604 -3.631742,1.97568 z m -4.776855,-4.77303 c -0.351434,-0.42345 -0.560622,-1.3226 -0.464864,-1.99811 0.14393,-1.01529 0.497421,-1.22821 2.039007,-1.22821 1.572466,0 1.893717,0.20419 2.048707,1.30223 0.300361,2.12791 -2.305218,3.51172 -3.62285,1.92405 z m 5.170731,0.19433 c -1.357961,-0.79093 -1.201564,-3.08905 0.246672,-3.6248 l 1.17912,-0.43619 -1.17912,-0.63103 c -1.430375,-0.76553 -1.574681,-2.9675 -0.246672,-3.76406 0.888047,-0.53267 0.888047,-0.58594 0,-1.1186 -0.512847,-0.30763 -0.932449,-1.13492 -0.932449,-1.83844 0,-0.70351 0.419602,-1.5308 0.932449,-1.8384 0.888047,-0.53269 0.888047,-0.58596 0,-1.1186 -0.512847,-0.30764 -0.932449,-1.13493 -0.932449,-1.83844 0,-0.70351 0.419602,-1.5308 0.932449,-1.83842 0.888047,-0.53267 0.888047,-0.58594 0,-1.1186 -1.270055,-0.76181 -1.189718,-2.99532 0.133212,-3.70332 2.381319,-1.27444 4.576976,2.31625 2.264518,3.70332 -0.888047,0.53266 -0.888047,0.58593 0,1.1186 0.512846,0.30762 0.932449,1.13491 0.932449,1.83842 0,0.70351 -0.419603,1.5308 -0.932449,1.83844 -0.888047,0.53264 -0.888047,0.58591 0,1.1186 0.512846,0.3076 0.932449,1.13489 0.932449,1.8384 0,0.70352 -0.419603,1.53081 -0.932449,1.83844 -0.888047,0.53266 -0.888047,0.58593 0,1.1186 0.512846,0.30762 0.932449,1.1349 0.932449,1.83842 0,0.70351 -0.419603,1.53079 -0.932449,1.83842 -0.888047,0.53266 -0.888047,0.58593 0,1.11862 1.251447,0.75063 1.191664,2.99424 -0.09817,3.68458 -1.226586,0.65642 -1.12967,0.65742 -2.299546,-0.024 z m 4.401574,-0.21681 c -0.384127,-0.46283 -0.514441,-1.3626 -0.313378,-2.1637 0.293144,-1.16799 0.598328,-1.34684 2.057605,-1.20579 1.322339,0.12792 1.753148,0.44594 1.887514,1.39381 0.332464,2.34523 -2.187373,3.71604 -3.631741,1.97568 z m 5.079386,0.0759 c -2.082661,-1.52289 0.294894,-4.72066 2.565194,-3.45016 1.569461,0.87834 0.784446,4.1665 -0.994704,4.1665 -0.324962,0 -1.031684,-0.32236 -1.57049,-0.71634 z m 4.612334,0.0769 c -0.905876,-0.90588 -0.792884,-2.95156 0.19351,-3.50357 0.755333,-0.4227 0.755333,-0.5305 0,-1.15737 -0.458104,-0.3802 -0.832912,-1.24942 -0.832912,-1.93162 0,-0.68218 0.374808,-1.4501 0.832912,-1.70646 0.755333,-0.42271 0.755333,-0.5305 0,-1.15737 -0.458104,-0.38019 -0.832912,-1.24943 -0.832912,-1.93161 0,-0.68218 0.374808,-1.45011 0.832912,-1.70647 0.755333,-0.4227 0.755333,-0.5305 0,-1.15737 -1.114303,-0.92479 -1.057955,-3.03697 0.09955,-3.73126 0.888046,-0.53268 0.888046,-0.58594 0,-1.11861 -1.251447,-0.75066 -1.191664,-2.99427 0.09817,-3.68457 0.566836,-0.30337 1.149156,-0.55157 1.294012,-0.55157 0.556664,0 1.937976,1.709 1.937976,2.39771 0,0.39772 -0.37679,1.09992 -0.837294,1.56042 -0.76119,0.7612 -0.76119,0.91345 0,1.67461 1.062783,1.06278 1.062783,2.05809 0,3.12085 -0.76119,0.76118 -0.76119,0.91343 0,1.6746 1.069247,1.06925 1.061897,2.05896 -0.02336,3.14422 -0.792344,0.79235 -0.792344,0.93618 0,1.81172 1.149317,1.26996 1.085438,1.94827 -0.305459,3.24409 -0.91694,0.85426 -0.986035,1.08641 -0.323401,1.08641 0.772367,0 1.489555,1.02882 1.489555,2.13681 0,0.67988 -1.584306,2.12581 -2.329224,2.12581 -0.360034,0 -0.942344,-0.28774 -1.29401,-0.6394 z m 13.019563,-0.99945 c -0.43366,-2.16824 -0.429813,-25.4057 0.004,-27.02702 0.291099,-1.08682 0.606306,-1.20721 2.790071,-1.06567 l 2.462076,0.15951 v 14.65275 14.65277 l -2.459076,0.15949 c -2.381182,0.15446 -2.46979,0.10597 -2.797341,-1.53188 z m 17.633193,0.95531 c -2.693983,-0.86941 -5.361494,-3.08701 -6.435312,-5.3499 -0.697332,-1.46953 -0.879604,-3.52672 -0.879604,-9.92792 v -8.07429 l 2.530931,0.16231 2.530955,0.16231 0.266411,7.90708 c 0.264912,7.86277 0.274786,7.91426 1.761392,9.19128 2.312237,1.98621 5.31035,1.7786 7.616351,-0.52741 l 1.81163,-1.8116 v -7.51289 -7.51287 h 2.66412 2.66415 v 11.72222 11.7222 h -2.66415 c -1.94913,0 -2.66412,-0.20354 -2.66412,-0.7584 0,-0.64932 -0.21076,-0.65327 -1.46529,-0.0276 -2.194395,1.09458 -5.47864,1.36422 -7.737464,0.63523 z m 19.693844,0.34046 c -0.20205,-0.20205 -0.3611,-1.34644 -0.35345,-2.54307 0.012,-1.92336 0.59945,-2.93434 5.06185,-8.71575 2.77638,-3.59703 5.04796,-6.65412 5.04796,-6.79356 0,-0.13935 -2.27784,-0.25352 -5.06187,-0.25352 h -5.06186 v -2.66415 -2.66412 h 9.59091 9.59088 l -0.007,2.53094 c -0.007,2.37612 -0.31856,2.9383 -5.1114,9.19126 l -5.10507,6.66035 5.13979,0.15285 5.13977,0.15285 -0.16151,2.51127 -0.1617,2.5113 -9.09032,0.14539 c -4.9997,0.08 -9.25567,-0.0201 -9.45771,-0.222 z m -69.235343,-5.02788 c -1.357957,-0.79094 -1.201567,-3.08907 0.246672,-3.62481 l 1.179121,-0.4362 -1.179121,-0.63104 c -1.430376,-0.76551 -1.57468,-2.96748 -0.246672,-3.76404 0.888044,-0.53268 0.888044,-0.58595 0,-1.1186 -2.312458,-1.38707 -0.116808,-4.97777 2.264516,-3.70333 1.322927,0.708 1.403261,2.94151 0.133212,3.70333 -0.888046,0.53265 -0.888046,0.58592 0,1.1186 0.512847,0.30761 0.93245,1.1349 0.93245,1.83841 0,0.70351 -0.419603,1.5308 -0.93245,1.83844 -0.888046,0.53266 -0.888046,0.58592 0,1.1186 1.251446,0.75065 1.191664,2.99426 -0.09817,3.68457 -1.226589,0.65644 -1.12967,0.65745 -2.299546,-0.0239 z m 23.684197,-0.0638 c -0.905884,-0.90588 -0.792888,-2.95156 0.19353,-3.50358 0.75533,-0.4227 0.75533,-0.53049 0,-1.15736 -0.458108,-0.3802 -0.832923,-1.24943 -0.832923,-1.93162 0,-0.68218 0.374815,-1.4501 0.832923,-1.70646 0.75533,-0.42271 0.75533,-0.53051 0,-1.15738 -1.155238,-0.95876 -1.043349,-3.07481 0.197759,-3.73898 1.332898,-0.71335 1.404107,-0.70485 2.394694,0.28572 1.062763,1.06278 1.062763,2.05808 0,3.12084 -0.76119,0.76118 -0.76119,0.91344 0,1.6746 0.460504,0.46052 0.837292,1.16272 0.837292,1.56042 0,0.39771 -0.376788,1.09993 -0.837292,1.56043 -0.76119,0.76119 -0.76119,0.91343 0,1.67461 0.460504,0.4605 0.837292,1.1627 0.837292,1.56042 0,0.90182 -1.453164,2.39774 -2.329224,2.39774 -0.360033,0 -0.942334,-0.28774 -1.29399,-0.6394 z M 54.236775,120.29175 c -2.324752,-1.35404 -0.111027,-4.95847 2.264518,-3.68711 1.374211,0.73545 1.395423,2.98298 0.035,3.71106 -1.226586,0.65642 -1.129669,0.65744 -2.299547,-0.024 z m 4.795451,0 c -2.324754,-1.35404 -0.111028,-4.95847 2.264518,-3.68711 1.37421,0.73545 1.395421,2.98298 0.035,3.71106 -1.226585,0.65642 -1.129667,0.65744 -2.299545,-0.024 z m 57.264324,-8.24636 c -1.04337,-0.7308 -1.18422,-1.30111 -1.18422,-4.79545 0,-2.28878 0.22534,-3.96599 0.53282,-3.96599 0.29521,0 0.53285,1.40634 0.53285,3.15339 0,3.81088 0.34246,4.83902 1.61191,4.83902 1.34122,0 2.6507,0.55462 2.6507,1.12266 0,0.78302 -2.87106,0.53802 -4.14406,-0.35363 z m 6.80821,0.45145 c -2.68177,-0.98609 -3.84825,-4.27657 -2.4646,-6.9523 0.45468,-0.87924 1.21484,-1.74757 1.68922,-1.92962 1.35495,-0.51992 3.97234,-0.38694 3.97234,0.20185 0,0.29305 -0.68215,0.53282 -1.51591,0.53282 -1.3514,0 -3.27954,1.35605 -3.27954,2.30649 0,0.19675 1.07896,0.35766 2.39773,0.35766 1.31874,0 2.39772,0.21182 2.39772,0.47067 0,0.53888 -1.8326,1.10982 -3.5966,1.12054 -0.65937,0.004 -1.19885,0.20988 -1.19885,0.45752 0,0.75663 1.78217,2.0511 3.33017,2.41889 0.8059,0.19151 1.46528,0.58334 1.46528,0.8708 0,0.55363 -1.85633,0.63761 -3.19696,0.1446 z m 3.72978,-4.34815 v -4.86474 h 2.42194 c 6.76826,0 6.85229,8.68415 0.0914,9.44618 l -2.51335,0.28331 z m 3.94118,2.91859 c 2.31382,-0.96677 2.95241,-3.12745 1.5014,-5.0801 -0.56042,-0.75414 -1.6546,-1.44704 -2.43151,-1.53975 -1.41086,-0.16836 -1.41259,-0.16414 -1.41259,3.59656 0,2.07086 0.12765,3.76519 0.28352,3.76519 0.15588,0 1.08259,-0.33384 2.05918,-0.7419 z"
       id="path1248"
       sodipodi:nodetypes="ccsccssscccccscscsccccccssscscssssccsssssssccsssccssscssssssscccscscsssssssssssssssssscsssssscsccsssccsccssssssssssssssssssscsscssscccscsccsscsscsssscsscsscccccsscssscsssssssssssscsssscscssssssssccccccscccsscccssscccccccsscccccsssccccccscccccccccscsccscssccccccsssssccssssssscccsccccscccssssssscscssssssscsccccssccssssss" />
  </g>
</svg>
