<?xml version="1.0" encoding="UTF-8" standalone="no"?>
<!-- Created with Inkscape (http://www.inkscape.org/) -->

<svg
   width="410.59836mm"
   height="142.05312mm"
   viewBox="0 0 410.59836 142.05312"
   version="1.1"
   id="svg5"
   inkscape:version="1.1.2 (0a00cf5339, 2022-02-04)"
   sodipodi:docname="33.html"
   xmlns:inkscape="http://www.inkscape.org/namespaces/inkscape"
   xmlns:sodipodi="http://sodipodi.sourceforge.net/DTD/sodipodi-0.dtd"
   xmlns="http://www.w3.org/2000/svg"
   xmlns:svg="http://www.w3.org/2000/svg">
  <sodipodi:namedview
     id="namedview7"
     pagecolor="#ffffff"
     bordercolor="#666666"
     borderopacity="1.0"
     inkscape:pageshadow="2"
     inkscape:pageopacity="0.0"
     inkscape:pagecheckerboard="0"
     inkscape:document-units="mm"
     showgrid="false"
     inkscape:zoom="0.69664703"
     inkscape:cx="672.507"
     inkscape:cy="484.46342"
     inkscape:window-width="1920"
     inkscape:window-height="1016"
     inkscape:window-x="0"
     inkscape:window-y="0"
     inkscape:window-maximized="1"
     inkscape:current-layer="layer1" />
  <defs
     id="defs2" />
  <g
     inkscape:label="Capa 1"
     inkscape:groupmode="layer"
     id="layer1"
     transform="translate(186.91651,-20.215611)">
    <path
       style="fill:#ffffff;stroke-width:0.264583"
       d="m -122.20467,161.79633 c -3.16585,-1.61405 -6.30879,-5.17713 -8.54381,-9.68594 -1.84975,-3.73159 -2.50407,-6.26066 -2.68563,-10.38048 l -0.14265,-3.23673 -1.61809,1.49855 c -1.93736,1.79423 -4.51903,3.5028 -6.96707,4.61085 -6.43973,2.91482 -15.64548,3.08058 -18.10908,0.32607 -0.91175,-1.01942 -1.35898,-3.43949 -1.21313,-6.5646 0.45779,-9.80897 6.25705,-18.41977 15.18295,-22.54379 2.09171,-0.96643 6.47707,-2.20675 7.80237,-2.20675 0.4179,0 0.75982,-0.1002 0.75982,-0.22268 0,-0.48787 -5.8173,-5.84947 -7.7832,-7.1735 -3.82519,-2.57627 -8.89843,-4.54981 -12.66231,-4.92576 -2.00716,-0.20049 -4.72199,0.3767 -6.61313,1.40599 -2.96839,1.6156 -5.5686,5.20769 -5.92051,8.17894 -0.24776,2.09198 -0.34276,2.15556 -2.12801,1.42426 -6.40075,-2.62198 -11.4072,-8.20902 -13.32853,-14.874189 -0.80361,-2.78778 -0.98439,-7.62859 -0.39412,-10.55336 1.83794,-9.10686 8.74907,-16.01721 17.85848,-17.85645 2.9673,-0.59911 9.0053,-0.41515 11.94225,0.36384 7.16616,1.90075 12.44664,6.22504 20.32482,16.64436 0.30497,0.40334 -0.035,-0.51681 -0.75561,-2.04477 -3.67338,-7.78949 -5.46219,-15.32412 -5.75208,-24.2282 -0.47538,-14.60188 2.61195,-23.53833 11.00906,-31.86631 4.64478,-4.60654 9.32859,-7.67007 11.72672,-7.67007 2.3946,0 6.83566,2.95753 11.72037,7.8052 5.95989,5.91469 8.846057,11.38493 10.330219,19.57917 0.587933,3.24605 0.810233,12.70536 0.390054,16.59748 -0.700556,6.48924 -2.718113,13.7831 -5.318743,19.22825 -0.72311,1.51404 -1.28027,2.78729 -1.23812,2.82944 0.0421,0.0421 1.13287,-1.29115 2.42384,-2.96288 2.945689,-3.8145 6.543557,-7.63041 8.837394,-9.37297 2.356157,-1.7899 6.539389,-3.81694 9.306161,-4.50942 3.140887,-0.78612 9.175435,-0.99596 11.977418,-0.4165 8.982564,1.85763 16.049633,8.84777 17.804931,17.6111 0.336003,1.67749 0.41487,3.08195 0.319445,5.68854 -0.110043,3.00587 -0.240509,3.80021 -0.991889,6.03909 -1.616392,4.816369 -4.786399,9.000469 -8.885375,11.727839 -1.924952,1.28081 -4.946875,2.75981 -5.638919,2.75981 -0.132863,0 -0.370588,-0.73244 -0.528275,-1.62765 -0.881253,-5.00295 -4.693986,-8.84463 -9.701495,-9.77515 -3.811831,-0.70834 -10.212663,1.23935 -15.386508,4.68191 -2.009291,1.33693 -8.019338,6.75259 -8.019338,7.22624 0,0.0944 0.93847,0.31925 2.08548,0.49973 4.242522,0.66756 8.52688,2.59886 12.080875,5.4458 6.006676,4.81168 9.64615,12.33813 9.64615,19.94828 0,5.8729 -1.424594,7.31798 -7.540625,7.64909 -6.699155,0.36268 -13.59278,-2.16451 -18.81678,-6.89819 l -1.61886,-1.46692 -0.13829,3.36416 c -0.14957,3.63864 -0.80941,6.44151 -2.27992,9.68464 -1.83011,4.03623 -5.77048,8.67432 -8.54333,10.05608 -1.63839,0.81645 -2.92245,0.87321 -4.26538,0.18855 z m 3.22163,-7.28946 c 1.12285,-0.58065 3.59653,-3.38825 4.6587,-5.28759 4.519,-8.08072 4.26455,-17.5905 -0.67722,-25.31018 -1.61686,-2.52574 -0.48559,-2.89206 1.64819,-0.5337 0.77619,0.85789 2.2447,2.95699 3.26334,4.66467 2.02329,3.39188 4.51288,6.27487 7.09503,8.21616 5.577401,4.19316 14.304269,6.14429 17.155422,3.83556 0.546759,-0.44274 0.631373,-0.77105 0.713385,-2.76807 0.07583,-1.84654 -0.03629,-2.71979 -0.606033,-4.71975 -2.707772,-9.50513 -10.234713,-16.18214 -20.058324,-17.79337 -1.37979,-0.2263 -1.2961,-0.70292 0.5875,-3.34605 6.256627,-8.77951 13.972486,-13.959089 23.42344,-15.723919 4.968444,-0.92778 8.929338,0.21362 12.128206,3.49497 1.39785,1.433899 2.31076,3.083349 2.978775,5.382079 0.317164,1.09141 0.643318,1.98438 0.724786,1.98438 0.324633,0 2.357541,-2.99748 3.103097,-4.57546 2.290466,-4.847779 2.168821,-11.291979 -0.300617,-15.925109 -2.886654,-5.41593 -8.266472,-9.05927 -14.432849,-9.77428 -2.189716,-0.25391 -5.979599,0.0416 -8.360064,0.65185 -2.237872,0.57369 -6.216758,2.47979 -8.369757,4.00955 -2.70636,1.92294 -6.866117,6.10273 -11.057617,11.11088 -3.56443,4.25891 -4.4821,5.108 -5.10473,4.7232 -0.29704,-0.18358 0.14664,-1.55449 1.13313,-3.50123 1.82793,-3.60725 3.73211,-10.57816 4.57533,-16.74961 0.64553,-4.72461 0.65625,-14.81015 0.0194,-18.25625 -1.64699,-8.91205 -5.00613,-15.14985 -11.01502,-20.45449 -4.06315,-3.58693 -5.47124,-3.43347 -10.17888,1.10933 -7.89825,7.62171 -11.15954,17.8718 -10.24819,32.20966 0.57569,9.05712 1.94972,15.12859 4.98476,22.02636 1.01347,2.30334 1.35719,3.35615 1.16004,3.5533 -0.5349,0.5349 -1.53933,-0.37724 -5.00238,-4.54275 -9.82978,-11.82371 -16.43324,-15.92116 -25.71554,-15.95651 -3.17543,-0.0121 -5.25361,0.4386 -8.06979,1.75007 -3.80738,1.77305 -6.92042,4.8049 -8.70402,8.477 -2.43981,5.02312 -2.34945,11.32042 0.23296,16.234769 0.96229,1.83123 2.38373,3.74742 2.77986,3.74742 0.12286,0 0.35294,-0.60408 0.51129,-1.3424 1.26192,-5.884129 6.98273,-10.149639 12.98512,-9.681859 7.26458,0.56614 15.17374,4.43827 20.92712,10.245409 3.21536,3.2454 6.81528,8.31422 6.28292,8.84658 -0.0581,0.0581 -1.05463,0.30116 -2.21458,0.54019 -2.60405,0.53662 -5.53275,1.64934 -7.79755,2.96258 -2.14009,1.24092 -6.94201,5.98365 -8.15724,8.05668 -2.79325,4.76494 -4.15622,10.38132 -3.19115,13.14971 1.18832,3.40884 10.7724,1.88865 17.30152,-2.7443 2.39577,-1.7 5.44765,-5.05301 7.01373,-7.70578 2.58846,-4.3846 4.66664,-6.98097 5.58767,-6.98097 0.7329,0 0.61041,0.66761 -0.43962,2.39614 -2.61331,4.30198 -3.66698,8.0454 -3.64495,12.94969 0.012,2.66156 0.1459,3.8043 0.68605,5.85287 1.06964,4.05664 3.25824,8.04687 5.6596,10.31848 1.72668,1.63339 2.6288,1.89649 4.02576,1.17409 z m -2.57131,-6.82825 c -1.43237,-2.2025 -2.30913,-4.17221 -2.98428,-6.70446 -0.77931,-2.92289 -0.78156,-7.85204 -0.005,-10.82419 0.58919,-2.25485 2.52872,-6.35929 3.6258,-7.67291 l 0.6629,-0.79375 0.66487,0.79375 c 1.0089,1.20446 3.17872,5.85148 3.70623,7.93749 0.6451,2.55102 0.64156,7.7918 -0.007,10.31875 -0.77202,3.0081 -3.61159,8.59896 -4.36737,8.59896 -0.12144,0 -0.70474,-0.74414 -1.29623,-1.65364 z m -29.14922,-11.66237 c 0,-1.1167 1.20228,-4.73802 2.24026,-6.74774 2.03558,-3.94126 4.6171,-6.65578 8.66632,-9.11281 1.86792,-1.13344 5.67769,-2.43171 7.96312,-2.71362 l 1.53948,-0.1899 -0.1769,1.02494 c -0.0973,0.56371 -0.50713,2.00474 -0.91076,3.20227 -2.29822,6.81865 -8.1263,12.22412 -15.17903,14.07838 -2.83844,0.74626 -4.14249,0.89059 -4.14249,0.45848 z m 58.957333,0.0807 c -8.390963,-1.41597 -15.325823,-7.50312 -17.637303,-15.48132 -0.90922,-3.13822 -0.92392,-3.29797 -0.3035,-3.29797 2.46223,0 7.39069,1.73179 10.160415,3.57023 4.828318,3.20486 8.779836,9.0949 9.550829,14.23625 0.206616,1.3778 0.30598,1.32321 -1.770441,0.97281 z m -33.677283,-21.66974 c -0.0832,-0.13455 0.26538,-1.41014 0.77452,-2.83465 0.50914,-1.42452 0.83804,-2.66763 0.73089,-2.76248 -0.10716,-0.0948 -1.18247,-0.85698 -2.38957,-1.69364 -1.2071,-0.83666 -2.15003,-1.65636 -2.09539,-1.82155 0.0627,-0.18973 1.20427,-0.34908 3.09927,-0.43265 l 2.99993,-0.13229 0.83754,-2.51354 c 0.53214,-1.59705 0.97411,-2.513539 1.21212,-2.513539 0.2366,0 0.701,0.947249 1.26059,2.571269 l 0.886,2.57126 2.95047,0.0746 c 2.4131,0.061 2.95046,0.14685 2.95046,0.47144 0,0.21828 -1.03369,1.09749 -2.29708,1.9538 l -2.29707,1.55693 0.93682,2.63436 c 0.64,1.79969 0.85087,2.72033 0.66553,2.90566 -0.18533,0.18534 -1.0259,-0.25077 -2.65295,-1.37641 l -2.38166,-1.64771 -2.36072,1.6169 c -2.49768,1.71069 -2.59222,1.75653 -2.8297,1.37227 z m -10.99776,-12.5492 c -5.93575,-5.715369 -13.87861,-10.451219 -20.27026,-12.085919 -2.56379,-0.65571 -6.4582,-1.11249 -7.73548,-0.90731 -3.98945,0.64086 -6.60893,1.86521 -8.81572,4.12049 l -1.51567,1.54898 -0.17778,-0.94766 c -0.4998,-2.66413 0.56356,-6.00345 2.5416,-7.98148 2.45279,-2.45279 7.11896,-3.97956 11.22997,-3.67444 8.40983,0.62417 18.35605,7.39155 24.38306,16.59016 1.51064,2.305579 3.1645,5.487529 2.95638,5.687929 -0.0425,0.041 -1.21079,-1.01687 -2.5961,-2.35075 z m 29.64362,2.30792 c 0.0116,-0.52516 2.75589,-5.358979 4.16455,-7.335509 2.04554,-2.87015 6.272645,-7.05188 9.331922,-9.23175 8.051022,-5.73672 15.88565,-7.19982 22.119701,-4.1308 3.428238,1.68771 5.37255,4.40288 5.596324,7.81509 0.06849,1.04436 0.05092,2.19212 -0.03905,2.55059 -0.15822,0.6304 -0.2179,0.59853 -1.821741,-0.9728 -4.01765,-3.93619 -9.334484,-4.92665 -16.470323,-3.06819 -6.423155,1.67284 -14.297623,6.39211 -20.399863,12.225889 -1.36763,1.30746 -2.48431,2.27382 -2.48152,2.14748 z m -15.04179,-12.335459 c -2.79753,-4.32664 -4.72934,-9.08429 -5.91753,-14.57367 -0.49337,-2.27935 -0.58211,-3.51618 -0.58211,-8.11328 0,-4.63457 0.087,-5.82828 0.59759,-8.20208 0.76364,-3.5501 1.88481,-6.90597 3.3222,-9.94398 1.19555,-2.52687 3.76427,-6.72477 4.11493,-6.72477 0.38701,0 2.8911,4.09813 4.20339,6.87916 1.56789,3.32273 2.48678,6.02697 3.27213,9.62976 0.49965,2.29213 0.58275,3.48458 0.58275,8.36191 0,4.88404 -0.0828,6.06826 -0.58511,8.37347 -0.73522,3.37376 -2.15792,7.48414 -3.55032,10.25732 -1.17206,2.33434 -3.59783,6.24068 -3.87429,6.23897 -0.0951,-5.3e-4 -0.80776,-0.98286 -1.58363,-2.18281 z M 97.282371,156.46171 c -0.6156,-0.1215 -1.66269,-0.46129 -2.3269,-0.7551 l -1.20761,-0.53419 0.4423,-0.86956 c 0.24329,-0.47826 0.46831,-0.90077 0.50006,-0.93891 0.0318,-0.0382 0.59159,0.16678 1.24405,0.45539 1.76657,0.78144 3.82481,0.94748 5.545239,0.44734 2.12648,-0.61819 2.97961,-1.69703 3.29052,-4.16105 l 0.18103,-1.43483 -0.89348,0.83028 c -1.45994,1.35672 -2.54232,1.7802 -4.597609,1.7988 -1.52297,0.0138 -2.12561,-0.11755 -3.39135,-0.73907 -2.71983,-1.33553 -4.03979,-3.84188 -3.99116,-7.57855 0.0337,-2.59079 0.78671,-4.37353 2.49672,-5.91096 1.46595,-1.31801 2.72351,-1.76195 4.99112,-1.76195 1.902989,0 2.998099,0.39861 4.345679,1.58181 l 0.97295,0.85425 v -1.08574 -1.08574 h 1.07225 1.07228 l -0.0801,8.26823 c -0.08,8.26333 -0.0805,8.26892 -0.74152,9.4352 -1.55813,2.7489 -4.96737,3.96536 -8.924479,3.18435 z m 3.690729,-7.40568 c 4.52874,-1.25774 5.28492,-8.67016 1.12487,-11.02632 -1.23703,-0.70064 -3.457859,-0.80901 -4.589249,-0.22395 -2.28433,1.18128 -3.58685,4.19404 -2.96949,6.86856 0.54043,2.3414 1.78308,3.78589 3.73978,4.3473 1.22428,0.35126 1.53879,0.35528 2.694089,0.0344 z m 43.59833,7.06686 c 0,-0.0487 0.47387,-1.25316 1.05304,-2.6766 l 1.05305,-2.58806 -2.62115,-6.38538 c -1.44164,-3.51196 -2.86645,-6.95709 -3.16619,-7.65586 l -0.54502,-1.27047 1.35369,0.0798 1.35371,0.0798 2.32646,5.9106 c 1.27955,3.25083 2.37585,5.96 2.43623,6.02038 0.0604,0.0604 1.15517,-2.62916 2.43287,-5.97675 l 2.3231,-6.08652 h 1.27103 1.27106 l -0.87916,2.18281 c -0.48353,1.20055 -2.32786,5.84399 -4.0985,10.31875 l -3.21935,8.13594 h -1.17245 c -0.64481,0 -1.17242,-0.0398 -1.17242,-0.0885 z m -88.650617,-5.08242 c -4.35665,-1.34258 -4.90495,-7.16157 -0.86215,-9.14998 1.72037,-0.84615 4.48238,-0.87597 6.10287,-0.0659 l 1.12448,0.56212 v -1.16593 c 0,-1.64017 -0.58937,-2.8795 -1.6328,-3.43344 -1.22131,-0.64837 -3.459,-0.5931 -5.08156,0.12551 -1.63985,0.72626 -1.65971,0.72427 -2.1451,-0.21437 -0.38596,-0.74636 -0.37632,-0.80517 0.19164,-1.16977 1.33213,-0.85515 3.31788,-1.27611 5.5697,-1.18074 1.85851,0.0787 2.38123,0.20603 3.27492,0.79766 1.90315,1.2599 2.06048,1.89872 2.15619,8.75486 l 0.084,6.01927 h -1.04533 c -0.83674,0 -1.07412,-0.10999 -1.18949,-0.55115 l -0.14412,-0.55115 -0.77016,0.5694 c -1.41678,1.04747 -3.55133,1.29515 -5.63309,0.65361 z m 5.47296,-2.84349 c 1.2458,-1.35941 1.25506,-2.78816 0.026,-4.01719 -2.74755,-2.74755 -8.11846,-0.004 -6.42039,3.27995 0.71397,1.38066 1.84694,1.91706 3.81468,1.80605 1.55288,-0.0876 1.75859,-0.17284 2.57969,-1.06881 z m 19.51751,2.95103 c -1.46648,-0.32976 -3.13013,-1.804 -3.68993,-3.26983 -0.88784,-2.32473 0.14581,-4.85757 2.44356,-5.98769 1.72037,-0.84615 4.482378,-0.87597 6.102878,-0.0659 l 1.12447,0.56212 v -1.30286 c 0,-2.52633 -1.3214,-3.7751 -3.96875,-3.75062 -0.906088,0.008 -1.982388,0.2417 -2.852308,0.61833 -0.76843,0.33268 -1.42954,0.55889 -1.46915,0.50269 -0.95179,-1.3504 -0.98772,-1.534 -0.37637,-1.92305 1.19838,-0.76259 3.15068,-1.22179 5.170088,-1.21604 2.61308,0.007 3.97632,0.58978 5.00036,2.13607 l 0.74509,1.12509 0.0837,6.17172 0.0837,6.17172 h -1.04507 c -0.83643,0 -1.07384,-0.11002 -1.1892,-0.55115 l -0.14412,-0.55115 -0.77017,0.5694 c -1.31514,0.97234 -3.13569,1.23633 -5.248858,0.76115 z m 4.298998,-2.2483 c 1.73286,-0.8223 2.23311,-3.10522 1.00121,-4.56923 -1.32662,-1.57659 -4.155758,-1.69938 -5.804318,-0.25192 -1.08998,0.957 -1.34861,1.97544 -0.82188,3.23612 0.76835,1.83893 3.479828,2.60298 5.624988,1.58503 z m 29.362669,2.22287 c -1.3176,-0.34867 -2.86399,-1.89662 -3.27922,-3.28257 -0.21172,-0.7067 -0.32438,-3.02453 -0.32438,-6.67438 v -5.5917 h 1.17631 1.17628 l 0.0805,5.80403 0.0805,5.80404 0.77123,0.80443 c 1.0368,1.08141 2.21766,1.45226 3.51102,1.10264 2.71643,-0.73429 2.99379,-1.49374 2.99379,-8.19731 v -5.31783 h 1.19063 1.19062 v 7.67292 7.67291 h -1.05833 c -1.03754,0 -1.05834,-0.0186 -1.05834,-0.94666 v -0.94666 l -1.10717,0.94772 c -1.63875,1.4027 -3.15278,1.7281 -5.34339,1.14842 z m 15.55083,0.0254 c -1.46648,-0.32976 -3.13013,-1.804 -3.68993,-3.26982 -0.88784,-2.32474 0.14581,-4.85758 2.44356,-5.9877 1.72037,-0.84615 4.48238,-0.87597 6.10288,-0.0659 l 1.12448,0.56212 v -1.30286 c 0,-2.5415 -1.32491,-3.78197 -3.99048,-3.73615 -0.89191,0.0153 -2.02173,0.25975 -2.85231,0.61706 -0.75647,0.32542 -1.40782,0.54569 -1.44743,0.48949 -0.95179,-1.35039 -0.98772,-1.534 -0.37637,-1.92305 1.19838,-0.76259 3.15068,-1.22179 5.17009,-1.21604 2.61308,0.007 3.97632,0.58979 5.00036,2.13607 l 0.74509,1.1251 0.0837,6.17171 0.0837,6.17172 h -1.04507 c -0.83643,0 -1.07384,-0.11002 -1.1892,-0.55115 l -0.14412,-0.55115 -0.77017,0.56941 c -1.31514,0.97233 -3.13569,1.23633 -5.24886,0.76114 z m 4.299,-2.2483 c 1.73286,-0.8223 2.23311,-3.10521 1.00121,-4.56923 -1.32662,-1.57659 -4.15576,-1.69938 -5.80432,-0.25192 -1.08998,0.957 -1.34861,1.97544 -0.82188,3.23613 0.76835,1.83892 3.47983,2.60297 5.62499,1.58502 z m -95.949263,-8.29869 v -10.31875 l 3.770312,0.003 c 3.427724,0.002 3.894984,0.0606 5.142344,0.64139 1.97146,0.91791 2.7716,2.22087 2.93589,4.78087 0.11232,1.75014 0.0466,2.13312 -0.58903,3.43228 -1.08648,2.22063 -2.37286,2.87787 -5.96785,3.04906 l -2.778125,0.13229 -0.0727,4.29948 -0.0727,4.29948 h -1.184071 -1.184071 z m 7.822266,-1.06887 c 1.62403,-1.00371 2.14908,-3.75984 1.03899,-5.45403 -0.81679,-1.24658 -1.91921,-1.67711 -4.297194,-1.67819 l -2.182812,-9.9e-4 v 3.83646 3.83646 h 2.283875 c 1.836952,0 2.454761,-0.10562 3.157141,-0.53971 z m 22.07565,3.71471 v -7.67292 h 1.19063 1.19062 v 1.07863 1.07864 l 0.65839,-0.78245 c 0.76541,-0.90964 2.16845,-1.6394 3.1519,-1.6394 0.62474,0 0.68763,0.0959 0.68763,1.04813 0,0.98711 -0.0578,1.06375 -0.99219,1.31636 -1.39332,0.37666 -2.09817,0.93845 -2.78162,2.21705 -0.54094,1.01204 -0.59915,1.53255 -0.67852,6.06793 l -0.0868,4.96094 h -1.17002 -1.17001 z m -85.946216,-25.94584 c -4.651354,-0.82394 -10.505538,-3.94616 -12.635807,-6.73909 l -0.694275,-0.91024 4.03048,-3.90605 c 2.216764,-2.14833 4.124947,-3.94249 4.240409,-3.98702 0.115459,-0.0445 0.785238,0.36114 1.488397,0.90149 2.48099,1.90652 5.723562,3.01593 8.814893,3.01593 3.4390759,0 5.2266011,-1.84624 3.6850059,-3.80606 -0.725287,-0.92205 -1.194739,-1.14453 -6.1943459,-2.935589 -5.514033,-1.97535 -8.018867,-3.28882 -10.205299,-5.35139 -2.941024,-2.77441 -4.219824,-5.89046 -4.208024,-10.25369 0.0076,-2.82375 0.285988,-4.18974 1.259682,-6.18174 1.568172,-3.20821 4.780251,-5.76993 9.052599,-7.21969 2.286461,-0.77588 2.876035,-0.86374 6.525933,-0.97249 3.1562639,-0.094 4.4547099,-0.0226 6.0854161,0.33495 3.896919,0.85437 8.333849,3.41626 10.504554,6.06531 0.528648,0.64515 0.956239,1.27202 0.950201,1.39305 -0.009,0.18031 -7.215233,5.94819 -8.976151,7.18451 -0.441505,0.30998 -0.663779,0.21512 -1.949183,-0.83185 -1.8676732,-1.52124 -4.0432462,-2.34934 -6.1914221,-2.35667 -2.574428,-0.009 -3.94529,1.28073 -3.220839,3.02971 0.459232,1.10868 2.069446,1.92173 7.0435099,3.55647 5.3661682,1.76362 8.1093202,3.14134 10.2595312,5.15276 2.766343,2.58778 3.841647,5.31862 3.836144,9.742269 -0.0047,3.75058 -0.739103,5.98474 -2.933761,8.92452 -1.800419,2.4117 -5.614498,4.7264 -9.498516,5.7645 -2.0169212,0.53907 -8.8583741,0.7777 -11.0691321,0.3861 z m 46.611707,-0.1105 C 19.272955,115.41885 12.123498,108.819 9.8958761,99.520901 c -1.093653,-4.56491 -0.936699,-9.65544 0.4324269,-14.02499 2.40543,-7.67693 8.164277,-13.20448 16.371255,-15.71372 2.248196,-0.68737 2.669532,-0.72823 7.540625,-0.73121 4.955694,-0.003 5.248159,0.0263 7.408334,0.74296 2.096095,0.69541 5.104356,2.11799 6.135806,2.90155 0.41185,0.31287 0.31229,0.75739 -1.25729,5.6138 -0.93751,2.90071 -1.828553,5.72267 -1.980109,6.27101 l -0.275558,0.99699 -1.186657,-0.81644 c -3.828565,-2.63412 -8.733784,-3.34236 -12.679952,-1.83078 -6.733966,2.57944 -8.630926,12.67179 -3.427408,18.234779 1.416265,1.5141 3.677547,2.74588 5.881847,3.20401 3.070841,0.63822 7.223752,-0.2446 10.016286,-2.12926 0.649446,-0.4383 1.225548,-0.79692 1.280221,-0.79692 0.05467,0 0.95385,2.64629 1.99818,5.88064 1.29015,3.9957 1.82174,6.00276 1.65846,6.26161 -0.64408,1.02108 -5.838783,3.12316 -9.188982,3.7184 -2.101361,0.37335 -7.24027,0.31286 -9.586437,-0.11284 z m 41.980339,-0.12792 c -5.29459,-1.13584 -8.8309,-3.01955 -12.43541,-6.62406 -3.64999,-3.64998 -5.61871,-7.39337 -6.47711,-12.315789 -2.26893,-13.01102 4.75741,-24.57446 17.20904,-28.32137 2.03638,-0.61278 2.97145,-0.72825 6.73057,-0.83111 3.64469,-0.0997 4.7807,-0.0334 6.879158,0.40192 10.31397,2.13946 17.442609,9.30457 19.182239,19.28037 2.39205,13.716969 -6.285439,26.161099 -19.897827,28.534899 -3.10875,0.54212 -8.3544,0.48359 -11.19066,-0.12486 z m 9.86489,-13.22592 c 1.89174,-0.72525 4.466928,-3.03524 5.369658,-4.816689 1.41195,-2.78633 1.76274,-5.80786 1.03344,-8.90133 -0.47136,-1.99927 -0.94798,-2.98426 -2.17972,-4.50467 -3.716758,-4.58777 -10.997378,-5.01457 -15.234558,-0.89307 -3.5833,3.48546 -4.42103,9.67747 -1.95805,14.47283 1.21877,2.372919 3.89807,4.504969 6.47368,5.151409 1.5897,0.399 4.77988,0.14927 6.49555,-0.50848 z m 38.331957,13.20787 c -5.52238,-1.44653 -8.54842,-5.06828 -10.2752,-12.29794 -0.38127,-1.5963 -0.45564,-4.09726 -0.54475,-18.318999 l -0.10319,-16.47031 h 7.42461 7.4246 v 14.63724 c 0,16.598819 -0.0346,16.281809 1.97991,18.138729 0.66593,0.61382 1.6289,1.18758 2.2956,1.36775 2.39665,0.64769 5.3648,-0.21663 6.68419,-1.94643 1.47622,-1.93544 1.47572,-1.92937 1.47572,-17.678469 v -14.51882 h 7.40833 7.40834 v 23.28333 23.283329 h -7.27605 -7.27604 v -2.19419 -2.1942 l -1.65364,1.59895 c -1.77578,1.71704 -3.73854,2.81127 -6.18625,3.44881 -2.16165,0.56304 -6.36003,0.49672 -8.78618,-0.13878 z m 80.42055,0.14431 c -3.66789,-0.82885 -6.40088,-2.0146 -9.17151,-3.97918 -1.58102,-1.12107 -3.55838,-3.08424 -3.55838,-3.53286 0,-0.23044 8.02888,-7.96953 8.26793,-7.96953 0.0693,0 0.58883,0.36934 1.15454,0.82076 2.62549,2.09504 6.31632,3.28189 9.57884,3.08027 2.15429,-0.13314 3.17508,-0.66886 3.61183,-1.89554 0.5996,-1.68406 -0.98184,-2.81122 -6.73814,-4.802569 -9.73365,-3.36729 -13.41348,-6.87782 -14.32732,-13.66819 -1.07003,-7.95083 3.88559,-14.17168 12.71166,-15.95713 1.71757,-0.34744 3.09658,-0.42045 6.08542,-0.32215 4.38806,0.14432 6.55786,0.6909 9.68492,2.43965 1.69391,0.94729 5.18847,3.96953 5.70425,4.93328 0.23294,0.43527 -1.73921,2.13678 -8.91778,7.69389 -0.19783,0.15316 -0.90352,-0.21902 -2.02541,-1.06817 -2.01528,-1.52536 -3.85231,-2.20628 -6.00691,-2.22658 -2.33397,-0.022 -3.7483,1.17929 -3.33365,2.83145 0.30065,1.19783 2.01121,2.11579 6.88806,3.69643 2.54521,0.82494 5.55791,1.96549 6.69486,2.53455 5.16945,2.5874 7.74398,6.73055 7.74398,12.462309 0,6.84986 -4.37973,12.21328 -11.77396,14.41836 -2.0397,0.60827 -2.9695,0.72323 -6.48229,0.80148 -2.91105,0.0648 -4.59139,-0.0194 -5.79094,-0.29053 z m -25.03302,-0.0347 c -7.63167,-0.79193 -12.06238,-4.33931 -13.95841,-11.17557 -0.51628,-1.86148 -0.57272,-2.89574 -0.70959,-13.002549 l -0.14867,-10.98021 -2.18281,-0.0769 -2.18281,-0.0769 v -5.93172 -5.93173 l 2.18281,-0.0769 2.18281,-0.0768 0.0714,-5.62239 0.0714,-5.6224 h 7.40306 7.40307 v 5.68854 5.68854 h 3.96875 3.96875 v 5.95313 5.95312 h -3.96875 -3.96875 v 9.26892 c 0,10.161929 0.0341,10.417749 1.55975,11.701489 1.0868,0.91449 2.35648,1.25129 4.72411,1.25311 l 1.91823,0.002 v 6.31618 6.31618 l -1.01114,0.16169 c -1.43803,0.22995 -6.06925,0.40169 -7.32324,0.27157 z"
       id="path93" />
  </g>
</svg>
