<?xml version="1.0" encoding="UTF-8" standalone="no"?>
<!-- Created with Inkscape (http://www.inkscape.org/) -->

<svg
   width="159.95447mm"
   height="75.289017mm"
   viewBox="0 0 159.95447 75.289017"
   version="1.1"
   id="svg5"
   inkscape:version="1.1.2 (0a00cf5339, 2022-02-04)"
   sodipodi:docname="34.html"
   xmlns:inkscape="http://www.inkscape.org/namespaces/inkscape"
   xmlns:sodipodi="http://sodipodi.sourceforge.net/DTD/sodipodi-0.dtd"
   xmlns="http://www.w3.org/2000/svg"
   xmlns:svg="http://www.w3.org/2000/svg">
  <sodipodi:namedview
     id="namedview7"
     pagecolor="#ffffff"
     bordercolor="#666666"
     borderopacity="1.0"
     inkscape:pageshadow="2"
     inkscape:pageopacity="0.0"
     inkscape:pagecheckerboard="0"
     inkscape:document-units="mm"
     showgrid="false"
     inkscape:zoom="1.1582121"
     inkscape:cx="335.4308"
     inkscape:cy="105.76647"
     inkscape:window-width="1920"
     inkscape:window-height="1016"
     inkscape:window-x="0"
     inkscape:window-y="0"
     inkscape:window-maximized="1"
     inkscape:current-layer="layer1" />
  <defs
     id="defs2" />
  <g
     inkscape:label="Capa 1"
     inkscape:groupmode="layer"
     id="layer1"
     transform="translate(-262.77346,-109.76347)">
    <path
       style="fill:#ffffff;stroke-width:0.620005"
       d="m 295.30083,184.90741 c -3.58337,-0.72566 -4.7924,-6.04839 -1.97509,-8.69513 2.05235,-1.92804 6.62512,-1.72782 6.62512,0.29009 0,0.68334 -0.27379,0.73896 -1.19925,0.24365 -3.76415,-2.01448 -7.06629,1.69889 -4.97899,5.59903 0.93118,1.73992 4.93824,1.70686 4.93824,-0.0408 0,-0.68892 -0.41333,-1.24002 -0.93003,-1.24002 -0.5115,0 -0.92999,-0.27898 -0.92999,-0.62 0,-0.341 0.83699,-0.62002 1.86002,-0.62002 1.63576,0 1.86002,0.21513 1.86002,1.78412 0,2.52178 -2.22629,3.91543 -5.27005,3.29904 z m 38.28539,5.6e-4 c -2.56923,-0.38659 -1.58183,-1.72427 1.08502,-1.46995 2.17634,0.20763 2.48001,0.0783 2.48001,-1.05679 0,-0.89884 -0.52008,-1.41758 -1.70501,-1.70065 -2.36472,-0.56491 -3.25502,-1.39267 -3.25502,-3.02635 0,-1.92281 1.39903,-2.91199 3.78678,-2.67732 2.89795,0.28476 3.01401,1.60033 0.13314,1.51018 -1.72843,-0.0542 -2.38392,0.19801 -2.54314,0.97779 -0.15792,0.77319 0.44898,1.22933 2.2981,1.72724 1.87512,0.5049 2.61042,1.06626 2.8981,2.2124 0.64268,2.56067 -1.55621,4.04842 -5.17805,3.50345 z m 22.01025,0.001 c -2.73967,-0.33312 -2.04094,-1.67496 0.87218,-1.67496 3.60637,0 3.72894,-1.28286 0.26445,-2.7679 -2.2931,-0.98289 -2.84167,-1.51731 -2.84167,-2.76828 0,-0.92814 0.50992,-1.82313 1.27068,-2.23027 1.55744,-0.83353 4.43555,-0.5624 4.76745,0.44906 0.1713,0.52231 -0.38889,0.64002 -1.88837,0.39669 -3.95889,-0.64246 -3.68591,1.86636 0.34485,3.16923 1.38433,0.44747 2.07891,1.099 2.21805,2.08062 0.35773,2.52352 -1.50959,3.77118 -5.00762,3.34586 z m 9.64302,-0.17669 c -4.89562,-1.81096 -3.64784,-9.86824 1.52822,-9.86824 3.27903,0 5.60143,4.81349 3.87699,8.03562 -0.79424,1.48406 -3.69183,2.4665 -5.40521,1.83267 z m 3.77578,-2.16891 c 0.63132,-1.64519 0.42016,-4.92753 -0.36766,-5.71537 -1.02975,-1.02975 -2.70143,-0.93006 -3.86178,0.23036 -1.15022,1.15022 -1.29149,4.66056 -0.23033,5.72178 1.07783,1.07787 4.01508,0.92197 4.4597,-0.23672 z m 39.5972,2.35298 c -3.26974,-0.51079 -4.46759,-6.22217 -1.82551,-8.70427 2.50362,-2.35204 6.01251,-1.51746 7.1329,1.69658 1.44635,4.14897 -1.20424,7.64872 -5.30739,7.00769 z m 3.79244,-3.30023 c 1.40858,-4.03169 -2.20457,-7.35082 -4.67752,-4.2969 -1.29805,1.60305 -1.38471,2.38836 -0.51578,4.67381 0.51917,1.36553 0.94446,1.59818 2.62383,1.43535 1.51364,-0.14668 2.14258,-0.59033 2.56947,-1.81226 z m 5.19221,3.29293 c -2.76124,-0.33573 -2.09172,-1.74462 0.70243,-1.47816 4.14847,0.39563 4.09043,-1.91673 -0.0819,-3.26537 -4.02595,-1.30133 -2.46418,-5.69635 1.8424,-5.18476 0.89461,0.10638 1.74023,0.53949 1.8792,0.9627 0.17878,0.5443 -0.27109,0.66472 -1.53695,0.41156 -1.19064,-0.23814 -2.04737,-0.0473 -2.55995,0.57034 -0.88857,1.07067 -0.37399,1.56405 2.69987,2.58869 1.23184,0.4106 1.92844,1.10266 2.06262,2.04914 0.35774,2.5235 -1.50959,3.77119 -5.00765,3.34586 z m -154.82211,-0.58992 c 0.0874,-1.65664 3.57151,-9.14511 4.25478,-9.14511 0.46864,0 1.6201,2.04029 2.6186,4.63996 2.08608,5.43121 2.00031,4.97017 0.92446,4.97017 -0.47173,0 -1.00362,-0.55802 -1.18194,-1.24002 -0.24585,-0.94009 -0.84572,-1.24002 -2.48004,-1.24002 -1.63433,0 -2.23419,0.29993 -2.48003,1.24002 -0.30133,1.15229 -1.71055,1.81189 -1.65583,0.775 z m 5.5555,-4.06654 c 0,-0.44634 -0.35314,-1.29445 -0.78474,-1.88472 -0.71254,-0.97448 -0.85021,-0.89982 -1.49616,0.81149 -0.67017,1.77551 -0.62468,1.88475 0.78476,1.88475 0.82289,0 1.49614,-0.36518 1.49614,-0.81152 z m 4.34007,-0.4285 v -4.96007 h 2.21078 c 1.21592,0 2.75043,0.28882 3.41003,0.64183 1.27306,0.68132 1.62126,2.74422 0.57259,3.39234 -0.39665,0.24516 -0.28288,0.87809 0.31,1.72455 1.17191,1.67311 1.16824,1.98122 -0.0377,3.1871 -0.59238,0.5924 -2.05058,0.97431 -3.72004,0.97431 h -2.74573 z m 5.27003,2.17001 c 0,-0.89185 -0.47871,-1.29509 -1.705,-1.43618 -1.47796,-0.17013 -1.70501,0.0211 -1.70501,1.43618 0,1.41501 0.22706,1.60626 1.70501,1.43622 1.22629,-0.14107 1.705,-0.54437 1.705,-1.43622 z m -0.62,-4.34003 c 0,-0.81391 -0.47936,-1.30809 -1.395,-1.43816 -1.14434,-0.16255 -1.39501,0.0958 -1.39501,1.43816 0,1.34221 0.25067,1.60066 1.39501,1.43812 0.91564,-0.13001 1.395,-0.62423 1.395,-1.43812 z m 4.99522,5.7521 c -0.53083,-0.75787 -0.96516,-2.38326 -0.96516,-3.61196 0,-4.17189 4.65137,-6.47889 7.44007,-3.69017 1.65018,1.65019 1.71328,6.19959 0.10621,7.65398 -1.69652,1.53536 -5.39783,1.33746 -6.58107,-0.35185 z m 5.8331,-1.06129 c 0.93967,-1.75582 0.78471,-3.81527 -0.3843,-5.10702 -1.38033,-1.52525 -3.03674,-1.42917 -4.20878,0.24415 -1.92625,2.75009 -0.75987,6.06212 2.13488,6.06212 1.16125,0 2.04785,-0.43254 2.4582,-1.19925 z m 15.05076,-2.52079 c 1.03644,-2.72804 2.22501,-4.96007 2.64123,-4.96007 0.41624,0 1.60481,2.23203 2.64123,4.96007 1.36846,3.60188 1.65826,4.96006 1.05841,4.96006 -0.45431,0 -1.00315,-0.55802 -1.2196,-1.24002 -0.29086,-0.91641 -0.9381,-1.24002 -2.48004,-1.24002 -1.54193,0 -2.18917,0.32361 -2.48002,1.24002 -0.21653,0.682 -0.76529,1.24002 -1.21962,1.24002 -0.59987,0 -0.31004,-1.35818 1.05841,-4.96006 z m 4.19124,1.00119 c 0,-0.13116 -0.37806,-1.13802 -0.84018,-2.23702 -0.68976,-1.64047 -0.89915,-1.79198 -1.16966,-0.84617 -0.18115,0.63358 -0.53049,1.64023 -0.77616,2.23701 -0.35821,0.8701 -0.12653,1.08501 1.16967,1.08501 0.88899,0 1.61633,-0.10754 1.61633,-0.23883 z m 4.34007,-1.08182 v -5.04071 l 2.81519,0.31731 c 3.70706,0.41785 5.24488,1.85459 5.24488,4.90012 0,3.32005 -1.67278,4.86397 -5.27006,4.86397 H 311.731 Z m 5.84577,2.82637 c 2.1994,-2.19941 0.18301,-6.46579 -3.05576,-6.46579 -1.48113,0 -1.55001,0.16544 -1.55001,3.72005 0,3.69989 0.01,3.72004 1.81573,3.72004 0.99865,0 2.25417,-0.43844 2.79004,-0.9743 z m 5.10042,1.08047 c -1.47578,-1.63073 -1.3525,-5.97986 0.21395,-7.54626 2.81319,-2.8132 7.44007,-0.46431 7.44007,3.77705 0,3.23154 -1.45879,4.90306 -4.2791,4.90306 -1.48807,0 -2.7248,-0.4155 -3.37489,-1.13385 z m 6.07231,-2.16341 c 0.45795,-1.31011 0.37789,-2.1621 -0.3201,-3.40564 -2.44565,-4.35719 -7.24545,-0.12538 -4.87709,4.29984 1.04184,1.94671 4.40652,1.36783 5.19719,-0.8942 z m 15.22411,3.14225 c 0.0187,-1.25013 3.83495,-9.45512 4.39808,-9.45512 0.672,0 4.27975,7.65795 4.27975,9.08435 0,1.06606 -1.36675,0.48511 -1.68038,-0.71424 -0.24585,-0.94009 -0.84572,-1.24002 -2.48002,-1.24002 -1.63434,0 -2.23421,0.29993 -2.48004,1.24002 -0.17834,0.682 -0.71025,1.24002 -1.18196,1.24002 -0.47174,0 -0.85668,-0.0699 -0.85543,-0.15495 z m 5.46848,-5.47203 c -0.69542,-1.99498 -1.32317,-1.8369 -2.03281,0.51196 -0.35913,1.18868 -0.19074,1.39504 1.13807,1.39504 1.47213,0 1.52228,-0.10688 0.89474,-1.907 z m 24.30389,3.95441 c -2.47819,-3.15051 -0.36853,-8.2475 3.41369,-8.2475 2.14948,0 3.39206,0.63753 3.39206,1.74038 0,0.76819 -0.16544,0.82232 -0.74401,0.24365 -1.04331,-1.04331 -3.32542,-0.92606 -4.48176,0.23036 -1.2332,1.2332 -1.26577,4.83204 -0.0527,5.83868 0.50681,0.42061 1.90659,0.64974 3.11061,0.5092 1.35494,-0.15825 2.10769,-0.007 1.97537,0.39615 -0.11761,0.35846 -1.34618,0.736 -2.73025,0.83896 -2.13408,0.15891 -2.72415,-0.0768 -3.88287,-1.54981 z m 8.66577,-3.3391 c 0,-3.7328 0.19778,-4.94629 0.77498,-4.7553 0.50802,0.16801 0.83743,1.89479 0.95611,5.01172 0.15049,3.94952 0.0188,4.75531 -0.77501,4.75531 -0.7826,0 -0.95608,-0.90944 -0.95608,-5.01173 z m 3.10001,4.48595 c 0,-1.4264 3.60775,-9.08435 4.27975,-9.08435 0.42468,0 1.58746,2.09252 2.58398,4.65007 2.1244,5.45227 2.02927,4.96006 0.95867,4.96006 -0.47173,0 -1.0036,-0.55802 -1.18196,-1.24002 -0.24583,-0.94009 -0.8457,-1.24002 -2.48004,-1.24002 -1.6343,0 -2.23417,0.29993 -2.48002,1.24002 -0.31364,1.19935 -1.68038,1.7803 -1.68038,0.71424 z m 5.58007,-4.00578 c 0,-0.44634 -0.3763,-1.32612 -0.83622,-1.95509 -0.78147,-1.06875 -0.88082,-1.01565 -1.51775,0.81149 -0.64374,1.84664 -0.59734,1.95512 0.83621,1.95512 0.83728,0 1.51776,-0.36385 1.51776,-0.81152 z m 4.34006,-0.4285 v -4.96007 h 1.76748 c 3.32779,0 5.56313,1.19977 6.27949,3.37033 1.31293,3.9782 -0.85677,6.5498 -5.5262,6.5498 h -2.52077 z m 5.84577,2.74574 c 2.23371,-2.23372 0.34625,-6.46579 -2.88371,-6.46579 -0.93363,0 -1.10204,0.56857 -1.10204,3.72005 0,3.52552 0.0788,3.72004 1.50571,3.72004 0.82815,0 1.94417,-0.43844 2.48004,-0.9743 z M 263.99049,149.75164 v -22.01258 l 79.20583,0.15726 79.20585,0.15726 0.16287,21.85524 0.16288,21.85522 h -79.36866 -79.36877 z m 13.64013,14.2625 c 0,-1.395 -0.248,-1.54999 -2.48002,-1.54999 h -2.48002 v -5.89008 -5.89007 h 1.86002 c 1.57067,0 1.86002,-0.24109 1.86002,-1.55001 0,-1.30889 -0.28935,-1.55 -1.86002,-1.55 h -1.86002 v -5.27005 -5.27008 h 2.48002 c 2.23202,0 2.48002,-0.15511 2.48002,-1.55001 0,-1.48113 -0.1652,-1.55001 -3.72004,-1.55001 h -3.72004 v 15.81017 15.81016 h 3.72004 c 3.55472,0 3.72004,-0.0689 3.72004,-1.55003 z m 9.88554,0.34459 c 1.51864,-1.51865 2.16395,-4.8653 1.65956,-8.6067 -0.28149,-2.0881 -1.34286,-4.30362 -3.79786,-7.92772 -2.52948,-3.73407 -3.40718,-5.59115 -3.40718,-7.20916 0,-4.4318 3.43102,-4.63469 4.65417,-0.2752 0.46876,1.67075 0.84261,2.09862 1.48615,1.7009 1.14938,-0.71036 0.54256,-5.29585 -0.91382,-6.90513 -0.65639,-0.72531 -1.89408,-1.19188 -3.16169,-1.19188 -1.68474,0 -2.31796,0.38528 -3.31163,2.01502 -1.43864,2.35953 -1.60879,6.42606 -0.39084,9.34097 0.46331,1.10885 2.13731,3.90755 3.72005,6.21935 3.07105,4.48575 3.7241,7.69034 2.03731,9.99718 -1.62449,2.22162 -4.1197,-0.46091 -4.1197,-4.42896 0,-1.18237 -0.24495,-1.48199 -0.98074,-1.19967 -0.53937,0.20692 -1.09739,0.37633 -1.24002,0.37633 -0.50295,0 -0.25088,2.94066 0.43055,5.02254 1.31908,4.03015 4.88449,5.52332 7.33569,3.07213 z m 12.59381,-0.73506 c 0.79418,-1.06862 1.32528,-3.04487 1.54121,-5.73504 0.30595,-3.81149 0.24019,-4.10459 -0.92091,-4.10459 -1.0868,0 -1.28604,0.49304 -1.52302,3.7693 -0.33206,4.59069 -1.75631,6.04237 -3.86214,3.93649 -0.81246,-0.81244 -0.97431,-2.80022 -0.97431,-11.96613 0,-11.38152 0.23059,-12.47984 2.61938,-12.47984 1.37848,0 2.34068,2.31039 2.34068,5.62042 0,2.07844 0.19613,2.43967 1.3249,2.43967 1.25047,0 1.30674,-0.22637 1.00142,-4.02987 -0.17786,-2.21645 -0.79054,-4.74272 -1.36139,-5.61393 -0.87796,-1.33991 -1.42884,-1.55493 -3.57446,-1.39516 -1.93733,0.14437 -2.84416,0.60222 -3.83856,1.93863 -1.20758,1.62288 -1.30199,2.54466 -1.30199,12.71014 0,6.02819 0.21629,11.73471 0.48075,12.68116 1.1927,4.2688 5.62103,5.49509 8.04844,2.22875 z m 12.90796,0.34181 c 1.48722,-1.5818 1.50516,-1.74869 1.7,-15.81017 0.19427,-14.01652 0.17927,-14.21147 -1.08502,-14.21147 -1.25499,0 -1.28191,0.2722 -1.28191,12.95145 0,11.43548 -0.12769,13.10907 -1.09044,14.2981 -1.47776,1.82493 -3.06336,1.11076 -3.85405,-1.73597 -0.34577,-1.24483 -0.63022,-7.49463 -0.63211,-13.88846 -0.002,-11.21065 -0.0477,-11.62512 -1.24349,-11.62512 -1.19637,0 -1.23998,0.41333 -1.23998,11.7496 0,13.00512 0.63591,17.51728 2.66954,18.9417 1.99815,1.39957 4.35719,1.13876 6.05746,-0.66966 z m 11.09181,1.049 c 0.84077,-0.23437 2.09627,-1.39233 2.79005,-2.57324 1.13482,-1.93173 1.26136,-3.20451 1.26136,-12.68723 0,-14.29178 -0.68086,-15.81017 -7.08931,-15.81017 h -3.14078 v 15.39683 c 0,8.46827 0.18605,15.58284 0.41334,15.81015 0.51119,0.51121 3.71399,0.43547 5.76534,-0.13644 z m -3.07864,-15.26047 c 0,-12.13988 0.0537,-12.71015 1.1957,-12.71015 2.83044,0 3.14433,1.26365 3.14433,12.65834 0,9.58802 -0.11877,10.81722 -1.13383,11.73583 -0.62362,0.56437 -1.6001,1.02612 -2.17003,1.02612 -0.93454,0 -1.03617,-1.24673 -1.03617,-12.71014 z m 17.8683,14.10515 c 0.17763,-1.25062 -0.0631,-1.39501 -2.32502,-1.39501 h -2.52314 v -5.89008 -5.89007 h 1.86002 c 1.57066,0 1.86002,-0.24109 1.86002,-1.55001 0,-1.30889 -0.28936,-1.55 -1.86002,-1.55 h -1.86002 v -5.27005 -5.27008 h 2.48001 c 2.23202,0 2.48002,-0.15511 2.48002,-1.55001 0,-1.49436 -0.14454,-1.55001 -4.03004,-1.55001 h -4.03003 v 15.39683 c 0,8.46827 0.19824,15.59499 0.44037,15.83723 0.24222,0.2422 1.986,0.35846 3.87506,0.25832 3.02415,-0.16023 3.45832,-0.34878 3.63277,-1.57706 z m 5.07193,-5.73507 c 0,-6.87112 0.0892,-7.44009 1.16679,-7.44009 0.99016,0 1.32726,0.91523 2.22661,6.04507 1.5456,8.81599 1.55196,8.8351 2.95139,8.8351 1.03299,0 1.19126,-0.29635 0.91054,-1.70501 -2.32044,-11.64499 -2.52848,-13.85296 -1.47365,-15.63865 1.32635,-2.24531 1.40504,-9.28915 0.13116,-11.7523 -1.08534,-2.09878 -2.03851,-2.52437 -5.65371,-2.52437 h -2.7393 v 15.81017 c 0,15.39681 0.0324,15.81016 1.23999,15.81016 1.17113,0 1.24002,-0.41335 1.24002,-7.44008 z m 0,-15.81015 c 0,-5.08586 0.0499,-5.27008 1.42601,-5.27008 2.22206,0 2.91404,1.19678 2.91404,5.03977 0,3.80307 -0.97027,5.50036 -3.14431,5.50036 -1.08719,0 -1.19574,-0.47842 -1.19574,-5.27005 z m 18.84889,21.19184 c 1.19584,-1.60666 1.31543,-2.68735 1.4753,-13.33013 0.15181,-10.10312 0.033,-11.85881 -0.92999,-13.75177 -0.96061,-1.88817 -1.43914,-2.19445 -3.68417,-2.35802 -2.99237,-0.21791 -4.78759,1.22141 -5.41101,4.33846 -0.62415,3.12076 -0.42108,20.47303 0.26863,22.95653 1.21536,4.37603 5.74706,5.54977 8.28124,2.14493 z m -5.28784,-2.06484 c -1.15802,-1.39249 -1.57797,-20.03339 -0.50941,-22.61311 0.87725,-2.11783 3.29007,-2.44695 4.28672,-0.58472 0.36735,0.68636 0.64184,5.53297 0.64184,11.33218 0,8.16761 -0.18722,10.40016 -0.96516,11.51089 -1.14722,1.63783 -2.28938,1.75516 -3.45399,0.35476 z m 22.89189,2.72822 1.50247,-1.39502 0.93814,1.39502 c 0.51598,0.76725 1.3226,1.39501 1.79251,1.39501 1.27927,0 1.05658,-3.34485 -0.30471,-4.57681 -1.04496,-0.94568 -1.07817,-1.27568 -0.33723,-3.35112 0.45204,-1.26621 0.83414,-3.36891 0.84912,-4.67266 0.0211,-1.93138 -0.17388,-2.33185 -1.05782,-2.16188 -0.75578,0.14536 -1.19125,1.00218 -1.43517,2.82396 -0.19261,1.43846 -0.50046,2.7657 -0.68418,2.94942 -0.18372,0.18371 -0.93655,-1.24056 -1.67303,-3.16506 l -1.339,-3.49904 1.68238,-3.43867 c 3.12399,-6.38518 1.96292,-12.52847 -2.36784,-12.52847 -3.68242,0 -5.14156,6.59824 -2.85725,12.92034 0.92768,2.56751 0.91088,2.79385 -0.36798,4.96007 -1.75117,2.9663 -1.88427,9.55198 -0.24373,12.05961 1.37542,2.10239 3.81906,2.2205 5.90332,0.2853 z m -4.19078,-2.90428 c -0.8544,-1.59645 -0.76746,-4.88532 0.1884,-7.12504 l 0.77422,-1.81423 1.36784,3.57441 c 1.63068,4.26127 1.63671,4.34669 0.39356,5.58981 -1.28373,1.28373 -1.94575,1.22905 -2.72394,-0.22495 z m 1.02305,-15.1552 c -1.51724,-3.95385 -0.89405,-9.06582 1.10519,-9.06582 1.36285,0 1.71746,2.19306 0.95137,5.88342 -0.72513,3.49283 -1.48577,4.66988 -2.05656,3.1824 z m 25.09846,17.58907 c 0.71735,-0.96548 1.30372,-3.14066 1.54597,-5.73505 0.36506,-3.90939 0.30929,-4.17966 -0.86259,-4.17966 -1.07242,0 -1.294,0.49572 -1.53826,3.44152 -0.3371,4.06461 -1.55301,5.70779 -3.466,4.68397 -1.65329,-0.8848 -2.27988,-6.44346 -1.80751,-16.03484 0.36373,-7.38531 0.95842,-9.02596 3.15564,-8.70573 1.39918,0.20388 2.09135,1.97876 2.18791,5.60998 0.0502,1.89108 0.29321,2.32501 1.30181,2.32501 1.02017,0 1.23938,-0.41218 1.23655,-2.32501 -0.005,-3.06685 -1.04288,-6.69281 -2.26706,-7.91698 -1.56294,-1.56297 -5.09727,-0.95658 -6.65798,1.14232 -1.16473,1.56632 -1.32521,2.77016 -1.5259,11.44642 -0.25355,10.96174 0.45932,15.6909 2.59272,17.20006 1.90625,1.34849 4.72168,0.90945 6.1047,-0.95201 z m 10.88739,0.18818 c 0.84366,-1.28759 1.1464,-3.2678 1.30338,-8.52509 0.29062,-9.73413 -1.19219,-13.48019 -4.9615,-12.53415 -2.40633,0.60396 -2.99227,2.82373 -2.99227,11.33622 0,9.31398 0.75177,11.36718 4.17074,11.3907 0.82345,0.005 1.82428,-0.66746 2.47965,-1.66768 z m -3.75703,-1.83622 c -0.2273,-0.22729 -0.41334,-3.86313 -0.41334,-8.07953 0,-6.33768 0.16592,-7.72982 0.95676,-8.03336 0.52621,-0.20199 1.15396,-0.17036 1.39501,0.07 0.59977,0.5983 0.96494,11.69673 0.47144,14.32746 -0.36899,1.96684 -1.41433,2.71092 -2.40987,1.71538 z m 10.12679,1.03334 c 0,-2.06667 -0.20668,-2.48001 -1.24002,-2.48001 -1.03335,0 -1.24003,0.41334 -1.24003,2.48001 0,2.06671 0.20668,2.48004 1.24003,2.48004 1.03334,0 1.24002,-0.41333 1.24002,-2.48004 z M 267.09053,116.58356 v -6.82009 h 6.25172 c 4.72482,0 6.1891,0.18934 5.9953,0.77502 -0.16802,0.50799 -1.89476,0.83741 -5.0117,0.95611 l -4.7553,0.18113 v 1.83394 1.83394 h 4.65004 c 3.72002,0 4.65005,0.18606 4.65005,0.93002 0,0.74401 -0.93003,0.93 -4.65005,0.93 h -4.65004 v 2.17004 2.17002 h 4.96005 c 3.99559,0 4.96004,0.18091 4.96004,0.92999 0,0.76468 -1.10223,0.93003 -6.20006,0.93003 h -6.20005 z m 23.40525,6.42307 c -0.59678,-0.1727 -1.08503,-0.71198 -1.08503,-1.19847 0,-1.02809 0.12224,-1.03845 3.41002,-0.28859 1.36404,0.31113 3.45657,0.36262 4.65007,0.11431 1.76935,-0.36792 2.17002,-0.73271 2.17002,-1.97582 0,-1.36635 -0.38133,-1.59986 -3.67403,-2.24975 -5.73288,-1.13149 -6.66811,-1.72258 -6.44003,-4.07022 0.24876,-2.56044 2.14487,-3.55345 6.80832,-3.5656 4.01509,-0.01 5.47575,0.40072 5.47575,1.54131 0,0.61344 -0.58701,0.66588 -2.54058,0.22684 -3.12026,-0.70108 -6.54571,-0.12885 -7.04689,1.17726 -0.55903,1.4568 0.28951,1.95854 4.59493,2.71691 5.74925,1.01272 7.88071,3.80481 4.93771,6.4682 -0.98059,0.88742 -2.37245,1.20161 -5.73507,1.29456 -2.4421,0.0676 -4.92845,-0.0187 -5.52519,-0.19122 z m 26.81528,-5.49308 v -5.89005 h -3.41005 c -2.61781,0 -3.41003,-0.21605 -3.41003,-0.93 0,-0.78074 1.34334,-0.93003 8.37008,-0.93003 7.02673,0 8.37009,0.14933 8.37009,0.93003 0,0.71395 -0.79222,0.93 -3.41003,0.93 h -3.41005 v 5.89005 c 0,5.86943 -0.005,5.89009 -1.55001,5.89009 -1.54456,0 -1.55,-0.0211 -1.55,-5.89009 z m 21.70021,5.48289 c -2.68524,-1.08164 -3.10001,-2.11844 -3.10001,-7.74897 0,-5.07064 0.0935,-5.484 1.23999,-5.484 1.13415,0 1.24002,0.41336 1.24002,4.84156 0,6.10338 0.66042,7.14524 4.52927,7.14524 4.27405,0 4.77084,-0.7073 4.77084,-6.79266 0,-5.12707 0.0211,-5.19414 1.55001,-5.19414 1.52327,0 1.55003,0.0851 1.55003,4.92551 0,4.28514 -0.19075,5.14711 -1.46651,6.63037 -1.27367,1.48071 -1.98694,1.72769 -5.42505,1.87829 -2.1772,0.0953 -4.37708,0.005 -4.88859,-0.2013 z m 22.94026,-6.32688 v -6.90609 h 4.0655 c 8.18088,0 12.05466,2.13199 12.05466,6.63445 0,4.6865 -2.68134,6.41146 -10.67467,6.86723 l -5.44549,0.31047 z m 11.74501,3.3558 c 0.85755,-0.77607 1.27513,-1.9199 1.27513,-3.49288 0,-3.39526 -2.12882,-4.90898 -6.90369,-4.90898 h -3.63643 v 5.03228 5.03228 l 3.99495,-0.25437 c 2.7534,-0.17528 4.39122,-0.61301 5.27004,-1.40833 z m 14.91526,-3.4418 c 0,-6.80748 0.0212,-6.90347 1.39502,-6.70819 1.34554,0.19098 1.395,0.42905 1.395,6.70819 0,6.27914 -0.0494,6.51708 -1.395,6.70819 -1.37505,0.1952 -1.39502,0.0993 -1.39502,-6.70819 z m 17.9802,6.38377 c -1.87639,-0.68277 -4.33464,-3.55436 -4.6972,-5.48705 -0.82629,-4.40445 3.03972,-7.71681 9.00674,-7.71681 5.40547,0 8.71061,2.5878 8.71061,6.82009 0,4.2801 -3.34478,6.85244 -8.80433,6.77112 -1.80719,-0.0269 -3.70431,-0.20128 -4.21582,-0.38735 z m 7.34167,-1.74427 c 0.85245,-0.24603 1.81557,-1.28996 2.33335,-2.52922 1.83272,-4.38631 -1.89317,-8.27589 -7.00842,-7.31628 -5.57727,1.04631 -6.04069,8.54437 -0.6238,10.09318 1.98504,0.56756 2.5686,0.54028 5.29887,-0.24768 z"
       id="path369" />
  </g>
</svg>
