<?xml version="1.0" encoding="UTF-8" standalone="no"?>
<!-- Created with Inkscape (http://www.inkscape.org/) -->

<svg
   width="160.77107mm"
   height="47.777935mm"
   viewBox="0 0 160.77107 47.777935"
   version="1.1"
   id="svg5"
   inkscape:version="1.1.2 (0a00cf5339, 2022-02-04)"
   sodipodi:docname="35.html"
   xmlns:inkscape="http://www.inkscape.org/namespaces/inkscape"
   xmlns:sodipodi="http://sodipodi.sourceforge.net/DTD/sodipodi-0.dtd"
   xmlns="http://www.w3.org/2000/svg"
   xmlns:svg="http://www.w3.org/2000/svg">
  <sodipodi:namedview
     id="namedview7"
     pagecolor="#ffffff"
     bordercolor="#666666"
     borderopacity="1.0"
     inkscape:pageshadow="2"
     inkscape:pageopacity="0.0"
     inkscape:pagecheckerboard="0"
     inkscape:document-units="mm"
     showgrid="false"
     inkscape:zoom="1.436063"
     inkscape:cx="308.13412"
     inkscape:cy="170.25716"
     inkscape:window-width="1920"
     inkscape:window-height="1016"
     inkscape:window-x="0"
     inkscape:window-y="0"
     inkscape:window-maximized="1"
     inkscape:current-layer="layer1" />
  <defs
     id="defs2" />
  <g
     inkscape:label="Capa 1"
     inkscape:groupmode="layer"
     id="layer1"
     transform="translate(-21.574677,-36.960887)">
    <g
       aria-label="SOLUCIONES CONTABLES"
       id="text1842"
       style="font-size:4.61244px;line-height:1.25;letter-spacing:0px;word-spacing:0px;stroke-width:0.192185" />
    <path
       id="path39"
       style="fill:#ffffff;stroke-width:0.698127"
       d="m 57.202998,66.116562 c -5.477463,-2.882561 -8.695942,-8.009221 -8.695942,-13.851654 0,-9.83447 9.077931,-17.033589 18.839167,-14.940179 1.931083,0.414127 4.384106,1.487613 5.451155,2.385475 2.013776,1.69448 3.038158,1.550492 3.807705,-0.535212 0.311672,-0.844773 1.204176,-1.221723 2.892562,-1.221723 h 2.441809 l -1.441043,2.442417 c -0.792581,1.343309 -1.724455,2.267239 -2.070849,2.05317 -1.55941,-0.963774 -1.846094,0.637776 -0.603923,3.374104 3.414687,7.52219 0.298505,16.286049 -7.153867,20.119376 -3.249352,1.671391 -10.444948,1.764482 -13.466774,0.174146 z m 4.537831,-6.845811 c 0,-4.437855 0.200534,-5.318672 1.350368,-5.934098 0.742685,-0.397477 1.52809,-0.722685 1.745326,-0.722685 0.217156,0 0.394944,2.670339 0.394944,5.934098 0,5.468649 0.109505,5.934071 1.396266,5.934071 1.301276,0 1.396239,-0.465422 1.396239,-6.841642 0,-6.435009 0.546164,-8.517178 2.234021,-8.517178 0.307185,0 0.558511,2.974648 0.558511,6.610316 0,5.640026 0.15647,6.550289 1.065703,6.201361 2.011613,-0.771921 4.519309,-6.094155 4.519309,-9.591561 0,-2.619651 -1.195865,-6.502292 -2.455373,-7.97199 -0.100792,-0.117686 -2.338587,1.097735 -4.972645,2.700998 -6.189857,3.767573 -5.836416,3.569308 -5.836416,3.273918 0,-0.140638 2.042036,-1.754984 4.53783,-3.587541 2.495822,-1.832531 4.537832,-3.553265 4.537832,-3.823827 0,-0.686589 -3.853538,-2.893195 -4.994599,-2.860028 -0.516715,0.01583 0.0438,0.455264 1.245629,0.97826 1.201802,0.523022 2.414474,1.322069 2.694825,1.77567 0.28035,0.4536 -0.545874,0.272303 -1.836042,-0.402887 -3.174864,-1.661498 -8.145095,-1.597063 -11.126655,0.144331 -4.74008,2.768362 -6.862593,9.631878 -4.432051,14.331984 0.604265,1.168529 0.943878,2.279404 0.754691,2.468591 -0.687327,0.687302 -2.082591,-2.973567 -2.568699,-6.739661 -0.480489,-3.72232 -0.501044,-3.752611 -0.589383,-0.867464 -0.106597,3.479068 1.185177,6.925601 3.30273,8.812383 l 1.492627,1.329932 v -2.551655 c 0,-1.403417 0.131403,-2.551655 0.291961,-2.551655 0.160691,0 0.788888,-0.19077 1.396266,-0.423758 0.923562,-0.354416 1.104279,0.197895 1.104279,3.37429 0,3.955784 0.304362,4.728865 1.861688,4.728865 0.692552,0 0.930818,-1.333969 0.930818,-5.211386 z M 73.607665,57.68572 c 1.658277,-3.093992 1.799469,-7.42625 0.333623,-10.237068 -0.580464,-1.113038 -0.91583,-2.163253 -0.745298,-2.333785 0.170454,-0.170454 0.804483,0.645982 1.408748,1.814509 1.544158,2.986101 1.404893,8.315326 -0.289957,11.095086 -1.900449,3.116947 -2.424685,2.865859 -0.707116,-0.338742 z M 56.809186,42.635879 c 2.490677,-2.095783 2.324235,-2.500992 -0.316578,-0.770681 -1.67068,1.094675 -4.528148,5.07059 -4.52295,6.293316 0.0014,0.338665 0.585505,-0.340114 1.297953,-1.508406 0.71242,-1.168265 2.306133,-2.974674 3.541575,-4.014229 z m 9.062246,-3.034438 c 0.606403,-0.525186 -3.844448,-0.125854 -5.177783,0.464445 -0.932322,0.41281 -0.35241,0.480226 1.745326,0.202909 1.727846,-0.228503 3.272453,-0.528749 3.432457,-0.667301 z m 15.815931,24.481767 c -1.402125,-1.402124 -1.391174,-2.69786 0.03483,-4.123916 1.409881,-1.409855 2.952008,-1.146259 4.185921,0.715534 0.80683,1.217344 0.78749,1.656142 -0.13061,2.96705 -1.270801,1.814325 -2.57622,1.955199 -4.090063,0.441332 z M 21.59844,63.784016 c 0.23721,-0.383967 0.99615,-0.698119 1.686301,-0.698119 1.061639,0 1.592736,-1.692738 3.449911,-10.995531 1.20729,-6.047532 2.194891,-11.36636 2.194627,-11.819619 -2.64e-4,-0.453257 -0.707329,-0.972929 -1.571258,-1.154781 -0.863956,-0.181799 2.934436,-0.282277 8.440816,-0.223225 9.616971,0.103428 10.06416,0.172564 11.344591,1.755695 2.842824,3.514979 0.638647,7.820694 -4.818102,9.411819 -2.885912,0.841475 -3.080165,1.013856 -1.652976,1.466823 2.171565,0.689227 4.307588,4.358354 4.310781,7.404825 0.0026,2.74757 1.010424,4.153863 2.975966,4.153863 0.71382,0 1.103673,0.31415 0.866358,0.698119 -0.634451,1.026546 -6.778026,0.807886 -8.229255,-0.29291 -1.469539,-1.114675 -2.591734,-4.628362 -2.591734,-8.114924 0,-2.956125 -1.017311,-4.158481 -3.518463,-4.158481 -1.739441,0 -1.893587,0.28423 -2.744773,5.061435 -0.496002,2.783798 -1.051163,5.454136 -1.233702,5.934098 -0.212934,0.55983 0.320564,0.872663 1.488168,0.872663 1.001005,0 1.819999,0.31415 1.819999,0.698119 0,0.414048 -2.573529,0.698119 -6.324345,0.698119 -4.038478,0 -6.168432,-0.252249 -5.89291,-0.698119 z M 40.346748,48.250654 c 1.446717,-2.323046 1.901927,-5.76594 0.936886,-7.085713 -0.462176,-0.632048 -1.987548,-1.33534 -3.389751,-1.562892 l -2.549464,-0.413733 -0.81245,4.094837 c -0.446821,2.252174 -0.969052,4.644616 -1.160455,5.31656 -0.294943,1.035385 0.135888,1.221724 2.824485,1.221724 2.534767,0 3.369196,-0.315761 4.150749,-1.570783 z m 50.366407,15.533362 c 0.23721,-0.383967 0.987971,-0.698119 1.668147,-0.698119 1.032351,0 1.603475,-1.758993 3.456879,-10.646472 1.221115,-5.855546 2.216869,-11.174375 2.212779,-11.819618 -0.0053,-0.65825 -0.696907,-1.305973 -1.578223,-1.475714 -0.863957,-0.166495 3.555423,-0.34534 9.820823,-0.397636 10.54011,-0.08787 11.36592,-0.0026 11.04765,1.126654 -0.18919,0.671945 -0.54949,2.242755 -0.80063,3.490651 -0.52387,2.602817 -1.74198,3.062276 -1.74198,0.657038 0,-2.949713 -1.49729,-4.051406 -6.06972,-4.466036 l -4.26552,-0.386765 -0.81457,4.104996 c -0.448,2.257742 -0.97116,4.654774 -1.16256,5.326718 -0.27737,0.973669 0.0868,1.221724 1.7934,1.221724 2.06847,0 4.93394,-2.027234 4.93394,-3.490625 0,-0.383969 0.33534,-0.698147 0.74516,-0.698147 0.40986,0 0.58857,0.549777 0.39716,1.221724 -0.19156,0.67197 -0.70611,3.028131 -1.14375,5.235977 -0.79654,4.018556 -2.09296,5.476907 -2.09296,2.354393 0,-2.083014 -1.53556,-3.403156 -3.613,-3.106103 -1.61237,0.230613 -1.90011,0.99198 -3.581871,9.478312 l -0.449642,2.268929 h 3.914383 c 4.53844,0 7.59438,-1.551732 9.52916,-4.838684 1.35893,-2.308614 2.89826,-2.920161 2.31806,-0.920896 -0.19499,0.671971 -0.69952,2.556905 -1.12114,4.188771 l -0.76662,2.967049 H 101.8151 c -7.511159,0 -11.382928,-0.243543 -11.101945,-0.698121 z m 27.227015,0 c 0.23721,-0.383967 1.01897,-0.698119 1.73704,-0.698119 1.0276,0 1.48252,-0.854668 2.13668,-4.014255 0.45714,-2.207819 1.54986,-7.412449 2.4283,-11.565837 1.14686,-5.422553 1.36936,-7.621242 0.78916,-7.798635 -0.44443,-0.135888 -1.27925,-0.404206 -1.8552,-0.596297 -0.57596,-0.19209 1.9373,-0.342726 5.585,-0.334784 3.6837,0.0079 5.85632,0.228765 4.88692,0.496293 -1.61384,0.445501 -1.912,1.242304 -3.95784,10.576865 -2.97588,13.57819 -2.98966,13.23665 0.53401,13.23665 3.48816,0 6.10177,-1.457165 8.25809,-4.604113 0.89587,-1.30745 1.86746,-2.37719 2.15905,-2.37719 0.29162,0 0.0555,1.88496 -0.52497,4.188771 l -1.05515,4.188772 h -10.77627 c -7.00642,0 -10.62533,-0.244335 -10.34482,-0.698121 z m 25.13262,0 c 0.23722,-0.383967 0.83784,-0.698119 1.33453,-0.698119 0.60263,0 1.63762,-3.541708 3.11123,-10.646472 2.5559,-12.323088 2.59632,-12.880412 0.96474,-13.306809 -0.67194,-0.175468 1.44862,-0.335788 4.71238,-0.356 4.20022,-0.02639 5.47514,0.147761 4.36331,0.594661 -0.86393,0.347266 -1.57081,0.728515 -1.57081,0.847226 0,0.118738 -1.06589,5.312444 -2.36867,11.541616 -2.24687,10.743335 -2.30072,11.325778 -1.0472,11.325778 0.72683,0 1.32149,0.314152 1.32149,0.698119 0,0.407663 -2.34083,0.698121 -5.62622,0.698121 -3.57304,0 -5.46877,-0.254888 -5.19478,-0.698121 z m 15.00977,-0.114245 c 0,-0.446872 3.6292,-5.647467 8.06489,-11.556867 8.94746,-11.920201 9.44694,-12.765106 7.54317,-12.759381 -3.62973,0.01052 -6.61088,1.540915 -8.46668,4.345373 -2.0847,3.150352 -2.64479,2.524082 -1.72189,-1.925225 l 0.57521,-2.773113 9.30258,-0.195255 c 7.73272,-0.162274 9.23945,-0.03087 8.92839,0.779889 -0.20582,0.536374 -4.01294,5.873225 -8.46024,11.859698 -4.44731,5.986474 -8.08601,11.054742 -8.08601,11.262849 0,0.70279 5.50569,0.384575 7.27223,-0.420302 0.9641,-0.439274 2.5924,-2.010083 3.61845,-3.490652 1.80152,-2.599598 3.60677,-3.696542 2.85369,-1.734033 -0.20211,0.526875 -0.58561,2.411809 -0.85208,4.188772 l -0.4845,3.230828 h -10.0436 c -7.17277,0 -10.04361,-0.232196 -10.04361,-0.812476 z m 18.97027,12.315647 v 1.170685 q -0.68337,-0.326843 -1.28954,-0.487291 -0.60614,-0.160453 -1.17067,-0.160453 -0.98052,0 -1.51537,0.380325 -0.52888,0.380325 -0.52888,1.081548 0,0.588311 0.35061,0.891382 0.35657,0.297128 1.34302,0.481346 l 0.72499,0.14858 q 1.34302,0.255522 1.97889,0.903268 0.64179,0.641797 0.64179,1.723343 0,1.289536 -0.86762,1.955103 -0.86167,0.665567 -2.53153,0.665567 -0.62991,0 -1.34301,-0.142616 -0.70718,-0.142616 -1.46783,-0.421922 V 82.93823 q 0.73094,0.410038 1.43217,0.618027 0.70121,0.208001 1.37867,0.208001 1.02805,0 1.58666,-0.404092 0.55859,-0.404094 0.55859,-1.152859 0,-0.65368 -0.40409,-1.022117 -0.39814,-0.368441 -1.31328,-0.552661 l -0.73095,-0.142615 q -1.34302,-0.267417 -1.94321,-0.837903 -0.60021,-0.570485 -0.60021,-1.586664 0,-1.176627 0.82601,-1.854079 0.83198,-0.67745 2.2879,-0.67745 0.62396,0 1.2717,0.112907 0.64775,0.112908 1.32519,0.338728 z m -13.00825,-0.291187 h 5.60976 v 1.010236 h -4.40936 v 2.626612 h 4.22516 v 1.010237 h -4.22516 v 3.214926 h 4.51632 v 1.010233 h -5.71672 z m -6.78046,0 h 1.20037 v 7.862011 h 4.32026 v 1.010233 h -5.52063 z m -7.14891,4.635199 v 3.25058 h 1.92539 q 0.96863,0 1.43214,-0.39815 0.46949,-0.404093 0.46949,-1.230112 0,-0.831957 -0.46949,-1.224166 -0.46351,-0.398152 -1.43214,-0.398152 z m 0,-3.648734 v 2.674154 h 1.77684 q 0.87948,0 1.30734,-0.32684 0.43381,-0.332785 0.43381,-1.010236 0,-0.67151 -0.43381,-1.004293 -0.42786,-0.332785 -1.30734,-0.332785 z m -1.2004,-0.986465 h 3.06637 q 1.37272,0 2.11555,0.570485 0.74281,0.570489 0.74281,1.62232 0,0.814132 -0.38033,1.29548 -0.3803,0.481348 -1.11718,0.600198 0.88543,0.190164 1.37273,0.796303 0.49324,0.600198 0.49324,1.503469 0,1.188513 -0.80821,1.836252 -0.80818,0.647737 -2.29977,0.647737 h -3.18521 z m -5.36021,1.182571 -1.62824,4.415324 h 3.26246 z m -0.67743,-1.182571 h 1.36084 l 3.38133,8.872244 h -1.24796 l -0.80817,-2.275999 h -3.99934 l -0.80821,2.275999 h -1.26576 z m -10.00727,0 h 7.50546 v 1.010236 h -3.14955 v 7.862008 h -1.20634 v -7.862008 h -3.14957 z m -7.87391,0 h 1.61637 l 3.93399,7.422259 v -7.422259 h 1.16474 v 8.872244 h -1.61638 l -3.93396,-7.422259 v 7.422259 h -1.16476 z m -5.97822,0.81413 q -1.30734,0 -2.0799,0.974581 -0.76659,0.97458 -0.76659,2.656326 0,1.675802 0.76659,2.650383 0.77256,0.974578 2.0799,0.974578 1.30737,0 2.06803,-0.974578 0.76659,-0.974581 0.76659,-2.650383 0,-1.681746 -0.76659,-2.656326 -0.76066,-0.974581 -2.06803,-0.974581 z m 0,-0.974578 q 1.86596,0 2.98317,1.25388 1.11721,1.247939 1.11721,3.351605 0,2.097724 -1.11721,3.351606 -1.11721,1.247936 -2.98317,1.247936 -1.8719,0 -2.99504,-1.247936 -1.11721,-1.24794 -1.11721,-3.351606 0,-2.103666 1.11721,-3.351605 1.12314,-1.25388 2.99504,-1.25388 z m -5.45527,0.843844 v 1.265764 q -0.60614,-0.564543 -1.29547,-0.843841 -0.6834,-0.279302 -1.45592,-0.279302 -1.52131,0 -2.32949,0.932981 -0.8082,0.92704 -0.8082,2.686039 0,1.753057 0.8082,2.686038 0.80818,0.927039 2.32949,0.927039 0.77252,0 1.45592,-0.2793 0.68933,-0.279301 1.29547,-0.843845 v 1.253883 q -0.62991,0.427863 -1.33708,0.641795 -0.70121,0.213938 -1.48564,0.213938 -2.01451,0 -3.17333,-1.230111 -1.15879,-1.236053 -1.15879,-3.369432 0,-2.13932 1.15879,-3.369431 1.15882,-1.236054 3.17333,-1.236054 0.79631,0 1.49754,0.213937 0.70717,0.208001 1.32518,0.629913 z m -12.91912,-0.392209 v 1.170685 q -0.683396,-0.326843 -1.289535,-0.487291 -0.606137,-0.160453 -1.170692,-0.160453 -0.980529,0 -1.515345,0.380325 -0.52888,0.380325 -0.52888,1.081548 0,0.588311 0.35059,0.891382 0.356552,0.297128 1.343019,0.481346 l 0.725007,0.14858 q 1.343019,0.255522 1.978866,0.903268 0.64179,0.641797 0.64179,1.723343 0,1.289536 -0.8676,1.955103 -0.861685,0.665567 -2.531548,0.665567 -0.629912,0 -1.343019,-0.142616 -0.707144,-0.142616 -1.467798,-0.421922 V 82.93823 q 0.730918,0.410038 1.432151,0.618027 0.701233,0.208001 1.378666,0.208001 1.028076,0 1.586667,-0.404092 0.558618,-0.404094 0.558618,-1.152859 0,-0.65368 -0.404102,-1.022117 -0.398164,-0.368441 -1.313309,-0.552661 l -0.730943,-0.14262 q -1.34302,-0.267418 -1.94322,-0.837903 -0.600175,-0.570485 -0.600175,-1.586664 0,-1.176627 0.826012,-1.854079 0.831949,-0.67745 2.287874,-0.67745 0.623975,0 1.271724,0.112907 0.647723,0.112908 1.325182,0.338728 z M 87.635101,75.694226 h 5.609787 v 1.010236 h -4.409383 v 2.626612 h 4.225156 v 1.010237 h -4.225156 v 3.214926 h 4.516352 v 1.010233 h -5.716756 z m -9.104001,0 h 1.616378 l 3.933989,7.422259 v -7.422259 h 1.164728 V 84.56647 H 83.629818 L 79.695856,77.144211 V 84.56647 H 78.5311 Z m -5.978214,0.81413 q -1.307372,0 -2.0799,0.974581 -0.766592,0.97458 -0.766592,2.656326 0,1.675801 0.766592,2.650383 0.772528,0.974578 2.0799,0.974578 1.307371,0 2.068026,-0.974578 0.766591,-0.974582 0.766591,-2.650383 0,-1.681746 -0.766591,-2.656326 -0.760655,-0.974581 -2.068026,-0.974581 z m 0,-0.974578 q 1.865961,0 2.98317,1.25388 1.117208,1.247939 1.117208,3.351605 0,2.097724 -1.117208,3.351605 -1.117209,1.247937 -2.98317,1.247937 -1.871899,0 -2.995045,-1.247937 -1.117208,-1.247939 -1.117208,-3.351605 0,-2.103666 1.117208,-3.351605 1.123146,-1.25388 2.995045,-1.25388 z m -7.190492,0.160453 h 1.200377 v 8.872246 h -1.200377 z m -1.854089,0.683396 v 1.265764 q -0.606137,-0.564543 -1.295476,-0.843841 -0.683397,-0.279302 -1.455927,-0.279302 -1.521297,0 -2.329485,0.932981 -0.808189,0.92704 -0.808189,2.686039 0,1.753057 0.808189,2.686038 0.808188,0.927039 2.329485,0.927039 0.77253,0 1.455927,-0.2793 0.689339,-0.279301 1.295476,-0.843845 v 1.253878 q -0.629911,0.427863 -1.337073,0.641795 -0.701223,0.213937 -1.485642,0.213937 -2.014528,0 -3.173328,-1.23011 -1.1588,-1.236053 -1.1588,-3.369432 0,-2.139321 1.1588,-3.369431 1.1588,-1.236054 3.173328,-1.236054 0.796303,0 1.497526,0.213937 0.707152,0.208001 1.325189,0.629913 z M 47.819941,75.694231 h 1.20634 v 5.389905 q 0,1.426214 0.517004,2.056127 0.517003,0.623966 1.675801,0.623966 1.152858,0 1.669862,-0.623966 0.517001,-0.629913 0.517001,-2.056127 v -5.389905 h 1.206341 v 5.538468 q 0,1.735229 -0.861671,2.620671 -0.855729,0.88544 -2.531533,0.88544 -1.681743,0 -2.543417,-0.88544 -0.855728,-0.885442 -0.855728,-2.620671 z m -6.037641,0 h 1.200397 v 7.862011 h 4.320243 v 1.010235 H 41.7823 Z m -5.978217,0.81413 q -1.307364,0 -2.079897,0.974583 -0.766589,0.974578 -0.766589,2.656324 0,1.675802 0.766589,2.650383 0.772533,0.974578 2.079897,0.974578 1.307363,0 2.068013,-0.974578 0.766589,-0.974581 0.766589,-2.650383 0,-1.681746 -0.766589,-2.656324 -0.76065,-0.974583 -2.068013,-0.974583 z m 0,-0.974578 q 1.865965,0 2.983166,1.25388 1.117201,1.247939 1.117201,3.351605 0,2.097724 -1.117201,3.351606 -1.117201,1.247936 -2.983166,1.247936 -1.871907,0 -2.995052,-1.247936 -1.117201,-1.24794 -1.117201,-3.351606 0,-2.103666 1.117201,-3.351605 1.123145,-1.25388 2.995052,-1.25388 z m -6.007931,0.451635 v 1.170685 q -0.683393,-0.326843 -1.289534,-0.487291 -0.606142,-0.160453 -1.170685,-0.160453 -0.980523,0 -1.515353,0.380325 -0.528889,0.380325 -0.528889,1.081548 0,0.588311 0.350612,0.891382 0.356553,0.297128 1.34302,0.481346 l 0.724991,0.14858 q 1.343018,0.255522 1.978872,0.903268 0.641797,0.641797 0.641797,1.723343 0,1.289536 -0.867613,1.955103 -0.861674,0.665567 -2.531533,0.665567 -0.629911,0 -1.343018,-0.142616 -0.707165,-0.142616 -1.467812,-0.421922 V 82.93823 q 0.730933,0.410038 1.432156,0.618027 0.701222,0.208001 1.378674,0.208001 1.028064,0 1.586665,-0.404092 0.558601,-0.404094 0.558601,-1.152859 0,-0.65368 -0.404095,-1.022117 -0.398151,-0.368441 -1.313306,-0.552661 l -0.730934,-0.142615 q -1.343019,-0.267416 -1.943217,-0.837903 -0.6002,-0.570485 -0.6002,-1.586664 0,-1.176627 0.826016,-1.854077 0.831959,-0.677452 2.287886,-0.677452 0.623968,0 1.27171,0.112907 0.647738,0.112908 1.325189,0.338728 z" />
  </g>
</svg>
