<?xml version="1.0" encoding="UTF-8" standalone="no"?>
<!-- Created with Inkscape (http://www.inkscape.org/) -->

<svg
   width="94.691528mm"
   height="59.852489mm"
   viewBox="0 0 94.691527 59.852489"
   version="1.1"
   id="svg5"
   inkscape:version="1.1.2 (0a00cf5339, 2022-02-04)"
   sodipodi:docname="36.html"
   xmlns:inkscape="http://www.inkscape.org/namespaces/inkscape"
   xmlns:sodipodi="http://sodipodi.sourceforge.net/DTD/sodipodi-0.dtd"
   xmlns="http://www.w3.org/2000/svg"
   xmlns:svg="http://www.w3.org/2000/svg">
  <sodipodi:namedview
     id="namedview7"
     pagecolor="#ffffff"
     bordercolor="#666666"
     borderopacity="1.0"
     inkscape:pageshadow="2"
     inkscape:pageopacity="0.0"
     inkscape:pagecheckerboard="0"
     inkscape:document-units="mm"
     showgrid="false"
     inkscape:zoom="1.436063"
     inkscape:cx="202.98553"
     inkscape:cy="164.68637"
     inkscape:window-width="1920"
     inkscape:window-height="1016"
     inkscape:window-x="0"
     inkscape:window-y="0"
     inkscape:window-maximized="1"
     inkscape:current-layer="layer1"
     width="88.69153mm" />
  <defs
     id="defs2" />
  <g
     inkscape:label="Capa 1"
     inkscape:groupmode="layer"
     id="layer1"
     transform="translate(-41.386726,-38.43074)">
    <g
       aria-label="SOLUCIONES CONTABLES"
       id="text1842"
       style="font-size:4.61244px;line-height:1.25;letter-spacing:0px;word-spacing:0px;stroke-width:0.192185" />
    <path
       style="fill:#ffffff;stroke-width:0.469251"
       d="M 84.243057,98.150998 C 83.72688,98.032117 82.143157,97.707789 80.723669,97.430245 76.61025,96.625972 71.003618,93.680207 67.532383,90.49945 61.370495,84.853196 58.221839,78.183946 57.835526,69.960283 57.416569,61.041773 59.936638,54.108355 65.865935,47.866348 71.5316,41.901873 77.809865,38.966442 85.926624,38.486878 96.7671,37.846389 106.54605,42.7124 112.59581,51.757491 c 3.52526,5.270671 4.87328,9.856706 4.88639,16.62376 0.009,4.683331 -0.16015,5.891844 -1.28086,9.145904 -1.71241,4.972205 -3.94382,8.540653 -7.61177,12.17267 -3.23367,3.201981 -8.30976,6.167169 -12.849845,7.506222 -2.586657,0.762908 -9.735607,1.350507 -11.496668,0.944951 z M 97.616732,85.458734 c 0,-1.886272 0.104674,-2.114923 0.82119,-1.793778 0.451654,0.202437 1.804888,0.455269 3.007198,0.56185 5.38505,0.47738 9.28312,-4.507993 8.16887,-10.447439 -0.40553,-2.161617 -3.10761,-5.179106 -5.27968,-5.895948 -2.23594,-0.737923 -5.36925,-0.327149 -7.143968,0.936564 -1.234034,0.878707 -1.450617,0.918411 -1.450617,0.265929 0,-0.559888 -0.348456,-0.726905 -1.290442,-0.618518 l -1.290442,0.148481 -0.127039,9.502349 -0.127022,9.502346 h 2.355973 2.355977 z m 1.151801,-6.497993 c -2.573564,-2.573559 -0.808623,-7.294729 2.727027,-7.294729 2.68123,0 4.59775,2.639377 3.90904,5.383407 -0.75257,2.998466 -4.47639,4.071002 -6.636067,1.911322 z m -21.111095,3.769654 c 2.728061,-1.139859 3.930016,-4.929823 2.301028,-7.255527 -1.093512,-1.561201 -3.458898,-2.401101 -6.762163,-2.401101 -2.475593,0 -2.843628,-0.111609 -2.707831,-0.821191 0.134684,-0.703716 0.810878,-0.840403 4.726924,-0.955496 l 4.569769,-0.134311 v -2.09464 -2.094641 l -4.80983,0.0017 c -3.979225,0.0015 -5.075209,0.163556 -6.346596,0.938718 -2.782945,1.696763 -3.275892,5.160372 -1.083919,7.615966 1.275308,1.428688 1.616941,1.548362 5.044456,1.767099 2.850891,0.181938 3.676501,0.392694 3.676501,0.938504 0,0.573758 -0.932523,0.728498 -5.044454,0.837064 l -5.044457,0.133194 v 2.095758 2.095757 h 4.942215 c 3.209771,0 5.501724,-0.233775 6.538357,-0.666909 z M 89.1702,74.747771 c 0,-7.542074 -0.292259,-6.935596 3.636702,-7.546617 l 1.994319,-0.310152 v -2.49022 -2.490222 l -1.759693,0.408641 c -2.974568,0.69076 -3.871328,0.554592 -3.871328,-0.587838 0,-1.306582 1.290006,-2.735148 2.46986,-2.735148 0.968878,0 0.9417,-0.717432 -0.134399,-3.547793 -0.399306,-1.05025 -0.66577,-1.194432 -1.718916,-0.93011 -2.692079,0.67567 -5.048085,3.421439 -5.565969,6.486779 -0.303197,1.794616 -0.341912,1.825279 -1.928686,1.527599 l -1.619275,-0.303779 0.142735,2.461896 c 0.135712,2.340707 0.217808,2.481244 1.667805,2.854962 l 1.525067,0.393063 v 6.790732 6.790734 h 2.580886 2.580884 z m 15.52143,-9.615187 c 1.46404,-1.464035 1.70591,-2.754996 0.82576,-4.407523 -1.9527,-3.666319 -7.455976,-2.440553 -7.416485,1.6519 0.03599,3.728772 3.971915,5.374412 6.590725,2.755623 z M 76.067248,64.663333 c 0.8269,-0.826901 1.37166,-1.866242 1.37166,-2.616981 0,-1.721359 -2.341182,-3.988641 -4.118646,-3.988641 -2.031058,0 -3.858634,1.889154 -3.858634,3.988641 0,1.221742 0.34254,2.004647 1.24165,2.837916 1.7074,1.582363 3.640285,1.50275 5.36397,-0.220935 z M 91.552555,51.993537 c 0.8269,-0.826902 1.37166,-1.866243 1.37166,-2.616981 0,-1.72136 -2.341182,-3.988639 -4.118646,-3.988639 -2.031058,0 -3.858634,1.889151 -3.858634,3.988639 0,1.221741 0.34254,2.004647 1.24165,2.837915 1.7074,1.582363 3.640285,1.50275 5.36397,-0.220934 z"
       id="path5690"
       sodipodi:nodetypes="sssssssccssssssssssscccccssssscssssccccssssscccsccsscccssssssscsscccccsssssssssssssssss" />
  </g>
</svg>
