<?xml version="1.0" encoding="UTF-8" standalone="no"?>
<!-- Created with Inkscape (http://www.inkscape.org/) -->

<svg
   width="75.303802mm"
   height="22.111507mm"
   viewBox="0 0 75.303801 22.111507"
   version="1.1"
   id="svg5"
   inkscape:version="1.1.2 (0a00cf5339, 2022-02-04)"
   sodipodi:docname="37.html"
   xmlns:inkscape="http://www.inkscape.org/namespaces/inkscape"
   xmlns:sodipodi="http://sodipodi.sourceforge.net/DTD/sodipodi-0.dtd"
   xmlns="http://www.w3.org/2000/svg"
   xmlns:svg="http://www.w3.org/2000/svg">
  <sodipodi:namedview
     id="namedview7"
     pagecolor="#ffffff"
     bordercolor="#666666"
     borderopacity="1.0"
     inkscape:pageshadow="2"
     inkscape:pageopacity="0.0"
     inkscape:pagecheckerboard="0"
     inkscape:document-units="mm"
     showgrid="false"
     inkscape:zoom="1.436063"
     inkscape:cx="164.68637"
     inkscape:cy="84.606317"
     inkscape:window-width="1920"
     inkscape:window-height="1016"
     inkscape:window-x="0"
     inkscape:window-y="0"
     inkscape:window-maximized="1"
     inkscape:current-layer="layer1"
     width="88.69153mm" />
  <defs
     id="defs2" />
  <g
     inkscape:label="Capa 1"
     inkscape:groupmode="layer"
     id="layer1"
     transform="translate(-51.462076,-59.61557)">
    <g
       aria-label="SOLUCIONES CONTABLES"
       id="text1842"
       style="font-size:4.61244px;line-height:1.25;letter-spacing:0px;word-spacing:0px;stroke-width:0.192185" />
    <path
       style="fill:#ffffff;stroke-width:0.264583"
       d="m 52.725499,81.351065 c -0.936685,-0.50832 -1.263423,-1.153589 -1.263423,-2.495106 0,-1.089469 0.808449,-3.256796 1.336596,-3.583207 0.188916,-0.116758 0.159776,-0.358052 -0.08981,-0.743651 -0.203205,-0.313947 -0.446994,-1.166124 -0.541753,-1.893729 -0.117388,-0.90135 -0.08984,-1.196445 0.08645,-0.926041 0.142308,0.218281 0.261298,0.694531 0.264423,1.058333 0.0031,0.363802 0.174854,0.985745 0.38162,1.382093 0.34704,0.66524 0.316773,0.827956 -0.393712,2.116667 -0.979583,1.776817 -1.041417,3.306442 -0.166871,4.128037 0.712728,0.669573 1.357796,0.719947 2.596468,0.202761 0.764212,-0.319082 1.044037,-0.319654 1.950541,-0.004 1.544421,0.537813 1.841567,0.476726 2.757944,-0.566971 l 0.828386,-0.94348 0.798447,0.671849 c 0.439145,0.369517 1.272742,0.81395 1.852437,0.987631 0.948399,0.284149 1.131679,0.258347 1.829446,-0.257535 0.906896,-0.670486 1.657892,-0.732996 2.119799,-0.176432 0.507928,0.612016 1.719574,0.474213 2.63997,-0.300252 l 0.82849,-0.697127 0.727644,0.697127 c 0.915183,0.876803 1.885577,0.888741 2.899394,0.03567 1.017391,-0.856081 1.752867,-0.833859 3.756027,0.113487 0.901243,0.42622 1.834666,0.704022 2.074278,0.617337 0.239609,-0.08668 0.882483,-0.554472 1.428605,-1.039527 1.09343,-0.971166 1.461735,-1.078579 1.686845,-0.491956 0.0823,0.214485 0.786908,0.701755 1.565786,1.082824 l 1.416143,0.692853 1.59613,-0.985186 c 1.570845,-0.969582 1.626598,-0.982319 3.519139,-0.803937 1.287661,0.12137 2.463122,0.438425 3.55778,0.959639 0.991002,0.471858 1.824543,0.709752 2.116667,0.604102 0.265041,-0.09585 1.04889,-0.696818 1.74189,-1.335474 0.693,-0.638659 1.377615,-1.088509 1.521365,-0.999667 0.30484,0.188401 0.3544,0.921168 0.0629,0.930185 -0.10914,0.0034 -0.659695,0.421531 -1.223435,0.929235 -1.408003,1.268031 -2.120079,1.398735 -3.533959,0.648673 -1.293678,-0.686294 -3.047516,-1.104468 -4.838266,-1.153607 -0.939388,-0.02577 -1.472811,0.15113 -2.492759,0.826715 -0.713692,0.472731 -1.521251,0.859512 -1.794568,0.859512 -0.629703,0 -2.013934,-0.694288 -2.77953,-1.394124 l -0.589071,-0.538475 -1.240287,0.966301 c -0.682157,0.531463 -1.462831,0.966298 -1.734828,0.966298 -0.272,0 -1.08194,-0.297656 -1.799868,-0.661458 -1.564881,-0.792986 -2.81055,-0.846217 -3.554823,-0.151906 -0.929005,0.866643 -1.773587,0.917869 -2.86966,0.174054 l -0.983851,-0.66766 -0.962964,0.653486 c -1.172099,0.795409 -1.50209,0.808371 -2.642134,0.103783 l -0.889436,-0.549701 -0.698831,0.549701 c -0.384357,0.302337 -1.043786,0.549701 -1.465397,0.549701 -0.950623,0 -2.349908,-0.56774 -2.831991,-1.14904 -0.331531,-0.399762 -0.440098,-0.369242 -1.265978,0.355891 -1.002849,0.880512 -1.390297,0.939016 -3.132625,0.473014 -1.033674,-0.276466 -1.301429,-0.258419 -1.96285,0.132291 -0.922125,0.544714 -1.25766,0.550815 -2.198954,0.04 z m 49.933461,-0.267187 c -1.24285,-0.644755 -1.43493,-0.982247 -0.28605,-0.502584 1.58479,0.661651 6.45008,0.466489 7.47521,-0.299855 l 0.74378,-0.556017 0.7514,0.556017 c 0.61113,0.452221 1.21989,0.573244 3.26104,0.648303 3.12088,0.114763 4.09205,-0.06147 5.12406,-0.929846 1.67483,-1.409277 1.84827,-2.14657 1.84827,-7.856961 v -5.14373 l 0.92504,0.02622 c 2.71084,0.07684 4.03699,-3.888522 1.98627,-5.93924 -0.61843,-0.618422 -0.98112,-0.753938 -2.01784,-0.753938 -1.51485,0 -1.27722,-0.499445 0.33126,-0.696234 1.78528,-0.218419 3.51624,1.33716 3.92755,3.529585 0.34069,1.816035 -1.74357,4.574983 -3.4562,4.574983 h -0.60691 l -0.0816,5.246949 -0.0816,5.24695 -0.727,0.952309 c -1.4553,1.906331 -2.09747,2.169856 -5.52537,2.267418 -2.64483,0.07527 -3.22125,0.01463 -4.10104,-0.431501 -1.0054,-0.509823 -1.04013,-0.510204 -1.94559,-0.02143 -1.22846,0.66312 -6.31832,0.718852 -7.54475,0.08261 z M 53.579732,78.550659 c 0.0017,-0.600781 0.978123,-2.004417 1.835276,-2.638136 0.741516,-0.548228 0.809568,-0.727803 0.809568,-2.136283 0,-1.348293 -0.06357,-1.537743 -0.516019,-1.537743 -0.283811,0 -0.63882,0.20836 -0.78891,0.463021 -0.238005,0.403831 -0.306813,0.412287 -0.538262,0.06615 -0.641375,-0.959202 -0.09213,-2.813039 0.907791,-3.064002 0.640599,-0.160779 0.670817,-0.254474 0.670817,-2.079958 0,-1.051378 -0.07519,-1.986781 -0.16708,-2.078675 -0.316942,-0.316942 -1.100955,0.334531 -1.385745,1.151479 -0.389049,1.116026 -0.828425,0.742392 -0.828425,-0.704473 0,-1.573438 0.619186,-2.703435 1.737364,-3.17064 1.672745,-0.698917 3.153411,0.341151 4.576875,3.214947 0.436719,0.881681 0.875944,1.929412 0.976057,2.328296 0.169689,0.676092 0.265025,0.719862 1.406801,0.645903 l 1.224778,-0.07934 0.07911,-1.219301 c 0.07397,-1.140034 0.02667,-1.241023 -0.727604,-1.553453 -0.443694,-0.183785 -0.806717,-0.427625 -0.806717,-0.541867 0,-0.114243 -0.254159,-0.14125 -0.564797,-0.06002 -0.693693,0.181405 -0.53232,-0.141305 0.896409,-1.792607 l 0.99307,-1.147776 0.741199,0.710114 c 0.40766,0.390563 1.002575,0.710114 1.322035,0.710114 0.319459,0 0.580834,0.07093 0.580834,0.157615 0,0.423973 -0.964242,1.712921 -1.380163,1.84493 -0.435105,0.138096 -0.47192,0.632218 -0.47192,6.334045 0,4.196341 -0.09316,6.24184 -0.289812,6.363377 -0.457227,0.282583 -1.528068,-0.426958 -2.14092,-1.418572 -0.308309,-0.498856 -0.874123,-1.756478 -1.257365,-2.794722 l -0.696803,-1.887715 h -1.445571 -1.445571 l -0.08005,1.242174 c -0.07937,1.231593 -0.07212,1.243661 0.850469,1.416741 0.511783,0.09601 1.07063,0.343392 1.24188,0.549735 0.174315,0.210037 0.527841,0.306467 0.803177,0.219078 0.728919,-0.231349 0.603976,0.177921 -0.478456,1.567272 -0.71497,0.917694 -1.080462,1.191858 -1.389063,1.041966 -0.559545,-0.27178 -3.210505,-0.259916 -3.792231,0.01696 -0.321869,0.153202 -0.46272,0.110935 -0.462032,-0.138649 z m 10.053177,-6.312162 v -2.645833 h -1.058333 c -0.757082,0 -1.058333,0.111249 -1.058333,0.390835 0,0.74967 1.688713,4.900832 1.993684,4.900832 0.06764,0 0.122982,-1.190625 0.122982,-2.645834 z m -4.735004,-0.334055 c 0.51817,0.135504 0.560658,0.07593 0.400621,-0.56171 -0.310087,-1.23548 -1.197033,-3.436109 -1.745077,-4.329755 -0.775424,-1.264417 -1.171064,-1.114143 -0.967961,0.367657 0.09254,0.675155 0.168255,2.036061 0.168255,3.02424 v 1.796685 l 0.782258,-0.224348 c 0.430242,-0.123394 1.043099,-0.156139 1.361904,-0.07277 z m 26.414397,6.545263 c -1.054796,-0.552664 -1.351193,-1.572604 -1.497434,-5.152874 -0.120348,-2.946355 -0.195363,-3.355163 -0.687382,-3.745929 -0.551762,-0.438219 -0.551389,-0.439568 0.389972,-1.408747 l 0.942261,-0.970106 0.74617,0.641827 c 0.736386,0.633412 0.748152,0.690544 0.89753,4.358375 0.129458,3.17867 0.225838,3.798715 0.665935,4.284295 0.283141,0.312401 0.759127,0.532757 1.058333,0.489952 0.514731,-0.07364 0.543764,-0.250473 0.543764,-3.311974 0,-2.966069 -0.0476,-3.281752 -0.574199,-3.807995 l -0.574196,-0.573812 0.968269,-0.913196 c 0.773811,-0.729795 1.048542,-0.853141 1.367949,-0.61417 0.219821,0.164463 0.727099,0.439867 1.127281,0.612008 0.825511,0.3551 0.922073,0.764535 0.301734,1.279369 -0.362186,0.300588 -0.410626,0.875231 -0.323911,3.842639 l 0.101962,3.489198 -1.234389,0.163748 c -0.678913,0.09006 -1.634482,0.434417 -2.123485,0.765236 -0.489003,0.330821 -1.008621,0.674565 -1.154705,0.763878 -0.146087,0.08932 -0.569741,0.003 -0.941459,-0.191722 z m 17.294098,-0.06553 c -0.93152,-0.732017 -1.07343,-1.51035 -1.26741,-6.951575 -0.26129,-7.329533 0.0769,-7.925353 4.49922,-7.925353 3.40054,0 4.33792,0.700863 4.35257,3.254349 l 0.009,1.534559 -1.52136,-0.07935 c -1.4402,-0.07512 -1.52582,-0.118157 -1.60507,-0.806952 -0.0773,-0.671754 -0.17376,-0.727605 -1.25677,-0.727605 h -1.17306 v 1.455209 1.455208 h 1.87854 c 1.78361,0 1.92401,0.04546 2.77813,0.899583 l 0.89958,0.899584 v 3.045648 3.045645 l -0.81405,0.684979 c -0.76033,0.639779 -0.99167,0.684589 -3.50573,0.679093 -2.14316,-0.0047 -2.81022,-0.09904 -3.2734,-0.463021 z m 4.41818,-4.176516 v -1.470422 l -1.12448,0.08136 -1.12448,0.08136 -0.08,1.389062 -0.08,1.389063 h 1.20445 1.20446 z m 4.95081,4.012705 c -0.37549,-0.347993 -0.7439,-1.032603 -0.81869,-1.521354 -0.29039,-1.897724 -0.38906,-10.267699 -0.13202,-11.19862 0.41465,-1.501731 1.45973,-1.990953 4.25568,-1.992154 4.32462,-0.0019 4.35929,0.05825 4.48121,7.769186 l 0.0953,6.028177 -0.86408,0.773739 c -0.83716,0.749652 -0.94923,0.773743 -3.59938,0.773743 -2.51782,0 -2.7896,-0.05031 -3.41803,-0.632717 z m 4.57419,-7.054696 v -4.512414 l -1.25677,0.08064 c -1.10978,0.07121 -1.25456,0.150265 -1.23787,0.675955 0.0104,0.327421 0.0402,2.321718 0.0661,4.43177 l 0.0472,3.836459 h 1.19063 1.19062 z m -48.909334,6.886278 c -0.34258,-0.285419 -0.729533,-0.453025 -0.859897,-0.372456 -0.542151,0.335065 -0.751947,-0.203145 -0.368344,-0.944952 0.28126,-0.543896 0.395904,-1.610423 0.395904,-3.683053 0,-2.80771 -0.0245,-2.933504 -0.651181,-3.344127 l -0.651182,-0.426669 0.876347,-0.902346 c 1.054063,-1.085334 1.283438,-1.108935 1.994313,-0.205206 0.489442,0.622226 0.54837,1.058516 0.54837,4.060034 0,3.036451 0.05181,3.409784 0.533726,3.84591 0.52012,0.470704 0.55369,0.463888 1.316926,-0.267335 l 0.783198,-0.750354 -0.160766,-2.403636 c -0.119343,-1.784284 -0.284215,-2.540098 -0.639855,-2.933234 -0.466862,-0.516086 -0.454919,-0.552596 0.46799,-1.430737 0.783947,-0.745924 1.020516,-0.846733 1.373449,-0.585274 0.234506,0.173725 0.753796,0.456707 1.153978,0.628848 0.813655,0.350001 0.922726,0.76399 0.330729,1.255305 -0.31001,0.257286 -0.396875,0.984967 -0.396875,3.324685 0,2.775199 0.04227,3.024913 0.575151,3.398161 l 0.575152,0.402851 -0.905881,0.932252 c -0.498234,0.512736 -1.047956,0.933519 -1.221608,0.935066 -0.45213,0.004 -1.139481,-1.067175 -1.139481,-1.775846 0,-0.864301 -0.331218,-0.755621 -1.769319,0.580546 -0.700362,0.650724 -1.33292,1.182545 -1.405681,1.181823 -0.07276,-7.94e-4 -0.412583,-0.234837 -0.755163,-0.520256 z m 10.544747,0.03113 C 77.67567,77.817959 76.808704,77.519464 76.2584,77.419756 l -1.000548,-0.18129 0.537527,-0.754891 c 0.452864,-0.635989 0.53753,-1.165476 0.53753,-3.361626 0,-1.433706 -0.106814,-2.979177 -0.237365,-3.434379 l -0.237363,-0.827643 1.436185,-0.1191 c 0.908137,-0.07531 1.721072,-0.329726 2.211025,-0.691964 1.0269,-0.759222 1.162132,-0.730499 1.544947,0.328162 0.179199,0.495565 0.612375,1.323295 0.962612,1.8394 l 0.636797,0.938371 -2.091365,1.534038 c -1.691592,1.240803 -2.093031,1.668611 -2.100085,2.238039 -0.0071,0.574379 0.206954,0.808411 1.162637,1.271048 0.986414,0.477514 1.256046,0.514154 1.707759,0.232055 1.08662,-0.678606 0.919736,0.117412 -0.233561,1.114063 -1.347132,1.164156 -1.614184,1.213622 -2.910139,0.539038 z m 1.39719,-5.407493 0.735732,-0.602218 -0.688982,-1.504935 c -0.378939,-0.827714 -0.799317,-1.504934 -0.93417,-1.504934 -0.134853,0 -0.245187,0.9525 -0.245187,2.116667 0,1.164167 0.0893,2.112386 0.198438,2.107152 0.10914,-0.0052 0.529516,-0.280514 0.934169,-0.611732 z m 15.403852,5.388454 c -0.582084,-0.270398 -1.456447,-0.590433 -1.943032,-0.711191 l -0.884698,-0.219557 0.553969,-0.703191 c 0.482621,-0.612627 0.553969,-1.061916 0.553969,-3.488505 0,-1.531921 -0.110771,-3.076665 -0.246158,-3.43276 -0.239755,-0.630597 -0.208552,-0.650568 1.198819,-0.767278 0.950807,-0.07885 1.727817,-0.328941 2.272014,-0.731282 0.794626,-0.587491 0.84096,-0.592407 1.182427,-0.125418 0.19547,0.267317 0.3554,0.624004 0.3554,0.792639 0,0.168635 0.34717,0.785866 0.77149,1.371627 l 0.7715,1.065019 -2.08257,1.554366 c -1.672294,1.248151 -2.084901,1.693058 -2.094413,2.258367 -0.0097,0.57562 0.201766,0.80741 1.159516,1.271048 0.986414,0.477514 1.256047,0.514154 1.707757,0.232055 1.0532,-0.657733 0.88328,0.05092 -0.26007,1.084601 -1.318629,1.192165 -1.543993,1.233223 -3.01592,0.549461 z m 1.518483,-5.379686 0.724736,-0.593447 -0.708311,-1.513705 c -0.38957,-0.832535 -0.804997,-1.513703 -0.923171,-1.513703 -0.118176,0 -0.214862,0.9525 -0.214862,2.116667 0,1.164167 0.0893,2.112386 0.198437,2.107152 0.109141,-0.0052 0.524568,-0.276566 0.923171,-0.602964 z m -44.213862,-2.19948 c -0.01916,-0.455171 -0.213424,-1.255017 -0.431705,-1.777439 -0.569747,-1.363597 -0.512797,-4.18263 0.112028,-5.54543 1.493893,-3.258311 4.714907,-4.062378 7.563412,-1.888065 l 1.205239,0.919979 0.644528,-0.732396 c 0.354491,-0.402819 0.648292,-0.810047 0.65289,-0.904952 0.0046,-0.09491 0.370004,-0.298624 0.812011,-0.452709 0.880548,-0.30696 1.785358,-0.08081 2.337243,0.584166 0.187561,0.225998 0.746353,0.544676 1.24176,0.708175 1.147885,0.378837 1.967347,1.417601 1.967347,2.493847 0,0.624649 0.201166,0.989331 0.783037,1.419527 0.907688,0.671083 1.225625,0.717274 1.51892,0.220674 0.254069,-0.430186 1.220775,-0.964667 1.744769,-0.964667 0.207542,0 0.813588,0.296042 1.346774,0.65787 0.756039,0.513061 1.364316,0.67322 2.763417,0.727605 1.623287,0.0631 1.876364,5.02e-4 2.659671,-0.657871 0.990436,-0.832461 1.760387,-0.916625 2.654744,-0.290193 0.583687,0.408829 0.682636,0.406097 1.514338,-0.0418 0.758005,-0.408212 1.036815,-0.433266 1.881775,-0.169095 1.33569,0.417593 2.362504,1.286871 1.976292,1.673084 -0.211577,0.211577 -0.517459,0.100401 -1.12099,-0.407436 -1.053965,-0.886854 -2.729129,-0.974572 -3.232065,-0.169245 -0.181758,0.291042 -0.451784,0.529167 -0.600057,0.529167 -0.148272,0 -0.418298,-0.238125 -0.600056,-0.529167 -0.474702,-0.76012 -1.85193,-0.695229 -2.814534,0.132615 -0.656125,0.564271 -1.031105,0.661135 -2.559386,0.661135 -1.523992,0 -1.907689,-0.0985 -2.57673,-0.661458 -1.140843,-0.959957 -2.483707,-0.906305 -3.22068,0.128679 l -0.562626,0.790137 -0.71216,-0.660765 c -0.39169,-0.363421 -0.933006,-0.730969 -1.202929,-0.816773 -0.373406,-0.118701 -0.456165,-0.329004 -0.34608,-0.879437 0.146987,-0.734928 -0.383588,-2.084961 -0.964582,-2.454354 -0.17338,-0.110234 -0.569434,-0.202249 -0.880119,-0.204477 -0.310686,-0.0022 -0.759915,-0.301708 -0.998287,-0.66551 -0.321863,-0.491224 -0.665298,-0.661458 -1.334448,-0.661458 -0.93,0 -1.1334,0.137555 -2.361432,1.596989 l -0.724928,0.861527 -0.976761,-0.933392 c -1.297548,-1.239936 -1.910625,-1.525124 -3.2786,-1.525124 -2.652532,0 -4.427666,2.136584 -4.438856,5.342689 -0.0043,1.229002 0.141777,2.03854 0.477393,2.645833 0.350548,0.634312 0.432913,1.129763 0.299413,1.801061 l -0.18416,0.926042 z m 46.796419,-3.625406 c 0,-0.210748 -0.21969,-0.654478 -0.48819,-0.986067 -0.36897,-0.455657 -0.7405,-0.594923 -1.521354,-0.570271 -0.960551,0.03033 -0.997069,0.0056 -0.519572,-0.352464 0.656867,-0.49251 1.299456,-0.487266 2.277676,0.01859 0.5936,0.306966 0.78061,0.588454 0.78061,1.17501 0,0.424238 -0.11907,0.844925 -0.26459,0.934862 -0.14552,0.08994 -0.26458,-0.0089 -0.26458,-0.219657 z M 91.41416,66.495391 c -0.218282,-0.07979 -0.656794,-0.381316 -0.974474,-0.67005 -0.435338,-0.39567 -0.84876,-0.499111 -1.678541,-0.419978 -1.093366,0.104269 -1.096928,0.10174 -0.51757,-0.367395 0.320855,-0.259813 0.816137,-0.472387 1.100625,-0.472387 0.58394,0 1.585584,0.474069 1.845889,0.873644 0.272196,0.417829 3.284456,0.741912 4.121142,0.443385 l 0.733137,-0.261581 -0.624623,0.530609 c -0.473255,0.402022 -0.986205,0.525548 -2.116667,0.509721 -0.820624,-0.01148 -1.670637,-0.08617 -1.888918,-0.165968 z m 29.86109,-1.112684 c -0.91282,-0.73916 -0.89513,-2.761504 0.0307,-3.511213 1.34762,-1.091239 3.41847,0.02117 3.43689,1.846218 0.0181,1.794374 -2.06978,2.79689 -3.46761,1.664995 z m 1.8805,-0.221814 c -0.005,-0.10914 -0.18322,-0.429553 -0.39687,-0.712028 -0.33874,-0.447848 -0.38846,-0.456315 -0.38846,-0.06615 0,0.246095 -0.12609,0.447445 -0.2802,0.447445 -0.15411,0 -0.20661,0.119063 -0.11668,0.264583 0.18908,0.305936 1.19477,0.362205 1.18221,0.06615 z m -1.66128,-1.852083 c -0.0666,-0.254662 -0.121,-0.0463 -0.121,0.463021 0,0.509323 0.0545,0.717682 0.121,0.463021 0.0665,-0.254662 0.0665,-0.671381 0,-0.926042 z m 2.46345,0.463021 c 0,-1.223468 -1.4784,-2.406187 -1.98438,-1.5875 -0.0914,0.147828 0.11191,0.264583 0.46064,0.264583 0.87583,0 1.30156,0.484714 0.96995,1.104335 -0.27511,0.514056 -0.12508,1.012332 0.30482,1.012332 0.13693,0 0.24897,-0.357188 0.24897,-0.79375 z M 109.5855,62.103486 c -0.62175,-0.483666 -1.16264,-0.595913 -3.23936,-0.672239 -1.76213,-0.06476 -2.84468,0.02821 -3.69261,0.317126 -1.36484,0.465047 -1.38012,0.185135 -0.025,-0.457911 1.39236,-0.660719 6.06654,-0.601486 7.36286,0.0933 0.96775,0.518684 0.9826,0.518725 2.11275,0.0058 0.88682,-0.402478 1.73427,-0.517825 3.83769,-0.522353 2.72527,-0.0059 4.04734,0.308601 4.04734,0.962701 0,0.453353 -0.24536,0.445985 -1.4144,-0.04247 -1.85978,-0.777065 -6.43712,-0.435894 -7.60227,0.566633 -0.5179,0.445614 -0.48419,0.451704 -1.387,-0.250603 z"
       id="path6201" />
  </g>
</svg>
