<?xml version="1.0" encoding="UTF-8" standalone="no"?>
<!-- Created with Inkscape (http://www.inkscape.org/) -->

<svg
   width="106.85822mm"
   height="45.414955mm"
   viewBox="0 0 106.85822 45.414955"
   version="1.1"
   id="svg5"
   inkscape:version="1.1.2 (0a00cf5339, 2022-02-04)"
   sodipodi:docname="38.html"
   xmlns:inkscape="http://www.inkscape.org/namespaces/inkscape"
   xmlns:sodipodi="http://sodipodi.sourceforge.net/DTD/sodipodi-0.dtd"
   xmlns="http://www.w3.org/2000/svg"
   xmlns:svg="http://www.w3.org/2000/svg">
  <sodipodi:namedview
     id="namedview7"
     pagecolor="#ffffff"
     bordercolor="#666666"
     borderopacity="1.0"
     inkscape:pageshadow="2"
     inkscape:pageopacity="0.0"
     inkscape:pagecheckerboard="0"
     inkscape:document-units="mm"
     showgrid="false"
     inkscape:zoom="1.436063"
     inkscape:cx="275.40575"
     inkscape:cy="85.302666"
     inkscape:window-width="1920"
     inkscape:window-height="1016"
     inkscape:window-x="0"
     inkscape:window-y="0"
     inkscape:window-maximized="1"
     inkscape:current-layer="layer1"
     width="88.69153mm" />
  <defs
     id="defs2" />
  <g
     inkscape:label="Capa 1"
     inkscape:groupmode="layer"
     id="layer1"
     transform="translate(-22.179477,-59.400683)">
    <g
       aria-label="SOLUCIONES CONTABLES"
       id="text1842"
       style="font-size:4.61244px;line-height:1.25;letter-spacing:0px;word-spacing:0px;stroke-width:0.192185" />
    <g
       aria-label="Jorge Fernandez &amp; Asociados"
       id="text7755"
       style="font-weight:bold;font-size:4.45981px;line-height:1.25;-inkscape-font-specification:'sans-serif Bold';letter-spacing:0px;word-spacing:0px;stroke-width:0.185825" />
    <g
       aria-label="NEGOCIOS E INVERSIONES INMOBILIARIOS"
       id="text10831"
       style="font-weight:bold;font-size:3.08526px;line-height:1.25;-inkscape-font-specification:'sans-serif Bold';letter-spacing:0px;word-spacing:0px;stroke-width:0.128552">
      <path
         id="path15268"
         d="m 128.75567,101.57439 v 0.69432 q -0.27026,-0.12091 -0.52733,-0.18237 -0.25706,-0.0616 -0.48557,-0.0616 -0.30321,0 -0.44823,0.0836 -0.14497,0.0834 -0.14497,0.25926 0,0.13185 0.0967,0.20654 0.0989,0.0725 0.35594,0.12528 l 0.36034,0.0725 q 0.54709,0.10982 0.77779,0.33398 0.23071,0.22411 0.23071,0.63717 0,0.5427 -0.32299,0.80857 -0.32078,0.26365 -0.98213,0.26365 -0.312,0 -0.6262,-0.0594 -0.31419,-0.0594 -0.62839,-0.17578 v -0.71407 q 0.3142,0.16698 0.60643,0.25266 0.29441,0.0836 0.56687,0.0836 0.27683,0 0.42405,-0.0923 0.14721,-0.0923 0.14721,-0.26366 0,-0.1538 -0.10108,-0.2373 -0.0989,-0.0836 -0.39768,-0.14941 l -0.32737,-0.0725 q -0.49217,-0.10545 -0.72069,-0.33617 -0.2263,-0.2307 -0.2263,-0.62181 0,-0.48997 0.31639,-0.75363 0.31639,-0.26365 0.90963,-0.26365 0.27025,0 0.55589,0.0417 0.28563,0.0395 0.59104,0.12076 z m -4.60968,0.45043 q -0.38669,0 -0.59982,0.28563 -0.21313,0.28563 -0.21313,0.80416 0,0.51634 0.21313,0.80198 0.21313,0.28563 0.59982,0.28563 0.3889,0 0.60203,-0.28563 0.21313,-0.28564 0.21313,-0.80198 0,-0.51853 -0.21313,-0.80416 -0.21313,-0.28563 -0.60203,-0.28563 z m 0,-0.61301 q 0.79099,0 1.23922,0.45262 0.44822,0.45261 0.44822,1.25018 0,0.79539 -0.44822,1.248 -0.44823,0.45262 -1.23922,0.45262 -0.78878,0 -1.23921,-0.45262 -0.44822,-0.45261 -0.44822,-1.248 0,-0.79757 0.44822,-1.25018 0.45043,-0.45262 1.23921,-0.45262 z m -3.17272,0.0594 h 0.84592 v 3.28039 h -0.84592 z m -2.26308,1.45454 q 0.26585,0 0.38011,-0.0989 0.11639,-0.0989 0.11639,-0.32517 0,-0.22411 -0.11639,-0.32079 -0.1142,-0.0967 -0.38011,-0.0967 h -0.35595 v 0.84152 z m -0.35595,0.58445 v 1.2414 h -0.84591 v -3.28039 h 1.29193 q 0.64817,0 0.94919,0.21752 0.3032,0.21752 0.3032,0.68772 0,0.32519 -0.15818,0.53391 -0.156,0.20874 -0.47241,0.30761 0.17359,0.0395 0.30981,0.18017 0.13841,0.13841 0.27904,0.42185 l 0.45921,0.93161 h -0.90084 l -0.39989,-0.81516 q -0.12091,-0.24608 -0.24607,-0.33617 -0.1231,-0.0901 -0.32959,-0.0901 z m -2.33779,0.64377 h -1.32271 l -0.20874,0.59763 h -0.85029 l 1.21503,-3.28039 h 1.0085 l 1.21504,3.28039 h -0.8503 z m -1.11178,-0.60862 h 0.89865 l -0.44822,-1.30512 z m -2.55311,-2.07414 h 0.84591 v 3.28039 h -0.84591 z m -2.86732,0 h 0.84591 v 2.64101 h 1.4853 v 0.63938 h -2.33121 z m -1.67424,0 h 0.84591 v 3.28039 H 107.81 Z m -2.11589,1.26997 q 0.19995,0 0.30321,-0.088 0.10326,-0.0879 0.10326,-0.25926 0,-0.16918 -0.10326,-0.25707 -0.10326,-0.0901 -0.30321,-0.0901 h -0.468 v 0.6943 z m 0.0286,1.43476 q 0.25487,0 0.3823,-0.10764 0.12966,-0.10764 0.12966,-0.32518 0,-0.21312 -0.12747,-0.31858 -0.12748,-0.10764 -0.38451,-0.10764 h -0.49657 v 0.8591 z m 0.78658,-1.17989 q 0.27246,0.079 0.42186,0.29222 0.14941,0.21313 0.14941,0.52294 0,0.47458 -0.32079,0.70749 -0.32078,0.2329 -0.97554,0.2329 h -1.404 v -3.28039 h 1.26996 q 0.68332,0 0.98873,0.20654 0.30761,0.20654 0.30761,0.66135 0,0.23949 -0.11202,0.40867 -0.11201,0.16698 -0.32518,0.24828 z m -4.45589,-0.97115 q -0.3867,0 -0.59983,0.28563 -0.21312,0.28563 -0.21312,0.80417 0,0.51633 0.21312,0.80198 0.21313,0.28563 0.59983,0.28563 0.38891,0 0.60203,-0.28563 0.21312,-0.28565 0.21312,-0.80198 0,-0.51854 -0.21312,-0.80417 -0.21312,-0.28563 -0.60203,-0.28563 z m 0,-0.613 q 0.79098,0 1.2392,0.45261 0.44823,0.45261 0.44823,1.25019 0,0.79538 -0.44823,1.248 -0.44822,0.45261 -1.2392,0.45261 -0.78878,0 -1.23921,-0.45261 -0.44822,-0.45262 -0.44822,-1.248 0,-0.79758 0.44822,-1.25019 0.45043,-0.45261 1.23921,-0.45261 z m -5.976317,0.0594 H 97.1537 l 0.747038,1.75554 0.751427,-1.75554 h 1.074425 v 3.28039 h -0.799777 v -2.39932 l -0.755832,1.76872 H 97.63487 l -0.755818,-1.76872 v 2.39932 h -0.801979 z m -3.765948,0 h 0.944779 l 1.193073,2.24991 v -2.24991 h 0.801964 v 3.28039 h -0.944779 l -1.193073,-2.24991 v 2.24991 h -0.801964 z m -1.674258,0 h 0.845924 v 3.28039 h -0.845924 z m -2.524556,0.10326 v 0.69431 q -0.270257,-0.12091 -0.527316,-0.18237 -0.257073,-0.0615 -0.485575,-0.0615 -0.303219,0 -0.448229,0.0836 -0.145018,0.0834 -0.145018,0.25926 0,0.13184 0.09667,0.20653 0.09889,0.0725 0.355936,0.12529 l 0.360335,0.0725 q 0.547108,0.10983 0.777811,0.33398 0.23069,0.22412 0.23069,0.63717 0,0.54271 -0.322983,0.80858 -0.32078,0.26365 -0.982131,0.26365 -0.312,0 -0.626192,-0.0594 -0.314196,-0.0594 -0.628393,-0.17578 v -0.71408 q 0.314197,0.16699 0.606421,0.25267 0.294422,0.0836 0.566868,0.0836 0.27685,0 0.424055,-0.0923 0.147205,-0.0923 0.147205,-0.26367 0,-0.15379 -0.101073,-0.23729 -0.09888,-0.0836 -0.397686,-0.14941 l -0.327371,-0.0725 q -0.492167,-0.10544 -0.720672,-0.33616 -0.22631,-0.23071 -0.22631,-0.62181 0,-0.48997 0.316393,-0.75363 0.316393,-0.26366 0.909626,-0.26366 0.270258,0 0.555888,0.0417 0.28563,0.0395 0.591038,0.12076 z m -5.356709,-0.10326 h 2.282865 v 0.63937 h -1.436952 v 0.61082 h 1.351261 v 0.63938 h -1.351261 v 0.75143 h 1.485289 v 0.63939 h -2.331202 z m -3.765963,0 h 0.944785 l 1.193067,2.24991 v -2.24991 h 0.801969 v 3.28039 h -0.944786 l -1.193066,-2.24991 v 2.24991 h -0.801969 z m -2.32681,0.55368 q -0.386702,0 -0.599828,0.28563 -0.213126,0.28563 -0.213126,0.80417 0,0.51634 0.213126,0.80198 0.213126,0.28563 0.599828,0.28563 0.3889,0 0.602026,-0.28563 0.213126,-0.28564 0.213126,-0.80198 0,-0.51854 -0.213126,-0.80417 -0.213126,-0.28563 -0.602026,-0.28563 z m 0,-0.613 q 0.790984,0 1.239208,0.45261 0.448224,0.45262 0.448224,1.25019 0,0.79539 -0.448224,1.248 -0.448224,0.45261 -1.239208,0.45261 -0.788785,0 -1.239206,-0.45261 -0.448224,-0.45261 -0.448224,-1.248 0,-0.79757 0.448224,-1.25019 0.450421,-0.45261 1.239206,-0.45261 z m -3.172715,0.0594 h 0.845911 v 3.28039 h -0.845911 z m -0.957975,0.10326 v 0.69432 q -0.270252,-0.12091 -0.527322,-0.18237 -0.257069,-0.0616 -0.485576,-0.0616 -0.30321,0 -0.448223,0.0836 -0.145017,0.0834 -0.145017,0.25926 0,0.13185 0.09667,0.20654 0.09887,0.0725 0.355943,0.12528 l 0.360337,0.0725 q 0.547096,0.10982 0.7778,0.33398 0.230704,0.22411 0.230704,0.63717 0,0.5427 -0.322985,0.80857 -0.320788,0.26365 -0.982138,0.26365 -0.312,0 -0.626194,-0.0594 -0.314197,-0.0594 -0.628393,-0.17578 v -0.71407 q 0.314196,0.16698 0.60642,0.25267 0.294421,0.0836 0.566871,0.0836 0.276845,0 0.424056,-0.0923 0.147211,-0.0923 0.147211,-0.26366 0,-0.1538 -0.101074,-0.2373 -0.09887,-0.0836 -0.397689,-0.1494 l -0.327379,-0.0725 q -0.492167,-0.10545 -0.720673,-0.33617 -0.226309,-0.2307 -0.226309,-0.62181 0,-0.48997 0.316393,-0.75363 0.316393,-0.26365 0.90963,-0.26365 0.270253,0 0.555887,0.0417 0.285631,0.0395 0.591039,0.12076 z m -4.545955,1.35128 q 0.265859,0 0.380111,-0.0989 0.116446,-0.0989 0.116446,-0.32517 0,-0.22411 -0.116446,-0.32079 -0.114258,-0.0967 -0.380111,-0.0967 h -0.355943 v 0.84152 z m -0.355943,0.58444 v 1.24141 H 66.78433 v -3.28039 h 1.291939 q 0.648167,0 0.94918,0.21752 0.303209,0.21752 0.303209,0.68772 0,0.32519 -0.158196,0.53391 -0.156,0.20874 -0.472393,0.30761 0.173576,0.0395 0.309802,0.18017 0.138425,0.13841 0.279041,0.42185 l 0.459209,0.93161 H 68.84528 l -0.399887,-0.81516 q -0.12085,-0.24608 -0.246083,-0.33617 -0.123038,-0.0901 -0.329576,-0.0901 z m -3.91976,-2.03898 h 2.282865 v 0.63937 h -1.436952 v 0.61082 h 1.351263 v 0.63939 h -1.351263 v 0.75142 h 1.485291 v 0.63939 h -2.331204 z m -3.87362,0 h 0.850306 l 0.870082,2.42128 0.867885,-2.42128 h 0.850306 l -1.215038,3.28039 h -1.008503 z m -3.374863,0 h 0.944785 l 1.193067,2.24991 v -2.24991 h 0.801969 v 3.28039 h -0.944786 l -1.193067,-2.24991 v 2.24991 h -0.801968 z m -1.674246,0 h 0.845913 v 3.28039 h -0.845913 z m -4.640436,0 h 2.282865 v 0.63937 h -1.436952 v 0.61082 h 1.351263 v 0.63939 h -1.351263 v 0.75142 h 1.485291 v 0.63939 h -2.331204 z m -2.524554,0.10326 v 0.69432 q -0.270254,-0.12091 -0.527323,-0.18237 -0.25707,-0.0616 -0.485576,-0.0616 -0.303209,0 -0.448224,0.0836 -0.145017,0.0834 -0.145017,0.25926 0,0.13185 0.09668,0.20654 0.09887,0.0725 0.355943,0.12528 l 0.360337,0.0725 q 0.547096,0.10982 0.777798,0.33398 0.230704,0.22411 0.230704,0.63717 0,0.5427 -0.322984,0.80857 -0.320788,0.26365 -0.982138,0.26365 -0.311999,0 -0.626195,-0.0594 -0.314197,-0.0594 -0.628393,-0.17578 v -0.71407 q 0.314196,0.16698 0.606421,0.25267 0.294422,0.0836 0.566872,0.0836 0.276844,0 0.424054,-0.0923 0.147211,-0.0923 0.147211,-0.26366 0,-0.1538 -0.101073,-0.2373 -0.09887,-0.0836 -0.397688,-0.1494 l -0.327379,-0.0725 q -0.492167,-0.10545 -0.720675,-0.33617 -0.226309,-0.2307 -0.226309,-0.62181 0,-0.48997 0.316394,-0.75363 0.316393,-0.26365 0.909631,-0.26365 0.270252,0 0.555885,0.0417 0.285633,0.0395 0.591041,0.12076 z m -4.609675,0.45043 q -0.386703,0 -0.599829,0.28563 -0.213126,0.28563 -0.213126,0.80417 0,0.51633 0.213126,0.80197 0.213126,0.28563 0.599829,0.28563 0.3889,0 0.602026,-0.28563 0.213126,-0.28564 0.213126,-0.80197 0,-0.51854 -0.213126,-0.80417 -0.213126,-0.28563 -0.602026,-0.28563 z m 0,-0.613 q 0.790983,0 1.239207,0.45261 0.448224,0.45261 0.448224,1.25019 0,0.79538 -0.448224,1.24799 -0.448224,0.45262 -1.239207,0.45262 -0.788786,0 -1.239207,-0.45262 -0.448224,-0.45261 -0.448224,-1.24799 0,-0.79758 0.448224,-1.25019 0.450421,-0.45261 1.239207,-0.45261 z m -3.172722,0.0594 h 0.845912 v 3.28038 h -0.845912 z m -0.700898,3.10022 q -0.232902,0.12091 -0.485576,0.18235 -0.252676,0.0616 -0.527323,0.0616 -0.819546,0 -1.298531,-0.457 -0.478984,-0.45922 -0.478984,-1.24361 0,-0.78659 0.478984,-1.2436 0.478985,-0.4592 1.298531,-0.4592 0.274647,0 0.527323,0.0615 0.252674,0.0615 0.485576,0.18235 v 0.67893 q -0.235098,-0.16039 -0.463604,-0.2351 -0.228507,-0.0747 -0.481182,-0.0747 -0.452618,0 -0.711885,0.29003 -0.259267,0.29002 -0.259267,0.79977 0,0.50755 0.259267,0.79757 0.259267,0.29004 0.711885,0.29004 0.252675,0 0.481182,-0.0747 0.228506,-0.0747 0.463604,-0.23511 z m -4.928266,-2.54654 q -0.386702,0 -0.599828,0.28563 -0.213126,0.28563 -0.213126,0.80417 0,0.51633 0.213126,0.80198 0.213126,0.28563 0.599828,0.28563 0.3889,0 0.602026,-0.28563 0.213126,-0.28565 0.213126,-0.80198 0,-0.51854 -0.213126,-0.80417 -0.213126,-0.28563 -0.602026,-0.28563 z m 0,-0.613 q 0.790983,0 1.239208,0.45261 0.448224,0.45261 0.448224,1.25019 0,0.79539 -0.448224,1.248 -0.448225,0.45261 -1.239208,0.45261 -0.788786,0 -1.239206,-0.45261 -0.448224,-0.45261 -0.448224,-1.248 0,-0.79758 0.448224,-1.25019 0.45042,-0.45261 1.239206,-0.45261 z m -2.243316,3.09582 q -0.316394,0.15379 -0.656955,0.2307 -0.340563,0.0769 -0.703097,0.0769 -0.819546,0 -1.298531,-0.457 -0.478984,-0.45922 -0.478984,-1.24361 0,-0.79317 0.487773,-1.24799 0.487773,-0.45481 1.335883,-0.45481 0.327378,0 0.626195,0.0616 0.301013,0.0615 0.56687,0.18235 v 0.67893 q -0.274646,-0.156 -0.547096,-0.23289 -0.270252,-0.0769 -0.542702,-0.0769 -0.50535,0 -0.779997,0.28344 -0.27245,0.28124 -0.27245,0.80635 0,0.52074 0.263661,0.80417 0.263661,0.28344 0.749237,0.28344 0.131833,0 0.243886,-0.0155 0.114258,-0.0177 0.204337,-0.0526 v -0.63718 H 30.64958 v -0.56687 h 1.318305 z m -6.022458,-3.0365 h 2.282865 v 0.63937 h -1.436954 v 0.61081 h 1.351263 v 0.63939 h -1.351263 v 0.75143 h 1.485291 v 0.63938 h -2.331202 z m -3.76596,0 h 0.944785 l 1.193067,2.2499 v -2.2499 h 0.801969 v 3.28038 h -0.944786 l -1.193065,-2.2499 v 2.2499 h -0.80197 z M 128.79946,94.781551 v 0.86389 q -0.36525,-0.152451 -0.7051,-0.228676 -0.33984,-0.07622 -0.64156,-0.07622 -0.32396,0 -0.48276,0.08258 -0.15563,0.0794 -0.15563,0.247733 0,0.136572 0.11755,0.209619 0.12077,0.07306 0.42878,0.107987 l 0.20009,0.02859 q 0.87342,0.111166 1.17514,0.365248 0.30173,0.254085 0.30173,0.797192 0,0.568516 -0.41924,0.854364 -0.41924,0.285849 -1.25137,0.285849 -0.35255,0 -0.7305,-0.05717 -0.37477,-0.05396 -0.77177,-0.165144 V 97.23349 q 0.33982,0.165155 0.69555,0.247733 0.35889,0.08258 0.72732,0.08258 0.33348,0 0.50182,-0.0921 0.16833,-0.0921 0.16833,-0.273142 0,-0.152451 -0.11756,-0.225501 -0.11434,-0.07622 -0.46053,-0.11751 l -0.20009,-0.02541 q -0.75909,-0.09528 -1.06398,-0.352543 -0.3049,-0.257262 -0.3049,-0.781312 0,-0.56534 0.38748,-0.838481 0.38747,-0.273141 1.18785,-0.273141 0.31442,0 0.66062,0.04763 0.34619,0.04763 0.75273,0.149275 z m -5.55495,0.616157 q -0.37795,0 -0.57804,0.273141 -0.19691,0.269966 -0.19691,0.781312 0,0.511347 0.19691,0.784488 0.20009,0.269966 0.57804,0.269966 0.37161,0 0.56852,-0.269966 0.19691,-0.273141 0.19691,-0.784488 0,-0.511346 -0.19691,-0.781312 -0.19691,-0.273141 -0.56852,-0.273141 z m 0,-0.813072 q 0.91789,0 1.43241,0.495466 0.51769,0.495466 0.51769,1.372059 0,0.876594 -0.51769,1.372063 -0.51452,0.495463 -1.43241,0.495463 -0.92105,0 -1.44193,-0.495463 -0.51769,-0.495469 -0.51769,-1.372063 0,-0.876593 0.51769,-1.372059 0.52088,-0.495466 1.44193,-0.495466 z m -3.92879,0.606627 v -1.905639 h 1.14338 v 4.94196 h -1.14338 V 97.71306 q -0.23502,0.314434 -0.51769,0.460531 -0.28267,0.146096 -0.65428,0.146096 -0.65744,0 -1.07986,-0.52087 -0.42241,-0.524055 -0.42241,-1.346656 0,-0.8226 0.42241,-1.343474 0.42242,-0.524051 1.07986,-0.524051 0.36843,0 0.6511,0.149274 0.28585,0.146099 0.52087,0.457353 z m -0.74954,2.302647 q 0.36525,0 0.5558,-0.266789 0.19374,-0.266789 0.19374,-0.77496 0,-0.50817 -0.19374,-0.77496 -0.19055,-0.266788 -0.5558,-0.266788 -0.36207,0 -0.55582,0.266788 -0.19057,0.26679 -0.19057,0.77496 0,0.508171 0.19057,0.77496 0.19375,0.266789 0.55582,0.266789 z m -4.46556,-0.867065 q -0.35571,0 -0.53675,0.12069 -0.17787,0.120689 -0.17787,0.355718 0,0.215973 0.14294,0.339839 0.14609,0.12069 0.40336,0.12069 0.32078,0 0.53993,-0.228676 0.21914,-0.231853 0.21914,-0.578045 v -0.130213 z m 1.73731,-0.428768 v 2.029507 h -1.14656 v -0.527229 q -0.22868,0.323959 -0.51453,0.473236 -0.28583,0.146096 -0.69555,0.146096 -0.55264,0 -0.89882,-0.32078 -0.34303,-0.323961 -0.34303,-0.838483 0,-0.625684 0.42878,-0.917882 0.43194,-0.292198 1.353,-0.292198 h 0.67015 v -0.08892 q 0,-0.269966 -0.2128,-0.393833 -0.21279,-0.127049 -0.6638,-0.127049 -0.36523,0 -0.67967,0.07306 -0.31443,0.07305 -0.5844,0.219148 v -0.867066 q 0.36525,-0.08892 0.73368,-0.133393 0.36841,-0.04763 0.73684,-0.04763 0.96235,0 1.38794,0.381128 0.42877,0.377951 0.42877,1.232313 z m -5.56129,-1.527688 h 1.13704 v 3.557195 h -1.13704 z m 0,-1.384765 h 1.13704 v 0.927412 h -1.13704 z m -0.9814,1.495927 v 0.927411 q -0.23186,-0.158803 -0.46688,-0.235029 -0.23186,-0.07622 -0.48276,-0.07622 -0.47642,0 -0.7432,0.279493 -0.26362,0.276318 -0.26362,0.774961 0,0.498642 0.26362,0.778136 0.26678,0.276317 0.7432,0.276317 0.26679,0 0.50499,-0.0794 0.24138,-0.0794 0.44465,-0.235029 v 0.930587 q -0.26679,0.09845 -0.54312,0.146097 -0.27313,0.05076 -0.54945,0.05076 -0.96234,0 -1.50545,-0.492284 -0.54312,-0.495466 -0.54312,-1.375236 0,-0.87977 0.54312,-1.37206 0.54311,-0.495466 1.50545,-0.495466 0.2795,0 0.54945,0.05081 0.27315,0.04763 0.54312,0.146098 z m -5.65022,0.616157 q -0.37795,0 -0.57804,0.273141 -0.19692,0.269966 -0.19692,0.781312 0,0.511347 0.19692,0.784488 0.20009,0.269966 0.57804,0.269966 0.3716,0 0.56851,-0.269966 0.19692,-0.273141 0.19692,-0.784488 0,-0.511346 -0.19692,-0.781312 -0.19691,-0.273141 -0.56851,-0.273141 z m 0,-0.813072 q 0.91789,0 1.4324,0.495466 0.5177,0.495466 0.5177,1.372059 0,0.876594 -0.5177,1.372063 -0.51451,0.495463 -1.4324,0.495463 -0.92106,0 -1.44193,-0.495463 -0.51771,-0.495469 -0.51771,-1.372063 0,-0.876593 0.51771,-1.372059 0.52087,-0.495466 1.44193,-0.495466 z m -2.7854,0.196915 v 0.86389 q -0.36525,-0.152451 -0.70509,-0.228676 -0.339847,-0.07622 -0.641565,-0.07622 -0.323959,0 -0.482774,0.08258 -0.155621,0.0794 -0.155621,0.247733 0,0.136572 0.117554,0.209619 0.120763,0.07306 0.428767,0.107987 l 0.200104,0.02859 q 0.873415,0.111166 1.175135,0.365248 0.30173,0.254085 0.30173,0.797192 0,0.568516 -0.41924,0.854364 -0.41924,0.285849 -1.25137,0.285849 -0.352546,0 -0.730499,-0.05717 -0.374773,-0.05396 -0.771788,-0.165144 V 97.23349 q 0.339842,0.165155 0.695568,0.247733 0.35889,0.08258 0.727319,0.08258 0.333483,0 0.501822,-0.0921 0.168328,-0.0921 0.168328,-0.273142 0,-0.152451 -0.117558,-0.225501 -0.114346,-0.07622 -0.460532,-0.11751 l -0.20009,-0.02541 q -0.759085,-0.09528 -1.063982,-0.352543 -0.304912,-0.257262 -0.304912,-0.781312 0,-0.56534 0.387491,-0.838481 0.387477,-0.273141 1.187852,-0.273141 0.31442,0 0.660611,0.04763 0.3462,0.04763 0.75274,0.149275 z m -4.884802,2.582141 h -1.911991 l -0.301717,0.863892 h -1.229141 l 1.75637,-4.741867 h 1.457803 l 1.75637,4.741867 h -1.229141 z m -1.607079,-0.87977 h 1.299003 l -0.647919,-1.886583 z m -7.266845,-1.40382 1.299017,1.429228 q 0.168324,-0.222323 0.254083,-0.498641 0.08897,-0.276318 0.104865,-0.625686 h 0.987762 q -0.04769,0.578044 -0.225512,1.029045 -0.174683,0.451001 -0.489104,0.790841 l 0.930589,1.022695 h -1.346652 l -0.311256,-0.346187 q -0.333498,0.222317 -0.701912,0.330304 -0.368429,0.107928 -0.781312,0.107928 -0.835307,0 -1.353006,-0.43829 -0.514523,-0.44148 -0.514523,-1.137038 0,-0.463706 0.225501,-0.819425 0.228677,-0.358895 0.743199,-0.695558 -0.133393,-0.168331 -0.196916,-0.336663 -0.06352,-0.168331 -0.06352,-0.352543 0,-0.517699 0.403361,-0.828953 0.403359,-0.311255 1.073501,-0.311255 0.289029,0 0.600285,0.04763 0.314421,0.04447 0.654263,0.136573 v 0.882946 q -0.298552,-0.152452 -0.565339,-0.225502 -0.266787,-0.07304 -0.52087,-0.07304 -0.244559,0 -0.381132,0.09528 -0.133452,0.0921 -0.133452,0.263613 0,0.107987 0.07628,0.247733 0.07934,0.136573 0.231856,0.304903 z m -0.632036,0.787664 q -0.206445,0.149274 -0.311255,0.339839 -0.104807,0.187387 -0.104807,0.412888 0,0.365248 0.269966,0.622509 0.269965,0.257261 0.647918,0.257261 0.212793,0 0.397,-0.06352 0.184222,-0.0667 0.343022,-0.196916 z m -7.584443,-1.197552 h 3.103015 v 0.794016 l -1.873879,1.950104 h 1.873879 v 0.813075 H 78.805013 V 97.43339 l 1.873879,-1.950104 h -1.794477 z m -0.686027,1.769068 v 0.323959 h -2.658366 q 0.04129,0.400184 0.289021,0.600276 0.247733,0.200091 0.692383,0.200091 0.358894,0 0.73367,-0.104807 0.377952,-0.107986 0.774961,-0.323958 v 0.876593 q -0.403361,0.152456 -0.806721,0.228676 -0.403361,0.07934 -0.80672,0.07934 -0.965524,0 -1.50228,-0.489119 -0.533579,-0.492282 -0.533579,-1.378404 0,-0.870242 0.524051,-1.368885 0.527227,-0.498641 1.448286,-0.498641 0.838481,0 1.3403,0.504995 0.504994,0.504994 0.504994,1.349826 z M 77.029595,96.06133 q 0,-0.323958 -0.190563,-0.520874 -0.187388,-0.200093 -0.492289,-0.200093 -0.330312,0 -0.536756,0.187388 -0.206445,0.184212 -0.257262,0.533579 z m -4.618001,-0.870242 v -1.905639 h 1.143383 v 4.94196 h -1.143383 v -0.514524 q -0.235029,0.314434 -0.517698,0.460531 -0.28267,0.146096 -0.654269,0.146096 -0.657446,0 -1.079862,-0.52087 -0.422418,-0.524055 -0.422418,-1.346656 0,-0.8226 0.422418,-1.343474 0.422416,-0.524051 1.079862,-0.524051 0.368423,0 0.651092,0.149274 0.285846,0.146099 0.520875,0.457353 z m -0.749551,2.302647 q 0.365248,0 0.555811,-0.266789 0.19374,-0.266789 0.19374,-0.77496 0,-0.50817 -0.19374,-0.77496 -0.190563,-0.266788 -0.555811,-0.266788 -0.362071,0 -0.555811,0.266788 -0.190565,0.26679 -0.190565,0.77496 0,0.508171 0.190565,0.77496 0.19374,0.266789 0.555811,0.266789 z m -2.72506,-1.432405 v 2.166079 h -1.143384 v -0.352546 -1.305362 q 0,-0.460529 -0.02223,-0.635214 -0.01906,-0.174683 -0.06988,-0.257261 -0.0667,-0.111166 -0.181035,-0.171507 -0.114346,-0.06352 -0.260438,-0.06352 -0.35572,0 -0.558988,0.276318 -0.203268,0.273141 -0.203268,0.759079 v 1.75001 h -1.137031 v -3.557191 h 1.137031 v 0.520875 q 0.257262,-0.311255 0.546283,-0.457353 0.289023,-0.149275 0.638389,-0.149275 0.616157,0 0.933764,0.377951 0.320783,0.377951 0.320783,1.098919 z m -6.371187,0.56534 q -0.355719,0 -0.536755,0.12069 -0.177859,0.120689 -0.177859,0.355718 0,0.215973 0.142918,0.339839 0.146099,0.12069 0.403361,0.12069 0.320782,0 0.53993,-0.228676 0.219149,-0.231853 0.219149,-0.578045 v -0.130213 z m 1.737308,-0.428768 v 2.029507 h -1.14656 V 97.70018 q -0.228676,0.323959 -0.514523,0.473236 -0.285844,0.146096 -0.695557,0.146096 -0.552636,0 -0.898827,-0.32078 -0.343015,-0.323961 -0.343015,-0.838483 0,-0.625684 0.42877,-0.917882 0.431944,-0.292198 1.353003,-0.292198 h 0.670149 v -0.08892 q 0,-0.269967 -0.212796,-0.393833 -0.212797,-0.127049 -0.663798,-0.127049 -0.365248,0 -0.679677,0.07306 -0.314431,0.07305 -0.584396,0.219148 v -0.867066 q 0.365248,-0.08892 0.73367,-0.133393 0.368423,-0.04763 0.736848,-0.04763 0.962347,0 1.38794,0.381128 0.428769,0.377951 0.428769,1.232313 z m -4.386146,-0.136573 v 2.16608 H 58.773575 V 97.874863 96.5695 q 0,-0.46053 -0.02223,-0.635214 -0.01906,-0.174683 -0.06988,-0.257262 -0.0667,-0.111165 -0.181035,-0.171506 -0.114345,-0.06352 -0.260437,-0.06352 -0.35572,0 -0.558988,0.276318 -0.203268,0.273141 -0.203268,0.759079 v 1.750011 h -1.13703 v -3.557192 h 1.13703 v 0.520874 q 0.257261,-0.311254 0.546284,-0.457353 0.289021,-0.149274 0.638389,-0.149274 0.616156,0 0.933762,0.377951 0.320783,0.377951 0.320783,1.098918 z m -4.14159,-0.422416 q -0.149275,-0.06988 -0.29855,-0.101628 -0.146098,-0.03493 -0.295375,-0.03493 -0.438296,0 -0.676501,0.28267 -0.235029,0.279495 -0.235029,0.803544 v 1.638855 h -1.13703 v -3.557197 h 1.13703 v 0.584395 q 0.219149,-0.349366 0.501819,-0.50817 0.285845,-0.161979 0.682854,-0.161979 0.05717,0 0.12387,0.0064 0.0667,0.0032 0.193739,0.01906 z m -3.503199,0.800367 v 0.32396 h -2.658367 q 0.04129,0.400184 0.289022,0.600275 0.247733,0.200092 0.692382,0.200092 0.358896,0 0.733671,-0.104807 0.377953,-0.107987 0.77496,-0.323958 v 0.876594 q -0.403361,0.152456 -0.80672,0.228676 -0.403361,0.07934 -0.806721,0.07934 -0.965523,0 -1.502278,-0.489119 -0.533579,-0.492283 -0.533579,-1.378405 0,-0.870243 0.524051,-1.368885 0.527226,-0.498641 1.448285,-0.498641 0.83848,0 1.3403,0.504994 0.504994,0.504994 0.504994,1.349827 z m -1.168792,-0.377951 q 0,-0.323958 -0.190565,-0.520874 -0.187388,-0.200093 -0.492289,-0.200093 -0.330311,0 -0.536756,0.187388 -0.206443,0.184211 -0.257261,0.533579 z m -6.510933,-2.575787 h 3.299931 v 0.924234 h -2.077146 v 0.882947 h 1.953279 v 0.924234 h -1.953279 v 2.010452 h -1.222785 z m -3.176064,2.95374 v 0.323959 h -2.658366 q 0.04129,0.400184 0.289021,0.600276 0.247733,0.200091 0.692382,0.200091 0.358895,0 0.733671,-0.104807 0.377951,-0.107986 0.774961,-0.323958 v 0.876593 q -0.403361,0.152456 -0.806721,0.228676 -0.403361,0.07934 -0.80672,0.07934 -0.965524,0 -1.50228,-0.489119 -0.533578,-0.492282 -0.533578,-1.378404 0,-0.870242 0.52405,-1.368885 0.527227,-0.498641 1.448286,-0.498641 0.838481,0 1.3403,0.504995 0.504994,0.504994 0.504994,1.349826 z M 40.247588,96.06133 q 0,-0.323958 -0.190564,-0.520874 -0.187388,-0.200093 -0.49229,-0.200093 -0.330311,0 -0.536756,0.187388 -0.206443,0.184212 -0.257261,0.533579 z m -4.618,1.562625 q -0.235028,0.31126 -0.517698,0.457357 -0.282669,0.146097 -0.654269,0.146097 -0.651094,0 -1.076686,-0.511349 -0.425593,-0.514523 -0.425593,-1.308538 0,-0.797193 0.425593,-1.305364 0.425592,-0.511346 1.076686,-0.511346 0.3716,0 0.654269,0.1461 0.28267,0.146098 0.517698,0.460529 v -0.527227 h 1.143384 v 3.198305 q 0,0.857532 -0.543106,1.308526 -0.539931,0.454188 -1.568977,0.454188 -0.333487,0 -0.64474,-0.0509 -0.311255,-0.05076 -0.625686,-0.155621 v -0.886119 q 0.29855,0.171503 0.584396,0.254083 0.285846,0.08576 0.574867,0.08576 0.558988,0 0.819426,-0.244559 0.260436,-0.244559 0.260436,-0.765429 z m -0.749551,-2.213717 q -0.352542,0 -0.549459,0.260436 -0.196916,0.260438 -0.196916,0.736848 0,0.489114 0.190565,0.743199 0.190563,0.250909 0.55581,0.250909 0.35572,0 0.552636,-0.260438 0.196915,-0.260436 0.196915,-0.73367 0,-0.47641 -0.196915,-0.736848 -0.196916,-0.260436 -0.552636,-0.260436 z m -2.235948,0.228676 q -0.149275,-0.06988 -0.298551,-0.101627 -0.146099,-0.03493 -0.295373,-0.03493 -0.438298,0 -0.676503,0.28267 -0.235028,0.279494 -0.235028,0.803544 v 1.638853 h -1.137032 v -3.557196 h 1.137032 v 0.584396 q 0.219148,-0.349366 0.501818,-0.508171 0.285846,-0.161978 0.682854,-0.161978 0.05717,0 0.123869,0.0064 0.0667,0.0032 0.19374,0.01906 z m -5.418368,-0.241381 q -0.377951,0 -0.578042,0.273141 -0.196917,0.269966 -0.196917,0.781312 0,0.511346 0.196917,0.784488 0.200091,0.269966 0.578042,0.269966 0.3716,0 0.568516,-0.269966 0.196916,-0.273142 0.196916,-0.784488 0,-0.511346 -0.196916,-0.781312 -0.196916,-0.273141 -0.568516,-0.273141 z m 0,-0.813072 q 0.917884,0 1.432406,0.495466 0.517698,0.495466 0.517698,1.372059 0,0.876594 -0.517698,1.372063 -0.514522,0.495463 -1.432406,0.495463 -0.921059,0 -1.441933,-0.495463 -0.517698,-0.495469 -0.517698,-1.372063 0,-0.876593 0.517698,-1.372059 0.520874,-0.495466 1.441933,-0.495466 z m -4.062186,-1.098919 h 1.222785 v 4.281334 q 0,0.88612 -0.482763,1.324425 -0.479584,0.43829 -1.454636,0.43829 h -0.247733 v -0.92423 h 0.190563 q 0.381128,0 0.574868,-0.212793 0.196916,-0.212808 0.196916,-0.625692 z m 14.603983,-4.532484 c -0.393734,-0.393734 -0.306009,-17.03219 0.0911,-17.277613 0.395223,-0.24426 35.514614,-9.732542 41.713846,-11.269922 l 4.05187,-1.00484 5.788369,2.325035 5.788376,2.325034 0.118721,-1.505263 0.11872,-1.505264 h 3.836729 3.836711 v 2.997809 2.997809 l 4.82366,2.402719 4.82364,2.402719 v 8.684518 c 0,8.427259 -0.0229,8.684521 -0.77179,8.684521 -0.74728,0 -0.77178,-0.257262 -0.77178,-8.105683 v -8.105681 l -4.82365,-2.402719 -4.82364,-2.402718 v -2.611918 -2.611918 h -2.122406 -2.122392 v 1.736513 c 0,1.195016 -0.161411,1.736512 -0.517617,1.736512 -0.284683,0 -3.257695,-1.128733 -6.60669,-2.508296 -3.348981,-1.379563 -6.435661,-2.508296 -6.859293,-2.508296 -0.667988,0 -39.250533,10.169909 -42.646013,11.240992 l -1.254148,0.395613 v 8.073798 c 0,7.571879 -0.04399,8.073801 -0.707469,8.073801 -0.389107,0 -0.823235,-0.11576 -0.964729,-0.257262 z m 5.70286,-0.237671 c -0.105405,-0.274682 -0.143763,-3.343713 -0.08522,-6.820073 l 0.106425,-6.320645 0.964729,-0.294067 c 0.530601,-0.161734 9.505115,-2.585124 19.943376,-5.385307 l 18.978639,-5.091244 11.506795,4.939931 c 6.328748,2.716963 11.727778,5.107155 11.997858,5.311539 0.37209,0.281594 0.46557,2.017609 0.38589,7.166732 l -0.10516,6.795121 -31.75083,0.09873 c -25.693808,0.07988 -31.78741,0.0035 -31.942497,-0.400707 z"
         style="fill:#ffffff;stroke-width:0.187492" />
    </g>
  </g>
</svg>
