<?xml version="1.0" encoding="UTF-8" standalone="no"?>
<!-- Created with Inkscape (http://www.inkscape.org/) -->

<svg
   width="109.6338mm"
   height="49.533581mm"
   viewBox="0 0 109.63379 49.533581"
   version="1.1"
   id="svg5"
   inkscape:version="1.1.2 (0a00cf5339, 2022-02-04)"
   sodipodi:docname="39.html"
   xmlns:inkscape="http://www.inkscape.org/namespaces/inkscape"
   xmlns:sodipodi="http://sodipodi.sourceforge.net/DTD/sodipodi-0.dtd"
   xmlns="http://www.w3.org/2000/svg"
   xmlns:svg="http://www.w3.org/2000/svg">
  <sodipodi:namedview
     id="namedview7"
     pagecolor="#ffffff"
     bordercolor="#666666"
     borderopacity="1.0"
     inkscape:pageshadow="2"
     inkscape:pageopacity="0.0"
     inkscape:pagecheckerboard="0"
     inkscape:document-units="mm"
     showgrid="false"
     inkscape:zoom="1.436063"
     inkscape:cx="244.76642"
     inkscape:cy="83.213621"
     inkscape:window-width="1920"
     inkscape:window-height="1016"
     inkscape:window-x="0"
     inkscape:window-y="0"
     inkscape:window-maximized="1"
     inkscape:current-layer="layer1"
     width="104.6338mm" />
  <defs
     id="defs2" />
  <g
     inkscape:label="Capa 1"
     inkscape:groupmode="layer"
     id="layer1"
     transform="translate(-30.23791,-59.988987)">
    <g
       aria-label="SOLUCIONES CONTABLES"
       id="text1842"
       style="font-size:4.61244px;line-height:1.25;letter-spacing:0px;word-spacing:0px;stroke-width:0.192185" />
    <g
       aria-label="Jorge Fernandez &amp; Asociados"
       id="text7755"
       style="font-weight:bold;font-size:4.45981px;line-height:1.25;-inkscape-font-specification:'sans-serif Bold';letter-spacing:0px;word-spacing:0px;stroke-width:0.185825" />
    <path
       style="fill:#ffffff;stroke-width:0.491798"
       d="m 124.5812,109.2799 c -0.11654,-0.20728 -0.34818,-0.94896 -0.51479,-1.64818 -0.22322,-0.93691 -0.79133,-1.41765 -2.15977,-1.82765 -1.68297,-0.50422 -1.926,-0.79973 -2.59469,-3.15488 -0.69979,-2.46467 -0.85623,-2.63655 -3.03658,-3.336245 -1.26432,-0.405734 -2.44486,-0.886242 -2.62341,-1.067793 -0.17863,-0.181546 0.88425,-0.711171 2.36181,-1.176924 2.66645,-0.840529 2.69114,-0.866424 3.31845,-3.481348 0.34759,-1.448982 0.78597,-2.634518 0.97411,-2.634518 0.18816,0 0.65076,1.161876 1.02801,2.581945 0.64449,2.426099 0.81948,2.627632 2.89899,3.338903 1.2172,0.416327 2.54506,0.877389 2.9508,1.024579 0.43184,0.156675 -0.46631,0.668959 -2.16632,1.235631 -2.75446,0.91815 -2.93769,1.08066 -3.55808,3.15571 -0.35974,1.20324 -0.65742,2.21235 -0.66153,2.24246 -0.004,0.0301 0.57601,-0.0568 1.28915,-0.19312 0.94438,-0.18052 1.49759,-0.75947 2.03641,-2.13115 0.83129,-2.11629 1.3226,-2.11601 1.74601,9.8e-4 0.22129,1.10642 0.69325,1.57417 2.03524,2.01707 1.97833,0.65291 1.90712,1.25766 -0.2027,1.72105 -1.07665,0.23647 -1.51701,0.67682 -1.75348,1.75349 -0.32436,1.4768 -0.99199,2.24809 -1.36763,1.57997 z m -32.794632,-0.99162 c 0.0112,-0.75641 0.34387,-2.48776 1.23082,-6.39339 0.20731,-0.91292 0.58332,-1.10655 2.14889,-1.10655 2.41537,0 3.15968,0.8706 2.72504,3.18738 -0.38577,2.05638 -2.09832,3.45507 -3.6337,2.96775 -0.8371,-0.26568 -1.00768,-0.10608 -1.00768,0.94282 0,0.79448 -0.27354,1.26264 -0.73771,1.26264 -0.40573,0 -0.73228,-0.3873 -0.72566,-0.86065 z m 4.44368,-4.12225 c 0.1904,-0.71193 0.15893,-1.59717 -0.0699,-1.9672 -0.76217,-1.23278 -2.17161,0.84662 -1.98518,2.92881 0.10149,1.13334 1.69403,0.38811 2.05498,-0.96161 z m 5.257322,2.4964 c -1.952322,-1.16409 -0.48344,-5.87409 1.83193,-5.87409 2.01215,0 2.71723,0.52413 2.71723,2.01982 0,1.33204 -0.12546,1.42278 -1.9672,1.42278 -1.42076,0 -1.9672,0.20491 -1.9672,0.7377 0,0.8543 1.51998,0.98819 2.30513,0.20304 0.385,-0.385 0.63456,-0.37301 0.89158,0.0428 0.74494,1.20534 -2.28676,2.35702 -3.81147,1.4479 z m 3.07376,-3.87786 c 0,-0.91764 -1.09474,-1.11226 -1.87389,-0.33312 -0.73332,0.73332 -0.69094,0.79589 0.53901,0.79589 0.73418,0 1.33488,-0.20825 1.33488,-0.46277 z m 7.74587,3.8677 c -1.02281,-0.59779 -1.12636,-2.08038 -0.19902,-2.85 0.36389,-0.302 1.37361,-0.69149 2.24383,-0.86553 0.99293,-0.19859 1.40919,-0.48946 1.11766,-0.781 -0.29155,-0.29154 -0.84414,-0.2275 -1.48378,0.17196 -1.23313,0.7701 -1.93808,0.25161 -1.07381,-0.78977 0.75008,-0.9038 3.24016,-0.99251 3.78475,-0.13483 0.2147,0.33811 0.39374,1.66527 0.39788,2.94924 0.007,2.18117 -0.0732,2.33028 -1.22197,2.27046 -0.67622,-0.0352 -1.56146,0.0702 -1.96719,0.23423 -0.40573,0.16404 -1.125,0.0719 -1.59835,-0.20476 z m 2.58194,-1.68363 c 0.51056,-0.6152 0.44372,-0.7377 -0.40256,-0.7377 -1.0771,0 -1.74783,0.63647 -1.2234,1.1609 0.49555,0.49554 0.96485,0.37338 1.62596,-0.4232 z m -38.958422,-1.9672 c 0.519526,-2.61093 0.947972,-3.688495 1.46655,-3.688495 0.724325,0 0.652223,1.835695 -0.207625,5.286845 -0.24768,0.99402 -0.09535,1.10654 1.498911,1.10654 0.976039,0 1.774603,0.22131 1.774603,0.4918 0,0.27049 -1.184927,0.4918 -2.633186,0.4918 h -2.633187 z m 5.18325,2.58194 c 0.146099,-0.6086 0.416029,-1.93645 0.599843,-2.95079 0.196676,-1.08534 0.615252,-1.84425 1.017173,-1.84425 0.822096,0 0.832561,0.23766 0.150375,3.41839 -0.357107,1.66518 -0.779698,2.4832 -1.282811,2.4832 -0.528893,0 -0.67187,-0.32649 -0.484618,-1.10655 z m 2.299984,0.63896 c 0,-0.25718 0.240171,-1.58747 0.533708,-2.95621 l 0.533726,-2.48862 3.523632,0.12837 c 3.29416,0.12 3.53441,0.20462 3.68922,1.29933 0.2688,1.90072 -0.39285,4.48472 -1.14832,4.48472 -0.54208,0 -0.62877,-0.53587 -0.39966,-2.47036 0.25254,-2.13227 0.18476,-2.42901 -0.49491,-2.16818 -0.43564,0.16718 -0.96786,1.21425 -1.19118,2.34353 -0.25178,1.27316 -0.70464,2.09929 -1.20338,2.19535 -0.69133,0.13314 -0.73802,-0.12051 -0.34452,-1.87186 0.25035,-1.11423 0.32052,-2.24375 0.15595,-2.51005 -0.53689,-0.86871 -1.596257,0.52137 -1.93775,2.54269 -0.200598,1.1873 -0.596776,1.93888 -1.022044,1.93888 -0.381958,0 -0.694472,-0.21041 -0.694472,-0.46759 z m 14.983586,-1.80838 c 0.4532,-3.02216 0.71901,-3.62562 1.59692,-3.62562 0.423132,0 0.627282,0.28776 0.478752,0.67482 -0.14238,0.37116 -0.41254,1.69901 -0.600272,2.9508 -0.23146,1.54353 -0.57869,2.27597 -1.079,2.27597 -0.59864,0 -0.67336,-0.42906 -0.3964,-2.27597 z m 7.639192,1.8727 c 0,-0.2218 0.79184,-1.32835 1.75964,-2.459 l 1.75963,-2.05572 h -1.26784 c -0.69728,0 -1.26781,-0.22131 -1.26781,-0.4918 0,-0.27049 0.99589,-0.4918 2.21311,-0.4918 2.64717,0 2.75468,0.48465 0.64011,2.88587 l -1.57301,1.78622 1.32709,0.15562 c 2.29162,0.26872 1.44295,1.07388 -1.13189,1.07388 -1.35245,0 -2.45903,-0.18147 -2.45903,-0.40327 z M 82.430347,99.558845 c 0,-0.405733 0.331976,-0.737698 0.737708,-0.737698 0.405732,0 0.737689,0.331965 0.737689,0.737698 0,0.405734 -0.331957,0.737695 -0.737689,0.737695 -0.405732,0 -0.737708,-0.331961 -0.737708,-0.737695 z m 16.843901,0.122958 c 0.11264,-0.338112 0.57285,-0.686153 1.022862,-0.773428 0.57055,-0.110652 0.72834,0.07541 0.52136,0.614749 -0.34887,0.909166 -1.845312,1.062926 -1.544222,0.158683 z M 42.782099,98.555111 c -0.651926,-0.994984 -0.707763,-1.493329 -0.273964,-2.445433 1.221136,-2.680072 5.004491,-1.701063 5.004491,1.294996 0,2.485199 -3.325968,3.294056 -4.730527,1.150437 z m 1.272866,-2.438851 c 0,-0.27049 -0.214539,-0.159835 -0.476737,0.245898 -0.262198,0.405734 -0.476737,0.959009 -0.476737,1.229499 0,0.270488 0.214539,0.159836 0.476737,-0.2459 0.262198,-0.405734 0.476737,-0.959009 0.476737,-1.229497 z m 26.40828,0.901629 c -0.625029,-0.625018 -0.367887,-10.340794 0.286882,-10.839596 0.33811,-0.257579 2.017935,-0.496047 3.732927,-0.529933 2.685288,-0.05307 3.282715,0.102902 4.303253,1.123447 0.908027,0.908038 1.185057,1.712848 1.185057,3.442864 0,3.019636 -1.557592,4.67209 -4.403849,4.67209 -1.794306,0 -1.989551,0.120653 -1.989551,1.229499 0,1.022168 -0.234967,1.229497 -1.393425,1.229497 -0.766389,0 -1.540975,-0.14753 -1.721294,-0.327868 z m 6.007966,-5.678327 c 0.437833,-1.183548 0.196267,-2.702401 -0.49802,-3.131496 -0.240245,-0.148478 -0.877468,-0.130132 -1.416028,0.04082 -0.759046,0.240911 -0.979199,0.745611 -0.979199,2.244839 0,1.741688 0.123794,1.934056 1.245356,1.934056 0.836093,0 1.377626,-0.357608 1.647891,-1.088205 z M 61.52889,95.04663 c -3.686402,-0.805945 -5.163881,-2.526622 -5.163881,-6.013895 0,-4.091182 1.979087,-5.949151 6.33695,-5.949151 4.83183,0 6.688572,1.746974 6.623739,6.232191 -0.03811,2.629841 -0.817431,4.130876 -2.627406,5.060007 -1.055242,0.541692 -4.007653,0.924838 -5.169402,0.670848 z m 3.464391,-3.311691 c 1.271137,-0.929469 1.234724,-4.596683 -0.05502,-5.539742 -2.252157,-1.646813 -5.130702,-0.08153 -5.130702,2.789975 0,2.906056 2.882002,4.434268 5.185685,2.749767 z m 16.727258,2.058794 C 81.153541,92.984223 80.95495,91.445354 80.95495,87.860989 v -4.839734 l 1.598355,0.154111 c 1.321807,0.127437 1.624768,0.382862 1.751034,1.476248 0.106879,0.925507 0.475733,1.368117 1.2295,1.475398 0.681609,0.09701 1.134479,0.559377 1.233959,1.259806 0.12807,0.901212 -0.0773,1.106549 -1.10654,1.106549 -1.146451,0 -1.263702,0.182512 -1.263702,1.967195 0,1.85791 0.08197,1.967198 1.475397,1.967198 1.245875,0 1.475395,0.191254 1.475395,1.229497 0,1.14565 -0.1658,1.229497 -2.431118,1.229497 -1.954717,0 -2.581122,-0.214182 -3.196691,-1.093028 z m 6.611399,-3.333163 v -4.48852 l 1.59835,0.15411 1.59836,0.154111 v 4.180291 4.180293 l -1.59836,0.154111 -1.59835,0.15411 z m 4.75406,4.098323 c -0.4475,-0.447502 -0.40243,-7.645925 0.0524,-8.36081 0.24341,-0.382619 1.51169,-0.50436 3.80392,-0.36514 4.906972,0.298024 5.234862,0.294996 6.955642,-0.06422 1.20154,-0.250828 1.78156,-0.0916 2.58195,0.708776 0.86499,0.864982 1.03228,1.630028 1.03228,4.720764 v 3.688493 h -1.47541 -1.47541 v -3.167668 c 0,-3.251893 -0.33065,-3.9372 -1.65459,-3.429162 -0.54709,0.20993 -0.80042,1.139641 -0.90503,3.321236 -0.14499,3.024141 -0.14815,3.029974 -1.74363,3.183804 l -1.598362,0.15411 v -3.198828 c 0,-3.312291 -0.51075,-4.261533 -1.74283,-3.239002 -0.47836,0.397009 -0.71615,1.554148 -0.71615,3.484932 0,2.846099 -0.0214,2.890578 -1.39344,2.890578 -0.76639,0 -1.54096,-0.147531 -1.7213,-0.327869 z M 109.4891,93.9129 c -1.54569,-1.54566 -1.26669,-3.208967 0.72795,-4.340052 0.85801,-0.486551 0.87371,-0.559677 0.12286,-0.57272 -0.57426,-0.01004 -0.86064,-0.404224 -0.86064,-1.184788 0,-1.536194 2.2526,-2.495918 4.99493,-2.128092 3.05041,0.409142 3.61155,1.248958 3.61155,5.405082 v 3.548533 l -3.80172,0.132679 c -3.26515,0.113961 -3.94189,-0.0074 -4.79502,-0.860649 z m 4.94847,-1.485133 c 0.24837,0 0.45157,-0.22131 0.45157,-0.4918 0,-0.27049 -0.66392,-0.491799 -1.4754,-0.491799 -1.42094,0 -1.85217,0.442889 -1.13223,1.162825 0.18874,0.188738 0.64945,0.225623 1.02383,0.08197 0.37435,-0.143664 0.88386,-0.261194 1.13223,-0.261194 z m 0.20567,-3.934393 c -0.1671,-0.27049 -0.72044,-0.491798 -1.2295,-0.491798 -0.50904,0 -1.06232,0.221308 -1.22948,0.491798 -0.17789,0.287702 0.33242,0.491798 1.22948,0.491798 0.89708,0 1.40731,-0.204096 1.2295,-0.491798 z m -72.858556,2.495221 c -3.273588,-1.996119 -3.28725,-7.381313 -0.02398,-9.430881 2.327084,-1.461555 5.528088,-1.027955 7.334234,0.993478 2.430209,2.719876 1.700791,7.235795 -1.427106,8.835416 -1.621181,0.829079 -4.151559,0.65789 -5.883225,-0.398013 z m 1.365432,-6.733147 c 0.545103,-0.493308 1.729621,-0.876785 2.708318,-0.876785 1.547796,0 1.643133,-0.07047 0.865145,-0.639338 -1.110335,-0.811897 -1.403704,-0.802281 -3.155203,0.103459 -1.773822,0.917283 -2.46441,2.145602 -2.398312,4.265821 l 0.05074,1.630678 0.480194,-1.803521 c 0.264112,-0.991934 0.916187,-2.198072 1.44904,-2.680305 z m 45.181822,0.05764 c 0,-1.161182 0.16171,-1.276234 1.59835,-1.137709 1.21911,0.117548 1.59836,0.387488 1.59836,1.137709 0,0.750219 -0.37925,1.020163 -1.59836,1.137708 -1.43671,0.138515 -1.59835,0.02346 -1.59835,-1.137708 z M 52.430611,81.073021 c -0.67622,-0.277653 -1.857858,-1.100738 -2.625845,-1.829074 -4.091371,-3.880091 -3.685398,-9.440996 0.846242,-11.591395 3.579727,-1.698691 7.913147,-0.202582 9.618827,3.320895 1.220951,2.522165 1.259316,3.606256 0.219521,6.204944 -1.299056,3.246651 -5.128974,5.09758 -8.058745,3.89463 z m -1.880256,-7.971554 c 0.612557,-1.550723 2.629228,-2.779945 4.683687,-2.854859 l 1.376864,-0.05021 -1.581979,-0.50804 c -2.086951,-0.670212 -4.368477,0.262086 -5.605431,2.290558 -1.079201,1.769772 -1.144927,2.662849 -0.335285,4.556318 l 0.591999,1.384463 0.163386,-1.721295 c 0.08978,-0.946714 0.407907,-2.340336 0.706778,-3.096937 z m -10.542691,5.781929 c -1.608819,-1.491777 -1.736684,-3.279343 -0.334838,-4.681187 2.217492,-2.217491 6.362619,0.118478 5.600245,3.155997 -0.293258,1.168416 -2.330765,2.774589 -3.519689,2.774589 -0.219074,0 -1.004645,-0.562229 -1.745718,-1.249399 z m 2.260114,-4.160601 c 0.789456,-0.318318 0.851222,-0.437298 0.239037,-0.460415 -0.947321,-0.03578 -2.378368,1.236075 -2.35623,2.094101 0.0074,0.318792 0.248443,0.1782 0.533801,-0.312413 0.285377,-0.490618 0.997898,-1.085191 1.583392,-1.321273 z m 22.419977,1.02164 c -1.90994,-1.909948 -1.989737,-4.715929 -0.19478,-6.849127 3.605638,-4.285048 10.070155,-0.640926 8.593196,4.844077 -0.652632,2.423741 -2.078976,3.442616 -4.819358,3.442616 -1.711182,0 -2.430358,-0.288864 -3.579058,-1.437566 z m 1.90626,-5.086205 c 0.416048,-0.477443 1.438389,-1.066085 2.27186,-1.308091 l 1.515398,-0.440013 -1.808544,-0.04435 c -2.205503,-0.05409 -3.867948,1.726649 -3.808318,4.079311 l 0.03885,1.532024 0.517146,-1.475397 c 0.284429,-0.811469 0.857562,-1.866034 1.27361,-2.343479 z m -7.447898,-3.719783 c -5.260228,-12.027615 13.304717,-6.244971 2.336044,0.883758 -0.72661,0.472236 -1.872672,-0.37172 -2.336044,-0.883732 z m 0.221993,-1.85225 c 0.04498,0.883989 0.127697,0.839742 0.583021,-0.311544 5.007642,-5.139585 -0.589237,-0.733799 -0.583021,0.311544 z"
       id="path15799"
       sodipodi:nodetypes="ssssscsssssssscsssssssscsssssscccscccssssscccssssssssssscssssssscsssssscccsscscssscssssssssssscsssccsssscsssscssssssssssscsscssssssscssssssscsscsscsssscssccsscsscssscssssscscccccccscccsssscccsscscsssssccscssscsscssssscscscscccsssccsssccsscsssssscsscscscsssccsccssccsscssscssssscsccscsccccc" />
  </g>
</svg>
