<svg width="324" height="77" viewBox="0 0 324 77" fill="none" xmlns="http://www.w3.org/2000/svg">
<path d="M88.7702 74.005L88.2142 73.0503H87.8449V74.005H87.5395V71.6689H88.2942C88.4484 71.6642 88.6016 71.6948 88.7422 71.7582C88.8635 71.8194 88.9542 71.9006 89.0155 72.0034C89.0769 72.1062 89.1049 72.2234 89.1049 72.3553C89.108 72.5087 89.0591 72.6586 88.9662 72.7807C88.8729 72.9036 88.7342 72.9859 88.5489 73.0259L89.1356 74.0046L88.7702 74.005ZM87.8449 72.805H88.2942C88.4596 72.805 88.5835 72.7637 88.6662 72.6821C88.7489 72.6009 88.7902 72.4916 88.7902 72.3556C88.7902 72.2195 88.7489 72.1103 88.6675 72.0344C88.5862 71.9584 88.4622 71.9198 88.2942 71.9198H87.8448L87.8449 72.805ZM87.0062 71.6864V74.0064H86.7009V72.277L85.9302 74.0064H85.7155L84.9408 72.273V74.0064H84.6355V71.6864H84.9649L85.8222 73.6037L86.6809 71.6864H87.0062ZM86.8862 76.4957C85.9165 76.4936 84.9872 76.1074 84.3015 75.4217C83.6158 74.736 83.2297 73.8067 83.2275 72.837C83.2275 70.8197 84.8689 69.1796 86.8862 69.1796C88.9035 69.1796 90.5449 70.8197 90.5449 72.837C90.5428 73.8067 90.1566 74.736 89.471 75.4217C88.7853 76.1074 87.8559 76.4936 86.8862 76.4957ZM86.8862 69.489C85.0395 69.489 83.5369 70.9903 83.5369 72.837C83.5369 74.6837 85.0395 76.1863 86.8862 76.1863C88.7329 76.1863 90.2356 74.6837 90.2356 72.837C90.2356 70.9903 88.7329 69.489 86.8862 69.489ZM322.589 52.745C322.272 52.3715 321.889 52.0916 321.456 51.913C321.023 51.7342 320.472 51.5638 319.815 51.3997C319.172 51.2356 318.692 51.0742 318.389 50.917C318.097 50.765 317.955 50.5503 317.955 50.2609C317.95 50.1418 317.977 50.0235 318.032 49.918C318.088 49.8124 318.17 49.7233 318.271 49.6596C318.487 49.5115 318.801 49.437 319.207 49.437C319.644 49.437 319.997 49.5424 320.256 49.7477C320.514 49.9529 320.66 50.233 320.692 50.5797L320.696 50.6262H323.009L323.005 50.5702C322.939 49.6356 322.572 48.8822 321.915 48.3316C321.257 47.7809 320.369 47.5023 319.273 47.5023C318.533 47.5023 317.879 47.6262 317.329 47.8689C316.78 48.1115 316.349 48.4542 316.053 48.8782C315.757 49.3022 315.607 49.7795 315.607 50.2942C315.607 50.9195 315.769 51.4249 316.089 51.7968C316.399 52.1586 316.791 52.4407 317.232 52.6195C317.779 52.8309 318.341 53.0025 318.913 53.1328C319.567 53.3075 320.049 53.4704 320.348 53.6169C320.634 53.7567 320.773 53.9608 320.773 54.2395C320.773 54.4995 320.659 54.7062 320.424 54.8742C320.189 55.0424 319.849 55.129 319.421 55.129C318.984 55.129 318.615 55.0156 318.323 54.793C318.031 54.5704 317.864 54.2889 317.823 53.9529L317.815 53.9076H315.387L315.391 53.9624C315.424 54.5296 315.626 55.0739 315.971 55.525C316.322 55.9931 316.803 56.3677 317.402 56.6384C318 56.909 318.684 57.0477 319.438 57.0477C320.167 57.0477 320.816 56.9264 321.364 56.689C321.912 56.4517 322.346 56.113 322.642 55.689C322.938 55.265 323.088 54.7757 323.088 54.2383C323.077 53.6237 322.908 53.121 322.588 52.745M312.026 48.069C311.334 47.6929 310.539 47.501 309.666 47.501C308.759 47.501 307.944 47.6983 307.247 48.0863C306.55 48.4719 305.98 49.0525 305.608 49.757C305.22 50.477 305.024 51.3237 305.024 52.2744C305.024 53.2144 305.223 54.057 305.616 54.7757C306.01 55.4943 306.567 56.061 307.271 56.4544C307.975 56.8477 308.78 57.0477 309.666 57.0477C310.762 57.0477 311.699 56.7585 312.454 56.1864C313.19 55.6399 313.73 54.8693 313.991 53.9903L314.01 53.9238H311.417L311.401 53.9503C311.05 54.6649 310.448 55.0276 309.616 55.0276C309.074 55.0419 308.548 54.8455 308.148 54.4796C307.764 54.1278 307.537 53.6356 307.476 53.0183H314.149L314.157 52.9756C314.202 52.7091 314.225 52.4062 314.225 52.0756C314.225 51.1782 314.03 50.3729 313.649 49.6809C313.276 48.9975 312.712 48.4371 312.026 48.0675M309.6 49.5022C310.19 49.5022 310.694 49.6783 311.102 50.0262C311.494 50.3622 311.704 50.8116 311.725 51.3636H307.497C307.59 50.7902 307.822 50.3342 308.19 50.0089C308.569 49.6729 309.044 49.5022 309.6 49.5022M300.946 56.8982H303.361V44.5782H300.946V56.8982ZM296.274 48.8542C295.974 48.4849 295.586 48.1702 295.121 47.9196C294.602 47.6421 293.993 47.5009 293.305 47.5009C292.517 47.5009 291.796 47.6982 291.157 48.0862C290.518 48.4742 290.006 49.0368 289.636 49.7568C289.265 50.4768 289.077 51.3129 289.077 52.2409C289.077 53.1809 289.265 54.0249 289.636 54.7489C290.006 55.4729 290.518 56.0449 291.156 56.4449C291.793 56.8449 292.512 57.0462 293.289 57.0462C293.976 57.0462 294.593 56.9037 295.121 56.6195C295.596 56.3648 295.982 56.0449 296.274 55.6675V56.8982H298.705V47.6489H296.274V48.8542ZM291.873 50.8382C292.073 50.4655 292.372 50.1551 292.737 49.9409C293.091 49.7377 293.492 49.6319 293.9 49.6343C294.317 49.6343 294.714 49.7409 295.078 49.9503C295.448 50.1641 295.75 50.4773 295.95 50.8543C296.165 51.2463 296.274 51.7237 296.274 52.2744C296.274 52.825 296.165 53.301 295.95 53.693C295.75 54.0701 295.448 54.3837 295.078 54.5983C294.714 54.8077 294.317 54.9132 293.9 54.9132C293.492 54.9132 293.104 54.805 292.745 54.5904C292.386 54.3757 292.093 54.0637 291.873 53.6611C291.653 53.2584 291.541 52.7797 291.541 52.241C291.541 51.7024 291.653 51.2304 291.873 50.8384M285 56.8984H287.414V47.649H285V56.8984ZM286.224 43.853C286.031 43.8477 285.838 43.8805 285.658 43.9496C285.478 44.0187 285.313 44.1227 285.173 44.2557C285.036 44.3839 284.929 44.5395 284.856 44.7123C284.784 44.8851 284.749 45.0711 284.753 45.2584C284.749 45.4456 284.784 45.6317 284.856 45.8044C284.929 45.9772 285.036 46.1328 285.173 46.2611C285.313 46.394 285.478 46.498 285.658 46.5671C285.838 46.6362 286.031 46.6691 286.224 46.6637C286.417 46.6691 286.609 46.6362 286.789 46.5671C286.969 46.498 287.134 46.394 287.274 46.2611C287.411 46.1329 287.519 45.9774 287.592 45.8046C287.664 45.6318 287.7 45.4457 287.696 45.2584C287.696 44.861 287.554 44.5237 287.274 44.2557C287.134 44.1227 286.969 44.0187 286.789 43.9496C286.609 43.8805 286.417 43.8477 286.224 43.853M281.749 47.937C281.314 48.1865 280.95 48.5264 280.662 48.9464V47.649H278.248V56.8984H280.662V52.2904C280.662 51.4624 280.844 50.8743 281.2 50.545C281.556 50.2158 282.097 50.0477 282.806 50.0477H283.469V47.5171H283.417C282.794 47.5171 282.234 47.6584 281.749 47.937M273.575 48.8543C273.275 48.4851 272.887 48.1704 272.422 47.9197C271.903 47.6423 271.293 47.501 270.606 47.501C269.818 47.501 269.097 47.6983 268.458 48.0863C267.819 48.4744 267.307 49.037 266.937 49.757C266.566 50.477 266.378 51.313 266.378 52.241C266.378 53.181 266.566 54.0251 266.937 54.7491C267.307 55.4731 267.819 56.0451 268.457 56.4451C269.094 56.8451 269.813 57.0463 270.59 57.0463C271.277 57.0463 271.894 56.9039 272.422 56.6197C272.897 56.365 273.283 56.0451 273.575 55.6677V56.8984H276.006V47.649H273.575V48.8543ZM269.174 50.8384C269.374 50.4657 269.673 50.1553 270.038 49.941C270.391 49.7385 270.783 49.6345 271.201 49.6345C271.618 49.6345 272.015 49.7411 272.379 49.9505C272.749 50.1643 273.051 50.4775 273.251 50.8545C273.466 51.2465 273.575 51.7238 273.575 52.2745C273.575 52.8251 273.466 53.3012 273.251 53.6932C273.051 54.0703 272.749 54.3838 272.379 54.5985C272.016 54.8079 271.618 54.9133 271.201 54.9133C270.793 54.9133 270.405 54.8052 270.046 54.5905C269.687 54.3759 269.394 54.0638 269.174 53.6612C268.954 53.2585 268.842 52.7799 268.842 52.2412C268.842 51.7025 268.953 51.2305 269.174 50.8385M263.462 51.9132C263.031 51.7371 262.478 51.564 261.821 51.3986C261.178 51.236 260.699 51.0731 260.395 50.9159C260.103 50.7651 259.961 50.5504 259.961 50.2598C259.956 50.1409 259.983 50.0229 260.039 49.9176C260.094 49.8123 260.176 49.7235 260.277 49.6598C260.493 49.5117 260.809 49.4372 261.214 49.4372C261.651 49.4372 262.003 49.5412 262.262 49.7479C262.521 49.9546 262.666 50.2319 262.698 50.5786L262.702 50.6251H265.017L265.013 50.5702C264.946 49.6356 264.578 48.8822 263.921 48.3302C263.263 47.7782 262.377 47.5009 261.279 47.5009C260.539 47.5009 259.885 47.6249 259.335 47.869C258.786 48.1132 258.355 48.453 258.059 48.877C257.767 49.2912 257.611 49.7861 257.613 50.293C257.613 50.9197 257.775 51.425 258.095 51.7957C258.405 52.1579 258.797 52.4405 259.238 52.6197C259.673 52.7958 260.238 52.9689 260.919 53.133C261.574 53.3076 262.057 53.4702 262.355 53.6171C262.641 53.7569 262.779 53.961 262.779 54.2383C262.779 54.4984 262.665 54.7064 262.43 54.8731C262.195 55.0397 261.855 55.1278 261.429 55.1278C260.99 55.1278 260.621 55.0159 260.329 54.7918C260.037 54.5677 259.87 54.2878 259.829 53.9518L259.823 53.9064H257.395L257.398 53.9612C257.431 54.5287 257.633 55.0733 257.978 55.5252C258.329 55.9919 258.81 56.3666 259.41 56.6386C260.01 56.9107 260.693 57.0479 261.445 57.0479C262.175 57.0479 262.823 56.9266 263.373 56.6881C263.922 56.4492 264.353 56.1121 264.649 55.6881C264.945 55.2641 265.096 54.7761 265.096 54.2387C265.085 53.6241 264.917 53.1214 264.595 52.7454C264.274 52.3693 263.897 52.0921 263.462 51.9135M254.031 48.0681C253.339 47.692 252.545 47.5001 251.671 47.5001C250.765 47.5001 249.95 47.6974 249.253 48.0854C248.556 48.471 247.986 49.0516 247.614 49.7561C247.226 50.4761 247.03 51.3228 247.03 52.2734C247.03 53.2134 247.229 54.0561 247.623 54.7747C248.018 55.4934 248.573 56.0601 249.277 56.4534C249.981 56.8468 250.786 57.0467 251.671 57.0467C252.767 57.0467 253.705 56.7576 254.459 56.1854C255.196 55.6389 255.735 54.8684 255.997 53.9894L256.015 53.9229H253.422L253.407 53.9494C253.055 54.664 252.455 55.0267 251.622 55.0267C251.08 55.041 250.554 54.8445 250.154 54.4787C249.77 54.1268 249.543 53.6347 249.482 53.0173H256.155L256.162 52.9747C256.207 52.7082 256.23 52.4053 256.23 52.0746C256.23 51.1773 256.035 50.372 255.654 49.68C255.281 48.9966 254.717 48.4362 254.031 48.0666M251.605 49.5013C252.195 49.5013 252.699 49.6774 253.107 50.0253C253.499 50.3613 253.709 50.8106 253.731 51.3626H249.502C249.595 50.7893 249.827 50.3333 250.195 50.008C250.574 49.672 251.049 49.5013 251.605 49.5013M244.374 47.936C243.939 48.1854 243.575 48.5253 243.287 48.9454V47.648H240.873V56.8973H243.287V52.2893C243.287 51.4613 243.469 50.8733 243.825 50.544C244.181 50.2148 244.722 50.0466 245.431 50.0466H246.094V47.516H246.042C245.419 47.516 244.859 47.6574 244.374 47.936M237.13 48.0852C236.491 47.6972 235.769 47.4999 234.982 47.4999C234.305 47.4999 233.694 47.6439 233.166 47.9266C232.691 48.1825 232.305 48.4972 232.013 48.8666V47.6493H229.598V61.256H232.013V55.6893C232.338 56.0745 232.735 56.3928 233.182 56.6266C233.699 56.9052 234.305 57.0466 234.982 57.0466C235.769 57.0466 236.493 56.8441 237.13 56.444C237.767 56.044 238.279 55.4746 238.651 54.748C239.023 54.0213 239.21 53.1799 239.21 52.2399C239.21 51.2999 239.022 50.4626 238.651 49.748C238.281 49.0333 237.767 48.4746 237.13 48.0852ZM236.414 53.668C236.21 54.0475 235.909 54.3656 235.541 54.5893C235.182 54.8039 234.789 54.9121 234.371 54.9121C233.963 54.9121 233.575 54.8066 233.217 54.5972C232.858 54.3878 232.565 54.0812 232.343 53.6839C232.122 53.2866 232.013 52.8119 232.013 52.2733C232.013 51.7346 232.123 51.2586 232.343 50.8612C232.546 50.4836 232.848 50.1683 233.217 49.9492C233.575 49.7398 233.963 49.6333 234.371 49.6333C234.782 49.6318 235.185 49.738 235.542 49.9413C235.91 50.1535 236.212 50.4636 236.414 50.8373C236.634 51.2293 236.746 51.7013 236.746 52.24C236.746 52.7893 236.634 53.2706 236.414 53.668M226.377 48.5626C225.682 47.868 224.757 47.516 223.625 47.516C222.958 47.516 222.33 47.6785 221.759 48.0013C221.215 48.3079 220.787 48.7147 220.489 49.2133C220.181 48.684 219.75 48.268 219.209 47.976C218.611 47.663 217.944 47.5048 217.269 47.516C216.703 47.516 216.177 47.6279 215.703 47.8505C215.278 48.0504 214.917 48.3225 214.63 48.6598V47.6478H212.215V56.8958H214.63V51.7931C214.63 51.0958 214.811 50.5545 215.169 50.1865C215.526 49.8184 216.021 49.6331 216.642 49.6331C217.251 49.6331 217.739 49.8184 218.09 50.1865C218.441 50.5546 218.621 51.0958 218.621 51.7931V56.8958H221.035V51.7931C221.035 51.0958 221.215 50.5545 221.573 50.1865C221.93 49.8184 222.421 49.6331 223.03 49.6331C223.639 49.6331 224.127 49.8184 224.479 50.1865C224.831 50.5546 225.009 51.0945 225.009 51.7931V56.8958H227.423V51.4798C227.423 50.2398 227.071 49.2572 226.377 48.5625V48.5626ZM203.35 56.8973H210.14V54.912H205.765V51.9613H209.644V50.0253H205.765V47.24H210.14V45.2546H203.35L203.35 56.8973ZM195.827 51.912C195.397 51.7347 194.843 51.5628 194.186 51.3974C193.543 51.2348 193.063 51.0719 192.761 50.9146C192.469 50.7638 192.326 50.5492 192.326 50.2586C192.321 50.1397 192.348 50.0217 192.404 49.9164C192.459 49.8111 192.541 49.7222 192.642 49.6586C192.858 49.5105 193.174 49.436 193.579 49.436C194.017 49.436 194.369 49.54 194.629 49.7467C194.889 49.9534 195.031 50.2307 195.063 50.5774L195.067 50.6239H197.382L197.378 50.569C197.311 49.6343 196.945 48.881 196.287 48.329C195.63 47.777 194.742 47.4997 193.645 47.4997C192.905 47.4997 192.25 47.6237 191.701 47.8678C191.151 48.112 190.721 48.4518 190.425 48.8758C190.129 49.2998 189.978 49.7771 189.978 50.2918C189.978 50.9185 190.141 51.4238 190.461 51.7945C190.77 52.1567 191.162 52.4393 191.603 52.6185C192.038 52.7946 192.605 52.9677 193.285 53.1318C193.938 53.3064 194.421 53.469 194.721 53.6158C195.006 53.7557 195.146 53.9598 195.146 54.2371C195.146 54.4972 195.031 54.7052 194.795 54.8719C194.559 55.0385 194.221 55.1266 193.794 55.1266C193.357 55.1266 192.986 55.0147 192.694 54.7906C192.402 54.5665 192.235 54.2866 192.194 53.9506L192.189 53.9052H189.761L189.763 53.96C189.797 54.5275 189.999 55.0721 190.343 55.524C190.694 55.9907 191.175 56.3654 191.775 56.6373C192.375 56.9095 193.058 57.0467 193.81 57.0467C194.541 57.0467 195.189 56.9254 195.738 56.6869C196.287 56.448 196.718 56.1109 197.014 55.6869C197.31 55.2629 197.461 54.7749 197.461 54.2375C197.449 53.6229 197.281 53.1202 196.961 52.7442C196.641 52.3681 196.262 52.0909 195.827 51.9122M186.398 48.0669C185.706 47.6908 184.911 47.4988 184.038 47.4988C183.13 47.4988 182.317 47.6962 181.619 48.0842C180.922 48.4698 180.353 49.0504 179.981 49.7549C179.593 50.4749 179.397 51.3216 179.397 52.2722C179.397 53.2122 179.595 54.0535 179.989 54.7735C180.382 55.4935 180.939 56.0589 181.643 56.4522C182.347 56.8456 183.151 57.0455 184.038 57.0455C185.134 57.0455 186.071 56.7564 186.826 56.1842C187.563 55.6382 188.102 54.8675 188.362 53.9882L188.382 53.9217H185.789L185.774 53.9481C185.422 54.6628 184.821 55.0255 183.987 55.0255C183.409 55.0255 182.915 54.8414 182.521 54.4775C182.137 54.1256 181.911 53.6335 181.849 53.0161H188.522L188.529 52.9734C188.576 52.6758 188.598 52.3748 188.595 52.0734C188.595 51.1761 188.402 50.3708 188.019 49.6788C187.637 48.9867 187.091 48.4428 186.398 48.0654M183.971 49.5001C184.561 49.5001 185.066 49.6762 185.473 50.0241C185.866 50.3586 186.075 50.8094 186.097 51.3614H181.869C181.961 50.7881 182.194 50.3321 182.561 50.0068C182.941 49.6708 183.414 49.5001 183.971 49.5001M174.117 47.5148C173.539 47.5148 173.002 47.6308 172.518 47.8576C172.081 48.0643 171.709 48.3443 171.411 48.6922V47.6469H168.997V56.8963H171.411V51.7923C171.411 51.0829 171.593 50.5309 171.95 50.1522C172.307 49.7736 172.803 49.5829 173.423 49.5829C174.033 49.5829 174.519 49.7734 174.871 50.1522C175.223 50.5309 175.402 51.0829 175.402 51.7923V56.8963H177.817V51.479C177.817 50.2389 177.473 49.2576 176.795 48.5616C176.118 47.8656 175.215 47.5149 174.117 47.5149M164.979 48.0909C164.259 47.6976 163.446 47.4989 162.561 47.4989C161.675 47.4989 160.862 47.6977 160.142 48.0909C159.422 48.4842 158.846 49.0496 158.43 49.7696C158.014 50.4896 157.805 51.331 157.805 52.2723C157.805 53.2136 158.009 54.0536 158.414 54.7736C158.819 55.4936 159.383 56.0589 160.093 56.4523C160.802 56.8456 161.61 57.0443 162.495 57.0443C163.391 57.0443 164.213 56.8455 164.938 56.4523C165.66 56.0627 166.26 55.4819 166.674 54.7736C167.101 54.0536 167.318 53.2123 167.318 52.2723C167.318 51.3323 167.107 50.4896 166.691 49.7696C166.275 49.0496 165.699 48.4842 164.979 48.0909M163.65 54.6283C163.297 54.825 162.899 54.9278 162.495 54.9268C162.194 54.9339 161.895 54.8765 161.618 54.7582C161.341 54.64 161.093 54.4638 160.89 54.2415C160.466 53.7869 160.251 53.1242 160.251 52.2722C160.251 51.4202 160.473 50.7575 160.906 50.3015C161.113 50.0798 161.364 49.9043 161.644 49.7862C161.923 49.6681 162.224 49.6102 162.527 49.6162C162.833 49.6111 163.136 49.6693 163.418 49.7872C163.7 49.9052 163.955 50.0803 164.166 50.3015C164.611 50.7575 164.837 51.4202 164.837 52.2722C164.837 52.8442 164.727 53.3348 164.513 53.7322C164.298 54.1295 164.009 54.4309 163.65 54.6282M154.934 43.8508C154.515 43.8508 154.161 43.9869 153.883 44.2535C153.747 44.3817 153.639 44.5373 153.567 44.7101C153.494 44.8829 153.459 45.0689 153.463 45.2562C153.459 45.4435 153.494 45.6295 153.567 45.8022C153.639 45.975 153.747 46.1306 153.883 46.2589C154.161 46.5257 154.515 46.6615 154.934 46.6615C155.127 46.6669 155.319 46.634 155.5 46.5649C155.68 46.4958 155.845 46.3918 155.985 46.2589C156.263 45.992 156.405 45.6535 156.405 45.2562C156.405 44.8589 156.263 44.5215 155.985 44.2535C155.845 44.1205 155.68 44.0165 155.5 43.9474C155.319 43.8783 155.127 43.8455 154.934 43.8508ZM153.71 56.8962H156.125V47.6468H153.71V56.8962ZM149.438 53.7402C149.157 54.5615 148.574 54.9602 147.654 54.9602C147.014 54.9602 146.499 54.7243 146.126 54.2615C145.753 53.7988 145.559 53.1242 145.559 52.2708C145.559 51.4068 145.75 50.7322 146.126 50.2642C146.502 49.7962 147.013 49.5655 147.654 49.5655C148.103 49.5655 148.485 49.6763 148.787 49.8947C149.09 50.1136 149.31 50.4174 149.438 50.8014L149.45 50.8392H152.046L152.03 50.7753C151.774 49.7446 151.266 48.9326 150.517 48.3606C149.768 47.7886 148.81 47.5006 147.672 47.5006C146.786 47.5006 145.989 47.6994 145.301 48.0926C144.614 48.4858 144.053 49.0649 143.681 49.7633C143.293 50.478 143.096 51.322 143.096 52.2726C143.096 53.2233 143.293 54.0687 143.681 54.782C144.069 55.4953 144.614 56.0593 145.301 56.4526C145.988 56.846 146.785 57.0459 147.672 57.0459C148.8 57.0459 149.756 56.7474 150.509 56.1606C151.262 55.574 151.774 54.7687 152.03 53.7713L152.046 53.7074H149.45L149.438 53.7402ZM139.002 52.7335C139.002 53.4429 138.823 53.9949 138.471 54.3735C138.119 54.7522 137.627 54.9442 137.006 54.9442C136.397 54.9442 135.91 54.7522 135.558 54.3735C135.206 53.9949 135.027 53.4429 135.027 52.7335V47.6468H132.613V53.0642C132.613 53.8828 132.774 54.5989 133.09 55.1922C133.385 55.765 133.843 56.2377 134.406 56.5509C134.962 56.8563 135.609 57.0108 136.33 57.0108C136.896 57.0108 137.429 56.8963 137.912 56.668C138.348 56.4628 138.714 56.1827 139.002 55.8374V56.8961H141.433V47.6467H139.002L139.002 52.7335ZM128.023 56.8962H130.438V44.5761H128.023V56.8962ZM124.006 48.0908C123.286 47.6975 122.473 47.4988 121.587 47.4988C120.702 47.4988 119.889 47.6976 119.169 48.0908C118.449 48.4842 117.873 49.0495 117.457 49.7695C117.041 50.4895 116.831 51.3308 116.831 52.2722C116.831 53.2135 117.035 54.0535 117.441 54.7735C117.846 55.4935 118.41 56.0589 119.119 56.4522C119.829 56.8456 120.637 57.0442 121.522 57.0442C122.418 57.0442 123.239 56.8454 123.965 56.4522C124.686 56.0627 125.287 55.4819 125.701 54.7735C126.127 54.0535 126.343 53.2122 126.343 52.2722C126.343 51.3322 126.134 50.4895 125.718 49.7695C125.302 49.0495 124.726 48.4842 124.006 48.0908ZM122.677 54.6282C122.324 54.8249 121.926 54.9277 121.522 54.9268C121.221 54.9339 120.922 54.8764 120.645 54.7582C120.368 54.64 120.12 54.4638 119.917 54.2415C119.493 53.7868 119.278 53.1241 119.278 52.2721C119.278 51.4201 119.498 50.7574 119.933 50.3014C120.14 50.0798 120.391 49.9042 120.67 49.7861C120.95 49.6681 121.251 49.6101 121.554 49.6161C121.86 49.611 122.163 49.6692 122.445 49.7872C122.727 49.9051 122.982 50.0802 123.193 50.3014C123.638 50.7574 123.863 51.4201 123.863 52.2721C123.863 52.8441 123.754 53.3348 123.539 53.7321C123.325 54.1294 123.035 54.4308 122.677 54.6281M113.669 50.7387C113.195 50.5188 112.577 50.2961 111.83 50.0761L110.555 49.6401C110.261 49.5173 110.01 49.3533 109.813 49.1561C109.615 48.9589 109.522 48.7174 109.522 48.4254C109.522 48.0027 109.651 47.6761 109.909 47.4574C110.166 47.2386 110.519 47.1226 110.957 47.1226C111.458 47.1226 111.866 47.2492 112.17 47.4986C112.314 47.6124 112.431 47.7557 112.515 47.9188C112.598 48.0818 112.646 48.2609 112.654 48.444L112.657 48.4935H115.303L115.299 48.4376C115.222 47.3922 114.8 46.5669 114.05 45.9815C113.299 45.3962 112.316 45.1042 111.12 45.1042C110.324 45.1042 109.607 45.2429 108.987 45.5136C108.397 45.7592 107.891 46.1698 107.528 46.6962C107.183 47.2082 107.008 47.8176 107.008 48.5069C107.008 49.2429 107.182 49.8389 107.522 50.2802C107.862 50.7215 108.274 51.0522 108.747 51.2696C109.22 51.4869 109.831 51.7055 110.579 51.9242L111.87 52.3442C112.174 52.467 112.432 52.6375 112.635 52.8522C112.838 53.0669 112.935 53.3323 112.935 53.6576C112.941 53.8434 112.904 54.0281 112.827 54.1973C112.75 54.3665 112.635 54.5158 112.491 54.6336C112.194 54.883 111.778 55.0096 111.252 55.0096C110.74 55.0096 110.332 54.8751 110.042 54.611C109.751 54.3468 109.587 53.9803 109.555 53.523L109.551 53.475H106.975V53.5267C106.986 54.2388 107.184 54.8655 107.563 55.3881C107.942 55.9108 108.462 56.3174 109.111 56.5948C109.76 56.8722 110.495 57.0108 111.302 57.0108C112.154 57.0108 112.9 56.8509 113.522 56.5347C114.143 56.2188 114.622 55.7867 114.946 55.2534C115.27 54.7201 115.431 54.1321 115.431 53.5094C115.431 52.7854 115.255 52.1921 114.908 51.7441C114.562 51.2961 114.147 50.9614 113.668 50.7387M231.862 35.0028L231.882 34.9362H229.288L229.275 34.9664C228.923 35.6811 228.321 36.0438 227.488 36.0438C226.909 36.0438 226.416 35.8586 226.02 35.4958C225.636 35.1424 225.411 34.6504 225.349 34.0331H232.021L232.029 33.9904C232.073 33.7239 232.096 33.4211 232.096 33.0904C232.096 32.1944 231.903 31.389 231.52 30.697C231.147 30.0132 230.583 29.4523 229.897 29.0824C229.205 28.7064 228.412 28.5157 227.537 28.5157C226.631 28.5157 225.817 28.7119 225.119 29.0997C224.42 29.4877 223.868 30.0504 223.48 30.7717C223.092 31.493 222.897 32.3371 222.897 33.2891C222.897 34.2291 223.096 35.0704 223.489 35.789C223.883 36.5077 224.439 37.0757 225.144 37.4691C225.849 37.8624 226.652 38.0611 227.537 38.0611C228.633 38.0611 229.572 37.7716 230.325 37.2011C231.079 36.6304 231.596 35.8904 231.863 35.0037M225.369 32.3784C225.461 31.8051 225.695 31.3504 226.061 31.0237C226.44 30.6877 226.915 30.517 227.472 30.517C228.061 30.517 228.567 30.6932 228.973 31.041C229.365 31.377 229.575 31.8264 229.597 32.3784H225.369ZM213.709 37.4584C214.353 37.8584 215.073 38.0611 215.849 38.0611C216.537 38.0611 217.151 37.9198 217.673 37.6424C218.141 37.393 218.52 37.0691 218.803 36.6757V37.9117H221.251V25.593H218.803V29.8357C218.491 29.457 218.083 29.1451 217.588 28.9077C217.044 28.6466 216.465 28.5144 215.867 28.5144C215.079 28.5144 214.353 28.7117 213.71 29.0997C213.068 29.4877 212.551 30.0517 212.18 30.7717C211.809 31.4917 211.621 32.3264 211.621 33.2544C211.621 34.1944 211.809 35.0384 212.18 35.7624C212.55 36.4864 213.065 37.0584 213.709 37.4584M214.417 31.8517C214.636 31.461 214.926 31.1584 215.281 30.9557C215.636 30.7532 216.026 30.6477 216.444 30.6477C216.861 30.6477 217.259 30.7543 217.623 30.9636C217.987 31.173 218.28 31.477 218.494 31.8676C218.709 32.2583 218.819 32.7383 218.819 33.2877C218.819 33.837 218.71 34.3156 218.494 34.7076C218.278 35.0996 217.987 35.4023 217.623 35.6116C217.264 35.8193 216.858 35.9279 216.444 35.9265C216.037 35.9265 215.648 35.8184 215.289 35.6037C214.93 35.389 214.637 35.077 214.417 34.6744C214.197 34.2717 214.085 33.7931 214.085 33.2544C214.085 32.7157 214.197 32.2437 214.417 31.8517M205.88 36.701C206.176 36.2757 206.326 35.7877 206.326 35.2504C206.316 34.637 206.148 34.1344 205.826 33.7571C205.522 33.3924 205.133 33.1074 204.693 32.9264C204.261 32.7492 203.709 32.5757 203.052 32.4117C202.409 32.2492 201.929 32.0863 201.626 31.9291C201.334 31.7783 201.192 31.5636 201.192 31.2731C201.192 31.0145 201.296 30.817 201.508 30.6717C201.72 30.5262 202.04 30.4503 202.445 30.4503C202.881 30.4503 203.234 30.5542 203.494 30.7609C203.754 30.9677 203.897 31.2449 203.929 31.5916L203.933 31.6381H206.248L206.244 31.5833C206.177 30.6486 205.809 29.8939 205.152 29.3433C204.494 28.7926 203.608 28.5139 202.51 28.5139C201.77 28.5139 201.116 28.6379 200.566 28.8821C200.017 29.1262 199.586 29.4661 199.29 29.89C198.994 30.314 198.844 30.7914 198.844 31.306C198.844 31.9327 199.006 32.4381 199.326 32.8087C199.636 33.1705 200.028 33.4526 200.469 33.6314C200.904 33.8087 201.47 33.9806 202.15 34.146C202.804 34.3195 203.286 34.4821 203.586 34.6287C203.872 34.7701 204.01 34.9726 204.01 35.2514C204.01 35.5114 203.896 35.7194 203.661 35.886C203.426 36.0527 203.086 36.1408 202.66 36.1408C202.222 36.1408 201.852 36.0274 201.56 35.8048C201.268 35.5822 201.101 35.3008 201.06 34.9648L201.054 34.9194H198.627L198.629 34.9742C198.662 35.5436 198.859 36.0689 199.209 36.5369C199.56 37.0049 200.041 37.3796 200.641 37.6516C201.241 37.9237 201.924 38.0595 202.676 38.0595C203.407 38.0595 204.055 37.9398 204.604 37.7009C205.153 37.462 205.584 37.1249 205.88 36.7009M192.902 38.0609C193.998 38.0609 194.937 37.7714 195.691 37.1996C196.444 36.6276 196.961 35.8902 197.228 35.0035L197.248 34.937H194.653L194.638 34.9672C194.286 35.6819 193.686 36.0446 192.853 36.0446C192.274 36.0446 191.781 35.8594 191.385 35.4966C191.001 35.1432 190.776 34.6512 190.714 34.0339H197.386L197.394 33.9912C197.438 33.7232 197.461 33.4205 197.461 33.0912C197.461 32.1952 197.266 31.3898 196.885 30.6965C196.504 30.0032 195.957 29.4605 195.262 29.0832C194.568 28.706 193.776 28.5165 192.902 28.5165C191.996 28.5165 191.181 28.7127 190.484 29.1005C189.786 29.4885 189.233 30.0511 188.845 30.7711C188.457 31.4911 188.261 32.3379 188.261 33.2885C188.261 34.2285 188.461 35.0712 188.854 35.7898C189.248 36.5085 189.804 37.0752 190.508 37.4685C191.212 37.8619 192.017 38.0619 192.902 38.0619M190.734 32.3792C190.826 31.8059 191.058 31.3498 191.426 31.0245C191.805 30.6885 192.28 30.5178 192.836 30.5178C193.384 30.5027 193.919 30.6891 194.338 31.0418C194.73 31.3778 194.94 31.8272 194.962 32.3792H190.734ZM182.732 35.0218C182.732 36.9405 183.732 37.9125 185.705 37.9125H187.209V35.8619H186.085C185.748 35.8619 185.506 35.7965 185.369 35.6683C185.232 35.5402 185.162 35.3297 185.162 35.0376V30.6657H187.209V28.6643H185.162V26.4016H182.732V28.6643H181.642V30.6657H182.732L182.732 35.0218ZM173.789 32.8099C173.789 32.1005 173.97 31.5485 174.328 31.1698C174.685 30.7911 175.181 30.6005 175.801 30.6005C176.41 30.6005 176.897 30.791 177.249 31.1698C177.601 31.5485 177.78 32.1005 177.78 32.8099V37.9125H180.194V32.4965C180.194 31.2552 179.85 30.2739 179.173 29.5792C178.496 28.8845 177.593 28.5325 176.494 28.5325C175.943 28.5268 175.397 28.6439 174.896 28.8753C174.458 29.0821 174.086 29.362 173.789 29.71V28.6646H171.374V37.9127H173.789V32.8099ZM161.585 37.4592C162.224 37.8592 162.941 38.0619 163.717 38.0619C164.405 38.0619 165.021 37.9178 165.549 37.6338C166.024 37.3791 166.412 37.0592 166.704 36.6818V37.9125H169.134V28.6645H166.704V29.8685C166.404 29.4993 166.016 29.1845 165.549 28.9338C165.032 28.6564 164.421 28.5152 163.734 28.5152C162.946 28.5152 162.224 28.7125 161.585 29.1005C160.946 29.4885 160.436 30.0512 160.064 30.7725C159.692 31.4938 159.505 32.3272 159.505 33.2552C159.505 34.1952 159.693 35.0392 160.064 35.7632C160.434 36.4872 160.948 37.0605 161.585 37.4592ZM162.301 31.8525C162.502 31.4807 162.801 31.1709 163.165 30.9565C163.52 30.7524 163.91 30.6485 164.328 30.6485C164.745 30.6485 165.142 30.7551 165.508 30.9645C165.873 31.1738 166.165 31.4778 166.38 31.8684C166.594 32.2591 166.704 32.7391 166.704 33.2884C166.704 33.8377 166.594 34.3164 166.38 34.7085C166.165 35.1004 165.872 35.4031 165.508 35.6124C165.144 35.8218 164.746 35.9273 164.328 35.9273C163.921 35.9273 163.533 35.8192 163.174 35.6045C162.816 35.3898 162.521 35.0779 162.301 34.6752C162.081 34.2725 161.969 33.7952 161.969 33.2552C161.969 32.7152 162.081 32.2445 162.301 31.8525M158.434 34.7232H155.838L155.826 34.7572C155.545 35.5785 154.962 35.9772 154.042 35.9772C153.401 35.9772 152.888 35.7425 152.514 35.2785C152.141 34.8145 151.948 34.1426 151.948 33.2879C151.948 32.4239 152.138 31.7492 152.514 31.2812C152.89 30.8132 153.401 30.5839 154.042 30.5839C154.492 30.5839 154.873 30.6946 155.176 30.9119C155.478 31.1292 155.698 31.4359 155.826 31.8186L155.838 31.8564H158.434L158.418 31.7925C158.162 30.7618 157.654 29.9499 156.905 29.3779C156.156 28.8059 155.198 28.5178 154.06 28.5178C153.174 28.5178 152.377 28.7166 151.689 29.1098C151.001 29.5031 150.457 30.0658 150.069 30.7818C149.681 31.4978 149.484 32.3392 149.484 33.2899C149.484 34.2405 149.681 35.0858 150.069 35.7992C150.457 36.5125 151.002 37.0765 151.689 37.4699C152.376 37.8632 153.173 38.0632 154.06 38.0632C155.188 38.0632 156.144 37.7658 156.897 37.1779C157.65 36.5899 158.162 35.7858 158.418 34.7885L158.434 34.7232ZM145.406 37.9125H147.821V28.6632H145.406V37.9125ZM146.63 27.6778C146.823 27.6832 147.015 27.6504 147.196 27.5813C147.376 27.5122 147.541 27.4082 147.681 27.2752C147.817 27.1469 147.925 26.9914 147.998 26.8186C148.07 26.6458 148.105 26.4598 148.101 26.2725C148.101 25.8752 147.96 25.5379 147.681 25.2698C147.541 25.1369 147.376 25.0328 147.196 24.9637C147.015 24.8946 146.823 24.8618 146.63 24.8672C146.212 24.8672 145.857 25.0032 145.58 25.2698C145.443 25.3981 145.335 25.5537 145.263 25.7264C145.19 25.8992 145.155 26.0853 145.16 26.2725C145.155 26.4598 145.19 26.6458 145.263 26.8186C145.335 26.9914 145.443 27.1469 145.58 27.2752C145.857 27.5416 146.212 27.6778 146.63 27.6778ZM143.876 31.0619V28.5325H143.824C143.201 28.5325 142.64 28.6739 142.156 28.9512C141.721 29.2017 141.357 29.5405 141.069 29.9605V28.6645H138.654V37.9125H141.069V33.3045C141.069 32.4765 141.25 31.8899 141.606 31.5605C141.962 31.2313 142.504 31.0619 143.213 31.0619H143.876ZM134.913 37.4592C135.55 37.0592 136.062 36.4899 136.434 35.7632C136.806 35.0365 136.993 34.1952 136.993 33.2552C136.993 32.3152 136.805 31.4779 136.434 30.7632C136.064 30.0485 135.55 29.4899 134.913 29.1005C134.276 28.7112 133.552 28.5152 132.765 28.5152C132.088 28.5152 131.477 28.6565 130.949 28.9338C130.474 29.1844 130.086 29.5059 129.794 29.8925V25.5938H127.381V37.9125H129.794V36.7112C130.096 37.0899 130.482 37.4058 130.949 37.6512C131.466 37.9233 132.077 38.0619 132.765 38.0619C133.552 38.0619 134.274 37.8593 134.913 37.4592ZM134.197 34.6849C133.977 35.0823 133.682 35.3929 133.324 35.6062C132.965 35.8194 132.572 35.929 132.153 35.929C131.746 35.929 131.358 35.8236 131 35.6142C130.63 35.3953 130.328 35.0794 130.126 34.7008C129.897 34.2666 129.783 33.781 129.794 33.2902C129.794 32.7516 129.906 32.2769 130.126 31.8782C130.346 31.4795 130.64 31.1742 131 30.9662C131.36 30.7583 131.746 30.6502 132.153 30.6502C132.564 30.6485 132.968 30.7547 133.325 30.9582C133.684 31.1608 133.977 31.4636 134.197 31.8543C134.417 32.2449 134.529 32.7183 134.529 33.2569C134.529 33.8063 134.417 34.2876 134.197 34.6849ZM119.722 38.0636C120.41 38.0636 121.026 37.9196 121.554 37.6369C122.029 37.3822 122.417 37.0622 122.708 36.6836V37.9156H125.14V28.6663H122.708V29.8716C122.408 29.5008 122.021 29.1876 121.554 28.9369C121.037 28.6584 120.426 28.5182 119.738 28.5182C118.952 28.5182 118.229 28.7144 117.59 29.1036C116.952 29.493 116.441 30.0543 116.069 30.7743C115.697 31.4943 115.51 32.3289 115.51 33.2583C115.51 34.1983 115.698 35.0409 116.069 35.7663C116.44 36.4916 116.952 37.0623 117.59 37.4609C118.229 37.8596 118.946 38.0636 119.722 38.0636M118.306 31.8543C118.526 31.4636 118.817 31.1622 119.17 30.9582C119.524 30.7541 119.916 30.6518 120.333 30.6518C120.75 30.6518 121.148 30.7572 121.513 30.9666C121.882 31.1813 122.184 31.4948 122.385 31.8719C122.6 32.2639 122.708 32.7412 122.708 33.2906C122.708 33.8399 122.6 34.3186 122.385 34.7106C122.184 35.0877 121.882 35.4012 121.513 35.6159C121.148 35.8237 120.752 35.9307 120.333 35.9307C119.926 35.9307 119.538 35.8215 119.18 35.608C118.821 35.3944 118.526 35.0799 118.306 34.6773C118.086 34.2746 117.974 33.7973 117.974 33.2586C117.974 32.7199 118.086 32.2466 118.306 31.8546M109.688 33.0453H113.369V31.1093H109.688V28.2573H114.492V26.2892H107.273V37.9146H109.688V33.0453ZM87.8729 51.3799L74.5115 38.0279C74.3549 37.8708 74.2333 37.6822 74.1547 37.4747C74.0762 37.2672 74.0423 37.0454 74.0555 36.8239L76.2435 1.56786C76.2955 0.738521 76.9862 0.0932153 77.8169 0.0999051L87.3516 0.163747C88.1969 0.171306 88.8849 0.846411 88.9049 1.69174L90.5449 50.2359C90.4676 51.5958 89.4316 51.7719 89.4316 51.7719C88.8796 51.9385 88.2809 51.787 87.8729 51.3798M88.7102 63.3425L77.1622 74.8946C76.6565 75.404 76.0551 75.8081 75.3925 76.084C74.7299 76.3599 74.0193 76.5019 73.3015 76.5019C72.5838 76.5019 71.8732 76.3599 71.2106 76.084C70.548 75.8081 69.9465 75.404 69.4409 74.8946L60.6262 66.0785L61.8102 64.8905C64.7902 61.9105 64.7902 57.0612 61.8102 54.0772L60.6262 52.8932L69.4409 44.0732C70.5102 43.0079 71.9049 42.4758 73.2995 42.4758C74.6942 42.4758 76.0942 43.0079 77.1622 44.0732L88.7102 55.6252C89.2174 56.1317 89.6197 56.7331 89.8942 57.3953C90.1688 58.0574 90.31 58.7671 90.31 59.4839C90.31 60.2006 90.1688 60.9103 89.8942 61.5724C89.6197 62.2345 89.2174 62.836 88.7102 63.3425M60.2622 55.6252L58.3062 53.6692L48.7101 44.0732C47.6461 43.0092 46.2461 42.4758 44.8515 42.4758C44.1348 42.4748 43.4249 42.6154 42.7627 42.8895C42.1005 43.1636 41.4991 43.5659 40.9928 44.0732L32.5448 52.5252L34.0968 54.0772C35.5408 55.5225 36.3328 57.4412 36.3328 59.4839C36.3328 61.5266 35.5408 63.4465 34.0968 64.8905L32.5448 66.4465L40.9928 74.8946C42.0581 75.9639 43.4528 76.4959 44.8515 76.4959C45.5686 76.4972 46.2788 76.3563 46.9411 76.0815C47.6034 75.8066 48.2047 75.4032 48.7101 74.8946L58.3022 65.3026L60.2622 63.3425C62.3915 61.2132 62.3915 57.7585 60.2622 55.6252M32.5488 55.6252L30.2208 53.2972L20.9968 44.0732C19.9328 43.0092 18.5328 42.4758 17.1381 42.4758C16.4214 42.4748 15.7116 42.6154 15.0494 42.8895C14.3872 43.1636 13.7857 43.5659 13.2794 44.0732L1.72739 55.6252C1.22022 56.1317 0.817883 56.7331 0.543372 57.3953C0.26886 58.0574 0.127563 58.7671 0.127563 59.4839C0.127563 60.2006 0.26886 60.9103 0.543372 61.5724C0.817883 62.2345 1.22022 62.836 1.72739 63.3425L13.2794 74.8946C14.3447 75.9639 15.7394 76.4959 17.1381 76.4959C17.8552 76.4972 18.5654 76.3563 19.2277 76.0815C19.89 75.8066 20.4913 75.4032 20.9968 74.8946L30.2208 65.6746L32.5488 63.3425C34.6781 61.2132 34.6781 57.7585 32.5488 55.6252Z" fill="white"/>
</svg>
