<?xml version="1.0" encoding="UTF-8" standalone="no"?>
<!-- Created with Inkscape (http://www.inkscape.org/) -->

<svg
   width="82.960831mm"
   height="59.437523mm"
   viewBox="0 0 82.960827 59.437523"
   version="1.1"
   id="svg5"
   inkscape:version="1.1.2 (0a00cf5339, 2022-02-04)"
   sodipodi:docname="40.html"
   xmlns:inkscape="http://www.inkscape.org/namespaces/inkscape"
   xmlns:sodipodi="http://sodipodi.sourceforge.net/DTD/sodipodi-0.dtd"
   xmlns="http://www.w3.org/2000/svg"
   xmlns:svg="http://www.w3.org/2000/svg">
  <sodipodi:namedview
     id="namedview7"
     pagecolor="#ffffff"
     bordercolor="#666666"
     borderopacity="1.0"
     inkscape:pageshadow="2"
     inkscape:pageopacity="0.0"
     inkscape:pagecheckerboard="0"
     inkscape:document-units="mm"
     showgrid="false"
     inkscape:zoom="1.436063"
     inkscape:cx="48.396206"
     inkscape:cy="149.36671"
     inkscape:window-width="1920"
     inkscape:window-height="1016"
     inkscape:window-x="0"
     inkscape:window-y="0"
     inkscape:window-maximized="1"
     inkscape:current-layer="text17580"
     width="76.96083mm" />
  <defs
     id="defs2" />
  <g
     inkscape:label="Capa 1"
     inkscape:groupmode="layer"
     id="layer1"
     transform="translate(-82.207018,-42.463456)">
    <g
       aria-label="SOLUCIONES CONTABLES"
       id="text1842"
       style="font-size:4.61244px;line-height:1.25;letter-spacing:0px;word-spacing:0px;stroke-width:0.192185" />
    <g
       aria-label="Jorge Fernandez &amp; Asociados"
       id="text7755"
       style="font-weight:bold;font-size:4.45981px;line-height:1.25;-inkscape-font-specification:'sans-serif Bold';letter-spacing:0px;word-spacing:0px;stroke-width:0.185825" />
    <g
       aria-label="Consultora Ambiental"
       id="text17580"
       style="font-weight:bold;font-size:4.37009px;line-height:1.25;-inkscape-font-specification:'sans-serif Bold';letter-spacing:0px;word-spacing:0px;stroke-width:0.182087">
      <path
         id="path19541"
         d="m 149.22069,98.518806 h 0.76392 v 3.320244 h -0.76392 z m -1.87777,2.244794 q -0.23899,0 -0.36062,0.0811 -0.11949,0.0811 -0.11949,0.23899 0,0.1451 0.096,0.22832 0.0982,0.0811 0.271,0.0811 0.21552,0 0.36275,-0.15364 0.14724,-0.15577 0.14724,-0.38835 v -0.0875 z m 1.16721,-0.28807 v 1.36352 h -0.77031 v -0.35422 q -0.15364,0.21765 -0.34569,0.31795 -0.19204,0.0982 -0.4673,0.0982 -0.37129,0 -0.60388,-0.21552 -0.23045,-0.21765 -0.23045,-0.56333 0,-0.42036 0.28806,-0.61668 0.29021,-0.19631 0.90902,-0.19631 h 0.45024 v -0.0597 q 0,-0.18137 -0.14297,-0.264591 -0.14297,-0.08535 -0.44597,-0.08535 -0.24539,0 -0.45664,0.04908 -0.21125,0.04908 -0.39263,0.147241 v -0.582543 q 0.24539,-0.05975 0.49292,-0.08962 0.24752,-0.03201 0.49505,-0.03201 0.64655,0 0.93248,0.25606 0.28807,0.253926 0.28807,0.827923 z m -3.49309,-1.704932 v 0.678559 h 0.78739 v 0.546262 h -0.78739 v 1.013571 q 0,0.16644 0.0662,0.22619 0.0661,0.0576 0.26246,0.0576 h 0.39263 v 0.54626 h -0.65509 q -0.45237,0 -0.64228,-0.18778 -0.18778,-0.18991 -0.18778,-0.64228 v -1.013571 h -0.37982 v -0.546262 h 0.37982 v -0.678559 z m -1.54275,1.613182 v 1.45527 h -0.76818 v -0.23686 -0.877 q 0,-0.30941 -0.0149,-0.42677 -0.0128,-0.11736 -0.0469,-0.17284 -0.0448,-0.0747 -0.12162,-0.11522 -0.0768,-0.04268 -0.17498,-0.04268 -0.23899,0 -0.37555,0.18564 -0.13657,0.18351 -0.13657,0.50999 v 1.17574 h -0.76391 v -2.389892 h 0.76391 v 0.349949 q 0.17284,-0.209116 0.36702,-0.307272 0.19418,-0.10029 0.4289,-0.10029 0.41396,0 0.62735,0.253926 0.21552,0.253926 0.21552,0.738309 z m -2.98097,0.25392 v 0.21765 h -1.78602 q 0.0277,0.26887 0.19418,0.4033 0.16644,0.13443 0.46517,0.13443 0.24113,0 0.49292,-0.0704 0.25392,-0.0725 0.52065,-0.21765 v 0.58894 q -0.27099,0.10242 -0.54199,0.15364 -0.271,0.0533 -0.54199,0.0533 -0.64869,0 -1.00931,-0.32861 -0.35848,-0.33074 -0.35848,-0.92608 0,-0.58467 0.35208,-0.919684 0.35422,-0.335012 0.97303,-0.335012 0.56333,0 0.90048,0.339279 0.33928,0.339277 0.33928,0.906877 z m -0.78525,-0.25392 q 0,-0.21765 -0.12803,-0.34995 -0.1259,-0.134434 -0.33075,-0.134434 -0.22192,0 -0.36062,0.125894 -0.13869,0.12376 -0.17284,0.35849 z m -3.09833,-0.934623 h 0.76392 v 2.389893 h -0.76392 z m 0,-0.930351 h 0.76392 v 0.623079 h -0.76392 z m -1.85643,2.827324 q 0.24539,0 0.37342,-0.17924 0.13016,-0.17924 0.13016,-0.52065 0,-0.34142 -0.13016,-0.52066 -0.12803,-0.17924 -0.37342,-0.17924 -0.24539,0 -0.37769,0.18138 -0.13016,0.17924 -0.13016,0.51852 0,0.33928 0.13016,0.52065 0.1323,0.17924 0.37769,0.17924 z m -0.50785,-1.547024 q 0.1579,-0.209116 0.34994,-0.307272 0.19205,-0.10029 0.44171,-0.10029 0.4417,0 0.7255,0.352082 0.2838,0.349944 0.2838,0.902614 0,0.55266 -0.2838,0.90474 -0.2838,0.34995 -0.7255,0.34995 -0.24966,0 -0.44171,-0.0982 -0.19204,-0.1003 -0.34994,-0.30941 v 0.34568 h -0.76392 v -3.320244 h 0.76392 z m -3.1026,0.04694 q 0.1451,-0.221918 0.34355,-0.337145 0.20058,-0.117361 0.43957,-0.117361 0.41183,0 0.62735,0.253926 0.21551,0.253926 0.21551,0.738314 v 1.45527 h -0.76818 v -1.24616 q 0.002,-0.0277 0.002,-0.0576 0.002,-0.0299 0.002,-0.0854 0,-0.25393 -0.0747,-0.36702 -0.0747,-0.115235 -0.24113,-0.115235 -0.21765,0 -0.33714,0.179245 -0.11736,0.17924 -0.12163,0.51852 v 1.17361 h -0.76818 v -1.24616 q 0,-0.39689 -0.0683,-0.50998 -0.0683,-0.115235 -0.24326,-0.115235 -0.21979,0 -0.33928,0.181375 -0.11949,0.17925 -0.11949,0.51426 v 1.17574 h -0.76818 v -2.389897 h 0.76818 v 0.349949 q 0.14083,-0.202714 0.3222,-0.305138 0.18351,-0.102424 0.4033,-0.102424 0.24752,0 0.43743,0.119494 0.18992,0.119495 0.28807,0.335012 z m -3.62965,1.412604 h -1.28456 l -0.20272,0.5804 h -0.82579 l 1.18001,-3.185816 h 0.97943 l 1.18001,3.185816 h -0.8258 z m -1.07972,-0.59107 h 0.87274 l -0.4353,-1.267505 z m -4.28687,0.096 q -0.23899,0 -0.36062,0.0811 -0.11949,0.0811 -0.11949,0.23899 0,0.1451 0.096,0.22832 0.0982,0.0811 0.271,0.0811 0.21552,0 0.36275,-0.15364 0.14724,-0.15577 0.14724,-0.38835 v -0.0875 z m 1.16721,-0.28807 v 1.36352 h -0.77031 v -0.35422 q -0.15364,0.21765 -0.34569,0.31795 -0.19204,0.0982 -0.46731,0.0982 -0.37128,0 -0.60387,-0.21552 -0.23045,-0.21765 -0.23045,-0.56333 0,-0.42036 0.28806,-0.61668 0.2902,-0.19631 0.90902,-0.19631 h 0.45024 v -0.0597 q 0,-0.18137 -0.14297,-0.264595 -0.14297,-0.08535 -0.44597,-0.08535 -0.24539,0 -0.45664,0.04908 -0.21125,0.04908 -0.39263,0.147245 v -0.582547 q 0.24539,-0.05975 0.49292,-0.08962 0.24752,-0.03201 0.49505,-0.03201 0.64655,0 0.93248,0.25606 0.28807,0.253926 0.28807,0.827927 z m -2.61822,-0.37555 q -0.10029,-0.0469 -0.20058,-0.0683 -0.0982,-0.0235 -0.19844,-0.0235 -0.29447,0 -0.45451,0.18991 -0.1579,0.18778 -0.1579,0.53986 v 1.10106 h -0.76391 v -2.389897 h 0.76391 v 0.392626 q 0.14723,-0.234722 0.33714,-0.341414 0.19205,-0.108825 0.45878,-0.108825 0.0384,0 0.0832,0.0043 0.0448,0.0021 0.13016,0.0128 z m -3.64031,-0.162179 q -0.25393,0 -0.38836,0.183509 -0.1323,0.18138 -0.1323,0.52493 0,0.34354 0.1323,0.52705 0.13443,0.18138 0.38836,0.18138 0.24966,0 0.38195,-0.18138 0.1323,-0.18351 0.1323,-0.52705 0,-0.34355 -0.1323,-0.52493 -0.13229,-0.183509 -0.38195,-0.183509 z m 0,-0.546261 q 0.61667,0 0.96236,0.332878 0.34781,0.332882 0.34781,0.921822 0,0.58894 -0.34781,0.92181 -0.34569,0.33288 -0.96236,0.33288 -0.61882,0 -0.96876,-0.33288 -0.34782,-0.33287 -0.34782,-0.92181 0,-0.58894 0.34782,-0.921822 0.34994,-0.332878 0.96876,-0.332878 z m -2.39203,-0.620946 v 0.678559 h 0.78738 v 0.546262 h -0.78738 v 1.013575 q 0,0.16644 0.0661,0.22619 0.0662,0.0576 0.26246,0.0576 h 0.39262 v 0.54626 h -0.65508 q -0.45238,0 -0.64229,-0.18778 -0.18778,-0.18991 -0.18778,-0.64228 v -1.013575 h -0.37982 v -0.546262 h 0.37982 v -0.678535 z m -2.3323,-0.251768 h 0.76392 v 3.320244 h -0.76392 z m -3.13675,2.389894 v -1.459543 h 0.76818 v 0.23899 q 0,0.194178 -0.002,0.488643 -0.002,0.29234 -0.002,0.3905 0,0.28806 0.0149,0.41609 0.0149,0.1259 0.0512,0.18351 0.0469,0.0747 0.12164,0.11523 0.0768,0.0405 0.17497,0.0405 0.23899,0 0.37556,-0.18351 0.13656,-0.18351 0.13656,-0.50998 v -1.180013 h 0.76392 v 2.389893 h -0.76392 v -0.34568 q -0.17284,0.20911 -0.36702,0.30941 -0.19204,0.0982 -0.42464,0.0982 -0.41396,0 -0.63161,-0.25392 -0.21552,-0.25393 -0.21552,-0.73831 z m -0.70843,-1.384859 v 0.580399 q -0.2454,-0.10242 -0.47372,-0.153632 -0.22832,-0.05121 -0.43104,-0.05121 -0.21765,0 -0.32434,0.05548 -0.10456,0.05334 -0.10456,0.166432 0,0.0918 0.079,0.14084 0.0811,0.0491 0.28807,0.0725 l 0.13443,0.0192 q 0.58681,0.0747 0.78952,0.24539 0.20272,0.17071 0.20272,0.5356 0,0.38195 -0.28167,0.574 -0.28166,0.19204 -0.84073,0.19204 -0.23686,0 -0.49079,-0.0384 -0.25179,-0.0363 -0.51852,-0.11096 v -0.5804 q 0.22832,0.11096 0.46731,0.16644 0.24113,0.0555 0.48865,0.0555 0.22406,0 0.33715,-0.0619 0.11309,-0.0619 0.11309,-0.18351 0,-0.10243 -0.079,-0.1515 -0.0768,-0.0512 -0.3094,-0.079 l -0.13444,-0.0171 q -0.50998,-0.064 -0.71483,-0.23685 -0.20485,-0.17284 -0.20485,-0.52492 0,-0.379825 0.26032,-0.563335 0.26034,-0.183509 0.79806,-0.183509 0.21125,0 0.44384,0.03201 0.23259,0.03201 0.50573,0.10029 z m -2.57556,0.859939 v 1.45527 h -0.76818 v -0.23686 -0.877 q 0,-0.30941 -0.0149,-0.42677 -0.0128,-0.11736 -0.047,-0.17284 -0.0448,-0.0747 -0.12163,-0.11522 -0.0768,-0.04268 -0.17497,-0.04268 -0.239,0 -0.37556,0.18564 -0.13657,0.18351 -0.13657,0.50999 v 1.17574 h -0.76391 v -2.389892 h 0.76392 v 0.349949 q 0.17284,-0.209116 0.36702,-0.307272 0.19418,-0.10029 0.4289,-0.10029 0.41397,0 0.62735,0.253926 0.21552,0.253926 0.21552,0.738309 z m -4.26769,-0.445975 q -0.25392,0 -0.38836,0.183505 -0.13229,0.18138 -0.13229,0.52493 0,0.34354 0.13229,0.52705 0.13444,0.18138 0.38836,0.18138 0.24966,0 0.38196,-0.18138 0.1323,-0.18351 0.1323,-0.52705 0,-0.34355 -0.1323,-0.52493 -0.1323,-0.183505 -0.38196,-0.183505 z m 0,-0.546261 q 0.61669,0 0.96237,0.332878 0.34781,0.332878 0.34781,0.921818 0,0.58894 -0.34781,0.92181 -0.34568,0.33288 -0.96237,0.33288 -0.61881,0 -0.96876,-0.33288 -0.34782,-0.33287 -0.34782,-0.92181 0,-0.58894 0.34782,-0.921818 0.34995,-0.332878 0.96876,-0.332878 z m -1.783888,2.272536 q -0.226186,0.11736 -0.471577,0.1771 -0.245391,0.0598 -0.51212,0.0598 -0.79592,0 -1.261095,-0.44384 -0.465176,-0.44597 -0.465176,-1.20775 0,-0.763908 0.465176,-1.207745 0.465175,-0.445971 1.261095,-0.445971 0.266729,0 0.51212,0.05975 0.245391,0.05975 0.471577,0.177109 v 0.659354 q -0.22832,-0.15577 -0.450239,-0.22832 -0.221919,-0.07255 -0.467309,-0.07255 -0.43957,0 -0.691362,0.281665 -0.251792,0.281666 -0.251792,0.776708 0,0.49292 0.251792,0.77459 0.251792,0.28166 0.691362,0.28166 0.24539,0 0.467309,-0.0725 0.221919,-0.0726 0.450239,-0.22832 z m -1.68723,-4.786833 c -0.81487,-0.33031 -1.22917,-0.96221 -1.13441,-1.73024 l 0.0853,-0.69108 0.9113,0.67508 c 1.37224,1.01654 3.319198,0.80134 3.467378,-0.38326 0.12745,-1.01881 -0.14394,-1.38173 -1.984978,-2.65443 -2.10129,-1.45262 -2.71842,-2.4399 -2.37655,-3.802 0.28175,-1.12259 1.56066,-2.01024 2.896338,-2.01024 1.80889,0 2.51047,0.36978 2.51047,1.32317 v 0.80709 l -0.78061,-0.40367 c -0.98602,-0.50989 -2.496828,-0.52097 -2.911478,-0.0213 -0.55944,0.67409 -0.18774,1.54649 1.04625,2.4556 2.787418,2.05354 2.955598,2.24709 3.103058,3.57109 0.12917,1.15988 0.0721,1.31664 -0.79403,2.18281 -0.81917,0.81918 -1.08996,0.93114 -2.216418,0.91641 -0.70578,-0.009 -1.52549,-0.11496 -1.82159,-0.23498 z m 6.756088,-5.17221 v -5.42396 h 3.17502 3.17501 v 0.66146 c 0,0.65914 -0.009,0.66146 -2.51355,0.66146 h -2.51356 v 1.71979 1.71979 h 2.38127 c 2.36362,0 2.38126,0.005 2.38126,0.66146 0,0.65656 -0.0176,0.66146 -2.38126,0.66146 h -2.38127 v 1.71979 1.71979 h 2.51356 c 2.50473,0 2.51355,0.002 2.51355,0.66146 v 0.66146 h -3.17501 -3.17502 z m 7.14379,5.21896 c 0,-0.13209 1.00367,-2.55101 2.23039,-5.37539 1.68134,-3.87108 2.35484,-5.15469 2.73594,-5.21425 0.42322,-0.0661 0.87921,0.77402 2.80013,5.15937 1.26202,2.88112 2.29304,5.32769 2.29115,5.43683 -0.002,0.10914 -0.29441,0.19844 -0.65005,0.19844 -0.53519,0 -0.77012,-0.27519 -1.36326,-1.59689 l -0.71665,-1.5969 -2.36474,0.0755 -2.36475,0.0755 -0.6125,1.45521 c -0.49318,1.17172 -0.74625,1.47152 -1.29908,1.53893 -0.37762,0.046 -0.68658,-0.0243 -0.68658,-0.15643 z m 6.4751,-4.84481 c -0.0963,-0.30355 -0.47716,-1.21153 -0.84626,-2.01775 l -0.67109,-1.46586 -0.75907,1.77935 c -0.4175,0.97865 -0.75908,1.88664 -0.75908,2.01775 0,0.13112 0.7224,0.2384 1.60533,0.2384 1.50696,0 1.5946,-0.0338 1.43017,-0.55189 z m 4.37283,-0.39255 v -5.44236 l 0.58026,0.0846 c 0.37874,0.0552 1.13081,0.86025 2.16564,2.31826 l 1.58539,2.23371 0.46762,-0.64621 c 2.58495,-3.57217 2.91314,-3.95351 3.40263,-3.95351 0.51267,0 0.52971,0.17453 0.52971,5.42396 v 5.42396 h -0.65474 -0.65474 l -0.0729,-4.16719 -0.0729,-4.16718 -1.30259,1.85208 c -0.71643,1.01865 -1.38251,1.94667 -1.48019,2.06227 -0.0977,0.1156 -0.82119,-0.71783 -1.60782,-1.85209 l -1.43023,-2.06226 -0.0729,4.16718 -0.0729,4.16719 h -0.65466 -0.65475 z m 10.58333,0.0184 v -5.42396 l 1.65365,0.006 c 3.19474,0.0122 4.78935,0.79435 5.1106,2.50677 0.20002,1.06618 -0.43179,2.62235 -1.25174,3.08308 -0.33974,0.1909 -1.39162,0.40884 -2.33751,0.48432 l -1.71979,0.13722 -0.0764,2.3151 c -0.0747,2.26259 -0.0912,2.31511 -0.72761,2.31511 h -0.65116 v -5.42396 z m 4.80782,-1.09934 c 0.57521,-0.52056 0.62974,-1.64271 0.11411,-2.34788 -0.28968,-0.39616 -0.70507,-0.50738 -1.91823,-0.5136 l -1.54849,-0.008 -0.0788,1.65365 -0.0788,1.65364 h 1.51314 c 1.03671,0 1.6655,-0.13787 1.99701,-0.43788 z m 1.55742,6.19257 c 0.008,-0.1819 1.00316,-2.59292 2.21062,-5.35781 1.66492,-3.81242 2.31867,-5.0457 2.70563,-5.10413 0.4289,-0.0648 0.87791,0.76352 2.81646,5.19546 1.26842,2.89987 2.30622,5.34556 2.30622,5.43485 0,0.0893 -0.30106,0.16236 -0.66902,0.16236 -0.56481,0 -0.77627,-0.24729 -1.3575,-1.5875 l -0.68848,-1.5875 h -2.35423 -2.35423 l -0.68848,1.5875 c -0.56373,1.29986 -0.80206,1.5875 -1.31535,1.5875 -0.34478,0 -0.62002,-0.14883 -0.61164,-0.33073 z m 6.59935,-4.27753 c 0,-0.0607 -0.24957,-0.68578 -0.5546,-1.38906 -0.30503,-0.70329 -0.67386,-1.57637 -0.81962,-1.94017 -0.25564,-0.63804 -0.2878,-0.61044 -0.90867,0.77979 -1.19086,2.66658 -1.19256,2.65979 0.6667,2.65979 0.8889,0 1.61619,-0.0496 1.61619,-0.11035 z m -25.98694,-7.95579 c -0.83214,-0.21145 -2.20215,-0.73234 -3.04447,-1.15754 -8.11207,-4.094945 -11.23758,-12.671036 -7.4841,-20.535685 0.42731,-0.895356 2.31625,-3.786245 4.19764,-6.424202 3.23316,-4.53333 5.64466,-8.746126 7.19115,-12.562663 0.33834,-0.83496 0.66016,-1.473103 0.71517,-1.418095 0.18237,0.182373 -1.68928,4.745441 -3.09699,7.550432 -1.71593,3.419128 -2.94486,5.394448 -5.73594,9.219639 -3.14411,4.309028 -4.14955,7.408347 -3.59451,11.080354 0.93525,6.187577 5.15681,10.559994 11.48443,11.894857 5.51361,1.163143 11.78528,-1.790793 14.6399,-6.895325 1.32834,-2.375297 1.8113,-4.547034 1.65101,-7.424169 -0.20763,-3.726688 -1.48688,-6.54844 -5.54031,-12.220747 -1.42675,-1.996574 -3.31897,-5.530977 -3.0859,-5.764042 0.0546,-0.05462 0.56127,0.774752 1.12589,1.843052 0.56462,1.0683 2.08295,3.351285 3.37408,5.0733 5.78815,7.71982 6.90612,13.451568 3.78296,19.394957 -1.17837,2.242436 -3.85278,5.170614 -5.77718,6.325357 -3.43804,2.06301 -7.58393,2.83844 -10.80283,2.02052 z m 1.87456,-4.203534 c -0.27877,-0.299217 -0.44813,-0.697042 -0.37637,-0.884052 0.0718,-0.187011 0.0159,-0.340019 -0.12414,-0.340019 -0.413,0 -0.11666,-1.140066 0.33909,-1.304515 0.66857,-0.241244 1.51963,-1.497394 1.51963,-2.242947 0,-0.484079 0.14012,-0.685871 0.47625,-0.685871 0.65311,0 1.11125,-0.514165 1.11125,-1.247133 0,-0.336671 0.13997,-0.836244 0.31103,-1.110162 0.38215,-0.611928 -0.21987,-1.346872 -1.10327,-1.346872 -0.79055,0 -1.58901,-0.473292 -1.58901,-0.941898 0,-0.216766 -0.28609,-0.502889 -0.63575,-0.635831 -0.34967,-0.132943 -0.7189,-0.376238 -0.82051,-0.540655 -0.10162,-0.164417 -0.35602,-0.233225 -0.56533,-0.152903 -0.20932,0.08032 -0.60665,0.0049 -0.88295,-0.167701 -0.39286,-0.245345 -0.64625,-0.236746 -1.16232,0.03945 -0.81673,0.437102 -1.48939,0.210127 -1.48939,-0.502573 0,-0.295609 -0.1318,-0.53747 -0.29289,-0.53747 -0.16109,0 -0.22435,-0.178593 -0.14059,-0.396875 0.16911,-0.440692 -0.23489,-0.5492 -0.49256,-0.132291 -0.0899,0.145521 -0.39462,0.264583 -0.67707,0.264583 -0.59096,0 -0.72006,-1.010573 -0.19605,-1.534583 0.38284,-0.382844 2.32833,-0.427062 2.32833,-0.05292 0,0.145521 0.11906,0.264583 0.26458,0.264583 0.14553,0 0.26459,-0.17608 0.26459,-0.391289 0,-0.501327 2.84477,-3.312877 3.35202,-3.312877 0.21085,0 0.30979,-0.119063 0.21985,-0.264584 -0.0967,-0.156527 0.20304,-0.264583 0.73404,-0.264583 0.49366,0 0.96296,-0.0654 1.0429,-0.145338 0.25057,-0.250571 -0.43814,-1.448316 -0.76285,-1.326679 -0.16986,0.06363 -0.37769,-0.06374 -0.46184,-0.283038 -0.21857,-0.569574 -1.31839,-0.345647 -1.44031,0.293251 -0.14582,0.764183 -0.9022,1.265838 -1.1756,0.779698 -0.11638,-0.206926 -0.38427,-0.376227 -0.59532,-0.376227 -0.21105,0 -0.38373,-0.116319 -0.38373,-0.258485 0,-0.429453 1.21799,-1.088091 1.68252,-0.909835 0.23878,0.09163 0.43415,0.05391 0.43415,-0.08382 0,-0.428587 1.36657,-0.926707 1.68067,-0.61261 0.19328,0.193278 0.18109,0.27725 -0.0403,0.27725 -0.17463,0 -0.3175,0.119062 -0.3175,0.264583 0,0.344779 0.69082,0.338288 1.34656,-0.01265 0.57728,-0.308954 0.35629,-0.682128 -0.75671,-1.277787 -0.62788,-0.336033 -1.64819,-0.01313 -1.64819,0.521613 0,0.148989 -0.121,0.196104 -0.26889,0.104701 -0.1479,-0.09141 -0.2004,-0.277025 -0.11668,-0.41249 0.0837,-0.135466 -0.0207,-0.246302 -0.23196,-0.246302 -0.2113,0 -0.45272,0.178594 -0.53648,0.396875 -0.0838,0.218282 -0.41691,0.396875 -0.74033,0.396875 -0.57287,0 -0.57479,-0.0097 -0.0745,-0.377316 0.49611,-0.364474 0.49655,-0.37573 0.0129,-0.330729 -0.27538,0.02562 -0.54623,-0.08136 -0.60189,-0.237731 -0.15878,-0.446072 1.6834,-0.926641 4.18114,-1.090732 1.86497,-0.122521 2.61854,-0.04846 4.10104,0.40304 2.23922,0.681965 4.3817,1.984022 4.17045,2.534518 -0.0869,0.226499 0.0814,0.533931 0.40176,0.734025 0.64997,0.405916 0.71615,0.746175 0.14512,0.746175 -0.59517,0 -1.71048,0.796182 -1.71048,1.221055 0,0.201544 -0.24186,0.366445 -0.53747,0.366445 -0.64941,0 -0.95913,0.662544 -0.54371,1.163096 0.23065,0.277915 0.20667,0.398782 -0.10269,0.517493 -0.22199,0.08519 -0.40363,0.330467 -0.40363,0.545063 0,0.214598 -0.26421,0.575244 -0.58715,0.801436 -0.81905,0.57368 -0.88732,2.081014 -0.14004,3.091762 0.52219,0.706308 0.69129,0.765244 2.04248,0.711883 1.6982,-0.06707 2.1206,0.115845 2.13367,0.923946 0.005,0.318833 0.17061,0.870825 0.36767,1.226648 0.26345,0.475689 0.28569,0.80631 0.084,1.248936 -0.18889,0.414573 -0.18911,0.707385 -7.9e-4,0.940549 0.15046,0.186208 0.35386,0.825836 0.45199,1.421392 0.16633,1.009449 0.11326,1.140045 -0.78314,1.927101 -2.20334,1.934559 -4.81004,3.050926 -7.63249,3.268749 -1.31632,0.10159 -1.62663,0.03757 -2.05701,-0.424399 z m -2.74283,-0.198472 c -4.83625,-1.657808 -8.12971,-6.18367 -8.12794,-11.16943 6e-4,-1.692548 0.54652,-4.682747 0.73236,-4.011378 0.0403,0.145521 0.14545,0.592006 0.23371,0.992188 0.0936,0.4245 0.3372,0.727604 0.58471,0.727604 0.34086,0 0.36158,-0.0755 0.1054,-0.384164 -0.17536,-0.211291 -0.27787,-0.596818 -0.22782,-0.856726 0.0549,-0.285142 0.23988,-0.0016 0.46639,0.714893 0.4818,1.524117 0.73936,1.848914 1.46617,1.848914 0.32568,0 1.03076,0.297656 1.56685,0.661458 0.53609,0.363802 1.15176,0.661458 1.36814,0.661458 0.58957,0 0.80048,0.815986 0.28541,1.104234 -0.24076,0.134739 -0.43775,0.478856 -0.43775,0.764706 0,0.69286 1.07297,2.323667 1.65364,2.51337 0.3122,0.101992 0.46313,0.425564 0.46334,0.993333 1.7e-4,0.463135 0.1704,1.73399 0.37829,2.82412 0.29245,1.533523 0.53522,2.117299 1.07278,2.579688 0.85287,0.733605 0.47694,0.742087 -1.58368,0.03573 z m 13.14684,-14.999043 c -0.33632,-0.04979 -0.67648,-0.259895 -0.75591,-0.466889 -0.0801,-0.208769 -0.49508,-0.376354 -0.93191,-0.376354 -0.91883,0 -0.89614,-0.497133 0.0443,-0.969968 0.70858,-0.356269 1.69103,0.06981 1.47273,0.638694 -0.0699,0.1822 -0.0217,0.331274 0.10711,0.331274 0.43484,0 0.46023,-0.659125 0.0374,-0.970555 -0.23082,-0.170003 -0.3199,-0.408128 -0.19794,-0.529167 0.12195,-0.121039 0.50813,0.137118 0.85816,0.57368 0.35004,0.436563 0.63702,0.644922 0.63774,0.463021 0.002,-0.61123 0.46089,-0.337952 0.87805,0.523383 0.22751,0.46976 0.37683,0.890937 0.33182,0.935948 -0.045,0.04501 -0.4034,-0.06468 -0.79643,-0.243755 -0.44431,-0.202444 -0.78249,-0.229746 -0.89409,-0.07218 -0.0987,0.139374 -0.45466,0.212667 -0.79098,0.162872 z m -14.73434,-2.16616 c 0.0899,-0.14552 0.28259,-0.264583 0.42811,-0.264583 0.14552,0 0.191,0.119063 0.10106,0.264583 -0.0899,0.145521 -0.28258,0.264584 -0.4281,0.264584 -0.14553,0 -0.191,-0.119063 -0.10107,-0.264584 z m 0.92604,-0.245184 c 0,-0.13485 -0.20835,-0.299632 -0.46302,-0.36618 -0.34843,-0.09106 -0.31569,-0.128598 0.1323,-0.151694 0.36641,-0.01889 0.59531,0.121904 0.59531,0.366183 0,0.218282 -0.0595,0.396875 -0.13229,0.396875 -0.0728,0 -0.1323,-0.110331 -0.1323,-0.245184 z m -1.5875,-1.342316 c 0,-0.14552 0.11907,-0.264583 0.26459,-0.264583 0.14552,0 0.26458,0.119063 0.26458,0.264583 0,0.145521 -0.11906,0.264584 -0.26458,0.264584 -0.14552,0 -0.26459,-0.119063 -0.26459,-0.264584 z m 15.08125,-0.264583 c 0,-0.145521 0.11906,-0.264583 0.26458,-0.264583 0.14552,0 0.26459,0.119062 0.26459,0.264583 0,0.145521 -0.11907,0.264583 -0.26459,0.264583 -0.14552,0 -0.26458,-0.119062 -0.26458,-0.264583 z m -16.18919,-1.76824 c 0.191,-0.07643 0.4192,-0.06703 0.50712,0.02089 0.0879,0.08792 -0.0684,0.150453 -0.34727,0.138965 -0.30822,-0.01269 -0.37091,-0.07539 -0.15985,-0.159853 z m 1.10794,-0.604706 c 0,-0.140954 0.1786,-0.187747 0.39688,-0.103984 0.21828,0.08376 0.39687,0.199088 0.39687,0.256279 0,0.05719 -0.17859,0.103984 -0.39687,0.103984 -0.21828,0 -0.39688,-0.115325 -0.39688,-0.256279 z"
         style="fill:#ffffff" />
    </g>
  </g>
</svg>
