<svg width="309" height="58" viewBox="0 0 309 58" fill="none" xmlns="http://www.w3.org/2000/svg">
<path d="M2.00451 53.4106C2.68539 51.7154 3.42936 49.7736 3.65779 49.0955C3.88646 48.4174 4.99186 45.5324 6.11472 42.6844C9.01423 35.3301 12.3345 26.8167 14.0969 22.2182C14.9285 20.0483 15.9984 17.2743 16.4745 16.0537C16.9506 14.8332 18.0119 12.0591 18.8331 9.88921C19.6543 7.7193 20.7831 4.88976 21.3417 3.60139L22.3573 1.25891H27.7996C32.0247 1.25891 33.242 1.40707 33.242 1.92098C33.242 2.49176 27.1202 18.453 25.8355 21.2319C25.5849 21.7744 24.1419 25.4361 22.6291 29.3691C21.1164 33.302 19.2525 38.0733 18.487 39.972C17.7216 41.8707 16.0311 46.3647 14.7301 49.9586L12.3649 56.4929H6.56577H0.766602L2.00451 53.4106ZM30.3458 53.4106C31.0266 51.7154 31.7706 49.7736 31.9991 49.0955C32.2277 48.4174 33.3331 45.5324 34.456 42.6844C37.3555 35.3301 40.6758 26.8167 42.4381 22.2182C43.2697 20.0483 44.3396 17.2743 44.8157 16.0537C45.2918 14.8332 46.3532 12.0591 47.1744 9.88921C47.9955 7.7193 49.1244 4.88976 49.683 3.60139L50.6986 1.25891H56.1409C60.366 1.25891 61.5832 1.40707 61.5832 1.92098C61.5832 2.49176 55.4615 18.453 54.1768 21.2319C53.9262 21.7744 52.4831 25.4361 50.9704 29.3691C49.4577 33.302 47.5937 38.0733 46.8283 39.972C46.0629 41.8707 44.3723 46.3647 43.0714 49.9586L40.7062 56.4929H34.907H29.1079L30.3458 53.4106ZM16.1751 53.4106C16.856 51.7154 17.6 49.7736 17.8285 49.0955C18.0571 48.4174 19.1626 45.5324 20.2854 42.6844C23.1849 35.3301 26.5052 26.8167 28.2675 22.2182C29.0991 20.0483 30.169 17.2743 30.6451 16.0537C31.1212 14.8332 32.1826 12.0591 33.0037 9.88921C33.8249 7.7193 34.9537 4.88976 35.5123 3.60139L36.528 1.25891H41.9703C46.1954 1.25891 47.4126 1.40707 47.4126 1.92098C47.4126 2.49176 41.2909 18.453 40.0062 21.2319C39.7556 21.7744 38.3125 25.4361 36.7997 29.3691C35.287 33.302 33.4231 38.0733 32.6577 39.972C31.8923 41.8707 30.2016 46.3647 28.9008 49.9586L26.5355 56.4929H20.7364H14.9372L16.1751 53.4106ZM204.228 56.6555C200.69 55.1329 198.803 52.2457 198.803 48.3553C198.803 44.3685 201.175 40.8141 204.586 39.6883C206.682 38.9965 210.797 39.3916 212.395 40.4388C215.624 42.5545 217.18 46.9249 216.113 50.8852C215.364 53.6666 213.849 55.4336 211.263 56.5421C208.69 57.6453 206.606 57.6789 204.228 56.6555V56.6555ZM210.494 52.2589C212.783 49.7444 212.217 44.5682 209.512 43.2718C206.122 41.6472 203.018 44.415 203.389 48.7302C203.793 53.4238 207.678 55.353 210.494 52.2589ZM223.215 56.9094C221.234 55.8257 220.996 55.003 220.996 49.2352C220.996 43.7271 220.977 43.6391 219.763 43.1771C218.918 42.8563 218.53 42.3339 218.53 41.5201C218.53 40.7966 219.012 40.0156 219.763 39.5238C220.608 38.97 220.996 38.267 220.996 37.2881C220.996 36.1988 221.39 35.6167 222.657 34.8337C223.57 34.2691 224.458 33.8072 224.629 33.8072C224.801 33.8072 224.941 34.7876 224.941 35.986C224.941 39.0643 225.305 39.725 226.998 39.725C228.345 39.725 228.444 39.8467 228.301 41.3257C228.171 42.6719 227.912 42.9664 226.667 43.1786L225.188 43.4307L225.044 47.791C224.89 52.4899 225.275 53.5332 227.165 53.5332C228.653 53.5332 229.197 56.2911 227.851 57.0116C226.696 57.6299 224.442 57.5799 223.215 56.9092L223.215 56.9094ZM234.064 56.9062C231.72 55.6097 230.859 54.3793 230.859 52.3272C230.859 49.3845 231.826 48.3634 235.737 47.1755C237.614 46.6054 239.476 46.139 239.875 46.139C241.135 46.139 241.849 44.8576 241.232 43.7047C240.476 42.2913 237.187 42.2874 235.873 43.6972C234.996 44.6388 233.273 44.6908 231.724 43.8226C230.939 43.3826 232.978 40.6017 234.575 39.9347C237.99 38.5076 243.949 39.4164 245.065 41.5346C245.327 42.0321 245.643 45.3243 245.767 48.8504C245.892 52.3765 246.084 55.5944 246.193 56.0012C246.504 57.1484 243.17 57.3185 242.35 56.1974C241.749 55.3753 241.602 55.3863 239.562 56.4049C237.192 57.5886 235.568 57.7363 234.064 56.9049V56.9062ZM240.686 52.7302C241.763 51.3618 242.041 49.3617 241.225 48.8576C240.456 48.3822 236.612 49.6456 235.69 50.6769C235.009 51.4381 234.954 51.8464 235.399 52.8233C236.205 54.5917 239.264 54.5378 240.686 52.7299L240.686 52.7302ZM277.22 56.3517C274.582 55.0539 273.013 52.8805 272.567 49.9027C271.615 43.5583 275.898 38.7571 281.953 39.382C287.365 39.9406 289.804 42.7604 289.772 48.4223C289.753 51.4874 289.577 52.1681 288.387 53.7283C285.612 57.367 281.33 58.3729 277.22 56.3517V56.3517ZM282.868 53.2661C284.771 52.3627 285.6 50.7785 285.6 48.0412C285.6 44.3227 282.671 41.9419 279.641 43.1971C278.103 43.8339 276.722 46.314 276.725 48.4327C276.728 50.8191 278.91 53.6027 281.087 53.9983C281.181 54.0172 281.983 53.6857 282.868 53.2661V53.2661ZM296.583 56.5132C295.378 55.9665 294.077 54.877 293.503 53.9349L292.508 52.3035L294.549 51.8907C296.409 51.5146 296.683 51.5936 297.633 52.7856C298.551 53.9371 298.97 54.0748 301.138 53.9382C303.396 53.796 303.613 53.6732 303.753 52.4613C303.894 51.2396 303.689 51.0762 301.041 50.303C296.455 48.9643 295.624 48.5932 294.476 47.3713C293.292 46.1113 293.028 43.4862 293.917 41.8245C295.731 38.4355 304.629 38.3903 306.988 41.7584C308.115 43.368 308.022 43.5855 306.046 43.9562C304.801 44.1897 304.059 44.0662 303.457 43.5238C301.656 41.9005 297.436 42.1277 297.436 43.8477C297.436 44.5926 298.487 45.0739 303.107 46.445C306.402 47.4226 308.779 49.3984 308.777 51.156C308.773 54.3288 304.731 57.46 300.641 57.46C299.556 57.46 297.73 57.034 296.583 56.5132V56.5132ZM175.625 44.906V32.8236H177.756H179.887L184.205 39.7872C186.58 43.6172 188.641 47.0569 188.785 47.4312C189.569 49.4752 189.927 47.2947 189.927 40.4676V32.8236H192.155H194.383L194.251 44.7828L194.119 56.742L192.235 56.8969C191.199 56.9823 190.059 56.8096 189.703 56.5136C189.346 56.2173 187.09 52.7824 184.69 48.8799C182.29 44.9775 180.156 41.8897 179.948 42.0181C179.741 42.1463 179.57 45.5675 179.57 49.62V56.9883H177.598H175.625L175.625 44.906ZM250.938 56.6832C250.744 56.4897 250.585 52.5953 250.585 48.0294V39.7279H252.558C253.983 39.7279 254.531 39.9331 254.531 40.4676C254.531 41.4466 254.868 41.4013 256.369 40.2212C257.675 39.1935 259.721 38.9452 260.872 39.6747C261.427 40.0262 261.434 40.3995 260.912 41.842C260.341 43.4221 260.14 43.5613 258.757 43.3368C257.612 43.1509 256.99 43.3557 256.264 44.1578C255.459 45.0476 255.254 46.1891 255.037 50.9842L254.777 56.7421L253.034 56.8888C252.074 56.9693 251.131 56.8774 250.938 56.6835V56.6832ZM264.229 56.6605C264.049 56.4799 263.901 52.5961 263.901 48.0302V39.7287H266.12H268.339V48.3589V56.9893H266.449C265.409 56.9893 264.41 56.8411 264.229 56.6605L264.229 56.6605ZM44.2757 53.4127C44.9566 51.7175 45.7006 49.7756 45.9291 49.0975C46.1578 48.4194 47.2632 45.5345 48.386 42.6865C51.2855 35.3321 54.6058 26.8187 56.3681 22.2203C57.1997 20.0503 58.2696 17.2763 58.7457 16.0557C59.2218 14.8351 60.2832 12.0611 61.1043 9.89123C61.9255 7.72132 63.0544 4.89178 63.613 3.60341L64.6286 1.26093H70.0709C74.296 1.26093 75.5131 1.40905 75.5131 1.92299C75.5131 2.49374 69.3914 18.4551 68.1067 21.234C67.8562 21.7764 66.4131 25.4381 64.9004 29.3711C63.3876 33.3041 61.5237 38.0754 60.7583 39.974C59.9929 41.8727 58.3023 46.3667 57.0014 49.9606L54.6361 56.4949H48.837H43.0378L44.2757 53.4127ZM57.2662 56.3576C57.2662 56.265 57.836 54.7597 58.5323 53.0131C59.2288 51.2663 60.7698 47.2852 61.9569 44.1659C63.144 41.0467 65.0265 36.1644 66.1402 33.3164C67.2539 30.4684 69.0431 25.808 70.1162 22.96C71.1892 20.112 72.2846 17.338 72.5504 16.7955C72.9485 15.9827 75.8799 8.44001 78.0607 2.61712L78.5686 1.26093H84.1917C87.4801 1.26093 89.8148 1.45855 89.8148 1.73729C89.8148 1.99921 89.4909 2.94253 89.0949 3.83329C88.6989 4.72401 86.4615 10.3351 84.1229 16.3023C81.7843 22.2696 78.8946 29.593 77.7014 32.5766C76.5082 35.5603 74.0051 42.107 72.1389 47.1249L68.7458 56.2483L63.006 56.3874C59.8491 56.4638 57.2662 56.4506 57.2662 56.3572V56.3576ZM72.061 56.3235C72.061 56.2128 72.7055 54.4857 73.4932 52.4858C74.2809 50.486 75.4821 47.4072 76.1626 45.6442C79.7146 36.441 81.2136 32.5805 83.1519 27.6438C84.3233 24.6602 86.3083 19.556 87.5628 16.3011C92.3521 3.87549 92.9189 2.47484 93.4057 1.86071C93.7716 1.39896 95.381 1.26614 99.3814 1.36751L104.856 1.50626L105.654 3.2323C106.093 4.1816 108.645 10.5557 111.325 17.3969C114.006 24.2381 116.362 29.8416 116.561 29.8492C116.761 29.8568 116.982 23.4827 117.054 15.6846L117.185 1.50626L122.117 1.38112C124.829 1.31233 127.288 1.42345 127.581 1.62755C128.054 1.95712 132.506 9.14458 143.086 26.6572C144.888 29.6408 147.232 33.4135 148.295 35.0409L150.227 37.9998L150.473 19.7529L150.72 1.50592H155.651H160.583L160.71 28.9997L160.838 56.4934H155.196H149.554L146.122 50.9453C142.333 44.821 135.122 33.0966 130.815 26.0566C129.286 23.5564 127.868 21.5037 127.664 21.4949C127.461 21.4835 127.294 29.3572 127.294 38.9862V56.4934H121.165H115.036L113.967 53.6578C113.379 52.0983 112.338 49.3242 111.655 47.4934L110.413 44.1645H99.1869H87.9612L87.4603 45.5207C87.1848 46.2667 86.1918 48.9852 85.2535 51.562L83.5474 56.247L77.8039 56.3861C74.6449 56.4624 72.0603 56.4341 72.0603 56.3233L72.061 56.3235ZM106.473 34.1782C103.071 24.4281 99.3287 15.0682 98.832 15.0682C98.4835 15.0682 98.1968 15.3457 98.1945 15.6847C98.1923 16.0237 96.7516 20.1848 94.9931 24.9315C93.2346 29.6782 91.7939 33.8392 91.7916 34.1782C91.7894 34.6444 93.6041 34.7947 99.2376 34.7947C104.984 34.7947 106.639 34.6537 106.473 34.1782V34.1782ZM263.901 34.7947V32.822H266.12H268.339V34.7947V36.7674H266.12H263.901V34.7947ZM207.096 25.4645C204.873 25.0146 202.191 23.0356 200.873 20.873C198.02 16.1919 198.63 8.04379 202.101 4.47055C204.208 2.3011 207.533 0.766113 210.127 0.766113C213.634 0.766113 217.322 2.91144 218.844 5.83551C219.739 7.55705 219.44 8.04069 217.221 8.45701C215.653 8.75105 215.322 8.62142 214.295 7.30981C211.116 3.24739 205.922 4.55188 204.227 9.83823C203.48 12.1694 203.82 16.7941 204.892 18.8666C205.885 20.787 208.72 22.1643 210.855 21.7638C212.596 21.4372 214.277 19.9005 214.808 18.1501C215.193 16.8795 215.604 16.8102 217.878 17.6326C219.801 18.3277 219.824 18.4495 218.52 21.0048C216.697 24.5786 211.924 26.4416 207.096 25.4645V25.4645ZM173.436 24.3146C173.625 23.7043 174.769 20.6529 175.978 17.5336C177.187 14.4144 178.732 10.4198 179.41 8.65672C182.567 0.44494 181.975 1.26324 184.76 1.26116L187.237 1.25926L191.911 12.9261C194.481 19.3429 196.662 24.7924 196.758 25.0361C196.853 25.2799 195.767 25.4114 194.344 25.3286L191.757 25.1778L190.776 22.5887L189.794 19.9996H184.728H179.662L178.809 22.712L177.956 25.4244H175.524C173.23 25.4244 173.112 25.362 173.436 24.3148V24.3146ZM187.954 15.6773C187.954 15.4698 187.488 14.083 186.918 12.595C186.349 11.1071 185.768 9.39024 185.628 8.77996C185.159 6.73864 184.25 7.63821 182.886 11.4923C182.142 13.5945 181.535 15.4808 181.538 15.6842C181.54 15.8879 182.985 16.0542 184.748 16.0542C186.511 16.0542 187.954 15.8845 187.954 15.6774V15.6773ZM224.562 13.465L224.694 1.50592H226.667H228.64L228.781 6.06285C228.947 11.3858 228.796 11.2629 234.81 11.0232L238.503 10.8762L238.749 6.19117L238.996 1.50615H241.215H243.434L243.566 13.4653L243.698 25.4245H241.223H238.749V20.2463V15.0681H233.817H228.886V20.2463V25.4245H226.658H224.43L224.562 13.465ZM246.64 25.1933C246.64 25.0663 247.658 22.3477 248.902 19.152C250.147 15.9564 251.717 11.8992 252.392 10.1362C255.788 1.26574 255.622 1.52185 258.076 1.3588C259.457 1.26658 260.48 1.45216 260.799 1.852C261.187 2.3385 267.511 17.7999 270.099 24.5891C270.404 25.3889 270.174 25.4647 267.852 25.3289L265.265 25.1781L264.296 22.5722L263.326 19.9662L258.317 20.1065L253.308 20.2467L252.378 22.8358L251.448 25.4249H249.044C247.722 25.4249 246.64 25.321 246.64 25.194V25.1933ZM261.435 15.3311C261.435 14.9334 261.125 13.8793 260.745 12.9886C260.365 12.0979 259.663 10.4185 259.183 9.25679C258.704 8.09504 258.162 7.31834 257.98 7.53075C257.61 7.96283 255.018 15.1059 255.021 15.6842C255.023 15.8879 256.466 16.0542 258.229 16.0542C260.717 16.0542 261.435 15.8921 261.435 15.3312V15.3311ZM167.087 1.85431H168.223V57.0529H167.087V1.85431Z" fill="white"/>
</svg>
