<svg width="247" height="121" viewBox="0 0 247 121" fill="none" xmlns="http://www.w3.org/2000/svg">
<path d="M30.9771 119.382C31.8627 118.867 32.0241 117.859 32.0241 112.849C32.0241 107.839 31.8627 106.832 30.9771 106.316C30.1907 105.858 30.942 105.702 33.9957 105.688C37.5279 105.673 38.2539 105.862 39.5297 107.139C41.3214 108.93 41.3648 109.829 39.7582 111.871C38.7947 113.096 37.9944 113.448 36.1686 113.448C33.8333 113.448 33.8189 113.463 33.8189 115.798C33.8189 117.137 34.2235 118.553 34.7591 119.088C35.6137 119.943 35.437 120.027 32.8147 120.01C30.564 119.995 30.1602 119.858 30.9771 119.382V119.382ZM37.7098 111.434C38.4019 110.378 38.4899 109.633 38.057 108.494C37.4641 106.935 35.5056 105.895 34.4225 106.564C33.7545 106.977 33.5861 111.819 34.2177 112.45C35.0654 113.298 36.8237 112.786 37.7097 111.434H37.7098ZM42.8364 118.452C39.305 113.963 44.7976 107.675 48.7757 111.653C50.6604 113.537 50.2155 114.046 46.6818 114.046C43.0221 114.046 42.4351 114.884 44.5878 117.037C46.1385 118.588 47.2386 118.549 48.7894 116.888C49.9367 115.659 50.009 115.646 49.6192 116.739C48.3484 120.299 44.9621 121.155 42.8364 118.453V118.452ZM46.9809 112.251C46.2559 110.896 45.1668 110.715 44.1092 111.772C42.9031 112.979 43.2943 113.448 45.5063 113.448C47.4359 113.448 47.5652 113.343 46.9809 112.251V112.251ZM51.3184 119.382C52.7948 118.522 52.8047 113.155 51.332 112.33C50.4158 111.817 50.4843 111.667 51.9328 111.007C52.8319 110.597 53.7594 110.454 53.994 110.688C54.2286 110.923 54.345 112.963 54.2528 115.222C54.1081 118.767 54.2324 119.367 55.1699 119.609C55.7666 119.764 54.9086 119.913 53.2634 119.941C50.9615 119.981 50.5133 119.852 51.319 119.383L51.3184 119.382ZM58.3481 118.283V116.771L59.3033 118.135C59.8883 118.97 60.7395 119.427 61.4999 119.315C63.606 119.003 63.3243 117.771 60.7803 116.165C56.9949 113.775 57.6797 110.25 61.8674 110.569C63.3974 110.685 63.7326 110.969 63.7326 112.145V113.58L62.6292 112.218C61.9233 111.346 61.169 110.992 60.5352 111.235C58.9878 111.829 59.3695 113.23 61.2962 114.028C62.2596 114.427 63.5066 115.26 64.0673 115.88C65.0231 116.936 65.024 117.102 64.0832 118.54C63.2502 119.811 62.6737 120.05 60.7138 119.934C58.6205 119.811 58.3493 119.621 58.3493 118.283H58.3481ZM66.5743 119.632C67.0543 119.438 67.3222 118.063 67.3222 115.791C67.3222 113.368 67.0862 112.245 66.5743 112.232C65.5869 112.206 67.9114 110.456 68.9322 110.456C69.5071 110.456 69.7153 111.636 69.7153 114.893C69.7153 117.883 69.9592 119.429 70.4631 119.632C70.8744 119.798 69.9995 119.934 68.5187 119.934C67.038 119.934 66.163 119.798 66.5743 119.632V119.632ZM72.7305 119.16C71.5864 117.781 72.5353 116.1 75.1131 114.937C77.6245 113.805 78.0582 112.867 76.6216 111.675C75.5313 110.77 74.5015 111.357 74.5015 112.885C74.5015 113.523 74.0976 114.046 73.604 114.046C72.5305 114.046 72.4142 112.185 73.4245 111.174C73.8194 110.779 74.977 110.456 75.9971 110.456C78.6492 110.456 79.2876 111.42 79.2876 115.426C79.2876 118.374 79.4415 118.901 80.216 118.604C80.8071 118.377 80.9943 118.49 80.731 118.916C80.4825 119.319 80.6489 119.476 81.1487 119.311C82.462 118.879 82.614 113.377 81.3384 112.444C80.4172 111.771 80.4795 111.629 82.0007 110.936C83.2219 110.38 83.7413 110.356 83.9056 110.849C84.0714 111.346 84.5902 111.354 85.8496 110.879C88.4841 109.885 89.4583 111.05 89.4583 115.197C89.4583 117.065 89.7813 118.917 90.1762 119.311C90.7346 119.87 90.3756 120.029 88.5608 120.029C86.7461 120.029 86.3871 119.87 86.9455 119.311C88.0297 118.227 87.8806 112.298 86.7585 111.867C85.076 111.221 84.0739 112.825 84.0739 116.164C84.0739 118.139 84.3553 119.444 84.8217 119.631C85.233 119.795 83.7523 119.923 81.5312 119.914C79.3102 119.906 77.4929 119.649 77.4929 119.344C77.4929 119.027 76.9982 119.055 76.3357 119.41C74.738 120.265 73.5807 120.185 72.7306 119.16L72.7305 119.16ZM76.7749 118.114C77.1697 117.719 77.4928 116.768 77.4928 115.999C77.4928 114.739 77.3607 114.672 76.1467 115.311C74.4646 116.197 73.9261 116.999 74.3217 118.03C74.7036 119.025 75.8252 119.064 76.7749 118.114V118.114ZM92.4735 119.16C91.3293 117.781 92.2783 116.1 94.8561 114.937C97.4918 113.749 97.5904 113.563 96.4292 111.975C95.489 110.689 94.2444 111.207 94.2444 112.885C94.2444 113.523 93.8406 114.046 93.347 114.046C92.2735 114.046 92.1572 112.185 93.1675 111.174C93.5623 110.779 94.72 110.456 95.74 110.456C98.3922 110.456 99.0306 111.42 99.0306 115.426C99.0306 118.457 99.1703 118.906 100.013 118.583C100.834 118.268 100.871 118.356 100.238 119.117C99.3846 120.146 97.2357 120.355 97.2357 119.409C97.2357 118.982 96.8762 118.982 96.0785 119.409C94.4809 120.264 93.3235 120.184 92.4734 119.16L92.4735 119.16ZM96.5179 118.114C96.9127 117.719 97.2358 116.768 97.2358 115.999C97.2358 114.739 97.1037 114.672 95.8897 115.311C94.2076 116.197 93.6691 116.999 94.0647 118.03C94.4466 119.025 95.5682 119.064 96.5179 118.114V118.114ZM101.424 118.283V116.771L102.379 118.135C102.964 118.97 103.815 119.427 104.576 119.315C106.682 119.003 106.4 117.77 103.856 116.164C100.071 113.775 100.755 110.249 104.943 110.568C106.473 110.685 106.808 110.968 106.808 112.145V113.58L105.705 112.217C104.999 111.346 104.245 110.992 103.611 111.235C102.063 111.829 102.445 113.23 104.372 114.028C105.335 114.427 106.582 115.26 107.143 115.88C108.099 116.936 108.1 117.102 107.156 118.54C106.324 119.811 105.747 120.05 103.787 119.934C101.694 119.81 101.423 119.621 101.423 118.283H101.424ZM114.978 118.934C113.426 117.22 113.781 115.294 116.03 113.229C117.682 111.711 118.01 111.036 117.751 109.687C117.338 107.547 118.968 105.67 121.238 105.67C124.452 105.67 124.796 109.432 121.733 111.072C120.535 111.713 120.535 111.72 121.805 113.503C122.858 114.983 123.232 115.164 123.968 114.553C124.507 114.106 124.761 113.151 124.612 112.135C124.381 110.56 124.497 110.457 126.505 110.475C128.293 110.49 128.494 110.614 127.726 111.223C126.474 112.215 124.158 115.572 124.158 116.394C124.158 117.592 126.992 118.511 128.029 117.65C129.332 116.569 129.168 117.846 127.85 119.038C126.462 120.295 124.851 120.3 123.473 119.053C122.475 118.151 122.282 118.151 120.904 119.053C118.931 120.346 116.205 120.292 114.978 118.935L114.978 118.934ZM120.69 118.019C121.635 117.301 121.596 117.084 120.146 115.047C118.364 112.543 117.871 112.379 117 114.006C115.2 117.369 117.811 120.207 120.69 118.019V118.019ZM121.645 109.738C122.543 108.841 122.577 107.069 121.707 106.532C120.652 105.88 119.196 107.763 119.65 109.193C120.106 110.63 120.614 110.769 121.645 109.738H121.645ZM138.646 119.095C135.717 117.043 134.791 113.081 136.432 109.623C137.767 106.809 140.263 105.566 144.146 105.779C147.327 105.953 147.386 105.99 147.716 108.025C148.157 110.738 147.796 110.988 146.648 108.767C145.576 106.694 142.885 105.809 140.894 106.875C137.652 108.61 137.186 115.305 140.145 117.633C142.198 119.247 144.039 119.142 146.248 117.283C147.261 116.431 148.089 116.003 148.089 116.332C148.089 116.662 147.261 117.628 146.248 118.48C144.108 120.28 140.729 120.554 138.646 119.095V119.095ZM151.07 118.383C150.088 117.135 149.857 116.233 150.111 114.644C151.057 108.731 158.858 109.272 158.858 115.251C158.858 119.676 153.714 121.745 151.07 118.383ZM156.345 118.712C157.43 117.627 157.211 113.763 155.979 112.241C153.651 109.366 150.803 112.863 152.29 116.771C153.269 119.348 154.92 120.138 156.345 118.712ZM160.204 119.382C161.68 118.522 161.69 113.154 160.218 112.33C159.301 111.817 159.37 111.667 160.818 111.007C161.717 110.597 162.645 110.454 162.88 110.688C163.114 110.923 163.231 112.963 163.138 115.221C162.994 118.767 163.118 119.366 164.056 119.609C164.652 119.763 163.794 119.913 162.149 119.941C159.847 119.98 159.399 119.852 160.205 119.383L160.204 119.382ZM168.829 119.629C168.61 119.41 168.43 117.391 168.43 115.142C168.43 112.014 168.231 111.054 167.583 111.054C167.117 111.054 166.633 111.359 166.509 111.732C166.372 112.144 165.763 112.244 164.955 111.988C163.311 111.466 163.913 110.23 165.596 110.671C166.443 110.892 167.335 110.432 168.52 109.164L170.225 107.338V108.853C170.225 109.793 170.623 110.472 171.272 110.642C172.269 110.902 172.269 110.919 171.272 110.985C170.388 111.044 170.225 111.667 170.225 114.984C170.225 118.782 170.27 118.899 171.566 118.487C172.759 118.109 172.817 118.171 172.091 119.045C171.261 120.046 169.552 120.352 168.829 119.63V119.629ZM173.665 119.632C174.145 119.438 174.413 118.062 174.413 115.79C174.413 113.367 174.177 112.244 173.665 112.231C172.678 112.205 175.002 110.456 176.023 110.456C176.599 110.456 176.806 111.644 176.806 114.943C176.806 118.946 176.928 119.43 177.939 119.43C179.302 119.43 179.797 118.309 179.797 115.223C179.797 113.651 179.465 112.722 178.763 112.329C177.854 111.82 177.938 111.656 179.464 110.961C180.718 110.389 181.261 110.358 181.424 110.848C181.59 111.345 182.109 111.353 183.368 110.879C186.002 109.884 186.977 111.049 186.977 115.196C186.977 117.064 187.3 118.916 187.695 119.311C188.253 119.869 187.894 120.029 186.079 120.029C184.265 120.029 183.906 119.869 184.464 119.311C185.548 118.227 185.399 112.297 184.277 111.866C182.594 111.221 181.592 112.825 181.592 116.163C181.592 118.137 181.874 119.444 182.34 119.632C182.751 119.798 180.8 119.934 178.003 119.934C175.206 119.934 173.254 119.798 173.665 119.632L173.665 119.632ZM189.992 119.159C188.848 117.781 189.797 116.099 192.375 114.937C194.886 113.804 195.32 112.866 193.883 111.674C192.793 110.769 191.763 111.357 191.763 112.884C191.763 113.523 191.359 114.045 190.865 114.045C189.792 114.045 189.676 112.184 190.686 111.174C191.081 110.779 192.238 110.456 193.258 110.456C195.899 110.456 196.549 111.421 196.549 115.343C196.549 118.38 196.674 118.747 197.596 118.402C198.513 118.058 198.541 118.135 197.822 119.019C196.923 120.124 194.754 120.399 194.754 119.409C194.754 118.982 194.395 118.982 193.597 119.409C191.999 120.264 190.842 120.184 189.992 119.159L189.992 119.159ZM194.036 118.114C194.431 117.719 194.754 116.77 194.754 116.004C194.754 114.651 194.705 114.638 192.959 115.541C190.99 116.559 191.008 116.53 191.528 117.885C191.96 119.011 193.041 119.109 194.036 118.114V118.114ZM198.942 118.415V117.037L200.175 118.27C200.854 118.948 201.841 119.419 202.369 119.317C204.197 118.962 203.797 117.693 201.374 116.164C197.589 113.774 198.274 110.249 202.461 110.568C203.991 110.685 204.327 110.968 204.327 112.145V113.58L203.223 112.217C202.517 111.345 201.763 110.991 201.129 111.234C199.582 111.828 199.964 113.229 201.89 114.027C202.854 114.426 204.101 115.26 204.661 115.879C205.617 116.936 205.618 117.102 204.675 118.539C203.842 119.811 203.265 120.049 201.306 119.934C199.276 119.814 198.941 119.599 198.941 118.415H198.942ZM55.3735 111.675C54.6156 111.196 54.6324 111.065 55.4945 110.734C56.5923 110.313 57.7499 110.802 57.7499 111.688C57.7499 112.404 56.5157 112.398 55.3736 111.676L55.3735 111.675ZM212.058 109.305C211.014 108.261 210.309 106.924 210.309 105.988C210.309 104.343 212.677 101.482 214.038 101.482C215.625 101.482 217.45 103.361 217.83 105.388C218.06 106.609 218.573 107.464 219.076 107.464C219.997 107.464 223.47 100.695 223.471 98.8979C223.472 96.7423 212.497 72.5067 210.783 70.8793C209.864 70.0069 209.113 69.1319 209.113 68.9349C209.113 68.738 212.613 68.5766 216.89 68.5766C224.101 68.5766 226.48 69.1173 223.471 70.0723C222.763 70.2972 222.269 70.985 222.262 71.7578C222.248 73.0756 227.702 86.496 228.257 86.5111C228.834 86.5262 233.074 74.2436 233.059 72.6021C233.048 71.4224 232.612 70.7474 231.548 70.2625C228.94 69.0741 229.911 68.5766 234.838 68.5766C237.471 68.5766 239.625 68.6904 239.625 68.8298C239.625 68.9693 238.874 69.844 237.956 70.7742C236.781 71.9654 234.631 76.7996 230.685 87.1231C222.32 109.007 221.078 111.054 216.165 111.054C214.356 111.054 213.399 110.647 212.058 109.305V109.305ZM67.6469 106.309C67.2044 105.593 68.3299 104.884 69.1267 105.376C69.7958 105.79 69.3566 106.866 68.5187 106.866C68.2285 106.866 67.8362 106.616 67.6469 106.309V106.309ZM174.738 106.309C174.295 105.593 175.421 104.884 176.218 105.376C176.887 105.79 176.447 106.866 175.609 106.866C175.319 106.866 174.927 106.616 174.738 106.309V106.309ZM50.8697 97.9195C48.8946 97.1026 46.9144 94.5618 46.347 92.1167C46.0533 90.851 45.8065 85.7289 45.7986 80.7344C45.7873 73.2901 45.615 71.4841 44.8442 70.7134C44.3272 70.1963 43.6541 69.7732 43.3485 69.7732C43.043 69.7732 42.793 69.5041 42.793 69.1749C42.793 68.8159 45.1861 68.5767 48.7757 68.5767H54.7585V79.6058C54.7585 85.6718 55.021 91.3254 55.3419 92.1695C56.1297 94.2414 58.5265 94.2188 60.4706 92.1211C61.9038 90.5747 61.9377 90.3111 61.9377 80.7411V70.9441L60.4421 70.2626C57.7105 69.0181 58.8852 68.5767 64.9291 68.5767H70.9118L70.9209 80.6917C70.93 93.945 71.0939 95.2859 72.7721 95.8186C75.4858 96.6798 73.4671 97.2938 67.9214 97.2938H61.9387V95.7738V94.254L60.2934 95.7843C57.8087 98.0954 53.6011 99.0489 50.8706 97.9195H50.8697ZM128.819 97.9309C123.798 96.3194 120.386 90.8161 120.313 84.2093C120.248 78.3193 121.492 74.7761 124.778 71.4902C126.885 69.3827 128.245 68.568 130.432 68.1014C132.016 67.7635 133.608 67.5753 133.97 67.683C134.332 67.7907 135.347 68.036 136.227 68.2278C140.082 69.0689 143.521 73.8003 144.245 79.2592L144.653 82.3373H136.799C129.716 82.3373 128.945 82.4401 128.948 83.3843C128.957 85.88 130.41 89.3073 132.237 91.1337C133.841 92.7386 134.677 93.1062 136.722 93.1062C138.796 93.1062 139.6 92.7407 141.328 91.0122C143.389 88.9519 144.499 88.4044 144.499 89.4489C144.499 90.8725 140.362 95.8421 138.298 96.8982C135.697 98.2289 131.256 98.7127 128.819 97.9308V97.9309ZM136.555 76.2674C136.298 73.4392 135.882 72.2515 134.752 71.121C133.516 69.8858 133.08 69.7594 132.017 70.3285C130.363 71.2137 129.198 73.5815 128.686 77.1024L128.273 79.9442H132.58H136.888L136.555 76.2674ZM84.2616 96.7256C81.1538 94.8311 80.8788 93.7404 80.5959 82.1882L80.3357 71.5688H78.6151C77.6688 71.5688 76.8945 71.3984 76.8945 71.1904C76.8945 70.9825 78.5983 69.2508 80.6808 67.3426C82.7632 65.4344 85.3881 62.5156 86.5139 60.8563C87.6397 59.197 88.7628 57.8325 89.0096 57.824C89.2564 57.8164 89.4583 60.2316 89.4583 63.193V68.5774H93.0479C96.4585 68.5774 96.6375 68.6504 96.6375 70.0433C96.6375 71.4081 96.4005 71.5215 93.1975 71.6885L89.7574 71.8681L89.6088 81.4404C89.46 91.025 89.8737 93.5534 91.6883 94.1518C92.0922 94.2848 93.1088 93.6536 93.9474 92.7488C96.039 90.4919 97.0787 91.5945 95.2825 94.1647C92.7438 97.7974 87.8745 98.9291 84.2616 96.7261L84.2616 96.7256ZM105.669 97.1698C104.878 96.7451 103.681 95.6553 103.007 94.7486C101.907 93.2667 101.758 92.0128 101.529 82.3345L101.275 71.5688H99.5547C97.3178 71.5688 97.3802 70.8608 99.7786 69.0298C102.756 66.7567 105.514 63.784 107.553 60.6503C108.571 59.0874 109.627 57.8085 109.9 57.8085C110.174 57.8085 110.398 60.2316 110.398 63.193V68.5774H113.988C117.398 68.5774 117.577 68.6504 117.577 70.0433C117.577 71.4081 117.34 71.5215 114.137 71.6885L110.697 71.8681L110.52 80.543C110.314 90.6006 110.606 92.8557 112.225 93.722C113.187 94.2373 113.667 94.0656 114.86 92.7776C116.718 90.7732 117.978 91.3533 116.639 93.5966C116.112 94.4788 114.99 95.7152 114.145 96.3442C112.243 97.7604 107.607 98.2122 105.669 97.1703L105.669 97.1698ZM0.315674 96.6958C0.315674 96.3666 1.10412 96.0975 2.06775 96.0975C6.0662 96.0975 6.49493 93.7617 6.20525 73.5546C5.98048 57.8815 5.87938 57.4245 2.56071 57.0949C1.54114 56.9936 0.587962 56.5486 0.4425 56.106C0.224761 55.4434 2.64698 55.3377 14.1567 55.5077C27.4123 55.7035 28.2835 55.787 30.9991 57.1242C34.9126 59.0513 36.8103 61.9506 36.8103 66.0029C36.8103 68.6313 36.5211 69.463 35.0079 71.1865C34.0165 72.3156 32.0647 73.701 30.6704 74.2653L28.1353 75.2912L31.0524 76.2332C39.3139 78.901 41.5854 87.4862 35.5504 93.2329C31.8106 96.794 29.1163 97.2941 13.6682 97.2941C5.16538 97.2941 0.315674 97.0768 0.315674 96.6958V96.6958ZM24.1948 93.2458C28.5495 90.0248 28.4778 81.3619 24.0727 78.4756C23.3326 77.9907 21.1844 77.4126 19.2989 77.191L15.8708 76.7881V84.9044C15.8708 91.7059 16.0336 93.1835 16.8753 94.0253C18.1465 95.2965 21.9732 94.8889 24.1948 93.2458H24.1948ZM22.5957 72.9692C29.6981 69.3849 26.5474 58.4158 18.4134 58.4086L15.8708 58.4064V66.4261V74.4459L18.4134 74.1212C19.8119 73.9424 21.6939 73.4242 22.5957 72.9692V72.9692ZM148.089 96.6958C148.089 96.3666 148.339 96.0975 148.644 96.0975C148.95 96.0975 149.623 95.6745 150.14 95.1574C150.928 94.3692 151.08 92.394 151.08 82.9355C151.08 73.4772 150.928 71.5019 150.14 70.7137C149.623 70.1966 148.95 69.7735 148.644 69.7735C148.339 69.7735 148.089 69.5045 148.089 69.1753C148.089 68.8162 150.482 68.577 154.072 68.577H160.054V71.3769V74.1768L162.135 71.7465C164.845 68.5797 168.469 67.0486 170.716 68.1206C172.034 68.7493 172.352 69.3468 172.506 71.4844C172.826 75.9324 169.773 77.7544 166.42 75.1168C164.426 73.5489 162.767 74.0231 161.416 76.5465C160.675 77.9315 160.334 80.3612 160.163 85.4848C159.882 93.8923 160.163 95.3536 162.157 95.8541C165.622 96.7237 163.13 97.2941 155.866 97.2941C151.08 97.2941 148.089 97.0639 148.089 96.6958V96.6958ZM175.011 96.827C175.011 96.57 175.819 96.055 176.806 95.6824L178.601 95.0049V83.5858V72.1666H177.105C175.842 72.1666 175.609 71.8873 175.609 70.3718C175.609 68.8562 175.842 68.577 177.105 68.577C178.27 68.577 178.601 68.2705 178.601 67.1899C178.601 64.1297 180.427 59.6827 182.35 58.0615C185.975 55.0043 187.605 54.6637 196.363 55.1328L204.327 55.5593V74.6712C204.327 93.7981 204.554 96.0975 206.442 96.0975C206.924 96.0975 207.318 96.3667 207.318 96.6958C207.318 97.0628 204.426 97.2941 199.84 97.2941C195.726 97.2941 192.361 97.1308 192.361 96.9316C192.361 96.732 193.034 96.0396 193.857 95.3925L195.352 94.216V83.1917V72.1671H191.464H187.575V83.1924C187.575 92.4177 187.728 94.3712 188.515 95.1578C189.032 95.6749 189.705 96.098 190.011 96.098C190.316 96.098 190.566 96.3671 190.566 96.6963C190.566 97.0644 187.575 97.2945 182.789 97.2945C178.511 97.2945 175.011 97.0844 175.011 96.8274V96.827ZM195.193 62.8934L195.058 57.2098H192.606C189.028 57.2098 188.06 58.5692 187.706 64.0865L187.418 68.577H191.373H195.328L195.193 62.8934ZM240.941 64.2694C239.263 62.5913 240.527 59.6029 242.915 59.6029C244.519 59.6029 245.607 60.6915 245.607 62.2951C245.607 63.8988 244.519 64.9873 242.915 64.9873C242.224 64.9873 241.336 64.6642 240.941 64.2694V64.2694ZM244.367 63.2752C245.151 61.809 243.806 59.8459 242.39 60.3895C241.011 60.9188 240.541 62.4333 241.426 63.4993C242.431 64.7103 243.648 64.6176 244.367 63.2751V63.2752ZM242.065 62.4447C242.034 61.3601 242.324 60.7994 242.915 60.7994C243.497 60.7994 243.809 61.377 243.803 62.4447C243.797 63.6011 243.641 63.8476 243.278 63.2744C242.841 62.5859 242.71 62.5859 242.437 63.2744C242.258 63.723 242.091 63.3496 242.065 62.4447H242.065ZM216.884 55.2653C215.526 53.0385 215.401 52.077 216.389 51.4663C217.4 50.8413 219.283 53.4536 219.283 55.4812C219.283 57.7556 218.351 57.6717 216.884 55.2654V55.2653ZM218.206 51.1074C217.197 50.0975 217.283 47.0391 218.322 47.0391C219.287 47.0391 219.882 48.3132 219.882 50.3786C219.882 51.9662 219.313 52.2136 218.207 51.1074H218.206ZM211.898 48.9364C210.839 47.7661 210.542 45.2443 211.463 45.2443C212.52 45.2443 213.899 47.1306 213.899 48.5775C213.899 50.3099 213.247 50.4269 211.898 48.9362V48.9364ZM219.048 46.0928C218.325 44.2089 218.643 42.7554 219.732 42.9618C221.088 43.2184 221.604 47.0391 220.283 47.0391C219.803 47.0391 219.248 46.6132 219.048 46.0928ZM213.324 45.5722C212.478 44.5522 212.697 42.7526 213.709 42.4157C214.603 42.1179 215.894 44.4581 215.459 45.5902C215.041 46.6799 214.238 46.6731 213.324 45.5713V45.5722ZM206.241 43.3298C205.372 42.461 205.31 41.2585 206.109 40.7649C207.069 40.1717 209.113 41.6057 209.113 42.8722C209.113 44.2012 207.387 44.4762 206.241 43.3298H206.241ZM214.841 41.8538C214.63 41.3052 214.718 40.5964 215.036 40.2787C215.917 39.3977 217.489 40.2673 217.489 41.6359C217.489 43.1365 215.399 43.3084 214.841 41.854V41.8538ZM220.48 40.7926C220.48 39.9894 220.773 39.1513 221.13 38.9302C222.132 38.3112 223.039 39.5919 222.593 40.9962C222.036 42.7517 220.48 42.6018 220.48 40.7928V40.7926ZM208.493 40.7321C207.546 39.5907 208.471 38.4533 210.096 38.7631C211.672 39.0635 211.966 41.6549 210.424 41.6549C209.783 41.6549 208.915 41.2396 208.493 40.7321V40.7321ZM200.288 39.1298C198.397 38.2177 198.576 36.8666 200.587 36.8778C202.773 36.8892 203.987 37.7239 203.535 38.9022C203.115 39.9965 202.216 40.0596 200.288 39.1298V39.1298ZM217.489 38.6635C217.489 37.8455 217.887 37.4669 218.749 37.4669C219.653 37.4669 219.907 37.7349 219.647 38.4133C219.447 38.9337 219.283 39.4722 219.283 39.6098C219.283 39.7474 218.88 39.86 218.386 39.86C217.887 39.86 217.489 39.3282 217.489 38.6635V38.6635ZM211.593 38.4696C211.049 37.8146 211.094 37.4593 211.79 36.8813C212.961 35.9095 214.642 36.574 214.385 37.9071C214.129 39.2384 212.503 39.5659 211.593 38.4696V38.4696ZM243.858 37.1148C241.801 35.3835 241.453 33.8775 243.11 33.8775C244.453 33.8775 246.804 36.2822 246.804 37.6552C246.804 39.0633 245.998 38.9156 243.858 37.1148V37.1148ZM203.136 36.5768C202.537 35.8557 202.581 35.616 203.363 35.3157C204.803 34.7631 207.318 35.5678 207.318 36.5811C207.318 37.7631 204.118 37.7598 203.136 36.5774V36.5768ZM239.475 36.5265C237.726 35.5774 237.196 33.2791 238.727 33.2791C239.887 33.2791 242.018 35.41 242.018 36.5696C242.018 37.6748 241.578 37.6673 239.475 36.5265V36.5265ZM214.6 35.8703C214.716 35.2617 215.428 34.6867 216.202 34.5766C217.28 34.4232 217.548 34.6257 217.386 35.474C217.27 36.0826 216.558 36.6577 215.784 36.7677C214.705 36.9212 214.438 36.7186 214.6 35.8703ZM219.882 36.0355C219.882 35.0211 221.5 34.3039 221.992 35.1002C222.186 35.415 222.179 35.9416 221.976 36.2706C221.423 37.1651 219.882 36.9921 219.882 36.0355L219.882 36.0355ZM234.091 35.6244C232.578 34.7432 232.783 33.2793 234.42 33.2793C235.942 33.2793 237.232 34.2944 237.232 35.4929C237.232 36.414 235.566 36.4838 234.091 35.6244V35.6244ZM189.469 35.0371C187.908 34.4114 188.004 33.0903 189.634 32.7744C190.955 32.5185 195.951 34.3766 195.951 35.1238C195.951 35.8298 191.292 35.7676 189.469 35.0372V35.0371ZM207.041 35.1112C206.557 34.328 208.453 33.3755 209.796 33.7268C211.614 34.2021 211.124 35.6727 209.148 35.6727C208.18 35.6727 207.232 35.4199 207.041 35.1112ZM229.123 35.0224C228.504 34.0208 229.784 33.114 231.189 33.5597C232.944 34.1169 232.794 35.6728 230.985 35.6728C230.182 35.6728 229.344 35.3803 229.123 35.0224H229.123ZM196.299 33.9568C193.486 33.3477 193.648 32.0832 196.538 32.0832C199.569 32.0832 201.924 33.1379 200.668 33.9331C199.751 34.5138 198.893 34.5184 196.299 33.9558V33.9568ZM218.217 33.7855C218.365 33.3428 218.965 32.8876 219.551 32.7739C220.233 32.6416 220.521 32.8574 220.35 33.3721C220.202 33.8149 219.602 34.2701 219.015 34.3838C218.333 34.5161 218.046 34.3003 218.217 33.7855ZM211.506 33.3437C211.506 32.7471 212.95 32.0832 214.247 32.0832C214.714 32.0832 215.095 32.487 215.095 32.9806C215.095 33.5788 214.497 33.878 213.301 33.878C212.314 33.878 211.506 33.6376 211.506 33.3437V33.3437ZM225.266 32.4463C225.266 31.4319 226.884 30.7147 227.376 31.511C227.571 31.8259 227.563 32.3524 227.36 32.6814C226.807 33.5759 225.266 33.4029 225.266 32.4463L225.266 32.4463ZM200.883 31.9336C201.247 30.8251 204.447 30.6988 205.822 31.7386C206.939 32.583 206.806 32.6446 203.828 32.6623C201.537 32.6775 200.706 32.4707 200.883 31.9335V31.9336ZM215.694 32.1479C215.694 31.5011 218.68 30.6816 219.187 31.1891C219.672 31.6742 218.045 32.6608 216.741 32.6722C216.165 32.6759 215.694 32.4412 215.694 32.1479V32.1479ZM207.759 31.6692C205.958 31.1993 207.269 30.2882 209.746 30.2882C212.313 30.2882 212.913 31.1285 210.758 31.706C210.018 31.9044 209.277 32.0393 209.113 32.0053C208.948 31.9713 208.339 31.8205 207.759 31.6689V31.6692ZM228.577 31.5181C228 30.5837 228.759 29.6901 230.131 29.6901C230.954 29.6901 231.273 30.0201 231.136 30.7302C230.907 31.9223 229.159 32.4602 228.577 31.5181ZM232.595 31.0861C232.184 30.9213 231.847 30.2522 231.847 29.5986C231.847 28.7085 232.185 28.4583 233.193 28.6015C234.054 28.724 234.539 29.2057 234.539 29.9394C234.539 31.1563 233.824 31.5779 232.595 31.0861V31.0861ZM213.301 30.2884C213.301 29.9592 214.445 29.6942 215.843 29.6993C217.705 29.7068 218.146 29.8637 217.489 30.2884C216.307 31.0518 213.301 31.0518 213.301 30.2884V30.2884ZM224.07 30.0533C224.07 29.2032 225.793 28.2224 226.334 28.7642C226.716 29.1461 225.29 30.8867 224.595 30.8867C224.306 30.8867 224.07 30.5118 224.07 30.0533ZM236.155 30.169C235.198 29.212 235.238 27.2973 236.215 27.2973C237.324 27.2973 238.428 28.5502 238.428 29.81C238.428 31.04 237.217 31.2312 236.155 30.169L236.155 30.169ZM240.073 30.2408C238.785 29.4904 238.656 26.699 239.91 26.699C241.01 26.699 242.857 29.4151 242.333 30.2624C241.859 31.0297 241.421 31.0255 240.073 30.2397L240.073 30.2408ZM222.873 28.2492C222.873 27.3459 224.533 25.7662 224.995 26.229C225.485 26.7181 224.641 28.3761 223.724 28.728C223.248 28.9105 222.873 28.7015 222.873 28.2492V28.2492ZM227.163 27.5081C227.279 26.9061 227.866 26.3188 228.468 26.2029C229.259 26.0505 229.504 26.2962 229.352 27.0866C229.236 27.6885 228.649 28.2758 228.047 28.3917C227.256 28.5441 227.011 28.2984 227.163 27.5081V27.5081ZM221.676 26.9685C221.676 26.1064 223.574 23.1094 224.12 23.1094C224.46 23.1094 224.643 23.3113 224.525 23.5581C223.238 26.2698 222.591 27.2973 222.174 27.2973C221.9 27.2973 221.676 27.1495 221.676 26.9685V26.9685ZM230.16 25.359C230.444 23.3705 232.445 23.1957 232.445 25.1595C232.445 26.3174 232.138 26.699 231.207 26.699C230.267 26.699 230.015 26.3766 230.16 25.359ZM225.864 24.9532C225.864 23.7258 226.64 22.5111 227.424 22.5111C228.447 22.5111 228.513 23.8112 227.54 24.7846C226.686 25.6379 225.864 25.7206 225.864 24.9531L225.864 24.9532ZM233.277 24.6493C232.733 23.2309 233.503 21.7983 234.687 22.0264C235.349 22.1538 235.736 22.7735 235.736 23.7077C235.736 25.4131 233.848 26.1362 233.277 24.6493ZM236.538 22.841C236.02 21.7025 236.006 21.1038 236.49 20.6207C237.621 19.4896 239.127 20.539 238.917 22.312C238.661 24.4754 237.41 24.7537 236.538 22.841H236.538ZM225.266 21.0818C225.266 19.3155 227.607 16.1806 227.639 17.9042C227.66 18.9998 226.067 22.5111 225.55 22.5111C225.394 22.5111 225.266 21.8679 225.266 21.0818V21.0818ZM228.856 20.9967C228.856 20.1638 229.271 19.3228 229.779 19.128C231.072 18.6319 231.456 19.2119 231.01 20.9876C230.506 22.9957 228.856 23.0026 228.856 20.9952V20.9967ZM232.089 19.2867C231.557 17.9012 232.357 15.2032 233.215 15.4851C234.312 15.8449 234.426 18.6206 233.38 19.4888C232.62 20.1194 232.395 20.0841 232.089 19.2866V19.2867ZM228.277 16.407C228.255 14.5753 229.391 11.7423 230.148 11.7423C231.119 11.7423 230.638 15.2148 229.474 16.6117L228.297 18.0241L228.277 16.407H228.277ZM235.232 17.3209C234.738 16.8272 234.721 14.539 235.201 13.2869C235.883 11.5118 237.231 12.2257 237.231 14.3612C237.231 16.3269 236.025 18.1134 235.232 17.3209H235.232ZM231.847 10.5947C231.847 7.67173 232.331 6.3578 233.407 6.3578C234.483 6.3578 234.469 8.24169 233.373 10.864C232.249 13.5557 231.847 13.4848 231.847 10.5946L231.847 10.5947ZM234.838 6.44662C234.838 2.273 236.647 -0.647219 237.636 1.92985C238.11 3.16557 236.525 8.28826 235.57 8.60657C235.074 8.77174 234.838 8.07624 234.838 6.44662Z" fill="white"/>
</svg>
