<svg width="264" height="49" viewBox="0 0 264 49" fill="none" xmlns="http://www.w3.org/2000/svg">
<path d="M62.6332 47.9132C58.4467 46.9214 54.8029 45.8229 53.5284 45.1684C52.0489 44.4087 52.0336 44.3451 52.0336 38.979C52.0336 35.491 52.241 33.5573 52.6151 33.5573C52.935 33.5573 54.3004 34.3167 55.6494 35.2448C62.9265 40.2515 75.0882 40.7164 76.2637 36.0327C77.0878 32.7494 75.6808 31.7202 67.7972 29.8395C56.6127 27.1715 52.5772 23.3498 52.5772 15.4262C52.5772 8.52895 56.7636 3.82361 64.8075 1.68017C69.8518 0.335979 79.607 1.13433 84.8362 3.31924L86.8221 4.14901V9.59015V15.0313L82.2825 12.6568C76.8733 9.82724 72.7697 9.08668 68.9951 10.2589C66.0513 11.1731 64.2409 13.2837 64.7298 15.2315C65.1295 16.8242 66.3849 17.3972 73.2544 19.1222C79.8995 20.791 82.0006 21.7183 84.7431 24.193C87.6316 26.7996 88.4556 28.8521 88.4409 33.4039C88.4209 39.6821 85.7739 43.5248 79.4839 46.4088C76.6128 47.7252 75.4745 47.92 69.9714 48.0374C66.5334 48.1107 63.2312 48.0525 62.6332 47.9134V47.9132ZM187.655 47.7155C182.638 46.4644 178.875 43.6008 176.612 39.3135L175.152 36.5467L174.982 19.0165L174.812 1.48639H180.173C183.618 1.48639 185.768 1.7196 186.187 2.13871C186.663 2.61535 186.839 6.93807 186.839 18.1915C186.839 34.7127 187.063 36.315 189.62 38.1064C191.286 39.2733 196.491 39.2965 198.136 38.1446C201.071 36.0889 201.23 35.1005 201.422 17.6577L201.6 1.48651H206.975C211.891 1.48651 212.401 1.58441 212.964 2.63705C213.396 3.44371 213.524 8.60609 213.391 19.9078L213.202 36.0278L211.404 39.6806C209.342 43.8672 206.803 45.9591 202.081 47.3613C199.017 48.2713 190.701 48.4755 187.654 47.7155L187.655 47.7155ZM22.4996 47.3274C22.3003 47.1282 22.1372 45.0567 22.1372 42.7243V38.4836L15.7502 38.3306L9.36328 38.1775L9.20949 32.0624L9.05592 25.9472H5.58498C1.09507 25.9472 0.394409 25.6459 0.394409 23.7147V22.1422H4.74298H9.09153V15.8911V9.64004H15.6144H22.1372V4.98356V0.327148L23.6321 0.499066C25.0974 0.668011 25.1322 0.75685 25.3987 5.01967L25.6705 9.36818L31.9215 9.63998L38.1726 9.91173L38.3261 16.0043L38.4797 22.0969L42.6177 22.2553C46.9538 22.4216 48.2452 23.16 47.517 25.0577C47.2403 25.7789 46.3505 25.947 42.8101 25.947H38.4445V32.1808V38.4145L32.0576 38.5676L25.6706 38.7207L25.5127 43.2052C25.3624 47.4723 25.2943 47.6896 24.1084 47.6896C23.4229 47.6896 22.699 47.5267 22.4997 47.3272L22.4996 47.3274ZM22.1372 30.5676V25.9473H17.5168H12.8965V30.5676V35.188H17.5168H22.1372V30.5676ZM35.1829 30.5676V25.9473H30.2908H25.3986V30.5676V35.188H30.2908H35.1829V30.5676ZM24.3115 24.0127C24.3115 23.5467 24.0629 23.3189 23.759 23.5067C23.4552 23.6946 23.3473 24.0759 23.5193 24.3542C23.9853 25.1081 24.3115 24.9676 24.3115 24.0129L24.3115 24.0127ZM22.1372 17.522V12.9016H17.5568H12.9764L12.8006 17.5232L12.6249 22.1448L17.3811 22.1436L22.1374 22.1423L22.1372 17.522ZM35.1829 17.4993V12.8578L30.4267 13.0151L25.6704 13.1723L25.5125 17.6568L25.3545 22.1412H30.2686H35.1828L35.1829 17.4993ZM94.568 47.3286C94.0396 47.115 93.8886 41.9872 93.8886 24.2613V1.46817L109.244 1.61252L124.6 1.75693L124.758 6.22845L124.916 10.7L115.517 10.8489L106.119 10.9978L105.958 14.6669L105.797 18.3361H114.509C124.535 18.3361 123.991 17.9963 123.679 24.0662L123.513 27.305L114.68 27.4543L105.847 27.6036V33.0258V38.448H115.36H124.872V43.0684V47.6888L110.06 47.6457C101.913 47.623 94.9418 47.4794 94.568 47.3286H94.568ZM132.542 46.946C132.1 46.413 131.966 39.9336 132.068 23.9801L132.21 1.75681H137.918H143.625L143.897 11.2694L144.169 20.7818L147.191 16.7051C148.853 14.4628 152.021 10.121 154.231 7.05666L158.249 1.48507H164.663C170.413 1.48507 171.074 1.58339 171.062 2.43635C171.053 2.95951 167.636 7.7905 163.466 13.1719C159.296 18.5532 155.877 23.0953 155.87 23.2654C155.861 23.4355 159.496 28.8169 163.946 35.2239C168.396 41.631 171.928 47.0567 171.796 47.2809C171.371 48.001 159.409 47.7568 158.483 47.0092C158.02 46.6354 155.115 42.5995 152.027 38.0402C148.94 33.481 146.267 29.7508 146.088 29.7508C145.909 29.7508 145.343 30.4612 144.83 31.3295C144.072 32.6125 143.897 34.2924 143.897 40.2984V47.6886H138.528C134.652 47.6886 132.987 47.4819 132.543 46.946H132.542ZM222.307 47.3286C221.779 47.115 221.628 41.9749 221.628 24.1997V1.34493L233.722 1.63634C240.374 1.79621 246.702 2.19752 247.783 2.52747C250.447 3.34011 252.987 5.14158 255.005 7.64866C256.509 9.51767 256.705 10.1875 256.881 14.0737C257.129 19.5374 256.132 22.37 252.955 25.2237C251.68 26.3683 250.207 27.5495 249.68 27.8485C248.841 28.325 249.632 29.5323 256.091 37.6327C260.144 42.7151 263.465 47.0569 263.471 47.2812C263.484 47.7569 251.464 47.8403 250.246 47.3726C249.793 47.1988 246.655 43.4003 243.271 38.9314C237.249 30.9768 237.08 30.8094 235.217 30.9579L233.314 31.1099L233.164 39.3993L233.014 47.6888L228.001 47.6457C225.243 47.623 222.681 47.4794 222.307 47.3286V47.3286ZM241.449 21.3682C245.638 19.6183 246.286 12.9275 242.423 11.3273C241.542 10.9622 239.173 10.744 237.078 10.8347L233.314 10.9972L233.16 16.5689L233.005 22.1405H236.303C238.116 22.1405 240.433 21.7927 241.449 21.3679L241.449 21.3682ZM258.11 6.06213C256.732 4.30967 256.691 3.7418 257.827 2.11985C259.086 0.32212 262.316 0.64545 263.454 2.68318C264.212 4.03909 264.188 4.27098 263.146 5.67285C261.59 7.76591 259.573 7.92184 258.11 6.06213V6.06213ZM262.396 5.83387C263.704 4.52524 263.725 4.2481 262.637 2.69339C261.223 0.675274 257.503 1.6005 257.503 3.97023C257.503 4.99217 259.458 6.92102 260.493 6.92102C260.941 6.92102 261.798 6.43179 262.396 5.83387H262.396ZM259.231 4.20316C259.366 2.73194 259.649 2.30065 260.476 2.30065C261.305 2.30065 261.567 2.70252 261.637 4.08159C261.704 5.41792 261.562 5.72654 261.069 5.31759C260.623 4.9472 260.196 4.98611 259.735 5.43928C259.195 5.97004 259.092 5.71819 259.231 4.20328V4.20316Z" fill="white"/>
</svg>
