<svg width="250" height="61" viewBox="0 0 250 61" fill="none" xmlns="http://www.w3.org/2000/svg">
<path d="M68.7262 29.8682V22.1008H72.8425C76.636 22.1008 76.9589 22.1769 76.9589 23.0695C76.9589 23.9206 76.6361 24.038 74.2954 24.038H71.6319V26.4594V28.8808H74.0532C75.8827 28.8808 76.4746 29.0584 76.4746 29.6072C76.4746 30.156 75.8827 30.3336 74.0532 30.3336H71.6319V32.9971V35.6606H74.573C79.8553 35.6606 78.3987 37.3157 72.9582 37.4956L68.7262 37.6357V29.8682ZM79.5843 36.9469C79.4384 36.5673 79.3874 33.126 79.4706 29.2998L79.6225 22.343H81.0754H82.5281L82.6631 29.0019L82.7976 35.6606H85.483C87.7793 35.6606 88.1449 35.7835 88.0064 36.5081C87.7868 37.6576 80.0126 38.0626 79.5844 36.9468L79.5843 36.9469ZM90.0343 29.8493V22.1008H91.4872H92.94V29.8493V37.5977H91.4872H90.0343V29.8493ZM95.3613 36.8635C95.3613 36.4597 96.8858 33.4632 98.749 30.2047L102.137 24.2801L98.9911 24.1369C92.8676 23.8579 94.5415 22.1008 100.931 22.1008C107.077 22.1008 106.968 21.6456 102.625 29.1891C100.761 32.4276 99.2356 35.2086 99.2356 35.369C99.2356 36.001 104.889 35.6396 105.802 34.9496C107.708 33.5079 108.223 34.9193 106.408 36.6103C105.011 37.9123 95.3613 38.1335 95.3613 36.8636V36.8635ZM107.953 37.0718C107.953 33.4309 113.701 21.9447 115.394 22.2037C116.332 22.3474 121.793 36.6716 121.153 37.3115C119.877 38.5875 118.144 37.5091 117.332 34.9343L116.493 32.2707H114.188C111.705 32.2707 111.498 32.4408 110.362 35.414C109.672 37.219 107.953 38.4021 107.953 37.0718V37.0718ZM115.701 30.1778C115.701 29.8255 115.335 28.4643 114.888 27.1526L114.076 24.7677L113.413 26.3915C111.906 30.0838 111.995 30.8178 113.945 30.8178C115.078 30.8178 115.701 30.5904 115.701 30.1778V30.1778ZM123.288 37.2749C123.11 37.0973 122.965 33.7236 122.965 29.7778V22.6036L124.185 22.2975C129.504 20.9625 134.417 24.6548 131.733 27.9698C130.825 29.0906 130.828 29.1189 131.975 30.4819C133.923 32.7967 133.208 36.1714 130.575 37.0892C128.962 37.6515 123.796 37.783 123.288 37.2744L123.288 37.2749ZM129.745 34.4499C130.576 32.2633 129.242 30.3336 126.9 30.3336C126.117 30.3336 125.935 31.7393 126.29 35.0554C126.419 36.2558 129.247 35.7602 129.745 34.4499V34.4499ZM129.175 26.7933C129.365 25.1304 128.468 23.9414 127.168 24.1357C125.276 24.4184 125.613 28.4861 127.513 28.3009C128.76 28.1796 129.045 27.9206 129.175 26.7933ZM135.556 29.8486V22.0617L139.546 22.2024C144.609 22.3807 146.067 24.0379 141.161 24.0379H138.462V26.4593V28.8808H140.883C142.713 28.8808 143.305 29.0584 143.305 29.6072C143.305 30.156 142.713 30.3335 140.883 30.3335H138.462V32.9971V35.6606H141.403C146.685 35.6606 145.229 37.3156 139.788 37.4954L135.556 37.6357V29.8486ZM149.461 37.2972C149.271 37.1074 149.116 34.0464 149.116 30.4951V24.038H146.901C145.053 24.038 144.713 23.8979 144.849 23.1906C145.009 22.3506 154.426 21.6192 156.22 22.3074C157.559 22.8213 156.283 24.038 154.405 24.038H152.533L152.398 30.6968L152.264 37.3556L151.035 37.4989C150.359 37.5775 149.651 37.4838 149.461 37.297L149.461 37.2972ZM158.317 29.8494V22.101H159.77H161.223V25.4909V28.8808H164.371H167.518V25.4909V22.101H168.971H170.424V29.8494V37.5977H168.971H167.518V34.2078V30.8178H164.371H161.223V34.2078V37.5977H159.77H158.317V29.8494ZM178.405 37.0213C178.262 36.6478 178.206 33.1926 178.279 29.3427L178.414 22.3431L182.565 22.3506C189.885 22.3695 193.436 27.8561 189.964 33.7858C188.081 37.0011 179.336 39.4475 178.404 37.0196L178.405 37.0213ZM186.317 34.5436C189.682 30.9618 187.435 24.038 182.907 24.038H181.078V29.8494V35.6606H183.173C184.734 35.6606 185.535 35.3764 186.317 34.5436V34.5436ZM192.209 37.2701C192.194 36.619 197.179 23.3647 197.683 22.7063C199.509 20.3205 204.698 29.6151 205.456 36.6292C205.696 38.8532 202.644 37.3672 201.726 34.8132L200.812 32.2707H198.27H195.728L194.816 34.8073C194.035 36.9808 192.235 38.681 192.209 37.2701V37.2701ZM199.367 27.8002L198.348 24.7826L197.499 27.1949C196.275 30.6745 196.313 30.8178 198.48 30.8178H200.386L199.367 27.8002ZM207.552 37.2749C206.979 36.7017 207.179 22.6733 207.765 22.3108C208.074 22.1203 210.538 24.2081 213.557 27.2186L218.813 32.4579L218.528 27.8137C218.259 23.4243 218.3 23.1394 219.274 22.6183L220.304 22.0668V29.8323C220.304 39.2896 220.56 39.1827 214.141 32.4109L209.188 27.1858L209.18 32.3918C209.173 37.4397 208.808 38.5275 207.555 37.2749H207.552ZM223.694 29.8494V22.101H225.147H226.6V29.8494V37.5977H225.147H223.694V29.8494ZM229.99 29.8683V22.101H234.106C237.9 22.101 238.223 22.1769 238.223 23.0695C238.223 23.9207 237.9 24.0381 235.559 24.0381H232.896V26.4595V28.8809H235.317C237.147 28.8809 237.738 29.0586 237.738 29.6073C237.738 30.1562 237.147 30.3337 235.317 30.3337H232.896V32.9972V35.6607H235.837C241.119 35.6607 239.663 37.3158 234.222 37.4957L229.99 37.6358V29.8686V29.8683ZM240.865 36.9899C240.728 36.6342 240.677 33.1927 240.751 29.3428L240.886 22.3432H242.339H243.791L243.926 29.0019L244.061 35.6607H246.746C249.043 35.6607 249.408 35.7832 249.27 36.5082C249.057 37.6212 241.278 38.0669 240.864 36.9899H240.865ZM28.7466 60.3958C20.804 59.5737 14.0498 56.2889 8.66132 50.6277C7.26059 49.1561 6.77138 48.5132 6.93087 48.3537C6.96489 48.3197 15.6328 48.2702 26.1894 48.2468L45.3831 48.2064L46.9774 47.7516C64.7716 42.6763 63.8874 16.0344 45.799 12.2442C44.4868 11.9694 44.0605 11.9554 37.8273 11.9914L31.2421 12.0254L31.1646 26.5823C31.0799 42.4656 31.1041 41.9937 30.2727 43.8102C29.5056 45.4858 28.346 46.401 26.3661 46.8933C25.4508 47.1212 13.5651 47.4187 13.5658 47.2142C13.5658 47.199 13.7684 46.8623 14.0164 46.464L14.467 45.7393L14.501 37.6513L14.535 29.5632H16.2579C20.7959 29.5632 21.9026 30.6947 22.0774 35.5137C22.1576 37.726 22.1746 37.832 22.4217 37.6792C22.6833 37.5178 22.6236 21.5222 22.3616 21.5222C22.2403 21.5222 22.1508 21.6526 22.147 21.8341C22.0283 27.3606 20.986 28.5925 16.4293 28.5925H14.5357L14.5017 21.4057L14.4677 14.2188L14.0172 13.4941C13.7692 13.0954 13.5666 12.7356 13.5666 12.6941C13.5666 12.4999 22.6629 12.7603 23.5165 12.9791C26.8914 13.8439 28.1174 15.8465 28.4492 21.0368L28.6091 23.5324L29.0709 23.5769L29.5326 23.6215L29.4525 22.884C29.4079 22.4786 29.2461 20.1189 29.0927 17.6408C28.74 11.9537 28.7109 11.6794 28.461 11.6794C28.3521 11.6794 28.2633 11.7965 28.2633 11.9401C28.2633 12.1824 28.2293 12.1877 27.7434 12.0153C27.3281 11.8672 25.2204 11.8287 17.2762 11.8238C10.7 11.8201 7.32895 11.7701 7.32895 11.6783C7.32895 11.411 10.4583 8.29959 11.8336 7.19952C31.6384 -8.64161 61.5477 4.37117 62.5986 29.2861C63.356 47.244 46.9921 62.2825 28.7485 60.3942L28.7466 60.3958ZM5.95165 47.2414C3.30927 44.4304 0.880599 37.2621 0.583831 31.3985L0.491211 29.565H5.57283H10.6545V37.957C10.6545 48.4096 10.8998 47.4792 8.1174 47.5879L6.34283 47.6571L5.95165 47.2414ZM39.6989 47.368C37.8853 47.122 37.0604 46.9593 36.129 46.6664L35.0546 46.3281L35.0549 30.4254C35.0551 11.3364 34.6875 13.4588 38.0945 12.8751C51.8371 10.5205 62.467 25.0232 56.2761 37.6809C53.1929 43.9847 45.9505 48.2168 39.699 47.3678L39.6989 47.368ZM6.14854 28.4967C0.236032 28.0876 0.581519 28.2371 0.875415 26.2179C1.56737 21.4641 3.25084 17.2738 6.06705 13.2953L6.83791 12.2063L8.25514 12.2588C10.8025 12.3533 10.6232 11.691 10.6405 21.0736L10.6556 28.5947L8.74927 28.5682C7.70083 28.5531 6.5311 28.5218 6.14986 28.4953L6.14854 28.4967Z" fill="white"/>
</svg>
