<svg width="295" height="57" viewBox="0 0 295 57" fill="none" xmlns="http://www.w3.org/2000/svg">
<path fill-rule="evenodd" clip-rule="evenodd" d="M40.1103 0.718994L143.213 14.653L126.803 18.9874L179.749 24.2514L156.835 28.5858L271.704 56.1411L120.921 33.8498L140.116 28.587L91.8162 23.323L109.774 19.608L40.1103 0.718994Z" fill="white"/>
<path d="M1.33179 17.9697H33.6466V25.4296H22.8048V48.1844H12.1736V25.4296H1.33179V17.9697ZM35.5943 33.0973C35.5943 28.1652 37.1589 24.3251 40.2881 21.5772C43.4172 18.8293 47.774 17.4554 53.3584 17.4554C59.0845 17.4554 63.4968 18.8088 66.5952 21.5156C69.6923 24.2083 71.2409 27.9861 71.2409 32.8489C71.2409 36.3801 70.5602 39.2789 69.1989 41.5454C67.8536 43.8001 65.8978 45.5586 63.3316 46.821C60.7815 48.0717 57.5982 48.697 53.7816 48.697C49.9009 48.697 46.6855 48.1545 44.1353 47.0694C41.6012 45.9843 39.5439 44.2669 37.9632 41.9171C36.3839 39.5684 35.5943 36.6285 35.5943 33.0973V33.0973ZM46.2255 33.1378C46.2255 36.1875 46.8667 38.3788 48.1491 39.7117C49.4476 41.0445 51.2074 41.711 53.4286 41.711C55.7126 41.711 57.4805 41.0586 58.7322 39.754C59.9838 38.4481 60.6097 36.1053 60.6097 32.7256C60.6097 29.8814 59.9531 27.807 58.6399 26.5023C57.3401 25.1836 55.5716 24.5242 53.3343 24.5242C51.1921 24.5242 49.4717 25.1906 48.1732 26.5235C46.8747 27.8551 46.2255 30.0599 46.2255 33.1378H46.2255ZM73.3771 17.9697H105.692V25.4296H94.8501V48.1844H84.2189V25.4296H73.3771V17.9697ZM128.409 43.1941H116.299L114.634 48.1826H103.768L116.698 17.9697H128.292L141.222 48.1826H130.097L128.409 43.1941ZM126.178 36.6626L122.377 25.8013L118.6 36.6626H126.178ZM144.648 17.9697H155.279V40.7421H171.87V48.1826H144.648V17.9697ZM192.827 17.9697H212.726C216.044 17.9697 218.586 18.6913 220.354 20.1346C222.138 21.5766 223.03 23.3628 223.03 25.493C223.03 27.278 222.396 28.8099 221.128 30.0887C220.285 30.9401 219.049 31.613 217.422 32.1074C219.893 32.6299 221.707 33.5301 222.866 34.8077C224.04 36.0713 224.627 37.6648 224.627 39.5884C224.627 41.1549 224.212 42.5629 223.383 43.8124C222.554 45.0631 221.419 46.0524 219.979 46.7805C219.087 47.2338 217.742 47.5638 215.943 47.7705C213.55 48.0453 211.962 48.1826 211.179 48.1826H192.825L192.827 17.9697H192.827ZM203.551 29.8192H208.174C209.833 29.8192 210.983 29.5726 211.625 29.0794C212.281 28.5697 212.609 27.8416 212.609 26.8951C212.609 26.0144 212.281 25.3274 211.625 24.8342C210.983 24.3386 209.856 24.0909 208.245 24.0909H203.551V29.8192ZM203.551 41.6916H208.973C210.804 41.6916 212.094 41.4097 212.844 40.8461C213.596 40.2683 213.971 39.4991 213.971 38.5385C213.971 37.6449 213.596 36.9303 212.844 36.3948C212.109 35.8452 210.81 35.5704 208.949 35.5704H203.553L203.551 41.6916H203.551ZM250.535 43.1941H238.425L236.76 48.1826H225.892L238.824 17.9697H250.418L263.348 48.1826H252.224L250.535 43.1941ZM248.304 36.6626L244.503 25.8013L240.724 36.6626H248.304ZM261.023 17.9697H293.338V25.4296H282.496V48.1844H271.865V25.4296H261.024L261.023 17.9697Z" fill="white" stroke="white" stroke-width="1.65655" stroke-miterlimit="10"/>
<path d="M1.33179 17.9697H33.6466V25.4296H22.8048V48.1844H12.1736V25.4296H1.33179V17.9697ZM35.5943 33.0973C35.5943 28.1652 37.1589 24.3251 40.2881 21.5772C43.4172 18.8293 47.774 17.4554 53.3584 17.4554C59.0845 17.4554 63.4968 18.8088 66.5952 21.5156C69.6923 24.2083 71.2409 27.9861 71.2409 32.8489C71.2409 36.3801 70.5602 39.2789 69.1989 41.5454C67.8536 43.8001 65.8978 45.5586 63.3316 46.821C60.7815 48.0717 57.5982 48.697 53.7816 48.697C49.9009 48.697 46.6855 48.1545 44.1353 47.0694C41.6012 45.9843 39.5439 44.2669 37.9632 41.9171C36.3839 39.5684 35.5943 36.6285 35.5943 33.0973V33.0973ZM46.2255 33.1378C46.2255 36.1875 46.8667 38.3788 48.1491 39.7117C49.4476 41.0445 51.2074 41.711 53.4286 41.711C55.7126 41.711 57.4805 41.0586 58.7322 39.754C59.9838 38.4481 60.6097 36.1053 60.6097 32.7256C60.6097 29.8814 59.9531 27.807 58.6399 26.5023C57.3401 25.1836 55.5716 24.5242 53.3343 24.5242C51.1921 24.5242 49.4717 25.1906 48.1732 26.5235C46.8747 27.8551 46.2255 30.0599 46.2255 33.1378H46.2255ZM73.3771 17.9697H105.692V25.4296H94.8501V48.1844H84.2189V25.4296H73.3771V17.9697ZM128.409 43.1941H116.299L114.634 48.1826H103.768L116.698 17.9697H128.292L141.222 48.1826H130.097L128.409 43.1941ZM126.178 36.6626L122.377 25.8013L118.6 36.6626H126.178ZM144.648 17.9697H155.279V40.7421H171.87V48.1826H144.648V17.9697ZM192.827 17.9697H212.726C216.044 17.9697 218.586 18.6913 220.354 20.1346C222.138 21.5766 223.03 23.3628 223.03 25.493C223.03 27.278 222.396 28.8099 221.128 30.0887C220.285 30.9401 219.049 31.613 217.422 32.1074C219.893 32.6299 221.707 33.5301 222.866 34.8077C224.04 36.0713 224.627 37.6648 224.627 39.5884C224.627 41.1549 224.212 42.5629 223.383 43.8124C222.554 45.0631 221.419 46.0524 219.979 46.7805C219.087 47.2338 217.742 47.5638 215.943 47.7705C213.55 48.0453 211.962 48.1826 211.179 48.1826H192.825L192.827 17.9697H192.827ZM203.551 29.8192H208.174C209.833 29.8192 210.983 29.5726 211.625 29.0794C212.281 28.5697 212.609 27.8416 212.609 26.8951C212.609 26.0144 212.281 25.3274 211.625 24.8342C210.983 24.3386 209.856 24.0909 208.245 24.0909H203.551V29.8192ZM203.551 41.6916H208.973C210.804 41.6916 212.094 41.4097 212.844 40.8461C213.596 40.2683 213.971 39.4991 213.971 38.5385C213.971 37.6449 213.596 36.9303 212.844 36.3948C212.109 35.8452 210.81 35.5704 208.949 35.5704H203.553L203.551 41.6916H203.551ZM250.535 43.1941H238.425L236.76 48.1826H225.892L238.824 17.9697H250.418L263.348 48.1826H252.224L250.535 43.1941ZM248.304 36.6626L244.503 25.8013L240.724 36.6626H248.304ZM261.023 17.9697H293.338V25.4296H282.496V48.1844H271.865V25.4296H261.024L261.023 17.9697Z" fill="white"/>
</svg>
